<?xml version="1.0" encoding="UTF-8"?><svg xmlns="http://www.w3.org/2000/svg" viewBox="0 0 2000 410"><defs><style>.cls-1{fill:#000;}.cls-1,.cls-2,.cls-3,.cls-4,.cls-5{stroke-width:0px;}.cls-2{fill:#a87676;}.cls-3{fill:#d19292;}.cls-4{fill:#fff;}.cls-5{fill:#674848;}</style></defs><g id="Vertisan_DeFi_Symbol"><g id="_2024_Vertisan_DeFi_Logo"><polygon class="cls-4" points="32.2 3.82 221.48 156.02 470.31 8.99 473.59 10.89 246.8 404.74 160.14 251.31 249.18 221.6 266.3 237.86 318.64 175.05 27.31 271.95 27.29 271.37 135.07 207.51 29.39 5.44 32.2 3.82"/></g></g><g id="FAT_LOGO"><g id="_2024_Vertisan_DeFi_Logo-2"><polygon class="cls-5" points="32.2 3.82 226.91 152.81 470.31 8.99 473.59 10.89 246.8 404.74 160.14 251.31 249.18 221.6 266.3 237.86 318.64 175.05 27.31 271.95 27.29 271.37 135.07 207.51 29.39 5.44 32.2 3.82"/></g><g id="_2024_Vertisan_DeFi_Logo-3"><polygon class="cls-1" points="165.68 256.75 256.43 226.46 273.21 242.4 322.62 183.11 33.36 279.32 33.27 276.82 140.75 213.13 35.06 11.05 39.28 8.62 233.98 157.61 477.3 13.84 481.95 16.52 253.79 412.76 165.68 256.75"/><path class="cls-1" d="M39.2,9.82l194.71,148.99L477.31,14.99l3.28,1.89-226.79,393.85-86.65-153.43,89.03-29.71,17.12,16.26,52.34-62.81L34.31,277.95l-.02-.57,107.78-63.87L36.39,11.44l2.81-1.62M39.36,7.42l-1.16.67-2.81,1.62-1.66.96.89,1.7,104.8,200.39-106.15,62.9-1.02.61.04,1.19.02.57.1,2.66,2.53-.84,284.67-94.68-46.48,55.78-15.57-14.79-.87-.83-1.14.38-89.03,29.71-2.3.77,1.19,2.11,86.65,153.43,1.72,3.05,1.75-3.04L482.32,17.89l1-1.73-1.73-1-3.28-1.89-1.01-.58-1.01.59-242.24,143.13L40.42,8.23l-1.06-.81h0Z"/></g><g id="_2024_Vertisan_DeFi_Logo-4"><polygon class="cls-2" points="158.68 250.75 249.43 220.46 266.21 236.4 315.62 177.11 26.36 273.32 26.27 270.82 133.75 207.13 28.06 5.05 32.28 2.62 226.98 151.61 470.3 7.84 474.95 10.52 246.79 406.76 158.68 250.75"/><path class="cls-1" d="M32.2,3.82l194.71,148.99L470.31,8.99l3.28,1.89-226.79,393.85-86.65-153.43,89.03-29.71,17.12,16.26,52.34-62.81L27.31,271.95l-.02-.57,107.78-63.87L29.39,5.44l2.81-1.62M32.36,1.42l-1.16.67-2.81,1.62-1.66.96.89,1.7,104.8,200.39-106.15,62.9-1.02.61.04,1.19.02.57.1,2.66,2.53-.84,284.67-94.68-46.48,55.78-15.57-14.79-.87-.83-1.14.38-89.03,29.71-2.3.77,1.19,2.11,86.65,153.43,1.72,3.05,1.75-3.04L475.32,11.89l1-1.73-1.73-1-3.28-1.89-1.01-.58-1.01.59-242.24,143.13L33.42,2.23l-1.06-.81h0Z"/></g></g><g id="Layer_8"><path class="cls-1" d="M1442.98,343.85c-15.63,0-33.21-2.8-53.76-8.57-7.19-1.93-11.75-3.1-14.43-3.1-2.12,0-2.71.7-3.01,1.99l-.32,2.57c-.34,2.37-1.12,3.83-3.95,3.83-.96,0-1.68-.28-2.16-.84-.75-.89-.64-2.21-.47-3.27l14.77-85.98c.42-2.49,1.52-3.46,3.94-3.46.99,0,1.73.3,2.21.88.72.88.58,2.1.41,2.94l-.64,5.82c-4.11,25.34.66,47.54,13.43,62.54,10.6,12.46,25.81,19.04,43.99,19.04,27.9,0,45.92-15.84,45.92-40.35s-21-38.09-43.23-52.17c-25.37-16.06-51.6-32.68-51.6-67.93,0-43.04,33.44-75.49,77.79-75.49,13.91,0,27.33,3.9,41,8.25,7.44,2.25,11.37,3.32,13.54,3.32,1.52,0,1.96-.43,2.23-2.19l.66-2.67c.33-2.26,1.08-3.76,3.61-3.76.96,0,1.69.28,2.16.84.75.89.64,2.21.47,3.27l-12.8,74.49c-.3,1.79-.94,3.46-3.61,3.46-1.18,0-2.01-.31-2.54-.95-.71-.87-.58-2.06-.41-2.87l.98-5.87c3.6-22.16-.52-42.14-11.31-54.82-8.29-9.75-20.27-14.9-34.63-14.9-22.76,0-38.05,15.03-38.05,37.39,0,24.39,21.69,37.76,44.66,51.92,26.44,16.3,53.78,33.15,53.78,68.51,0,23.07-8.67,42.75-25.08,56.91-16.08,13.87-38.05,21.2-63.53,21.2ZM1016.39,343.85c-13.23,0-23.88-4.03-30.8-11.65-6.27-6.91-9.01-16.42-7.93-27.51.44-7.27,2.33-16.09,4.34-25.42,2.54-11.8,5.17-24,5.17-34.54,0-15.65-8.62-24.27-24.27-24.27h-25.27c-2,0-2.04.2-2.3,1.49l-17.72,99.74c-1.11,5.88-1.96,10.83-1.08,11.89.23.27.73.38,1.74.38h14.44c2.57,0,3.62.86,3.62,2.97,0,2.47-1.64,2.97-4.28,2.97h-84.01c-2.58,0-3.62-.86-3.62-2.97,0-2.97,3-2.97,4.28-2.97h12.14c2.98,0,3.24-.59,5.58-12.64l34.78-196.87c.96-5.89,1.78-10.99.97-11.95-.2-.23-.68-.33-1.62-.33h-14.44c-3.3,0-3.3-2-3.3-2.97,0-.89.42-2.97,4.28-2.97h99.76c18.62,0,34.4,3.67,45.65,10.61,13.27,8.19,20,20.53,20,36.66,0,38.36-32.35,59.56-66.42,64.54,31.47,5.17,48.7,22.39,48.7,49,0,9.3-2.28,20.25-4.48,30.84-1.92,9.21-3.72,17.9-3.72,24.29,0,5.65,2.31,8.52,6.88,8.52,13.15,0,19.53-26.05,21.66-37.25.34-1.71.82-3.11,3.28-3.11,1.04,0,1.82.33,2.32.97.65.83.74,2.07.29,3.88-4.83,22.19-16.51,48.67-44.61,48.67ZM956.67,112.18c-1.93,0-2.03.42-2.31,1.54l-17.71,99.69c-.17.86-.06,1.11,0,1.17.04.05.28.28,1.32.28h26.25c15.38,0,25.88-8.82,31.2-26.2,5-15,8.49-35.92,8.49-50.9,0-17.21-7.08-25.58-21.64-25.58h-25.6ZM1887.61,342.54c-2.54,0-3.47-1.07-4.21-2.93l-85.55-214.86-23.45,134.26c-6.39,37.01-5.53,57.92,2.78,67.79,4.06,4.83,10.13,7.17,18.55,7.17h4.59c2.58,0,3.62.86,3.62,2.97,0,2.97-3,2.97-4.28,2.97h-66.29c-.94,0-1.64-.1-2.17-.33-.58.23-1.35.33-2.42.33h-83.68c-2.57,0-3.62-.86-3.62-2.97,0-2.46,1.58-2.97,3.95-2.97h13.13c2.54,0,3.74-.3,4.43-1.09,1.27-1.46,1.31-5.25.16-13.52l-10.5-64.29c-.27-1.65-.3-1.79-1.96-1.79h-64.65c-1.59,0-1.9.12-2.72,1.75l-8.85,18.68c-12.36,25.8-15.97,45.09-10.16,54.32,2.48,3.95,6.7,5.95,12.53,5.95h6.24c2.58,0,3.62.86,3.62,2.97,0,2.46-1.58,2.97-3.95,2.97h-64.97c-2.58,0-3.62-.86-3.62-2.97,0-2.46,1.58-2.97,3.95-2.97h1.31c10.84,0,23.15-10.51,47.99-61.78l81.05-166.04c.8-1.61,1.79-2.53,4.51-2.53h22.31c2.44,0,3.17,1,3.6,2.73l36.11,212.71c2.37,14.92,3.65,14.92,7.88,14.92h6.23c1.01,0,1.73.12,2.28.38.64-.26,1.49-.38,2.64-.38h1.31c15.06,0,21.97-15.69,32.16-73.01l23.95-136.51c1.1-5.83,1.94-10.74,1.03-11.84-.26-.32-.84-.44-2.01-.44h-14.11c-2.57,0-3.62-.86-3.62-2.97,0-2.47,1.64-2.97,4.28-2.97h63.99c2.42,0,3.65.38,4.54,2.6l74.3,186.23,18.95-107.93c6.57-36.79,5.76-57.67-2.62-67.68-4.1-4.9-10.22-7.28-18.71-7.28h-4.59c-2.58,0-3.62-.86-3.62-2.97,0-2.97,3-2.97,4.28-2.97h66.29c2.58,0,3.62.86,3.62,2.97,0,2.97-3,2.97-4.28,2.97h-1.31c-15.06,0-21.97,15.69-32.16,73.01l-27.24,154.23c-.44,2.62-1.72,3.12-3.94,3.12h-26.91ZM1587.6,246.49c-.26.66-.21.97-.18,1.01,0,0,.17.17.93.17h62.02c.79,0,.96-.18.98-.2.07-.08.12-.37,0-.9l-15.75-98.99-48,98.9ZM530.08,342.54c-1.99,0-3.13-.87-3.6-2.73l-34.8-212.72c-2.37-14.91-3.37-14.91-7.54-14.91h-6.89c-2.58,0-3.63-.86-3.63-2.97,0-2.97,3-2.97,4.28-2.97h83.68c2.57,0,3.62.86,3.62,2.97,0,2.47-1.64,2.97-4.28,2.97h-12.8c-2.64,0-3.88.29-4.56,1.08-1.38,1.59-1.06,6.17-.03,13.54l25.92,170.75,59.8-125.1c12.35-25.78,15.91-45.11,10.05-54.42-2.44-3.87-6.51-5.84-12.1-5.84h-6.56c-2.57,0-3.62-.86-3.62-2.97,0-2.47,1.64-2.97,4.28-2.97h64.97c2.58,0,3.62.86,3.62,2.97,0,2.97-3,2.97-4.28,2.97h-.98c-11.26,0-23.79,10.51-48.32,61.78l-80.07,166.04c-.78,1.57-1.75,2.54-4.18,2.54h-21.98ZM1260.86,339.92c-2.58,0-3.62-.86-3.62-2.97,0-2.97,3-2.97,4.28-2.97h12.14c2.98,0,3.24-.59,5.58-12.64l34.78-196.87c1.09-6.75,1.72-10.94.92-11.89-.23-.28-.8-.39-1.9-.39h-14.11c-2.37,0-3.95-.5-3.95-2.97,0-2.97,3-2.97,4.28-2.97h84.33c2.13,0,3.3,1.05,3.3,2.97,0,2.66-2.44,2.97-4.28,2.97h-12.14c-2.96,0-3.24.29-5.58,12.64l-34.45,196.88c-1.11,5.88-1.96,10.83-1.08,11.9.23.27.73.38,1.73.38h14.44c2.57,0,3.62.86,3.62,2.97,0,2.47-1.64,2.97-4.28,2.97h-84.01ZM1100.4,339.92c-2.58,0-3.62-.86-3.62-2.97,0-2.97,3-2.97,4.28-2.97h13.13c3.29,0,3.57-.59,5.91-12.64l36.42-207.7c.09-.54.05-.95-.11-1.14-.17-.2-.6-.31-1.2-.31h-15.09c-35.28,0-60.38,35.74-66.94,71.05l-1.32,5.62c-.31,2.2-1.05,3.72-3.6,3.72-.96,0-1.69-.28-2.16-.84-.75-.89-.64-2.21-.47-3.27l14.11-78.77c.39-2.33,1.08-3.45,3.94-3.45h199.19c1.48,0,2.5.37,3.12,1.12.55.67.71,1.58.49,2.7l-14.11,78.74c-.33,2.32-1.11,3.78-3.94,3.78-.96,0-1.68-.28-2.16-.84-.75-.89-.64-2.22-.47-3.27l.98-5.91c4.02-22.5-.04-43.64-10.87-56.57-7.56-9.03-18.21-13.8-30.81-13.8h-15.1c-1.92,0-2.09.43-2.3,1.49l-36.75,208.02c-1.09,6.75-1.72,10.94-.92,11.89.23.28.8.39,1.9.39h15.42c2.58,0,3.62.86,3.62,2.97,0,2.47-1.64,2.97-4.28,2.97h-86.3ZM657.07,339.92c-2.58,0-3.63-.86-3.63-2.97,0-2.97,3-2.97,4.28-2.97h12.14c2.98,0,3.24-.59,5.58-12.64l34.78-196.87c1.09-6.75,1.72-10.94.92-11.89-.23-.28-.8-.39-1.9-.39h-14.11c-2.37,0-3.95-.5-3.95-2.97,0-2.97,3-2.97,4.28-2.97h157.84c.87,0,2.12.1,2.86,1.01.7.86.57,2.02.42,2.81l-13.12,73.81c-.32,2.25-1.06,3.78-3.61,3.78-.96,0-1.68-.28-2.16-.84-.75-.89-.64-2.21-.47-3.27l.66-3.94c3.47-20.47-.77-40.16-11.35-52.7-8.13-9.63-19.64-14.72-33.27-14.72h-27.89c-1.67,0-1.71.17-1.97,1.49l-17.72,99.74c-.18,1.07-.06,1.28-.04,1.3h0s.17.15,1.03.15h16.08c20.61,0,39.5-14.92,42.99-33.96l.66-3.3c.26-1.58.88-3.43,3.28-3.43,1.18,0,2.01.31,2.54.95.71.87.58,2.06.41,2.88l-14.11,79.72c-.32,2.26-1.06,3.78-3.61,3.78-.96,0-1.68-.28-2.16-.84-.75-.89-.64-2.21-.47-3.27l.67-2.7c1.57-8.56-.51-16.84-5.85-23.26-5.79-6.95-14.79-10.94-24.68-10.94h-16.08c-1.67,0-1.71.17-1.97,1.49l-20.01,110.9c-.1.5-.06.75,0,.82.04.05.31.29,1.65.29h29.21c47.48,0,78-42.01,83.68-70.4l.65-3.59c.32-2.25,1.06-3.77,3.61-3.77.96,0,1.69.28,2.16.84.75.89.64,2.21.47,3.27l-13.13,75.81c-.4,2.82-1.56,3.78-4.59,3.78h-170.96Z"/><path class="cls-1" d="M1471.85,103.31c13.45,0,26.25,3.61,40.69,8.2,7.33,2.21,11.47,3.37,13.85,3.37,2.21,0,2.9-.99,3.22-3.04l.66-2.62c.33-2.3.98-2.95,2.62-2.95s1.97.98,1.64,2.95l-12.8,74.49c-.33,1.97-.98,2.63-2.62,2.63-1.97,0-2.3-.98-1.97-2.63l.98-5.91c6.23-38.39-10.17-70.88-46.93-70.88-23.3,0-39.05,15.42-39.05,38.39,0,52.83,98.44,54.47,98.44,120.43,0,46.92-36.75,77.11-87.61,77.11-16.74,0-34.78-3.28-53.49-8.53-7.28-1.95-11.87-3.14-14.71-3.14-2.41,0-3.55.85-4,2.81l-.33,2.63c-.33,2.3-.98,2.95-2.95,2.95-1.64,0-1.97-.98-1.64-2.95l14.77-85.97c.33-1.97.98-2.63,2.95-2.63,1.64,0,1.97.98,1.64,2.63l-.66,5.91c-7.88,48.57,17.06,82.69,58.41,82.69,29.53,0,46.92-17.39,46.92-41.35,0-53.49-94.83-54.14-94.83-120.1,0-40.03,30.52-74.49,76.79-74.49M1675.3,104.62c1.97,0,2.3.66,2.63,1.97l36.1,212.64c2.3,14.44,3.61,15.75,8.86,15.75h6.23c1.2,0,1.87.18,2.22.54-.44.33-.59.8-.59,1.43,0,.67.09,1.17.47,1.5-.42.32-1.15.47-2.44.47h-83.68c-2.3,0-2.63-.66-2.63-1.97s.33-1.97,2.95-1.97h13.13c6.23,0,7.55-1.64,5.58-15.75l-10.5-64.32c-.33-1.97-.66-2.63-2.95-2.63h-64.65c-1.97,0-2.63.33-3.61,2.3l-8.86,18.7c-18.7,39.05-16.74,61.69,3.28,61.69h6.24c2.3,0,2.62.66,2.62,1.97s-.33,1.97-2.95,1.97h-64.97c-2.3,0-2.62-.66-2.62-1.97s.33-1.97,2.95-1.97h1.31c10.83,0,23.3-9.52,48.89-62.35l81.05-166.04c.66-1.31,1.31-1.97,3.61-1.97h22.31M1588.34,248.68h62.02c1.64,0,2.3-.66,1.97-2.3l-16.08-101.07h-.66l-48.89,100.74c-.66,1.64-.33,2.63,1.64,2.63M1979.82,107.25c2.3,0,2.62.66,2.62,1.97s-.66,1.97-3.28,1.97h-1.31c-15.42,0-22.64,14.77-33.14,73.83l-27.24,154.23c-.33,1.97-.98,2.3-2.95,2.3h-26.91c-1.97,0-2.63-.66-3.28-2.3l-86.63-217.56h-.33l-23.95,137.17c-9.52,55.13-3.28,76.13,22.31,76.13h4.59c2.3,0,2.63.66,2.63,1.97s-.66,1.97-3.28,1.97h-66.29c-1.13,0-1.78-.16-2.15-.47.43-.33.52-.83.52-1.5,0-.63-.07-1.1-.4-1.43.48-.36,1.32-.54,2.69-.54h1.31c15.42,0,22.64-14.77,33.14-73.83l23.95-136.51c2.3-12.14,1.97-13.45-1.97-13.45h-14.11c-2.3,0-2.62-.66-2.62-1.97s.33-1.97,3.28-1.97h63.99c2.3,0,2.95.33,3.61,1.97l75.15,188.36h.66l19.36-110.26c9.84-55.13,3.28-76.13-22.31-76.13h-4.59c-2.3,0-2.62-.66-2.62-1.97s.66-1.97,3.28-1.97h66.29M1383.59,107.25c1.97,0,2.3.98,2.3,1.97s-.33,1.97-3.28,1.97h-12.14c-3.94,0-4.27,1.31-6.56,13.45l-34.46,196.89c-2.3,12.14-1.97,13.45,1.64,13.45h14.44c2.3,0,2.62.66,2.62,1.97s-.33,1.97-3.28,1.97h-84.01c-2.3,0-2.63-.66-2.63-1.97s.66-1.97,3.28-1.97h12.14c3.94,0,4.27-1.64,6.56-13.45l34.78-196.89c1.97-12.14,1.97-13.45-1.97-13.45h-14.11c-2.62,0-2.95-.66-2.95-1.97s.66-1.97,3.28-1.97h84.33M1282.85,107.25c2.3,0,2.95.98,2.63,2.62l-14.11,78.75c-.33,2.3-.98,2.95-2.95,2.95-1.64,0-1.97-.98-1.64-2.95l.98-5.91c6.56-36.75-7.88-71.54-42.66-71.54h-15.1c-2.3,0-2.95.66-3.28,2.3l-36.75,208.05c-1.97,12.14-1.97,13.45,1.97,13.45h15.42c2.3,0,2.63.66,2.63,1.97s-.33,1.97-3.28,1.97h-86.3c-2.3,0-2.63-.66-2.63-1.97s.66-1.97,3.28-1.97h13.13c4.27,0,4.59-1.64,6.89-13.45l36.42-207.72c.33-1.97-.66-2.62-2.3-2.62h-15.09c-34.46,0-61.04,34.78-67.93,71.86l-1.31,5.58c-.33,2.3-.98,2.95-2.63,2.95s-1.97-.98-1.64-2.95l14.11-78.75c.33-1.97.66-2.62,2.95-2.62h199.19M986.86,107.25c34.13,0,64.65,12.47,64.65,46.27,0,40.69-37.08,61.36-72.19,64.32v.33c34.46,3.61,54.47,20.67,54.47,48.89,0,17.39-8.2,41.35-8.2,55.13,0,5.58,2.3,9.52,7.88,9.52,13.45,0,20.02-24.28,22.64-38.07.33-1.64.66-2.3,2.3-2.3s2.3.98,1.64,3.61c-5.58,25.6-18.38,47.91-43.64,47.91s-40.03-14.44-37.74-38.07c.98-16.41,9.52-41.02,9.52-60.05,0-15.75-8.53-25.27-25.27-25.27h-25.27c-2.63,0-2.95.66-3.28,2.3l-17.72,99.76c-2.3,12.14-1.97,13.45,1.64,13.45h14.44c2.3,0,2.62.66,2.62,1.97s-.33,1.97-3.28,1.97h-84.01c-2.3,0-2.63-.66-2.63-1.97s.66-1.97,3.28-1.97h12.14c3.94,0,4.27-1.64,6.56-13.45l34.78-196.89c1.97-12.14,1.97-13.45-1.64-13.45h-14.44c-2.3,0-2.3-.98-2.3-1.97s.66-1.97,3.28-1.97h99.76M937.96,215.86h26.25c17.39,0,27.24-10.83,32.16-26.91,4.92-14.77,8.53-35.77,8.53-51.19,0-20.34-9.84-26.58-22.64-26.58h-25.6c-2.63,0-2.95.98-3.28,2.3l-17.72,99.76c-.33,1.64,0,2.63,2.3,2.63M853.31,107.25c2.3,0,2.62.98,2.3,2.62l-13.13,73.83c-.33,2.3-.98,2.95-2.63,2.95s-1.97-.98-1.64-2.95l.66-3.94c5.91-34.78-9.84-68.58-45.61-68.58h-27.89c-2.3,0-2.62.66-2.95,2.3l-17.72,99.76c-.33,1.97,0,2.63,1.97,2.63h16.08c21,0,40.36-15.1,43.97-34.78l.66-3.28c.33-1.97.98-2.63,2.3-2.63,1.97,0,2.3.98,1.97,2.63l-14.11,79.74c-.33,2.3-.98,2.95-2.63,2.95s-1.97-.98-1.64-2.95l.66-2.63c3.61-19.69-11.49-35.44-31.5-35.44h-16.08c-2.3,0-2.63.66-2.95,2.3l-20.02,110.91c-.33,1.64.33,2.3,2.63,2.3h29.21c46.6,0,78.43-40.03,84.66-71.21l.66-3.61c.33-2.3.98-2.95,2.63-2.95s1.97.98,1.64,2.95l-13.13,75.8c-.33,2.3-.98,2.95-3.61,2.95h-170.96c-2.3,0-2.63-.66-2.63-1.97s.66-1.97,3.28-1.97h12.14c3.94,0,4.27-1.64,6.56-13.45l34.78-196.89c1.97-12.14,1.97-13.45-1.97-13.45h-14.11c-2.62,0-2.95-.66-2.95-1.97s.66-1.97,3.28-1.97h157.84M686.28,107.25c2.3,0,2.63.66,2.63,1.97s-.66,1.97-3.28,1.97h-.98c-11.16,0-23.63,8.86-49.22,62.35l-80.07,166.04c-.66,1.31-1.31,1.97-3.28,1.97h-21.99c-1.64,0-2.3-.66-2.63-1.97l-34.78-212.64c-2.3-14.44-3.28-15.75-8.53-15.75h-6.89c-2.3,0-2.63-.66-2.63-1.97s.66-1.97,3.28-1.97h83.68c2.3,0,2.62.66,2.62,1.97s-.33,1.97-3.28,1.97h-12.8c-6.56,0-7.55,1.64-5.58,15.75l26.25,172.93h.66l60.71-126.99c18.7-39.05,16.41-61.69-2.95-61.69h-6.56c-2.3,0-2.62-.66-2.62-1.97s.33-1.97,3.28-1.97h64.97M1471.85,101.31c-22.37,0-42.67,8.11-57.17,22.83-13.94,14.15-21.62,33.21-21.62,53.66,0,16.06,5.49,29.8,16.77,42.01,9.85,10.66,22.79,18.85,35.3,26.77,21.99,13.93,42.77,27.08,42.77,51.33s-17.63,39.35-44.92,39.35c-17.87,0-32.82-6.46-43.23-18.69-12.57-14.78-17.26-36.68-13.21-61.68v-.05s.01-.05.01-.05l.65-5.82c.13-.67.42-2.4-.64-3.69-.47-.57-1.36-1.24-2.98-1.24-2.91,0-4.43,1.33-4.93,4.3l-14.77,85.96c-.21,1.28-.33,2.9.69,4.09.67.79,1.66,1.2,2.92,1.2,3.76,0,4.6-2.36,4.93-4.67l.32-2.56c.17-.73.34-1.16,2.03-1.16,2.56,0,7.07,1.16,14.19,3.07,20.61,5.78,38.28,8.6,54.01,8.6,25.73,0,47.93-7.42,64.19-21.45,16.63-14.35,25.43-34.29,25.43-57.67,0-16.12-5.72-29.95-17.5-42.28-10.27-10.76-23.74-19.06-36.76-27.08-22.72-14-44.18-27.23-44.18-51.07,0-21.77,14.89-36.39,37.05-36.39,14.06,0,25.78,5.03,33.87,14.55,10.59,12.45,14.63,32.14,11.08,54.01l-.98,5.87c-.12.62-.45,2.36.63,3.67.71.87,1.83,1.31,3.31,1.31,3.48,0,4.29-2.45,4.6-4.3l12.8-74.48c.21-1.28.33-2.89-.69-4.09-.67-.79-1.66-1.2-2.92-1.2-3.43,0-4.27,2.42-4.59,4.57l-.63,2.53-.02.09v.09c-.22,1.34-.3,1.34-1.25,1.34-2.24,0-6.91-1.36-13.27-3.28-13.71-4.36-27.21-8.29-41.27-8.29h0ZM1675.3,102.62h-22.31c-3.21,0-4.48,1.23-5.4,3.07l-81.06,166.06c-26.07,53.81-38.04,61.23-47.1,61.23h-1.31c-2.31,0-4.95.45-4.95,3.97,0,3.97,3.48,3.97,4.62,3.97h64.97c2.31,0,4.95-.45,4.95-3.97,0-3.97-3.48-3.97-4.62-3.97h-6.24c-5.47,0-9.4-1.84-11.69-5.48-5.62-8.92-2-27.87,10.21-53.35l8.86-18.71q.58-1.15,1.8-1.15h64.65c.42,0,.66.03.79.05.05.15.11.42.19.9l10.5,64.31c.76,5.42,1.36,11.2.07,12.68-.46.53-1.53.75-3.68.75h-13.13c-2.31,0-4.95.45-4.95,3.97,0,3.97,3.48,3.97,4.63,3.97h83.68c.99,0,1.77-.08,2.41-.27.73.23,1.51.27,2.18.27h66.29c3.5,0,5.28-1.34,5.28-3.97,0-3.97-3.48-3.97-4.63-3.97h-4.59c-8.1,0-13.92-2.23-17.78-6.82-8.11-9.63-8.9-30.28-2.56-66.97l22.84-130.78,84.25,211.57c.74,1.85,1.87,3.56,5.14,3.56h26.91c2.56,0,4.38-.67,4.93-3.97l27.23-154.21c5.43-30.56,9.79-48.09,14.58-58.59,5.44-11.95,11.19-13.6,16.6-13.6h1.31c3.5,0,5.28-1.34,5.28-3.97,0-3.97-3.48-3.97-4.62-3.97h-66.29c-3.5,0-5.28,1.34-5.28,3.97,0,3.97,3.48,3.97,4.62,3.97h4.59c8.17,0,14.04,2.26,17.94,6.92,8.06,9.63,8.83,30.88,2.4,66.86l-18.34,104.47-72.99-182.96c-1.08-2.71-2.76-3.23-5.47-3.23h-63.99c-1.71,0-5.28,0-5.28,3.97s3.48,3.97,4.62,3.97h14.11c.84,0,1.15.07,1.26.11.6,1.17-.65,7.77-1.26,10.97l-23.96,136.54c-5.43,30.56-9.79,48.08-14.58,58.58-5.44,11.95-11.19,13.6-16.6,13.6h-1.31c-1.07,0-1.92.1-2.62.31-.76-.26-1.59-.31-2.3-.31h-6.23c-3.66,0-4.65,0-6.88-14.07l-36.1-212.66v-.08s-.03-.07-.03-.07c-.45-1.81-1.32-3.48-4.57-3.48h0ZM1588.62,246.68l46.49-95.79,15.24,95.79h-61.73ZM1383.59,105.25h-84.33c-3.5,0-5.28,1.34-5.28,3.97,0,3.52,2.65,3.97,4.95,3.97h14.11c.71,0,1.02.05,1.15.09.45,1.15-.44,6.62-1.16,11.05l-34.78,196.86c-2.3,11.8-2.47,11.8-4.59,11.8h-12.14c-3.5,0-5.28,1.34-5.28,3.97,0,3.97,3.48,3.97,4.63,3.97h84.01c1.71,0,5.28,0,5.28-3.97s-3.48-3.97-4.62-3.97h-14.44c-.59,0-.87-.05-.98-.08-.53-1.3.71-7.83,1.31-11.01l34.46-196.92c1.1-5.79,1.76-9.17,2.51-10.78.4-.86.53-1.02,2.08-1.02h12.14c4.37,0,5.28-2.16,5.28-3.97,0-2.49-1.61-3.97-4.3-3.97h0ZM1282.85,105.25h-199.19c-3.52,0-4.47,1.58-4.93,4.3l-14.11,78.73c-.22,1.3-.33,2.91.69,4.11.67.8,1.66,1.2,2.92,1.2,3.44,0,4.27-2.43,4.59-4.58l1.29-5.49v-.05s.02-.05.02-.05c6.33-34.05,31.59-70.23,65.96-70.23h15.09c.15,0,.27,0,.36.02,0,.07-.01.16-.03.28l-36.42,207.7c-2.29,11.8-2.44,11.8-4.92,11.8h-13.13c-3.5,0-5.28,1.34-5.28,3.97,0,3.97,3.48,3.97,4.63,3.97h86.3c1.71,0,5.28,0,5.28-3.97s-3.48-3.97-4.63-3.97h-15.42c-.71,0-1.02-.05-1.15-.09-.45-1.15.44-6.62,1.16-11.04l36.75-208.02c.06-.31.13-.46.15-.52.09-.04.39-.13,1.16-.13h15.1c12.29,0,22.68,4.65,30.04,13.45,10.63,12.7,14.61,33.54,10.65,55.74l-.99,5.93c-.21,1.27-.32,2.89.69,4.09.67.79,1.66,1.2,2.92,1.2,3.74,0,4.6-2.34,4.93-4.64l14.1-78.72c.28-1.39.05-2.58-.7-3.49-.81-.99-2.12-1.49-3.89-1.49h0ZM986.86,105.25h-99.76c-4.9,0-5.28,3.04-5.28,3.97,0,3.97,3.23,3.97,4.3,3.97h14.44c.48,0,.74.03.87.06.38,1.26-.5,6.68-1.21,11.08l-34.78,196.86c-2.3,11.8-2.47,11.8-4.59,11.8h-12.14c-3.5,0-5.28,1.34-5.28,3.97,0,3.97,3.48,3.97,4.63,3.97h84.01c1.71,0,5.28,0,5.28-3.97s-3.48-3.97-4.62-3.97h-14.44c-.59,0-.87-.05-.98-.08-.53-1.3.71-7.83,1.31-11.01l17.72-99.78c.06-.28.1-.46.13-.56.16-.04.51-.09,1.18-.09h25.27c15.22,0,23.27,8.05,23.27,23.27,0,10.43-2.62,22.58-5.15,34.33-2.01,9.35-3.92,18.19-4.36,25.57-1.1,11.37,1.73,21.13,8.19,28.24,7.11,7.84,18.02,11.98,31.54,11.98,12.36,0,22.71-5.08,30.76-15.1,6.68-8.31,11.67-19.87,14.83-34.35.33-1.34.64-3.28-.48-4.71-.48-.62-1.41-1.35-3.11-1.35-3.48,0-3.98,2.54-4.26,3.9-2.09,10.97-8.28,36.46-20.68,36.46-1.45,0-5.88,0-5.88-7.52,0-6.29,1.8-14.93,3.7-24.09,2.21-10.64,4.5-21.64,4.5-31.04,0-14.53-5.04-26.37-14.99-35.17-7.34-6.5-17.11-11.11-29.13-13.77,14.54-2.89,27.78-8.65,38.14-16.71,15.51-12.06,23.7-28.62,23.7-47.89,0-16.5-6.89-29.13-20.47-37.51-11.4-7.04-27.37-10.76-46.17-10.76h0ZM955.52,113.32c.09-.04.4-.14,1.15-.14h25.6c14.08,0,20.64,7.81,20.64,24.58,0,14.88-3.47,35.67-8.43,50.56-5.19,16.96-15.37,25.54-30.26,25.54h-26.25c-.15,0-.27,0-.37-.01,0-.06.02-.14.04-.22l17.72-99.73c.04-.17.12-.46.18-.58h0ZM853.31,105.25h-157.84c-2.56,0-4.2.71-4.89,2.12-.9-2.12-3.36-2.12-4.29-2.12h-64.97c-1.71,0-5.28,0-5.28,3.97s3.48,3.97,4.62,3.97h6.56c5.22,0,9.01,1.81,11.25,5.37,5.6,8.89,1.91,28.37-10.1,53.46l-58.4,122.17-25.43-167.54c-.81-5.79-1.39-11.35-.2-12.72.45-.51,1.59-.73,3.81-.73h12.8c1.71,0,5.28,0,5.28-3.97s-3.48-3.97-4.62-3.97h-83.68c-3.5,0-5.28,1.34-5.28,3.97,0,3.97,3.48,3.97,4.63,3.97h6.89c3.58,0,4.32,0,6.56,14.07l34.79,212.65v.08s.03.08.03.08c.58,2.31,2.11,3.49,4.57,3.49h21.99c3.11,0,4.27-1.48,5.07-3.08l80.08-166.07c24.31-50.81,36.54-61.22,47.42-61.22h.98c2.56,0,4.19-.71,4.89-2.12.78,1.84,2.81,2.12,4.62,2.12h14.11c.71,0,1.02.05,1.15.09.45,1.15-.44,6.62-1.16,11.05l-34.78,196.86c-2.3,11.8-2.47,11.8-4.59,11.8h-12.14c-3.5,0-5.28,1.34-5.28,3.97,0,3.97,3.48,3.97,4.63,3.97h170.96c3.53,0,5.1-1.3,5.59-4.64l13.12-75.77c.21-1.28.33-2.9-.69-4.1-.67-.79-1.66-1.2-2.92-1.2-3.47,0-4.28,2.46-4.6,4.63l-.65,3.58c-5.61,28.03-35.77,69.57-82.69,69.57h-29.21c-.27,0-.48-.01-.64-.03l20-110.83c.06-.3.11-.49.14-.6.14-.03.4-.06.84-.06h16.08c9.59,0,18.31,3.86,23.91,10.58,5.14,6.17,7.14,14.14,5.64,22.44l-.64,2.56-.02.08v.08c-.23,1.27-.34,2.88.68,4.08.67.8,1.66,1.2,2.92,1.2,3.47,0,4.29-2.47,4.6-4.64l14.1-79.71c.11-.54.47-2.32-.63-3.66-.71-.87-1.83-1.31-3.31-1.31-3.52,0-4.08,3.18-4.27,4.27l-.65,3.25c-3.41,18.62-21.86,33.18-42.01,33.18h-16.08s-.03,0-.04,0c.01-.09.03-.18.04-.3l17.72-99.74c.06-.3.11-.48.14-.59.14-.03.4-.06.84-.06h27.89c13.33,0,24.57,4.97,32.51,14.37,10.4,12.31,14.56,31.71,11.13,51.88l-.66,3.94c-.21,1.27-.32,2.89.69,4.09.67.79,1.66,1.2,2.92,1.2,3.47,0,4.28-2.47,4.6-4.63l13.12-73.8c.19-.95.34-2.42-.63-3.6-1.13-1.37-3.02-1.37-3.64-1.37h0Z"/><path class="cls-3" d="M1436.98,337.85c-15.63,0-33.21-2.8-53.76-8.57-7.19-1.93-11.75-3.1-14.43-3.1-2.12,0-2.71.7-3.01,1.99l-.32,2.57c-.34,2.37-1.12,3.83-3.95,3.83-.96,0-1.68-.28-2.16-.84-.75-.89-.64-2.21-.47-3.27l14.77-85.98c.42-2.49,1.52-3.46,3.94-3.46.99,0,1.73.3,2.21.88.72.88.58,2.1.41,2.94l-.64,5.82c-4.11,25.34.66,47.54,13.43,62.54,10.6,12.46,25.81,19.04,43.99,19.04,27.9,0,45.92-15.84,45.92-40.35s-21-38.09-43.23-52.17c-25.37-16.06-51.6-32.68-51.6-67.93,0-43.04,33.44-75.49,77.79-75.49,13.91,0,27.33,3.9,41,8.25,7.44,2.25,11.37,3.32,13.54,3.32,1.52,0,1.96-.43,2.23-2.19l.66-2.67c.33-2.26,1.08-3.76,3.61-3.76.96,0,1.69.28,2.16.84.75.89.64,2.21.47,3.27l-12.8,74.49c-.3,1.79-.94,3.46-3.61,3.46-1.18,0-2.01-.31-2.54-.95-.71-.87-.58-2.06-.41-2.87l.98-5.87c3.6-22.16-.52-42.14-11.31-54.82-8.29-9.75-20.27-14.9-34.63-14.9-22.76,0-38.05,15.03-38.05,37.39,0,24.39,21.69,37.76,44.66,51.92,26.44,16.3,53.78,33.15,53.78,68.51,0,23.07-8.67,42.75-25.08,56.91-16.08,13.87-38.05,21.2-63.53,21.2ZM1010.39,337.85c-13.23,0-23.88-4.03-30.8-11.65-6.27-6.91-9.01-16.42-7.93-27.51.44-7.27,2.33-16.09,4.34-25.42,2.54-11.8,5.17-24,5.17-34.54,0-15.65-8.62-24.27-24.27-24.27h-25.27c-2,0-2.04.2-2.3,1.49l-17.72,99.74c-1.11,5.88-1.96,10.83-1.08,11.89.23.27.73.38,1.74.38h14.44c2.57,0,3.62.86,3.62,2.97,0,2.47-1.64,2.97-4.28,2.97h-84.01c-2.58,0-3.62-.86-3.62-2.97,0-2.97,3-2.97,4.28-2.97h12.14c2.98,0,3.24-.59,5.58-12.64l34.78-196.87c.96-5.89,1.78-10.99.97-11.95-.2-.23-.68-.33-1.62-.33h-14.44c-3.3,0-3.3-2-3.3-2.97,0-.89.42-2.97,4.28-2.97h99.76c18.62,0,34.4,3.67,45.65,10.61,13.27,8.19,20,20.53,20,36.66,0,38.36-32.35,59.56-66.42,64.54,31.47,5.17,48.7,22.39,48.7,49,0,9.3-2.28,20.25-4.48,30.84-1.92,9.21-3.72,17.9-3.72,24.29,0,5.65,2.31,8.52,6.88,8.52,13.15,0,19.53-26.05,21.66-37.25.34-1.71.82-3.11,3.28-3.11,1.04,0,1.82.33,2.32.97.65.83.74,2.07.29,3.88-4.83,22.19-16.51,48.67-44.61,48.67ZM950.67,106.18c-1.93,0-2.03.42-2.31,1.54l-17.71,99.69c-.17.86-.06,1.11,0,1.17.04.05.28.28,1.32.28h26.25c15.38,0,25.88-8.82,31.2-26.2,5-15,8.49-35.92,8.49-50.9,0-17.21-7.08-25.58-21.64-25.58h-25.6ZM1881.61,336.54c-2.54,0-3.47-1.07-4.21-2.93l-85.55-214.86-23.45,134.26c-6.39,37.01-5.53,57.92,2.78,67.79,4.06,4.83,10.13,7.17,18.55,7.17h4.59c2.58,0,3.62.86,3.62,2.97,0,2.97-3,2.97-4.28,2.97h-66.29c-.94,0-1.64-.1-2.17-.33-.58.23-1.35.33-2.42.33h-83.68c-2.57,0-3.62-.86-3.62-2.97,0-2.46,1.58-2.97,3.95-2.97h13.13c2.54,0,3.74-.3,4.43-1.09,1.27-1.46,1.31-5.25.16-13.52l-10.5-64.29c-.27-1.65-.3-1.79-1.96-1.79h-64.65c-1.59,0-1.9.12-2.72,1.75l-8.85,18.68c-12.36,25.8-15.97,45.09-10.16,54.32,2.48,3.95,6.7,5.95,12.53,5.95h6.24c2.58,0,3.62.86,3.62,2.97,0,2.46-1.58,2.97-3.95,2.97h-64.97c-2.58,0-3.62-.86-3.62-2.97,0-2.46,1.58-2.97,3.95-2.97h1.31c10.84,0,23.15-10.51,47.99-61.78l81.05-166.04c.8-1.61,1.79-2.53,4.51-2.53h22.31c2.44,0,3.17,1,3.6,2.73l36.11,212.71c2.37,14.92,3.65,14.92,7.88,14.92h6.23c1.01,0,1.73.12,2.28.38.64-.26,1.49-.38,2.64-.38h1.31c15.06,0,21.97-15.69,32.16-73.01l23.95-136.51c1.1-5.83,1.94-10.74,1.03-11.84-.26-.32-.84-.44-2.01-.44h-14.11c-2.57,0-3.62-.86-3.62-2.97,0-2.47,1.64-2.97,4.28-2.97h63.99c2.42,0,3.65.38,4.54,2.6l74.3,186.23,18.95-107.93c6.57-36.79,5.76-57.67-2.62-67.68-4.1-4.9-10.22-7.28-18.71-7.28h-4.59c-2.58,0-3.62-.86-3.62-2.97,0-2.97,3-2.97,4.28-2.97h66.29c2.58,0,3.62.86,3.62,2.97,0,2.97-3,2.97-4.28,2.97h-1.31c-15.06,0-21.97,15.69-32.16,73.01l-27.24,154.23c-.44,2.62-1.72,3.12-3.94,3.12h-26.91ZM1581.6,240.49c-.26.66-.21.97-.18,1.01,0,0,.17.17.93.17h62.02c.79,0,.96-.18.98-.2.07-.08.12-.37,0-.9l-15.75-98.99-48,98.9ZM524.08,336.54c-1.99,0-3.13-.87-3.6-2.73l-34.8-212.72c-2.37-14.91-3.37-14.91-7.54-14.91h-6.89c-2.58,0-3.63-.86-3.63-2.97,0-2.97,3-2.97,4.28-2.97h83.68c2.57,0,3.62.86,3.62,2.97,0,2.47-1.64,2.97-4.28,2.97h-12.8c-2.64,0-3.88.29-4.56,1.08-1.38,1.59-1.06,6.17-.03,13.54l25.92,170.75,59.8-125.1c12.35-25.78,15.91-45.11,10.05-54.42-2.44-3.87-6.51-5.84-12.1-5.84h-6.56c-2.57,0-3.62-.86-3.62-2.97,0-2.47,1.64-2.97,4.28-2.97h64.97c2.58,0,3.62.86,3.62,2.97,0,2.97-3,2.97-4.28,2.97h-.98c-11.26,0-23.79,10.51-48.32,61.78l-80.07,166.04c-.78,1.57-1.75,2.54-4.18,2.54h-21.98ZM1254.86,333.92c-2.58,0-3.62-.86-3.62-2.97,0-2.97,3-2.97,4.28-2.97h12.14c2.98,0,3.24-.59,5.58-12.64l34.78-196.87c1.09-6.75,1.72-10.94.92-11.89-.23-.28-.8-.39-1.9-.39h-14.11c-2.37,0-3.95-.5-3.95-2.97,0-2.97,3-2.97,4.28-2.97h84.33c2.13,0,3.3,1.05,3.3,2.97,0,2.66-2.44,2.97-4.28,2.97h-12.14c-2.96,0-3.24.29-5.58,12.64l-34.45,196.88c-1.11,5.88-1.96,10.83-1.08,11.9.23.27.73.38,1.73.38h14.44c2.57,0,3.62.86,3.62,2.97,0,2.47-1.64,2.97-4.28,2.97h-84.01ZM1094.4,333.92c-2.58,0-3.62-.86-3.62-2.97,0-2.97,3-2.97,4.28-2.97h13.13c3.29,0,3.57-.59,5.91-12.64l36.42-207.7c.09-.54.05-.95-.11-1.14-.17-.2-.6-.31-1.2-.31h-15.09c-35.28,0-60.38,35.74-66.94,71.05l-1.32,5.62c-.31,2.2-1.05,3.72-3.6,3.72-.96,0-1.69-.28-2.16-.84-.75-.89-.64-2.21-.47-3.27l14.11-78.77c.39-2.33,1.08-3.45,3.94-3.45h199.19c1.48,0,2.5.37,3.12,1.12.55.67.71,1.58.49,2.7l-14.11,78.74c-.33,2.32-1.11,3.78-3.94,3.78-.96,0-1.68-.28-2.16-.84-.75-.89-.64-2.22-.47-3.27l.98-5.91c4.02-22.5-.04-43.64-10.87-56.57-7.56-9.03-18.21-13.8-30.81-13.8h-15.1c-1.92,0-2.09.43-2.3,1.49l-36.75,208.02c-1.09,6.75-1.72,10.94-.92,11.89.23.28.8.39,1.9.39h15.42c2.58,0,3.62.86,3.62,2.97,0,2.47-1.64,2.97-4.28,2.97h-86.3ZM651.07,333.92c-2.58,0-3.63-.86-3.63-2.97,0-2.97,3-2.97,4.28-2.97h12.14c2.98,0,3.24-.59,5.58-12.64l34.78-196.87c1.09-6.75,1.72-10.94.92-11.89-.23-.28-.8-.39-1.9-.39h-14.11c-2.37,0-3.95-.5-3.95-2.97,0-2.97,3-2.97,4.28-2.97h157.84c.87,0,2.12.1,2.86,1.01.7.86.57,2.02.42,2.81l-13.12,73.81c-.32,2.25-1.06,3.78-3.61,3.78-.96,0-1.68-.28-2.16-.84-.75-.89-.64-2.21-.47-3.27l.66-3.94c3.47-20.47-.77-40.16-11.35-52.7-8.13-9.63-19.64-14.72-33.27-14.72h-27.89c-1.67,0-1.71.17-1.97,1.49l-17.72,99.74c-.18,1.07-.06,1.28-.04,1.3h0s.17.15,1.03.15h16.08c20.61,0,39.5-14.92,42.99-33.96l.66-3.3c.26-1.58.88-3.43,3.28-3.43,1.18,0,2.01.31,2.54.95.71.87.58,2.06.41,2.88l-14.11,79.72c-.32,2.26-1.06,3.78-3.61,3.78-.96,0-1.68-.28-2.16-.84-.75-.89-.64-2.21-.47-3.27l.67-2.7c1.57-8.56-.51-16.84-5.85-23.26-5.79-6.95-14.79-10.94-24.68-10.94h-16.08c-1.67,0-1.71.17-1.97,1.49l-20.01,110.9c-.1.5-.06.75,0,.82.04.05.31.29,1.65.29h29.21c47.48,0,78-42.01,83.68-70.4l.65-3.59c.32-2.25,1.06-3.77,3.61-3.77.96,0,1.69.28,2.16.84.75.89.64,2.21.47,3.27l-13.13,75.81c-.4,2.82-1.56,3.78-4.59,3.78h-170.96Z"/><path class="cls-1" d="M1465.85,97.31c13.45,0,26.25,3.61,40.69,8.2,7.33,2.21,11.47,3.37,13.85,3.37,2.21,0,2.9-.99,3.22-3.04l.66-2.62c.33-2.3.98-2.95,2.62-2.95s1.97.98,1.64,2.95l-12.8,74.49c-.33,1.97-.98,2.63-2.62,2.63-1.97,0-2.3-.98-1.97-2.63l.98-5.91c6.23-38.39-10.17-70.88-46.93-70.88-23.3,0-39.05,15.42-39.05,38.39,0,52.83,98.44,54.47,98.44,120.43,0,46.92-36.75,77.11-87.61,77.11-16.74,0-34.78-3.28-53.49-8.53-7.28-1.95-11.87-3.14-14.71-3.14-2.41,0-3.55.85-4,2.81l-.33,2.63c-.33,2.3-.98,2.95-2.95,2.95-1.64,0-1.97-.98-1.64-2.95l14.77-85.97c.33-1.97.98-2.63,2.95-2.63,1.64,0,1.97.98,1.64,2.63l-.66,5.91c-7.88,48.57,17.06,82.69,58.41,82.69,29.53,0,46.92-17.39,46.92-41.35,0-53.49-94.83-54.14-94.83-120.1,0-40.03,30.52-74.49,76.79-74.49M1669.3,98.62c1.97,0,2.3.66,2.63,1.97l36.1,212.64c2.3,14.44,3.61,15.75,8.86,15.75h6.23c1.2,0,1.87.18,2.22.54-.44.33-.59.8-.59,1.43,0,.67.09,1.17.47,1.5-.42.32-1.15.47-2.44.47h-83.68c-2.3,0-2.63-.66-2.63-1.97s.33-1.97,2.95-1.97h13.13c6.23,0,7.55-1.64,5.58-15.75l-10.5-64.32c-.33-1.97-.66-2.63-2.95-2.63h-64.65c-1.97,0-2.63.33-3.61,2.3l-8.86,18.7c-18.7,39.05-16.74,61.69,3.28,61.69h6.24c2.3,0,2.62.66,2.62,1.97s-.33,1.97-2.95,1.97h-64.97c-2.3,0-2.62-.66-2.62-1.97s.33-1.97,2.95-1.97h1.31c10.83,0,23.3-9.52,48.89-62.35l81.05-166.04c.66-1.31,1.31-1.97,3.61-1.97h22.31M1582.34,242.68h62.02c1.64,0,2.3-.66,1.97-2.3l-16.08-101.07h-.66l-48.89,100.74c-.66,1.64-.33,2.63,1.64,2.63M1973.82,101.25c2.3,0,2.62.66,2.62,1.97s-.66,1.97-3.28,1.97h-1.31c-15.42,0-22.64,14.77-33.14,73.83l-27.24,154.23c-.33,1.97-.98,2.3-2.95,2.3h-26.91c-1.97,0-2.63-.66-3.28-2.3l-86.63-217.56h-.33l-23.95,137.17c-9.52,55.13-3.28,76.13,22.31,76.13h4.59c2.3,0,2.63.66,2.63,1.97s-.66,1.97-3.28,1.97h-66.29c-1.13,0-1.78-.16-2.15-.47.43-.33.52-.83.52-1.5,0-.63-.07-1.1-.4-1.43.48-.36,1.32-.54,2.69-.54h1.31c15.42,0,22.64-14.77,33.14-73.83l23.95-136.51c2.3-12.14,1.97-13.45-1.97-13.45h-14.11c-2.3,0-2.62-.66-2.62-1.97s.33-1.97,3.28-1.97h63.99c2.3,0,2.95.33,3.61,1.97l75.15,188.36h.66l19.36-110.26c9.84-55.13,3.28-76.13-22.31-76.13h-4.59c-2.3,0-2.62-.66-2.62-1.97s.66-1.97,3.28-1.97h66.29M1377.59,101.25c1.97,0,2.3.98,2.3,1.97s-.33,1.97-3.28,1.97h-12.14c-3.94,0-4.27,1.31-6.56,13.45l-34.46,196.89c-2.3,12.14-1.97,13.45,1.64,13.45h14.44c2.3,0,2.62.66,2.62,1.97s-.33,1.97-3.28,1.97h-84.01c-2.3,0-2.63-.66-2.63-1.97s.66-1.97,3.28-1.97h12.14c3.94,0,4.27-1.64,6.56-13.45l34.78-196.89c1.97-12.14,1.97-13.45-1.97-13.45h-14.11c-2.62,0-2.95-.66-2.95-1.97s.66-1.97,3.28-1.97h84.33M1276.85,101.25c2.3,0,2.95.98,2.63,2.62l-14.11,78.75c-.33,2.3-.98,2.95-2.95,2.95-1.64,0-1.97-.98-1.64-2.95l.98-5.91c6.56-36.75-7.88-71.54-42.66-71.54h-15.1c-2.3,0-2.95.66-3.28,2.3l-36.75,208.05c-1.97,12.14-1.97,13.45,1.97,13.45h15.42c2.3,0,2.63.66,2.63,1.97s-.33,1.97-3.28,1.97h-86.3c-2.3,0-2.63-.66-2.63-1.97s.66-1.97,3.28-1.97h13.13c4.27,0,4.59-1.64,6.89-13.45l36.42-207.72c.33-1.97-.66-2.62-2.3-2.62h-15.09c-34.46,0-61.04,34.78-67.93,71.86l-1.31,5.58c-.33,2.3-.98,2.95-2.63,2.95s-1.97-.98-1.64-2.95l14.11-78.75c.33-1.97.66-2.62,2.95-2.62h199.19M980.86,101.25c34.13,0,64.65,12.47,64.65,46.27,0,40.69-37.08,61.36-72.19,64.32v.33c34.46,3.61,54.47,20.67,54.47,48.89,0,17.39-8.2,41.35-8.2,55.13,0,5.58,2.3,9.52,7.88,9.52,13.45,0,20.02-24.28,22.64-38.07.33-1.64.66-2.3,2.3-2.3s2.3.98,1.64,3.61c-5.58,25.6-18.38,47.91-43.64,47.91s-40.03-14.44-37.74-38.07c.98-16.41,9.52-41.02,9.52-60.05,0-15.75-8.53-25.27-25.27-25.27h-25.27c-2.63,0-2.95.66-3.28,2.3l-17.72,99.76c-2.3,12.14-1.97,13.45,1.64,13.45h14.44c2.3,0,2.62.66,2.62,1.97s-.33,1.97-3.28,1.97h-84.01c-2.3,0-2.63-.66-2.63-1.97s.66-1.97,3.28-1.97h12.14c3.94,0,4.27-1.64,6.56-13.45l34.78-196.89c1.97-12.14,1.97-13.45-1.64-13.45h-14.44c-2.3,0-2.3-.98-2.3-1.97s.66-1.97,3.28-1.97h99.76M931.96,209.86h26.25c17.39,0,27.24-10.83,32.16-26.91,4.92-14.77,8.53-35.77,8.53-51.19,0-20.34-9.84-26.58-22.64-26.58h-25.6c-2.63,0-2.95.98-3.28,2.3l-17.72,99.76c-.33,1.64,0,2.63,2.3,2.63M847.31,101.25c2.3,0,2.62.98,2.3,2.62l-13.13,73.83c-.33,2.3-.98,2.95-2.63,2.95s-1.97-.98-1.64-2.95l.66-3.94c5.91-34.78-9.84-68.58-45.61-68.58h-27.89c-2.3,0-2.62.66-2.95,2.3l-17.72,99.76c-.33,1.97,0,2.63,1.97,2.63h16.08c21,0,40.36-15.1,43.97-34.78l.66-3.28c.33-1.97.98-2.63,2.3-2.63,1.97,0,2.3.98,1.97,2.63l-14.11,79.74c-.33,2.3-.98,2.95-2.63,2.95s-1.97-.98-1.64-2.95l.66-2.63c3.61-19.69-11.49-35.44-31.5-35.44h-16.08c-2.3,0-2.63.66-2.95,2.3l-20.02,110.91c-.33,1.64.33,2.3,2.63,2.3h29.21c46.6,0,78.43-40.03,84.66-71.21l.66-3.61c.33-2.3.98-2.95,2.63-2.95s1.97.98,1.64,2.95l-13.13,75.8c-.33,2.3-.98,2.95-3.61,2.95h-170.96c-2.3,0-2.63-.66-2.63-1.97s.66-1.97,3.28-1.97h12.14c3.94,0,4.27-1.64,6.56-13.45l34.78-196.89c1.97-12.14,1.97-13.45-1.97-13.45h-14.11c-2.62,0-2.95-.66-2.95-1.97s.66-1.97,3.28-1.97h157.84M680.28,101.25c2.3,0,2.63.66,2.63,1.97s-.66,1.97-3.28,1.97h-.98c-11.16,0-23.63,8.86-49.22,62.35l-80.07,166.04c-.66,1.31-1.31,1.97-3.28,1.97h-21.99c-1.64,0-2.3-.66-2.63-1.97l-34.78-212.64c-2.3-14.44-3.28-15.75-8.53-15.75h-6.89c-2.3,0-2.63-.66-2.63-1.97s.66-1.97,3.28-1.97h83.68c2.3,0,2.62.66,2.62,1.97s-.33,1.97-3.28,1.97h-12.8c-6.56,0-7.55,1.64-5.58,15.75l26.25,172.93h.66l60.71-126.99c18.7-39.05,16.41-61.69-2.95-61.69h-6.56c-2.3,0-2.62-.66-2.62-1.97s.33-1.97,3.28-1.97h64.97M1465.85,95.31c-22.37,0-42.67,8.11-57.17,22.83-13.94,14.15-21.62,33.21-21.62,53.66,0,16.06,5.49,29.8,16.77,42.01,9.85,10.66,22.79,18.85,35.3,26.77,21.99,13.93,42.77,27.08,42.77,51.33s-17.63,39.35-44.92,39.35c-17.87,0-32.82-6.46-43.23-18.69-12.57-14.78-17.26-36.68-13.21-61.68v-.05s.01-.05.01-.05l.65-5.82c.13-.67.42-2.4-.64-3.69-.47-.57-1.36-1.24-2.98-1.24-2.91,0-4.43,1.33-4.93,4.3l-14.77,85.96c-.21,1.28-.33,2.9.69,4.09.67.79,1.66,1.2,2.92,1.2,3.76,0,4.6-2.36,4.93-4.67l.32-2.56c.17-.73.34-1.16,2.03-1.16,2.56,0,7.07,1.16,14.19,3.07,20.61,5.78,38.28,8.6,54.01,8.6,25.73,0,47.93-7.42,64.19-21.45,16.63-14.35,25.43-34.29,25.43-57.67,0-16.12-5.72-29.95-17.5-42.28-10.27-10.76-23.74-19.06-36.76-27.08-22.72-14-44.18-27.23-44.18-51.07,0-21.77,14.89-36.39,37.05-36.39,14.06,0,25.78,5.03,33.87,14.55,10.59,12.45,14.63,32.14,11.08,54.01l-.98,5.87c-.12.62-.45,2.36.63,3.67.71.87,1.83,1.31,3.31,1.31,3.48,0,4.29-2.45,4.6-4.3l12.8-74.48c.21-1.28.33-2.89-.69-4.09-.67-.79-1.66-1.2-2.92-1.2-3.43,0-4.27,2.42-4.59,4.57l-.63,2.53-.02.09v.09c-.22,1.34-.3,1.34-1.25,1.34-2.24,0-6.91-1.36-13.27-3.28-13.71-4.36-27.21-8.29-41.27-8.29h0ZM1669.3,96.62h-22.31c-3.21,0-4.48,1.23-5.4,3.07l-81.06,166.06c-26.07,53.81-38.04,61.23-47.1,61.23h-1.31c-2.31,0-4.95.45-4.95,3.97,0,3.97,3.48,3.97,4.62,3.97h64.97c2.31,0,4.95-.45,4.95-3.97,0-3.97-3.48-3.97-4.62-3.97h-6.24c-5.47,0-9.4-1.84-11.69-5.48-5.62-8.92-2-27.87,10.21-53.35l8.86-18.71q.58-1.15,1.8-1.15h64.65c.42,0,.66.03.79.05.05.15.11.42.19.9l10.5,64.31c.76,5.42,1.36,11.2.07,12.68-.46.53-1.53.75-3.68.75h-13.13c-2.31,0-4.95.45-4.95,3.97,0,3.97,3.48,3.97,4.63,3.97h83.68c.99,0,1.77-.08,2.41-.27.73.23,1.51.27,2.18.27h66.29c3.5,0,5.28-1.34,5.28-3.97,0-3.97-3.48-3.97-4.63-3.97h-4.59c-8.1,0-13.92-2.23-17.78-6.82-8.11-9.63-8.9-30.28-2.56-66.97l22.84-130.78,84.25,211.57c.74,1.85,1.87,3.56,5.14,3.56h26.91c2.56,0,4.38-.67,4.93-3.97l27.23-154.21c5.43-30.56,9.79-48.09,14.58-58.59,5.44-11.95,11.19-13.6,16.6-13.6h1.31c3.5,0,5.28-1.34,5.28-3.97,0-3.97-3.48-3.97-4.62-3.97h-66.29c-3.5,0-5.28,1.34-5.28,3.97,0,3.97,3.48,3.97,4.62,3.97h4.59c8.17,0,14.04,2.26,17.94,6.92,8.06,9.63,8.83,30.88,2.4,66.86l-18.34,104.47-72.99-182.96c-1.08-2.71-2.76-3.23-5.47-3.23h-63.99c-1.71,0-5.28,0-5.28,3.97s3.48,3.97,4.62,3.97h14.11c.84,0,1.15.07,1.26.11.6,1.17-.65,7.77-1.26,10.97l-23.96,136.54c-5.43,30.56-9.79,48.08-14.58,58.58-5.44,11.95-11.19,13.6-16.6,13.6h-1.31c-1.07,0-1.92.1-2.62.31-.76-.26-1.59-.31-2.3-.31h-6.23c-3.66,0-4.65,0-6.88-14.07l-36.1-212.66v-.08s-.03-.07-.03-.07c-.45-1.81-1.32-3.48-4.57-3.48h0ZM1582.62,240.68l46.49-95.79,15.24,95.79h-61.73ZM1377.59,99.25h-84.33c-3.5,0-5.28,1.34-5.28,3.97,0,3.52,2.65,3.97,4.95,3.97h14.11c.71,0,1.02.05,1.15.09.45,1.15-.44,6.62-1.16,11.05l-34.78,196.86c-2.3,11.8-2.47,11.8-4.59,11.8h-12.14c-3.5,0-5.28,1.34-5.28,3.97,0,3.97,3.48,3.97,4.63,3.97h84.01c1.71,0,5.28,0,5.28-3.97s-3.48-3.97-4.62-3.97h-14.44c-.59,0-.87-.05-.98-.08-.53-1.3.71-7.83,1.31-11.01l34.46-196.92c1.1-5.79,1.76-9.17,2.51-10.78.4-.86.53-1.02,2.08-1.02h12.14c4.37,0,5.28-2.16,5.28-3.97,0-2.49-1.61-3.97-4.3-3.97h0ZM1276.85,99.25h-199.19c-3.52,0-4.47,1.58-4.93,4.3l-14.11,78.73c-.22,1.3-.33,2.91.69,4.11.67.8,1.66,1.2,2.92,1.2,3.44,0,4.27-2.43,4.59-4.58l1.29-5.49v-.05s.02-.05.02-.05c6.33-34.05,31.59-70.23,65.96-70.23h15.09c.15,0,.27,0,.36.02,0,.07-.01.16-.03.28l-36.42,207.7c-2.29,11.8-2.44,11.8-4.92,11.8h-13.13c-3.5,0-5.28,1.34-5.28,3.97,0,3.97,3.48,3.97,4.63,3.97h86.3c1.71,0,5.28,0,5.28-3.97s-3.48-3.97-4.63-3.97h-15.42c-.71,0-1.02-.05-1.15-.09-.45-1.15.44-6.62,1.16-11.04l36.75-208.02c.06-.31.13-.46.15-.52.09-.04.39-.13,1.16-.13h15.1c12.29,0,22.68,4.65,30.04,13.45,10.63,12.7,14.61,33.54,10.65,55.74l-.99,5.93c-.21,1.27-.32,2.89.69,4.09.67.79,1.66,1.2,2.92,1.2,3.74,0,4.6-2.34,4.93-4.64l14.1-78.72c.28-1.39.05-2.58-.7-3.49-.81-.99-2.12-1.49-3.89-1.49h0ZM980.86,99.25h-99.76c-4.9,0-5.28,3.04-5.28,3.97,0,3.97,3.23,3.97,4.3,3.97h14.44c.48,0,.74.03.87.06.38,1.26-.5,6.68-1.21,11.08l-34.78,196.86c-2.3,11.8-2.47,11.8-4.59,11.8h-12.14c-3.5,0-5.28,1.34-5.28,3.97,0,3.97,3.48,3.97,4.63,3.97h84.01c1.71,0,5.28,0,5.28-3.97s-3.48-3.97-4.62-3.97h-14.44c-.59,0-.87-.05-.98-.08-.53-1.3.71-7.83,1.31-11.01l17.72-99.78c.06-.28.1-.46.13-.56.16-.04.51-.09,1.18-.09h25.27c15.22,0,23.27,8.05,23.27,23.27,0,10.43-2.62,22.58-5.15,34.33-2.01,9.35-3.92,18.19-4.36,25.57-1.1,11.37,1.73,21.13,8.19,28.24,7.11,7.84,18.02,11.98,31.54,11.98,12.36,0,22.71-5.08,30.76-15.1,6.68-8.31,11.67-19.87,14.83-34.35.33-1.34.64-3.28-.48-4.71-.48-.62-1.41-1.35-3.11-1.35-3.48,0-3.98,2.54-4.26,3.9-2.09,10.97-8.28,36.46-20.68,36.46-1.45,0-5.88,0-5.88-7.52,0-6.29,1.8-14.93,3.7-24.09,2.21-10.64,4.5-21.64,4.5-31.04,0-14.53-5.04-26.37-14.99-35.17-7.34-6.5-17.11-11.11-29.13-13.77,14.54-2.89,27.78-8.65,38.14-16.71,15.51-12.06,23.7-28.62,23.7-47.89,0-16.5-6.89-29.13-20.47-37.51-11.4-7.04-27.37-10.76-46.17-10.76h0ZM949.52,107.32c.09-.04.4-.14,1.15-.14h25.6c14.08,0,20.64,7.81,20.64,24.58,0,14.88-3.47,35.67-8.43,50.56-5.19,16.96-15.37,25.54-30.26,25.54h-26.25c-.15,0-.27,0-.37-.01,0-.06.02-.14.04-.22l17.72-99.73c.04-.17.12-.46.18-.58h0ZM847.31,99.25h-157.84c-2.56,0-4.2.71-4.89,2.12-.9-2.12-3.36-2.12-4.29-2.12h-64.97c-1.71,0-5.28,0-5.28,3.97s3.48,3.97,4.62,3.97h6.56c5.22,0,9.01,1.81,11.25,5.37,5.6,8.89,1.91,28.37-10.1,53.46l-58.4,122.17-25.43-167.54c-.81-5.79-1.39-11.35-.2-12.72.45-.51,1.59-.73,3.81-.73h12.8c1.71,0,5.28,0,5.28-3.97s-3.48-3.97-4.62-3.97h-83.68c-3.5,0-5.28,1.34-5.28,3.97,0,3.97,3.48,3.97,4.63,3.97h6.89c3.58,0,4.32,0,6.56,14.07l34.79,212.65v.08s.03.08.03.08c.58,2.31,2.11,3.49,4.57,3.49h21.99c3.11,0,4.27-1.48,5.07-3.08l80.08-166.07c24.31-50.81,36.54-61.22,47.42-61.22h.98c2.56,0,4.19-.71,4.89-2.12.78,1.84,2.81,2.12,4.62,2.12h14.11c.71,0,1.02.05,1.15.09.45,1.15-.44,6.62-1.16,11.05l-34.78,196.86c-2.3,11.8-2.47,11.8-4.59,11.8h-12.14c-3.5,0-5.28,1.34-5.28,3.97,0,3.97,3.48,3.97,4.63,3.97h170.96c3.53,0,5.1-1.3,5.59-4.64l13.12-75.77c.21-1.28.33-2.9-.69-4.1-.67-.79-1.66-1.2-2.92-1.2-3.47,0-4.28,2.46-4.6,4.63l-.65,3.58c-5.61,28.03-35.77,69.57-82.69,69.57h-29.21c-.27,0-.48-.01-.64-.03l20-110.83c.06-.3.11-.49.14-.6.14-.03.4-.06.84-.06h16.08c9.59,0,18.31,3.86,23.91,10.58,5.14,6.17,7.14,14.14,5.64,22.44l-.64,2.56-.02.08v.08c-.23,1.27-.34,2.88.68,4.08.67.8,1.66,1.2,2.92,1.2,3.47,0,4.29-2.47,4.6-4.64l14.1-79.71c.11-.54.47-2.32-.63-3.66-.71-.87-1.83-1.31-3.31-1.31-3.52,0-4.08,3.18-4.27,4.27l-.65,3.25c-3.41,18.62-21.86,33.18-42.01,33.18h-16.08s-.03,0-.04,0c.01-.09.03-.18.04-.3l17.72-99.74c.06-.3.11-.48.14-.59.14-.03.4-.06.84-.06h27.89c13.33,0,24.57,4.97,32.51,14.37,10.4,12.31,14.56,31.71,11.13,51.88l-.66,3.94c-.21,1.27-.32,2.89.69,4.09.67.79,1.66,1.2,2.92,1.2,3.47,0,4.28-2.47,4.6-4.63l13.12-73.8c.19-.95.34-2.42-.63-3.6-1.13-1.37-3.02-1.37-3.64-1.37h0Z"/></g></svg>