<?xml version="1.0" encoding="UTF-8"?><svg id="Layer_1" xmlns="http://www.w3.org/2000/svg" viewBox="0 0 180 180"><defs><style>.cls-1{fill:#000;}.cls-1,.cls-2{stroke-width:0px;}.cls-2{fill:#fff;}</style></defs><polygon class="cls-1" points="44.46 104.66 44.46 39.37 101.01 6.72 157.55 39.37 157.55 104.66 101.01 137.31 44.46 104.66"/><polygon class="cls-1" points="101.01 .23 38.84 36.12 38.84 107.91 101.01 143.8 163.17 107.91 163.17 36.12 101.01 .23"/><path class="cls-2" d="M44.46,104.66V39.37L101.01,6.72l56.55,32.65v65.29l-56.55,32.65-56.55-32.65ZM101.01.23l-62.17,35.89v71.78l62.17,35.89,62.16-35.89V36.12L101.01.23Z"/><polygon class="cls-2" points="15.86 61.78 15.86 140.64 84.15 180.07 152.44 140.64 152.44 121.18 101.01 150.87 32.71 111.44 32.71 52.05 15.86 61.78"/></svg>