<?xml version="1.0" encoding="UTF-8"?><svg id="Layer_1" xmlns="http://www.w3.org/2000/svg" viewBox="0 0 1500 841"><defs><style>.cls-1{fill:#212121;opacity:.75;}.cls-1,.cls-2,.cls-3,.cls-4,.cls-5{stroke-width:0px;}.cls-2{fill:#000;opacity:.65;}.cls-3{fill:#e9e9f4;}.cls-4{fill:#50c2dd;}.cls-5{fill:#afff00;opacity:.7;}</style></defs><polygon class="cls-2" points="476.78 69.95 476.78 18.7 12.11 18.7 12.11 134.51 412.22 134.51 476.78 69.95"/><polygon class="cls-4" points="420.32 147.51 393.49 147.51 393.49 145.78 419.6 145.78 437.41 127.96 438.64 129.19 420.32 147.51"/><path class="cls-1" d="M612.46,165.96c-9.13,0-16.57,6.97-17.22,16h-63.7l-54.29-54.29,13.5-13.5v.03l22.59-22.59V7.68h-22.59s-308.89,0-308.89,0l-7.54,7.54h316.42v61.43l-70.25,70.43H5.59l7.54,7.54h311.3s7.96,7.96,7.96,7.96h94.64l11.7-11.7h15.31s20.91-20.91,20.91-20.91l55.02,55.02.22.22h65.1c.98,8.66,8.39,15.34,17.16,15.34,9.53,0,17.29-7.76,17.29-17.29s-7.76-17.29-17.29-17.29ZM450.14,141.82h-5.96v-5.96l53.63-53.38.1-67.25h8.43l-.1,66.62v4.13l-56.1,55.84ZM612.46,197.3c-7.26,0-13.41-5.67-13.99-12.91l-.03-1.69c.27-7.55,6.43-13.5,14.02-13.5s14.05,6.3,14.05,14.05-6.3,14.05-14.05,14.05Z"/><path class="cls-3" d="M610.46,163.96c-9.13,0-16.57,6.97-17.22,16h-63.7l-54.29-54.29,13.5-13.5v.03l22.59-22.59V5.68h-22.59s-308.89,0-308.89,0l-7.54,7.54h316.42v61.43l-70.25,70.43H3.59l7.54,7.54h311.3s7.96,7.96,7.96,7.96h94.64l11.7-11.7h15.31s20.91-20.91,20.91-20.91l55.02,55.02.22.22h65.1c.98,8.66,8.39,15.34,17.16,15.34,9.53,0,17.29-7.76,17.29-17.29s-7.76-17.29-17.29-17.29ZM448.14,139.82h-5.96v-5.96l53.63-53.38.1-67.25h8.43l-.1,66.62v4.13l-56.1,55.84ZM610.46,195.3c-7.26,0-13.41-5.67-13.99-12.91l-.03-1.69c.27-7.55,6.43-13.5,14.02-13.5s14.05,6.3,14.05,14.05-6.3,14.05-14.05,14.05Z"/><circle class="cls-5" cx="610.46" cy="181.25" r="11.54"/></svg>