<?xml version="1.0" encoding="UTF-8"?><svg id="Layer_3" xmlns="http://www.w3.org/2000/svg" viewBox="0 0 1500 841"><defs><style>.cls-1{fill:#515151;}.cls-1,.cls-2,.cls-3,.cls-4,.cls-5{stroke-width:0px;}.cls-2{fill:#212121;}.cls-3{fill:#000;opacity:.65;}.cls-4{fill:#e9e9f4;}.cls-6{opacity:.75;}.cls-5{fill:#afff00;}</style></defs><polygon class="cls-3" points="16.03 24.29 16.03 135.79 153.26 135.79 160.79 128.26 285.87 128.26 293.41 135.79 416.25 135.79 479.7 72.33 479.7 24.29 16.03 24.29"/><polygon class="cls-5" points="497.25 37.91 497.25 6.97 466.31 6.97 466.31 3.86 500.36 3.86 500.36 37.91 497.25 37.91"/><path class="cls-1" d="M500.23,3.98v33.8h-2.86V6.84h-30.94v-2.86h33.8M500.48,3.73h-34.3v3.36h30.94v30.94h3.36V3.73h0Z"/><g class="cls-6"><rect class="cls-2" x="5.35" y="6.08" width="8.14" height="144.58"/><polygon class="cls-2" points="5.35 6.08 5.35 13.99 120.29 13.99 112.37 6.08 5.35 6.08"/><polygon class="cls-2" points="144.58 150.66 152.49 142.74 5.35 142.74 5.35 150.66 144.58 150.66"/><polygon class="cls-2" points="493.56 36.98 490.7 36.98 490.7 14.2 263.25 14.2 263.25 11.34 493.56 11.34 493.56 36.98"/><polygon class="cls-2" points="262.81 14.03 279.66 14.03 271.66 6.04 254.81 6.04 262.81 14.03"/><polygon class="cls-2" points="231.78 14.03 248.63 14.03 240.63 6.04 223.78 6.04 231.78 14.03"/><polygon class="cls-2" points="200.75 14.03 217.6 14.03 209.61 6.04 192.76 6.04 200.75 14.03"/><polygon class="cls-2" points="169.72 14.03 186.58 14.03 178.58 6.04 161.73 6.04 169.72 14.03"/><polygon class="cls-2" points="138.7 14.03 155.55 14.03 147.55 6.04 130.7 6.04 138.7 14.03"/></g><rect class="cls-4" x="4.35" y="5.08" width="8.14" height="144.58"/><polygon class="cls-4" points="4.35 5.08 4.35 12.99 119.29 12.99 111.37 5.08 4.35 5.08"/><polygon class="cls-4" points="143.58 149.66 151.49 141.74 4.35 141.74 4.35 149.66 143.58 149.66"/><polygon class="cls-4" points="492.56 35.98 489.7 35.98 489.7 13.2 262.25 13.2 262.25 10.34 492.56 10.34 492.56 35.98"/><polygon class="cls-4" points="261.81 13.03 278.66 13.03 270.66 5.04 253.81 5.04 261.81 13.03"/><polygon class="cls-4" points="230.78 13.03 247.63 13.03 239.63 5.04 222.78 5.04 230.78 13.03"/><polygon class="cls-4" points="199.75 13.03 216.6 13.03 208.61 5.04 191.76 5.04 199.75 13.03"/><polygon class="cls-4" points="168.72 13.03 185.58 13.03 177.58 5.04 160.73 5.04 168.72 13.03"/><polygon class="cls-4" points="137.7 13.03 154.55 13.03 146.55 5.04 129.7 5.04 137.7 13.03"/></svg>