<?xml version="1.0" encoding="UTF-8"?><svg id="Layer_1" xmlns="http://www.w3.org/2000/svg" viewBox="0 0 1500 841"><defs><style>.cls-1{fill:#000;stroke-width:0px;}</style></defs><path class="cls-1" d="M0,0v841h1500V0H0ZM136.9,181.18l31.26,18.05c.44.26.81.89.81,1.4v36.1c0,.51-.36,1.14-.81,1.4l-31.26,18.05c-.44.26-1.17.26-1.62,0l-31.26-18.05c-.44-.26-.81-.89-.81-1.4v-36.1c0-.51.36-1.14.81-1.4l31.26-18.05c.44-.26,1.17-.26,1.62,0ZM59.43,130.72c0-.57.41-1.28.9-1.56l34.94-20.17c.5-.29,1.31-.29,1.81,0l34.94,20.17c.5.29.9.99.9,1.56v40.35c0,.57-.41,1.28-.9,1.56l-34.94,20.17c-.5.29-1.31.29-1.81,0l-34.94-20.17c-.5-.29-.9-.99-.9-1.56v-40.35ZM56.59,261.4l-34.94-20.17c-.5-.29-.9-.99-.9-1.56v-40.35c0-.57.41-1.28.9-1.56l34.94-20.17c.5-.29,1.31-.29,1.81,0l34.94,20.17c.5.29.9.99.9,1.56v40.35c0,.57-.41,1.28-.9,1.56l-34.94,20.17c-.5.29-1.31.29-1.81,0ZM60.65,307.45v-40.35c0-.57.41-1.28.9-1.56l34.94-20.17c.5-.29,1.31-.29,1.81,0l34.94,20.17c.5.29.9.99.9,1.56v40.35c0,.57-.41,1.28-.9,1.56l-34.94,20.17c-.5.29-1.31.29-1.81,0l-34.94-20.17c-.5-.29-.9-.99-.9-1.56ZM135.38,443.83c0,.57-.41,1.28-.9,1.56l-34.94,20.17c-.5.29-1.31.29-1.81,0l-34.94-20.17c-.5-.29-.9-.99-.9-1.56v-40.35c0-.57.41-1.28.9-1.56l34.94-20.17c.5-.29,1.31-.29,1.81,0l34.94,20.17c.5.29.9.99.9,1.56v40.35ZM136.41,396.98l-34.94-20.17c-.5-.29-.9-.99-.9-1.56v-40.35c0-.57.41-1.28.9-1.56l34.94-20.17c.5-.29,1.31-.29,1.81,0l34.94,20.17c.5.29.9.99.9,1.56v40.35c0,.57-.41,1.28-.9,1.56l-34.94,20.17c-.5.29-1.31.29-1.81,0Z"/></svg>