<?xml version="1.0" encoding="UTF-8"?><svg xmlns="http://www.w3.org/2000/svg" xmlns:xlink="http://www.w3.org/1999/xlink" viewBox="0 0 400 300"><defs><style>.cls-1{fill:none;}.cls-1,.cls-2,.cls-3,.cls-4{stroke-width:0px;}.cls-2{fill:#e8e8e8;}.cls-5{clip-path:url(#clippath);}.cls-3{fill:#afafaf;}.cls-4{fill:#78797a;}</style><clipPath id="clippath"><rect class="cls-1" y="0" width="400" height="300"/></clipPath></defs><g id="Background_fill"><rect class="cls-2" y="0" width="400" height="300"/></g><g id="Diagonal_lines"><g class="cls-5"><path class="cls-3" d="M307.85-312.48L-222.48,217.85M307.5-312.83L-222.83,217.5l.71.71L308.21-312.12l-.71-.71ZM-218.94,221.39L311.39-308.94M311.03-309.3L-219.3,221.03l.71.71L311.74-308.59l-.71-.71ZM314.92-305.41L-215.41,224.92M314.57-305.76L-215.76,224.57l.71.71L315.28-305.05l-.71-.71ZM-211.87,228.46L318.46-301.87M318.11-302.22L-212.22,228.11l.71.71L318.81-301.52l-.71-.71ZM-208.34,231.99L321.99-298.34M321.64-298.69L-208.69,231.64l.71.71L322.35-297.98l-.71-.71ZM325.53-294.8L-204.8,235.53M325.18-295.15L-205.15,235.18l.71.71L325.88-294.45l-.71-.71ZM-201.26,239.07L329.07-291.26M328.71-291.62L-201.62,238.71l.71.71L329.42-290.91l-.71-.71ZM-197.73,242.6L332.6-287.73M332.25-288.08L-198.08,242.25l.71.71L332.96-287.37l-.71-.71ZM336.14-284.19L-194.19,246.14M335.78-284.55L-194.55,245.78l.71.71L336.49-283.84l-.71-.71ZM-190.66,249.67L339.67-280.66M339.32-281.01L-191.01,249.32l.71.71L340.03-280.3l-.71-.71ZM-187.12,253.21L343.21-277.12M342.85-277.48L-187.48,252.85l.71.71L343.56-276.77l-.71-.71ZM-183.59,256.74L346.74-273.59M346.39-273.94L-183.94,256.39l.71.71L347.1-273.23l-.71-.71ZM-180.05,260.28L350.28-270.05M349.93-270.4L-180.4,259.93l.71.71L350.63-269.7l-.71-.71ZM-176.52,263.81L353.81-266.52M353.46-266.87L-176.87,263.46l.71.71L354.17-266.16l-.71-.71ZM-172.98,267.35L357.35-262.98M357-263.33L-173.33,267l.71.71L357.7-262.63l-.71-.71ZM-169.44,270.89L360.89-259.44M360.53-259.8L-169.8,270.53l.71.71L361.24-259.09l-.71-.71ZM-165.91,274.42L364.42-255.91M364.07-256.26L-166.26,274.07l.71.71L364.77-255.56l-.71-.71ZM-162.37,277.96L367.96-252.37M367.6-252.73L-162.73,277.6l.71.71L368.31-252.02l-.71-.71ZM-158.84,281.49L371.49-248.84M371.14-249.19L-159.19,281.14l.71.71L371.85-248.48l-.71-.71ZM-155.3,285.03L375.03-245.3M374.67-245.66L-155.66,284.67l.71.71L375.38-244.95l-.71-.71ZM-151.77,288.56L378.56-241.77M378.21-242.12L-152.12,288.21l.71.71L378.92-241.41l-.71-.71ZM-148.23,292.1L382.1-238.23M381.75-238.58L-148.58,291.75l.71.71L382.45-237.88l-.71-.71ZM-144.7,295.63L385.63-234.7M385.28-235.05L-145.05,295.28l.71.71L385.99-234.34l-.71-.71ZM-141.16,299.17L389.17-231.16M388.82-231.51L-141.51,298.82l.71.71L389.52-230.81l-.71-.71ZM-137.62,302.71L392.71-227.62M392.35-227.98L-137.98,302.35l.71.71L393.06-227.27l-.71-.71ZM-134.09,306.24L396.24-224.09M395.89-224.44L-134.44,305.89l.71.71L396.59-223.74l-.71-.71ZM-130.55,309.78L399.78-220.55M399.42-220.91L-130.91,309.42l.71.71L400.13-220.2l-.71-.71ZM-127.02,313.31L403.31-217.02M402.96-217.37L-127.37,312.96l.71.71L403.67-216.66l-.71-.71ZM-123.48,316.85L406.85-213.48M406.49-213.84L-123.84,316.49l.71.71L407.2-213.13l-.71-.71ZM-119.95,320.38L410.38-209.95M410.03-210.3L-120.3,320.03l.71.71L410.74-209.59l-.71-.71ZM-116.41,323.92L413.92-206.41M413.57-206.76L-116.76,323.57l.71.71L414.27-206.06l-.71-.71ZM-112.88,327.45L417.45-202.88M417.1-203.23L-113.23,327.1l.71.71L417.81-202.52l-.71-.71ZM-109.34,330.99L420.99-199.34M420.64-199.69L-109.69,330.64l.71.71L421.34-198.99l-.71-.71ZM-105.8,334.53L424.53-195.8M424.17-196.16L-106.16,334.17l.71.71L424.88-195.45l-.71-.71ZM-102.27,338.06L428.06-192.27M427.71-192.62L-102.62,337.71l.71.71L428.41-191.92l-.71-.71ZM-98.73,341.6L431.6-188.73M431.24-189.09L-99.09,341.24l.71.71L431.95-188.38l-.71-.71ZM-95.2,345.13L435.13-185.2M434.78-185.55L-95.55,344.78l.71.71L435.49-184.84l-.71-.71ZM-91.66,348.67L438.67-181.66M438.31-182.02L-92.02,348.31l.71.71L439.02-181.31l-.71-.71ZM-88.13,352.2L442.2-178.13M441.85-178.48L-88.48,351.85l.71.71L442.56-177.77l-.71-.71ZM-84.59,355.74L445.74-174.59M445.39-174.95L-84.95,355.39l.71.71L446.09-174.24l-.71-.71ZM-81.06,359.27L449.27-171.06M448.92-171.41L-81.41,358.92l.71.71L449.63-170.7l-.71-.71ZM-77.52,362.81L452.81-167.52M452.46-167.87L-77.87,362.46l.71.71L453.16-167.17l-.71-.71ZM-73.98,366.35L456.35-163.98M455.99-164.34L-74.34,365.99l.71.71L456.7-163.63l-.71-.71ZM-70.45,369.88L459.88-160.45M459.53-160.8L-70.8,369.53l.71.71L460.23-160.1l-.71-.71ZM-66.91,373.42L463.42-156.91M463.06-157.27L-67.27,373.06l.71.71L463.77-156.56l-.71-.71ZM-63.38,376.95L466.95-153.38M466.6-153.73L-63.73,376.6l.71.71L467.31-153.02l-.71-.71ZM-59.84,380.49L470.49-149.84M470.13-150.2L-60.2,380.13l.71.71L470.84-149.49l-.71-.71ZM-56.31,384.02L474.02-146.31M473.67-146.66L-56.66,383.67l.71.71L474.38-145.95l-.71-.71ZM-52.77,387.56L477.56-142.77M477.2-143.13L-53.13,387.2l.71.71L477.91-142.42l-.71-.71ZM-49.24,391.09L481.09-139.24M480.74-139.59L-49.59,390.74l.71.71L481.45-138.88l-.71-.71ZM-45.7,394.63L484.63-135.7M484.28-136.05L-46.05,394.28l.71.71L484.98-135.35l-.71-.71ZM-42.17,398.17L488.17-132.17M487.81-132.52L-42.52,397.81l.71.71L488.52-131.81l-.71-.71ZM-38.63,401.7L491.7-128.63M491.35-128.98L-38.98,401.35l.71.71L492.05-128.28l-.71-.71ZM-35.09,405.24L495.24-125.09M494.88-125.45L-35.45,404.88l.71.71L495.59-124.74l-.71-.71ZM-31.56,408.77L498.77-121.56M498.42-121.91L-31.91,408.42l.71.71L499.13-121.2l-.71-.71ZM-28.02,412.31L502.31-118.02M501.95-118.38L-28.38,411.95l.71.71L502.66-117.67l-.71-.71ZM-24.49,415.84L505.84-114.49M505.49-114.84L-24.84,415.49l.71.71L506.2-114.13l-.71-.71ZM-20.95,419.38L509.38-110.95M509.02-111.31L-21.31,419.02l.71.71L509.73-110.6l-.71-.71ZM-17.42,422.91L512.91-107.42M512.56-107.77L-17.77,422.56l.71.71L513.27-107.06l-.71-.71ZM-13.88,426.45L516.45-103.88M516.1-104.23L-14.23,426.1l.71.71L516.8-103.53l-.71-.71ZM-10.35,429.98L519.98-100.35M519.63-100.7L-10.7,429.63l.71.71L520.34-99.99l-.71-.71ZM-6.81,433.52L523.52-96.81M523.17-97.16L-7.16,433.17l.71.71L523.87-96.46l-.71-.71ZM-3.27,437.06L527.06-93.27M526.7-93.63L-3.63,436.7l.71.71L527.41-92.92l-.71-.71ZM.26,440.59L530.59-89.74M530.24-90.09L-.09,440.24l.71.71L530.95-89.39l-.71-.71ZM3.8,444.13L534.13-86.2M533.77-86.56L3.44,443.77l.71.71L534.48-85.85l-.71-.71ZM7.33,447.66L537.66-82.67M537.31-83.02L6.98,447.31l.71.71L538.02-82.31l-.71-.71ZM10.87,451.2L541.2-79.13M540.84-79.49L10.51,450.84l.71.71L541.55-78.78l-.71-.71ZM14.4,454.73L544.73-75.6M544.38-75.95L14.05,454.38l.71.71L545.09-75.24l-.71-.71ZM17.94,458.27L548.27-72.06M547.92-72.41L17.59,457.92l.71.71L548.62-71.71l-.71-.71ZM21.47,461.8L551.8-68.53M551.45-68.88L21.12,461.45l.71.71L552.16-68.17l-.71-.71ZM25.01,465.34L555.34-64.99M554.99-65.34L24.66,464.99l.71.71L555.69-64.64l-.71-.71ZM28.55,468.88L558.88-61.45M558.52-61.81L28.19,468.52l.71.71L559.23-61.1l-.71-.71ZM32.08,472.41L562.41-57.92M562.06-58.27L31.73,472.06l.71.71L562.76-57.57l-.71-.71ZM35.62,475.95L565.95-54.38M565.59-54.74L35.26,475.59l.71.71L566.3-54.03l-.71-.71ZM39.15,479.48L569.48-50.85M569.13-51.2L38.8,479.13l.71.71L569.84-50.49l-.71-.71ZM42.69,483.02L573.02-47.31M572.66-47.67L42.33,482.66l.71.71L573.37-46.96l-.71-.71ZM46.22,486.55L576.55-43.78M576.2-44.13L45.87,486.2l.71.71L576.91-43.42l-.71-.71ZM49.76,490.09L580.09-40.24M579.74-40.59L49.41,489.74l.71.71L580.44-39.89l-.71-.71ZM53.29,493.62L583.62-36.71M583.27-37.06L52.94,493.27l.71.71L583.98-36.35l-.71-.71ZM56.83,497.16L587.16-33.17M586.81-33.52L56.48,496.81l.71.71L587.51-32.82l-.71-.71ZM60.37,500.7L590.7-29.63M590.34-29.99L60.01,500.34l.71.71L591.05-29.28l-.71-.71ZM63.9,504.23L594.23-26.1M593.88-26.45L63.55,503.88l.71.71L594.58-25.75l-.71-.71ZM67.44,507.77L597.77-22.56M597.41-22.92L67.08,507.41l.71.71L598.12-22.21l-.71-.71ZM70.97,511.3L601.3-19.03M600.95-19.38L70.62,510.95l.71.71L601.66-18.67l-.71-.71ZM74.51,514.84L604.84-15.49M604.48-15.85L74.15,514.48l.71.71L605.19-15.14l-.71-.71ZM78.04,518.37L608.37-11.96M608.02-12.31L77.69,518.02l.71.71L608.73-11.6l-.71-.71ZM81.58,521.91L611.91-8.42M611.56-8.77L81.23,521.56l.71.71L612.26-8.07l-.71-.71ZM85.11,525.44L615.44-4.89M615.09-5.24L84.76,525.09l.71.71L615.8-4.53l-.71-.71ZM88.65,528.98L618.98-1.35M618.63-1.7L88.3,528.63l.71.71L619.33-1l-.71-.71ZM92.19,532.52L622.52,2.19M622.16,1.83L91.83,532.16l.71.71L622.87,2.54l-.71-.71ZM95.72,536.05L626.05,5.72M625.7,5.37L95.37,535.7l.71.71L626.4,6.07l-.71-.71ZM99.26,539.59L629.59,9.26M629.23,8.9L98.9,539.23l.71.71L629.94,9.61l-.71-.71ZM102.79,543.12L633.12,12.79M632.77,12.44L102.44,542.77l.71.71L633.48,13.15l-.71-.71ZM106.33,546.66L636.66,16.33M636.3,15.97L105.97,546.3l.71.71L637.01,16.68l-.71-.71ZM109.86,550.19L640.19,19.86M639.84,19.51L109.51,549.84l.71.71L640.55,20.22l-.71-.71ZM113.4,553.73L643.73,23.4M643.37,23.04L113.04,553.37l.71.71L644.08,23.75l-.71-.71ZM116.93,557.26L647.26,26.93M646.91,26.58L116.58,556.91l.71.71L647.62,27.29l-.71-.71ZM120.47,560.8L650.8,30.47M650.45,30.12L120.12,560.45l.71.71L651.15,30.82l-.71-.71ZM124.01,564.34L654.34,34.01M653.98,33.65L123.65,563.98l.71.71L654.69,34.36l-.71-.71ZM127.54,567.87L657.87,37.54M657.52,37.19L127.19,567.52l.71.71L658.22,37.89l-.71-.71ZM131.08,571.41L661.41,41.08M661.05,40.72L130.72,571.05l.71.71L661.76,41.43l-.71-.71ZM134.61,574.94L664.94,44.61M664.59,44.26L134.26,574.59l.71.71L665.3,44.97l-.71-.71ZM138.15,578.48L668.48,48.15M668.12,47.79L137.79,578.12l.71.71L668.83,48.5l-.71-.71Z"/></g></g><g id="Image_border"><path class="cls-4" d="M398.75,1.25v297.5H1.25V1.25h397.5M400,0H0v300h400V0h0Z"/></g></svg>