<?xml version="1.0" encoding="utf-8"?>
<!-- Generator: Adobe Illustrator 28.2.0, SVG Export Plug-In . SVG Version: 6.00 Build 0)  -->
<svg version="1.1" id="Layer_1" xmlns="http://www.w3.org/2000/svg" xmlns:xlink="http://www.w3.org/1999/xlink" x="0px" y="0px"
	 viewBox="0 0 36 36" style="enable-background:new 0 0 36 36;" xml:space="preserve">
<g>
	<path d="M30.7,12.7V5.3h-7.5L18,0l-5.3,5.3H5.3v7.5L0,18l5.3,5.3v7.5h7.5L18,36l5.3-5.3h7.5v-7.5L36,18L30.7,12.7z M18,27.8
		c-5.4,0-9.8-4.4-9.8-9.8s4.4-9.8,9.8-9.8s9.8,4.4,9.8,9.8C27.8,23.4,23.4,27.8,18,27.8C18,27.8,18,27.8,18,27.8L18,27.8z"/>
</g>
<g>
	<circle cx="18" cy="18" r="7.9"/>
</g>
</svg>
