<?xml version="1.0" encoding="utf-8"?>
<!-- Generator: Adobe Illustrator 28.2.0, SVG Export Plug-In . SVG Version: 6.00 Build 0)  -->
<svg version="1.1" id="Layer_1" xmlns="http://www.w3.org/2000/svg" xmlns:xlink="http://www.w3.org/1999/xlink" x="0px" y="0px"
	 viewBox="0 0 24 24" style="enable-background:new 0 0 24 24;" xml:space="preserve">
<g>
	<path d="M20.5,8.5v-5h-5L12,0L8.5,3.5h-5v5L0,12l3.5,3.5v5h5L12,24l3.5-3.5h5v-5L24,12L20.5,8.5z M12,18.6c-3.6,0-6.6-2.9-6.6-6.6
		S8.4,5.4,12,5.4s6.6,2.9,6.6,6.6C18.5,15.6,15.6,18.6,12,18.6C12,18.6,12,18.6,12,18.6L12,18.6z"/>
</g>
<g>
	<circle cx="12" cy="12" r="5.3"/>
</g>
</svg>
