<?xml version="1.0" encoding="utf-8"?>
<!-- Generator: Adobe Illustrator 28.2.0, SVG Export Plug-In . SVG Version: 6.00 Build 0)  -->
<svg version="1.1" id="Layer_1" xmlns="http://www.w3.org/2000/svg" xmlns:xlink="http://www.w3.org/1999/xlink" x="0px" y="0px"
	 viewBox="0 0 32 32" style="enable-background:new 0 0 32 32;" xml:space="preserve">
<g>
	<path d="M27.3,11.3V4.7h-6.6L16,0l-4.7,4.7H4.7v6.6L0,16l4.7,4.7v6.6h6.6L16,32l4.7-4.7h6.6v-6.6L32,16L27.3,11.3z M16,24.7
		c-4.8,0-8.7-3.9-8.7-8.7s3.9-8.7,8.7-8.7s8.7,3.9,8.7,8.7C24.7,20.8,20.8,24.7,16,24.7C16,24.7,16,24.7,16,24.7L16,24.7z"/>
</g>
<g>
	<circle cx="16" cy="16" r="7"/>
</g>
</svg>
