<?xml version="1.0" standalone="no"?><!DOCTYPE svg PUBLIC "-//W3C//DTD SVG 1.1//EN" "http://www.w3.org/Graphics/SVG/1.1/DTD/svg11.dtd" ><svg version="1.1" xmlns="http://www.w3.org/2000/svg"><defs><font horiz-adv-x="0" id="font"><font-face ascent="750" bbox="-166 -237 1398 939" cap-height="700" descent="-250" font-family="Web use ONLY | Copyright (C) Emtype Foundry" font-stretch="normal" font-weight="600" units-per-em="1000" x-height="505" /><missing-glyph d="M67 183V514Q67 604 115.5 652.5Q164 701 254 701H594Q684 701 732.5 652.5Q781 604 781 514V183Q781 93 732.5 44.5Q684 -4 594 -4H254Q164 -4 115.5 44.5Q67 93 67 183ZM594 631H255Q200 631 173.5 604.5Q147 578 147 523V174Q147 119 173.5 92.5Q200 66 255 66H594Q648 66 674.5 92.5Q701 119 701 174V523Q701 578 674.5 604.5Q648 631 594 631ZM349 492 428 422 503 495Q517 508 520 514Q523 520 523 528V557H639V515Q639 494 629 476Q619 458 581 424L503 354L603 266Q624 247 634 228.5Q644 210 644 188V139H526V169Q526 179 521 188.5Q516 198 506 206L417 284L341 202Q326 185 323.5 179.5Q321 174 321 167V139H205V174Q205 197 217.5 220Q230 243 263 273L344 349L252 432Q230 451 220 469.5Q210 488 210 510V557H329V527Q329 517 333.5 509Q338 501 349 492Z" horiz-adv-x="849" /><glyph d="M161 153V0H39V157Q39 170 42 186Q45 202 51 220L222 698H359L529 220Q534 207 537.5 189Q541 171 541 157V0H415V153ZM385 261 288 559 191 261Z" glyph-name="A" horiz-adv-x="581" unicode="A" /><glyph d="M144 153V0H22V160Q22 181 26.5 198.5Q31 216 40 229L340 697H818V586H512V414H792V305H512V111H826V0H382V153ZM382 261V561L195 261Z" glyph-name="AE" horiz-adv-x="866" unicode="&#198;" /><glyph d="M161 153V0H39V157Q39 170 42 186Q45 202 51 220L222 698H359L529 220Q534 207 537.5 189Q541 171 541 157V0H415V153ZM385 261 288 559 191 261ZM301 877H423V854L336 745H253Z" glyph-name="Aacute" horiz-adv-x="581" unicode="&#193;" /><glyph d="M161 153V0H39V157Q39 170 42 186Q45 202 51 220L222 698H359L529 220Q534 207 537.5 189Q541 171 541 157V0H415V153ZM385 261 288 559 191 261ZM344 831V890H424V826Q424 781 398 757.5Q372 734 323 734H255Q206 734 180 757.5Q154 781 154 826V890H234V831Q234 817 241.5 810Q249 803 263 803H315Q329 803 336.5 810Q344 817 344 831Z" glyph-name="Abreve" horiz-adv-x="581" unicode="&#258;" /><glyph d="M161 153V0H39V157Q39 170 42 186Q45 202 51 220L222 698H359L529 220Q534 207 537.5 189Q541 171 541 157V0H415V153ZM385 261 288 559 191 261ZM429 745H344L290 806L235 745H151L245 877H334Z" glyph-name="Acircumflex" horiz-adv-x="581" unicode="&#194;" /><glyph d="M161 153V0H39V157Q39 170 42 186Q45 202 51 220L222 698H359L529 220Q534 207 537.5 189Q541 171 541 157V0H415V153ZM385 261 288 559 191 261ZM263 758H172V862H263ZM408 758H317V862H408Z" glyph-name="Adieresis" horiz-adv-x="581" unicode="&#196;" /><glyph d="M161 153V0H39V157Q39 170 42 186Q45 202 51 220L222 698H359L529 220Q534 207 537.5 189Q541 171 541 157V0H415V153ZM385 261 288 559 191 261ZM250 745 162 854V877H284L332 745Z" glyph-name="Agrave" horiz-adv-x="581" unicode="&#192;" /><glyph d="M161 153V0H39V157Q39 170 42 186Q45 202 51 220L222 698H359L529 220Q534 207 537.5 189Q541 171 541 157V0H415V153ZM385 261 288 559 191 261ZM415 765H163V849H415Z" glyph-name="Amacron" horiz-adv-x="581" unicode="&#256;" /><glyph d="M161 153V0H39V157Q39 170 42 186Q45 202 51 220L222 698H359L529 220Q534 207 537.5 189Q541 171 541 157V0H514L431 -57Q421 -63 417 -69.5Q413 -76 413 -85V-102Q413 -113 419 -118Q425 -123 438 -123H528V-190H420Q376 -190 353 -172Q330 -154 330 -119V-96Q330 -75 339.5 -58Q349 -41 375 -24L415 2V153ZM385 261 288 559 191 261Z" glyph-name="Aogonek" horiz-adv-x="581" unicode="&#260;" /><glyph d="M161 153V0H39V157Q39 170 42 186Q45 202 51 220L222 698H359L529 220Q534 207 537.5 189Q541 171 541 157V0H415V153ZM385 261 288 559 191 261ZM262 939H309Q352 939 375 918.5Q398 898 398 859V817Q398 778 375 757Q352 736 309 736H262Q219 736 196.5 756.5Q174 777 174 817V859Q174 898 196.5 918.5Q219 939 262 939ZM305 877H266Q254 877 248 871Q242 865 242 853V821Q242 810 248 804Q254 798 266 798H305Q317 798 323 804Q329 810 329 821V853Q329 865 323 871Q317 877 305 877Z" glyph-name="Aring" horiz-adv-x="581" unicode="&#197;" /><glyph d="M161 153V0H39V157Q39 170 42 186Q45 202 51 220L222 698H359L529 220Q534 207 537.5 189Q541 171 541 157V0H415V153ZM385 261 288 559 191 261ZM361 822H370Q379 822 383.5 826.5Q388 831 388 840V873H458V817Q458 783 440.5 765Q423 747 390 747H361Q352 747 344 748.5Q336 750 309 761L251 788Q239 794 232.5 796Q226 798 220 798H211Q202 798 197.5 793.5Q193 789 193 780V747H123V804Q123 838 140 856Q157 874 190 874H222Q229 874 237 872.5Q245 871 272 860L329 833Q341 828 349 825Q357 822 361 822Z" glyph-name="Atilde" horiz-adv-x="581" unicode="&#195;" /><glyph d="M415 0H71V697H400Q471 697 509 659.5Q547 622 547 552V470Q547 430 528 402Q509 374 473 361Q516 352 539 323.5Q562 295 562 250V145Q562 74 524.5 37Q487 0 415 0ZM379 587H201V414H381Q399 414 408.5 423Q418 432 418 449V550Q418 569 408.5 578Q399 587 379 587ZM395 305H201V110H394Q414 110 423.5 119.5Q433 129 433 148V269Q433 287 423.5 296Q414 305 395 305Z" glyph-name="B" horiz-adv-x="612" unicode="B" /><glyph d="M411 146V237H539V143Q539 72 501 34Q463 -4 392 -4H208Q137 -4 99 34Q61 72 61 143V554Q61 625 99 663Q137 701 208 701H392Q463 701 501 663Q539 625 539 554V482H411V551Q411 571 401.5 580.5Q392 590 372 590H230Q211 590 201 580.5Q191 571 191 551V146Q191 127 201 117Q211 107 230 107H372Q392 107 401.5 117Q411 127 411 146Z" glyph-name="C" horiz-adv-x="582" unicode="C" /><glyph glyph-name="CR" horiz-adv-x="500" unicode="" /><glyph d="M411 146V237H539V143Q539 72 501 34Q463 -4 392 -4H208Q137 -4 99 34Q61 72 61 143V554Q61 625 99 663Q137 701 208 701H392Q463 701 501 663Q539 625 539 554V482H411V551Q411 571 401.5 580.5Q392 590 372 590H230Q211 590 201 580.5Q191 571 191 551V146Q191 127 201 117Q211 107 230 107H372Q392 107 401.5 117Q411 127 411 146ZM302 877H424V854L337 745H254Z" glyph-name="Cacute" horiz-adv-x="582" unicode="&#262;" /><glyph d="M344 756H255L161 888H245L299 827L353 888H438ZM411 146V237H539V143Q539 72 501 34Q463 -4 392 -4H208Q137 -4 99 34Q61 72 61 143V554Q61 625 99 663Q137 701 208 701H392Q463 701 501 663Q539 625 539 554V482H411V551Q411 571 401.5 580.5Q392 590 372 590H230Q211 590 201 580.5Q191 571 191 551V146Q191 127 201 117Q211 107 230 107H372Q392 107 401.5 117Q411 127 411 146Z" glyph-name="Ccaron" horiz-adv-x="582" unicode="&#268;" /><glyph d="M411 146V237H539V143Q539 72 501 34Q463 -4 392 -4H323L311 -38H336Q376 -38 396 -53.5Q416 -69 416 -100V-134Q416 -165 396 -180.5Q376 -196 337 -196H212V-134H326Q334 -134 337.5 -131Q341 -128 341 -121V-113Q341 -106 337.5 -102.5Q334 -99 326 -99H248Q236 -99 230 -94Q224 -89 224 -78V-68Q224 -64 225 -59.5Q226 -55 229 -48L247 -4H208Q137 -4 99 34Q61 72 61 143V554Q61 625 99 663Q137 701 208 701H392Q463 701 501 663Q539 625 539 554V482H411V551Q411 571 401.5 580.5Q392 590 372 590H230Q211 590 201 580.5Q191 571 191 551V146Q191 127 201 117Q211 107 230 107H372Q392 107 401.5 117Q411 127 411 146Z" glyph-name="Ccedilla" horiz-adv-x="582" unicode="&#199;" /><glyph d="M411 146V237H539V143Q539 72 501 34Q463 -4 392 -4H208Q137 -4 99 34Q61 72 61 143V554Q61 625 99 663Q137 701 208 701H392Q463 701 501 663Q539 625 539 554V482H411V551Q411 571 401.5 580.5Q392 590 372 590H230Q211 590 201 580.5Q191 571 191 551V146Q191 127 201 117Q211 107 230 107H372Q392 107 401.5 117Q411 127 411 146ZM439 745H354L300 806L245 745H161L255 877H344Z" glyph-name="Ccircumflex" horiz-adv-x="582" unicode="&#264;" /><glyph d="M356 759H243V887H356ZM411 146V237H539V143Q539 72 501 34Q463 -4 392 -4H208Q137 -4 99 34Q61 72 61 143V554Q61 625 99 663Q137 701 208 701H392Q463 701 501 663Q539 625 539 554V482H411V551Q411 571 401.5 580.5Q392 590 372 590H230Q211 590 201 580.5Q191 571 191 551V146Q191 127 201 117Q211 107 230 107H372Q392 107 401.5 117Q411 127 411 146Z" glyph-name="Cdotaccent" horiz-adv-x="582" unicode="&#266;" /><glyph d="M404 0H71V697H404Q481 697 521.5 656.5Q562 616 562 539V158Q562 82 521.5 41Q481 0 404 0ZM201 584V113H391Q411 113 421.5 123.5Q432 134 432 154V543Q432 563 421.5 573.5Q411 584 391 584Z" glyph-name="D" horiz-adv-x="622" unicode="D" /><glyph d="M352 756H263L169 888H253L307 827L361 888H446ZM404 0H71V697H404Q481 697 521.5 656.5Q562 616 562 539V158Q562 82 521.5 41Q481 0 404 0ZM201 584V113H391Q411 113 421.5 123.5Q432 134 432 154V543Q432 563 421.5 573.5Q411 584 391 584Z" glyph-name="Dcaron" horiz-adv-x="622" unicode="&#270;" /><glyph d="M408 0H76V307H22V413H76V697H408Q485 697 525.5 656.5Q566 616 566 539V158Q566 82 525.5 41Q485 0 408 0ZM205 307V113H395Q416 113 426 123Q436 133 436 154V543Q436 564 426 574Q416 584 395 584H205V413H305V307Z" glyph-name="Dcroat" horiz-adv-x="627" unicode="&#272;" /><glyph d="M549 0H24L220 697H353ZM391 108 283 528 175 108Z" glyph-name="Delta" horiz-adv-x="572" unicode="&#8710;" /><glyph d="M515 0H71V697H507V586H201V414H481V305H201V111H515Z" glyph-name="E" horiz-adv-x="555" unicode="E" /><glyph d="M515 0H71V697H507V586H201V414H481V305H201V111H515ZM288 877H410V854L323 745H240Z" glyph-name="Eacute" horiz-adv-x="555" unicode="&#201;" /><glyph d="M515 0H71V697H507V586H201V414H481V305H201V111H515ZM347 831V890H427V826Q427 781 401 757.5Q375 734 326 734H258Q209 734 183 757.5Q157 781 157 826V890H237V831Q237 817 244.5 810Q252 803 266 803H318Q332 803 339.5 810Q347 817 347 831Z" glyph-name="Ebreve" horiz-adv-x="555" unicode="&#276;" /><glyph d="M337 756H248L154 888H238L292 827L346 888H431ZM515 0H71V697H507V586H201V414H481V305H201V111H515Z" glyph-name="Ecaron" horiz-adv-x="555" unicode="&#282;" /><glyph d="M429 745H344L290 806L235 745H151L245 877H334ZM515 0H71V697H507V586H201V414H481V305H201V111H515Z" glyph-name="Ecircumflex" horiz-adv-x="555" unicode="&#202;" /><glyph d="M515 0H71V697H507V586H201V414H481V305H201V111H515ZM258 758H167V862H258ZM403 758H312V862H403Z" glyph-name="Edieresis" horiz-adv-x="555" unicode="&#203;" /><glyph d="M349 759H236V887H349ZM515 0H71V697H507V586H201V414H481V305H201V111H515Z" glyph-name="Edotaccent" horiz-adv-x="555" unicode="&#278;" /><glyph d="M259 745 171 854V877H293L341 745ZM515 0H71V697H507V586H201V414H481V305H201V111H515Z" glyph-name="Egrave" horiz-adv-x="555" unicode="&#200;" /><glyph d="M515 0H71V697H507V586H201V414H481V305H201V111H515ZM418 765H166V849H418Z" glyph-name="Emacron" horiz-adv-x="555" unicode="&#274;" /><glyph d="M365 0H71V697H507V586H201V414H481V305H201V111H515V0H468L385 -57Q375 -63 371 -69.5Q367 -76 367 -85V-102Q367 -113 373 -118Q379 -123 392 -123H482V-190H374Q330 -190 307 -172Q284 -154 284 -119V-96Q284 -75 293.5 -58Q303 -41 329 -24Z" glyph-name="Eogonek" horiz-adv-x="555" unicode="&#280;" /><glyph d="M408 0H76V307H22V413H76V697H408Q485 697 525.5 656.5Q566 616 566 539V158Q566 82 525.5 41Q485 0 408 0ZM205 307V113H395Q416 113 426 123Q436 133 436 154V543Q436 564 426 574Q416 584 395 584H205V413H305V307Z" glyph-name="Eth" horiz-adv-x="627" unicode="&#208;" /><glyph d="M558 237V143Q558 72 520 34Q482 -4 411 -4H256Q185 -4 147 34Q109 72 109 143V247H41V325H109V375H41V453H109V554Q109 625 147 663Q185 701 256 701H411Q482 701 520 663Q558 625 558 554V482H430V551Q430 571 420.5 580.5Q411 590 391 590H278Q259 590 249 580.5Q239 571 239 551V453H362V375H239V325H362V247H239V146Q239 127 249 117Q259 107 278 107H391Q411 107 420.5 117Q430 127 430 146V237Z" glyph-name="Euro" horiz-adv-x="608" unicode="&#8364;" /><glyph d="M491 387V275H201V0H71V697H517V586H201V387Z" glyph-name="F" horiz-adv-x="546" unicode="F" /><glyph d="M539 355V143Q539 72 501 34Q463 -4 392 -4H208Q137 -4 99 34Q61 72 61 143V554Q61 625 99 663Q137 701 208 701H392Q463 701 501 663Q539 625 539 554V482H411V551Q411 571 401.5 580.5Q392 590 372 590H230Q211 590 201 580.5Q191 571 191 551V146Q191 127 201 117Q211 107 230 107H372Q392 107 401.5 117Q411 127 411 146V252H309V355Z" glyph-name="G" horiz-adv-x="593" unicode="G" /><glyph d="M539 355V143Q539 72 501 34Q463 -4 392 -4H208Q137 -4 99 34Q61 72 61 143V554Q61 625 99 663Q137 701 208 701H392Q463 701 501 663Q539 625 539 554V482H411V551Q411 571 401.5 580.5Q392 590 372 590H230Q211 590 201 580.5Q191 571 191 551V146Q191 127 201 117Q211 107 230 107H372Q392 107 401.5 117Q411 127 411 146V252H309V355ZM354 831V890H434V826Q434 781 408 757.5Q382 734 333 734H265Q216 734 190 757.5Q164 781 164 826V890H244V831Q244 817 251.5 810Q259 803 273 803H325Q339 803 346.5 810Q354 817 354 831Z" glyph-name="Gbreve" horiz-adv-x="593" unicode="&#286;" /><glyph d="M439 745H354L300 806L245 745H161L255 877H344ZM539 355V143Q539 72 501 34Q463 -4 392 -4H208Q137 -4 99 34Q61 72 61 143V554Q61 625 99 663Q137 701 208 701H392Q463 701 501 663Q539 625 539 554V482H411V551Q411 571 401.5 580.5Q392 590 372 590H230Q211 590 201 580.5Q191 571 191 551V146Q191 127 201 117Q211 107 230 107H372Q392 107 401.5 117Q411 127 411 146V252H309V355Z" glyph-name="Gcircumflex" horiz-adv-x="593" unicode="&#284;" /><glyph d="M356 759H243V887H356ZM539 355V143Q539 72 501 34Q463 -4 392 -4H208Q137 -4 99 34Q61 72 61 143V554Q61 625 99 663Q137 701 208 701H392Q463 701 501 663Q539 625 539 554V482H411V551Q411 571 401.5 580.5Q392 590 372 590H230Q211 590 201 580.5Q191 571 191 551V146Q191 127 201 117Q211 107 230 107H372Q392 107 401.5 117Q411 127 411 146V252H309V355Z" glyph-name="Gdotaccent" horiz-adv-x="593" unicode="&#288;" /><glyph d="M562 0H432V303H201V0H71V697H201V416H432V697H562Z" glyph-name="H" horiz-adv-x="633" unicode="H" /><glyph d="M76 543H26V618H76V697H206V618H437V697H567V618H620V543H567V0H437V303H206V0H76ZM206 543V416H437V543Z" glyph-name="Hbar" horiz-adv-x="643" unicode="&#294;" /><glyph d="M562 0H432V303H201V0H71V697H201V416H432V697H562ZM457 745H372L318 806L263 745H179L273 877H362Z" glyph-name="Hcircumflex" horiz-adv-x="633" unicode="&#292;" /><glyph d="M201 0H71V697H201Z" glyph-name="I" horiz-adv-x="272" unicode="I" /><glyph d="M201 0H71V697H201ZM596 148V697H726V143Q726 72 688 34Q650 -4 579 -4H440Q369 -4 331 34Q293 72 293 143V228H421V148Q421 129 431 119Q441 109 460 109H557Q577 109 586.5 119Q596 129 596 148Z" glyph-name="IJ" horiz-adv-x="794" unicode="&#306;" /><glyph d="M201 0H71V697H201ZM138 877H260V854L173 745H90Z" glyph-name="Iacute" horiz-adv-x="272" unicode="&#205;" /><glyph d="M201 0H71V697H201ZM275 745H190L136 806L81 745H-3L91 877H180Z" glyph-name="Icircumflex" horiz-adv-x="272" unicode="&#206;" /><glyph d="M201 0H71V697H201ZM109 758H18V862H109ZM254 758H163V862H254Z" glyph-name="Idieresis" horiz-adv-x="272" unicode="&#207;" /><glyph d="M201 0H71V697H201ZM191 759H78V887H191Z" glyph-name="Idotaccent" horiz-adv-x="272" unicode="&#304;" /><glyph d="M201 0H71V697H201ZM96 745 8 854V877H130L178 745Z" glyph-name="Igrave" horiz-adv-x="272" unicode="&#204;" /><glyph d="M201 0H71V697H201ZM262 777H10V861H262Z" glyph-name="Imacron" horiz-adv-x="272" unicode="&#298;" /><glyph d="M201 697V0H168L85 -57Q75 -63 71 -69.5Q67 -76 67 -85V-102Q67 -113 73 -118Q79 -123 92 -123H182V-190H74Q30 -190 7 -172Q-16 -154 -16 -119V-96Q-16 -75 -6.5 -58Q3 -41 29 -24L71 4V697Z" glyph-name="Iogonek" horiz-adv-x="272" unicode="&#302;" /><glyph d="M201 0H71V697H201ZM206 822H215Q224 822 228.5 826.5Q233 831 233 840V873H303V817Q303 783 285.5 765Q268 747 235 747H206Q197 747 189 748.5Q181 750 154 761L96 788Q84 794 77.5 796Q71 798 65 798H56Q47 798 42.5 793.5Q38 789 38 780V747H-32V804Q-32 838 -15 856Q2 874 35 874H67Q74 874 82 872.5Q90 871 117 860L174 833Q186 828 194 825Q202 822 206 822Z" glyph-name="Itilde" horiz-adv-x="272" unicode="&#296;" /><glyph d="M324 148V697H454V143Q454 72 416 34Q378 -4 307 -4H168Q97 -4 59 34Q21 72 21 143V228H149V148Q149 129 159 119Q169 109 188 109H285Q305 109 314.5 119Q324 129 324 148Z" glyph-name="J" horiz-adv-x="522" unicode="J" /><glyph d="M324 148V697H454V143Q454 72 416 34Q378 -4 307 -4H168Q97 -4 59 34Q21 72 21 143V228H149V148Q149 129 159 119Q169 109 188 109H285Q305 109 314.5 119Q324 129 324 148ZM525 745H440L386 806L331 745H247L341 877H430Z" glyph-name="Jcircumflex" horiz-adv-x="522" unicode="&#308;" /><glyph d="M417 157 288 305H201V0H71V697H201V414H299L421 534Q429 541 432.5 552Q436 563 436 580V697H560V557Q560 536 553 518Q546 500 533 487L402 360L540 201Q552 186 557 171.5Q562 157 562 138V0H432V113Q432 129 429 138Q426 147 417 157Z" glyph-name="K" horiz-adv-x="605" unicode="K" /><glyph d="M485 0H71V697H201V113H485Z" glyph-name="L" horiz-adv-x="496" unicode="L" /><glyph d="M139 877H261V854L174 745H91ZM485 0H71V697H201V113H485Z" glyph-name="Lacute" horiz-adv-x="496" unicode="&#313;" /><glyph d="M295 697H408V658L338 539H270ZM485 0H71V697H201V113H485Z" glyph-name="Lcaron" horiz-adv-x="496" unicode="&#317;" /><glyph d="M485 0H71V697H201V113H485ZM457 286H325V432H457Z" glyph-name="Ldot" horiz-adv-x="501" unicode="&#319;" /><glyph d="M490 0H76V295L7 270V373L76 398V697H206V447L365 506V402L206 343V113H490Z" glyph-name="Lslash" horiz-adv-x="501" unicode="&#321;" /><glyph d="M409 211H323L192 459V0H71V697H197L367 361L534 697H660V0H538V462Z" glyph-name="M" horiz-adv-x="731" unicode="M" /><glyph d="M562 0H443L193 450V0H71V697H191L440 248V697H562Z" glyph-name="N" horiz-adv-x="633" unicode="N" /><glyph glyph-name="NULL" horiz-adv-x="500" /><glyph d="M323 877H445V854L358 745H275ZM562 0H443L193 450V0H71V697H191L440 248V697H562Z" glyph-name="Nacute" horiz-adv-x="633" unicode="&#323;" /><glyph d="M361 756H272L178 888H262L316 827L370 888H455ZM562 0H443L193 450V0H71V697H191L440 248V697H562Z" glyph-name="Ncaron" horiz-adv-x="633" unicode="&#327;" /><glyph d="M387 822H396Q405 822 409.5 826.5Q414 831 414 840V873H484V817Q484 783 466.5 765Q449 747 416 747H387Q378 747 370 748.5Q362 750 335 761L277 788Q265 794 258.5 796Q252 798 246 798H237Q228 798 223.5 793.5Q219 789 219 780V747H149V804Q149 838 166 856Q183 874 216 874H248Q255 874 263 872.5Q271 871 298 860L355 833Q367 828 375 825Q383 822 387 822ZM562 0H443L193 450V0H71V697H191L440 248V697H562Z" glyph-name="Ntilde" horiz-adv-x="633" unicode="&#209;" /><glyph d="M405 -4H208Q137 -4 99 34Q61 72 61 143V554Q61 625 99 663Q137 701 208 701H405Q476 701 514 663Q552 625 552 554V143Q552 72 514 34Q476 -4 405 -4ZM191 551V147Q191 128 201 117.5Q211 107 230 107H383Q402 107 412 117Q422 127 422 146V551Q422 571 412.5 580.5Q403 590 383 590H230Q211 590 201 580.5Q191 571 191 551Z" glyph-name="O" horiz-adv-x="613" unicode="O" /><glyph d="M405 -4H208Q137 -4 99 34Q61 72 61 143V554Q61 625 99 663Q137 701 208 701H405Q414 701 423.5 700Q433 699 446 697H858V586H552V414H832V305H552V111H866V0H446Q433 -2 423.5 -3Q414 -4 405 -4ZM191 551V147Q191 128 201 117.5Q211 107 230 107H383Q402 107 412 117Q422 127 422 146V551Q422 571 412.5 580.5Q403 590 383 590H230Q211 590 201 580.5Q191 571 191 551Z" glyph-name="OE" horiz-adv-x="906" unicode="&#338;" /><glyph d="M310 877H432V854L345 745H262ZM405 -4H208Q137 -4 99 34Q61 72 61 143V554Q61 625 99 663Q137 701 208 701H405Q476 701 514 663Q552 625 552 554V143Q552 72 514 34Q476 -4 405 -4ZM191 551V147Q191 128 201 117.5Q211 107 230 107H383Q402 107 412 117Q422 127 422 146V551Q422 571 412.5 580.5Q403 590 383 590H230Q211 590 201 580.5Q191 571 191 551Z" glyph-name="Oacute" horiz-adv-x="613" unicode="&#211;" /><glyph d="M405 -4H208Q137 -4 99 34Q61 72 61 143V554Q61 625 99 663Q137 701 208 701H405Q476 701 514 663Q552 625 552 554V143Q552 72 514 34Q476 -4 405 -4ZM191 551V147Q191 128 201 117.5Q211 107 230 107H383Q402 107 412 117Q422 127 422 146V551Q422 571 412.5 580.5Q403 590 383 590H230Q211 590 201 580.5Q191 571 191 551ZM363 831V890H443V826Q443 781 417 757.5Q391 734 342 734H274Q225 734 199 757.5Q173 781 173 826V890H253V831Q253 817 260.5 810Q268 803 282 803H334Q348 803 355.5 810Q363 817 363 831Z" glyph-name="Obreve" horiz-adv-x="613" unicode="&#334;" /><glyph d="M448 745H363L309 806L254 745H170L264 877H353ZM405 -4H208Q137 -4 99 34Q61 72 61 143V554Q61 625 99 663Q137 701 208 701H405Q476 701 514 663Q552 625 552 554V143Q552 72 514 34Q476 -4 405 -4ZM191 551V147Q191 128 201 117.5Q211 107 230 107H383Q402 107 412 117Q422 127 422 146V551Q422 571 412.5 580.5Q403 590 383 590H230Q211 590 201 580.5Q191 571 191 551Z" glyph-name="Ocircumflex" horiz-adv-x="613" unicode="&#212;" /><glyph d="M405 -4H208Q137 -4 99 34Q61 72 61 143V554Q61 625 99 663Q137 701 208 701H405Q476 701 514 663Q552 625 552 554V143Q552 72 514 34Q476 -4 405 -4ZM191 551V147Q191 128 201 117.5Q211 107 230 107H383Q402 107 412 117Q422 127 422 146V551Q422 571 412.5 580.5Q403 590 383 590H230Q211 590 201 580.5Q191 571 191 551ZM282 758H191V862H282ZM427 758H336V862H427Z" glyph-name="Odieresis" horiz-adv-x="613" unicode="&#214;" /><glyph d="M269 745 181 854V877H303L351 745ZM405 -4H208Q137 -4 99 34Q61 72 61 143V554Q61 625 99 663Q137 701 208 701H405Q476 701 514 663Q552 625 552 554V143Q552 72 514 34Q476 -4 405 -4ZM191 551V147Q191 128 201 117.5Q211 107 230 107H383Q402 107 412 117Q422 127 422 146V551Q422 571 412.5 580.5Q403 590 383 590H230Q211 590 201 580.5Q191 571 191 551Z" glyph-name="Ograve" horiz-adv-x="613" unicode="&#210;" /><glyph d="M243 888H349V865L270 756H203ZM406 888H513V865L395 756H329ZM405 -4H208Q137 -4 99 34Q61 72 61 143V554Q61 625 99 663Q137 701 208 701H405Q476 701 514 663Q552 625 552 554V143Q552 72 514 34Q476 -4 405 -4ZM191 551V147Q191 128 201 117.5Q211 107 230 107H383Q402 107 412 117Q422 127 422 146V551Q422 571 412.5 580.5Q403 590 383 590H230Q211 590 201 580.5Q191 571 191 551Z" glyph-name="Ohungarumlaut" horiz-adv-x="613" unicode="&#336;" /><glyph d="M405 -4H208Q137 -4 99 34Q61 72 61 143V554Q61 625 99 663Q137 701 208 701H405Q476 701 514 663Q552 625 552 554V143Q552 72 514 34Q476 -4 405 -4ZM191 551V147Q191 128 201 117.5Q211 107 230 107H383Q402 107 412 117Q422 127 422 146V551Q422 571 412.5 580.5Q403 590 383 590H230Q211 590 201 580.5Q191 571 191 551ZM434 765H182V849H434Z" glyph-name="Omacron" horiz-adv-x="613" unicode="&#332;" /><glyph d="M262 102V0H56V94H123Q99 121 87 159Q75 197 75 247V554Q75 625 113 663Q151 701 222 701H418Q489 701 527 663Q565 625 565 554V247Q565 197 553 159Q541 121 517 94H583V0H378V102Q410 108 423 131.5Q436 155 436 214V551Q436 571 426.5 580.5Q417 590 397 590H244Q225 590 215 580.5Q205 571 205 551V214Q205 155 217.5 131Q230 107 262 102Z" glyph-name="Omega" horiz-adv-x="640" unicode="&#8486;" /><glyph d="M157 1 144 -24H65L96 35Q78 54 69 81Q60 108 60 143V554Q60 625 98 663Q136 701 207 701H401Q415 701 427.5 699.5Q440 698 452 695L466 721H546L513 660Q531 641 539.5 614.5Q548 588 548 554V143Q548 72 510 34Q472 -4 401 -4H207Q195 -4 182 -2.5Q169 -1 157 1ZM185 552V199L396 591Q392 592 388.5 592.5Q385 593 382 593H227Q207 593 196 582.5Q185 572 185 552ZM227 104H382Q402 104 412.5 114.5Q423 125 423 145V493L213 105Q215 104 218 104Q221 104 227 104Z" glyph-name="Oslash" horiz-adv-x="608" unicode="&#216;" /><glyph d="M405 -4H208Q137 -4 99 34Q61 72 61 143V554Q61 625 99 663Q137 701 208 701H405Q476 701 514 663Q552 625 552 554V143Q552 72 514 34Q476 -4 405 -4ZM191 551V147Q191 128 201 117.5Q211 107 230 107H383Q402 107 412 117Q422 127 422 146V551Q422 571 412.5 580.5Q403 590 383 590H230Q211 590 201 580.5Q191 571 191 551ZM379 822H388Q397 822 401.5 826.5Q406 831 406 840V873H476V817Q476 783 458.5 765Q441 747 408 747H379Q370 747 362 748.5Q354 750 327 761L269 788Q257 794 250.5 796Q244 798 238 798H229Q220 798 215.5 793.5Q211 789 211 780V747H141V804Q141 838 158 856Q175 874 208 874H240Q247 874 255 872.5Q263 871 290 860L347 833Q359 828 367 825Q375 822 379 822Z" glyph-name="Otilde" horiz-adv-x="613" unicode="&#213;" /><glyph d="M400 250H201V0H71V697H400Q471 697 509 659Q547 621 547 550V397Q547 326 509 288Q471 250 400 250ZM379 585H201V363H379Q398 363 407.5 372.5Q417 382 417 402V546Q417 566 407.5 575.5Q398 585 379 585Z" glyph-name="P" horiz-adv-x="583" unicode="P" /><glyph d="M405 -4H393L466 -155H329L257 -4H208Q137 -4 99 34Q61 72 61 143V554Q61 625 99 663Q137 701 208 701H405Q476 701 514 663Q552 625 552 554V143Q552 72 514 34Q476 -4 405 -4ZM191 551V147Q191 128 201 117.5Q211 107 230 107H383Q402 107 412 117Q422 127 422 146V551Q422 571 412.5 580.5Q403 590 383 590H230Q211 590 201 580.5Q191 571 191 551Z" glyph-name="Q" horiz-adv-x="613" unicode="Q" /><glyph d="M549 0H410L324 269H201V0H71V697H400Q471 697 509 659Q547 621 547 550V416Q547 361 524 325.5Q501 290 456 276ZM379 587H201V379H379Q398 379 407.5 388.5Q417 398 417 418V548Q417 567 407.5 577Q398 587 379 587Z" glyph-name="R" horiz-adv-x="597" unicode="R" /><glyph d="M549 0H410L324 269H201V0H71V697H400Q471 697 509 659Q547 621 547 550V416Q547 361 524 325.5Q501 290 456 276ZM379 587H201V379H379Q398 379 407.5 388.5Q417 398 417 418V548Q417 567 407.5 577Q398 587 379 587ZM305 877H427V854L340 745H257Z" glyph-name="Racute" horiz-adv-x="597" unicode="&#340;" /><glyph d="M332 756H243L149 888H233L287 827L341 888H426ZM549 0H410L324 269H201V0H71V697H400Q471 697 509 659Q547 621 547 550V416Q547 361 524 325.5Q501 290 456 276ZM379 587H201V379H379Q398 379 407.5 388.5Q417 398 417 418V548Q417 567 407.5 577Q398 587 379 587Z" glyph-name="Rcaron" horiz-adv-x="597" unicode="&#344;" /><glyph d="M54 458V559Q54 628 92 664.5Q130 701 201 701H384Q453 701 490.5 664.5Q528 628 528 559V488H400V557Q400 574 390 583Q380 592 361 592H221Q202 592 192 583Q182 574 182 557V478Q182 460 188 452Q194 444 210 440L438 381Q485 368 510 338Q535 308 535 263V138Q535 69 497 32.5Q459 -4 388 -4H192Q122 -4 85 32.5Q48 69 48 138V203H176V140Q176 123 186 114Q196 105 215 105H367Q387 105 396.5 113.5Q406 122 406 140V237Q406 252 399.5 260Q393 268 377 272L144 333Q100 344 77 376Q54 408 54 458Z" glyph-name="S" horiz-adv-x="585" unicode="S" /><glyph d="M54 458V559Q54 628 92 664.5Q130 701 201 701H384Q453 701 490.5 664.5Q528 628 528 559V488H400V557Q400 574 390 583Q380 592 361 592H221Q202 592 192 583Q182 574 182 557V478Q182 460 188 452Q194 444 210 440L438 381Q485 368 510 338Q535 308 535 263V138Q535 69 497 32.5Q459 -4 388 -4H192Q122 -4 85 32.5Q48 69 48 138V203H176V140Q176 123 186 114Q196 105 215 105H367Q387 105 396.5 113.5Q406 122 406 140V237Q406 252 399.5 260Q393 268 377 272L144 333Q100 344 77 376Q54 408 54 458ZM292 877H414V854L327 745H244Z" glyph-name="Sacute" horiz-adv-x="585" unicode="&#346;" /><glyph d="M336 756H247L153 888H237L291 827L345 888H430ZM54 458V559Q54 628 92 664.5Q130 701 201 701H384Q453 701 490.5 664.5Q528 628 528 559V488H400V557Q400 574 390 583Q380 592 361 592H221Q202 592 192 583Q182 574 182 557V478Q182 460 188 452Q194 444 210 440L438 381Q485 368 510 338Q535 308 535 263V138Q535 69 497 32.5Q459 -4 388 -4H192Q122 -4 85 32.5Q48 69 48 138V203H176V140Q176 123 186 114Q196 105 215 105H367Q387 105 396.5 113.5Q406 122 406 140V237Q406 252 399.5 260Q393 268 377 272L144 333Q100 344 77 376Q54 408 54 458Z" glyph-name="Scaron" horiz-adv-x="585" unicode="&#352;" /><glyph d="M54 458V559Q54 628 92 664.5Q130 701 201 701H384Q453 701 490.5 664.5Q528 628 528 559V488H400V557Q400 574 390 583Q380 592 361 592H221Q202 592 192 583Q182 574 182 557V478Q182 460 188 452Q194 444 210 440L438 381Q485 368 510 338Q535 308 535 263V138Q535 69 497 32.5Q459 -4 388 -4H318L306 -38H331Q371 -38 391 -53.5Q411 -69 411 -100V-134Q411 -165 391 -180.5Q371 -196 332 -196H207V-134H321Q329 -134 332.5 -131Q336 -128 336 -121V-113Q336 -106 332.5 -102.5Q329 -99 321 -99H243Q231 -99 225 -94Q219 -89 219 -78V-68Q219 -64 220 -59.5Q221 -55 224 -48L242 -4H192Q122 -4 85 32.5Q48 69 48 138V203H176V140Q176 123 186 114Q196 105 215 105H367Q387 105 396.5 113.5Q406 122 406 140V237Q406 252 399.5 260Q393 268 377 272L144 333Q100 344 77 376Q54 408 54 458Z" glyph-name="Scedilla" horiz-adv-x="585" unicode="&#350;" /><glyph d="M54 458V559Q54 628 92 664.5Q130 701 201 701H384Q453 701 490.5 664.5Q528 628 528 559V488H400V557Q400 574 390 583Q380 592 361 592H221Q202 592 192 583Q182 574 182 557V478Q182 460 188 452Q194 444 210 440L438 381Q485 368 510 338Q535 308 535 263V138Q535 69 497 32.5Q459 -4 388 -4H192Q122 -4 85 32.5Q48 69 48 138V203H176V140Q176 123 186 114Q196 105 215 105H367Q387 105 396.5 113.5Q406 122 406 140V237Q406 252 399.5 260Q393 268 377 272L144 333Q100 344 77 376Q54 408 54 458ZM431 745H346L292 806L237 745H153L247 877H336Z" glyph-name="Scircumflex" horiz-adv-x="585" unicode="&#348;" /><glyph d="M494 697V584H323V0H193V584H21V697Z" glyph-name="T" horiz-adv-x="515" unicode="T" /><glyph d="M503 697V584H332V405H474V318H332V0H202V318H60V405H202V584H30V697Z" glyph-name="Tbar" horiz-adv-x="534" unicode="&#358;" /><glyph d="M302 756H213L119 888H203L257 827L311 888H396ZM494 697V584H323V0H193V584H21V697Z" glyph-name="Tcaron" horiz-adv-x="515" unicode="&#356;" /><glyph d="M400 104H201V0H71V697H201V548H400Q471 548 509 510Q547 472 547 401V251Q547 180 509 142Q471 104 400 104ZM379 435H201V217H379Q398 217 407.5 226.5Q417 236 417 256V397Q417 416 407.5 425.5Q398 435 379 435Z" glyph-name="Thorn" horiz-adv-x="590" unicode="&#222;" /><glyph d="M429 148V697H559V143Q559 72 521 34Q483 -4 412 -4H215Q144 -4 106 34Q68 72 68 143V697H198V148Q198 129 208 119Q218 109 237 109H390Q410 109 419.5 119Q429 129 429 148Z" glyph-name="U" horiz-adv-x="627" unicode="U" /><glyph d="M429 148V697H559V143Q559 72 521 34Q483 -4 412 -4H215Q144 -4 106 34Q68 72 68 143V697H198V148Q198 129 208 119Q218 109 237 109H390Q410 109 419.5 119Q429 129 429 148ZM311 877H433V854L346 745H263Z" glyph-name="Uacute" horiz-adv-x="627" unicode="&#218;" /><glyph d="M429 148V697H559V143Q559 72 521 34Q483 -4 412 -4H215Q144 -4 106 34Q68 72 68 143V697H198V148Q198 129 208 119Q218 109 237 109H390Q410 109 419.5 119Q429 129 429 148ZM368 831V890H448V826Q448 781 422 757.5Q396 734 347 734H279Q230 734 204 757.5Q178 781 178 826V890H258V831Q258 817 265.5 810Q273 803 287 803H339Q353 803 360.5 810Q368 817 368 831Z" glyph-name="Ubreve" horiz-adv-x="627" unicode="&#364;" /><glyph d="M453 745H368L314 806L259 745H175L269 877H358ZM429 148V697H559V143Q559 72 521 34Q483 -4 412 -4H215Q144 -4 106 34Q68 72 68 143V697H198V148Q198 129 208 119Q218 109 237 109H390Q410 109 419.5 119Q429 129 429 148Z" glyph-name="Ucircumflex" horiz-adv-x="627" unicode="&#219;" /><glyph d="M429 148V697H559V143Q559 72 521 34Q483 -4 412 -4H215Q144 -4 106 34Q68 72 68 143V697H198V148Q198 129 208 119Q218 109 237 109H390Q410 109 419.5 119Q429 129 429 148ZM286 758H195V862H286ZM431 758H340V862H431Z" glyph-name="Udieresis" horiz-adv-x="627" unicode="&#220;" /><glyph d="M278 745 190 854V877H312L360 745ZM429 148V697H559V143Q559 72 521 34Q483 -4 412 -4H215Q144 -4 106 34Q68 72 68 143V697H198V148Q198 129 208 119Q218 109 237 109H390Q410 109 419.5 119Q429 129 429 148Z" glyph-name="Ugrave" horiz-adv-x="627" unicode="&#217;" /><glyph d="M429 148V697H559V143Q559 72 521 34Q483 -4 412 -4H215Q144 -4 106 34Q68 72 68 143V697H198V148Q198 129 208 119Q218 109 237 109H390Q410 109 419.5 119Q429 129 429 148ZM264 888H370V865L291 756H224ZM427 888H534V865L416 756H350Z" glyph-name="Uhungarumlaut" horiz-adv-x="627" unicode="&#368;" /><glyph d="M429 148V697H559V143Q559 72 521 34Q483 -4 412 -4H215Q144 -4 106 34Q68 72 68 143V697H198V148Q198 129 208 119Q218 109 237 109H390Q410 109 419.5 119Q429 129 429 148ZM439 765H187V849H439Z" glyph-name="Umacron" horiz-adv-x="627" unicode="&#362;" /><glyph d="M517 -123V-190H409Q365 -190 342 -172Q319 -154 319 -119V-96Q319 -77 328.5 -60Q338 -43 364 -22L385 -4H216Q145 -4 107 34Q69 72 69 143V697H198V148Q198 129 208 119Q218 109 237 109H391Q410 109 420 119Q430 129 430 148V697H559V143Q559 104 547 74.5Q535 45 510 23L420 -57Q408 -68 405 -73.5Q402 -79 402 -85V-102Q402 -113 408 -118Q414 -123 427 -123Z" glyph-name="Uogonek" horiz-adv-x="628" unicode="&#370;" /><glyph d="M285 939H332Q375 939 398 918.5Q421 898 421 859V817Q421 778 398 757Q375 736 332 736H285Q242 736 219.5 756.5Q197 777 197 817V859Q197 898 219.5 918.5Q242 939 285 939ZM328 877H289Q277 877 271 871Q265 865 265 853V821Q265 810 271 804Q277 798 289 798H328Q340 798 346 804Q352 810 352 821V853Q352 865 346 871Q340 877 328 877ZM429 148V697H559V143Q559 72 521 34Q483 -4 412 -4H215Q144 -4 106 34Q68 72 68 143V697H198V148Q198 129 208 119Q218 109 237 109H390Q410 109 419.5 119Q429 129 429 148Z" glyph-name="Uring" horiz-adv-x="627" unicode="&#366;" /><glyph d="M429 148V697H559V143Q559 72 521 34Q483 -4 412 -4H215Q144 -4 106 34Q68 72 68 143V697H198V148Q198 129 208 119Q218 109 237 109H390Q410 109 419.5 119Q429 129 429 148ZM384 822H393Q402 822 406.5 826.5Q411 831 411 840V873H481V817Q481 783 463.5 765Q446 747 413 747H384Q375 747 367 748.5Q359 750 332 761L274 788Q262 794 255.5 796Q249 798 243 798H234Q225 798 220.5 793.5Q216 789 216 780V747H146V804Q146 838 163 856Q180 874 213 874H245Q252 874 260 872.5Q268 871 295 860L352 833Q364 828 372 825Q380 822 384 822Z" glyph-name="Utilde" horiz-adv-x="627" unicode="&#360;" /><glyph d="M354 0H217L51 477Q46 491 43 506.5Q40 522 40 537V697H169V553Q169 538 170 528.5Q171 519 175 507L288 156L401 507Q405 519 406 528.5Q407 538 407 553V697H534V537Q534 524 531 510Q528 496 521 477Z" glyph-name="V" horiz-adv-x="572" unicode="V" /><glyph d="M633 553V697H757V537Q757 530 756.5 522.5Q756 515 747 477L615 0H486L400 308L315 0H185L53 477Q44 515 43.5 522.5Q43 530 43 537V697H167V553Q167 540 168 530Q169 520 172 507L255 179L336 507Q340 526 341 534.5Q342 543 342 553V697H459V548Q459 539 460.5 528Q462 517 465 507L546 179L628 507Q631 520 632 530Q633 540 633 553Z" glyph-name="W" horiz-adv-x="800" unicode="W" /><glyph d="M404 877H526V854L439 745H356ZM633 553V697H757V537Q757 530 756.5 522.5Q756 515 747 477L615 0H486L400 308L315 0H185L53 477Q44 515 43.5 522.5Q43 530 43 537V697H167V553Q167 540 168 530Q169 520 172 507L255 179L336 507Q340 526 341 534.5Q342 543 342 553V697H459V548Q459 539 460.5 528Q462 517 465 507L546 179L628 507Q631 520 632 530Q633 540 633 553Z" glyph-name="Wacute" horiz-adv-x="800" unicode="&#7810;" /><glyph d="M538 745H453L399 806L344 745H260L354 877H443ZM633 553V697H757V537Q757 530 756.5 522.5Q756 515 747 477L615 0H486L400 308L315 0H185L53 477Q44 515 43.5 522.5Q43 530 43 537V697H167V553Q167 540 168 530Q169 520 172 507L255 179L336 507Q340 526 341 534.5Q342 543 342 553V697H459V548Q459 539 460.5 528Q462 517 465 507L546 179L628 507Q631 520 632 530Q633 540 633 553Z" glyph-name="Wcircumflex" horiz-adv-x="800" unicode="&#372;" /><glyph d="M633 553V697H757V537Q757 530 756.5 522.5Q756 515 747 477L615 0H486L400 308L315 0H185L53 477Q44 515 43.5 522.5Q43 530 43 537V697H167V553Q167 540 168 530Q169 520 172 507L255 179L336 507Q340 526 341 534.5Q342 543 342 553V697H459V548Q459 539 460.5 528Q462 517 465 507L546 179L628 507Q631 520 632 530Q633 540 633 553ZM371 758H280V862H371ZM516 758H425V862H516Z" glyph-name="Wdieresis" horiz-adv-x="800" unicode="&#7812;" /><glyph d="M358 745 270 854V877H392L440 745ZM633 553V697H757V537Q757 530 756.5 522.5Q756 515 747 477L615 0H486L400 308L315 0H185L53 477Q44 515 43.5 522.5Q43 530 43 537V697H167V553Q167 540 168 530Q169 520 172 507L255 179L336 507Q340 526 341 534.5Q342 543 342 553V697H459V548Q459 539 460.5 528Q462 517 465 507L546 179L628 507Q631 520 632 530Q633 540 633 553Z" glyph-name="Wgrave" horiz-adv-x="800" unicode="&#7808;" /><glyph d="M167 110V0H42V132Q42 156 48.5 173.5Q55 191 70 208L204 354L65 504Q56 513 50 528.5Q44 544 44 562V697H174V592Q174 575 177.5 565Q181 555 191 544L296 433L393 542Q400 550 403.5 561.5Q407 573 407 591V697H531V565Q531 543 525 526Q519 509 505 494L373 348L512 199Q523 188 528.5 171.5Q534 155 534 132V0H405V110Q405 125 401.5 134.5Q398 144 387 155L281 270L181 159Q173 150 170 139Q167 128 167 110Z" glyph-name="X" horiz-adv-x="576" unicode="X" /><glyph d="M343 247V0H213V242L48 501Q41 510 36.5 527Q32 544 32 562V697H162V578Q162 560 164.5 549.5Q167 539 172 531L282 359L387 522Q393 532 396 543.5Q399 555 399 569V697H523V562Q523 544 518.5 527.5Q514 511 506 501Z" glyph-name="Y" horiz-adv-x="555" unicode="Y" /><glyph d="M343 247V0H213V242L48 501Q41 510 36.5 527Q32 544 32 562V697H162V578Q162 560 164.5 549.5Q167 539 172 531L282 359L387 522Q393 532 396 543.5Q399 555 399 569V697H523V562Q523 544 518.5 527.5Q514 511 506 501ZM283 877H405V854L318 745H235Z" glyph-name="Yacute" horiz-adv-x="555" unicode="&#221;" /><glyph d="M343 247V0H213V242L48 501Q41 510 36.5 527Q32 544 32 562V697H162V578Q162 560 164.5 549.5Q167 539 172 531L282 359L387 522Q393 532 396 543.5Q399 555 399 569V697H523V562Q523 544 518.5 527.5Q514 511 506 501ZM417 745H332L278 806L223 745H139L233 877H322Z" glyph-name="Ycircumflex" horiz-adv-x="555" unicode="&#374;" /><glyph d="M343 247V0H213V242L48 501Q41 510 36.5 527Q32 544 32 562V697H162V578Q162 560 164.5 549.5Q167 539 172 531L282 359L387 522Q393 532 396 543.5Q399 555 399 569V697H523V562Q523 544 518.5 527.5Q514 511 506 501ZM250 758H159V862H250ZM395 758H304V862H395Z" glyph-name="Ydieresis" horiz-adv-x="555" unicode="&#376;" /><glyph d="M517 110V0H27V112L355 587H46V697H507V585L178 110Z" glyph-name="Z" horiz-adv-x="547" unicode="Z" /><glyph d="M517 110V0H27V112L355 587H46V697H507V585L178 110ZM276 877H398V854L311 745H228Z" glyph-name="Zacute" horiz-adv-x="547" unicode="&#377;" /><glyph d="M317 756H228L134 888H218L272 827L326 888H411ZM517 110V0H27V112L355 587H46V697H507V585L178 110Z" glyph-name="Zcaron" horiz-adv-x="547" unicode="&#381;" /><glyph d="M329 759H216V887H329ZM517 110V0H27V112L355 587H46V697H507V585L178 110Z" glyph-name="Zdotaccent" horiz-adv-x="547" unicode="&#379;" /><glyph d="M335 45 302 23Q274 5 258.5 0.5Q243 -4 222 -4H166Q106 -4 73.5 25.5Q41 55 41 109V171Q41 225 70.5 254Q100 283 167 291L329 311V374Q329 392 319.5 401Q310 410 292 410H208Q190 410 180.5 401Q171 392 171 374V344H52V378Q52 442 87 475.5Q122 509 189 509H313Q379 509 414.5 474Q450 439 450 373V0H341ZM195 95H234Q245 95 254 98Q263 101 277 110L329 144V216L196 198Q176 195 168.5 187.5Q161 180 161 164V128Q161 110 169 102.5Q177 95 195 95Z" glyph-name="a" horiz-adv-x="506" unicode="a" /><glyph d="M335 45 302 23Q274 5 258.5 0.5Q243 -4 222 -4H166Q106 -4 73.5 25.5Q41 55 41 109V171Q41 225 70.5 254Q100 283 167 291L329 311V374Q329 392 319.5 401Q310 410 292 410H208Q190 410 180.5 401Q171 392 171 374V344H52V378Q52 442 87 475.5Q122 509 189 509H313Q379 509 414.5 474Q450 439 450 373V0H341ZM195 95H234Q245 95 254 98Q263 101 277 110L329 144V216L196 198Q176 195 168.5 187.5Q161 180 161 164V128Q161 110 169 102.5Q177 95 195 95ZM246 697H368V674L280 565H198Z" glyph-name="aacute" horiz-adv-x="506" unicode="&#225;" /><glyph d="M335 45 302 23Q274 5 258.5 0.5Q243 -4 222 -4H166Q106 -4 73.5 25.5Q41 55 41 109V171Q41 225 70.5 254Q100 283 167 291L329 311V374Q329 392 319.5 401Q310 410 292 410H208Q190 410 180.5 401Q171 392 171 374V344H52V378Q52 442 87 475.5Q122 509 189 509H313Q379 509 414.5 474Q450 439 450 373V0H341ZM195 95H234Q245 95 254 98Q263 101 277 110L329 144V216L196 198Q176 195 168.5 187.5Q161 180 161 164V128Q161 110 169 102.5Q177 95 195 95ZM302 651V710H383V646Q383 601 357 577.5Q331 554 282 554H213Q164 554 138 577.5Q112 601 112 646V710H192V651Q192 637 199.5 630Q207 623 222 623H273Q287 623 294.5 630Q302 637 302 651Z" glyph-name="abreve" horiz-adv-x="506" unicode="&#259;" /><glyph d="M335 45 302 23Q274 5 258.5 0.5Q243 -4 222 -4H166Q106 -4 73.5 25.5Q41 55 41 109V171Q41 225 70.5 254Q100 283 167 291L329 311V374Q329 392 319.5 401Q310 410 292 410H208Q190 410 180.5 401Q171 392 171 374V344H52V378Q52 442 87 475.5Q122 509 189 509H313Q379 509 414.5 474Q450 439 450 373V0H341ZM195 95H234Q245 95 254 98Q263 101 277 110L329 144V216L196 198Q176 195 168.5 187.5Q161 180 161 164V128Q161 110 169 102.5Q177 95 195 95ZM385 565H300L246 626L192 565H108L202 697H291Z" glyph-name="acircumflex" horiz-adv-x="506" unicode="&#226;" /><glyph d="M97 697H219V674L131 565H49Z" glyph-name="acute" horiz-adv-x="267" unicode="&#180;" /><glyph d="M95 877H217V854L130 745H47Z" glyph-name="acute.case" horiz-adv-x="265" /><glyph d="M335 45 302 23Q274 5 258.5 0.5Q243 -4 222 -4H166Q106 -4 73.5 25.5Q41 55 41 109V171Q41 225 70.5 254Q100 283 167 291L329 311V374Q329 392 319.5 401Q310 410 292 410H208Q190 410 180.5 401Q171 392 171 374V344H52V378Q52 442 87 475.5Q122 509 189 509H313Q379 509 414.5 474Q450 439 450 373V0H341ZM195 95H234Q245 95 254 98Q263 101 277 110L329 144V216L196 198Q176 195 168.5 187.5Q161 180 161 164V128Q161 110 169 102.5Q177 95 195 95ZM220 578H130V682H220ZM365 578H275V682H365Z" glyph-name="adieresis" horiz-adv-x="506" unicode="&#228;" /><glyph d="M594 -4H468Q425 -4 394 10Q363 24 347 52L302 23Q274 5 258.5 0.5Q243 -4 222 -4H166Q106 -4 73.5 25.5Q41 55 41 109V169Q41 224 71.5 253.5Q102 283 168 290L327 307V376Q327 394 318 403Q309 412 291 412H208Q189 412 180 403Q171 394 171 376V344H52V378Q52 442 87 475.5Q122 509 189 509H299Q328 509 350 501.5Q372 494 387 478Q403 493 426.5 501Q450 509 481 509H594Q661 509 696.5 473Q732 437 732 368V220H449V131Q449 113 458.5 103.5Q468 94 486 94H576Q594 94 603 103Q612 112 612 131V159H732V133Q732 67 696.5 31.5Q661 -4 594 -4ZM449 376V304H614V376Q614 395 605 404Q596 413 577 413H486Q468 413 458.5 403.5Q449 394 449 376ZM195 93H234Q246 93 255.5 96Q265 99 277 107L327 140V216L196 201Q176 198 168.5 190.5Q161 183 161 167V125Q161 108 169 100.5Q177 93 195 93Z" glyph-name="ae" horiz-adv-x="779" unicode="&#230;" /><glyph d="M335 45 302 23Q274 5 258.5 0.5Q243 -4 222 -4H166Q106 -4 73.5 25.5Q41 55 41 109V171Q41 225 70.5 254Q100 283 167 291L329 311V374Q329 392 319.5 401Q310 410 292 410H208Q190 410 180.5 401Q171 392 171 374V344H52V378Q52 442 87 475.5Q122 509 189 509H313Q379 509 414.5 474Q450 439 450 373V0H341ZM195 95H234Q245 95 254 98Q263 101 277 110L329 144V216L196 198Q176 195 168.5 187.5Q161 180 161 164V128Q161 110 169 102.5Q177 95 195 95ZM211 565 124 674V697H246L294 565Z" glyph-name="agrave" horiz-adv-x="506" unicode="&#224;" /><glyph d="M335 45 302 23Q274 5 258.5 0.5Q243 -4 222 -4H166Q106 -4 73.5 25.5Q41 55 41 109V171Q41 225 70.5 254Q100 283 167 291L329 311V374Q329 392 319.5 401Q310 410 292 410H208Q190 410 180.5 401Q171 392 171 374V344H52V378Q52 442 87 475.5Q122 509 189 509H313Q379 509 414.5 474Q450 439 450 373V0H341ZM195 95H234Q245 95 254 98Q263 101 277 110L329 144V216L196 198Q176 195 168.5 187.5Q161 180 161 164V128Q161 110 169 102.5Q177 95 195 95ZM373 586H121V670H373Z" glyph-name="amacron" horiz-adv-x="506" unicode="&#257;" /><glyph d="M592 274 516 153 524 145Q544 123 554 117Q564 111 576 111H626V0H547Q520 0 496.5 11.5Q473 23 449 48Q429 21 400 8.5Q371 -4 331 -4H191Q119 -4 81.5 30.5Q44 65 44 131V246Q44 291 66 321.5Q88 352 141 374L159 381L154 387Q135 408 123.5 437.5Q112 467 112 497V566Q112 631 150 666Q188 701 259 701H358Q429 701 466.5 666.5Q504 632 504 566V488H382V559Q382 579 372.5 588.5Q363 598 344 598H273Q254 598 244.5 588.5Q235 579 235 559V505Q235 490 239.5 477.5Q244 465 254 453L440 240L478 301Q485 312 487.5 322Q490 332 490 352V387H609V336Q609 320 604 302Q599 284 592 274ZM205 99H319Q336 99 348 105.5Q360 112 369 127L374 135L230 300L198 287Q179 280 172.5 270.5Q166 261 166 244V138Q166 119 176 109Q186 99 205 99Z" glyph-name="ampersand" horiz-adv-x="658" unicode="&amp;" /><glyph d="M335 45 302 23Q274 5 258.5 0.5Q243 -4 222 -4H166Q106 -4 73.5 25.5Q41 55 41 109V171Q41 225 70.5 254Q100 283 167 291L329 311V374Q329 392 319.5 401Q310 410 292 410H208Q190 410 180.5 401Q171 392 171 374V344H52V378Q52 442 87 475.5Q122 509 189 509H313Q379 509 414.5 474Q450 439 450 373V0H436L353 -57Q343 -63 339 -69.5Q335 -76 335 -85V-102Q335 -113 341 -118Q347 -123 360 -123H450V-190H342Q298 -190 275 -172Q252 -154 252 -119V-96Q252 -75 261.5 -58Q271 -41 297 -24L340 5ZM195 95H234Q245 95 254 98Q263 101 277 110L329 144V216L196 198Q176 195 168.5 187.5Q161 180 161 164V128Q161 110 169 102.5Q177 95 195 95Z" glyph-name="aogonek" horiz-adv-x="506" unicode="&#261;" /><glyph d="M345 452H378Q384 452 388 454Q392 456 400 464L436 503L491 443L447 388Q433 370 420.5 363.5Q408 357 391 357H347Q339 357 331.5 359Q324 361 295 374L227 405Q214 411 205 414Q196 417 192 417H162Q154 417 149 414.5Q144 412 136 403L102 365L46 424L89 478Q105 497 118 504Q131 511 150 511H192Q204 511 216 507.5Q228 504 247 495L312 464Q331 455 336 453.5Q341 452 345 452ZM343 272H377Q383 272 387 274Q391 276 399 284L434 323L490 263L447 209Q433 191 420 184.5Q407 178 389 178H346Q338 178 330 179.5Q322 181 293 194L227 225Q213 232 204 235Q195 238 192 238H161Q154 238 149 235.5Q144 233 135 224L100 185L44 245L88 299Q105 319 118 325.5Q131 332 148 332H190Q198 332 205.5 330.5Q213 329 245 315L311 284Q330 274 334.5 273Q339 272 343 272Z" glyph-name="approxequal" horiz-adv-x="536" unicode="&#8776;" /><glyph d="M335 45 302 23Q274 5 258.5 0.5Q243 -4 222 -4H166Q106 -4 73.5 25.5Q41 55 41 109V171Q41 225 70.5 254Q100 283 167 291L329 311V374Q329 392 319.5 401Q310 410 292 410H208Q190 410 180.5 401Q171 392 171 374V344H52V378Q52 442 87 475.5Q122 509 189 509H313Q379 509 414.5 474Q450 439 450 373V0H341ZM195 95H234Q245 95 254 98Q263 101 277 110L329 144V216L196 198Q176 195 168.5 187.5Q161 180 161 164V128Q161 110 169 102.5Q177 95 195 95ZM225 748H272Q315 748 338 727.5Q361 707 361 668V626Q361 587 338 566Q315 545 272 545H225Q182 545 159.5 565.5Q137 586 137 626V668Q137 707 159.5 727.5Q182 748 225 748ZM268 686H229Q217 686 211 680Q205 674 205 662V630Q205 619 211 613Q217 607 229 607H268Q280 607 286 613Q292 619 292 630V662Q292 674 286 680Q280 686 268 686Z" glyph-name="aring" horiz-adv-x="506" unicode="&#229;" /><glyph d="M489 298H378L260 570L141 298H29L212 698H306Z" glyph-name="asciicircum" horiz-adv-x="519" unicode="^" /><glyph d="M346 370H390Q399 370 404.5 372.5Q410 375 419 384L465 429L536 363L479 300Q460 279 444 272Q428 265 406 265H348Q338 265 327.5 267Q317 269 280 284L193 320Q174 328 163.5 331Q153 334 146 334H106Q95 334 88 331Q81 328 71 318L25 272L-46 339L10 402Q29 423 46.5 431Q64 439 90 439H144Q156 439 168.5 436.5Q181 434 216 420L303 384Q303 384 319 377Q335 370 346 370Z" glyph-name="asciitilde" horiz-adv-x="491" unicode="~" /><glyph d="M317 514 295 504 317 495Q331 490 343 484Q355 478 368 471L412 447L371 375L327 399Q319 404 310.5 409Q302 414 281 429L258 445L261 418Q264 384 264.5 376.5Q265 369 265 362V312H182V362Q182 369 182.5 376.5Q183 384 186 418L189 445L166 429Q145 414 136.5 409Q128 404 120 399L76 375L35 447L79 471Q86 475 98.5 481Q111 487 130 495L152 504L130 514Q102 525 94.5 529Q87 533 79 537L35 562L76 633L120 609Q127 605 134 601Q141 597 166 579L189 563L186 591Q183 625 182.5 632.5Q182 640 182 647V697H265V647Q265 640 264.5 632.5Q264 625 261 591L257 563L281 579Q306 597 313 601Q320 605 327 609L371 633L412 562L368 537Q360 533 352.5 529Q345 525 317 514Z" glyph-name="asterisk" horiz-adv-x="447" unicode="*" /><glyph d="M614 -84H241Q153 -84 105.5 -36Q58 12 58 100V517Q58 605 105.5 653Q153 701 241 701H613Q701 701 748.5 653Q796 605 796 517V254Q796 177 759.5 137Q723 97 653 97H607Q565 97 535 111Q505 125 490 151L432 115Q414 104 400.5 100.5Q387 97 368 97H325Q275 97 248.5 128Q222 159 232 208L274 409Q285 465 311.5 487Q338 509 389 509H444Q462 509 473.5 506Q485 503 502 491L531 470L543 505H634L574 225Q570 206 580.5 195Q591 184 612 184H645Q668 184 679 196.5Q690 209 690 236V534Q690 574 670.5 593.5Q651 613 611 613H243Q203 613 183.5 593.5Q164 574 164 534V83Q164 43 183.5 23.5Q203 4 243 4H614ZM364 183H383Q389 183 393.5 184Q398 185 403 187Q406 188 411.5 191.5Q417 195 419 196L476 230Q477 234 477.5 237.5Q478 241 479 245L509 388L476 411Q462 421 455.5 422.5Q449 424 439 424H404Q390 424 381.5 416.5Q373 409 370 394L332 219Q328 200 335.5 191.5Q343 183 364 183Z" glyph-name="at" horiz-adv-x="841" unicode="@" /><glyph d="M335 45 302 23Q274 5 258.5 0.5Q243 -4 222 -4H166Q106 -4 73.5 25.5Q41 55 41 109V171Q41 225 70.5 254Q100 283 167 291L329 311V374Q329 392 319.5 401Q310 410 292 410H208Q190 410 180.5 401Q171 392 171 374V344H52V378Q52 442 87 475.5Q122 509 189 509H313Q379 509 414.5 474Q450 439 450 373V0H341ZM195 95H234Q245 95 254 98Q263 101 277 110L329 144V216L196 198Q176 195 168.5 187.5Q161 180 161 164V128Q161 110 169 102.5Q177 95 195 95ZM318 646H327Q336 646 340.5 650.5Q345 655 345 664V697H415V641Q415 607 397.5 589Q380 571 347 571H318Q309 571 301 572.5Q293 574 266 585L208 612Q196 618 189.5 620Q183 622 177 622H168Q159 622 154.5 617.5Q150 613 150 604V571H79V627Q79 661 96.5 679.5Q114 698 147 698H179Q187 698 195.5 696Q204 694 228 684L286 657Q298 652 306 649Q314 646 318 646Z" glyph-name="atilde" horiz-adv-x="506" unicode="&#227;" /><glyph d="M356 -4H287Q265 -4 249 0.5Q233 5 213 18L175 43L169 0H58V697H181V466L213 487Q233 500 249 504.5Q265 509 287 509H356Q416 509 448 477.5Q480 446 480 386V119Q480 60 448 28Q416 -4 356 -4ZM285 102H321Q339 102 348 111Q357 120 357 138V367Q357 385 348 394Q339 403 321 403H285Q274 403 265 400.5Q256 398 240 388L181 350V156L240 117Q255 107 263.5 104.5Q272 102 285 102Z" glyph-name="b" horiz-adv-x="532" unicode="b" /><glyph d="M140 770 439 -73H321L20 770Z" glyph-name="backslash" horiz-adv-x="460" unicode="\" /><glyph d="M195 -190H82V770H195Z" glyph-name="bar" horiz-adv-x="277" unicode="|" /><glyph d="M157 295Q189 283 205.5 256.5Q222 230 222 190V-40Q222 -60 231 -69.5Q240 -79 259 -79H295V-190H236Q166 -190 129 -152Q92 -114 92 -43V206Q92 220 84 227.5Q76 235 61 235H33V343H61Q77 343 84.5 351.5Q92 360 92 377V623Q92 694 129 732Q166 770 236 770H293V659H259Q240 659 231 649.5Q222 640 222 620V399Q222 358 205.5 332Q189 306 157 295Z" glyph-name="braceleft" horiz-adv-x="333" unicode="{" /><glyph d="M111 -40V190Q111 230 127.5 256.5Q144 283 176 295Q144 306 127.5 332Q111 358 111 399V620Q111 640 102 649.5Q93 659 74 659H40V770H97Q167 770 204 732Q241 694 241 623V377Q241 360 248.5 351.5Q256 343 272 343H300V235H272Q257 235 249 227.5Q241 220 241 206V-43Q241 -114 204 -152Q167 -190 97 -190H38V-79H74Q93 -79 102 -69.5Q111 -60 111 -40Z" glyph-name="braceright" horiz-adv-x="333" unicode="}" /><glyph d="M211 -79H279V-190H82V770H277V659H211Z" glyph-name="bracketleft" horiz-adv-x="321" unicode="[" /><glyph d="M239 -190H41V-79H109V659H43V770H239Z" glyph-name="bracketright" horiz-adv-x="321" unicode="]" /><glyph d="M235 651V710H316V646Q316 601 290 577.5Q264 554 215 554H146Q97 554 71 577.5Q45 601 45 646V710H125V651Q125 637 132.5 630Q140 623 155 623H206Q220 623 227.5 630Q235 637 235 651Z" glyph-name="breve" horiz-adv-x="362" unicode="&#728;" /><glyph d="M233 831V890H313V826Q313 781 287 757.5Q261 734 212 734H144Q95 734 69 757.5Q43 781 43 826V890H123V831Q123 817 130.5 810Q138 803 152 803H204Q218 803 225.5 810Q233 817 233 831Z" glyph-name="breve.case" horiz-adv-x="356" /><glyph d="M158 770V387H62V770ZM62 -190V194H158V-190Z" glyph-name="brokenbar" horiz-adv-x="220" unicode="&#166;" /><glyph d="M276.2734 174H79.1301V391.2407H276.2734Z" glyph-name="bullet" horiz-adv-x="356" unicode="&#8226;" /><glyph d="M316 -4H190Q122 -4 86 32Q50 68 50 137V368Q50 437 86 473Q122 509 190 509H316Q383 509 418 472.5Q453 436 453 368V330H333V366Q333 385 324 394Q315 403 296 403H210Q191 403 182 394Q173 385 173 366V139Q173 121 182.5 111.5Q192 102 210 102H296Q314 102 323.5 111.5Q333 121 333 139V182H453V137Q453 69 418 32.5Q383 -4 316 -4Z" glyph-name="c" horiz-adv-x="493" unicode="c" /><glyph d="M255 697H377V674L289 565H207ZM316 -4H190Q122 -4 86 32Q50 68 50 137V368Q50 437 86 473Q122 509 190 509H316Q383 509 418 472.5Q453 436 453 368V330H333V366Q333 385 324 394Q315 403 296 403H210Q191 403 182 394Q173 385 173 366V139Q173 121 182.5 111.5Q192 102 210 102H296Q314 102 323.5 111.5Q333 121 333 139V182H453V137Q453 69 418 32.5Q383 -4 316 -4Z" glyph-name="cacute" horiz-adv-x="493" unicode="&#263;" /><glyph d="M232 565H143L49 697H133L187 636L241 697H326Z" glyph-name="caron" horiz-adv-x="375" unicode="&#711;" /><glyph d="M219 745H130L36 877H120L175 816L229 877H314Z" glyph-name="caron.case" horiz-adv-x="349" /><glyph d="M98 697H211V658L141 539H73Z" glyph-name="caron.salt" horiz-adv-x="289" /><glyph d="M295 565H206L112 697H196L250 636L304 697H389ZM316 -4H190Q122 -4 86 32Q50 68 50 137V368Q50 437 86 473Q122 509 190 509H316Q383 509 418 472.5Q453 436 453 368V330H333V366Q333 385 324 394Q315 403 296 403H210Q191 403 182 394Q173 385 173 366V139Q173 121 182.5 111.5Q192 102 210 102H296Q314 102 323.5 111.5Q333 121 333 139V182H453V137Q453 69 418 32.5Q383 -4 316 -4Z" glyph-name="ccaron" horiz-adv-x="493" unicode="&#269;" /><glyph d="M198 -4H190Q122 -4 86 32Q50 68 50 137V368Q50 437 86 473Q122 509 190 509H316Q383 509 418 472.5Q453 436 453 368V330H333V366Q333 385 324 394Q315 403 296 403H210Q191 403 182 394Q173 385 173 366V139Q173 121 182.5 111.5Q192 102 210 102H296Q314 102 323.5 111.5Q333 121 333 139V182H453V137Q453 69 418 32.5Q383 -4 316 -4H274L262 -38H287Q327 -38 347 -53.5Q367 -69 367 -100V-134Q367 -165 347 -180.5Q327 -196 288 -196H163V-134H277Q285 -134 288.5 -131Q292 -128 292 -121V-113Q292 -106 288.5 -102.5Q285 -99 277 -99H199Q187 -99 181 -94Q175 -89 175 -78V-68Q175 -64 176 -59.5Q177 -55 180 -48Z" glyph-name="ccedilla" horiz-adv-x="493" unicode="&#231;" /><glyph d="M390 565H305L251 626L197 565H113L207 697H296ZM316 -4H190Q122 -4 86 32Q50 68 50 137V368Q50 437 86 473Q122 509 190 509H316Q383 509 418 472.5Q453 436 453 368V330H333V366Q333 385 324 394Q315 403 296 403H210Q191 403 182 394Q173 385 173 366V139Q173 121 182.5 111.5Q192 102 210 102H296Q314 102 323.5 111.5Q333 121 333 139V182H453V137Q453 69 418 32.5Q383 -4 316 -4Z" glyph-name="ccircumflex" horiz-adv-x="493" unicode="&#265;" /><glyph d="M316 -4H190Q122 -4 86 32Q50 68 50 137V368Q50 437 86 473Q122 509 190 509H316Q383 509 418 472.5Q453 436 453 368V330H333V366Q333 385 324 394Q315 403 296 403H210Q191 403 182 394Q173 385 173 366V139Q173 121 182.5 111.5Q192 102 210 102H296Q314 102 323.5 111.5Q333 121 333 139V182H453V137Q453 69 418 32.5Q383 -4 316 -4ZM306 576H193V704H306Z" glyph-name="cdotaccent" horiz-adv-x="493" unicode="&#267;" /><glyph d="M172 66 208 41 180 -38H205Q245 -38 265 -53.5Q285 -69 285 -100V-134Q285 -165 265 -180.5Q245 -196 206 -196H81V-134H195Q203 -134 206.5 -131Q210 -128 210 -121V-113Q210 -106 206.5 -102.5Q203 -99 195 -99H117Q105 -99 99 -94Q93 -89 93 -78V-68Q93 -64 94 -59.5Q95 -55 98 -48L144 66Z" glyph-name="cedilla" horiz-adv-x="366" unicode="&#184;" /><glyph d="M324 92H312V-4H199V92H191Q122 92 86 128Q50 164 50 233V464Q50 533 86 569Q122 605 191 605H199V701H312V605H324Q391 605 426 568.5Q461 532 461 464V426H341V462Q341 481 332 490Q323 499 305 499H210Q192 499 182.5 489.5Q173 480 173 462V235Q173 217 182.5 207.5Q192 198 210 198H305Q323 198 332 207Q341 216 341 235V278H461V233Q461 165 426 128.5Q391 92 324 92Z" glyph-name="cent" horiz-adv-x="504" unicode="&#162;" /><glyph d="M204 48H200V-2H120V48H117Q78 48 56.5 70Q35 92 35 132V237Q35 277 56.5 299.5Q78 322 117 322H120V372H200V322H204Q243 322 264 300Q285 278 285 237V215H199V233Q199 241 195 245Q191 249 184 249H140Q133 249 128.5 245Q124 241 124 233V137Q124 130 128.5 125.5Q133 121 140 121H184Q191 121 195 125Q199 129 199 137V155H285V132Q285 92 264 70Q243 48 204 48Z" glyph-name="cent.denominator" horiz-adv-x="316" unicode="&#63017;" /><glyph d="M204 376H200V326H120V376H117Q78 376 56.5 398Q35 420 35 460V565Q35 605 56.5 627.5Q78 650 117 650H120V700H200V650H204Q243 650 264 628Q285 606 285 565V543H199V561Q199 569 195 573Q191 577 184 577H140Q133 577 128.5 573Q124 569 124 561V465Q124 458 128.5 453.5Q133 449 140 449H184Q191 449 195 453Q199 457 199 465V483H285V460Q285 420 264 398Q243 376 204 376Z" glyph-name="cent.numerator" horiz-adv-x="316" unicode="&#63022;" /><glyph d="M326 565H241L187 626L133 565H49L143 697H232Z" glyph-name="circumflex" horiz-adv-x="375" unicode="&#710;" /><glyph d="M314 745H229L175 806L120 745H36L130 877H219Z" glyph-name="circumflex.case" horiz-adv-x="349" /><glyph d="M189 0H58V146H189ZM189 359H58V505H189Z" glyph-name="colon" horiz-adv-x="247" unicode=":" /><glyph d="M68 146H201V103L106 -109H29Z" glyph-name="comma" horiz-adv-x="250" unicode="," /><glyph d="M53 98H148V67L84 -65H30Z" glyph-name="comma.denominator" horiz-adv-x="187" unicode="&#63071;" /><glyph d="M53 426H148V395L84 263H30Z" glyph-name="comma.numerator" horiz-adv-x="187" unicode="&#63083;" /><glyph d="M94 146H218V106L136 -54H63Z" glyph-name="commaaccent" horiz-adv-x="277" unicode="&#63171;" /><glyph d="M104 146H229V106L153 -11H80Z" glyph-name="commaaccent.salt" horiz-adv-x="297" /><glyph d="M56 183V514Q56 604 104.5 652.5Q153 701 243 701H568Q658 701 706.5 652.5Q755 604 755 514V183Q755 93 706.5 44.5Q658 -4 568 -4H243Q153 -4 104.5 44.5Q56 93 56 183ZM567 629H244Q190 629 164 603.5Q138 578 138 524V173Q138 119 164 93.5Q190 68 244 68H567Q622 68 648 93.5Q674 119 674 173V524Q674 578 648 603.5Q622 629 567 629ZM459 128H355Q290 128 256 162Q222 196 222 261V437Q222 501 256 535Q290 569 355 569H459Q522 569 555 535Q588 501 588 438V400H471V434Q471 450 463 458Q455 466 439 466H374Q358 466 350 458Q342 450 342 434V263Q342 247 350 239.5Q358 232 374 232H439Q455 232 463 239.5Q471 247 471 263V303H588V260Q588 196 555 162Q522 128 459 128Z" glyph-name="copyright" horiz-adv-x="812" unicode="&#169;" /><glyph d="M585 144 516 75 415 175Q406 172 395.5 170.5Q385 169 372 169H249Q239 169 228.5 170Q218 171 207 174L109 75L40 144L130 234Q124 247 121 264Q118 281 118 300V398Q118 417 121 433Q124 449 130 462L40 553L109 621L207 524Q217 526 227.5 527.5Q238 529 249 529H372Q384 529 395 527.5Q406 526 416 523L516 621L585 553L492 460Q498 446 500.5 430.5Q503 415 503 398V300Q503 283 500 267Q497 251 492 238ZM258 257H363Q380 257 389 266Q398 275 398 292V407Q398 424 389 433Q380 442 363 442H258Q241 442 232.5 433Q224 424 224 407V292Q224 275 232.5 266Q241 257 258 257Z" glyph-name="currency" horiz-adv-x="625" unicode="&#164;" /><glyph d="M357 43 318 18Q296 4 280.5 0Q265 -4 245 -4H175Q115 -4 83.5 27.5Q52 59 52 119V386Q52 446 83.5 477.5Q115 509 175 509H245Q267 509 282.5 504.5Q298 500 318 487L350 466V697H473V0H362ZM211 102H247Q260 102 268 104.5Q276 107 292 117L350 156V350L292 388Q276 398 268 400.5Q260 403 247 403H211Q193 403 184 394Q175 385 175 367V138Q175 120 184 111Q193 102 211 102Z" glyph-name="d" horiz-adv-x="532" unicode="d" /><glyph d="M278 364V330L259 0H162L143 330V364L155 452H27V546H151L143 645V697H278V645L269 546H394V452H265Z" glyph-name="dagger" horiz-adv-x="420" unicode="&#8224;" /><glyph d="M287 151 295 52V0H160V52L169 151H44V245H173L160 340V361L173 452H44V546H169L160 645V697H295V645L287 546H411V452H283L295 361V340L283 245H411V151Z" glyph-name="daggerdbl" horiz-adv-x="457" unicode="&#8225;" /><glyph d="M530 697H643V658L573 539H505ZM357 43 318 18Q296 4 280.5 0Q265 -4 245 -4H175Q115 -4 83.5 27.5Q52 59 52 119V386Q52 446 83.5 477.5Q115 509 175 509H245Q267 509 282.5 504.5Q298 500 318 487L350 466V697H473V0H362ZM211 102H247Q260 102 268 104.5Q276 107 292 117L350 156V350L292 388Q276 398 268 400.5Q260 403 247 403H211Q193 403 184 394Q175 385 175 367V138Q175 120 184 111Q193 102 211 102Z" glyph-name="dcaron" horiz-adv-x="533" unicode="&#271;" /><glyph d="M350 554H265V630H350V697H473V630H528V554H473V0H362L357 43L318 18Q296 4 280.5 0Q265 -4 245 -4H175Q115 -4 83.5 27.5Q52 59 52 119V386Q52 446 83.5 477.5Q115 509 175 509H245Q267 509 282.5 504.5Q298 500 318 487L350 466ZM211 102H247Q260 102 268 104.5Q276 107 292 117L350 156V350L292 388Q276 398 268 400.5Q260 403 247 403H211Q193 403 184 394Q175 385 175 367V138Q175 120 184 111Q193 102 211 102Z" glyph-name="dcroat" horiz-adv-x="533" unicode="&#273;" /><glyph d="M267 379H152Q102 379 75 406Q48 433 48 483V597Q48 647 75 674Q102 701 152 701H267Q317 701 344.5 674Q372 647 372 597V483Q372 433 344.5 406Q317 379 267 379ZM172 460H248Q261 460 268 467Q275 474 275 488V592Q275 606 268.5 613Q262 620 248 620H172Q158 620 151.5 613Q145 606 145 592V488Q145 474 151.5 467Q158 460 172 460Z" glyph-name="degree" horiz-adv-x="420" unicode="&#176;" /><glyph d="M148 578H58V682H148ZM293 578H203V682H293Z" glyph-name="dieresis" horiz-adv-x="352" unicode="&#168;" /><glyph d="M135 758H44V862H135ZM280 758H189V862H280Z" glyph-name="dieresis.case" horiz-adv-x="324" /><glyph d="M62 297V400H429V297ZM297 107H193V225H297ZM297 472H193V590H297Z" glyph-name="divide" horiz-adv-x="491" unicode="&#247;" /><glyph d="M367 -4H341V-110H228V-4H193Q124 -4 86.5 32.5Q49 69 49 138V203H177V140Q177 123 187 114Q197 105 217 105H347Q366 105 376 114Q386 123 386 140V244Q386 258 379 266Q372 274 357 278L138 336Q100 346 77.5 376Q55 406 55 450V559Q55 628 93 664.5Q131 701 203 701H228V807H341V701H363Q433 701 470 664.5Q507 628 507 559V488H379V557Q379 574 369 583Q359 592 340 592H223Q203 592 193 583Q183 574 183 557V475Q183 458 189 450Q195 442 211 438L422 383Q468 371 491.5 343.5Q515 316 515 273V138Q515 69 477 32.5Q439 -4 367 -4Z" glyph-name="dollar" horiz-adv-x="566" unicode="$" /><glyph d="M212 -2H206V-58H126V-2H121Q78 -2 54.5 21Q31 44 31 86V111H122V92Q122 84 127 79.5Q132 75 141 75H192Q201 75 206 79.5Q211 84 211 92V118Q211 126 207 130.5Q203 135 196 137L90 165Q66 171 50 191.5Q34 212 34 238V284Q34 326 57 349Q80 372 122 372H126V428H206V372H210Q252 372 275 349Q298 326 298 284V255H207V277Q207 285 202 289.5Q197 294 188 294H144Q135 294 130 289.5Q125 285 125 277V256Q125 248 128.5 243Q132 238 140 236L245 210Q273 203 287.5 183.5Q302 164 302 133V86Q302 44 278.5 21Q255 -2 212 -2Z" glyph-name="dollar.denominator" horiz-adv-x="334" unicode="&#63018;" /><glyph d="M212 326H206V270H126V326H121Q78 326 54.5 349Q31 372 31 414V439H122V420Q122 412 127 407.5Q132 403 141 403H192Q201 403 206 407.5Q211 412 211 420V446Q211 454 207 458.5Q203 463 196 465L90 493Q66 499 50 519.5Q34 540 34 566V612Q34 654 57 677Q80 700 122 700H126V756H206V700H210Q252 700 275 677Q298 654 298 612V583H207V605Q207 613 202 617.5Q197 622 188 622H144Q135 622 130 617.5Q125 613 125 605V584Q125 576 128.5 571Q132 566 140 564L245 538Q273 531 287.5 511.5Q302 492 302 461V414Q302 372 278.5 349Q255 326 212 326Z" glyph-name="dollar.numerator" horiz-adv-x="334" unicode="&#63023;" /><glyph d="M178 576H65V704H178Z" glyph-name="dotaccent" horiz-adv-x="242" unicode="&#729;" /><glyph d="M173 759H60V887H173Z" glyph-name="dotaccent.case" horiz-adv-x="233" /><glyph d="M181 0H58V505H181Z" glyph-name="dotlessi" horiz-adv-x="239" unicode="&#305;" /><glyph d="M455 161V133Q455 67 419.5 31.5Q384 -4 317 -4H190Q122 -4 86 32Q50 68 50 137V368Q50 437 86 473Q122 509 190 509H317Q384 509 419.5 473Q455 437 455 368V218H172V131Q172 112 181 103Q190 94 209 94H298Q316 94 325.5 103.5Q335 113 335 131V161ZM172 374V311H336V374Q336 393 327 402Q318 411 300 411H209Q190 411 181 402Q172 393 172 374Z" glyph-name="e" horiz-adv-x="501" unicode="e" /><glyph d="M253 697H375V674L287 565H205ZM455 161V133Q455 67 419.5 31.5Q384 -4 317 -4H190Q122 -4 86 32Q50 68 50 137V368Q50 437 86 473Q122 509 190 509H317Q384 509 419.5 473Q455 437 455 368V218H172V131Q172 112 181 103Q190 94 209 94H298Q316 94 325.5 103.5Q335 113 335 131V161ZM172 374V311H336V374Q336 393 327 402Q318 411 300 411H209Q190 411 181 402Q172 393 172 374Z" glyph-name="eacute" horiz-adv-x="501" unicode="&#233;" /><glyph d="M455 161V133Q455 67 419.5 31.5Q384 -4 317 -4H190Q122 -4 86 32Q50 68 50 137V368Q50 437 86 473Q122 509 190 509H317Q384 509 419.5 473Q455 437 455 368V218H172V131Q172 112 181 103Q190 94 209 94H298Q316 94 325.5 103.5Q335 113 335 131V161ZM172 374V311H336V374Q336 393 327 402Q318 411 300 411H209Q190 411 181 402Q172 393 172 374ZM306 651V710H387V646Q387 601 361 577.5Q335 554 286 554H217Q168 554 142 577.5Q116 601 116 646V710H196V651Q196 637 203.5 630Q211 623 226 623H277Q291 623 298.5 630Q306 637 306 651Z" glyph-name="ebreve" horiz-adv-x="501" unicode="&#277;" /><glyph d="M296 565H207L113 697H197L251 636L305 697H390ZM455 161V133Q455 67 419.5 31.5Q384 -4 317 -4H190Q122 -4 86 32Q50 68 50 137V368Q50 437 86 473Q122 509 190 509H317Q384 509 419.5 473Q455 437 455 368V218H172V131Q172 112 181 103Q190 94 209 94H298Q316 94 325.5 103.5Q335 113 335 131V161ZM172 374V311H336V374Q336 393 327 402Q318 411 300 411H209Q190 411 181 402Q172 393 172 374Z" glyph-name="ecaron" horiz-adv-x="501" unicode="&#283;" /><glyph d="M391 565H306L252 626L198 565H114L208 697H297ZM455 161V133Q455 67 419.5 31.5Q384 -4 317 -4H190Q122 -4 86 32Q50 68 50 137V368Q50 437 86 473Q122 509 190 509H317Q384 509 419.5 473Q455 437 455 368V218H172V131Q172 112 181 103Q190 94 209 94H298Q316 94 325.5 103.5Q335 113 335 131V161ZM172 374V311H336V374Q336 393 327 402Q318 411 300 411H209Q190 411 181 402Q172 393 172 374Z" glyph-name="ecircumflex" horiz-adv-x="501" unicode="&#234;" /><glyph d="M224 578H134V682H224ZM369 578H279V682H369ZM455 161V133Q455 67 419.5 31.5Q384 -4 317 -4H190Q122 -4 86 32Q50 68 50 137V368Q50 437 86 473Q122 509 190 509H317Q384 509 419.5 473Q455 437 455 368V218H172V131Q172 112 181 103Q190 94 209 94H298Q316 94 325.5 103.5Q335 113 335 131V161ZM172 374V311H336V374Q336 393 327 402Q318 411 300 411H209Q190 411 181 402Q172 393 172 374Z" glyph-name="edieresis" horiz-adv-x="501" unicode="&#235;" /><glyph d="M455 161V133Q455 67 419.5 31.5Q384 -4 317 -4H190Q122 -4 86 32Q50 68 50 137V368Q50 437 86 473Q122 509 190 509H317Q384 509 419.5 473Q455 437 455 368V218H172V131Q172 112 181 103Q190 94 209 94H298Q316 94 325.5 103.5Q335 113 335 131V161ZM172 374V311H336V374Q336 393 327 402Q318 411 300 411H209Q190 411 181 402Q172 393 172 374ZM309 576H196V704H309Z" glyph-name="edotaccent" horiz-adv-x="501" unicode="&#279;" /><glyph d="M455 161V133Q455 67 419.5 31.5Q384 -4 317 -4H190Q122 -4 86 32Q50 68 50 137V368Q50 437 86 473Q122 509 190 509H317Q384 509 419.5 473Q455 437 455 368V218H172V131Q172 112 181 103Q190 94 209 94H298Q316 94 325.5 103.5Q335 113 335 131V161ZM172 374V311H336V374Q336 393 327 402Q318 411 300 411H209Q190 411 181 402Q172 393 172 374ZM217 565 130 674V697H252L300 565Z" glyph-name="egrave" horiz-adv-x="501" unicode="&#232;" /><glyph d="M369 -4H204Q133 -4 95 33.5Q57 71 57 141V253Q57 297 75.5 325.5Q94 354 130 366Q100 379 84.5 406Q69 433 69 475V556Q69 626 107 663.5Q145 701 216 701H356Q427 701 465 663.5Q503 626 503 556V475Q503 433 488 406Q473 379 442 366Q479 354 497.5 325.5Q516 297 516 253V141Q516 71 478 33.5Q440 -4 369 -4ZM336 592H236Q217 592 207 582.5Q197 573 197 553V450Q197 431 207 421.5Q217 412 236 412H336Q355 412 365 421.5Q375 431 375 450V553Q375 573 365.5 582.5Q356 592 336 592ZM349 306H224Q205 306 195 296Q185 286 185 267V143Q185 124 195 114Q205 104 224 104H349Q368 104 378 114Q388 124 388 143V267Q388 286 378 296Q368 306 349 306Z" glyph-name="eight" horiz-adv-x="572" unicode="8" /><glyph d="M229 -2H120Q80 -2 59 19Q38 40 38 79V137Q38 160 48 174.5Q58 189 78 194Q63 201 55.5 214.5Q48 228 48 249V291Q48 330 69 351Q90 372 129 372H221Q260 372 280.5 351Q301 330 301 291V249Q301 228 293.5 214.5Q286 201 271 194Q290 188 299 173.5Q308 159 308 137V79Q308 39 287.5 18.5Q267 -2 229 -2ZM135 277V246Q135 237 140.5 231.5Q146 226 155 226H193Q203 226 208 231Q213 236 213 246V277Q213 287 208 292Q203 297 193 297H155Q146 297 140.5 291.5Q135 286 135 277ZM201 152H147Q138 152 132.5 146.5Q127 141 127 132V92Q127 82 132 77Q137 72 147 72H201Q211 72 215.5 77Q220 82 220 92V132Q220 142 215 147Q210 152 201 152Z" glyph-name="eight.denominator" horiz-adv-x="348" unicode="&#63069;" /><glyph d="M229 -152H120Q80 -152 59 -131Q38 -110 38 -71V-13Q38 10 48 24.5Q58 39 78 44Q63 51 55.5 64.5Q48 78 48 99V141Q48 180 69 201Q90 222 129 222H221Q260 222 280.5 201Q301 180 301 141V99Q301 78 293.5 64.5Q286 51 271 44Q290 38 299 23.5Q308 9 308 -13V-71Q308 -111 287.5 -131.5Q267 -152 229 -152ZM135 127V96Q135 87 140.5 81.5Q146 76 155 76H193Q203 76 208 81Q213 86 213 96V127Q213 137 208 142Q203 147 193 147H155Q146 147 140.5 141.5Q135 136 135 127ZM201 2H147Q138 2 132.5 -3.5Q127 -9 127 -18V-58Q127 -68 132 -73Q137 -78 147 -78H201Q211 -78 215.5 -73Q220 -68 220 -58V-18Q220 -8 215 -3Q210 2 201 2Z" glyph-name="eight.inferior" horiz-adv-x="349" unicode="&#8328;" /><glyph d="M229 326H120Q80 326 59 347Q38 368 38 407V465Q38 488 48 502.5Q58 517 78 522Q63 529 55.5 542.5Q48 556 48 577V619Q48 658 69 679Q90 700 129 700H221Q260 700 280.5 679Q301 658 301 619V577Q301 556 293.5 542.5Q286 529 271 522Q290 516 299 501.5Q308 487 308 465V407Q308 367 287.5 346.5Q267 326 229 326ZM135 605V574Q135 565 140.5 559.5Q146 554 155 554H193Q203 554 208 559Q213 564 213 574V605Q213 615 208 620Q203 625 193 625H155Q146 625 140.5 619.5Q135 614 135 605ZM201 480H147Q138 480 132.5 474.5Q127 469 127 460V420Q127 410 132 405Q137 400 147 400H201Q211 400 215.5 405Q220 410 220 420V460Q220 470 215 475Q210 480 201 480Z" glyph-name="eight.numerator" horiz-adv-x="348" unicode="&#63081;" /><glyph d="M229 477H120Q80 477 59 498Q38 519 38 558V616Q38 639 48 653.5Q58 668 78 673Q63 680 55.5 693.5Q48 707 48 728V770Q48 809 69 830Q90 851 129 851H221Q260 851 280.5 830Q301 809 301 770V728Q301 707 293.5 693.5Q286 680 271 673Q290 667 299 652.5Q308 638 308 616V558Q308 518 287.5 497.5Q267 477 229 477ZM135 756V725Q135 716 140.5 710.5Q146 705 155 705H193Q203 705 208 710Q213 715 213 725V756Q213 766 208 771Q203 776 193 776H155Q146 776 140.5 770.5Q135 765 135 756ZM201 631H147Q138 631 132.5 625.5Q127 620 127 611V571Q127 561 132 556Q137 551 147 551H201Q211 551 215.5 556Q220 561 220 571V611Q220 621 215 626Q210 631 201 631Z" glyph-name="eight.superior" horiz-adv-x="348" unicode="&#8312;" /><glyph d="M376 -4H211Q140 -4 102 33.5Q64 71 64 141V253Q64 297 82.5 325.5Q101 354 137 366Q107 379 91.5 406Q76 433 76 475V556Q76 626 114 663.5Q152 701 223 701H363Q434 701 472 663.5Q510 626 510 556V475Q510 433 495 406Q480 379 449 366Q486 354 504.5 325.5Q523 297 523 253V141Q523 71 485 33.5Q447 -4 376 -4ZM343 592H243Q224 592 214 582.5Q204 573 204 553V450Q204 431 214 421.5Q224 412 243 412H343Q362 412 372 421.5Q382 431 382 450V553Q382 573 372.5 582.5Q363 592 343 592ZM356 306H231Q212 306 202 296Q192 286 192 267V143Q192 124 202 114Q212 104 231 104H356Q375 104 385 114Q395 124 395 143V267Q395 286 385 296Q375 306 356 306Z" glyph-name="eight.tab" horiz-adv-x="586" unicode="&#65304;" /><glyph d="M189 0H57V146H189ZM655 0H523V146H655ZM422 0H291V146H422Z" glyph-name="ellipsis" horiz-adv-x="712" unicode="&#8230;" /><glyph d="M455 161V133Q455 67 419.5 31.5Q384 -4 317 -4H190Q122 -4 86 32Q50 68 50 137V368Q50 437 86 473Q122 509 190 509H317Q384 509 419.5 473Q455 437 455 368V218H172V131Q172 112 181 103Q190 94 209 94H298Q316 94 325.5 103.5Q335 113 335 131V161ZM172 374V311H336V374Q336 393 327 402Q318 411 300 411H209Q190 411 181 402Q172 393 172 374ZM378 586H126V670H378Z" glyph-name="emacron" horiz-adv-x="501" unicode="&#275;" /><glyph d="M59 236V337H767V236Z" glyph-name="emdash" horiz-adv-x="826" unicode="&#8212;" /><glyph d="M58 235V337H418V235Z" glyph-name="endash" horiz-adv-x="476" unicode="&#8211;" /><glyph d="M419 -123V-190H311Q267 -190 244 -172Q221 -154 221 -119V-96Q221 -77 230.5 -60Q240 -43 266 -22L287 -4H191Q123 -4 87 32Q51 68 51 137V368Q51 437 87 473Q123 509 191 509H318Q385 509 420.5 473Q456 437 456 368V218H173V131Q173 112 182 103Q191 94 210 94H299Q317 94 326.5 103.5Q336 113 336 131V161H456V133Q456 98 446 71.5Q436 45 416 27L323 -57Q311 -68 308 -73.5Q305 -79 305 -85V-102Q305 -113 311 -118Q317 -123 330 -123ZM173 374V311H337V374Q337 393 328 402Q319 411 301 411H210Q191 411 182 402Q173 393 173 374Z" glyph-name="eogonek" horiz-adv-x="502" unicode="&#281;" /><glyph d="M62 208V302H429V208ZM62 402V497H429V402Z" glyph-name="equal" horiz-adv-x="491" unicode="=" /><glyph d="M381 48Q440 48 493.5 71.5Q547 95 586 138H664Q617 69 541.5 29Q466 -11 381 -11Q240 -11 141.5 87.5Q43 186 43 327Q43 468 142 567.5Q241 667 382 667Q524 667 622.5 567Q721 467 721 321H191V124Q230 87 279 67.5Q328 48 381 48ZM382 608Q328 608 279 587.5Q230 567 191 529V378H573V528Q534 567 485 587.5Q436 608 382 608Z" glyph-name="estimated" horiz-adv-x="749" unicode="&#8494;" /><glyph d="M332 -4H191Q123 -4 87 32Q51 68 51 137V386Q51 446 82.5 477.5Q114 509 174 509H242Q265 509 281 504.5Q297 500 317 487L349 466V494Q349 511 346 521Q343 531 330 550L312 578L232 552V615L277 630L232 697H369L390 666L472 693V630L424 614L439 592Q458 566 465 540.5Q472 515 472 472V137Q472 68 436 32Q400 -4 332 -4ZM211 100H313Q331 100 340 109Q349 118 349 136V350L291 388Q275 398 266.5 400.5Q258 403 246 403H209Q191 403 182.5 394Q174 385 174 367V136Q174 118 183 109Q192 100 211 100Z" glyph-name="eth" horiz-adv-x="528" unicode="&#240;" /><glyph d="M211 0H80V146H211ZM213 420 195 207H97Q91 261 86.5 314Q82 367 78 420V697H213Z" glyph-name="exclam" horiz-adv-x="291" unicode="!" /><glyph d="M205 505H74V359H205ZM207 85 189 298H91Q85 244 80.5 191Q76 138 72 85V-192H207Z" glyph-name="exclamdown" horiz-adv-x="280" unicode="&#161;" /><glyph d="M348 502V395H218V0H95V395H21V502H95V556Q95 625 131 661Q167 697 236 697H351V591H254Q236 591 227 581.5Q218 572 218 554V502Z" glyph-name="f" horiz-adv-x="363" unicode="f" /><glyph d="M348 502V395H218V0H95V395H21V502H95V556Q95 625 131 661Q167 697 236 697H351V591H254Q236 591 227 581.5Q218 572 218 554V502ZM711 502V395H581V0H458V395H384V502H458V556Q458 625 494 661Q530 697 599 697H714V591H617Q599 591 590 581.5Q581 572 581 554V502Z" glyph-name="f_f" horiz-adv-x="726" unicode="&#64256;" /><glyph d="M907 0H784V505H907ZM909 574H782V697H909ZM348 502V395H218V0H95V395H21V502H95V556Q95 625 131 661Q167 697 236 697H351V591H254Q236 591 227 581.5Q218 572 218 554V502ZM711 502V395H581V0H458V395H384V502H458V556Q458 625 494 661Q530 697 599 697H714V591H617Q599 591 590 581.5Q581 572 581 554V502Z" glyph-name="f_f_i" horiz-adv-x="966" unicode="&#64259;" /><glyph d="M784 0V697H908V0ZM348 502V395H218V0H95V395H21V502H95V556Q95 625 131 661Q167 697 236 697H351V591H254Q236 591 227 581.5Q218 572 218 554V502ZM711 502V395H581V0H458V395H384V502H458V556Q458 625 494 661Q530 697 599 697H714V591H617Q599 591 590 581.5Q581 572 581 554V502Z" glyph-name="f_f_l" horiz-adv-x="966" unicode="&#64260;" /><glyph d="M544 0H421V505H544ZM546 574H419V697H546ZM348 502V395H218V0H95V395H21V502H95V556Q95 625 131 661Q167 697 236 697H351V591H254Q236 591 227 581.5Q218 572 218 554V502Z" glyph-name="fi" horiz-adv-x="602" unicode="&#64257;" /><glyph d="M351 -4H191Q121 -4 84 33Q47 70 47 139V196H173V140Q173 122 183 113Q193 104 212 104H330Q349 104 359 113.5Q369 123 369 142V281Q369 300 359 309.5Q349 319 330 319H67V697H472V584H193V428H351Q422 428 460 391Q498 354 498 284V141Q498 71 460 33.5Q422 -4 351 -4Z" glyph-name="five" horiz-adv-x="544" unicode="5" /><glyph d="M210 -2H120Q78 -2 55 21.5Q32 45 32 89V107H123V92Q123 84 128 79.5Q133 75 142 75H188Q197 75 202 79.5Q207 84 207 93V139Q207 147 202 152Q197 157 188 157H47V369H284V290H136V232H210Q253 232 276.5 209Q300 186 300 145V89Q300 44 277 21Q254 -2 210 -2Z" glyph-name="five.denominator" horiz-adv-x="334" unicode="&#63066;" /><glyph d="M210 -152H120Q78 -152 55 -128.5Q32 -105 32 -61V-43H123V-58Q123 -66 128 -70.5Q133 -75 142 -75H188Q197 -75 202 -70.5Q207 -66 207 -57V-11Q207 -3 202 2Q197 7 188 7H47V219H284V140H136V82H210Q253 82 276.5 59Q300 36 300 -5V-61Q300 -106 277 -129Q254 -152 210 -152Z" glyph-name="five.inferior" horiz-adv-x="334" unicode="&#8325;" /><glyph d="M210 326H120Q78 326 55 349.5Q32 373 32 417V435H123V420Q123 412 128 407.5Q133 403 142 403H188Q197 403 202 407.5Q207 412 207 421V467Q207 475 202 480Q197 485 188 485H47V697H284V618H136V560H210Q253 560 276.5 537Q300 514 300 473V417Q300 372 277 349Q254 326 210 326Z" glyph-name="five.numerator" horiz-adv-x="334" unicode="&#63078;" /><glyph d="M210 477H120Q78 477 55 500.5Q32 524 32 568V586H123V571Q123 563 128 558.5Q133 554 142 554H188Q197 554 202 558.5Q207 563 207 572V618Q207 626 202 631Q197 636 188 636H47V848H284V769H136V711H210Q253 711 276.5 688Q300 665 300 624V568Q300 523 277 500Q254 477 210 477Z" glyph-name="five.superior" horiz-adv-x="334" unicode="&#8309;" /><glyph d="M371 -4H211Q141 -4 104 33Q67 70 67 139V196H193V140Q193 122 203 113Q213 104 232 104H350Q369 104 379 113.5Q389 123 389 142V281Q389 300 379 309.5Q369 319 350 319H87V697H492V584H213V428H371Q442 428 480 391Q518 354 518 284V141Q518 71 480 33.5Q442 -4 371 -4Z" glyph-name="five.tab" horiz-adv-x="586" unicode="&#65301;" /><glyph d="M421 0V697H545V0ZM348 502V395H218V0H95V395H21V502H95V556Q95 625 131 661Q167 697 236 697H351V591H254Q236 591 227 581.5Q218 572 218 554V502Z" glyph-name="fl" horiz-adv-x="603" unicode="&#64258;" /><glyph d="M267 309 202 -49Q188 -124 149.5 -157Q111 -190 36 -190H-47L-28 -84H36Q55 -84 65 -75.5Q75 -67 79 -47L144 309H49L68 415H162L188 556Q202 631 240.5 664Q279 697 354 697H459L440 591H354Q335 591 325 582.5Q315 574 311 554L286 415H407L388 309Z" glyph-name="florin" horiz-adv-x="471" unicode="&#402;" /><glyph d="M532 268V160H460V0H330V160H21V268L342 698H460V268ZM144 268H330V515Z" glyph-name="four" horiz-adv-x="570" unicode="4" /><glyph d="M321 144V72H278V0H190V72H20V144L196 369H278V144ZM107 144H190V250Z" glyph-name="four.denominator" horiz-adv-x="351" unicode="&#63065;" /><glyph d="M321 -6V-78H278V-150H190V-78H20V-6L196 219H278V-6ZM107 -6H190V100Z" glyph-name="four.inferior" horiz-adv-x="350" unicode="&#8324;" /><glyph d="M321 472V400H278V328H190V400H20V472L196 697H278V472ZM107 472H190V578Z" glyph-name="four.numerator" horiz-adv-x="351" unicode="&#63077;" /><glyph d="M320 623V551H277V479H189V551H19V623L195 848H277V623ZM106 623H189V729Z" glyph-name="four.superior" horiz-adv-x="350" unicode="&#8308;" /><glyph d="M541 268V160H468V0H339V160H29V268L351 698H468V268ZM153 268H339V515Z" glyph-name="four.tab" horiz-adv-x="586" unicode="&#65300;" /><glyph d="M356 701 -71 -4H-166L261 701Z" glyph-name="fraction" horiz-adv-x="190" unicode="&#8260;" /><glyph d="M429 323V245H236V0H107V245H48V323H107V373H48V451H107V697H552V586H236V451H429V373H236V323Z" glyph-name="franc" horiz-adv-x="578" unicode="&#8355;" /><glyph d="M332 -194H198Q132 -194 96.5 -160Q61 -126 61 -62V-38H181V-60Q181 -78 190 -87Q199 -96 217 -96H315Q334 -96 343 -87Q352 -78 352 -60V64L318 42Q296 28 280.5 24Q265 20 245 20H175Q115 20 83.5 51.5Q52 83 52 143V386Q52 446 83.5 477.5Q115 509 175 509H245Q265 509 280.5 505Q296 501 318 487L358 461L365 505H473V-54Q473 -123 437 -158.5Q401 -194 332 -194ZM209 126H247Q258 126 265.5 128Q273 130 292 141L352 181V349L292 388Q273 399 265.5 401Q258 403 247 403H209Q191 403 182 394Q173 385 173 367V162Q173 144 182 135Q191 126 209 126Z" glyph-name="g" horiz-adv-x="532" unicode="g" /><glyph d="M332 -194H198Q132 -194 96.5 -160Q61 -126 61 -62V-38H181V-60Q181 -78 190 -87Q199 -96 217 -96H315Q334 -96 343 -87Q352 -78 352 -60V64L318 42Q296 28 280.5 24Q265 20 245 20H175Q115 20 83.5 51.5Q52 83 52 143V386Q52 446 83.5 477.5Q115 509 175 509H245Q265 509 280.5 505Q296 501 318 487L358 461L365 505H473V-54Q473 -123 437 -158.5Q401 -194 332 -194ZM209 126H247Q258 126 265.5 128Q273 130 292 141L352 181V349L292 388Q273 399 265.5 401Q258 403 247 403H209Q191 403 182 394Q173 385 173 367V162Q173 144 182 135Q191 126 209 126ZM318 651V710H399V646Q399 601 373 577.5Q347 554 298 554H229Q180 554 154 577.5Q128 601 128 646V710H208V651Q208 637 215.5 630Q223 623 238 623H289Q303 623 310.5 630Q318 637 318 651Z" glyph-name="gbreve" horiz-adv-x="532" unicode="&#287;" /><glyph d="M401 565H316L262 626L208 565H124L218 697H307ZM332 -194H198Q132 -194 96.5 -160Q61 -126 61 -62V-38H181V-60Q181 -78 190 -87Q199 -96 217 -96H315Q334 -96 343 -87Q352 -78 352 -60V64L318 42Q296 28 280.5 24Q265 20 245 20H175Q115 20 83.5 51.5Q52 83 52 143V386Q52 446 83.5 477.5Q115 509 175 509H245Q265 509 280.5 505Q296 501 318 487L358 461L365 505H473V-54Q473 -123 437 -158.5Q401 -194 332 -194ZM209 126H247Q258 126 265.5 128Q273 130 292 141L352 181V349L292 388Q273 399 265.5 401Q258 403 247 403H209Q191 403 182 394Q173 385 173 367V162Q173 144 182 135Q191 126 209 126Z" glyph-name="gcircumflex" horiz-adv-x="532" unicode="&#285;" /><glyph d="M332 -194H198Q132 -194 96.5 -160Q61 -126 61 -62V-38H181V-60Q181 -78 190 -87Q199 -96 217 -96H315Q334 -96 343 -87Q352 -78 352 -60V64L318 42Q296 28 280.5 24Q265 20 245 20H175Q115 20 83.5 51.5Q52 83 52 143V386Q52 446 83.5 477.5Q115 509 175 509H245Q265 509 280.5 505Q296 501 318 487L358 461L365 505H473V-54Q473 -123 437 -158.5Q401 -194 332 -194ZM209 126H247Q258 126 265.5 128Q273 130 292 141L352 181V349L292 388Q273 399 265.5 401Q258 403 247 403H209Q191 403 182 394Q173 385 173 367V162Q173 144 182 135Q191 126 209 126ZM320 576H207V704H320Z" glyph-name="gdotaccent" horiz-adv-x="532" unicode="&#289;" /><glyph d="M217 554V0H94V395H22V502H94V556Q94 625 130 661Q166 697 235 697H365Q436 697 474 660.5Q512 624 512 554V469Q512 427 493.5 399.5Q475 372 438 360Q482 352 505 323Q528 294 528 248V145Q528 75 490 37.5Q452 0 381 0H289V106H366Q385 106 394.5 115.5Q404 125 404 143V270Q404 287 394.5 296Q385 305 367 305H300V412H352Q370 412 379.5 421Q389 430 389 447V554Q389 573 379.5 582Q370 591 351 591H253Q235 591 226 581.5Q217 572 217 554Z" glyph-name="germandbls" horiz-adv-x="574" unicode="&#223;" /><glyph d="M136 565 49 674V697H171L219 565Z" glyph-name="grave" horiz-adv-x="267" unicode="`" /><glyph d="M135 745 47 854V877H169L217 745Z" glyph-name="grave.case" horiz-adv-x="265" /><glyph d="M444 396V302L77 127V238L322 349L77 460V571Z" glyph-name="greater" horiz-adv-x="491" unicode="&gt;" /><glyph d="M434 459V367L67 214V323L307 413L67 503V612ZM67 85V180H434V85Z" glyph-name="greaterequal" horiz-adv-x="491" unicode="&#8805;" /><glyph d="M140 256 282 107H150L64 196Q47 213 41.5 225.5Q36 238 36 254V299Q36 315 41.5 327.5Q47 340 64 357L150 446H282L140 296Q135 290 133.5 287Q132 284 132 280V272Q132 268 133.5 265Q135 262 140 256ZM363 256 505 107H373L287 196Q270 213 264.5 225.5Q259 238 259 254V299Q259 315 264.5 327.5Q270 340 287 357L373 446H505L363 296Q358 290 356.5 287Q355 284 355 280V272Q355 268 356.5 265Q358 262 363 256Z" glyph-name="guillemotleft" horiz-adv-x="551" unicode="&#171;" /><glyph d="M264 196 178 107H46L188 256Q193 262 194.5 265Q196 268 196 272V280Q196 284 194.5 287Q193 290 188 296L46 446H178L264 357Q281 340 286.5 327.5Q292 315 292 299V254Q292 238 286.5 225.5Q281 213 264 196ZM487 196 401 107H269L411 256Q416 262 417.5 265Q419 268 419 272V280Q419 284 417.5 287Q416 290 411 296L269 446H401L487 357Q504 340 509.5 327.5Q515 315 515 299V254Q515 238 509.5 225.5Q504 213 487 196Z" glyph-name="guillemotright" horiz-adv-x="551" unicode="&#187;" /><glyph d="M140 256 282 107H150L64 196Q47 213 41.5 225.5Q36 238 36 254V299Q36 315 41.5 327.5Q47 340 64 357L150 446H282L140 296Q135 290 133.5 287Q132 284 132 280V272Q132 268 133.5 265Q135 262 140 256Z" glyph-name="guilsinglleft" horiz-adv-x="328" unicode="&#8249;" /><glyph d="M264 196 178 107H46L188 256Q193 262 194.5 265Q196 268 196 272V280Q196 284 194.5 287Q193 290 188 296L46 446H178L264 357Q281 340 286.5 327.5Q292 315 292 299V254Q292 238 286.5 225.5Q281 213 264 196Z" glyph-name="guilsinglright" horiz-adv-x="328" unicode="&#8250;" /><glyph d="M240 388 181 350V0H58V697H181V466L213 487Q233 500 249 504.5Q265 509 287 509H356Q416 509 448 477.5Q480 446 480 386V0H357V367Q357 385 348 394Q339 403 321 403H285Q274 403 265 400.5Q256 398 240 388Z" glyph-name="h" horiz-adv-x="536" unicode="h" /><glyph d="M59 553H4V628H59V697H182V628H271V553H182V466L214 487Q234 500 250 504.5Q266 509 288 509H357Q417 509 449 477.5Q481 446 481 386V0H358V367Q358 385 349 394Q340 403 322 403H286Q275 403 266 400.5Q257 398 241 388L182 350V0H59Z" glyph-name="hbar" horiz-adv-x="537" unicode="&#295;" /><glyph d="M259 732H174L120 793L66 732H-18L76 864H165ZM240 388 181 350V0H58V697H181V466L213 487Q233 500 249 504.5Q265 509 287 509H356Q416 509 448 477.5Q480 446 480 386V0H357V367Q357 385 348 394Q339 403 321 403H285Q274 403 265 400.5Q256 398 240 388Z" glyph-name="hcircumflex" horiz-adv-x="536" unicode="&#293;" /><glyph d="M89 697H195V674L116 565H49ZM252 697H359V674L241 565H175Z" glyph-name="hungarumlaut" horiz-adv-x="408" unicode="&#733;" /><glyph d="M80 877H185V854L106 745H40ZM244 877H349V854L232 745H166Z" glyph-name="hungarumlaut.case" horiz-adv-x="389" /><glyph d="M58 233V339H318V233Z" glyph-name="hyphen" horiz-adv-x="376" unicode="-" /><glyph d="M44 113V190H199V113Z" glyph-name="hyphen.denominator" horiz-adv-x="243" unicode="&#63019;" /><glyph d="M44 441V518H199V441Z" glyph-name="hyphen.numerator" horiz-adv-x="243" unicode="&#63024;" /><glyph d="M181 0H58V505H181ZM183 574H56V697H183Z" glyph-name="i" horiz-adv-x="239" unicode="i" /><glyph d="M125 697H247V674L159 565H77ZM181 0H58V505H181Z" glyph-name="iacute" horiz-adv-x="240" unicode="&#237;" /><glyph d="M260 565H175L121 626L67 565H-17L77 697H166ZM182 0H59V505H182Z" glyph-name="icircumflex" horiz-adv-x="241" unicode="&#238;" /><glyph d="M93 578H3V682H93ZM238 578H148V682H238ZM182 0H59V505H182Z" glyph-name="idieresis" horiz-adv-x="241" unicode="&#239;" /><glyph d="M182 0H59V505H182ZM82 565 -5 674V697H117L165 565Z" glyph-name="igrave" horiz-adv-x="240" unicode="&#236;" /><glyph d="M181 0H58V505H181ZM183 574H56V697H183ZM280 -190H194V-84H261Q279 -84 288 -74.5Q297 -65 297 -47V505H420V-49Q420 -118 384 -154Q348 -190 280 -190ZM422 574H295V697H422Z" glyph-name="ij" horiz-adv-x="479" unicode="&#307;" /><glyph d="M182 0H59V505H182ZM248 586H-4V670H248Z" glyph-name="imacron" horiz-adv-x="241" unicode="&#299;" /><glyph d="M267 181H185Q118 181 82.5 214Q47 247 47 309V390Q47 451 82.5 483Q118 515 185 515H267Q308 515 340 498.5Q372 482 395 450L412 426L430 450Q457 486 485 500.5Q513 515 552 515H640Q708 515 743 482.5Q778 450 778 387V307Q778 246 742.5 213.5Q707 181 640 181H552Q513 181 485 195.5Q457 210 428 247L412 269L397 246Q377 216 342.5 198.5Q308 181 267 181ZM669 313V385Q669 403 659 412.5Q649 422 630 422H551Q533 422 521 415Q509 408 497 389L468 348L497 308Q509 289 521 282Q533 275 551 275H630Q649 275 659 284.5Q669 294 669 313ZM157 385V312Q157 293 166.5 284Q176 275 196 275H271Q290 275 302.5 281.5Q315 288 328 306L357 348L328 391Q315 409 302.5 415.5Q290 422 271 422H196Q176 422 166.5 413Q157 404 157 385Z" glyph-name="infinity" horiz-adv-x="825" unicode="&#8734;" /><glyph d="M104 -70H16V36H86Q104 36 113 45.5Q122 55 122 73V626Q122 694 158.5 730.5Q195 767 263 767H351V661H282Q264 661 254.5 651.5Q245 642 245 624V71Q245 2 209 -34Q173 -70 104 -70Z" glyph-name="integral" horiz-adv-x="367" unicode="&#8747;" /><glyph d="M181 505V0H153L70 -57Q60 -63 56 -69.5Q52 -76 52 -85V-102Q52 -113 58 -118Q64 -123 77 -123H167V-190H59Q15 -190 -8 -172Q-31 -154 -31 -119V-96Q-31 -75 -21.5 -58Q-12 -41 14 -24L58 5V505ZM183 574H56V697H183Z" glyph-name="iogonek" horiz-adv-x="240" unicode="&#303;" /><glyph d="M182 0H59V505H182ZM192 646H201Q210 646 214.5 650.5Q219 655 219 664V697H289V641Q289 607 271.5 589Q254 571 221 571H192Q183 571 175 572.5Q167 574 140 585L82 612Q70 618 63.5 620Q57 622 51 622H42Q33 622 28.5 617.5Q24 613 24 604V571H-47V627Q-47 661 -29.5 679.5Q-12 698 21 698H53Q61 698 69.5 696Q78 694 102 684L160 657Q172 652 180 649Q188 646 192 646Z" glyph-name="itilde" horiz-adv-x="241" unicode="&#297;" /><glyph d="M41 -190H-45V-84H22Q40 -84 49 -74.5Q58 -65 58 -47V505H181V-49Q181 -118 145 -154Q109 -190 41 -190ZM183 574H56V697H183Z" glyph-name="j" horiz-adv-x="239" unicode="j" /><glyph d="M260 565H175L121 626L67 565H-17L77 697H166ZM42 -190H-44V-84H23Q41 -84 50 -74.5Q59 -65 59 -47V505H182V-49Q182 -118 146 -154Q110 -190 42 -190Z" glyph-name="jcircumflex" horiz-adv-x="241" unicode="&#309;" /><glyph d="M345 115 239 220H181V0H58V697H181V326H232L344 404Q355 412 359.5 419.5Q364 427 364 437V505H476V417Q476 395 463.5 375Q451 355 417 332L337 277L442 177Q464 156 474 137Q484 118 484 95V0H365V74Q365 86 360 95.5Q355 105 345 115Z" glyph-name="k" horiz-adv-x="521" unicode="k" /><glyph d="M345 114 240 219H181V0H58V505H181V325H234L344 404Q356 413 360 420Q364 427 364 437V505H476V414Q476 394 462.5 374Q449 354 417 331L338 276L442 176Q464 155 474 137Q484 119 484 98V0H365V79Q365 87 361.5 94Q358 101 345 114Z" glyph-name="kgreenlandic" horiz-adv-x="521" unicode="&#312;" /><glyph d="M58 0V697H182V0Z" glyph-name="l" horiz-adv-x="240" unicode="l" /><glyph d="M126 877H248V854L161 745H78ZM58 0V697H182V0Z" glyph-name="lacute" horiz-adv-x="240" unicode="&#314;" /><glyph d="M238 697H351V658L281 539H213ZM58 0V697H182V0Z" glyph-name="lcaron" horiz-adv-x="241" unicode="&#318;" /><glyph d="M58 0V697H182V0ZM396 286H264V432H396Z" glyph-name="ldot" horiz-adv-x="418" unicode="&#320;" /><glyph d="M414 238V127L47 302V396L414 571V460L169 349Z" glyph-name="less" horiz-adv-x="491" unicode="&lt;" /><glyph d="M423 323V214L56 367V459L423 612V503L184 413ZM56 85V180H423V85Z" glyph-name="lessequal" horiz-adv-x="491" unicode="&#8804;" /><glyph d="M565 110V0H50V110H118V231H50V309H118V359H50V437H118V557Q118 627 156 664Q194 701 265 701H407Q478 701 516 664Q554 627 554 557V483H428V552Q428 571 418.5 581Q409 591 390 591H284Q265 591 255 581.5Q245 572 245 552V437H371V359H245V309H371V231H245V110Z" glyph-name="lira" horiz-adv-x="606" unicode="&#8356;" /><glyph d="M421 168H326V305H54V399H421Z" glyph-name="logicalnot" horiz-adv-x="491" unicode="&#172;" /><glyph d="M218 554V0H95V395H21V502H95V556Q95 625 131 661Q167 697 236 697H349V591H254Q236 591 227 581.5Q218 572 218 554Z" glyph-name="longs" horiz-adv-x="297" unicode="&#383;" /><glyph d="M218 554V0H95V395H21V502H95V556Q95 625 131 661Q167 697 236 697H349V591H254Q236 591 227 581.5Q218 572 218 554ZM550 106H646V0H530Q462 0 426 36Q390 72 390 140V395H317V502H390V640H514V502H644V395H514V142Q514 124 523 115Q532 106 550 106Z" glyph-name="longs_t" horiz-adv-x="672" unicode="&#64261;" /><glyph d="M228 707H322L528 348L322 -10H228L23 348ZM395 348 274 566 154 348 274 132Z" glyph-name="lozenge" horiz-adv-x="551" unicode="&#9674;" /><glyph d="M84 416V697H208V475L278 509V406L208 372V0H84V313L14 280V383Z" glyph-name="lslash" horiz-adv-x="288" unicode="&#322;" /><glyph d="M240 388 181 350V0H58V505H169L175 462L213 487Q235 500 250.5 504.5Q266 509 287 509H350Q388 509 415.5 495.5Q443 482 458 456L506 487Q528 501 543.5 505Q559 509 580 509H643Q703 509 734.5 477.5Q766 446 766 386V0H643V367Q643 385 634.5 394Q626 403 608 403H577Q567 403 560 401.5Q553 400 532 388L474 350V0H351V367Q351 385 342 394Q333 403 315 403H285Q274 403 266.5 401Q259 399 240 388Z" glyph-name="m" horiz-adv-x="822" unicode="m" /><glyph d="M312 586H60V670H312Z" glyph-name="macron" horiz-adv-x="372" unicode="&#175;" /><glyph d="M292 765H40V849H292Z" glyph-name="macron.case" horiz-adv-x="333" /><glyph d="M62 301V396H429V301Z" glyph-name="minus" horiz-adv-x="491" unicode="&#8722;" /><glyph d="M202 -190H79V505H202V138Q202 120 210.5 111Q219 102 237 102H269Q280 102 287.5 104Q295 106 314 117L372 155V505H495V0H384L379 43L340 18Q318 4 302.5 0Q287 -4 267 -4H213Q209 -4 205 -3.5Q201 -3 196 -2Q199 -27 200.5 -50Q202 -73 202 -89Z" glyph-name="mu" horiz-adv-x="574" unicode="&#181;" /><glyph d="M415 248 349 181 248 282 142 178 75 245 181 350 75 455 142 522 247 416 349 519 416 451 314 349Z" glyph-name="multiply" horiz-adv-x="491" unicode="&#215;" /><glyph d="M321 403H285Q273 403 264.5 400.5Q256 398 240 388L181 349V0H58V505H169L175 462L213 487Q233 500 249 504.5Q265 509 287 509H356Q416 509 448 477.5Q480 446 480 386V0H357V367Q357 385 348 394Q339 403 321 403Z" glyph-name="n" horiz-adv-x="536" unicode="n" /><glyph d="M271 697H393V674L305 565H223ZM321 403H285Q273 403 264.5 400.5Q256 398 240 388L181 349V0H58V505H169L175 462L213 487Q233 500 249 504.5Q265 509 287 509H356Q416 509 448 477.5Q480 446 480 386V0H357V367Q357 385 348 394Q339 403 321 403Z" glyph-name="nacute" horiz-adv-x="536" unicode="&#324;" /><glyph d="M16 690H140V650L58 490H-15ZM364 403H328Q316 403 307.5 400.5Q299 398 283 388L224 349V0H101V505H212L218 462L256 487Q276 500 292 504.5Q308 509 330 509H399Q459 509 491 477.5Q523 446 523 386V0H400V367Q400 385 391 394Q382 403 364 403Z" glyph-name="napostrophe" horiz-adv-x="579" unicode="&#329;" /><glyph d="M313 565H224L130 697H214L268 636L322 697H407ZM321 403H285Q273 403 264.5 400.5Q256 398 240 388L181 349V0H58V505H169L175 462L213 487Q233 500 249 504.5Q265 509 287 509H356Q416 509 448 477.5Q480 446 480 386V0H357V367Q357 385 348 394Q339 403 321 403Z" glyph-name="ncaron" horiz-adv-x="536" unicode="&#328;" /><glyph d="M356 -4H199Q130 -4 92.5 33.5Q55 71 55 140V199H182V144Q182 126 192 116.5Q202 107 221 107H335Q354 107 364 117Q374 127 374 146V298H196Q126 298 88.5 335Q51 372 51 442V554Q51 625 89 663Q127 701 198 701H356Q428 701 465.5 663.5Q503 626 503 554V143Q503 72 465 34Q427 -4 356 -4ZM218 410H374V551Q374 570 364 580Q354 590 335 590H220Q200 590 190.5 580.5Q181 571 181 551V447Q181 428 190 419Q199 410 218 410Z" glyph-name="nine" horiz-adv-x="565" unicode="9" /><glyph d="M215 -2H128Q84 -2 61 20.5Q38 43 38 86V110H129V92Q129 84 134 79.5Q139 75 148 75H192Q201 75 205.5 79.5Q210 84 210 93V155H119Q80 155 58.5 175Q37 195 37 232V282Q37 326 60 349Q83 372 127 372H215Q259 372 282 349Q305 326 305 282V88Q305 44 281.5 21Q258 -2 215 -2ZM147 230H210V278Q210 287 205.5 291.5Q201 296 192 296H148Q139 296 134.5 291.5Q130 287 130 278V249Q130 240 134.5 235Q139 230 147 230Z" glyph-name="nine.denominator" horiz-adv-x="345" unicode="&#63070;" /><glyph d="M215 -152H128Q84 -152 61 -129.5Q38 -107 38 -64V-40H129V-58Q129 -66 134 -70.5Q139 -75 148 -75H192Q201 -75 205.5 -70.5Q210 -66 210 -57V5H119Q80 5 58.5 25Q37 45 37 82V132Q37 176 60 199Q83 222 127 222H215Q259 222 282 199Q305 176 305 132V-62Q305 -106 281.5 -129Q258 -152 215 -152ZM147 80H210V128Q210 137 205.5 141.5Q201 146 192 146H148Q139 146 134.5 141.5Q130 137 130 128V99Q130 90 134.5 85Q139 80 147 80Z" glyph-name="nine.inferior" horiz-adv-x="346" unicode="&#8329;" /><glyph d="M215 326H128Q84 326 61 348.5Q38 371 38 414V438H129V420Q129 412 134 407.5Q139 403 148 403H192Q201 403 205.5 407.5Q210 412 210 421V483H119Q80 483 58.5 503Q37 523 37 560V610Q37 654 60 677Q83 700 127 700H215Q259 700 282 677Q305 654 305 610V416Q305 372 281.5 349Q258 326 215 326ZM147 558H210V606Q210 615 205.5 619.5Q201 624 192 624H148Q139 624 134.5 619.5Q130 615 130 606V577Q130 568 134.5 563Q139 558 147 558Z" glyph-name="nine.numerator" horiz-adv-x="345" unicode="&#63082;" /><glyph d="M215 477H128Q84 477 61 499.5Q38 522 38 565V589H129V571Q129 563 134 558.5Q139 554 148 554H192Q201 554 205.5 558.5Q210 563 210 572V634H119Q80 634 58.5 654Q37 674 37 711V761Q37 805 60 828Q83 851 127 851H215Q259 851 282 828Q305 805 305 761V567Q305 523 281.5 500Q258 477 215 477ZM147 709H210V757Q210 766 205.5 770.5Q201 775 192 775H148Q139 775 134.5 770.5Q130 766 130 757V728Q130 719 134.5 714Q139 709 147 709Z" glyph-name="nine.superior" horiz-adv-x="345" unicode="&#8313;" /><glyph d="M367 -4H210Q140 -4 103 33Q66 70 66 140V199H192V144Q192 126 202 116.5Q212 107 231 107H345Q365 107 374.5 117Q384 127 384 146V298H207Q137 298 99.5 335Q62 372 62 442V554Q62 625 100 663Q138 701 209 701H367Q439 701 476.5 663.5Q514 626 514 554V143Q514 72 476 34Q438 -4 367 -4ZM228 410H384V551Q384 571 374.5 580.5Q365 590 345 590H230Q211 590 201 580.5Q191 571 191 551V447Q191 429 200.5 419.5Q210 410 228 410Z" glyph-name="nine.tab" horiz-adv-x="586" unicode="&#65305;" /><glyph d="M62 398V493H263L301 597H367L329 493H429V398H295L259 298H429V204H225L188 100H122L159 204H62V298H193L229 398Z" glyph-name="notequal" horiz-adv-x="491" unicode="&#8800;" /><glyph d="M321 403H285Q273 403 264.5 400.5Q256 398 240 388L181 349V0H58V505H169L175 462L213 487Q233 500 249 504.5Q265 509 287 509H356Q416 509 448 477.5Q480 446 480 386V0H357V367Q357 385 348 394Q339 403 321 403ZM339 646H348Q357 646 361.5 650.5Q366 655 366 664V697H436V641Q436 607 418.5 589Q401 571 368 571H339Q330 571 322 572.5Q314 574 287 585L229 612Q217 618 210.5 620Q204 622 198 622H189Q180 622 175.5 617.5Q171 613 171 604V571H100V627Q100 661 117.5 679.5Q135 698 168 698H200Q208 698 216.5 696Q225 694 249 684L307 657Q319 652 327 649Q335 646 339 646Z" glyph-name="ntilde" horiz-adv-x="536" unicode="&#241;" /><glyph d="M155 406H71V499H175L217 697H320L278 499H417L459 697H562L520 499H602V406H500L475 289H561V196H455L414 0H311L352 196H213L172 0H69L110 196H30V289H130ZM397 406H258L233 289H372Z" glyph-name="numbersign" horiz-adv-x="632" unicode="#" /><glyph d="M330 -4H190Q122 -4 86 32Q50 68 50 137V368Q50 437 86 473Q122 509 190 509H330Q399 509 435 473Q471 437 471 368V137Q471 68 435 32Q399 -4 330 -4ZM210 100H311Q329 100 338.5 109Q348 118 348 136V369Q348 387 339 396Q330 405 311 405H210Q191 405 182 396Q173 387 173 369V136Q173 118 182 109Q191 100 210 100Z" glyph-name="o" horiz-adv-x="521" unicode="o" /><glyph d="M263 697H385V674L297 565H215ZM330 -4H190Q122 -4 86 32Q50 68 50 137V368Q50 437 86 473Q122 509 190 509H330Q399 509 435 473Q471 437 471 368V137Q471 68 435 32Q399 -4 330 -4ZM210 100H311Q329 100 338.5 109Q348 118 348 136V369Q348 387 339 396Q330 405 311 405H210Q191 405 182 396Q173 387 173 369V136Q173 118 182 109Q191 100 210 100Z" glyph-name="oacute" horiz-adv-x="521" unicode="&#243;" /><glyph d="M330 -4H190Q122 -4 86 32Q50 68 50 137V368Q50 437 86 473Q122 509 190 509H330Q399 509 435 473Q471 437 471 368V137Q471 68 435 32Q399 -4 330 -4ZM210 100H311Q329 100 338.5 109Q348 118 348 136V369Q348 387 339 396Q330 405 311 405H210Q191 405 182 396Q173 387 173 369V136Q173 118 182 109Q191 100 210 100ZM316 651V710H397V646Q397 601 371 577.5Q345 554 296 554H227Q178 554 152 577.5Q126 601 126 646V710H206V651Q206 637 213.5 630Q221 623 236 623H287Q301 623 308.5 630Q316 637 316 651Z" glyph-name="obreve" horiz-adv-x="521" unicode="&#335;" /><glyph d="M401 565H316L262 626L208 565H124L218 697H307ZM330 -4H190Q122 -4 86 32Q50 68 50 137V368Q50 437 86 473Q122 509 190 509H330Q399 509 435 473Q471 437 471 368V137Q471 68 435 32Q399 -4 330 -4ZM210 100H311Q329 100 338.5 109Q348 118 348 136V369Q348 387 339 396Q330 405 311 405H210Q191 405 182 396Q173 387 173 369V136Q173 118 182 109Q191 100 210 100Z" glyph-name="ocircumflex" horiz-adv-x="521" unicode="&#244;" /><glyph d="M234 578H144V682H234ZM379 578H289V682H379ZM330 -4H190Q122 -4 86 32Q50 68 50 137V368Q50 437 86 473Q122 509 190 509H330Q399 509 435 473Q471 437 471 368V137Q471 68 435 32Q399 -4 330 -4ZM210 100H311Q329 100 338.5 109Q348 118 348 136V369Q348 387 339 396Q330 405 311 405H210Q191 405 182 396Q173 387 173 369V136Q173 118 182 109Q191 100 210 100Z" glyph-name="odieresis" horiz-adv-x="521" unicode="&#246;" /><glyph d="M754 161V133Q754 67 718.5 31.5Q683 -4 616 -4H490Q462 -4 440.5 4Q419 12 405 29Q389 12 367 4Q345 -4 317 -4H190Q122 -4 86 32Q50 68 50 137V368Q50 437 86 473Q122 509 190 509H317Q346 509 368.5 500Q391 491 406 474Q422 491 444.5 500Q467 509 496 509H616Q683 509 718.5 473Q754 437 754 368V218H471V131Q471 113 480.5 103.5Q490 94 508 94H597Q615 94 624.5 103.5Q634 113 634 131V161ZM210 100H311Q329 100 338.5 109Q348 118 348 136V369Q348 387 339 396Q330 405 311 405H210Q191 405 182 396Q173 387 173 369V136Q173 118 182 109Q191 100 210 100ZM471 374V309H636V374Q636 393 627 402Q618 411 599 411H508Q490 411 480.5 401.5Q471 392 471 374Z" glyph-name="oe" horiz-adv-x="800" unicode="&#339;" /><glyph d="M90 -24 186 40H216L234 3L146 -57Q136 -63 132 -69.5Q128 -76 128 -85V-102Q128 -113 134 -118Q140 -123 153 -123H243V-190H135Q91 -190 68 -172Q45 -154 45 -119V-96Q45 -75 54.5 -58Q64 -41 90 -24Z" glyph-name="ogonek" horiz-adv-x="290" unicode="&#731;" /><glyph d="M330 -4H190Q122 -4 86 32Q50 68 50 137V368Q50 437 86 473Q122 509 190 509H330Q399 509 435 473Q471 437 471 368V137Q471 68 435 32Q399 -4 330 -4ZM210 100H311Q329 100 338.5 109Q348 118 348 136V369Q348 387 339 396Q330 405 311 405H210Q191 405 182 396Q173 387 173 369V136Q173 118 182 109Q191 100 210 100ZM225 565 138 674V697H260L308 565Z" glyph-name="ograve" horiz-adv-x="521" unicode="&#242;" /><glyph d="M194 697H300V674L221 565H154ZM357 697H464V674L346 565H280ZM330 -4H190Q122 -4 86 32Q50 68 50 137V368Q50 437 86 473Q122 509 190 509H330Q399 509 435 473Q471 437 471 368V137Q471 68 435 32Q399 -4 330 -4ZM210 100H311Q329 100 338.5 109Q348 118 348 136V369Q348 387 339 396Q330 405 311 405H210Q191 405 182 396Q173 387 173 369V136Q173 118 182 109Q191 100 210 100Z" glyph-name="ohungarumlaut" horiz-adv-x="521" unicode="&#337;" /><glyph d="M388 586H136V670H388ZM330 -4H190Q122 -4 86 32Q50 68 50 137V368Q50 437 86 473Q122 509 190 509H330Q399 509 435 473Q471 437 471 368V137Q471 68 435 32Q399 -4 330 -4ZM210 100H311Q329 100 338.5 109Q348 118 348 136V369Q348 387 339 396Q330 405 311 405H210Q191 405 182 396Q173 387 173 369V136Q173 118 182 109Q191 100 210 100Z" glyph-name="omacron" horiz-adv-x="521" unicode="&#333;" /><glyph d="M475 113V0H41V113H197V584H41V697H326V113Z" glyph-name="one" horiz-adv-x="492" unicode="1" /><glyph d="M35 0V81H126V288H35V369H219V81H305V0Z" glyph-name="one.denominator" horiz-adv-x="323" unicode="&#63062;" /><glyph d="M35 -150V-69H126V138H35V219H219V-69H305V-150Z" glyph-name="one.inferior" horiz-adv-x="324" unicode="&#8321;" /><glyph d="M35 328V409H126V616H35V697H219V409H305V328Z" glyph-name="one.numerator" horiz-adv-x="323" unicode="&#63074;" /><glyph d="M532 113V0H78V113H244V584H78V697H373V113Z" glyph-name="one.tab" horiz-adv-x="586" unicode="&#65297;" /><glyph d="M766 81V0H492V101Q492 136 508 157Q524 178 558 188L653 217Q660 219 663.5 224.5Q667 230 667 238V274Q667 282 662 287Q657 292 649 292H603Q594 292 589 287Q584 282 584 274V244H494V284Q494 327 517 349.5Q540 372 583 372H670Q714 372 737 349.5Q760 327 760 283V233Q760 203 744.5 182.5Q729 162 701 153L598 119Q591 117 588 112.5Q585 108 585 98V81ZM38 328V409H129V616H38V697H222V409H308V328ZM675 701 248 -4H153L580 701Z" glyph-name="onehalf" horiz-adv-x="800" unicode="&#189;" /><glyph d="M729 144V72H686V0H598V72H428V144L604 369H686V144ZM515 144H598V250ZM39 328V409H130V616H39V697H223V409H309V328ZM679 701 252 -4H157L584 701Z" glyph-name="onequarter" horiz-adv-x="760" unicode="&#188;" /><glyph d="M35 479V560H126V767H35V848H219V560H305V479Z" glyph-name="onesuperior" horiz-adv-x="323" unicode="&#185;" /><glyph d="M298 288 272 271Q249 255 235 251Q221 247 201 247H150Q98 247 70 272.5Q42 298 42 347V404Q42 449 69 474Q96 499 154 507L291 525V579Q291 594 283 602Q275 610 259 610H195Q179 610 170.5 602Q162 594 162 579V561H53V585Q53 641 84 671Q115 701 174 701H281Q341 701 373 670Q405 639 405 580V250H304ZM183 337H212Q222 337 230 339.5Q238 342 250 349L291 376V441L185 426Q167 423 160.5 416.5Q154 410 154 396V364Q154 349 160.5 343Q167 337 183 337Z" glyph-name="ordfeminine" horiz-adv-x="457" unicode="&#170;" /><glyph d="M293 247H169Q108 247 76.5 279Q45 311 45 373V575Q45 637 76.5 669Q108 701 169 701H293Q354 701 386 668.5Q418 636 418 575V373Q418 312 386 279.5Q354 247 293 247ZM192 343H271Q286 343 294 351.5Q302 360 302 375V573Q302 589 294 597Q286 605 271 605H192Q176 605 167.5 597Q159 589 159 573V375Q159 359 167.5 351Q176 343 192 343Z" glyph-name="ordmasculine" horiz-adv-x="466" unicode="&#186;" /><glyph d="M137 3 121 -24H55L88 29Q69 47 59 74Q49 101 49 137V368Q49 437 85 473Q121 509 190 509H328Q341 509 353.5 507.5Q366 506 381 502L398 529H465L431 474Q449 456 458.5 429Q468 402 468 368V137Q468 68 432 32Q396 -4 328 -4H190Q177 -4 164.5 -2.5Q152 -1 137 3ZM168 370V158L323 408Q321 409 318.5 409Q316 409 310 409H207Q188 409 178 399Q168 389 168 370ZM207 96H310Q329 96 339 106Q349 116 349 135V342L196 97Q198 96 200 96Q202 96 207 96Z" glyph-name="oslash" horiz-adv-x="518" unicode="&#248;" /><glyph d="M330 -4H190Q122 -4 86 32Q50 68 50 137V368Q50 437 86 473Q122 509 190 509H330Q399 509 435 473Q471 437 471 368V137Q471 68 435 32Q399 -4 330 -4ZM210 100H311Q329 100 338.5 109Q348 118 348 136V369Q348 387 339 396Q330 405 311 405H210Q191 405 182 396Q173 387 173 369V136Q173 118 182 109Q191 100 210 100ZM333 646H342Q351 646 355.5 650.5Q360 655 360 664V697H430V641Q430 607 412.5 589Q395 571 362 571H333Q324 571 316 572.5Q308 574 281 585L223 612Q211 618 204.5 620Q198 622 192 622H183Q174 622 169.5 617.5Q165 613 165 604V571H94V627Q94 661 111.5 679.5Q129 698 162 698H194Q202 698 210.5 696Q219 694 243 684L301 657Q313 652 321 649Q329 646 333 646Z" glyph-name="otilde" horiz-adv-x="521" unicode="&#245;" /><glyph d="M213 18 181 39V-190H58V505H169L175 462L213 487Q235 500 250.5 504.5Q266 509 287 509H356Q416 509 448 477.5Q480 446 480 386V119Q480 60 448 28Q416 -4 356 -4H287Q266 -4 250.5 0.5Q235 5 213 18ZM285 102H321Q339 102 348 111Q357 120 357 138V367Q357 385 348 394Q339 403 321 403H285Q274 403 265 400.5Q256 398 240 388L181 350V156L240 117Q255 107 263.5 104.5Q272 102 285 102Z" glyph-name="p" horiz-adv-x="532" unicode="p" /><glyph d="M337 -190H224V254H177Q106 254 68 292Q30 330 30 401V550Q30 621 68 659Q106 697 177 697H525V-190H412V585H198Q179 585 169.5 575Q160 565 160 546V405Q160 386 169.5 376Q179 366 198 366H337Z" glyph-name="paragraph" horiz-adv-x="611" unicode="&#182;" /><glyph d="M231 -79H268V-190H210Q140 -190 102.5 -152Q65 -114 65 -43V623Q65 694 102.5 732Q140 770 210 770H266V659H231Q213 659 203.5 649Q194 639 194 620V-40Q194 -59 203.5 -69Q213 -79 231 -79Z" glyph-name="parenleft" horiz-adv-x="306" unicode="(" /><glyph d="M43 50V319Q43 362 66.5 385Q90 408 134 408H174V328H148Q143 328 140 325Q137 322 137 316V53Q137 47 140 44Q143 41 148 41H174V-39H134Q90 -39 66.5 -16Q43 7 43 50Z" glyph-name="parenleft.denominator" horiz-adv-x="212" unicode="&#63020;" /><glyph d="M43 -100V169Q43 212 66.5 235Q90 258 134 258H174V178H148Q143 178 140 175Q137 172 137 166V-97Q137 -103 140 -106Q143 -109 148 -109H174V-189H134Q90 -189 66.5 -166Q43 -143 43 -100Z" glyph-name="parenleft.inferior" horiz-adv-x="212" unicode="&#8333;" /><glyph d="M43 378V647Q43 690 66.5 713Q90 736 134 736H174V656H148Q143 656 140 653Q137 650 137 644V381Q137 375 140 372Q143 369 148 369H174V289H134Q90 289 66.5 312Q43 335 43 378Z" glyph-name="parenleft.numerator" horiz-adv-x="212" unicode="&#63025;" /><glyph d="M43 529V798Q43 841 66.5 864Q90 887 134 887H174V807H148Q143 807 140 804Q137 801 137 795V532Q137 526 140 523Q143 520 148 520H174V440H134Q90 440 66.5 463Q43 486 43 529Z" glyph-name="parenleft.superior" horiz-adv-x="212" unicode="&#8317;" /><glyph d="M96 -190H38V-79H74Q93 -79 102 -69.5Q111 -60 111 -40V620Q111 640 102 649.5Q93 659 74 659H40V770H96Q166 770 203.5 732Q241 694 241 623V-43Q241 -114 203.5 -152Q166 -190 96 -190Z" glyph-name="parenright" horiz-adv-x="305" unicode=")" /><glyph d="M168 319V50Q168 7 144.5 -16Q121 -39 77 -39H37V41H63Q69 41 72 44Q75 47 75 53V316Q75 322 72 325Q69 328 63 328H37V408H77Q121 408 144.5 385Q168 362 168 319Z" glyph-name="parenright.denominator" horiz-adv-x="212" unicode="&#63021;" /><glyph d="M168 169V-100Q168 -143 144.5 -166Q121 -189 77 -189H37V-109H63Q69 -109 72 -106Q75 -103 75 -97V166Q75 172 72 175Q69 178 63 178H37V258H77Q121 258 144.5 235Q168 212 168 169Z" glyph-name="parenright.inferior" horiz-adv-x="212" unicode="&#8334;" /><glyph d="M168 647V378Q168 335 144.5 312Q121 289 77 289H37V369H63Q69 369 72 372Q75 375 75 381V644Q75 650 72 653Q69 656 63 656H37V736H77Q121 736 144.5 713Q168 690 168 647Z" glyph-name="parenright.numerator" horiz-adv-x="212" unicode="&#63026;" /><glyph d="M168 798V529Q168 486 144.5 463Q121 440 77 440H37V520H63Q69 520 72 523Q75 526 75 532V795Q75 801 72 804Q69 807 63 807H37V887H77Q121 887 144.5 864Q168 841 168 798Z" glyph-name="parenright.superior" horiz-adv-x="212" unicode="&#8318;" /><glyph d="M333 -4H192Q124 -4 88 32Q52 68 52 137V343Q52 403 83.5 434.5Q115 466 175 466H243Q264 466 280 461.5Q296 457 318 444L350 423V557Q350 575 341 584Q332 593 314 593H100V697H332Q400 697 436.5 660.5Q473 624 473 556V137Q473 68 437 32Q401 -4 333 -4ZM212 100H314Q332 100 341 109Q350 118 350 136V307L292 345Q276 355 267.5 357.5Q259 360 247 360H210Q192 360 183.5 351Q175 342 175 324V136Q175 118 184 109Q193 100 212 100Z" glyph-name="partialdiff" horiz-adv-x="529" unicode="&#8706;" /><glyph d="M469 88V283Q469 325 492.5 348.5Q516 372 559 372H656Q700 372 723 349Q746 326 746 283V88Q746 44 723 21Q700 -2 656 -2H559Q516 -2 492.5 21.5Q469 45 469 88ZM564 274V95Q564 87 569 82Q574 77 582 77H634Q643 77 648 82Q653 87 653 95V274Q653 282 648 287Q643 292 634 292H582Q574 292 569 287Q564 282 564 274ZM37 416V611Q37 653 60.5 676.5Q84 700 127 700H224Q268 700 291 677Q314 654 314 611V416Q314 372 291 349Q268 326 224 326H127Q84 326 60.5 349.5Q37 373 37 416ZM132 602V423Q132 415 137 410Q142 405 150 405H202Q211 405 216 410Q221 415 221 423V602Q221 610 216 615Q211 620 202 620H150Q142 620 137 615Q132 610 132 602ZM652 701 225 -4H130L557 701Z" glyph-name="percent" horiz-adv-x="783" unicode="%" /><glyph d="M189 0H57V146H189Z" glyph-name="period" horiz-adv-x="246" unicode="." /><glyph d="M136 0H43V98H136Z" glyph-name="period.denominator" horiz-adv-x="179" unicode="&#63072;" /><glyph d="M136 328H43V426H136Z" glyph-name="period.numerator" horiz-adv-x="179" unicode="&#63084;" /><glyph d="M189 224H57V370H189Z" glyph-name="periodcentered" horiz-adv-x="247" unicode="&#183;" /><glyph d="M469 88V283Q469 325 492.5 348.5Q516 372 559 372H656Q700 372 723 349Q746 326 746 283V88Q746 44 723 21Q700 -2 656 -2H559Q516 -2 492.5 21.5Q469 45 469 88ZM564 274V95Q564 87 569 82Q574 77 582 77H634Q643 77 648 82Q653 87 653 95V274Q653 282 648 287Q643 292 634 292H582Q574 292 569 287Q564 282 564 274ZM37 416V611Q37 653 60.5 676.5Q84 700 127 700H224Q268 700 291 677Q314 654 314 611V416Q314 372 291 349Q268 326 224 326H127Q84 326 60.5 349.5Q37 373 37 416ZM132 602V423Q132 415 137 410Q142 405 150 405H202Q211 405 216 410Q221 415 221 423V602Q221 610 216 615Q211 620 202 620H150Q142 620 137 615Q132 610 132 602ZM802 88V283Q802 325 825.5 348.5Q849 372 892 372H989Q1033 372 1056 349Q1079 326 1079 283V88Q1079 44 1056 21Q1033 -2 989 -2H892Q849 -2 825.5 21.5Q802 45 802 88ZM897 274V95Q897 87 902 82Q907 77 915 77H967Q976 77 981 82Q986 87 986 95V274Q986 282 981 287Q976 292 967 292H915Q907 292 902 287Q897 282 897 274ZM652 701 225 -4H130L557 701Z" glyph-name="perthousand" horiz-adv-x="1113" unicode="&#8240;" /><glyph d="M413 250H213V0H84V697H413Q484 697 522 659Q560 621 560 550V397Q560 326 522 288Q484 250 413 250ZM392 585H213V363H392Q411 363 420.5 373Q430 383 430 402V546Q430 565 420.5 575Q411 585 392 585ZM844 106H940V0H825Q757 0 721 36Q685 72 685 141V395H611V502H685V640H808V502H938V395H808V142Q808 124 817 115Q826 106 844 106ZM992 125V162H1112V124Q1112 107 1121 99Q1130 91 1149 91H1242Q1261 91 1270 98.5Q1279 106 1279 121V162Q1279 173 1273.5 179Q1268 185 1256 188L1067 235Q1035 243 1016.5 266.5Q998 290 998 325V388Q998 447 1034 478Q1070 509 1139 509H1253Q1320 509 1355.5 476Q1391 443 1391 380V351H1271V381Q1271 398 1262 406.5Q1253 415 1234 415H1155Q1137 415 1127.5 407.5Q1118 400 1118 386V345Q1118 334 1122 329Q1126 324 1138 321L1320 277Q1358 268 1378 245.5Q1398 223 1398 190V117Q1398 58 1362 27Q1326 -4 1258 -4H1131Q1064 -4 1028 29.5Q992 63 992 125Z" glyph-name="peseta" horiz-adv-x="1440" unicode="&#8359;" /><glyph d="M512 0H389V399H213V0H90V399H24V505H579V399H512Z" glyph-name="pi" horiz-adv-x="603" unicode="&#960;" /><glyph d="M429 396V301H292V165H197V301H62V396H197V532H292V396Z" glyph-name="plus" horiz-adv-x="491" unicode="+" /><glyph d="M429 469V375H292V259H197V375H62V469H197V586H292V469ZM62 111V206H429V111Z" glyph-name="plusminus" horiz-adv-x="491" unicode="&#177;" /><glyph d="M571 0H441V584H213V0H84V697H571Z" glyph-name="product" horiz-adv-x="655" unicode="&#8719;" /><glyph d="M473 505V-190H350V39L318 18Q298 5 282.5 0.5Q267 -4 245 -4H175Q115 -4 83.5 27.5Q52 59 52 119V386Q52 446 83.5 477.5Q115 509 175 509H245Q265 509 280.5 505Q296 501 318 487L356 463L362 505ZM211 102H247Q260 102 269 104.5Q278 107 292 117L350 156V350L292 388Q278 398 269 400.5Q260 403 247 403H211Q193 403 184 394Q175 385 175 367V138Q175 120 184 111Q193 102 211 102Z" glyph-name="q" horiz-adv-x="531" unicode="q" /><glyph d="M239 363 354 433Q369 442 374.5 450.5Q380 459 380 470V551Q380 571 370.5 580.5Q361 590 341 590H191Q172 590 162.5 580Q153 570 153 551V483H28V556Q28 626 66 663.5Q104 701 175 701H361Q432 701 470 664Q508 627 508 557V467Q508 431 490.5 405Q473 379 419 346L335 296Q318 286 313 278Q308 270 308 260V207H193V280Q193 310 203 328.5Q213 347 239 363ZM316 0H185V146H316Z" glyph-name="question" horiz-adv-x="541" unicode="?" /><glyph d="M299 142 184 72Q169 63 163.5 54.5Q158 46 158 35V-46Q158 -66 167.5 -75.5Q177 -85 197 -85H347Q366 -85 375.5 -75Q385 -65 385 -46V22H510V-51Q510 -121 472 -158.5Q434 -196 363 -196H177Q106 -196 68 -159Q30 -122 30 -52V38Q30 74 47.5 100Q65 126 119 159L203 209Q220 219 225 227Q230 235 230 245V298H345V225Q345 195 335 176.5Q325 158 299 142ZM222 505H353V359H222Z" glyph-name="questiondown" horiz-adv-x="536" unicode="&#191;" /><glyph d="M165 620 146 421H70L51 620V697H165ZM324 620 306 421H229L210 620V697H324Z" glyph-name="quotedbl" horiz-adv-x="375" unicode="&quot;" /><glyph d="M67.6966 146.6144H194.2356V105.7896L103.8506 -95.4861H30.5912ZM247.6966 146.6144H374.2356V105.7896L283.8506 -95.4861H210.5912Z" glyph-name="quotedblbase" horiz-adv-x="424" unicode="&#8222;" /><glyph d="M165.4517 455.274H39.203V496.1317L129.3807 697.5694H202.4721ZM345.4517 455.274H219.203V496.1317L309.3807 697.5694H382.4721Z" glyph-name="quotedblleft" horiz-adv-x="422" unicode="&#8220;" /><glyph d="M81.6966 696.6144H208.2356V655.7896L117.8506 454.5139H44.5912ZM261.6966 696.6144H388.2356V655.7896L297.8506 454.5139H224.5912Z" glyph-name="quotedblright" horiz-adv-x="418" unicode="&#8221;" /><glyph d="M165.4 455.3H39.05V496.15L129.3 697.55H202.45Z" glyph-name="quoteleft" horiz-adv-x="242" unicode="&#8216;" /><glyph d="M81.6 696.7H207.95V655.85L117.7 454.45H44.55Z" glyph-name="quoteright" horiz-adv-x="238" unicode="&#8217;" /><glyph d="M67.6 146.7H193.95V105.85L103.7 -95.55H30.55Z" glyph-name="quotesinglbase" horiz-adv-x="243" unicode="&#8218;" /><glyph d="M168 620 149 421H70L51 620V697H168Z" glyph-name="quotesingle" horiz-adv-x="219" unicode="'" /><glyph d="M181 326V0H58V505H169L176 451L217 487Q231 500 247 504.5Q263 509 291 509H367V403H295Q279 403 270 400Q261 397 250 388Z" glyph-name="r" horiz-adv-x="371" unicode="r" /><glyph d="M213 697H335V674L247 565H165ZM181 326V0H58V505H169L176 451L217 487Q231 500 247 504.5Q263 509 291 509H367V403H295Q279 403 270 400Q261 397 250 388Z" glyph-name="racute" horiz-adv-x="371" unicode="&#341;" /><glyph d="M104 408H17V505H198L323 97L489 697H594L372 -73H260Z" glyph-name="radical" horiz-adv-x="598" unicode="&#8730;" /><glyph d="M248 565H159L65 697H149L203 636L257 697H342ZM181 326V0H58V505H169L176 451L217 487Q231 500 247 504.5Q263 509 291 509H367V403H295Q279 403 270 400Q261 397 250 388Z" glyph-name="rcaron" horiz-adv-x="371" unicode="&#345;" /><glyph d="M56 358V587Q56 641 85.5 671Q115 701 169 701H389Q443 701 473 671Q503 641 503 587V358Q503 304 473 274Q443 244 389 244H169Q115 244 85.5 273.5Q56 303 56 358ZM377 642H182Q150 642 135 627Q120 612 120 581V364Q120 333 135.5 317.5Q151 302 182 302H377Q408 302 423 317Q438 332 438 364V581Q438 613 423.5 627.5Q409 642 377 642ZM300 540H251V481H300Q309 481 313.5 485.5Q318 490 318 499V521Q318 531 313.5 535.5Q309 540 300 540ZM251 418V343H171V604H310Q353 604 376 583.5Q399 563 399 525V496Q399 474 390.5 457Q382 440 366 431L400 343H309L284 418Z" glyph-name="registered" horiz-adv-x="559" unicode="&#174;" /><glyph d="M138 748H185Q228 748 251 727.5Q274 707 274 668V626Q274 587 251 566Q228 545 185 545H138Q95 545 72.5 565.5Q50 586 50 626V668Q50 707 72.5 727.5Q95 748 138 748ZM181 686H142Q130 686 124 680Q118 674 118 662V630Q118 619 124 613Q130 607 142 607H181Q193 607 199 613Q205 619 205 630V662Q205 674 199 680Q193 686 181 686Z" glyph-name="ring" horiz-adv-x="323" unicode="&#730;" /><glyph d="M131 932H178Q221 932 243.5 911.5Q266 891 266 852V811Q266 771 243.5 750.5Q221 730 178 730H131Q88 730 65 751Q42 772 42 811V852Q42 891 65 911.5Q88 932 131 932ZM174 871H135Q123 871 117 865Q111 859 111 847V815Q111 804 117 798Q123 792 135 792H174Q186 792 192 798Q198 804 198 815V847Q198 859 192 865Q186 871 174 871Z" glyph-name="ring.case" horiz-adv-x="308" /><glyph d="M41 125V162H161V124Q161 107 170 99Q179 91 198 91H291Q310 91 319 98.5Q328 106 328 121V162Q328 173 322.5 179Q317 185 305 188L117 235Q85 243 66 266.5Q47 290 47 325V388Q47 447 83 478Q119 509 188 509H302Q369 509 404.5 476Q440 443 440 380V351H320V381Q320 398 311 406.5Q302 415 283 415H205Q186 415 176.5 407.5Q167 400 167 386V345Q167 334 171.5 328.5Q176 323 187 321L369 277Q407 268 427 245.5Q447 223 447 190V117Q447 58 411.5 27Q376 -4 307 -4H180Q113 -4 77 29.5Q41 63 41 125Z" glyph-name="s" horiz-adv-x="489" unicode="s" /><glyph d="M239 697H361V674L273 565H191ZM41 125V162H161V124Q161 107 170 99Q179 91 198 91H291Q310 91 319 98.5Q328 106 328 121V162Q328 173 322.5 179Q317 185 305 188L117 235Q85 243 66 266.5Q47 290 47 325V388Q47 447 83 478Q119 509 188 509H302Q369 509 404.5 476Q440 443 440 380V351H320V381Q320 398 311 406.5Q302 415 283 415H205Q186 415 176.5 407.5Q167 400 167 386V345Q167 334 171.5 328.5Q176 323 187 321L369 277Q407 268 427 245.5Q447 223 447 190V117Q447 58 411.5 27Q376 -4 307 -4H180Q113 -4 77 29.5Q41 63 41 125Z" glyph-name="sacute" horiz-adv-x="489" unicode="&#347;" /><glyph d="M287 565H198L104 697H188L242 636L296 697H381ZM41 125V162H161V124Q161 107 170 99Q179 91 198 91H291Q310 91 319 98.5Q328 106 328 121V162Q328 173 322.5 179Q317 185 305 188L117 235Q85 243 66 266.5Q47 290 47 325V388Q47 447 83 478Q119 509 188 509H302Q369 509 404.5 476Q440 443 440 380V351H320V381Q320 398 311 406.5Q302 415 283 415H205Q186 415 176.5 407.5Q167 400 167 386V345Q167 334 171.5 328.5Q176 323 187 321L369 277Q407 268 427 245.5Q447 223 447 190V117Q447 58 411.5 27Q376 -4 307 -4H180Q113 -4 77 29.5Q41 63 41 125Z" glyph-name="scaron" horiz-adv-x="489" unicode="&#353;" /><glyph d="M41 125V162H161V124Q161 107 170 99Q179 91 198 91H291Q310 91 319 98.5Q328 106 328 121V162Q328 173 322.5 179Q317 185 305 188L117 235Q85 243 66 266.5Q47 290 47 325V388Q47 447 83 478Q119 509 188 509H302Q369 509 404.5 476Q440 443 440 380V351H320V381Q320 398 311 406.5Q302 415 283 415H205Q186 415 176.5 407.5Q167 400 167 386V345Q167 334 171.5 328.5Q176 323 187 321L369 277Q407 268 427 245.5Q447 223 447 190V117Q447 58 411.5 27Q376 -4 307 -4H262L250 -38H275Q315 -38 335 -53.5Q355 -69 355 -100V-134Q355 -165 335 -180.5Q315 -196 276 -196H151V-134H265Q273 -134 276.5 -131Q280 -128 280 -121V-113Q280 -106 276.5 -102.5Q273 -99 265 -99H187Q175 -99 169 -94Q163 -89 163 -78V-68Q163 -64 164 -59.5Q165 -55 168 -48L186 -4H180Q113 -4 77 29.5Q41 63 41 125Z" glyph-name="scedilla" horiz-adv-x="490" unicode="&#351;" /><glyph d="M381 565H296L242 626L188 565H104L198 697H287ZM41 125V162H161V124Q161 107 170 99Q179 91 198 91H291Q310 91 319 98.5Q328 106 328 121V162Q328 173 322.5 179Q317 185 305 188L117 235Q85 243 66 266.5Q47 290 47 325V388Q47 447 83 478Q119 509 188 509H302Q369 509 404.5 476Q440 443 440 380V351H320V381Q320 398 311 406.5Q302 415 283 415H205Q186 415 176.5 407.5Q167 400 167 386V345Q167 334 171.5 328.5Q176 323 187 321L369 277Q407 268 427 245.5Q447 223 447 190V117Q447 58 411.5 27Q376 -4 307 -4H180Q113 -4 77 29.5Q41 63 41 125Z" glyph-name="scircumflex" horiz-adv-x="489" unicode="&#349;" /><glyph d="M211 252 348 203V79L135 153Q96 167 76 195Q56 223 56 265V557Q56 627 94 664Q132 701 203 701H385Q455 701 492.5 664Q530 627 530 557V494H402V557Q402 575 392 583.5Q382 592 362 592H223Q204 592 194 583Q184 574 184 557V288Q184 274 190 266Q196 258 211 252ZM375 255 238 303V428L451 354Q489 341 509.5 312.5Q530 284 530 241V-50Q530 -120 491.5 -157Q453 -194 382 -194H200Q130 -194 93 -157Q56 -120 56 -50V13H184V-50Q184 -68 193.5 -76.5Q203 -85 223 -85H362Q382 -85 392 -76Q402 -67 402 -50V218Q402 233 395.5 241.5Q389 250 375 255Z" glyph-name="section" horiz-adv-x="586" unicode="&#167;" /><glyph d="M208 359H76V505H208ZM75 146H208V103L113 -109H36Z" glyph-name="semicolon" horiz-adv-x="267" unicode=";" /><glyph d="M492 596 251 0H116L357 584H19V697H492Z" glyph-name="seven" horiz-adv-x="510" unicode="7" /><glyph d="M297 297 169 0H73L201 288H20V369H297Z" glyph-name="seven.denominator" horiz-adv-x="316" unicode="&#63068;" /><glyph d="M296 147 168 -150H72L200 138H19V219H296Z" glyph-name="seven.inferior" horiz-adv-x="315" unicode="&#8327;" /><glyph d="M297 625 169 328H73L201 616H20V697H297Z" glyph-name="seven.numerator" horiz-adv-x="316" unicode="&#63080;" /><glyph d="M297 776 169 479H73L201 767H20V848H297Z" glyph-name="seven.superior" horiz-adv-x="316" unicode="&#8311;" /><glyph d="M529 596 288 0H154L395 584H56V697H529Z" glyph-name="seven.tab" horiz-adv-x="586" unicode="&#65303;" /><glyph d="M514 266V143Q514 72 476 34Q438 -4 367 -4H209Q138 -4 100 34Q62 72 62 143V554Q62 625 100 663Q138 701 209 701H366Q435 701 472.5 663.5Q510 626 510 557V498H383V553Q383 571 373 580.5Q363 590 344 590H230Q211 590 201 580Q191 570 191 551V410H369Q439 410 476.5 373Q514 336 514 266ZM230 107H345Q365 107 374.5 117Q384 127 384 146V261Q384 280 375 289Q366 298 347 298H191V146Q191 127 201 117Q211 107 230 107Z" glyph-name="six" horiz-adv-x="566" unicode="6" /><glyph d="M308 141V88Q308 44 285 21Q262 -2 218 -2H130Q86 -2 63 21Q40 44 40 88V282Q40 326 63.5 349Q87 372 130 372H217Q260 372 283.5 349Q307 326 307 283V258H215V277Q215 285 210.5 289.5Q206 294 197 294H153Q144 294 139.5 289Q135 284 135 275V218H225Q265 218 286.5 198Q308 178 308 141ZM153 75H196Q205 75 210 80Q215 85 215 94V124Q215 133 210 138Q205 143 197 143H135V94Q135 85 139.5 80Q144 75 153 75Z" glyph-name="six.denominator" horiz-adv-x="345" unicode="&#63067;" /><glyph d="M309 -9V-62Q309 -106 286 -129Q263 -152 219 -152H131Q87 -152 64 -129Q41 -106 41 -62V132Q41 176 64.5 199Q88 222 131 222H218Q261 222 284.5 199Q308 176 308 133V108H216V127Q216 135 211.5 139.5Q207 144 198 144H154Q145 144 140.5 139Q136 134 136 125V68H226Q266 68 287.5 48Q309 28 309 -9ZM154 -75H197Q206 -75 211 -70Q216 -65 216 -56V-26Q216 -17 211 -12Q206 -7 198 -7H136V-56Q136 -65 140.5 -70Q145 -75 154 -75Z" glyph-name="six.inferior" horiz-adv-x="346" unicode="&#8326;" /><glyph d="M308 469V416Q308 372 285 349Q262 326 218 326H130Q86 326 63 349Q40 372 40 416V610Q40 654 63.5 677Q87 700 130 700H217Q260 700 283.5 677Q307 654 307 611V586H215V605Q215 613 210.5 617.5Q206 622 197 622H153Q144 622 139.5 617Q135 612 135 603V546H225Q265 546 286.5 526Q308 506 308 469ZM153 403H196Q205 403 210 408Q215 413 215 422V452Q215 461 210 466Q205 471 197 471H135V422Q135 413 139.5 408Q144 403 153 403Z" glyph-name="six.numerator" horiz-adv-x="345" unicode="&#63079;" /><glyph d="M308 620V567Q308 523 285 500Q262 477 218 477H130Q86 477 63 500Q40 523 40 567V761Q40 805 63.5 828Q87 851 130 851H217Q260 851 283.5 828Q307 805 307 762V737H215V756Q215 764 210.5 768.5Q206 773 197 773H153Q144 773 139.5 768Q135 763 135 754V697H225Q265 697 286.5 677Q308 657 308 620ZM153 554H196Q205 554 210 559Q215 564 215 573V603Q215 612 210 617Q205 622 197 622H135V573Q135 564 139.5 559Q144 554 153 554Z" glyph-name="six.superior" horiz-adv-x="345" unicode="&#8310;" /><glyph d="M524 266V143Q524 72 486 34Q448 -4 377 -4H218Q147 -4 109 34Q71 72 71 143V554Q71 625 109 663Q147 701 218 701H376Q445 701 482 664Q519 627 519 557V498H393V553Q393 571 383 580.5Q373 590 354 590H240Q221 590 211 580.5Q201 571 201 551V410H378Q449 410 486.5 373Q524 336 524 266ZM240 107H355Q375 107 384.5 117Q394 127 394 146V261Q394 280 385 289Q376 298 357 298H201V146Q201 127 211 117Q221 107 240 107Z" glyph-name="six.tab" horiz-adv-x="586" unicode="&#65302;" /><glyph d="M439 770 139 -73H20L320 770Z" glyph-name="slash" horiz-adv-x="460" unicode="/" /><glyph glyph-name="space" horiz-adv-x="215" unicode=" " /><glyph d="M560 113V0H46V113H113V294H46V386H113V557Q113 627 151 664Q189 701 260 701H402Q473 701 511 664Q549 627 549 557V483H421V551Q421 570 411.5 580Q402 590 383 590H282Q263 590 253 580.5Q243 571 243 551V386H373V294H243V113Z" glyph-name="sterling" horiz-adv-x="602" unicode="&#163;" /><glyph d="M506 697V584H207L357 356L187 113H517V0H38V108L211 357L51 588V697Z" glyph-name="summation" horiz-adv-x="555" unicode="&#8721;" /><glyph d="M253 106H349V0H233Q165 0 129 36Q93 72 93 140V395H20V502H93V640H217V502H347V395H217V142Q217 124 226 115Q235 106 253 106Z" glyph-name="t" horiz-adv-x="375" unicode="t" /><glyph d="M95 246H24V330H95V395H22V502H95V640H219V502H349V395H219V330H347V246H219V142Q219 124 228 115Q237 106 255 106H351V0H235Q167 0 131 36Q95 72 95 140Z" glyph-name="tbar" horiz-adv-x="379" unicode="&#359;" /><glyph d="M300 697H413V658L343 539H275ZM253 106H349V0H233Q165 0 129 36Q93 72 93 140V395H20V502H93V640H217V502H347V395H217V142Q217 124 226 115Q235 106 253 106Z" glyph-name="tcaron" horiz-adv-x="375" unicode="&#357;" /><glyph d="M213 18 181 39V-192H58V697H181V466L213 487Q235 500 250.5 504.5Q266 509 287 509H356Q416 509 448 477.5Q480 446 480 386V119Q480 60 448 28Q416 -4 356 -4H287Q266 -4 250.5 0.5Q235 5 213 18ZM285 102H321Q339 102 348 111Q357 120 357 138V367Q357 385 348 394Q339 403 321 403H285Q274 403 266.5 401Q259 399 240 388L181 350V156L240 117Q259 106 266.5 104Q274 102 285 102Z" glyph-name="thorn" horiz-adv-x="532" unicode="&#254;" /><glyph d="M352 -4H189Q120 -4 83 33Q46 70 46 139V200H172V142Q172 124 182 115Q192 106 211 106H330Q350 106 359.5 115.5Q369 125 369 144V269Q369 287 360 295.5Q351 304 332 304H195V412H318Q336 412 345.5 421.5Q355 431 355 449V553Q355 572 345 581.5Q335 591 316 591H214Q195 591 185 582Q175 573 175 555V497H48V558Q48 627 85 664Q122 701 192 701H338Q409 701 447 664Q485 627 485 557V471Q485 431 470 405Q455 379 425 366Q462 355 480.5 327.5Q499 300 499 257V141Q499 71 461 33.5Q423 -4 352 -4Z" glyph-name="three" horiz-adv-x="555" unicode="3" /><glyph d="M221 -2H121Q79 -2 56 19Q33 40 33 80V110H125V93Q125 85 129.5 80.5Q134 76 143 76H198Q207 76 212 81Q217 86 217 94V139Q217 147 212.5 151.5Q208 156 199 156H124V222H192Q201 222 205.5 226.5Q210 231 210 239V275Q210 283 205 288Q200 293 191 293H145Q136 293 131 288.5Q126 284 126 276V260H36V280Q36 324 58.5 348Q81 372 123 372H214Q256 372 279 349.5Q302 327 302 285V254Q302 231 293.5 216.5Q285 202 267 195Q288 188 298.5 173Q309 158 309 134V78Q309 38 287 18Q265 -2 221 -2Z" glyph-name="three.denominator" horiz-adv-x="348" unicode="&#63064;" /><glyph d="M221 -152H121Q79 -152 56 -131Q33 -110 33 -70V-40H125V-57Q125 -65 129.5 -69.5Q134 -74 143 -74H198Q207 -74 212 -69Q217 -64 217 -56V-11Q217 -3 212.5 1.5Q208 6 199 6H124V72H192Q201 72 205.5 76.5Q210 81 210 89V125Q210 133 205 138Q200 143 191 143H145Q136 143 131 138.5Q126 134 126 126V110H36V130Q36 174 58.5 198Q81 222 123 222H214Q256 222 279 199.5Q302 177 302 135V104Q302 81 293.5 66.5Q285 52 267 45Q288 38 298.5 23Q309 8 309 -16V-72Q309 -112 287 -132Q265 -152 221 -152Z" glyph-name="three.inferior" horiz-adv-x="348" unicode="&#8323;" /><glyph d="M221 326H121Q79 326 56 347Q33 368 33 408V438H125V421Q125 413 129.5 408.5Q134 404 143 404H198Q207 404 212 409Q217 414 217 422V467Q217 475 212.5 479.5Q208 484 199 484H124V550H192Q201 550 205.5 554.5Q210 559 210 567V603Q210 611 205 616Q200 621 191 621H145Q136 621 131 616.5Q126 612 126 604V588H36V608Q36 652 58.5 676Q81 700 123 700H214Q256 700 279 677.5Q302 655 302 613V582Q302 559 293.5 544.5Q285 530 267 523Q288 516 298.5 501Q309 486 309 462V406Q309 366 287 346Q265 326 221 326Z" glyph-name="three.numerator" horiz-adv-x="348" unicode="&#63076;" /><glyph d="M368 -4H205Q136 -4 99 33Q62 70 62 139V200H188V142Q188 124 198 115Q208 106 227 106H346Q366 106 375.5 115.5Q385 125 385 144V269Q385 287 376 295.5Q367 304 348 304H211V412H334Q352 412 361.5 421.5Q371 431 371 449V553Q371 572 361 581.5Q351 591 332 591H230Q211 591 201 582Q191 573 191 555V497H64V558Q64 627 101 664Q138 701 208 701H354Q425 701 463 664Q501 627 501 557V471Q501 431 486 405Q471 379 441 366Q478 355 496.5 327.5Q515 300 515 257V141Q515 71 477 33.5Q439 -4 368 -4Z" glyph-name="three.tab" horiz-adv-x="586" unicode="&#65299;" /><glyph d="M714 144V72H671V0H583V72H413V144L589 369H671V144ZM500 144H583V250ZM664 701 237 -4H142L569 701ZM222 326H122Q80 326 57 347Q34 368 34 408V438H126V421Q126 413 130.5 408.5Q135 404 144 404H199Q208 404 213 409Q218 414 218 422V467Q218 475 213.5 479.5Q209 484 200 484H125V550H193Q202 550 206.5 554.5Q211 559 211 567V603Q211 611 206 616Q201 621 192 621H146Q137 621 132 616.5Q127 612 127 604V588H37V608Q37 652 59.5 676Q82 700 124 700H215Q257 700 280 677.5Q303 655 303 613V582Q303 559 294.5 544.5Q286 530 268 523Q289 516 299.5 501Q310 486 310 462V406Q310 366 288 346Q266 326 222 326Z" glyph-name="threequarters" horiz-adv-x="745" unicode="&#190;" /><glyph d="M221 477H121Q79 477 56 498Q33 519 33 559V589H125V572Q125 564 129.5 559.5Q134 555 143 555H198Q207 555 212 560Q217 565 217 573V618Q217 626 212.5 630.5Q208 635 199 635H124V701H192Q201 701 205.5 705.5Q210 710 210 718V754Q210 762 205 767Q200 772 191 772H145Q136 772 131 767.5Q126 763 126 755V739H36V759Q36 803 58.5 827Q81 851 123 851H214Q256 851 279 828.5Q302 806 302 764V733Q302 710 293.5 695.5Q285 681 267 674Q288 667 298.5 652Q309 637 309 613V557Q309 517 287 497Q265 477 221 477Z" glyph-name="threesuperior" horiz-adv-x="348" unicode="&#179;" /><glyph d="M285 646H294Q303 646 307.5 650.5Q312 655 312 664V697H382V641Q382 607 364.5 589Q347 571 314 571H285Q276 571 268 572.5Q260 574 233 585L175 612Q163 618 156.5 620Q150 622 144 622H135Q126 622 121.5 617.5Q117 613 117 604V571H46V627Q46 661 63.5 679.5Q81 698 114 698H146Q154 698 162.5 696Q171 694 195 684L253 657Q265 652 273 649Q281 646 285 646Z" glyph-name="tilde" horiz-adv-x="428" unicode="&#732;" /><glyph d="M277 822H286Q295 822 299.5 826.5Q304 831 304 840V873H374V817Q374 783 356.5 765Q339 747 306 747H277Q268 747 260 748.5Q252 750 225 761L167 788Q155 794 148.5 796Q142 798 136 798H127Q118 798 113.5 793.5Q109 789 109 780V747H39V804Q39 838 56 856Q73 874 106 874H138Q145 874 153 872.5Q161 871 188 860L245 833Q257 828 265 825Q273 822 277 822Z" glyph-name="tilde.case" horiz-adv-x="413" /><glyph d="M341 697V615H232V247H138V615H27V697ZM632 383H555L490 513V247H399V697H490L594 486L697 697H788V247H697V515Z" glyph-name="trademark" horiz-adv-x="854" unicode="&#8482;" /><glyph d="M506 113V0H53V195Q53 250 78.5 284Q104 318 159 338L336 401Q354 407 360 416.5Q366 426 366 443V551Q366 571 356.5 580.5Q347 590 327 590H222Q203 590 193 580.5Q183 571 183 551V467H57V554Q57 625 95 663Q133 701 204 701H349Q420 701 458 663Q496 625 496 554V439Q496 390 473 358Q450 326 402 309L214 241Q196 234 189.5 225.5Q183 217 183 196V113Z" glyph-name="two" horiz-adv-x="553" unicode="2" /><glyph d="M312 81V0H38V101Q38 136 54 157Q70 178 104 188L199 217Q206 219 209.5 224.5Q213 230 213 238V274Q213 282 208 287Q203 292 195 292H149Q140 292 135 287Q130 282 130 274V244H40V284Q40 327 63 349.5Q86 372 129 372H216Q260 372 283 349.5Q306 327 306 283V233Q306 203 290.5 182.5Q275 162 247 153L144 119Q137 117 134 112.5Q131 108 131 98V81Z" glyph-name="two.denominator" horiz-adv-x="348" unicode="&#63063;" /><glyph d="M312 -69V-150H38V-49Q38 -14 54 7Q70 28 104 38L199 67Q206 69 209.5 74.5Q213 80 213 88V124Q213 132 208 137Q203 142 195 142H149Q140 142 135 137Q130 132 130 124V94H40V134Q40 177 63 199.5Q86 222 129 222H216Q260 222 283 199.5Q306 177 306 133V83Q306 53 290.5 32.5Q275 12 247 3L144 -31Q137 -33 134 -37.5Q131 -42 131 -52V-69Z" glyph-name="two.inferior" horiz-adv-x="348" unicode="&#8322;" /><glyph d="M312 409V328H38V429Q38 464 54 485Q70 506 104 516L199 545Q206 547 209.5 552.5Q213 558 213 566V602Q213 610 208 615Q203 620 195 620H149Q140 620 135 615Q130 610 130 602V572H40V612Q40 655 63 677.5Q86 700 129 700H216Q260 700 283 677.5Q306 655 306 611V561Q306 531 290.5 510.5Q275 490 247 481L144 447Q137 445 134 440.5Q131 436 131 426V409Z" glyph-name="two.numerator" horiz-adv-x="348" unicode="&#63075;" /><glyph d="M523 113V0H69V195Q69 250 95 284Q121 318 176 338L352 401Q370 407 376.5 416.5Q383 426 383 443V551Q383 570 373 580Q363 590 344 590H239Q220 590 210 580.5Q200 571 200 551V467H73V554Q73 625 111 663Q149 701 220 701H365Q436 701 474 663Q512 625 512 554V439Q512 390 489 358Q466 326 418 309L231 241Q213 234 206 225Q199 216 199 196V113Z" glyph-name="two.tab" horiz-adv-x="586" unicode="&#65298;" /><glyph d="M312 560V479H38V580Q38 615 54 636Q70 657 104 667L199 696Q206 698 209.5 703.5Q213 709 213 717V753Q213 761 208 766Q203 771 195 771H149Q140 771 135 766Q130 761 130 753V723H40V763Q40 806 63 828.5Q86 851 129 851H216Q260 851 283 828.5Q306 806 306 762V712Q306 682 290.5 661.5Q275 641 247 632L144 598Q137 596 134 591.5Q131 587 131 577V560Z" glyph-name="twosuperior" horiz-adv-x="348" unicode="&#178;" /><glyph d="M356 43 318 18Q296 5 280.5 0.5Q265 -4 244 -4H180Q120 -4 88 27.5Q56 59 56 119V505H179V138Q179 120 188 111Q197 102 215 102H246Q257 102 264.5 104Q272 106 291 117L350 156V505H473V0H362Z" glyph-name="u" horiz-adv-x="531" unicode="u" /><glyph d="M267 697H389V674L301 565H219ZM356 43 318 18Q296 5 280.5 0.5Q265 -4 244 -4H180Q120 -4 88 27.5Q56 59 56 119V505H179V138Q179 120 188 111Q197 102 215 102H246Q257 102 264.5 104Q272 106 291 117L350 156V505H473V0H362Z" glyph-name="uacute" horiz-adv-x="531" unicode="&#250;" /><glyph d="M356 43 318 18Q296 5 280.5 0.5Q265 -4 244 -4H180Q120 -4 88 27.5Q56 59 56 119V505H179V138Q179 120 188 111Q197 102 215 102H246Q257 102 264.5 104Q272 106 291 117L350 156V505H473V0H362ZM321 651V710H402V646Q402 601 376 577.5Q350 554 301 554H232Q183 554 157 577.5Q131 601 131 646V710H211V651Q211 637 218.5 630Q226 623 241 623H292Q306 623 313.5 630Q321 637 321 651Z" glyph-name="ubreve" horiz-adv-x="531" unicode="&#365;" /><glyph d="M405 565H320L266 626L212 565H128L222 697H311ZM356 43 318 18Q296 5 280.5 0.5Q265 -4 244 -4H180Q120 -4 88 27.5Q56 59 56 119V505H179V138Q179 120 188 111Q197 102 215 102H246Q257 102 264.5 104Q272 106 291 117L350 156V505H473V0H362Z" glyph-name="ucircumflex" horiz-adv-x="531" unicode="&#251;" /><glyph d="M239 578H149V682H239ZM384 578H294V682H384ZM356 43 318 18Q296 5 280.5 0.5Q265 -4 244 -4H180Q120 -4 88 27.5Q56 59 56 119V505H179V138Q179 120 188 111Q197 102 215 102H246Q257 102 264.5 104Q272 106 291 117L350 156V505H473V0H362Z" glyph-name="udieresis" horiz-adv-x="531" unicode="&#252;" /><glyph d="M356 43 318 18Q296 5 280.5 0.5Q265 -4 244 -4H180Q120 -4 88 27.5Q56 59 56 119V505H179V138Q179 120 188 111Q197 102 215 102H246Q257 102 264.5 104Q272 106 291 117L350 156V505H473V0H362ZM230 565 143 674V697H265L313 565Z" glyph-name="ugrave" horiz-adv-x="531" unicode="&#249;" /><glyph d="M356 43 318 18Q296 5 280.5 0.5Q265 -4 244 -4H180Q120 -4 88 27.5Q56 59 56 119V505H179V138Q179 120 188 111Q197 102 215 102H246Q257 102 264.5 104Q272 106 291 117L350 156V505H473V0H362ZM200 697H306V674L227 565H160ZM363 697H470V674L352 565H286Z" glyph-name="uhungarumlaut" horiz-adv-x="532" unicode="&#369;" /><glyph d="M356 43 318 18Q296 5 280.5 0.5Q265 -4 244 -4H180Q120 -4 88 27.5Q56 59 56 119V505H179V138Q179 120 188 111Q197 102 215 102H246Q257 102 264.5 104Q272 106 291 117L350 156V505H473V0H362ZM393 586H141V670H393Z" glyph-name="umacron" horiz-adv-x="531" unicode="&#363;" /><glyph d="M47 -181V-81H416V-181Z" glyph-name="underscore" horiz-adv-x="463" unicode="_" /><glyph glyph-name="uni00A0" horiz-adv-x="215" unicode="&#160;" /><glyph d="M58 233V339H318V233Z" glyph-name="uni00AD" horiz-adv-x="376" unicode="&#173;" /><glyph d="M240 -37H364V-77L282 -237H209ZM539 355V143Q539 72 501 34Q463 -4 392 -4H208Q137 -4 99 34Q61 72 61 143V554Q61 625 99 663Q137 701 208 701H392Q463 701 501 663Q539 625 539 554V482H411V551Q411 571 401.5 580.5Q392 590 372 590H230Q211 590 201 580.5Q191 571 191 551V146Q191 127 201 117Q211 107 230 107H372Q392 107 401.5 117Q411 127 411 146V252H309V355Z" glyph-name="uni0122" horiz-adv-x="593" unicode="&#290;" /><glyph d="M303 567H179V607L261 767H334ZM332 -194H198Q132 -194 96.5 -160Q61 -126 61 -62V-38H181V-60Q181 -78 190 -87Q199 -96 217 -96H315Q334 -96 343 -87Q352 -78 352 -60V64L318 42Q296 28 280.5 24Q265 20 245 20H175Q115 20 83.5 51.5Q52 83 52 143V386Q52 446 83.5 477.5Q115 509 175 509H245Q265 509 280.5 505Q296 501 318 487L358 461L365 505H473V-54Q473 -123 437 -158.5Q401 -194 332 -194ZM209 126H247Q258 126 265.5 128Q273 130 292 141L352 181V349L292 388Q273 399 265.5 401Q258 403 247 403H209Q191 403 182 394Q173 385 173 367V162Q173 144 182 135Q191 126 209 126Z" glyph-name="uni0123" horiz-adv-x="532" unicode="&#291;" /><glyph d="M251 -37H375V-77L293 -237H220ZM417 157 288 305H201V0H71V697H201V414H299L421 534Q429 541 432.5 552Q436 563 436 580V697H560V557Q560 536 553 518Q546 500 533 487L402 360L540 201Q552 186 557 171.5Q562 157 562 138V0H432V113Q432 129 429 138Q426 147 417 157Z" glyph-name="uni0136" horiz-adv-x="605" unicode="&#310;" /><glyph d="M206 -37H330V-77L248 -237H175ZM345 115 239 220H181V0H58V697H181V326H232L344 404Q355 412 359.5 419.5Q364 427 364 437V505H476V417Q476 395 463.5 375Q451 355 417 332L337 277L442 177Q464 156 474 137Q484 118 484 95V0H365V74Q365 86 360 95.5Q355 105 345 115Z" glyph-name="uni0137" horiz-adv-x="521" unicode="&#311;" /><glyph d="M218 -37H342V-77L260 -237H187ZM485 0H71V697H201V113H485Z" glyph-name="uni013B" horiz-adv-x="496" unicode="&#315;" /><glyph d="M58 -37H182V-77L100 -237H27ZM58 0V697H182V0Z" glyph-name="uni013C" horiz-adv-x="240" unicode="&#316;" /><glyph d="M259 -37H383V-77L301 -237H228ZM562 0H443L193 450V0H71V697H191L440 248V697H562Z" glyph-name="uni0145" horiz-adv-x="633" unicode="&#325;" /><glyph d="M210 -37H334V-77L252 -237H179ZM321 403H285Q273 403 264.5 400.5Q256 398 240 388L181 349V0H58V505H169L175 462L213 487Q233 500 249 504.5Q265 509 287 509H356Q416 509 448 477.5Q480 446 480 386V0H357V367Q357 385 348 394Q339 403 321 403Z" glyph-name="uni0146" horiz-adv-x="536" unicode="&#326;" /><glyph d="M241 -37H365V-77L283 -237H210ZM549 0H410L324 269H201V0H71V697H400Q471 697 509 659Q547 621 547 550V416Q547 361 524 325.5Q501 290 456 276ZM379 587H201V379H379Q398 379 407.5 388.5Q417 398 417 418V548Q417 567 407.5 577Q398 587 379 587Z" glyph-name="uni0156" horiz-adv-x="597" unicode="&#342;" /><glyph d="M58 -37H182V-77L100 -237H27ZM181 326V0H58V505H169L176 451L217 487Q231 500 247 504.5Q263 509 291 509H367V403H295Q279 403 270 400Q261 397 250 388Z" glyph-name="uni0157" horiz-adv-x="371" unicode="&#343;" /><glyph d="M494 697V584H323V0H292L279 -38H304Q344 -38 364 -53.5Q384 -69 384 -100V-134Q384 -165 364 -180.5Q344 -196 305 -196H180V-134H294Q302 -134 305.5 -131Q309 -128 309 -121V-113Q309 -106 305.5 -102.5Q302 -99 294 -99H216Q204 -99 198 -94Q192 -89 192 -78V-68Q192 -64 193 -59.5Q194 -55 197 -48L216 0H193V584H21V697Z" glyph-name="uni0162" horiz-adv-x="515" unicode="&#354;" /><glyph d="M253 106H349V0H237L224 -38H249Q289 -38 309 -53.5Q329 -69 329 -100V-134Q329 -165 309 -180.5Q289 -196 250 -196H125V-134H239Q247 -134 250.5 -131Q254 -128 254 -121V-113Q254 -106 250.5 -102.5Q247 -99 239 -99H161Q149 -99 143 -94Q137 -89 137 -78V-68Q137 -64 138 -59.5Q139 -55 142 -48L166 11Q130 26 111.5 58.5Q93 91 93 140V395H20V502H93V640H217V502H347V395H217V142Q217 124 226 115Q235 106 253 106Z" glyph-name="uni0163" horiz-adv-x="374" unicode="&#355;" /><glyph d="M235 -37H359V-77L277 -237H204ZM54 458V559Q54 628 92 664.5Q130 701 201 701H384Q453 701 490.5 664.5Q528 628 528 559V488H400V557Q400 574 390 583Q380 592 361 592H221Q202 592 192 583Q182 574 182 557V478Q182 460 188 452Q194 444 210 440L438 381Q485 368 510 338Q535 308 535 263V138Q535 69 497 32.5Q459 -4 388 -4H192Q122 -4 85 32.5Q48 69 48 138V203H176V140Q176 123 186 114Q196 105 215 105H367Q387 105 396.5 113.5Q406 122 406 140V237Q406 252 399.5 260Q393 268 377 272L144 333Q100 344 77 376Q54 408 54 458Z" glyph-name="uni0218" horiz-adv-x="585" unicode="&#536;" /><glyph d="M182 -37H306V-77L224 -237H151ZM41 125V162H161V124Q161 107 170 99Q179 91 198 91H291Q310 91 319 98.5Q328 106 328 121V162Q328 173 322.5 179Q317 185 305 188L117 235Q85 243 66 266.5Q47 290 47 325V388Q47 447 83 478Q119 509 188 509H302Q369 509 404.5 476Q440 443 440 380V351H320V381Q320 398 311 406.5Q302 415 283 415H205Q186 415 176.5 407.5Q167 400 167 386V345Q167 334 171.5 328.5Q176 323 187 321L369 277Q407 268 427 245.5Q447 223 447 190V117Q447 58 411.5 27Q376 -4 307 -4H180Q113 -4 77 29.5Q41 63 41 125Z" glyph-name="uni0219" horiz-adv-x="489" unicode="&#537;" /><glyph d="M197 -37H321V-77L239 -237H166ZM494 697V584H323V0H193V584H21V697Z" glyph-name="uni021A" horiz-adv-x="515" unicode="&#538;" /><glyph d="M157 -37H281V-77L199 -237H126ZM253 106H349V0H233Q165 0 129 36Q93 72 93 140V395H20V502H93V640H217V502H347V395H217V142Q217 124 226 115Q235 106 253 106Z" glyph-name="uni021B" horiz-adv-x="375" unicode="&#539;" /><glyph d="M41 -190H-45V-84H22Q40 -84 49 -74.5Q58 -65 58 -47V505H181V-49Q181 -118 145 -154Q109 -190 41 -190Z" glyph-name="uni0237" horiz-adv-x="239" unicode="&#567;" /><glyph d="M296 586H44V670H296Z" glyph-name="uni02C9" horiz-adv-x="340" unicode="&#713;" /><glyph d="M559 0H34L230 697H363ZM401 108 293 528 185 108Z" glyph-name="uni0394" horiz-adv-x="592" unicode="&#916;" /><glyph d="M257 102V0H51V94H118Q94 121 82 159.5Q70 198 70 247V554Q70 625 108 663Q146 701 217 701H414Q485 701 523 663Q561 625 561 554V247Q561 196 549 158Q537 120 512 94H578V0H373V102Q405 108 418 131.5Q431 155 431 214V551Q431 571 421.5 580.5Q412 590 392 590H239Q220 590 210 580.5Q200 571 200 551V214Q200 155 212.5 131Q225 107 257 102Z" glyph-name="uni03A9" horiz-adv-x="630" unicode="&#937;" /><glyph d="M181 -190H58V505H181V138Q181 120 190 111Q199 102 217 102H248Q259 102 266.5 104Q274 106 293 117L352 155V505H475V0H364L358 43L320 18Q298 5 282.5 0.5Q267 -4 246 -4H193Q189 -4 185 -3.5Q181 -3 176 -2Q178 -30 179.5 -52.5Q181 -75 181 -89Z" glyph-name="uni03BC" horiz-adv-x="533" unicode="&#956;" /><glyph d="M112 140V192L73 163L19 253L112 321V564Q112 629 147.5 663Q183 697 250 697H314Q387 697 421 666Q455 635 455 570V519Q455 485 440 454Q425 423 402 406L235 283V142Q235 124 244.5 115Q254 106 272 106H445V-1H253Q185 -1 148.5 35.5Q112 72 112 140ZM235 562V412L313 469Q328 481 333.5 491.5Q339 502 339 515V564Q339 582 330 590.5Q321 599 302 599H272Q254 599 244.5 589.5Q235 580 235 562Z" glyph-name="uni2113" horiz-adv-x="488" unicode="&#8467;" /><glyph d="M38 328V409H129V616H38V697H222V409H308V328ZM675 701 248 -4H153L580 701ZM673 -2H573Q531 -2 508 19Q485 40 485 80V110H577V93Q577 85 581.5 80.5Q586 76 595 76H650Q659 76 664 81Q669 86 669 94V139Q669 147 664.5 151.5Q660 156 651 156H576V222H644Q653 222 657.5 226.5Q662 231 662 239V275Q662 283 657 288Q652 293 643 293H597Q588 293 583 288.5Q578 284 578 276V260H488V280Q488 324 510.5 348Q533 372 575 372H666Q708 372 731 349.5Q754 327 754 285V254Q754 231 745.5 216.5Q737 202 719 195Q740 188 750.5 173Q761 158 761 134V78Q761 38 739 18Q717 -2 673 -2Z" glyph-name="uni2153" horiz-adv-x="796" unicode="&#8531;" /><glyph d="M312 409V328H38V429Q38 464 54 485Q70 506 104 516L199 545Q206 547 209.5 552.5Q213 558 213 566V602Q213 610 208 615Q203 620 195 620H149Q140 620 135 615Q130 610 130 602V572H40V612Q40 655 63 677.5Q86 700 129 700H216Q260 700 283 677.5Q306 655 306 611V561Q306 531 290.5 510.5Q275 490 247 481L144 447Q137 445 134 440.5Q131 436 131 426V409ZM676 701 249 -4H154L581 701ZM674 -2H574Q532 -2 509 19Q486 40 486 80V110H578V93Q578 85 582.5 80.5Q587 76 596 76H651Q660 76 665 81Q670 86 670 94V139Q670 147 665.5 151.5Q661 156 652 156H577V222H645Q654 222 658.5 226.5Q663 231 663 239V275Q663 283 658 288Q653 293 644 293H598Q589 293 584 288.5Q579 284 579 276V260H489V280Q489 324 511.5 348Q534 372 576 372H667Q709 372 732 349.5Q755 327 755 285V254Q755 231 746.5 216.5Q738 202 720 195Q741 188 751.5 173Q762 158 762 134V78Q762 38 740 18Q718 -2 674 -2Z" glyph-name="uni2154" horiz-adv-x="797" unicode="&#8532;" /><glyph d="M675 701 248 -4H153L580 701ZM678 -2H588Q546 -2 523 21.5Q500 45 500 89V107H591V92Q591 84 596 79.5Q601 75 610 75H656Q665 75 670 79.5Q675 84 675 93V139Q675 147 670 152Q665 157 656 157H515V369H752V290H604V232H678Q721 232 744.5 209Q768 186 768 145V89Q768 44 745 21Q722 -2 678 -2ZM38 328V409H129V616H38V697H222V409H308V328Z" glyph-name="uni2155" horiz-adv-x="801" unicode="&#8533;" /><glyph d="M312 409V328H38V429Q38 464 54 485Q70 506 104 516L199 545Q206 547 209.5 552.5Q213 558 213 566V602Q213 610 208 615Q203 620 195 620H149Q140 620 135 615Q130 610 130 602V572H40V612Q40 655 63 677.5Q86 700 129 700H216Q260 700 283 677.5Q306 655 306 611V561Q306 531 290.5 510.5Q275 490 247 481L144 447Q137 445 134 440.5Q131 436 131 426V409ZM676 701 249 -4H154L581 701ZM679 -2H589Q547 -2 524 21.5Q501 45 501 89V107H592V92Q592 84 597 79.5Q602 75 611 75H657Q666 75 671 79.5Q676 84 676 93V139Q676 147 671 152Q666 157 657 157H516V369H753V290H605V232H679Q722 232 745.5 209Q769 186 769 145V89Q769 44 746 21Q723 -2 679 -2Z" glyph-name="uni2156" horiz-adv-x="802" unicode="&#8534;" /><glyph d="M663 701 236 -4H141L568 701ZM665 -2H575Q533 -2 510 21.5Q487 45 487 89V107H578V92Q578 84 583 79.5Q588 75 597 75H643Q652 75 657 79.5Q662 84 662 93V139Q662 147 657 152Q652 157 643 157H502V369H739V290H591V232H665Q708 232 731.5 209Q755 186 755 145V89Q755 44 732 21Q709 -2 665 -2ZM221 326H121Q79 326 56 347Q33 368 33 408V438H125V421Q125 413 129.5 408.5Q134 404 143 404H198Q207 404 212 409Q217 414 217 422V467Q217 475 212.5 479.5Q208 484 199 484H124V550H192Q201 550 205.5 554.5Q210 559 210 567V603Q210 611 205 616Q200 621 191 621H145Q136 621 131 616.5Q126 612 126 604V588H36V608Q36 652 58.5 676Q81 700 123 700H214Q256 700 279 677.5Q302 655 302 613V582Q302 559 293.5 544.5Q285 530 267 523Q288 516 298.5 501Q309 486 309 462V406Q309 366 287 346Q265 326 221 326Z" glyph-name="uni2157" horiz-adv-x="789" unicode="&#8535;" /><glyph d="M327 472V400H284V328H196V400H26V472L202 697H284V472ZM113 472H196V578ZM670 701 243 -4H148L575 701ZM672 -2H582Q540 -2 517 21.5Q494 45 494 89V107H585V92Q585 84 590 79.5Q595 75 604 75H650Q659 75 664 79.5Q669 84 669 93V139Q669 147 664 152Q659 157 650 157H509V369H746V290H598V232H672Q715 232 738.5 209Q762 186 762 145V89Q762 44 739 21Q716 -2 672 -2Z" glyph-name="uni2158" horiz-adv-x="799" unicode="&#8536;" /><glyph d="M754 141V88Q754 44 731 21Q708 -2 664 -2H576Q532 -2 509 21Q486 44 486 88V282Q486 326 509.5 349Q533 372 576 372H663Q706 372 729.5 349Q753 326 753 283V258H661V277Q661 285 656.5 289.5Q652 294 643 294H599Q590 294 585.5 289Q581 284 581 275V218H671Q711 218 732.5 198Q754 178 754 141ZM599 75H642Q651 75 656 80Q661 85 661 94V124Q661 133 656 138Q651 143 643 143H581V94Q581 85 585.5 80Q590 75 599 75ZM38 328V409H129V616H38V697H222V409H308V328ZM675 701 248 -4H153L580 701Z" glyph-name="uni2159" horiz-adv-x="791" unicode="&#8537;" /><glyph d="M713 141V88Q713 44 690 21Q667 -2 623 -2H535Q491 -2 468 21Q445 44 445 88V282Q445 326 468.5 349Q492 372 535 372H622Q665 372 688.5 349Q712 326 712 283V258H620V277Q620 285 615.5 289.5Q611 294 602 294H558Q549 294 544.5 289Q540 284 540 275V218H630Q670 218 691.5 198Q713 178 713 141ZM558 75H601Q610 75 615 80Q620 85 620 94V124Q620 133 615 138Q610 143 602 143H540V94Q540 85 544.5 80Q549 75 558 75ZM634 701 207 -4H112L539 701ZM211 326H121Q79 326 56 349.5Q33 373 33 417V435H124V420Q124 412 129 407.5Q134 403 143 403H189Q198 403 203 407.5Q208 412 208 421V467Q208 475 203 480Q198 485 189 485H48V697H285V618H137V560H211Q254 560 277.5 537Q301 514 301 473V417Q301 372 278 349Q255 326 211 326Z" glyph-name="uni215A" horiz-adv-x="750" unicode="&#8538;" /><glyph d="M675 701 248 -4H153L580 701ZM680 -2H571Q531 -2 510 19Q489 40 489 79V137Q489 160 499 174.5Q509 189 529 194Q514 201 506.5 214.5Q499 228 499 249V291Q499 330 520 351Q541 372 580 372H672Q711 372 731.5 351Q752 330 752 291V249Q752 228 744.5 214.5Q737 201 722 194Q741 188 750 173.5Q759 159 759 137V79Q759 39 738.5 18.5Q718 -2 680 -2ZM586 277V246Q586 237 591.5 231.5Q597 226 606 226H644Q654 226 659 231Q664 236 664 246V277Q664 287 659 292Q654 297 644 297H606Q597 297 591.5 291.5Q586 286 586 277ZM652 152H598Q589 152 583.5 146.5Q578 141 578 132V92Q578 82 583 77Q588 72 598 72H652Q662 72 666.5 77Q671 82 671 92V132Q671 142 666 147Q661 152 652 152ZM38 328V409H129V616H38V697H222V409H308V328Z" glyph-name="uni215B" horiz-adv-x="794" unicode="&#8539;" /><glyph d="M667 -2H558Q518 -2 497 19Q476 40 476 79V137Q476 160 486 174.5Q496 189 516 194Q501 201 493.5 214.5Q486 228 486 249V291Q486 330 507 351Q528 372 567 372H659Q698 372 718.5 351Q739 330 739 291V249Q739 228 731.5 214.5Q724 201 709 194Q728 188 737 173.5Q746 159 746 137V79Q746 39 725.5 18.5Q705 -2 667 -2ZM573 277V246Q573 237 578.5 231.5Q584 226 593 226H631Q641 226 646 231Q651 236 651 246V277Q651 287 646 292Q641 297 631 297H593Q584 297 578.5 291.5Q573 286 573 277ZM639 152H585Q576 152 570.5 146.5Q565 141 565 132V92Q565 82 570 77Q575 72 585 72H639Q649 72 653.5 77Q658 82 658 92V132Q658 142 653 147Q648 152 639 152ZM663 701 236 -4H141L568 701ZM221 326H121Q79 326 56 347Q33 368 33 408V438H125V421Q125 413 129.5 408.5Q134 404 143 404H198Q207 404 212 409Q217 414 217 422V467Q217 475 212.5 479.5Q208 484 199 484H124V550H192Q201 550 205.5 554.5Q210 559 210 567V603Q210 611 205 616Q200 621 191 621H145Q136 621 131 616.5Q126 612 126 604V588H36V608Q36 652 58.5 676Q81 700 123 700H214Q256 700 279 677.5Q302 655 302 613V582Q302 559 293.5 544.5Q285 530 267 523Q288 516 298.5 501Q309 486 309 462V406Q309 366 287 346Q265 326 221 326Z" glyph-name="uni215C" horiz-adv-x="781" unicode="&#8540;" /><glyph d="M211 326H121Q79 326 56 349.5Q33 373 33 417V435H124V420Q124 412 129 407.5Q134 403 143 403H189Q198 403 203 407.5Q208 412 208 421V467Q208 475 203 480Q198 485 189 485H48V697H285V618H137V560H211Q254 560 277.5 537Q301 514 301 473V417Q301 372 278 349Q255 326 211 326ZM639 -2H530Q490 -2 469 19Q448 40 448 79V137Q448 160 458 174.5Q468 189 488 194Q473 201 465.5 214.5Q458 228 458 249V291Q458 330 479 351Q500 372 539 372H631Q670 372 690.5 351Q711 330 711 291V249Q711 228 703.5 214.5Q696 201 681 194Q700 188 709 173.5Q718 159 718 137V79Q718 39 697.5 18.5Q677 -2 639 -2ZM545 277V246Q545 237 550.5 231.5Q556 226 565 226H603Q613 226 618 231Q623 236 623 246V277Q623 287 618 292Q613 297 603 297H565Q556 297 550.5 291.5Q545 286 545 277ZM611 152H557Q548 152 542.5 146.5Q537 141 537 132V92Q537 82 542 77Q547 72 557 72H611Q621 72 625.5 77Q630 82 630 92V132Q630 142 625 147Q620 152 611 152ZM634 701 207 -4H112L539 701Z" glyph-name="uni215D" horiz-adv-x="753" unicode="&#8541;" /><glyph d="M304 625 176 328H80L208 616H27V697H304ZM607 -2H498Q458 -2 437 19Q416 40 416 79V137Q416 160 426 174.5Q436 189 456 194Q441 201 433.5 214.5Q426 228 426 249V291Q426 330 447 351Q468 372 507 372H599Q638 372 658.5 351Q679 330 679 291V249Q679 228 671.5 214.5Q664 201 649 194Q668 188 677 173.5Q686 159 686 137V79Q686 39 665.5 18.5Q645 -2 607 -2ZM513 277V246Q513 237 518.5 231.5Q524 226 533 226H571Q581 226 586 231Q591 236 591 246V277Q591 287 586 292Q581 297 571 297H533Q524 297 518.5 291.5Q513 286 513 277ZM579 152H525Q516 152 510.5 146.5Q505 141 505 132V92Q505 82 510 77Q515 72 525 72H579Q589 72 593.5 77Q598 82 598 92V132Q598 142 593 147Q588 152 579 152ZM602 701 175 -4H80L507 701Z" glyph-name="uni215E" horiz-adv-x="724" unicode="&#8542;" /><glyph d="M36 328V409H127V616H36V697H220V409H306V328ZM674 701 247 -4H152L579 701Z" glyph-name="uni215F" horiz-adv-x="665" unicode="&#8543;" /><glyph d="M514 701 87 -4H-8L419 701Z" glyph-name="uni2215" horiz-adv-x="506" unicode="&#8725;" /><glyph d="M254.2734 174H57.1301V391.2407H254.2734Z" glyph-name="uni2219" horiz-adv-x="312" unicode="&#8729;" /><glyph d="M351 488H389Q395 488 397.5 485.5Q400 483 400 477V471Q416 483 429.5 487.5Q443 492 458 492Q474 492 487.5 485.5Q501 479 509 466Q525 480 540 486Q555 492 573 492Q599 492 614.5 477Q630 462 630 438V306Q630 300 627.5 297.5Q625 295 618 295H580Q573 295 570 297.5Q567 300 567 306V422Q567 432 564 435Q561 438 553 438Q544 438 534 434Q524 430 515 423V306Q515 300 512.5 297.5Q510 295 504 295H466Q459 295 456.5 297.5Q454 300 454 306V422Q454 432 451 435Q448 438 439 438Q430 438 420 433.5Q410 429 402 423V306Q402 300 400 297.5Q398 295 392 295H351Q345 295 342.5 297.5Q340 300 340 306V477Q340 483 342.5 485.5Q345 488 351 488ZM1018 488H1054Q1061 488 1063.5 485.5Q1066 483 1066 477L1067 470Q1082 482 1096 487Q1110 492 1127 492Q1155 492 1169.5 476.5Q1184 461 1184 432V352Q1184 322 1169.5 306Q1155 290 1127 290Q1111 290 1097 295Q1083 300 1069 311V228Q1069 222 1066.5 219.5Q1064 217 1058 217H1018Q1012 217 1009.5 219.5Q1007 222 1007 228V477Q1007 483 1009.5 485.5Q1012 488 1018 488ZM225 492Q266 492 286.5 477Q307 462 307 431V388Q307 382 304 379.5Q301 377 295 377H202V354Q202 345 207.5 340.5Q213 336 225 336Q237 336 243.5 340.5Q250 345 250 354V355Q250 361 252.5 363.5Q255 366 261 366H293Q299 366 302 363.5Q305 361 305 355V352Q305 321 285 305.5Q265 290 225 290Q184 290 162 306Q140 322 140 352V431Q140 461 161.5 476.5Q183 492 225 492ZM1299 492Q1340 492 1360.5 477Q1381 462 1381 431V388Q1381 382 1378.5 379.5Q1376 377 1370 377H1276V354Q1276 345 1281.5 340.5Q1287 336 1299 336Q1311 336 1317 340.5Q1323 345 1323 354V355Q1323 361 1326 363.5Q1329 366 1335 366H1367Q1373 366 1375.5 363.5Q1378 361 1378 355V352Q1378 321 1358.5 305.5Q1339 290 1299 290Q1258 290 1236.5 306Q1215 322 1215 352V431Q1215 461 1236 476.5Q1257 492 1299 492ZM861 477 883 407Q886 396 888 384.5Q890 373 890 370Q891 371 894 382.5Q897 394 900 405L924 477Q926 484 928.5 486Q931 488 936 488H973Q980 488 982.5 485Q985 482 984 477L900 228Q898 223 894.5 220Q891 217 886 217H858Q851 217 848.5 220Q846 223 847 228L863 287L798 477Q796 482 798.5 485Q801 488 809 488H849Q854 488 856.5 486Q859 484 861 477ZM742 523V487H773Q779 487 781.5 485Q784 483 784 477V450Q784 444 781.5 441.5Q779 439 773 439H742V362Q742 353 748 348.5Q754 344 766 344H776Q782 344 785 341.5Q788 339 788 333V306Q788 300 785 297.5Q782 295 776 295H757Q715 295 697 308.5Q679 322 679 355V439H662Q656 439 653.5 441.5Q651 444 651 450V475Q651 479 653 481.5Q655 484 662 486L678 487H679V523Q679 529 682 532Q685 535 691 535H730Q737 535 739.5 532.5Q742 530 742 523ZM415 195Q449 195 466 183Q483 171 483 147V98Q483 97 482 95.5Q481 94 479 94H365V46Q365 29 377.5 21Q390 13 415 13Q439 13 451 21Q463 29 463 46V54Q463 56 464 57Q465 58 469 58H478Q481 58 482 57Q483 56 483 54V45Q483 20 466 8.5Q449 -3 414 -3Q379 -3 362 9Q345 21 345 45V147Q345 171 362.5 183Q380 195 415 195ZM165 188V171Q182 183 198.5 189Q215 195 232 195Q258 195 272 182.5Q286 170 286 149V5Q286 3 285 1.5Q284 0 282 0H271Q269 0 268 0.5Q267 1 267 5V145Q267 160 257 168Q247 176 228 176Q210 176 193 169.5Q176 163 166 153V5Q166 3 165 1.5Q164 0 162 0H151Q148 0 147 1Q146 2 146 5V188Q146 190 147 191Q148 192 151 192H160Q163 192 164 191Q165 190 165 188ZM567 232V191H614Q617 191 617.5 190Q618 189 618 187V179Q618 176 617 175Q616 174 614 174H567V50Q567 34 579.5 25.5Q592 17 617 17H623Q625 17 626.5 15.5Q628 14 628 12V5Q628 3 626.5 1.5Q625 0 623 0H614Q579 0 563.5 11Q548 22 548 48V174H523Q521 174 520 175Q519 176 519 179V186Q519 188 520 189Q521 190 523 191H548V232Q548 235 548.5 236Q549 237 552 237H563Q564 236 565 234.5Q566 233 567 232ZM415 178Q390 178 377.5 170Q365 162 365 146V110H463V146Q463 162 451 170Q439 178 415 178ZM1106 344Q1115 344 1119 348Q1123 352 1123 361V423Q1123 431 1119 434.5Q1115 438 1106 438Q1099 438 1091.5 435Q1084 432 1069 423V360Q1087 349 1093.5 346.5Q1100 344 1106 344ZM225 446Q213 446 207.5 441.5Q202 437 202 428V417H250V428Q250 437 243.5 441.5Q237 446 225 446ZM1299 446Q1287 446 1281.5 441.5Q1276 437 1276 428V417H1323V428Q1323 437 1317 441.5Q1311 446 1299 446ZM81 35V5Q81 2 80 1Q79 0 76 0H65Q63 0 62 1Q61 2 61 5V35Q61 38 62 39Q63 40 65 40H76Q79 40 80 39Q81 38 81 35Z" glyph-name="uniF8FF" horiz-adv-x="1442" unicode="&#63743;" /><glyph d="M356 43 318 18Q296 5 280.5 0.5Q265 -4 244 -4H180Q120 -4 88 27.5Q56 59 56 119V505H179V138Q179 120 188 111Q197 102 215 102H246Q257 102 264.5 104Q272 106 291 117L350 156V505H473V0H458L375 -57Q365 -63 361 -69.5Q357 -76 357 -85V-102Q357 -113 363 -118Q369 -123 382 -123H472V-190H364Q320 -190 297 -172Q274 -154 274 -119V-96Q274 -75 283.5 -58Q293 -41 319 -24L361 4Z" glyph-name="uogonek" horiz-adv-x="531" unicode="&#371;" /><glyph d="M239 748H286Q329 748 352 727.5Q375 707 375 668V626Q375 587 352 566Q329 545 286 545H239Q196 545 173.5 565.5Q151 586 151 626V668Q151 707 173.5 727.5Q196 748 239 748ZM282 686H243Q231 686 225 680Q219 674 219 662V630Q219 619 225 613Q231 607 243 607H282Q294 607 300 613Q306 619 306 630V662Q306 674 300 680Q294 686 282 686ZM356 43 318 18Q296 5 280.5 0.5Q265 -4 244 -4H180Q120 -4 88 27.5Q56 59 56 119V505H179V138Q179 120 188 111Q197 102 215 102H246Q257 102 264.5 104Q272 106 291 117L350 156V505H473V0H362Z" glyph-name="uring" horiz-adv-x="531" unicode="&#367;" /><glyph d="M356 43 318 18Q296 5 280.5 0.5Q265 -4 244 -4H180Q120 -4 88 27.5Q56 59 56 119V505H179V138Q179 120 188 111Q197 102 215 102H246Q257 102 264.5 104Q272 106 291 117L350 156V505H473V0H362ZM338 646H347Q356 646 360.5 650.5Q365 655 365 664V697H435V641Q435 607 417.5 589Q400 571 367 571H338Q329 571 321 572.5Q313 574 286 585L228 612Q216 618 209.5 620Q203 622 197 622H188Q179 622 174.5 617.5Q170 613 170 604V571H99V627Q99 661 116.5 679.5Q134 698 167 698H199Q207 698 215.5 696Q224 694 248 684L306 657Q318 652 326 649Q334 646 338 646Z" glyph-name="utilde" horiz-adv-x="531" unicode="&#361;" /><glyph d="M310 0H183L51 301Q43 318 40 330.5Q37 343 37 356V505H160V372Q160 360 161.5 351Q163 342 169 328L250 129L329 328Q334 339 335.5 348.5Q337 358 337 372V505H456V356Q456 344 453.5 331.5Q451 319 443 301Z" glyph-name="v" horiz-adv-x="494" unicode="v" /><glyph d="M292 0H169L51 302Q44 320 41 333Q38 346 38 357V505H157V372Q157 362 158 354Q159 346 165 329L234 139L301 329Q308 351 309 357.5Q310 364 310 372V505H427V372Q427 364 428 357.5Q429 351 436 329L503 139L570 329Q577 351 578 357.5Q579 364 579 372V505H695V357Q695 347 692.5 336Q690 325 681 302L565 0H442L367 196Z" glyph-name="w" horiz-adv-x="733" unicode="w" /><glyph d="M373 697H495V674L407 565H325ZM292 0H169L51 302Q44 320 41 333Q38 346 38 357V505H157V372Q157 362 158 354Q159 346 165 329L234 139L301 329Q308 351 309 357.5Q310 364 310 372V505H427V372Q427 364 428 357.5Q429 351 436 329L503 139L570 329Q577 351 578 357.5Q579 364 579 372V505H695V357Q695 347 692.5 336Q690 325 681 302L565 0H442L367 196Z" glyph-name="wacute" horiz-adv-x="733" unicode="&#7811;" /><glyph d="M506 565H421L367 626L313 565H229L323 697H412ZM292 0H169L51 302Q44 320 41 333Q38 346 38 357V505H157V372Q157 362 158 354Q159 346 165 329L234 139L301 329Q308 351 309 357.5Q310 364 310 372V505H427V372Q427 364 428 357.5Q429 351 436 329L503 139L570 329Q577 351 578 357.5Q579 364 579 372V505H695V357Q695 347 692.5 336Q690 325 681 302L565 0H442L367 196Z" glyph-name="wcircumflex" horiz-adv-x="733" unicode="&#373;" /><glyph d="M339 578H249V682H339ZM484 578H394V682H484ZM292 0H169L51 302Q44 320 41 333Q38 346 38 357V505H157V372Q157 362 158 354Q159 346 165 329L234 139L301 329Q308 351 309 357.5Q310 364 310 372V505H427V372Q427 364 428 357.5Q429 351 436 329L503 139L570 329Q577 351 578 357.5Q579 364 579 372V505H695V357Q695 347 692.5 336Q690 325 681 302L565 0H442L367 196Z" glyph-name="wdieresis" horiz-adv-x="733" unicode="&#7813;" /><glyph d="M292 0H169L51 302Q44 320 41 333Q38 346 38 357V505H157V372Q157 362 158 354Q159 346 165 329L234 139L301 329Q308 351 309 357.5Q310 364 310 372V505H427V372Q427 364 428 357.5Q429 351 436 329L503 139L570 329Q577 351 578 357.5Q579 364 579 372V505H695V357Q695 347 692.5 336Q690 325 681 302L565 0H442L367 196ZM327 565 240 674V697H362L410 565Z" glyph-name="wgrave" horiz-adv-x="733" unicode="&#7809;" /><glyph d="M153 69V0H37V79Q37 101 49.5 124Q62 147 95 178L177 254L84 336Q62 355 52 374Q42 393 42 415V505H160V435Q160 425 165 415.5Q170 406 180 397L260 326L335 400Q347 412 351 420Q355 428 355 436V505H471V420Q471 399 460 380Q449 361 413 329L335 259L435 170Q458 150 467.5 132Q477 114 477 92V0H358V71Q358 82 353.5 91Q349 100 338 110L250 189L173 108Q161 96 157 88Q153 80 153 69Z" glyph-name="x" horiz-adv-x="514" unicode="x" /><glyph d="M249 -152Q233 -172 212 -181Q191 -190 162 -190H68V-84H139Q153 -84 162.5 -76Q172 -68 179 -49L192 -17L51 301Q46 310 41.5 327Q37 344 37 358V505H160V372Q160 358 161.5 348.5Q163 339 168 328L250 131L329 328Q334 339 335.5 348.5Q337 358 337 372V505H456V358Q456 346 452.5 331.5Q449 317 442 301L294 -63Q277 -105 268 -122.5Q259 -140 249 -152Z" glyph-name="y" horiz-adv-x="495" unicode="y" /><glyph d="M249 -152Q233 -172 212 -181Q191 -190 162 -190H68V-84H139Q153 -84 162.5 -76Q172 -68 179 -49L192 -17L51 301Q46 310 41.5 327Q37 344 37 358V505H160V372Q160 358 161.5 348.5Q163 339 168 328L250 131L329 328Q334 339 335.5 348.5Q337 358 337 372V505H456V358Q456 346 452.5 331.5Q449 317 442 301L294 -63Q277 -105 268 -122.5Q259 -140 249 -152ZM254 697H376V674L288 565H206Z" glyph-name="yacute" horiz-adv-x="495" unicode="&#253;" /><glyph d="M249 -152Q233 -172 212 -181Q191 -190 162 -190H68V-84H139Q153 -84 162.5 -76Q172 -68 179 -49L192 -17L51 301Q46 310 41.5 327Q37 344 37 358V505H160V372Q160 358 161.5 348.5Q163 339 168 328L250 131L329 328Q334 339 335.5 348.5Q337 358 337 372V505H456V358Q456 346 452.5 331.5Q449 317 442 301L294 -63Q277 -105 268 -122.5Q259 -140 249 -152ZM381 565H296L242 626L188 565H104L198 697H287Z" glyph-name="ycircumflex" horiz-adv-x="495" unicode="&#375;" /><glyph d="M249 -152Q233 -172 212 -181Q191 -190 162 -190H68V-84H139Q153 -84 162.5 -76Q172 -68 179 -49L192 -17L51 301Q46 310 41.5 327Q37 344 37 358V505H160V372Q160 358 161.5 348.5Q163 339 168 328L250 131L329 328Q334 339 335.5 348.5Q337 358 337 372V505H456V358Q456 346 452.5 331.5Q449 317 442 301L294 -63Q277 -105 268 -122.5Q259 -140 249 -152ZM215 578H125V682H215ZM360 578H270V682H360Z" glyph-name="ydieresis" horiz-adv-x="495" unicode="&#255;" /><glyph d="M352 142V0H227V142H54V223H227V243L208 274H54V355H159L70 501Q63 513 58.5 529Q54 545 54 562V697H179V578Q179 562 181.5 551Q184 540 189 531L293 360L392 522Q398 532 400.5 543Q403 554 403 570V697H524V562Q524 545 519.5 529Q515 513 507 501L417 355H524V274H368L352 248V223H524V142Z" glyph-name="yen" horiz-adv-x="578" unicode="&#165;" /><glyph d="M434 413 189 102H443V0H33V92L277 403H42V505H434Z" glyph-name="z" horiz-adv-x="476" unicode="z" /><glyph d="M243 697H365V674L277 565H195ZM434 413 189 102H443V0H33V92L277 403H42V505H434Z" glyph-name="zacute" horiz-adv-x="476" unicode="&#378;" /><glyph d="M281 565H192L98 697H182L236 636L290 697H375ZM434 413 189 102H443V0H33V92L277 403H42V505H434Z" glyph-name="zcaron" horiz-adv-x="476" unicode="&#382;" /><glyph d="M434 413 189 102H443V0H33V92L277 403H42V505H434ZM293 576H180V704H293Z" glyph-name="zdotaccent" horiz-adv-x="476" unicode="&#380;" /><glyph d="M61 143V554Q61 625 99 663Q137 701 208 701H367Q438 701 476 663Q514 625 514 554V143Q514 72 476 34Q438 -4 367 -4H208Q137 -4 99 34Q61 72 61 143ZM230 107H345Q364 107 374 117Q384 127 384 147V550Q384 570 374 580Q364 590 345 590H230Q211 590 201 580Q191 570 191 550V147Q191 127 201 117Q211 107 230 107Z" glyph-name="zero" horiz-adv-x="575" unicode="0" /><glyph d="M40 88V283Q40 325 63.5 348.5Q87 372 130 372H227Q271 372 294 349Q317 326 317 283V88Q317 44 294 21Q271 -2 227 -2H130Q87 -2 63.5 21.5Q40 45 40 88ZM135 274V95Q135 87 140 82Q145 77 153 77H205Q214 77 219 82Q224 87 224 95V274Q224 282 219 287Q214 292 205 292H153Q145 292 140 287Q135 282 135 274Z" glyph-name="zero.denominator" horiz-adv-x="358" unicode="&#63061;" /><glyph d="M40 -62V133Q40 175 63.5 198.5Q87 222 130 222H227Q271 222 294 199Q317 176 317 133V-62Q317 -106 294 -129Q271 -152 227 -152H130Q87 -152 63.5 -128.5Q40 -105 40 -62ZM135 124V-55Q135 -63 140 -68Q145 -73 153 -73H205Q214 -73 219 -68Q224 -63 224 -55V124Q224 132 219 137Q214 142 205 142H153Q145 142 140 137Q135 132 135 124Z" glyph-name="zero.inferior" horiz-adv-x="358" unicode="&#8320;" /><glyph d="M40 416V611Q40 653 63.5 676.5Q87 700 130 700H227Q271 700 294 677Q317 654 317 611V416Q317 372 294 349Q271 326 227 326H130Q87 326 63.5 349.5Q40 373 40 416ZM135 602V423Q135 415 140 410Q145 405 153 405H205Q214 405 219 410Q224 415 224 423V602Q224 610 219 615Q214 620 205 620H153Q145 620 140 615Q135 610 135 602Z" glyph-name="zero.numerator" horiz-adv-x="358" unicode="&#63073;" /><glyph d="M40 567V762Q40 804 63.5 827.5Q87 851 130 851H227Q271 851 294 828Q317 805 317 762V567Q317 523 294 500Q271 477 227 477H130Q87 477 63.5 500.5Q40 524 40 567ZM135 753V574Q135 566 140 561Q145 556 153 556H205Q214 556 219 561Q224 566 224 574V753Q224 761 219 766Q214 771 205 771H153Q145 771 140 766Q135 761 135 753Z" glyph-name="zero.superior" horiz-adv-x="358" unicode="&#8304;" /><glyph d="M67 143V554Q67 625 105 663Q143 701 214 701H372Q443 701 481 663Q519 625 519 554V143Q519 72 481 34Q443 -4 372 -4H214Q143 -4 105 34Q67 72 67 143ZM236 107H351Q370 107 380 117.5Q390 128 390 147V550Q390 569 380 579.5Q370 590 351 590H236Q217 590 207 580Q197 570 197 550V147Q197 127 207 117Q217 107 236 107Z" glyph-name="zero.tab" horiz-adv-x="586" unicode="&#65296;" /></font>
</defs>
</svg>
