<?xml version="1.0" standalone="no"?><!DOCTYPE svg PUBLIC "-//W3C//DTD SVG 1.1//EN" "http://www.w3.org/Graphics/SVG/1.1/DTD/svg11.dtd" ><svg version="1.1" xmlns="http://www.w3.org/2000/svg"><defs><font horiz-adv-x="0" id="font"><font-face ascent="750" bbox="-155 -203 1376 936" cap-height="700" descent="-250" font-family="Web use ONLY | Copyright (C) Emtype Foundry" font-stretch="normal" font-weight="200" units-per-em="1000" x-height="505" /><missing-glyph d="M90 183V514Q90 604 138.5 652.5Q187 701 277 701H552Q642 701 690.5 652.5Q739 604 739 514V183Q739 93 690.5 44.5Q642 -4 552 -4H277Q187 -4 138.5 44.5Q90 93 90 183ZM552 675H277Q200 675 158.5 633.5Q117 592 117 516V181Q117 105 158.5 63.5Q200 22 277 22H552Q629 22 670.5 63Q712 104 712 181V516Q712 593 670.5 634Q629 675 552 675ZM282 492 417 372 549 493Q559 503 564 514Q569 525 569 539V580H603V536Q603 518 595.5 502Q588 486 575 474L439 352L582 226Q594 214 600 199Q606 184 606 166V114H572V163Q572 177 567 188Q562 199 552 209L414 332L278 209Q267 199 262.5 188Q258 177 258 162V114H224V163Q224 182 231.5 198.5Q239 215 252 227L391 351L252 476Q240 487 233.5 502.5Q227 518 227 535V580H262V538Q262 523 267 512Q272 501 282 492Z" horiz-adv-x="829" /><glyph d="M89 157V0H54V160Q54 177 57 194Q60 211 65 221L267 700H304L506 221Q510 212 513 194.5Q516 177 516 160V0H481V157Q481 164 480 172Q479 180 477 192H92Q91 184 90 175Q89 166 89 157ZM467 223 286 662 104 223Z" glyph-name="A" horiz-adv-x="571" unicode="A" /><glyph d="M79 157V0H44V160Q44 183 50.5 203.5Q57 224 69 240L427 697H852V665H477V379H831V347H477V32H862V0H441V192H82Q80 186 79.5 179Q79 172 79 157ZM441 662 103 230 97 223H441Z" glyph-name="AE" horiz-adv-x="906" unicode="&#198;" /><glyph d="M89 157V0H54V160Q54 177 57 194Q60 211 65 221L267 700H304L506 221Q510 212 513 194.5Q516 177 516 160V0H481V157Q481 164 480 172Q479 180 477 192H92Q91 184 90 175Q89 166 89 157ZM467 223 286 662 104 223ZM321 877H355V867L299 745H273Z" glyph-name="Aacute" horiz-adv-x="571" unicode="&#193;" /><glyph d="M89 157V0H54V160Q54 177 57 194Q60 211 65 221L267 700H304L506 221Q510 212 513 194.5Q516 177 516 160V0H481V157Q481 164 480 172Q479 180 477 192H92Q91 184 90 175Q89 166 89 157ZM467 223 286 662 104 223ZM377 833V890H404V833Q404 792 380 770Q356 748 310 748H262Q216 748 191.5 770Q167 792 167 833V890H194V833Q194 804 211.5 788.5Q229 773 263 773H309Q342 773 359.5 788.5Q377 804 377 833Z" glyph-name="Abreve" horiz-adv-x="571" unicode="&#258;" /><glyph d="M89 157V0H54V160Q54 177 57 194Q60 211 65 221L267 700H304L506 221Q510 212 513 194.5Q516 177 516 160V0H481V157Q481 164 480 172Q479 180 477 192H92Q91 184 90 175Q89 166 89 157ZM467 223 286 662 104 223ZM382 745H356L285 852L214 745H188L269 877H301Z" glyph-name="Acircumflex" horiz-adv-x="571" unicode="&#194;" /><glyph d="M89 157V0H54V160Q54 177 57 194Q60 211 65 221L267 700H304L506 221Q510 212 513 194.5Q516 177 516 160V0H481V157Q481 164 480 172Q479 180 477 192H92Q91 184 90 175Q89 166 89 157ZM467 223 286 662 104 223ZM257 780H223V842H257ZM348 780H314V842H348Z" glyph-name="Adieresis" horiz-adv-x="571" unicode="&#196;" /><glyph d="M89 157V0H54V160Q54 177 57 194Q60 211 65 221L267 700H304L506 221Q510 212 513 194.5Q516 177 516 160V0H481V157Q481 164 480 172Q479 180 477 192H92Q91 184 90 175Q89 166 89 157ZM467 223 286 662 104 223ZM270 745 213 867V877H247L295 745Z" glyph-name="Agrave" horiz-adv-x="571" unicode="&#192;" /><glyph d="M89 157V0H54V160Q54 177 57 194Q60 211 65 221L267 700H304L506 221Q510 212 513 194.5Q516 177 516 160V0H481V157Q481 164 480 172Q479 180 477 192H92Q91 184 90 175Q89 166 89 157ZM467 223 286 662 104 223ZM411 779H159V806H411Z" glyph-name="Amacron" horiz-adv-x="571" unicode="&#256;" /><glyph d="M89 157V0H54V160Q54 177 57 194Q60 211 65 221L267 700H304L506 221Q510 212 513 194.5Q516 177 516 160V0H511L409 -64Q390 -75 383 -86.5Q376 -98 376 -114V-129Q376 -147 386.5 -155Q397 -163 420 -163H516V-190H416Q381 -190 363.5 -175.5Q346 -161 346 -133V-117Q346 -96 357 -78.5Q368 -61 391 -46L481 9V157Q481 164 480 172Q479 180 477 192H92Q91 184 90 175Q89 166 89 157ZM467 223 286 662 104 223Z" glyph-name="Aogonek" horiz-adv-x="571" unicode="&#260;" /><glyph d="M89 157V0H54V160Q54 177 57 194Q60 211 65 221L267 700H304L506 221Q510 212 513 194.5Q516 177 516 160V0H481V157Q481 164 480 172Q479 180 477 192H92Q91 184 90 175Q89 166 89 157ZM467 223 286 662 104 223ZM268 936H301Q338 936 358 916.5Q378 897 378 861V835Q378 798 358.5 779Q339 760 301 760H268Q230 760 210.5 779Q191 798 191 835V861Q191 897 211 916.5Q231 936 268 936ZM301 912H268Q243 912 230 899Q217 886 217 861V835Q217 810 230 797Q243 784 268 784H301Q326 784 339.5 797Q353 810 353 835V861Q353 886 339.5 899Q326 912 301 912Z" glyph-name="Aring" horiz-adv-x="571" unicode="&#197;" /><glyph d="M89 157V0H54V160Q54 177 57 194Q60 211 65 221L267 700H304L506 221Q510 212 513 194.5Q516 177 516 160V0H481V157Q481 164 480 172Q479 180 477 192H92Q91 184 90 175Q89 166 89 157ZM467 223 286 662 104 223ZM359 784H377Q394 784 403 792Q412 800 412 815V858H438V812Q438 785 423 771Q408 757 379 757H358Q345 757 330.5 762.5Q316 768 305 776L252 815Q244 821 232.5 825.5Q221 830 211 830H194Q176 830 167 822Q158 814 158 798V757H132V801Q132 829 147 843.5Q162 858 191 858H214Q224 858 237.5 853Q251 848 266 839L318 799Q326 793 337.5 788.5Q349 784 359 784Z" glyph-name="Atilde" horiz-adv-x="571" unicode="&#195;" /><glyph d="M405 0H95V697H390Q455 697 489 665.5Q523 634 523 573V465Q523 428 507 402.5Q491 377 460 365Q498 357 518 330.5Q538 304 538 262V124Q538 63 504 31.5Q470 0 405 0ZM390 664H131V380H398Q441 380 464 400.5Q487 421 487 460V575Q487 619 462.5 641.5Q438 664 390 664ZM412 347H131V33H404Q452 33 476.5 55.5Q501 78 501 123V266Q501 306 478.5 326.5Q456 347 412 347Z" glyph-name="B" horiz-adv-x="612" unicode="B" /><glyph d="M482 127V223H517V129Q517 64 483.5 30Q450 -4 385 -4H218Q153 -4 119 30Q85 64 85 129V568Q85 633 119 667Q153 701 218 701H385Q450 701 483.5 667Q517 633 517 568V503H482V570Q482 618 457 643Q432 668 384 668H218Q171 668 146 643Q121 618 121 570V127Q121 79 146 54Q171 29 218 29H384Q432 29 457 54Q482 79 482 127Z" glyph-name="C" horiz-adv-x="578" unicode="C" /><glyph glyph-name="CR" horiz-adv-x="500" unicode="" /><glyph d="M482 127V223H517V129Q517 64 483.5 30Q450 -4 385 -4H218Q153 -4 119 30Q85 64 85 129V568Q85 633 119 667Q153 701 218 701H385Q450 701 483.5 667Q517 633 517 568V503H482V570Q482 618 457 643Q432 668 384 668H218Q171 668 146 643Q121 618 121 570V127Q121 79 146 54Q171 29 218 29H384Q432 29 457 54Q482 79 482 127ZM335 877H369V867L313 745H287Z" glyph-name="Cacute" horiz-adv-x="578" unicode="&#262;" /><glyph d="M315 763H283L202 895H228L299 788L370 895H396ZM482 127V223H517V129Q517 64 483.5 30Q450 -4 385 -4H218Q153 -4 119 30Q85 64 85 129V568Q85 633 119 667Q153 701 218 701H385Q450 701 483.5 667Q517 633 517 568V503H482V570Q482 618 457 643Q432 668 384 668H218Q171 668 146 643Q121 618 121 570V127Q121 79 146 54Q171 29 218 29H384Q432 29 457 54Q482 79 482 127Z" glyph-name="Ccaron" horiz-adv-x="578" unicode="&#268;" /><glyph d="M482 127V223H517V129Q517 64 483.5 30Q450 -4 385 -4H308L278 -61H342Q373 -61 388 -74Q403 -87 403 -114V-132Q403 -158 388 -171Q373 -184 343 -184H231V-160H341Q359 -160 367.5 -152.5Q376 -145 376 -129V-116Q376 -101 367.5 -93.5Q359 -86 340 -86H262Q255 -86 251 -83Q247 -80 247 -75V-70Q247 -68 247.5 -65.5Q248 -63 252 -56L279 -4H218Q153 -4 119 30Q85 64 85 129V568Q85 633 119 667Q153 701 218 701H385Q450 701 483.5 667Q517 633 517 568V503H482V570Q482 618 457 643Q432 668 384 668H218Q171 668 146 643Q121 618 121 570V127Q121 79 146 54Q171 29 218 29H384Q432 29 457 54Q482 79 482 127Z" glyph-name="Ccedilla" horiz-adv-x="578" unicode="&#199;" /><glyph d="M482 127V223H517V129Q517 64 483.5 30Q450 -4 385 -4H218Q153 -4 119 30Q85 64 85 129V568Q85 633 119 667Q153 701 218 701H385Q450 701 483.5 667Q517 633 517 568V503H482V570Q482 618 457 643Q432 668 384 668H218Q171 668 146 643Q121 618 121 570V127Q121 79 146 54Q171 29 218 29H384Q432 29 457 54Q482 79 482 127ZM398 745H372L301 852L230 745H204L285 877H317Z" glyph-name="Ccircumflex" horiz-adv-x="578" unicode="&#264;" /><glyph d="M320 803H282V869H320ZM482 127V223H517V129Q517 64 483.5 30Q450 -4 385 -4H218Q153 -4 119 30Q85 64 85 129V568Q85 633 119 667Q153 701 218 701H385Q450 701 483.5 667Q517 633 517 568V503H482V570Q482 618 457 643Q432 668 384 668H218Q171 668 146 643Q121 618 121 570V127Q121 79 146 54Q171 29 218 29H384Q432 29 457 54Q482 79 482 127Z" glyph-name="Cdotaccent" horiz-adv-x="578" unicode="&#266;" /><glyph d="M391 0H95V697H391Q462 697 500 659Q538 621 538 550V147Q538 76 500 38Q462 0 391 0ZM131 664V33H392Q445 33 473.5 61.5Q502 90 502 143V554Q502 607 473.5 635.5Q445 664 392 664Z" glyph-name="D" horiz-adv-x="622" unicode="D" /><glyph d="M321 763H289L208 895H234L305 788L376 895H402ZM391 0H95V697H391Q462 697 500 659Q538 621 538 550V147Q538 76 500 38Q462 0 391 0ZM131 664V33H392Q445 33 473.5 61.5Q502 90 502 143V554Q502 607 473.5 635.5Q445 664 392 664Z" glyph-name="Dcaron" horiz-adv-x="622" unicode="&#270;" /><glyph d="M393 0H97V349H21V380H97V697H393Q464 697 502 659Q540 621 540 550V147Q540 76 502 38Q464 0 393 0ZM133 349V33H394Q447 33 475.5 61.5Q504 90 504 143V554Q504 607 475.5 635.5Q447 664 394 664H133V380H285V349Z" glyph-name="Dcroat" horiz-adv-x="624" unicode="&#272;" /><glyph d="M552 0H27L268 697H310ZM504 32 289 654 73 32Z" glyph-name="Delta" horiz-adv-x="579" unicode="&#8710;" /><glyph d="M516 0H95V697H507V665H131V379H485V347H131V32H516Z" glyph-name="E" horiz-adv-x="560" unicode="E" /><glyph d="M516 0H95V697H507V665H131V379H485V347H131V32H516ZM327 877H361V867L305 745H279Z" glyph-name="Eacute" horiz-adv-x="560" unicode="&#201;" /><glyph d="M516 0H95V697H507V665H131V379H485V347H131V32H516ZM396 833V890H423V833Q423 792 399 770Q375 748 329 748H281Q235 748 210.5 770Q186 792 186 833V890H213V833Q213 804 230.5 788.5Q248 773 282 773H328Q361 773 378.5 788.5Q396 804 396 833Z" glyph-name="Ebreve" horiz-adv-x="560" unicode="&#276;" /><glyph d="M321 763H289L208 895H234L305 788L376 895H402ZM516 0H95V697H507V665H131V379H485V347H131V32H516Z" glyph-name="Ecaron" horiz-adv-x="560" unicode="&#282;" /><glyph d="M404 745H378L307 852L236 745H210L291 877H323ZM516 0H95V697H507V665H131V379H485V347H131V32H516Z" glyph-name="Ecircumflex" horiz-adv-x="560" unicode="&#202;" /><glyph d="M516 0H95V697H507V665H131V379H485V347H131V32H516ZM276 780H242V842H276ZM367 780H333V842H367Z" glyph-name="Edieresis" horiz-adv-x="560" unicode="&#203;" /><glyph d="M326 803H288V869H326ZM516 0H95V697H507V665H131V379H485V347H131V32H516Z" glyph-name="Edotaccent" horiz-adv-x="560" unicode="&#278;" /><glyph d="M292 745 235 867V877H269L317 745ZM516 0H95V697H507V665H131V379H485V347H131V32H516Z" glyph-name="Egrave" horiz-adv-x="560" unicode="&#200;" /><glyph d="M516 0H95V697H507V665H131V379H485V347H131V32H516ZM431 779H179V806H431Z" glyph-name="Emacron" horiz-adv-x="560" unicode="&#274;" /><glyph d="M427 0H95V697H507V665H131V379H485V347H131V32H516V0H473L371 -64Q352 -75 345 -86.5Q338 -98 338 -114V-129Q338 -147 348.5 -155Q359 -163 382 -163H478V-190H378Q343 -190 325.5 -175.5Q308 -161 308 -133V-117Q308 -96 319 -78.5Q330 -61 353 -46Z" glyph-name="Eogonek" horiz-adv-x="560" unicode="&#280;" /><glyph d="M393 0H97V349H21V380H97V697H393Q464 697 502 659Q540 621 540 550V147Q540 76 502 38Q464 0 393 0ZM133 349V33H394Q447 33 475.5 61.5Q504 90 504 143V554Q504 607 475.5 635.5Q447 664 394 664H133V380H285V349Z" glyph-name="Eth" horiz-adv-x="624" unicode="&#208;" /><glyph d="M541 223V129Q541 64 507 30Q473 -4 408 -4H262Q197 -4 163.5 30Q130 64 130 129V281H48V307H130V394H48V420H130V568Q130 633 163.5 667Q197 701 262 701H408Q473 701 507 667Q541 633 541 568V503H505V570Q505 618 480 643Q455 668 407 668H263Q216 668 191 643Q166 618 166 570V420H378V394H166V307H378V281H166V127Q166 79 191 54Q216 29 263 29H407Q455 29 480 54Q505 79 505 127V223Z" glyph-name="Euro" horiz-adv-x="610" unicode="&#8364;" /><glyph d="M495 357V325H131V0H95V697H517V665H131V357Z" glyph-name="F" horiz-adv-x="543" unicode="F" /><glyph d="M517 329V129Q517 64 483.5 30Q450 -4 385 -4H218Q153 -4 119 30Q85 64 85 129V568Q85 633 119 667Q153 701 218 701H385Q450 701 483.5 667Q517 633 517 568V503H482V570Q482 618 457 643Q432 668 384 668H218Q171 668 146 643Q121 618 121 570V127Q121 79 146 54Q171 29 218 29H384Q432 29 457 54Q482 79 482 127V298H337V329Z" glyph-name="G" horiz-adv-x="591" unicode="G" /><glyph d="M517 329V129Q517 64 483.5 30Q450 -4 385 -4H218Q153 -4 119 30Q85 64 85 129V568Q85 633 119 667Q153 701 218 701H385Q450 701 483.5 667Q517 633 517 568V503H482V570Q482 618 457 643Q432 668 384 668H218Q171 668 146 643Q121 618 121 570V127Q121 79 146 54Q171 29 218 29H384Q432 29 457 54Q482 79 482 127V298H337V329ZM391 833V890H418V833Q418 792 394 770Q370 748 324 748H276Q230 748 205.5 770Q181 792 181 833V890H208V833Q208 804 225.5 788.5Q243 773 277 773H323Q356 773 373.5 788.5Q391 804 391 833Z" glyph-name="Gbreve" horiz-adv-x="591" unicode="&#286;" /><glyph d="M396 745H370L299 852L228 745H202L283 877H315ZM517 329V129Q517 64 483.5 30Q450 -4 385 -4H218Q153 -4 119 30Q85 64 85 129V568Q85 633 119 667Q153 701 218 701H385Q450 701 483.5 667Q517 633 517 568V503H482V570Q482 618 457 643Q432 668 384 668H218Q171 668 146 643Q121 618 121 570V127Q121 79 146 54Q171 29 218 29H384Q432 29 457 54Q482 79 482 127V298H337V329Z" glyph-name="Gcircumflex" horiz-adv-x="591" unicode="&#284;" /><glyph d="M319 803H281V869H319ZM517 329V129Q517 64 483.5 30Q450 -4 385 -4H218Q153 -4 119 30Q85 64 85 129V568Q85 633 119 667Q153 701 218 701H385Q450 701 483.5 667Q517 633 517 568V503H482V570Q482 618 457 643Q432 668 384 668H218Q171 668 146 643Q121 618 121 570V127Q121 79 146 54Q171 29 218 29H384Q432 29 457 54Q482 79 482 127V298H337V329Z" glyph-name="Gdotaccent" horiz-adv-x="591" unicode="&#288;" /><glyph d="M538 0H502V347H131V0H95V697H131V379H502V697H538Z" glyph-name="H" horiz-adv-x="633" unicode="H" /><glyph d="M100 568H42V594H100V697H136V594H507V697H543V594H602V568H543V0H507V347H136V0H100ZM136 568V379H507V568Z" glyph-name="Hbar" horiz-adv-x="643" unicode="&#294;" /><glyph d="M538 0H502V347H131V0H95V697H131V379H502V697H538ZM414 745H388L317 852L246 745H220L301 877H333Z" glyph-name="Hcircumflex" horiz-adv-x="633" unicode="&#292;" /><glyph d="M131 0H95V697H131Z" glyph-name="I" horiz-adv-x="226" unicode="I" /><glyph d="M131 0H95V697H131ZM631 127V697H667V129Q667 64 633 30Q599 -4 534 -4H400Q335 -4 301 30Q267 64 267 129V217H303V127Q303 79 328 54Q353 29 401 29H534Q581 29 606 54Q631 79 631 127Z" glyph-name="IJ" horiz-adv-x="759" unicode="&#306;" /><glyph d="M131 0H95V697H131ZM147 877H181V867L125 745H99Z" glyph-name="Iacute" horiz-adv-x="226" unicode="&#205;" /><glyph d="M131 0H95V697H131ZM211 745H185L114 852L43 745H17L98 877H130Z" glyph-name="Icircumflex" horiz-adv-x="226" unicode="&#206;" /><glyph d="M131 0H95V697H131ZM85 780H51V842H85ZM176 780H142V842H176Z" glyph-name="Idieresis" horiz-adv-x="226" unicode="&#207;" /><glyph d="M131 0H95V697H131ZM132 803H94V869H132Z" glyph-name="Idotaccent" horiz-adv-x="226" unicode="&#304;" /><glyph d="M131 0H95V697H131ZM101 745 44 867V877H78L126 745Z" glyph-name="Igrave" horiz-adv-x="226" unicode="&#204;" /><glyph d="M131 0H95V697H131ZM239 803H-13V830H239Z" glyph-name="Imacron" horiz-adv-x="226" unicode="&#298;" /><glyph d="M131 697V0H126L24 -64Q5 -75 -2 -86.5Q-9 -98 -9 -114V-129Q-9 -147 1.5 -155Q12 -163 35 -163H131V-190H31Q-4 -190 -21.5 -175.5Q-39 -161 -39 -133V-117Q-39 -96 -28 -78.5Q-17 -61 6 -46L95 9V697Z" glyph-name="Iogonek" horiz-adv-x="226" unicode="&#302;" /><glyph d="M131 0H95V697H131ZM187 784H205Q222 784 231 792Q240 800 240 815V858H266V812Q266 785 251 771Q236 757 207 757H186Q173 757 158.5 762.5Q144 768 133 776L80 815Q72 821 60.5 825.5Q49 830 39 830H22Q4 830 -5 822Q-14 814 -14 798V757H-40V801Q-40 829 -25 843.5Q-10 858 19 858H42Q52 858 65.5 853Q79 848 94 839L146 799Q154 793 165.5 788.5Q177 784 187 784Z" glyph-name="Itilde" horiz-adv-x="226" unicode="&#296;" /><glyph d="M405 127V697H441V129Q441 64 407 30Q373 -4 308 -4H174Q109 -4 75 30Q41 64 41 129V217H77V127Q77 79 102 54Q127 29 175 29H308Q355 29 380 54Q405 79 405 127Z" glyph-name="J" horiz-adv-x="533" unicode="J" /><glyph d="M405 127V697H441V129Q441 64 407 30Q373 -4 308 -4H174Q109 -4 75 30Q41 64 41 129V217H77V127Q77 79 102 54Q127 29 175 29H308Q355 29 380 54Q405 79 405 127ZM519 745H493L422 852L351 745H325L406 877H438Z" glyph-name="Jcircumflex" horiz-adv-x="533" unicode="&#308;" /><glyph d="M489 180 346 347H131V0H95V697H131V379H346L483 508Q491 516 496 529Q501 542 501 558V697H536V552Q536 535 530 519Q524 503 513 491L378 362L521 196Q528 188 533 173.5Q538 159 538 145V0H502V139Q502 151 498.5 162Q495 173 489 180Z" glyph-name="K" horiz-adv-x="605" unicode="K" /><glyph d="M488 0H95V697H131V32H488Z" glyph-name="L" horiz-adv-x="500" unicode="L" /><glyph d="M147 877H181V867L125 745H99ZM488 0H95V697H131V32H488Z" glyph-name="Lacute" horiz-adv-x="500" unicode="&#313;" /><glyph d="M226 697H264V685L224 561H201ZM488 0H95V697H131V32H488Z" glyph-name="Lcaron" horiz-adv-x="500" unicode="&#317;" /><glyph d="M488 0H95V697H131V32H488ZM381 331H341V400H381Z" glyph-name="Ldot" horiz-adv-x="501" unicode="&#319;" /><glyph d="M496 0H103V345L6 295V329L103 379V697H139V397L339 501V468L139 364V32H496Z" glyph-name="Lslash" horiz-adv-x="508" unicode="&#321;" /><glyph d="M375 252H350L129 632V0H95V697H130L362 295L591 697H626V0H591V632Z" glyph-name="M" horiz-adv-x="721" unicode="M" /><glyph d="M538 0H505L129 630V0H95V697H129L504 67V697H538Z" glyph-name="N" horiz-adv-x="633" unicode="N" /><glyph glyph-name="NULL" horiz-adv-x="500" /><glyph d="M350 877H384V867L328 745H302ZM538 0H505L129 630V0H95V697H129L504 67V697H538Z" glyph-name="Nacute" horiz-adv-x="633" unicode="&#323;" /><glyph d="M333 763H301L220 895H246L317 788L388 895H414ZM538 0H505L129 630V0H95V697H129L504 67V697H538Z" glyph-name="Ncaron" horiz-adv-x="633" unicode="&#327;" /><glyph d="M390 784H408Q425 784 434 792Q443 800 443 815V858H469V812Q469 785 454 771Q439 757 410 757H389Q376 757 361.5 762.5Q347 768 336 776L283 815Q275 821 263.5 825.5Q252 830 242 830H225Q207 830 198 822Q189 814 189 798V757H163V801Q163 829 178 843.5Q193 858 222 858H245Q255 858 268.5 853Q282 848 297 839L349 799Q357 793 368.5 788.5Q380 784 390 784ZM538 0H505L129 630V0H95V697H129L504 67V697H538Z" glyph-name="Ntilde" horiz-adv-x="633" unicode="&#209;" /><glyph d="M395 -4H218Q153 -4 119 30Q85 64 85 129V568Q85 633 119 667Q153 701 218 701H395Q460 701 494 667Q528 633 528 568V129Q528 64 494 30Q460 -4 395 -4ZM121 570V127Q121 79 146 54Q171 29 218 29H394Q441 29 466.5 54.5Q492 80 492 127V570Q492 618 467 643Q442 668 394 668H218Q171 668 146 643Q121 618 121 570Z" glyph-name="O" horiz-adv-x="613" unicode="O" /><glyph d="M913 0H492V29Q476 13 451.5 4.5Q427 -4 395 -4H218Q153 -4 119 30Q85 64 85 129V568Q85 633 119 667Q153 701 218 701H395Q426 701 450.5 692.5Q475 684 492 667V697H903V665H528V379H882V347H528V32H913ZM121 570V127Q121 79 146 54Q171 29 218 29H394Q441 29 466.5 54.5Q492 80 492 127V574Q490 620 465 644Q440 668 394 668H218Q171 668 146 643Q121 618 121 570Z" glyph-name="OE" horiz-adv-x="956" unicode="&#338;" /><glyph d="M337 877H371V867L315 745H289ZM395 -4H218Q153 -4 119 30Q85 64 85 129V568Q85 633 119 667Q153 701 218 701H395Q460 701 494 667Q528 633 528 568V129Q528 64 494 30Q460 -4 395 -4ZM121 570V127Q121 79 146 54Q171 29 218 29H394Q441 29 466.5 54.5Q492 80 492 127V570Q492 618 467 643Q442 668 394 668H218Q171 668 146 643Q121 618 121 570Z" glyph-name="Oacute" horiz-adv-x="613" unicode="&#211;" /><glyph d="M395 -4H218Q153 -4 119 30Q85 64 85 129V568Q85 633 119 667Q153 701 218 701H395Q460 701 494 667Q528 633 528 568V129Q528 64 494 30Q460 -4 395 -4ZM121 570V127Q121 79 146 54Q171 29 218 29H394Q441 29 466.5 54.5Q492 80 492 127V570Q492 618 467 643Q442 668 394 668H218Q171 668 146 643Q121 618 121 570ZM398 833V890H425V833Q425 792 401 770Q377 748 331 748H283Q237 748 212.5 770Q188 792 188 833V890H215V833Q215 804 232.5 788.5Q250 773 284 773H330Q363 773 380.5 788.5Q398 804 398 833Z" glyph-name="Obreve" horiz-adv-x="613" unicode="&#334;" /><glyph d="M404 745H378L307 852L236 745H210L291 877H323ZM395 -4H218Q153 -4 119 30Q85 64 85 129V568Q85 633 119 667Q153 701 218 701H395Q460 701 494 667Q528 633 528 568V129Q528 64 494 30Q460 -4 395 -4ZM121 570V127Q121 79 146 54Q171 29 218 29H394Q441 29 466.5 54.5Q492 80 492 127V570Q492 618 467 643Q442 668 394 668H218Q171 668 146 643Q121 618 121 570Z" glyph-name="Ocircumflex" horiz-adv-x="613" unicode="&#212;" /><glyph d="M395 -4H218Q153 -4 119 30Q85 64 85 129V568Q85 633 119 667Q153 701 218 701H395Q460 701 494 667Q528 633 528 568V129Q528 64 494 30Q460 -4 395 -4ZM121 570V127Q121 79 146 54Q171 29 218 29H394Q441 29 466.5 54.5Q492 80 492 127V570Q492 618 467 643Q442 668 394 668H218Q171 668 146 643Q121 618 121 570ZM278 780H244V842H278ZM369 780H335V842H369Z" glyph-name="Odieresis" horiz-adv-x="613" unicode="&#214;" /><glyph d="M295 745 238 867V877H272L320 745ZM395 -4H218Q153 -4 119 30Q85 64 85 129V568Q85 633 119 667Q153 701 218 701H395Q460 701 494 667Q528 633 528 568V129Q528 64 494 30Q460 -4 395 -4ZM121 570V127Q121 79 146 54Q171 29 218 29H394Q441 29 466.5 54.5Q492 80 492 127V570Q492 618 467 643Q442 668 394 668H218Q171 668 146 643Q121 618 121 570Z" glyph-name="Ograve" horiz-adv-x="613" unicode="&#210;" /><glyph d="M300 895H332V885L277 763H254ZM400 895H431V885L347 763H324ZM395 -4H218Q153 -4 119 30Q85 64 85 129V568Q85 633 119 667Q153 701 218 701H395Q460 701 494 667Q528 633 528 568V129Q528 64 494 30Q460 -4 395 -4ZM121 570V127Q121 79 146 54Q171 29 218 29H394Q441 29 466.5 54.5Q492 80 492 127V570Q492 618 467 643Q442 668 394 668H218Q171 668 146 643Q121 618 121 570Z" glyph-name="Ohungarumlaut" horiz-adv-x="613" unicode="&#336;" /><glyph d="M395 -4H218Q153 -4 119 30Q85 64 85 129V568Q85 633 119 667Q153 701 218 701H395Q460 701 494 667Q528 633 528 568V129Q528 64 494 30Q460 -4 395 -4ZM121 570V127Q121 79 146 54Q171 29 218 29H394Q441 29 466.5 54.5Q492 80 492 127V570Q492 618 467 643Q442 668 394 668H218Q171 668 146 643Q121 618 121 570ZM433 779H181V806H433Z" glyph-name="Omacron" horiz-adv-x="613" unicode="&#332;" /><glyph d="M254 31V0H62V30H163Q128 46 111.5 79Q95 112 95 165V568Q95 633 129 667Q163 701 228 701H405Q470 701 504 667Q538 633 538 568V161Q538 110 521 77.5Q504 45 469 30H562V0H370V31Q440 32 471 61Q502 90 502 156V570Q502 618 477 643Q452 668 404 668H229Q181 668 156 643Q131 618 131 570V159Q131 92 160 62Q189 32 254 31Z" glyph-name="Omega" horiz-adv-x="632" unicode="&#8486;" /><glyph d="M136 15 114 -24H82L114 33Q98 50 90.5 73.5Q83 97 83 129V568Q83 633 117 667Q151 701 216 701H393Q417 701 437 696.5Q457 692 472 682L494 721H528L495 662Q510 645 518 621.5Q526 598 526 568V129Q526 64 492 30Q458 -4 393 -4H216Q191 -4 171.5 0.5Q152 5 136 15ZM118 571V127Q118 109 121.5 94Q125 79 132 67L456 652Q444 661 428.5 665.5Q413 670 393 670H217Q169 670 143.5 644.5Q118 619 118 571ZM491 126V571Q491 588 487.5 603Q484 618 477 630L152 45Q164 36 180.5 31.5Q197 27 217 27H393Q440 27 465.5 53Q491 79 491 126Z" glyph-name="Oslash" horiz-adv-x="609" unicode="&#216;" /><glyph d="M395 -4H218Q153 -4 119 30Q85 64 85 129V568Q85 633 119 667Q153 701 218 701H395Q460 701 494 667Q528 633 528 568V129Q528 64 494 30Q460 -4 395 -4ZM121 570V127Q121 79 146 54Q171 29 218 29H394Q441 29 466.5 54.5Q492 80 492 127V570Q492 618 467 643Q442 668 394 668H218Q171 668 146 643Q121 618 121 570ZM380 784H398Q415 784 424 792Q433 800 433 815V858H459V812Q459 785 444 771Q429 757 400 757H379Q366 757 351.5 762.5Q337 768 326 776L273 815Q265 821 253.5 825.5Q242 830 232 830H215Q197 830 188 822Q179 814 179 798V757H153V801Q153 829 168 843.5Q183 858 212 858H235Q245 858 258.5 853Q272 848 287 839L339 799Q347 793 358.5 788.5Q370 784 380 784Z" glyph-name="Otilde" horiz-adv-x="613" unicode="&#213;" /><glyph d="M373 265H131V0H95V697H373Q438 697 472 663Q506 629 506 564V398Q506 333 472 299Q438 265 373 265ZM373 664H131V298H373Q420 298 445 323Q470 348 470 396V566Q470 614 445 639Q420 664 373 664Z" glyph-name="P" horiz-adv-x="562" unicode="P" /><glyph d="M395 -4H350L434 -155H395L311 -4H218Q153 -4 119 30Q85 64 85 129V568Q85 633 119 667Q153 701 218 701H395Q460 701 494 667Q528 633 528 568V129Q528 64 494 30Q460 -4 395 -4ZM121 570V127Q121 79 146 54Q171 29 218 29H394Q441 29 466.5 54.5Q492 80 492 127V570Q492 618 467 643Q442 668 394 668H218Q171 668 146 643Q121 618 121 570Z" glyph-name="Q" horiz-adv-x="613" unicode="Q" /><glyph d="M506 0H467L357 294H131V0H95V697H373Q438 697 472 663Q506 629 506 564V427Q506 368 477.5 334Q449 300 394 295ZM373 664H131V327H373Q420 327 445 352Q470 377 470 425V567Q470 614 445 639Q420 664 373 664Z" glyph-name="R" horiz-adv-x="574" unicode="R" /><glyph d="M506 0H467L357 294H131V0H95V697H373Q438 697 472 663Q506 629 506 564V427Q506 368 477.5 334Q449 300 394 295ZM373 664H131V327H373Q420 327 445 352Q470 377 470 425V567Q470 614 445 639Q420 664 373 664ZM325 877H359V867L303 745H277Z" glyph-name="Racute" horiz-adv-x="574" unicode="&#340;" /><glyph d="M296 763H264L183 895H209L280 788L351 895H377ZM506 0H467L357 294H131V0H95V697H373Q438 697 472 663Q506 629 506 564V427Q506 368 477.5 334Q449 300 394 295ZM373 664H131V327H373Q420 327 445 352Q470 377 470 425V567Q470 614 445 639Q420 664 373 664Z" glyph-name="Rcaron" horiz-adv-x="574" unicode="&#344;" /><glyph d="M72 497V587Q72 643 106.5 672Q141 701 207 701H366Q431 701 466 671.5Q501 642 501 587V502H465V589Q465 628 439.5 648.5Q414 669 365 669H208Q159 669 133.5 648.5Q108 628 108 589V499Q108 465 120 447.5Q132 430 159 422L430 347Q467 337 486.5 311Q506 285 506 248V110Q506 54 471.5 25Q437 -4 371 -4H201Q135 -4 100.5 25Q66 54 66 110V189H102V108Q102 69 127.5 48.5Q153 28 202 28H370Q419 28 444.5 48.5Q470 69 470 108V244Q470 271 457 289Q444 307 420 313L147 390Q109 400 90.5 426.5Q72 453 72 497Z" glyph-name="S" horiz-adv-x="575" unicode="S" /><glyph d="M72 497V587Q72 643 106.5 672Q141 701 207 701H366Q431 701 466 671.5Q501 642 501 587V502H465V589Q465 628 439.5 648.5Q414 669 365 669H208Q159 669 133.5 648.5Q108 628 108 589V499Q108 465 120 447.5Q132 430 159 422L430 347Q467 337 486.5 311Q506 285 506 248V110Q506 54 471.5 25Q437 -4 371 -4H201Q135 -4 100.5 25Q66 54 66 110V189H102V108Q102 69 127.5 48.5Q153 28 202 28H370Q419 28 444.5 48.5Q470 69 470 108V244Q470 271 457 289Q444 307 420 313L147 390Q109 400 90.5 426.5Q72 453 72 497ZM317 877H351V867L295 745H269Z" glyph-name="Sacute" horiz-adv-x="575" unicode="&#346;" /><glyph d="M301 763H269L188 895H214L285 788L356 895H382ZM72 497V587Q72 643 106.5 672Q141 701 207 701H366Q431 701 466 671.5Q501 642 501 587V502H465V589Q465 628 439.5 648.5Q414 669 365 669H208Q159 669 133.5 648.5Q108 628 108 589V499Q108 465 120 447.5Q132 430 159 422L430 347Q467 337 486.5 311Q506 285 506 248V110Q506 54 471.5 25Q437 -4 371 -4H201Q135 -4 100.5 25Q66 54 66 110V189H102V108Q102 69 127.5 48.5Q153 28 202 28H370Q419 28 444.5 48.5Q470 69 470 108V244Q470 271 457 289Q444 307 420 313L147 390Q109 400 90.5 426.5Q72 453 72 497Z" glyph-name="Scaron" horiz-adv-x="575" unicode="&#352;" /><glyph d="M72 497V587Q72 643 106.5 672Q141 701 207 701H366Q431 701 466 671.5Q501 642 501 587V502H465V589Q465 628 439.5 648.5Q414 669 365 669H208Q159 669 133.5 648.5Q108 628 108 589V499Q108 465 120 447.5Q132 430 159 422L430 347Q467 337 486.5 311Q506 285 506 248V110Q506 54 471.5 25Q437 -4 371 -4H296L266 -61H330Q361 -61 376 -74Q391 -87 391 -114V-132Q391 -158 376 -171Q361 -184 331 -184H219V-160H329Q347 -160 355.5 -152.5Q364 -145 364 -129V-116Q364 -101 355.5 -93.5Q347 -86 328 -86H250Q243 -86 239 -83Q235 -80 235 -75V-70Q235 -68 235.5 -65.5Q236 -63 240 -56L267 -4H201Q135 -4 100.5 25Q66 54 66 110V189H102V108Q102 69 127.5 48.5Q153 28 202 28H370Q419 28 444.5 48.5Q470 69 470 108V244Q470 271 457 289Q444 307 420 313L147 390Q109 400 90.5 426.5Q72 453 72 497Z" glyph-name="Scedilla" horiz-adv-x="575" unicode="&#350;" /><glyph d="M72 497V587Q72 643 106.5 672Q141 701 207 701H366Q431 701 466 671.5Q501 642 501 587V502H465V589Q465 628 439.5 648.5Q414 669 365 669H208Q159 669 133.5 648.5Q108 628 108 589V499Q108 465 120 447.5Q132 430 159 422L430 347Q467 337 486.5 311Q506 285 506 248V110Q506 54 471.5 25Q437 -4 371 -4H201Q135 -4 100.5 25Q66 54 66 110V189H102V108Q102 69 127.5 48.5Q153 28 202 28H370Q419 28 444.5 48.5Q470 69 470 108V244Q470 271 457 289Q444 307 420 313L147 390Q109 400 90.5 426.5Q72 453 72 497ZM383 745H357L286 852L215 745H189L270 877H302Z" glyph-name="Scircumflex" horiz-adv-x="575" unicode="&#348;" /><glyph d="M464 697V665H263V0H227V665H26V697Z" glyph-name="T" horiz-adv-x="490" unicode="T" /><glyph d="M476 697V665H275V384H446V356H275V0H239V356H68V384H239V665H38V697Z" glyph-name="Tbar" horiz-adv-x="513" unicode="&#358;" /><glyph d="M260 763H228L147 895H173L244 788L315 895H341ZM464 697V665H263V0H227V665H26V697Z" glyph-name="Tcaron" horiz-adv-x="490" unicode="&#356;" /><glyph d="M373 119H131V0H95V697H131V534H373Q438 534 472 500Q506 466 506 401V252Q506 187 472 153Q438 119 373 119ZM373 501H131V152H373Q420 152 445 177Q470 202 470 250V403Q470 451 445 476Q420 501 373 501Z" glyph-name="Thorn" horiz-adv-x="567" unicode="&#222;" /><glyph d="M499 127V697H535V129Q535 64 501 30Q467 -4 402 -4H225Q160 -4 126 30Q92 64 92 129V697H128V127Q128 79 153 54Q178 29 225 29H401Q449 29 474 54Q499 79 499 127Z" glyph-name="U" horiz-adv-x="627" unicode="U" /><glyph d="M499 127V697H535V129Q535 64 501 30Q467 -4 402 -4H225Q160 -4 126 30Q92 64 92 129V697H128V127Q128 79 153 54Q178 29 225 29H401Q449 29 474 54Q499 79 499 127ZM344 877H378V867L322 745H296Z" glyph-name="Uacute" horiz-adv-x="627" unicode="&#218;" /><glyph d="M499 127V697H535V129Q535 64 501 30Q467 -4 402 -4H225Q160 -4 126 30Q92 64 92 129V697H128V127Q128 79 153 54Q178 29 225 29H401Q449 29 474 54Q499 79 499 127ZM404 833V890H431V833Q431 792 407 770Q383 748 337 748H289Q243 748 218.5 770Q194 792 194 833V890H221V833Q221 804 238.5 788.5Q256 773 290 773H336Q369 773 386.5 788.5Q404 804 404 833Z" glyph-name="Ubreve" horiz-adv-x="627" unicode="&#364;" /><glyph d="M410 745H384L313 852L242 745H216L297 877H329ZM499 127V697H535V129Q535 64 501 30Q467 -4 402 -4H225Q160 -4 126 30Q92 64 92 129V697H128V127Q128 79 153 54Q178 29 225 29H401Q449 29 474 54Q499 79 499 127Z" glyph-name="Ucircumflex" horiz-adv-x="627" unicode="&#219;" /><glyph d="M499 127V697H535V129Q535 64 501 30Q467 -4 402 -4H225Q160 -4 126 30Q92 64 92 129V697H128V127Q128 79 153 54Q178 29 225 29H401Q449 29 474 54Q499 79 499 127ZM284 780H250V842H284ZM375 780H341V842H375Z" glyph-name="Udieresis" horiz-adv-x="627" unicode="&#220;" /><glyph d="M302 745 245 867V877H279L327 745ZM499 127V697H535V129Q535 64 501 30Q467 -4 402 -4H225Q160 -4 126 30Q92 64 92 129V697H128V127Q128 79 153 54Q178 29 225 29H401Q449 29 474 54Q499 79 499 127Z" glyph-name="Ugrave" horiz-adv-x="627" unicode="&#217;" /><glyph d="M499 127V697H535V129Q535 64 501 30Q467 -4 402 -4H225Q160 -4 126 30Q92 64 92 129V697H128V127Q128 79 153 54Q178 29 225 29H401Q449 29 474 54Q499 79 499 127ZM310 895H342V885L287 763H264ZM410 895H441V885L357 763H334Z" glyph-name="Uhungarumlaut" horiz-adv-x="627" unicode="&#368;" /><glyph d="M499 127V697H535V129Q535 64 501 30Q467 -4 402 -4H225Q160 -4 126 30Q92 64 92 129V697H128V127Q128 79 153 54Q178 29 225 29H401Q449 29 474 54Q499 79 499 127ZM439 779H187V806H439Z" glyph-name="Umacron" horiz-adv-x="627" unicode="&#362;" /><glyph d="M504 -163V-190H404Q369 -190 351 -175.5Q333 -161 333 -133V-117Q333 -102 339.5 -89Q346 -76 378 -46L430 -1Q424 -2 416.5 -3Q409 -4 401 -4H225Q160 -4 126 30Q92 64 92 129V697H128V127Q128 79 153 54Q178 29 226 29H402Q449 29 474 54Q499 79 499 127V697H535V129Q535 94 524 67Q513 40 490 20L397 -64Q372 -86 367.5 -94.5Q363 -103 363 -114V-129Q363 -146 374 -154.5Q385 -163 408 -163Z" glyph-name="Uogonek" horiz-adv-x="626" unicode="&#370;" /><glyph d="M295 936H328Q365 936 385 916.5Q405 897 405 861V835Q405 798 385.5 779Q366 760 328 760H295Q257 760 237.5 779Q218 798 218 835V861Q218 897 238 916.5Q258 936 295 936ZM328 912H295Q270 912 257 899Q244 886 244 861V835Q244 810 257 797Q270 784 295 784H328Q353 784 366.5 797Q380 810 380 835V861Q380 886 366.5 899Q353 912 328 912ZM499 127V697H535V129Q535 64 501 30Q467 -4 402 -4H225Q160 -4 126 30Q92 64 92 129V697H128V127Q128 79 153 54Q178 29 225 29H401Q449 29 474 54Q499 79 499 127Z" glyph-name="Uring" horiz-adv-x="627" unicode="&#366;" /><glyph d="M499 127V697H535V129Q535 64 501 30Q467 -4 402 -4H225Q160 -4 126 30Q92 64 92 129V697H128V127Q128 79 153 54Q178 29 225 29H401Q449 29 474 54Q499 79 499 127ZM387 784H405Q422 784 431 792Q440 800 440 815V858H466V812Q466 785 451 771Q436 757 407 757H386Q373 757 358.5 762.5Q344 768 333 776L280 815Q272 821 260.5 825.5Q249 830 239 830H222Q204 830 195 822Q186 814 186 798V757H160V801Q160 829 175 843.5Q190 858 219 858H242Q252 858 265.5 853Q279 848 294 839L346 799Q354 793 365.5 788.5Q377 784 387 784Z" glyph-name="Utilde" horiz-adv-x="627" unicode="&#360;" /><glyph d="M303 0H266L65 476Q61 485 58 502.5Q55 520 55 537V697H91V540Q91 524 93.5 509.5Q96 495 100 486L286 41L470 486Q475 496 477.5 510.5Q480 525 480 540V697H515V537Q515 520 512 502.5Q509 485 505 476Z" glyph-name="V" horiz-adv-x="570" unicode="V" /><glyph d="M684 540V697H719V537Q719 522 716.5 506Q714 490 709 476L563 0H528L388 453L249 0H214L68 476Q63 490 60.5 506Q58 522 58 537V697H93V540Q93 528 95.5 514.5Q98 501 102 486L232 49L362 486Q368 504 370 516.5Q372 529 372 540V697H405V540Q405 529 407 516.5Q409 504 415 486L544 49L675 486Q679 501 681.5 514.5Q684 528 684 540Z" glyph-name="W" horiz-adv-x="777" unicode="W" /><glyph d="M423 877H457V867L401 745H375ZM684 540V697H719V537Q719 522 716.5 506Q714 490 709 476L563 0H528L388 453L249 0H214L68 476Q63 490 60.5 506Q58 522 58 537V697H93V540Q93 528 95.5 514.5Q98 501 102 486L232 49L362 486Q368 504 370 516.5Q372 529 372 540V697H405V540Q405 529 407 516.5Q409 504 415 486L544 49L675 486Q679 501 681.5 514.5Q684 528 684 540Z" glyph-name="Wacute" horiz-adv-x="777" unicode="&#7810;" /><glyph d="M485 745H459L388 852L317 745H291L372 877H404ZM684 540V697H719V537Q719 522 716.5 506Q714 490 709 476L563 0H528L388 453L249 0H214L68 476Q63 490 60.5 506Q58 522 58 537V697H93V540Q93 528 95.5 514.5Q98 501 102 486L232 49L362 486Q368 504 370 516.5Q372 529 372 540V697H405V540Q405 529 407 516.5Q409 504 415 486L544 49L675 486Q679 501 681.5 514.5Q684 528 684 540Z" glyph-name="Wcircumflex" horiz-adv-x="777" unicode="&#372;" /><glyph d="M684 540V697H719V537Q719 522 716.5 506Q714 490 709 476L563 0H528L388 453L249 0H214L68 476Q63 490 60.5 506Q58 522 58 537V697H93V540Q93 528 95.5 514.5Q98 501 102 486L232 49L362 486Q368 504 370 516.5Q372 529 372 540V697H405V540Q405 529 407 516.5Q409 504 415 486L544 49L675 486Q679 501 681.5 514.5Q684 528 684 540ZM359 780H325V842H359ZM450 780H416V842H450Z" glyph-name="Wdieresis" horiz-adv-x="777" unicode="&#7812;" /><glyph d="M375 745 318 867V877H352L400 745ZM684 540V697H719V537Q719 522 716.5 506Q714 490 709 476L563 0H528L388 453L249 0H214L68 476Q63 490 60.5 506Q58 522 58 537V697H93V540Q93 528 95.5 514.5Q98 501 102 486L232 49L362 486Q368 504 370 516.5Q372 529 372 540V697H405V540Q405 529 407 516.5Q409 504 415 486L544 49L675 486Q679 501 681.5 514.5Q684 528 684 540Z" glyph-name="Wgrave" horiz-adv-x="777" unicode="&#7808;" /><glyph d="M94 118V0H58V124Q58 144 65 161Q72 178 85 191L259 361L88 525Q74 540 68.5 556Q63 572 63 590V697H99V596Q99 578 104.5 564.5Q110 551 123 538L286 381L447 537Q459 549 464.5 563.5Q470 578 470 596V697H506V590Q506 570 499 553Q492 536 479 523L310 358L485 189Q499 174 504.5 158Q510 142 510 124V0H474V118Q474 137 468.5 150.5Q463 164 450 176L282 338L117 177Q105 165 99.5 150.5Q94 136 94 118Z" glyph-name="X" horiz-adv-x="568" unicode="X" /><glyph d="M290 249V0H254V250L65 516Q57 528 52.5 545.5Q48 563 48 583V697H85V585Q85 566 88.5 552Q92 538 100 525L274 282L445 524Q454 536 458 550.5Q462 565 462 584V697H497V583Q497 563 492.5 545.5Q488 528 480 516Z" glyph-name="Y" horiz-adv-x="545" unicode="Y" /><glyph d="M290 249V0H254V250L65 516Q57 528 52.5 545.5Q48 563 48 583V697H85V585Q85 566 88.5 552Q92 538 100 525L274 282L445 524Q454 536 458 550.5Q462 565 462 584V697H497V583Q497 563 492.5 545.5Q488 528 480 516ZM306 877H340V867L284 745H258Z" glyph-name="Yacute" horiz-adv-x="545" unicode="&#221;" /><glyph d="M290 249V0H254V250L65 516Q57 528 52.5 545.5Q48 563 48 583V697H85V585Q85 566 88.5 552Q92 538 100 525L274 282L445 524Q454 536 458 550.5Q462 565 462 584V697H497V583Q497 563 492.5 545.5Q488 528 480 516ZM370 745H344L273 852L202 745H176L257 877H289Z" glyph-name="Ycircumflex" horiz-adv-x="545" unicode="&#374;" /><glyph d="M290 249V0H254V250L65 516Q57 528 52.5 545.5Q48 563 48 583V697H85V585Q85 566 88.5 552Q92 538 100 525L274 282L445 524Q454 536 458 550.5Q462 565 462 584V697H497V583Q497 563 492.5 545.5Q488 528 480 516ZM244 780H210V842H244ZM335 780H301V842H335Z" glyph-name="Ydieresis" horiz-adv-x="545" unicode="&#376;" /><glyph d="M476 33V0H31V31L424 664H45V697H466V665L73 33Z" glyph-name="Z" horiz-adv-x="508" unicode="Z" /><glyph d="M476 33V0H31V31L424 664H45V697H466V665L73 33ZM286 877H320V867L264 745H238Z" glyph-name="Zacute" horiz-adv-x="508" unicode="&#377;" /><glyph d="M270 763H238L157 895H183L254 788L325 895H351ZM476 33V0H31V31L424 664H45V697H466V665L73 33Z" glyph-name="Zcaron" horiz-adv-x="508" unicode="&#381;" /><glyph d="M273 803H235V869H273ZM476 33V0H31V31L424 664H45V697H466V665L73 33Z" glyph-name="Zdotaccent" horiz-adv-x="508" unicode="&#379;" /><glyph d="M386 60 325 20Q304 5 287.5 0.5Q271 -4 247 -4H169Q117 -4 89.5 20.5Q62 45 62 92V175Q62 220 88 243.5Q114 267 170 273L385 297V389Q385 430 363 451Q341 472 298 472H191Q149 472 126.5 450.5Q104 429 104 389V356H70V386Q70 443 101 472.5Q132 502 191 502H301Q359 502 389.5 472.5Q420 443 420 388V0H389ZM171 27H249Q268 27 280.5 30.5Q293 34 314 47L385 93V266L173 242Q130 237 113 221.5Q96 206 96 175V93Q96 59 114.5 43Q133 27 171 27Z" glyph-name="a" horiz-adv-x="497" unicode="a" /><glyph d="M386 60 325 20Q304 5 287.5 0.5Q271 -4 247 -4H169Q117 -4 89.5 20.5Q62 45 62 92V175Q62 220 88 243.5Q114 267 170 273L385 297V389Q385 430 363 451Q341 472 298 472H191Q149 472 126.5 450.5Q104 429 104 389V356H70V386Q70 443 101 472.5Q132 502 191 502H301Q359 502 389.5 472.5Q420 443 420 388V0H389ZM171 27H249Q268 27 280.5 30.5Q293 34 314 47L385 93V266L173 242Q130 237 113 221.5Q96 206 96 175V93Q96 59 114.5 43Q133 27 171 27ZM274 697H308V687L251 565H226Z" glyph-name="aacute" horiz-adv-x="497" unicode="&#225;" /><glyph d="M386 60 325 20Q304 5 287.5 0.5Q271 -4 247 -4H169Q117 -4 89.5 20.5Q62 45 62 92V175Q62 220 88 243.5Q114 267 170 273L385 297V389Q385 430 363 451Q341 472 298 472H191Q149 472 126.5 450.5Q104 429 104 389V356H70V386Q70 443 101 472.5Q132 502 191 502H301Q359 502 389.5 472.5Q420 443 420 388V0H389ZM171 27H249Q268 27 280.5 30.5Q293 34 314 47L385 93V266L173 242Q130 237 113 221.5Q96 206 96 175V93Q96 59 114.5 43Q133 27 171 27ZM335 653V710H362V653Q362 612 337.5 590Q313 568 267 568H220Q174 568 149.5 590Q125 612 125 653V710H152V653Q152 624 169.5 608.5Q187 593 220 593H266Q299 593 317 608.5Q335 624 335 653Z" glyph-name="abreve" horiz-adv-x="497" unicode="&#259;" /><glyph d="M386 60 325 20Q304 5 287.5 0.5Q271 -4 247 -4H169Q117 -4 89.5 20.5Q62 45 62 92V175Q62 220 88 243.5Q114 267 170 273L385 297V389Q385 430 363 451Q341 472 298 472H191Q149 472 126.5 450.5Q104 429 104 389V356H70V386Q70 443 101 472.5Q132 502 191 502H301Q359 502 389.5 472.5Q420 443 420 388V0H389ZM171 27H249Q268 27 280.5 30.5Q293 34 314 47L385 93V266L173 242Q130 237 113 221.5Q96 206 96 175V93Q96 59 114.5 43Q133 27 171 27ZM337 565H311L240 672L169 565H143L224 697H256Z" glyph-name="acircumflex" horiz-adv-x="497" unicode="&#226;" /><glyph d="M127 697H161V687L104 565H79Z" glyph-name="acute" horiz-adv-x="239" unicode="&#180;" /><glyph d="M116 877H150V867L94 745H68Z" glyph-name="acute.case" horiz-adv-x="220" /><glyph d="M386 60 325 20Q304 5 287.5 0.5Q271 -4 247 -4H169Q117 -4 89.5 20.5Q62 45 62 92V175Q62 220 88 243.5Q114 267 170 273L385 297V389Q385 430 363 451Q341 472 298 472H191Q149 472 126.5 450.5Q104 429 104 389V356H70V386Q70 443 101 472.5Q132 502 191 502H301Q359 502 389.5 472.5Q420 443 420 388V0H389ZM171 27H249Q268 27 280.5 30.5Q293 34 314 47L385 93V266L173 242Q130 237 113 221.5Q96 206 96 175V93Q96 59 114.5 43Q133 27 171 27ZM213 606H179V668H213ZM304 606H270V668H304Z" glyph-name="adieresis" horiz-adv-x="497" unicode="&#228;" /><glyph d="M632 -4H507Q463 -4 434 13Q405 30 393 64L325 20Q304 5 287.5 0.5Q271 -4 247 -4H169Q117 -4 89.5 20.5Q62 45 62 92V168Q62 212 88.5 235Q115 258 174 265L385 288V389Q385 430 363 451Q341 472 298 472H191Q149 472 126.5 450.5Q104 429 104 389V349H70V386Q70 443 101 472.5Q132 502 191 502H301Q340 502 365.5 487.5Q391 473 402 444Q415 473 441.5 487.5Q468 502 507 502H632Q691 502 722 470.5Q753 439 753 380V258H420V114Q420 71 442.5 48.5Q465 26 507 26H632Q675 26 697 48.5Q719 71 719 114V153H753V117Q753 58 722 27Q691 -4 632 -4ZM171 27H249Q269 27 282 30.5Q295 34 314 46L386 94Q385 98 385 102.5Q385 107 385 118V257L176 235Q132 230 114 214.5Q96 199 96 168V93Q96 59 114.5 43Q133 27 171 27ZM420 385V288H719V385Q719 428 697 450Q675 472 632 472H507Q465 472 442.5 449.5Q420 427 420 385Z" glyph-name="ae" horiz-adv-x="819" unicode="&#230;" /><glyph d="M386 60 325 20Q304 5 287.5 0.5Q271 -4 247 -4H169Q117 -4 89.5 20.5Q62 45 62 92V175Q62 220 88 243.5Q114 267 170 273L385 297V389Q385 430 363 451Q341 472 298 472H191Q149 472 126.5 450.5Q104 429 104 389V356H70V386Q70 443 101 472.5Q132 502 191 502H301Q359 502 389.5 472.5Q420 443 420 388V0H389ZM171 27H249Q268 27 280.5 30.5Q293 34 314 47L385 93V266L173 242Q130 237 113 221.5Q96 206 96 175V93Q96 59 114.5 43Q133 27 171 27ZM230 565 174 687V697H208L256 565Z" glyph-name="agrave" horiz-adv-x="497" unicode="&#224;" /><glyph d="M386 60 325 20Q304 5 287.5 0.5Q271 -4 247 -4H169Q117 -4 89.5 20.5Q62 45 62 92V175Q62 220 88 243.5Q114 267 170 273L385 297V389Q385 430 363 451Q341 472 298 472H191Q149 472 126.5 450.5Q104 429 104 389V356H70V386Q70 443 101 472.5Q132 502 191 502H301Q359 502 389.5 472.5Q420 443 420 388V0H389ZM171 27H249Q268 27 280.5 30.5Q293 34 314 47L385 93V266L173 242Q130 237 113 221.5Q96 206 96 175V93Q96 59 114.5 43Q133 27 171 27ZM369 605H117V632H369Z" glyph-name="amacron" horiz-adv-x="497" unicode="&#257;" /><glyph d="M459 81 456 84 453 79Q424 32 395 14Q366 -4 327 -4H196Q131 -4 97 28.5Q63 61 63 124V232Q63 281 85.5 312Q108 343 162 364L203 380L196 389Q167 423 154.5 453.5Q142 484 142 516V573Q142 635 176 668Q210 701 275 701H352Q416 701 450 668Q484 635 484 573V511H449V572Q449 619 424 644.5Q399 670 352 670H275Q227 670 202 645Q177 620 177 572V516Q177 492 186 469Q195 446 219 417L452 141L520 253Q536 279 541.5 297.5Q547 316 547 341V381H581V338Q581 315 575 293.5Q569 272 555 249L474 115L481 107Q517 65 542.5 49Q568 33 596 33H624V0H593Q557 0 528 17.5Q499 35 459 81ZM195 27H328Q356 27 380 43.5Q404 60 426 97L434 110L225 355L176 336Q130 318 114 295Q98 272 98 234V125Q98 78 123 52.5Q148 27 195 27Z" glyph-name="ampersand" horiz-adv-x="659" unicode="&amp;" /><glyph d="M386 60 325 20Q304 5 287.5 0.5Q271 -4 247 -4H169Q117 -4 89.5 20.5Q62 45 62 92V175Q62 220 88 243.5Q114 267 170 273L385 297V389Q385 430 363 451Q341 472 298 472H191Q149 472 126.5 450.5Q104 429 104 389V356H70V386Q70 443 101 472.5Q132 502 191 502H301Q359 502 389.5 472.5Q420 443 420 388V0H415L313 -64Q294 -75 287 -86.5Q280 -98 280 -114V-129Q280 -147 290.5 -155Q301 -163 324 -163H420V-190H320Q285 -190 267.5 -175.5Q250 -161 250 -133V-117Q250 -96 261 -78.5Q272 -61 295 -46L388 11ZM171 27H249Q268 27 280.5 30.5Q293 34 314 47L385 93V266L173 242Q130 237 113 221.5Q96 206 96 175V93Q96 59 114.5 43Q133 27 171 27Z" glyph-name="aogonek" horiz-adv-x="498" unicode="&#261;" /><glyph d="M369 404H417Q424 404 428 406Q432 408 436 413L477 462L495 443L453 392Q446 382 438.5 378.5Q431 375 419 375H369Q364 375 358 376.5Q352 378 329 388L264 418Q237 430 229 432Q221 434 214 434H179Q165 434 156 430Q147 426 136 412L97 363L79 381L119 431Q136 452 147.5 457.5Q159 463 177 463H214Q226 463 239.5 459Q253 455 272 446L337 415Q352 408 357.5 406Q363 404 369 404ZM362 264H409Q415 264 419 266.5Q423 269 428 275L469 323L487 305L445 253Q437 243 430 239Q423 235 412 235H362Q352 235 338.5 242Q325 249 322 250L257 280Q236 289 226 292Q216 295 207 295H172Q158 295 149.5 291Q141 287 129 272L90 224L71 243L112 293Q127 313 139.5 318.5Q152 324 170 324H206Q218 324 231 320.5Q244 317 265 307L330 276Q349 267 353.5 265.5Q358 264 362 264Z" glyph-name="approxequal" horiz-adv-x="561" unicode="&#8776;" /><glyph d="M386 60 325 20Q304 5 287.5 0.5Q271 -4 247 -4H169Q117 -4 89.5 20.5Q62 45 62 92V175Q62 220 88 243.5Q114 267 170 273L385 297V389Q385 430 363 451Q341 472 298 472H191Q149 472 126.5 450.5Q104 429 104 389V356H70V386Q70 443 101 472.5Q132 502 191 502H301Q359 502 389.5 472.5Q420 443 420 388V0H389ZM171 27H249Q268 27 280.5 30.5Q293 34 314 47L385 93V266L173 242Q130 237 113 221.5Q96 206 96 175V93Q96 59 114.5 43Q133 27 171 27ZM227 738H260Q297 738 317 718.5Q337 699 337 663V637Q337 600 317.5 581Q298 562 260 562H227Q189 562 169.5 581Q150 600 150 637V663Q150 699 170 718.5Q190 738 227 738ZM260 714H227Q202 714 189 701Q176 688 176 663V637Q176 612 189 599Q202 586 227 586H260Q285 586 298.5 599Q312 612 312 637V663Q312 688 298.5 701Q285 714 260 714Z" glyph-name="aring" horiz-adv-x="497" unicode="&#229;" /><glyph d="M425 328H392L236 662L79 328H46L223 700H248Z" glyph-name="asciicircum" horiz-adv-x="471" unicode="^" /><glyph d="M353 347H414Q423 347 428.5 349.5Q434 352 439 359L491 414L514 394L460 334Q450 323 440.5 319Q431 315 417 315H354Q348 315 342 316.5Q336 318 328 320Q324 322 316 325.5Q308 329 303 331L220 366Q192 378 179.5 381Q167 384 156 384H111Q94 384 82.5 379.5Q71 375 55 358L5 302L-17 322L34 380Q55 404 70 410Q85 416 108 416H155Q170 416 186 412Q202 408 229 396L313 360Q315 359 329.5 353Q344 347 353 347Z" glyph-name="asciitilde" horiz-adv-x="491" unicode="~" /><glyph d="M304 529 252 504 303 480Q306 479 321.5 470.5Q337 462 365 447L409 422L395 398L351 423Q344 427 335 432.5Q326 438 310 448Q300 454 296.5 456Q293 458 291 459L243 489L246 432Q247 424 247.5 403Q248 382 248 362V312H220V362Q220 371 220.5 382Q221 393 222 412Q223 422 223 426Q223 430 223 432L225 489L177 459Q175 458 171.5 456Q168 454 158 448Q142 438 133 432.5Q124 427 117 423L73 398L59 422L103 447Q127 460 143.5 469Q160 478 166 480L215 504L165 529Q159 531 142.5 540Q126 549 102 562L59 586L72 610L116 586Q119 584 134 575Q149 566 176 549L225 518L223 577Q223 579 223 583Q223 587 222 597Q221 616 220.5 627Q220 638 220 647V697H248V647Q248 627 247.5 606Q247 585 246 577L243 519L292 549Q294 550 297 552Q300 554 308 559Q325 570 334.5 576Q344 582 352 586L396 610L409 586L366 562Q338 547 322.5 538.5Q307 530 304 529Z" glyph-name="asterisk" horiz-adv-x="469" unicode="*" /><glyph d="M607 -93H248Q166 -93 122 -49Q78 -5 78 77V531Q78 613 122 657Q166 701 248 701H598Q680 701 724 657Q768 613 768 531V206Q768 149 740.5 119.5Q713 90 660 90H625Q585 90 558.5 107.5Q532 125 526 155L456 113Q432 99 416 94.5Q400 90 379 90H330Q275 90 248 121Q221 152 232 203L275 401Q287 457 313.5 479.5Q340 502 390 502H451Q472 502 487 498Q502 494 522 480L578 440L593 498H621L556 191Q549 159 569 139Q589 119 626 119H658Q696 119 715.5 140Q735 161 735 202V534Q735 600 699.5 635.5Q664 671 597 671H248Q182 671 146.5 635.5Q111 600 111 534V75Q111 8 146.5 -27.5Q182 -63 248 -63H607ZM336 119H382Q402 119 414.5 122Q427 125 448 139L524 185Q525 188 525.5 191.5Q526 195 527 199L572 412L511 455Q493 468 481.5 471Q470 474 450 474H389Q355 474 335.5 456.5Q316 439 307 400L263 202Q254 162 273 140.5Q292 119 336 119Z" glyph-name="at" horiz-adv-x="843" unicode="@" /><glyph d="M386 60 325 20Q304 5 287.5 0.5Q271 -4 247 -4H169Q117 -4 89.5 20.5Q62 45 62 92V175Q62 220 88 243.5Q114 267 170 273L385 297V389Q385 430 363 451Q341 472 298 472H191Q149 472 126.5 450.5Q104 429 104 389V356H70V386Q70 443 101 472.5Q132 502 191 502H301Q359 502 389.5 472.5Q420 443 420 388V0H389ZM171 27H249Q268 27 280.5 30.5Q293 34 314 47L385 93V266L173 242Q130 237 113 221.5Q96 206 96 175V93Q96 59 114.5 43Q133 27 171 27ZM315 623H333Q350 623 359 631Q368 639 368 654V696H394V651Q394 624 379 610Q364 596 335 596H314Q301 596 286.5 601.5Q272 607 261 615L208 654Q200 660 188.5 664.5Q177 669 167 669H150Q132 669 123 661Q114 653 114 637V596H88V640Q88 668 103 682Q118 696 147 696H170Q181 696 195.5 690.5Q210 685 222 677L274 638Q282 632 293.5 627.5Q305 623 315 623Z" glyph-name="atilde" horiz-adv-x="497" unicode="&#227;" /><glyph d="M336 -4H252Q229 -4 212.5 0.5Q196 5 175 19L113 59L111 0H79V697H114V440L175 480Q197 494 213 498Q229 502 252 502H336Q392 502 421 473Q450 444 450 388V111Q450 55 420.5 25.5Q391 -4 336 -4ZM251 28H332Q373 28 394 49Q415 70 415 111V387Q415 428 394 449Q373 470 332 470H251Q229 470 217 467Q205 464 186 451L114 404V95L186 48Q206 35 218.5 31.5Q231 28 251 28Z" glyph-name="b" horiz-adv-x="522" unicode="b" /><glyph d="M59 770 414 -73H380L25 770Z" glyph-name="backslash" horiz-adv-x="438" unicode="\" /><glyph d="M134 -190H101V770H134Z" glyph-name="bar" horiz-adv-x="235" unicode="|" /><glyph d="M96 290Q124 281 138.5 258Q153 235 153 198V-59Q153 -107 175.5 -132Q198 -157 242 -157H287V-190H240Q180 -190 148.5 -156Q117 -122 117 -57V202Q117 237 101 255Q85 273 54 273H35V305H54Q85 305 101 323.5Q117 342 117 377V637Q117 702 148.5 736Q180 770 240 770H286V737H242Q198 737 175.5 712Q153 687 153 639V382Q153 345 138.5 321.5Q124 298 96 290Z" glyph-name="braceleft" horiz-adv-x="323" unicode="{" /><glyph d="M169 -59V198Q169 235 183.5 258Q198 281 227 290Q198 298 183.5 321.5Q169 345 169 382V639Q169 687 146.5 712Q124 737 80 737H36V770H83Q143 770 174 736Q205 702 205 637V377Q205 342 221.5 323.5Q238 305 269 305H287V273H269Q238 273 221.5 254.5Q205 236 205 202V-57Q205 -122 174 -156Q143 -190 83 -190H36V-157H80Q124 -157 146.5 -132Q169 -107 169 -59Z" glyph-name="braceright" horiz-adv-x="323" unicode="}" /><glyph d="M137 -158H205V-190H101V770H203V738H137Z" glyph-name="bracketleft" horiz-adv-x="255" unicode="[" /><glyph d="M154 -190H50V-158H118V738H52V770H154Z" glyph-name="bracketright" horiz-adv-x="255" unicode="]" /><glyph d="M268 653V710H295V653Q295 612 270.5 590Q246 568 200 568H153Q107 568 82.5 590Q58 612 58 653V710H85V653Q85 624 102.5 608.5Q120 593 153 593H199Q232 593 250 608.5Q268 624 268 653Z" glyph-name="breve" horiz-adv-x="355" unicode="&#728;" /><glyph d="M255 833V890H282V833Q282 792 258 770Q234 748 188 748H140Q94 748 69.5 770Q45 792 45 833V890H72V833Q72 804 89.5 788.5Q107 773 141 773H187Q220 773 237.5 788.5Q255 804 255 833Z" glyph-name="breve.case" horiz-adv-x="327" /><glyph d="M111 770V387H81V770ZM81 -190V193H111V-190Z" glyph-name="brokenbar" horiz-adv-x="192" unicode="&#166;" /><glyph d="M159.2601 174H99.5197V276.6685H159.2601Z" glyph-name="bullet" horiz-adv-x="259" unicode="&#8226;" /><glyph d="M309 -4H192Q132 -4 101 27Q70 58 70 118V380Q70 439 101.5 470.5Q133 502 192 502H309Q367 502 398.5 470.5Q430 439 430 380V342H395V383Q395 426 373 448Q351 470 308 470H193Q150 470 127.5 448Q105 426 105 383V115Q105 73 127.5 50.5Q150 28 193 28H308Q350 28 372.5 50.5Q395 73 395 115V175H430V118Q430 59 399 27.5Q368 -4 309 -4Z" glyph-name="c" horiz-adv-x="489" unicode="c" /><glyph d="M285 697H319V687L262 565H237ZM309 -4H192Q132 -4 101 27Q70 58 70 118V380Q70 439 101.5 470.5Q133 502 192 502H309Q367 502 398.5 470.5Q430 439 430 380V342H395V383Q395 426 373 448Q351 470 308 470H193Q150 470 127.5 448Q105 426 105 383V115Q105 73 127.5 50.5Q150 28 193 28H308Q350 28 372.5 50.5Q395 73 395 115V175H430V118Q430 59 399 27.5Q368 -4 309 -4Z" glyph-name="cacute" horiz-adv-x="489" unicode="&#263;" /><glyph d="M197 565H165L84 697H110L181 590L252 697H278Z" glyph-name="caron" horiz-adv-x="363" unicode="&#711;" /><glyph d="M133 745H101L20 877H46L117 770L188 877H214Z" glyph-name="caron.case" horiz-adv-x="235" /><glyph d="M132 697H170V685L130 561H107Z" glyph-name="caron.salt" horiz-adv-x="279" /><glyph d="M266 565H234L153 697H179L250 590L321 697H347ZM309 -4H192Q132 -4 101 27Q70 58 70 118V380Q70 439 101.5 470.5Q133 502 192 502H309Q367 502 398.5 470.5Q430 439 430 380V342H395V383Q395 426 373 448Q351 470 308 470H193Q150 470 127.5 448Q105 426 105 383V115Q105 73 127.5 50.5Q150 28 193 28H308Q350 28 372.5 50.5Q395 73 395 115V175H430V118Q430 59 399 27.5Q368 -4 309 -4Z" glyph-name="ccaron" horiz-adv-x="489" unicode="&#269;" /><glyph d="M221 -4H192Q132 -4 101 27Q70 58 70 118V380Q70 439 101.5 470.5Q133 502 192 502H309Q367 502 398.5 470.5Q430 439 430 380V342H395V383Q395 426 373 448Q351 470 308 470H193Q150 470 127.5 448Q105 426 105 383V115Q105 73 127.5 50.5Q150 28 193 28H308Q350 28 372.5 50.5Q395 73 395 115V175H430V118Q430 59 399 27.5Q368 -4 309 -4H250L220 -61H284Q315 -61 330 -74Q345 -87 345 -114V-132Q345 -158 330 -171Q315 -184 285 -184H173V-160H283Q301 -160 309.5 -152.5Q318 -145 318 -129V-116Q318 -101 309.5 -93.5Q301 -86 282 -86H204Q197 -86 193 -83Q189 -80 189 -75V-70Q189 -68 189.5 -65.5Q190 -63 194 -56Z" glyph-name="ccedilla" horiz-adv-x="489" unicode="&#231;" /><glyph d="M347 565H321L250 672L179 565H153L234 697H266ZM309 -4H192Q132 -4 101 27Q70 58 70 118V380Q70 439 101.5 470.5Q133 502 192 502H309Q367 502 398.5 470.5Q430 439 430 380V342H395V383Q395 426 373 448Q351 470 308 470H193Q150 470 127.5 448Q105 426 105 383V115Q105 73 127.5 50.5Q150 28 193 28H308Q350 28 372.5 50.5Q395 73 395 115V175H430V118Q430 59 399 27.5Q368 -4 309 -4Z" glyph-name="ccircumflex" horiz-adv-x="489" unicode="&#265;" /><glyph d="M309 -4H192Q132 -4 101 27Q70 58 70 118V380Q70 439 101.5 470.5Q133 502 192 502H309Q367 502 398.5 470.5Q430 439 430 380V342H395V383Q395 426 373 448Q351 470 308 470H193Q150 470 127.5 448Q105 426 105 383V115Q105 73 127.5 50.5Q150 28 193 28H308Q350 28 372.5 50.5Q395 73 395 115V175H430V118Q430 59 399 27.5Q368 -4 309 -4ZM268 606H229V673H268Z" glyph-name="cdotaccent" horiz-adv-x="489" unicode="&#267;" /><glyph d="M162 19 177 11 139 -61H203Q234 -61 249 -74Q264 -87 264 -114V-132Q264 -158 249 -171Q234 -184 204 -184H92V-160H202Q220 -160 228.5 -152.5Q237 -145 237 -129V-116Q237 -101 228.5 -93.5Q220 -86 201 -86H123Q116 -86 112 -83Q108 -80 108 -75V-70Q108 -68 108.5 -65.5Q109 -63 113 -56L153 19Z" glyph-name="cedilla" horiz-adv-x="356" unicode="&#184;" /><glyph d="M302 95H263V-4H230V95H192Q132 95 101 126Q70 157 70 217V480Q70 539 101.5 570.5Q133 602 192 602H230V701H263V602H302Q361 602 392 570.5Q423 539 423 480V441H388V482Q388 525 366 547.5Q344 570 301 570H193Q150 570 127.5 547.5Q105 525 105 482V215Q105 172 127.5 149.5Q150 127 193 127H301Q344 127 366 149.5Q388 172 388 215V274H423V217Q423 157 392 126Q361 95 302 95Z" glyph-name="cent" horiz-adv-x="485" unicode="&#162;" /><glyph d="M181 50H162V-2H135V50H118Q85 50 67.5 67.5Q50 85 50 118V252Q50 285 67.5 302.5Q85 320 118 320H135V372H162V320H181Q213 320 230 302.5Q247 285 247 252V231H219V253Q219 273 208 284Q197 295 177 295H121Q101 295 90 284Q79 273 79 253V117Q79 97 90 86Q101 75 121 75H177Q198 75 208.5 85.5Q219 96 219 117V147H247V118Q247 85 230.5 67.5Q214 50 181 50Z" glyph-name="cent.denominator" horiz-adv-x="293" unicode="&#63017;" /><glyph d="M181 378H162V326H135V378H118Q85 378 67.5 395.5Q50 413 50 446V580Q50 613 67.5 630.5Q85 648 118 648H135V700H162V648H181Q213 648 230 630.5Q247 613 247 580V559H219V581Q219 601 208 612Q197 623 177 623H121Q101 623 90 612Q79 601 79 581V445Q79 425 90 414Q101 403 121 403H177Q198 403 208.5 413.5Q219 424 219 445V475H247V446Q247 413 230.5 395.5Q214 378 181 378Z" glyph-name="cent.numerator" horiz-adv-x="293" unicode="&#63022;" /><glyph d="M278 565H252L181 672L110 565H84L165 697H197Z" glyph-name="circumflex" horiz-adv-x="363" unicode="&#710;" /><glyph d="M214 745H188L117 852L46 745H20L101 877H133Z" glyph-name="circumflex.case" horiz-adv-x="235" /><glyph d="M117 0H76V69H117ZM117 430H76V498H117Z" glyph-name="colon" horiz-adv-x="193" unicode=":" /><glyph d="M81 69H122V56L78 -84H52Z" glyph-name="comma" horiz-adv-x="192" unicode="," /><glyph d="M62 45H95V36L65 -47H46Z" glyph-name="comma.denominator" horiz-adv-x="145" unicode="&#63071;" /><glyph d="M62 373H95V364L65 281H46Z" glyph-name="comma.numerator" horiz-adv-x="145" unicode="&#63083;" /><glyph d="M83 69H123V57L82 -75H56Z" glyph-name="commaaccent" horiz-adv-x="187" unicode="&#63171;" /><glyph d="M137 69H177V57L137 -67H111Z" glyph-name="commaaccent.salt" horiz-adv-x="287" /><glyph d="M75 183V514Q75 604 123.5 652.5Q172 701 262 701H535Q625 701 673.5 652.5Q722 604 722 514V183Q722 93 673.5 44.5Q625 -4 535 -4H262Q172 -4 123.5 44.5Q75 93 75 183ZM535 674H262Q186 674 145 633.5Q104 593 104 516V181Q104 105 145 64Q186 23 262 23H535Q612 23 653 64Q694 105 694 181V516Q694 592 653 633Q612 674 535 674ZM449 128H348Q295 128 267 155.5Q239 183 239 236V461Q239 513 267 541Q295 569 348 569H449Q501 569 529 541.5Q557 514 557 462V427H521V463Q521 498 502 517Q483 536 447 536H349Q314 536 295 517Q276 498 276 463V234Q276 199 295 180.5Q314 162 349 162H447Q483 162 502 180.5Q521 199 521 234V287H557V235Q557 183 529 155.5Q501 128 449 128Z" glyph-name="copyright" horiz-adv-x="797" unicode="&#169;" /><glyph d="M562 116 540 94 429 205Q415 195 397 190.5Q379 186 357 186H266Q244 186 226 190.5Q208 195 194 204L84 94L61 116L170 225Q158 240 152 260.5Q146 281 146 306V384Q146 410 152 430Q158 450 170 465L61 574L84 596L194 485Q207 495 225 499.5Q243 504 266 504H357Q380 504 397.5 499.5Q415 495 429 485L540 596L562 574L453 465Q465 450 471 430Q477 410 477 384V306Q477 280 470.5 260Q464 240 452 226ZM265 215H358Q398 215 421.5 238.5Q445 262 445 302V389Q445 431 422.5 453.5Q400 476 358 476H265Q223 476 200.5 453.5Q178 431 178 389V302Q178 260 200.5 237.5Q223 215 265 215Z" glyph-name="currency" horiz-adv-x="623" unicode="&#164;" /><glyph d="M409 59 347 19Q326 5 309.5 0.5Q293 -4 270 -4H186Q131 -4 101.5 25.5Q72 55 72 111V388Q72 444 101.5 473Q131 502 186 502H270Q294 502 310.5 497.5Q327 493 347 480L408 440V697H443V0H411ZM190 28H271Q292 28 304.5 31.5Q317 35 336 48L408 95V404L336 451Q317 463 304 466.5Q291 470 271 470H190Q149 470 128 449Q107 428 107 387V111Q107 70 128 49Q149 28 190 28Z" glyph-name="d" horiz-adv-x="522" unicode="d" /><glyph d="M238 397V287L231 0H205L199 287V397L204 486H35V516H204L199 631V697H238V631L232 516H402V486H233Z" glyph-name="dagger" horiz-adv-x="436" unicode="&#8224;" /><glyph d="M255 181 260 66V0H221V66L226 181H57V211H226L221 336V382L226 486H57V516H226L221 631V697H260V631L255 516H424V486H255L260 382V336L255 211H424V181Z" glyph-name="daggerdbl" horiz-adv-x="482" unicode="&#8225;" /><glyph d="M532 697H570V685L530 561H507ZM409 59 347 19Q326 5 309.5 0.5Q293 -4 270 -4H186Q131 -4 101.5 25.5Q72 55 72 111V388Q72 444 101.5 473Q131 502 186 502H270Q294 502 310.5 497.5Q327 493 347 480L408 440V697H443V0H411ZM190 28H271Q292 28 304.5 31.5Q317 35 336 48L408 95V404L336 451Q317 463 304 466.5Q291 470 271 470H190Q149 470 128 449Q107 428 107 387V111Q107 70 128 49Q149 28 190 28Z" glyph-name="dcaron" horiz-adv-x="522" unicode="&#271;" /><glyph d="M408 586H293V612H408V697H443V612H521V586H443V0H411L409 59L347 19Q326 5 309.5 0.5Q293 -4 270 -4H186Q131 -4 101.5 25.5Q72 55 72 111V388Q72 444 101.5 473Q131 502 186 502H270Q294 502 310.5 497.5Q327 493 347 480L408 440ZM190 28H271Q292 28 304.5 31.5Q317 35 336 48L408 95V404L336 451Q317 463 304 466.5Q291 470 271 470H190Q149 470 128 449Q107 428 107 387V111Q107 70 128 49Q149 28 190 28Z" glyph-name="dcroat" horiz-adv-x="522" unicode="&#273;" /><glyph d="M285 379H171Q120 379 93.5 405.5Q67 432 67 483V597Q67 648 93.5 674.5Q120 701 171 701H285Q336 701 363.5 674Q391 647 391 597V483Q391 433 363.5 406Q336 379 285 379ZM173 407H283Q318 407 338.5 427.5Q359 448 359 483V597Q359 634 339.5 653.5Q320 673 283 673H173Q137 673 117.5 653.5Q98 634 98 597V483Q98 446 117.5 426.5Q137 407 173 407Z" glyph-name="degree" horiz-adv-x="457" unicode="&#176;" /><glyph d="M103 606H69V668H103ZM194 606H160V668H194Z" glyph-name="dieresis" horiz-adv-x="263" unicode="&#168;" /><glyph d="M86 780H52V842H86ZM177 780H143V842H177Z" glyph-name="dieresis.case" horiz-adv-x="230" /><glyph d="M62 333V364H429V333ZM263 147H227V211H263ZM263 486H227V550H263Z" glyph-name="divide" horiz-adv-x="491" unicode="&#247;" /><glyph d="M344 -4H291V-110H258V-4H203Q137 -4 102.5 25Q68 54 68 110V189H104V108Q104 69 129.5 48.5Q155 28 204 28H343Q392 28 417.5 48.5Q443 69 443 108V250Q443 276 429.5 294.5Q416 313 393 319L149 387Q110 399 92 425Q74 451 74 494V587Q74 643 108.5 672Q143 701 209 701H258V807H291V701H339Q404 701 439 671.5Q474 642 474 587V502H438V589Q438 628 412.5 648.5Q387 669 338 669H210Q161 669 135.5 648.5Q110 628 110 589V496Q110 462 122 444.5Q134 427 161 419L402 352Q440 342 460 316Q480 290 480 253V110Q480 54 445.5 25Q411 -4 344 -4Z" glyph-name="dollar" horiz-adv-x="550" unicode="$" /><glyph d="M198 -2H173V-58H146V-2H121Q84 -2 65 14.5Q46 31 46 63V102H75V63Q75 44 87.5 34Q100 24 124 24H194Q218 24 230.5 34Q243 44 243 63V118Q243 130 237.5 138.5Q232 147 221 152L90 205Q68 215 59 229Q50 243 50 264V307Q50 338 69 355Q88 372 124 372H146V428H173V372H195Q231 372 250.5 355Q270 338 270 307V265H240V306Q240 325 227.5 335Q215 345 191 345H127Q103 345 90.5 335Q78 325 78 306V268Q78 254 84 245Q90 236 104 230L234 178Q253 170 263 156Q273 142 273 122V63Q273 31 254 14.5Q235 -2 198 -2Z" glyph-name="dollar.denominator" horiz-adv-x="320" unicode="&#63018;" /><glyph d="M198 326H173V270H146V326H121Q84 326 65 342.5Q46 359 46 391V430H75V391Q75 372 87.5 362Q100 352 124 352H194Q218 352 230.5 362Q243 372 243 391V446Q243 458 237.5 466.5Q232 475 221 480L90 533Q68 543 59 557Q50 571 50 592V635Q50 666 69 683Q88 700 124 700H146V756H173V700H195Q231 700 250.5 683Q270 666 270 635V593H240V634Q240 653 227.5 663Q215 673 191 673H127Q103 673 90.5 663Q78 653 78 634V596Q78 582 84 573Q90 564 104 558L234 506Q253 498 263 484Q273 470 273 450V391Q273 359 254 342.5Q235 326 198 326Z" glyph-name="dollar.numerator" horiz-adv-x="320" unicode="&#63023;" /><glyph d="M150 606H111V673H150Z" glyph-name="dotaccent" horiz-adv-x="261" unicode="&#729;" /><glyph d="M126 803H88V869H126Z" glyph-name="dotaccent.case" horiz-adv-x="214" /><glyph d="M114 0H79V498H114Z" glyph-name="dotlessi" horiz-adv-x="194" unicode="&#305;" /><glyph d="M438 153V117Q438 58 407 27Q376 -4 317 -4H192Q132 -4 101 27Q70 58 70 118V380Q70 439 101.5 470.5Q133 502 192 502H317Q376 502 407 470.5Q438 439 438 380V250H105V114Q105 72 127.5 49.5Q150 27 192 27H316Q359 27 381.5 49Q404 71 404 114V153ZM105 385V280H404V385Q404 427 381.5 449.5Q359 472 317 472H192Q150 472 127.5 449.5Q105 427 105 385Z" glyph-name="e" horiz-adv-x="504" unicode="e" /><glyph d="M288 697H322V687L265 565H240ZM438 153V117Q438 58 407 27Q376 -4 317 -4H192Q132 -4 101 27Q70 58 70 118V380Q70 439 101.5 470.5Q133 502 192 502H317Q376 502 407 470.5Q438 439 438 380V250H105V114Q105 72 127.5 49.5Q150 27 192 27H316Q359 27 381.5 49Q404 71 404 114V153ZM105 385V280H404V385Q404 427 381.5 449.5Q359 472 317 472H192Q150 472 127.5 449.5Q105 427 105 385Z" glyph-name="eacute" horiz-adv-x="504" unicode="&#233;" /><glyph d="M438 153V117Q438 58 407 27Q376 -4 317 -4H192Q132 -4 101 27Q70 58 70 118V380Q70 439 101.5 470.5Q133 502 192 502H317Q376 502 407 470.5Q438 439 438 380V250H105V114Q105 72 127.5 49.5Q150 27 192 27H316Q359 27 381.5 49Q404 71 404 114V153ZM105 385V280H404V385Q404 427 381.5 449.5Q359 472 317 472H192Q150 472 127.5 449.5Q105 427 105 385ZM346 653V710H373V653Q373 612 348.5 590Q324 568 278 568H231Q185 568 160.5 590Q136 612 136 653V710H163V653Q163 624 180.5 608.5Q198 593 231 593H277Q310 593 328 608.5Q346 624 346 653Z" glyph-name="ebreve" horiz-adv-x="504" unicode="&#277;" /><glyph d="M269 565H237L156 697H182L253 590L324 697H350ZM438 153V117Q438 58 407 27Q376 -4 317 -4H192Q132 -4 101 27Q70 58 70 118V380Q70 439 101.5 470.5Q133 502 192 502H317Q376 502 407 470.5Q438 439 438 380V250H105V114Q105 72 127.5 49.5Q150 27 192 27H316Q359 27 381.5 49Q404 71 404 114V153ZM105 385V280H404V385Q404 427 381.5 449.5Q359 472 317 472H192Q150 472 127.5 449.5Q105 427 105 385Z" glyph-name="ecaron" horiz-adv-x="504" unicode="&#283;" /><glyph d="M352 565H326L255 672L184 565H158L239 697H271ZM438 153V117Q438 58 407 27Q376 -4 317 -4H192Q132 -4 101 27Q70 58 70 118V380Q70 439 101.5 470.5Q133 502 192 502H317Q376 502 407 470.5Q438 439 438 380V250H105V114Q105 72 127.5 49.5Q150 27 192 27H316Q359 27 381.5 49Q404 71 404 114V153ZM105 385V280H404V385Q404 427 381.5 449.5Q359 472 317 472H192Q150 472 127.5 449.5Q105 427 105 385Z" glyph-name="ecircumflex" horiz-adv-x="504" unicode="&#234;" /><glyph d="M226 606H192V668H226ZM317 606H283V668H317ZM438 153V117Q438 58 407 27Q376 -4 317 -4H192Q132 -4 101 27Q70 58 70 118V380Q70 439 101.5 470.5Q133 502 192 502H317Q376 502 407 470.5Q438 439 438 380V250H105V114Q105 72 127.5 49.5Q150 27 192 27H316Q359 27 381.5 49Q404 71 404 114V153ZM105 385V280H404V385Q404 427 381.5 449.5Q359 472 317 472H192Q150 472 127.5 449.5Q105 427 105 385Z" glyph-name="edieresis" horiz-adv-x="504" unicode="&#235;" /><glyph d="M438 153V117Q438 58 407 27Q376 -4 317 -4H192Q132 -4 101 27Q70 58 70 118V380Q70 439 101.5 470.5Q133 502 192 502H317Q376 502 407 470.5Q438 439 438 380V250H105V114Q105 72 127.5 49.5Q150 27 192 27H316Q359 27 381.5 49Q404 71 404 114V153ZM105 385V280H404V385Q404 427 381.5 449.5Q359 472 317 472H192Q150 472 127.5 449.5Q105 427 105 385ZM273 606H234V673H273Z" glyph-name="edotaccent" horiz-adv-x="504" unicode="&#279;" /><glyph d="M438 153V117Q438 58 407 27Q376 -4 317 -4H192Q132 -4 101 27Q70 58 70 118V380Q70 439 101.5 470.5Q133 502 192 502H317Q376 502 407 470.5Q438 439 438 380V250H105V114Q105 72 127.5 49.5Q150 27 192 27H316Q359 27 381.5 49Q404 71 404 114V153ZM105 385V280H404V385Q404 427 381.5 449.5Q359 472 317 472H192Q150 472 127.5 449.5Q105 427 105 385ZM244 565 188 687V697H222L270 565Z" glyph-name="egrave" horiz-adv-x="504" unicode="&#232;" /><glyph d="M359 -4H212Q148 -4 113.5 30Q79 64 79 127V246Q79 294 99.5 324.5Q120 355 160 366Q125 379 107 408.5Q89 438 89 483V570Q89 633 123.5 667Q158 701 222 701H350Q414 701 448.5 667Q483 633 483 570V483Q483 438 465 408.5Q447 379 411 366Q451 355 471.5 324.5Q492 294 492 246V127Q492 64 457.5 30Q423 -4 359 -4ZM349 669H222Q175 669 150 643.5Q125 618 125 571V477Q125 430 150 405Q175 380 222 380H349Q396 380 421.5 405Q447 430 447 477V571Q447 618 421.5 643.5Q396 669 349 669ZM359 348H213Q165 348 140 323Q115 298 115 250V126Q115 78 140 53Q165 28 213 28H359Q406 28 431 53Q456 78 456 126V250Q456 298 431 323Q406 348 359 348Z" glyph-name="eight" horiz-adv-x="571" unicode="8" /><glyph d="M213 -2H129Q94 -2 76 16.5Q58 35 58 70V131Q58 157 68.5 173Q79 189 100 194Q82 201 72.5 216.5Q63 232 63 255V300Q63 335 82 353.5Q101 372 136 372H207Q242 372 260.5 353.5Q279 335 279 300V255Q279 232 269.5 216.5Q260 201 242 194Q263 188 274 172Q285 156 285 131V70Q285 35 266.5 16.5Q248 -2 213 -2ZM93 299V253Q93 230 105 217.5Q117 205 140 205H203Q226 205 238 217.5Q250 230 250 253V299Q250 322 238 334Q226 346 203 346H140Q117 346 105 334Q93 322 93 299ZM208 180H134Q111 180 99 168Q87 156 87 132V70Q87 47 99 35Q111 23 134 23H208Q231 23 243.5 35Q256 47 256 70V132Q256 156 244 168Q232 180 208 180Z" glyph-name="eight.denominator" horiz-adv-x="342" unicode="&#63069;" /><glyph d="M213 -152H129Q94 -152 76 -133.5Q58 -115 58 -80V-19Q58 7 68.5 23Q79 39 100 44Q82 51 72.5 66.5Q63 82 63 105V150Q63 185 82 203.5Q101 222 136 222H207Q242 222 260.5 203.5Q279 185 279 150V105Q279 82 269.5 66.5Q260 51 242 44Q263 38 274 22Q285 6 285 -19V-80Q285 -115 266.5 -133.5Q248 -152 213 -152ZM93 149V103Q93 80 105 67.5Q117 55 140 55H203Q226 55 238 67.5Q250 80 250 103V149Q250 172 238 184Q226 196 203 196H140Q117 196 105 184Q93 172 93 149ZM208 30H134Q111 30 99 18Q87 6 87 -18V-80Q87 -103 99 -115Q111 -127 134 -127H208Q231 -127 243.5 -115Q256 -103 256 -80V-18Q256 6 244 18Q232 30 208 30Z" glyph-name="eight.inferior" horiz-adv-x="342" unicode="&#8328;" /><glyph d="M213 326H129Q94 326 76 344.5Q58 363 58 398V459Q58 485 68.5 501Q79 517 100 522Q82 529 72.5 544.5Q63 560 63 583V628Q63 663 82 681.5Q101 700 136 700H207Q242 700 260.5 681.5Q279 663 279 628V583Q279 560 269.5 544.5Q260 529 242 522Q263 516 274 500Q285 484 285 459V398Q285 363 266.5 344.5Q248 326 213 326ZM93 627V581Q93 558 105 545.5Q117 533 140 533H203Q226 533 238 545.5Q250 558 250 581V627Q250 650 238 662Q226 674 203 674H140Q117 674 105 662Q93 650 93 627ZM208 508H134Q111 508 99 496Q87 484 87 460V398Q87 375 99 363Q111 351 134 351H208Q231 351 243.5 363Q256 375 256 398V460Q256 484 244 496Q232 508 208 508Z" glyph-name="eight.numerator" horiz-adv-x="342" unicode="&#63081;" /><glyph d="M213 477H129Q94 477 76 495.5Q58 514 58 549V610Q58 636 68.5 652Q79 668 100 673Q82 680 72.5 695.5Q63 711 63 734V779Q63 814 82 832.5Q101 851 136 851H207Q242 851 260.5 832.5Q279 814 279 779V734Q279 711 269.5 695.5Q260 680 242 673Q263 667 274 651Q285 635 285 610V549Q285 514 266.5 495.5Q248 477 213 477ZM93 778V732Q93 709 105 696.5Q117 684 140 684H203Q226 684 238 696.5Q250 709 250 732V778Q250 801 238 813Q226 825 203 825H140Q117 825 105 813Q93 801 93 778ZM208 659H134Q111 659 99 647Q87 635 87 611V549Q87 526 99 514Q111 502 134 502H208Q231 502 243.5 514Q256 526 256 549V611Q256 635 244 647Q232 659 208 659Z" glyph-name="eight.superior" horiz-adv-x="342" unicode="&#8312;" /><glyph d="M366 -4H219Q155 -4 120.5 30Q86 64 86 127V246Q86 294 106.5 324.5Q127 355 167 366Q132 379 114 408.5Q96 438 96 483V570Q96 633 130.5 667Q165 701 229 701H357Q421 701 455.5 667Q490 633 490 570V483Q490 438 472 408.5Q454 379 418 366Q458 355 478.5 324.5Q499 294 499 246V127Q499 64 464.5 30Q430 -4 366 -4ZM356 669H229Q182 669 157 643.5Q132 618 132 571V477Q132 430 157 405Q182 380 229 380H356Q403 380 428.5 405Q454 430 454 477V571Q454 618 428.5 643.5Q403 669 356 669ZM366 348H220Q172 348 147 323Q122 298 122 250V126Q122 78 147 53Q172 28 220 28H366Q413 28 438 53Q463 78 463 126V250Q463 298 438 323Q413 348 366 348Z" glyph-name="eight.tab" horiz-adv-x="586" unicode="&#65304;" /><glyph d="M114 0H74V69H114ZM462 0H422V69H462ZM288 0H248V69H288Z" glyph-name="ellipsis" horiz-adv-x="536" unicode="&#8230;" /><glyph d="M438 153V117Q438 58 407 27Q376 -4 317 -4H192Q132 -4 101 27Q70 58 70 118V380Q70 439 101.5 470.5Q133 502 192 502H317Q376 502 407 470.5Q438 439 438 380V250H105V114Q105 72 127.5 49.5Q150 27 192 27H316Q359 27 381.5 49Q404 71 404 114V153ZM105 385V280H404V385Q404 427 381.5 449.5Q359 472 317 472H192Q150 472 127.5 449.5Q105 427 105 385ZM379 605H127V632H379Z" glyph-name="emacron" horiz-adv-x="504" unicode="&#275;" /><glyph d="M71 274V303H759V274Z" glyph-name="emdash" horiz-adv-x="830" unicode="&#8212;" /><glyph d="M71 274V303H404V274Z" glyph-name="endash" horiz-adv-x="475" unicode="&#8211;" /><glyph d="M413 -163V-190H313Q278 -190 260.5 -175.5Q243 -161 243 -133V-117Q243 -100 252 -84Q261 -68 288 -46L338 -2Q329 -3 324.5 -3.5Q320 -4 315 -4H192Q133 -4 102 27Q71 58 71 118V380Q71 439 102 470.5Q133 502 192 502H317Q376 502 407.5 470.5Q439 439 439 380V250H105V114Q105 71 127.5 49Q150 27 193 27H317Q360 27 382 49Q404 71 404 114V153H439V117Q439 87 430 63Q421 39 405 25L306 -64Q283 -84 278 -93.5Q273 -103 273 -114V-129Q273 -147 283.5 -155Q294 -163 317 -163ZM105 385V280H404V385Q404 427 381.5 449.5Q359 472 317 472H193Q150 472 127.5 449.5Q105 427 105 385Z" glyph-name="eogonek" horiz-adv-x="504" unicode="&#281;" /><glyph d="M62 254V283H429V254ZM62 420V449H429V420Z" glyph-name="equal" horiz-adv-x="491" unicode="=" /><glyph d="M398 10Q465 10 527.5 38.5Q590 67 634 117H665Q618 56 547 22Q476 -12 398 -12Q257 -12 158.5 86.5Q60 185 60 326Q60 467 159.5 566.5Q259 666 399 666Q538 666 636.5 569Q735 472 738 332H155V126Q201 71 264.5 40.5Q328 10 398 10ZM399 644Q329 644 265 613Q201 582 155 526V353H644V525Q597 582 533 613Q469 644 399 644Z" glyph-name="estimated" horiz-adv-x="778" unicode="&#8494;" /><glyph d="M320 -4H192Q133 -4 102 27Q71 58 71 118V384Q71 442 101 472Q131 502 189 502H269Q293 502 310 497.5Q327 493 346 480L407 440V458Q407 499 398 523Q389 547 359 581L334 610L240 579V603L318 630L261 697H302L351 641L442 671V647L367 621L388 597Q420 561 431 531.5Q442 502 442 452V118Q442 59 410.5 27.5Q379 -4 320 -4ZM193 27H319Q360 27 383.5 51Q407 75 407 115V404L335 451Q316 463 303 466.5Q290 470 270 470H192Q150 470 128 448Q106 426 106 384V115Q106 72 128 49.5Q150 27 193 27Z" glyph-name="eth" horiz-adv-x="519" unicode="&#240;" /><glyph d="M140 0H99V69H140ZM138 333 133 139H106L100 333V697H138Z" glyph-name="exclam" horiz-adv-x="238" unicode="!" /><glyph d="M133 498H92V429H133ZM131 165 126 359H99L93 165V-199H131Z" glyph-name="exclamdown" horiz-adv-x="225" unicode="&#161;" /><glyph d="M311 495V464H148V0H113V464H24V495H113V575Q113 635 144 666Q175 697 235 697H311V665H235Q193 665 170.5 642.5Q148 620 148 578V495Z" glyph-name="f" horiz-adv-x="327" unicode="f" /><glyph d="M311 495V464H148V0H113V464H24V495H113V575Q113 635 144 666Q175 697 235 697H311V665H235Q193 665 170.5 642.5Q148 620 148 578V495ZM638 495V464H475V0H440V464H351V495H440V575Q440 635 471 666Q502 697 562 697H638V665H562Q520 665 497.5 642.5Q475 620 475 578V495Z" glyph-name="f_f" horiz-adv-x="655" unicode="&#64256;" /><glyph d="M769 0H734V498H769ZM771 608H732V697H771ZM311 495V464H148V0H113V464H24V495H113V575Q113 635 144 666Q175 697 235 697H311V665H235Q193 665 170.5 642.5Q148 620 148 578V495ZM638 495V464H475V0H440V464H351V495H440V575Q440 635 471 666Q502 697 562 697H638V665H562Q520 665 497.5 642.5Q475 620 475 578V495Z" glyph-name="f_f_i" horiz-adv-x="849" unicode="&#64259;" /><glyph d="M736 0V697H771V0ZM311 495V464H148V0H113V464H24V495H113V575Q113 635 144 666Q175 697 235 697H311V665H235Q193 665 170.5 642.5Q148 620 148 578V495ZM638 495V464H475V0H440V464H351V495H440V575Q440 635 471 666Q502 697 562 697H638V665H562Q520 665 497.5 642.5Q475 620 475 578V495Z" glyph-name="f_f_l" horiz-adv-x="852" unicode="&#64260;" /><glyph d="M441 0H406V498H441ZM443 608H404V697H443ZM311 495V464H148V0H113V464H24V495H113V575Q113 635 144 666Q175 697 235 697H311V665H235Q193 665 170.5 642.5Q148 620 148 578V495Z" glyph-name="fi" horiz-adv-x="521" unicode="&#64257;" /><glyph d="M350 -4H203Q139 -4 105 26.5Q71 57 71 115V185H106V114Q106 72 131 50Q156 28 204 28H349Q397 28 421.5 52Q446 76 446 123V274Q446 319 421 342.5Q396 366 349 366H79V697H465V664H115V398H350Q415 398 449 365.5Q483 333 483 272V124Q483 62 449 29Q415 -4 350 -4Z" glyph-name="five" horiz-adv-x="546" unicode="5" /><glyph d="M204 -2H124Q88 -2 69.5 15.5Q51 33 51 66V99H80V66Q80 45 92 34.5Q104 24 127 24H199Q223 24 235 35.5Q247 47 247 69V144Q247 166 234.5 177Q222 188 199 188H57V369H267V343H85V214H204Q239 214 257.5 196Q276 178 276 144V70Q276 35 257.5 16.5Q239 -2 204 -2Z" glyph-name="five.denominator" horiz-adv-x="324" unicode="&#63066;" /><glyph d="M205 -152H125Q89 -152 70.5 -134.5Q52 -117 52 -84V-51H81V-84Q81 -105 93 -115.5Q105 -126 128 -126H200Q224 -126 236 -114.5Q248 -103 248 -81V-6Q248 16 235.5 27Q223 38 200 38H58V219H268V193H86V64H205Q240 64 258.5 46Q277 28 277 -6V-80Q277 -115 258.5 -133.5Q240 -152 205 -152Z" glyph-name="five.inferior" horiz-adv-x="326" unicode="&#8325;" /><glyph d="M204 326H124Q88 326 69.5 343.5Q51 361 51 394V427H80V394Q80 373 92 362.5Q104 352 127 352H199Q223 352 235 363.5Q247 375 247 397V472Q247 494 234.5 505Q222 516 199 516H57V697H267V671H85V542H204Q239 542 257.5 524Q276 506 276 472V398Q276 363 257.5 344.5Q239 326 204 326Z" glyph-name="five.numerator" horiz-adv-x="324" unicode="&#63078;" /><glyph d="M204 477H124Q88 477 69.5 494.5Q51 512 51 545V578H80V545Q80 524 92 513.5Q104 503 127 503H199Q223 503 235 514.5Q247 526 247 548V623Q247 645 234.5 656Q222 667 199 667H57V848H267V822H85V693H204Q239 693 257.5 675Q276 657 276 623V549Q276 514 257.5 495.5Q239 477 204 477Z" glyph-name="five.superior" horiz-adv-x="324" unicode="&#8309;" /><glyph d="M370 -4H223Q159 -4 125 26.5Q91 57 91 115V185H126V114Q126 72 151 50Q176 28 224 28H369Q417 28 441.5 52Q466 76 466 123V274Q466 319 441 342.5Q416 366 369 366H99V697H485V664H135V398H370Q435 398 469 365.5Q503 333 503 272V124Q503 62 469 29Q435 -4 370 -4Z" glyph-name="five.tab" horiz-adv-x="586" unicode="&#65301;" /><glyph d="M408 0V697H443V0ZM311 495V464H148V0H113V464H24V495H113V575Q113 635 144 666Q175 697 235 697H311V665H235Q193 665 170.5 642.5Q148 620 148 578V495Z" glyph-name="fl" horiz-adv-x="525" unicode="&#64258;" /><glyph d="M205 353 117 -68Q105 -130 69 -160Q33 -190 -30 -190H-83L-77 -158H-24Q19 -158 46 -136Q73 -114 82 -71L170 353H57L63 384H176L216 575Q229 637 265 667Q301 697 364 697H421L415 665H357Q315 665 288 643Q261 621 252 578L211 384H369L363 353Z" glyph-name="florin" horiz-adv-x="435" unicode="&#402;" /><glyph d="M502 239V208H425V0H389V208H31V239L392 700H425V239ZM70 239H389V646Z" glyph-name="four" horiz-adv-x="548" unicode="4" /><glyph d="M287 129V105H245V0H217V105H29V129L219 371H245V129ZM59 129H217V329Z" glyph-name="four.denominator" horiz-adv-x="326" unicode="&#63065;" /><glyph d="M287 -21V-45H245V-150H217V-45H29V-21L219 221H245V-21ZM59 -21H217V179Z" glyph-name="four.inferior" horiz-adv-x="325" unicode="&#8324;" /><glyph d="M287 457V433H245V328H217V433H29V457L219 699H245V457ZM59 457H217V657Z" glyph-name="four.numerator" horiz-adv-x="326" unicode="&#63077;" /><glyph d="M287 608V584H245V479H217V584H29V608L219 850H245V608ZM59 608H217V808Z" glyph-name="four.superior" horiz-adv-x="325" unicode="&#8308;" /><glyph d="M522 239V208H445V0H409V208H50V239L412 700H445V239ZM89 239H409V646Z" glyph-name="four.tab" horiz-adv-x="586" unicode="&#65300;" /><glyph d="M304 701 -122 -4H-155L271 701Z" glyph-name="fraction" horiz-adv-x="149" unicode="&#8260;" /><glyph d="M399 298V271H168V0H132V271H53V298H132V384H53V411H132V697H554V665H168V411H399V384H168V298Z" glyph-name="franc" horiz-adv-x="581" unicode="&#8355;" /><glyph d="M321 -194H202Q143 -194 112 -164Q81 -134 81 -78V-56H115V-80Q115 -121 137 -142Q159 -163 202 -163H321Q363 -163 385.5 -141.5Q408 -120 408 -80V83L347 43Q326 29 309.5 24.5Q293 20 270 20H186Q131 20 101.5 49.5Q72 79 72 135V388Q72 444 101.5 473Q131 502 186 502H270Q293 502 309 498Q325 494 347 480L409 439L412 498H443V-76Q443 -134 411.5 -164Q380 -194 321 -194ZM190 52H271Q290 52 302.5 55.5Q315 59 336 72L408 119V403L336 451Q317 463 304 466.5Q291 470 271 470H190Q149 470 127.5 449Q106 428 106 387V135Q106 94 127.5 73Q149 52 190 52Z" glyph-name="g" horiz-adv-x="522" unicode="g" /><glyph d="M321 -194H202Q143 -194 112 -164Q81 -134 81 -78V-56H115V-80Q115 -121 137 -142Q159 -163 202 -163H321Q363 -163 385.5 -141.5Q408 -120 408 -80V83L347 43Q326 29 309.5 24.5Q293 20 270 20H186Q131 20 101.5 49.5Q72 79 72 135V388Q72 444 101.5 473Q131 502 186 502H270Q293 502 309 498Q325 494 347 480L409 439L412 498H443V-76Q443 -134 411.5 -164Q380 -194 321 -194ZM190 52H271Q290 52 302.5 55.5Q315 59 336 72L408 119V403L336 451Q317 463 304 466.5Q291 470 271 470H190Q149 470 127.5 449Q106 428 106 387V135Q106 94 127.5 73Q149 52 190 52ZM350 653V710H377V653Q377 612 352.5 590Q328 568 282 568H235Q189 568 164.5 590Q140 612 140 653V710H167V653Q167 624 184.5 608.5Q202 593 235 593H281Q314 593 332 608.5Q350 624 350 653Z" glyph-name="gbreve" horiz-adv-x="522" unicode="&#287;" /><glyph d="M357 565H331L260 672L189 565H163L244 697H276ZM321 -194H202Q143 -194 112 -164Q81 -134 81 -78V-56H115V-80Q115 -121 137 -142Q159 -163 202 -163H321Q363 -163 385.5 -141.5Q408 -120 408 -80V83L347 43Q326 29 309.5 24.5Q293 20 270 20H186Q131 20 101.5 49.5Q72 79 72 135V388Q72 444 101.5 473Q131 502 186 502H270Q293 502 309 498Q325 494 347 480L409 439L412 498H443V-76Q443 -134 411.5 -164Q380 -194 321 -194ZM190 52H271Q290 52 302.5 55.5Q315 59 336 72L408 119V403L336 451Q317 463 304 466.5Q291 470 271 470H190Q149 470 127.5 449Q106 428 106 387V135Q106 94 127.5 73Q149 52 190 52Z" glyph-name="gcircumflex" horiz-adv-x="522" unicode="&#285;" /><glyph d="M321 -194H202Q143 -194 112 -164Q81 -134 81 -78V-56H115V-80Q115 -121 137 -142Q159 -163 202 -163H321Q363 -163 385.5 -141.5Q408 -120 408 -80V83L347 43Q326 29 309.5 24.5Q293 20 270 20H186Q131 20 101.5 49.5Q72 79 72 135V388Q72 444 101.5 473Q131 502 186 502H270Q293 502 309 498Q325 494 347 480L409 439L412 498H443V-76Q443 -134 411.5 -164Q380 -194 321 -194ZM190 52H271Q290 52 302.5 55.5Q315 59 336 72L408 119V403L336 451Q317 463 304 466.5Q291 470 271 470H190Q149 470 127.5 449Q106 428 106 387V135Q106 94 127.5 73Q149 52 190 52ZM278 606H239V673H278Z" glyph-name="gdotaccent" horiz-adv-x="522" unicode="&#289;" /><glyph d="M142 578V0H107V464H26V495H107V575Q107 634 138.5 665.5Q170 697 229 697H347Q412 697 446 665.5Q480 634 480 574V460Q480 422 463.5 396.5Q447 371 415 360Q454 352 474 325.5Q494 299 494 257V124Q494 64 460 32Q426 0 361 0H247V32H361Q409 32 434 54.5Q459 77 459 121V262Q459 301 436 321.5Q413 342 370 342H257V374H356Q399 374 422 394.5Q445 415 445 454V576Q445 620 420 642.5Q395 665 347 665H229Q187 665 164.5 642.5Q142 620 142 578Z" glyph-name="germandbls" horiz-adv-x="561" unicode="&#223;" /><glyph d="M135 565 79 687V697H113L161 565Z" glyph-name="grave" horiz-adv-x="239" unicode="`" /><glyph d="M125 745 68 867V877H102L150 745Z" glyph-name="grave.case" horiz-adv-x="220" /><glyph d="M443 364V338L76 163V196L405 351L76 506V539Z" glyph-name="greater" horiz-adv-x="491" unicode="&gt;" /><glyph d="M431 406V381L64 235V267L390 394L64 520V553ZM64 151V180H431V151Z" glyph-name="greaterequal" horiz-adv-x="491" unicode="&#8805;" /><glyph d="M96 238 234 107H192L75 217Q61 230 56 240Q51 250 51 263V289Q51 303 56 312.5Q61 322 75 335L192 446H234L96 314Q87 306 83.5 300Q80 294 80 287V265Q80 258 83.5 252Q87 246 96 238ZM271 238 408 107H366L249 217Q235 230 230 240Q225 250 225 263V289Q225 303 230 312.5Q235 322 249 335L366 446H409L271 314Q262 306 258.5 300Q255 294 255 287V265Q255 258 258.5 252Q262 246 271 238Z" glyph-name="guillemotleft" horiz-adv-x="473" unicode="&#171;" /><glyph d="M223 217 106 107H64L202 238Q211 246 214.5 252Q218 258 218 265V287Q218 294 214.5 300Q211 306 202 314L64 446H106L223 335Q237 322 242 312.5Q247 303 247 289V263Q247 250 242 240Q237 230 223 217ZM398 217 281 107H239L376 238Q385 246 388.5 252Q392 258 392 265V287Q392 294 388.5 300Q385 306 376 314L238 446H281L398 335Q412 322 417 312.5Q422 303 422 289V263Q422 250 417 240Q412 230 398 217Z" glyph-name="guillemotright" horiz-adv-x="472" unicode="&#187;" /><glyph d="M96 238 234 107H192L75 217Q61 230 56 240Q51 250 51 263V289Q51 303 56 312.5Q61 322 75 335L192 446H234L96 314Q87 306 83.5 300Q80 294 80 287V265Q80 258 83.5 252Q87 246 96 238Z" glyph-name="guilsinglleft" horiz-adv-x="298" unicode="&#8249;" /><glyph d="M223 217 106 107H64L202 238Q211 246 214.5 252Q218 258 218 265V287Q218 294 214.5 300Q211 306 202 314L64 446H106L223 335Q237 322 242 312.5Q247 303 247 289V263Q247 250 242 240Q237 230 223 217Z" glyph-name="guilsinglright" horiz-adv-x="297" unicode="&#8250;" /><glyph d="M186 451 114 404V0H79V697H114V440L175 480Q197 494 213 498Q229 502 252 502H336Q392 502 421 473Q450 444 450 388V0H415V387Q415 428 394.5 449Q374 470 333 470H251Q231 470 219 467Q207 464 186 451Z" glyph-name="h" horiz-adv-x="528" unicode="h" /><glyph d="M79 578H3V604H79V697H114V604H248V578H114V440L175 480Q197 494 213 498Q229 502 252 502H336Q392 502 421 473Q450 444 450 388V0H415V387Q415 428 394.5 449Q374 470 333 470H251Q231 470 219 467Q207 464 186 451L114 404V0H79Z" glyph-name="hbar" horiz-adv-x="528" unicode="&#295;" /><glyph d="M195 732H169L98 839L27 732H1L82 864H114ZM186 451 114 404V0H79V697H114V440L175 480Q197 494 213 498Q229 502 252 502H336Q392 502 421 473Q450 444 450 388V0H415V387Q415 428 394.5 449Q374 470 333 470H251Q231 470 219 467Q207 464 186 451Z" glyph-name="hcircumflex" horiz-adv-x="528" unicode="&#293;" /><glyph d="M125 697H157V687L102 565H79ZM225 697H256V687L172 565H149Z" glyph-name="hungarumlaut" horiz-adv-x="335" unicode="&#733;" /><glyph d="M78 877H109V867L54 745H32ZM178 877H209V867L125 745H103Z" glyph-name="hungarumlaut.case" horiz-adv-x="242" /><glyph d="M71 272V303H331V272Z" glyph-name="hyphen" horiz-adv-x="401" unicode="-" /><glyph d="M57 140V164H198V140Z" glyph-name="hyphen.denominator" horiz-adv-x="255" unicode="&#63019;" /><glyph d="M57 468V492H198V468Z" glyph-name="hyphen.numerator" horiz-adv-x="255" unicode="&#63024;" /><glyph d="M114 0H79V498H114ZM116 608H77V697H116Z" glyph-name="i" horiz-adv-x="194" unicode="i" /><glyph d="M132 697H166V687L109 565H84ZM114 0H79V498H114Z" glyph-name="iacute" horiz-adv-x="194" unicode="&#237;" /><glyph d="M195 565H169L98 672L27 565H1L82 697H114ZM114 0H79V498H114Z" glyph-name="icircumflex" horiz-adv-x="194" unicode="&#238;" /><glyph d="M70 606H36V668H70ZM161 606H127V668H161ZM114 0H79V498H114Z" glyph-name="idieresis" horiz-adv-x="194" unicode="&#239;" /><glyph d="M114 0H79V498H114ZM85 565 29 687V697H63L111 565Z" glyph-name="igrave" horiz-adv-x="194" unicode="&#236;" /><glyph d="M114 0H79V498H114ZM116 608H77V697H116ZM187 -190H138V-158H186Q228 -158 250.5 -135.5Q273 -113 273 -71V498H308V-68Q308 -127 277 -158.5Q246 -190 187 -190ZM310 608H271V697H310Z" glyph-name="ij" horiz-adv-x="387" unicode="&#307;" /><glyph d="M114 0H79V498H114ZM223 605H-29V632H223Z" glyph-name="imacron" horiz-adv-x="194" unicode="&#299;" /><glyph d="M281 182H200Q135 182 101 213.5Q67 245 67 306V391Q67 452 101 483.5Q135 515 200 515H281Q317 515 348 495Q379 475 406 433L442 376L479 433Q509 478 538.5 496.5Q568 515 602 515H685Q750 515 784 483Q818 451 818 391V306Q818 246 784 214Q750 182 685 182H602Q567 182 537.5 201Q508 220 479 264L442 320L406 264Q377 220 347 201Q317 182 281 182ZM784 305V392Q784 437 758.5 460.5Q733 484 685 484H600Q574 484 551.5 469Q529 454 504 414L461 348L504 283Q529 243 551.5 228Q574 213 600 213H685Q733 213 758.5 236.5Q784 260 784 305ZM101 392V305Q101 260 126.5 236.5Q152 213 200 213H284Q310 213 332.5 227.5Q355 242 381 282L424 348L381 415Q355 455 332.5 469.5Q310 484 284 484H200Q152 484 126.5 460.5Q101 437 101 392Z" glyph-name="infinity" horiz-adv-x="885" unicode="&#8734;" /><glyph d="M84 -70H21V-38H84Q126 -38 148.5 -15.5Q171 7 171 49V645Q171 704 202.5 735.5Q234 767 293 767H357V735H293Q251 735 228.5 712.5Q206 690 206 648V52Q206 -7 174.5 -38.5Q143 -70 84 -70Z" glyph-name="integral" horiz-adv-x="378" unicode="&#8747;" /><glyph d="M115 498V0H108L6 -64Q-13 -75 -20 -86.5Q-27 -98 -27 -114V-129Q-27 -147 -16.5 -155Q-6 -163 17 -163H113V-190H13Q-22 -190 -39.5 -175.5Q-57 -161 -57 -133V-117Q-57 -96 -46 -78.5Q-35 -61 -12 -46L80 10V498ZM117 608H78V697H117Z" glyph-name="iogonek" horiz-adv-x="195" unicode="&#303;" /><glyph d="M114 0H79V498H114ZM172 623H190Q207 623 216 631Q225 639 225 654V696H251V651Q251 624 236 610Q221 596 192 596H171Q158 596 143.5 601.5Q129 607 118 615L65 654Q57 660 45.5 664.5Q34 669 24 669H7Q-11 669 -20 661Q-29 653 -29 637V596H-55V640Q-55 668 -40 682Q-25 696 4 696H27Q38 696 52.5 690.5Q67 685 79 677L131 638Q139 632 150.5 627.5Q162 623 172 623Z" glyph-name="itilde" horiz-adv-x="194" unicode="&#297;" /><glyph d="M-7 -190H-56V-158H-8Q34 -158 56.5 -135.5Q79 -113 79 -71V498H114V-68Q114 -127 83 -158.5Q52 -190 -7 -190ZM116 608H77V697H116Z" glyph-name="j" horiz-adv-x="194" unicode="j" /><glyph d="M195 565H169L98 672L27 565H1L82 697H114ZM-7 -190H-56V-158H-8Q34 -158 56.5 -135.5Q79 -113 79 -71V498H114V-68Q114 -127 83 -158.5Q52 -190 -7 -190Z" glyph-name="jcircumflex" horiz-adv-x="194" unicode="&#309;" /><glyph d="M397 118 252 249H114V0H79V697H114V280H253L394 402Q404 411 409 422Q414 433 414 448V498H447V444Q447 426 440 410.5Q433 395 419 383L283 265L427 135Q438 125 444.5 109Q451 93 451 75V0H417V72Q417 87 412 98Q407 109 397 118Z" glyph-name="k" horiz-adv-x="504" unicode="k" /><glyph d="M397 118 253 249H114V0H79V498H114V280H254L394 402Q405 411 409.5 422Q414 433 414 448V498H447V444Q447 426 440 410.5Q433 395 419 383L283 265L427 135Q438 126 444.5 110Q451 94 451 75V0H417V72Q417 87 412 98Q407 109 397 118Z" glyph-name="kgreenlandic" horiz-adv-x="504" unicode="&#312;" /><glyph d="M81 0V697H116V0Z" glyph-name="l" horiz-adv-x="197" unicode="l" /><glyph d="M132 877H166V867L110 745H84ZM81 0V697H116V0Z" glyph-name="lacute" horiz-adv-x="197" unicode="&#314;" /><glyph d="M204 697H242V685L202 561H179ZM81 0V697H116V0Z" glyph-name="lcaron" horiz-adv-x="197" unicode="&#318;" /><glyph d="M81 0V697H116V0ZM278 331H238V400H278Z" glyph-name="ldot" horiz-adv-x="313" unicode="&#320;" /><glyph d="M415 196V163L48 338V364L415 539V506L86 351Z" glyph-name="less" horiz-adv-x="491" unicode="&lt;" /><glyph d="M427 267V235L60 381V406L427 553V520L101 394ZM60 151V180H427V151Z" glyph-name="lessequal" horiz-adv-x="491" unicode="&#8804;" /><glyph d="M537 32V0H60V32H141V269H60V295H141V382H60V408H141V571Q141 635 175 668Q209 701 274 701H393Q458 701 491.5 668Q525 635 525 571V507H490V571Q490 618 465 643Q440 668 392 668H275Q227 668 202 643Q177 618 177 571V408H363V382H177V295H363V269H177V32Z" glyph-name="lira" horiz-adv-x="588" unicode="&#8356;" /><glyph d="M421 166H391V335H54V364H421Z" glyph-name="logicalnot" horiz-adv-x="491" unicode="&#172;" /><glyph d="M143 578V0H108V464H26V495H108V575Q108 635 139 666Q170 697 230 697H298V665H230Q188 665 165.5 642.5Q143 620 143 578Z" glyph-name="longs" horiz-adv-x="242" unicode="&#383;" /><glyph d="M143 578V0H108V464H26V495H108V575Q108 635 139 666Q170 697 230 697H298V665H230Q188 665 165.5 642.5Q143 620 143 578ZM476 32H553V0H475Q417 0 385.5 31.5Q354 63 354 121V464H266V495H354V639H389V495H552V464H389V119Q389 77 411.5 54.5Q434 32 476 32Z" glyph-name="longs_t" horiz-adv-x="569" unicode="&#64261;" /><glyph d="M250 707H282L505 348L282 -10H250L28 348ZM463 348 266 666 69 348 266 30Z" glyph-name="lozenge" horiz-adv-x="533" unicode="&#9674;" /><glyph d="M123 432V697H158V450L255 502V469L158 417V0H123V398L27 347V381Z" glyph-name="lslash" horiz-adv-x="264" unicode="&#322;" /><glyph d="M186 451 114 404V0H79V498H111L113 439L175 480Q197 494 213 498Q229 502 252 502H326Q368 502 395.5 485Q423 468 434 435L502 480Q524 493 540 497.5Q556 502 578 502H653Q709 502 738.5 472.5Q768 443 768 388V0H733V387Q733 428 712 449Q691 470 650 470H578Q558 470 545 466.5Q532 463 513 451L440 403Q441 400 441 397Q441 394 441 388V0H406V387Q406 428 385 449Q364 470 323 470H251Q231 470 219 467Q207 464 186 451Z" glyph-name="m" horiz-adv-x="845" unicode="m" /><glyph d="M307 605H55V632H307Z" glyph-name="macron" horiz-adv-x="362" unicode="&#175;" /><glyph d="M285 779H33V806H285Z" glyph-name="macron.case" horiz-adv-x="318" /><glyph d="M62 334V363H429V334Z" glyph-name="minus" horiz-adv-x="491" unicode="&#8722;" /><glyph d="M133 -190H98V498H133V111Q133 70 154 49Q175 28 216 28H292Q311 28 323.5 31Q336 34 357 48L429 94V498H464V0H433L430 59L368 19Q347 5 331 0.5Q315 -4 292 -4H213Q185 -4 164 5Q143 14 131 31Q132 24 132.5 -20.5Q133 -65 133 -76Z" glyph-name="mu" horiz-adv-x="562" unicode="&#181;" /><glyph d="M392 223 372 202 246 329 118 202 98 222 225 349 98 476 118 497 245 369 372 496 392 475 266 349Z" glyph-name="multiply" horiz-adv-x="491" unicode="&#215;" /><glyph d="M333 470H251Q231 470 218 466.5Q205 463 186 451L114 403V0H79V498H111L113 439L175 480Q197 494 213 498Q229 502 252 502H336Q392 502 421 473Q450 444 450 388V0H415V387Q415 428 394.5 449Q374 470 333 470Z" glyph-name="n" horiz-adv-x="528" unicode="n" /><glyph d="M299 697H333V687L276 565H251ZM333 470H251Q231 470 218 466.5Q205 463 186 451L114 403V0H79V498H111L113 439L175 480Q197 494 213 498Q229 502 252 502H336Q392 502 421 473Q450 444 450 388V0H415V387Q415 428 394.5 449Q374 470 333 470Z" glyph-name="nacute" horiz-adv-x="528" unicode="&#324;" /><glyph d="M40 665H80V653L39 521H13ZM333 470H251Q231 470 218 466.5Q205 463 186 451L114 403V0H79V498H111L113 439L175 480Q197 494 213 498Q229 502 252 502H336Q392 502 421 473Q450 444 450 388V0H415V387Q415 428 394.5 449Q374 470 333 470Z" glyph-name="napostrophe" horiz-adv-x="528" unicode="&#329;" /><glyph d="M281 565H249L168 697H194L265 590L336 697H362ZM333 470H251Q231 470 218 466.5Q205 463 186 451L114 403V0H79V498H111L113 439L175 480Q197 494 213 498Q229 502 252 502H336Q392 502 421 473Q450 444 450 388V0H415V387Q415 428 394.5 449Q374 470 333 470Z" glyph-name="ncaron" horiz-adv-x="528" unicode="&#328;" /><glyph d="M349 -4H208Q144 -4 110 27.5Q76 59 76 119V178H112V118Q112 75 137 52Q162 29 209 29H348Q395 29 420 54Q445 79 445 127V320H194Q134 320 102 351.5Q70 383 70 443V568Q70 633 103.5 667Q137 701 202 701H349Q414 701 447.5 667.5Q481 634 481 568V129Q481 64 447.5 30Q414 -4 349 -4ZM195 353H445V570Q445 618 420 643Q395 668 348 668H203Q156 668 131 643Q106 618 106 570V442Q106 398 128.5 375.5Q151 353 195 353Z" glyph-name="nine" horiz-adv-x="567" unicode="9" /><glyph d="M204 -2H127Q92 -2 73 15.5Q54 33 54 67V97H83V68Q83 47 95.5 35.5Q108 24 131 24H200Q223 24 235 36Q247 48 247 71V168H118Q86 168 68.5 185.5Q51 203 51 235V298Q51 334 69.5 353Q88 372 124 372H204Q240 372 259 353Q278 334 278 298V72Q278 36 259 17Q240 -2 204 -2ZM124 194H247V298Q247 321 235 333.5Q223 346 200 346H128Q105 346 93 333.5Q81 321 81 298V237Q81 216 92 205Q103 194 124 194Z" glyph-name="nine.denominator" horiz-adv-x="337" unicode="&#63070;" /><glyph d="M204 -152H127Q92 -152 73 -134.5Q54 -117 54 -83V-53H83V-82Q83 -103 95.5 -114.5Q108 -126 131 -126H200Q223 -126 235 -114Q247 -102 247 -79V18H118Q86 18 68.5 35.5Q51 53 51 85V148Q51 184 69.5 203Q88 222 124 222H204Q240 222 259 203Q278 184 278 148V-78Q278 -114 259 -133Q240 -152 204 -152ZM124 44H247V148Q247 171 235 183.5Q223 196 200 196H128Q105 196 93 183.5Q81 171 81 148V87Q81 66 92 55Q103 44 124 44Z" glyph-name="nine.inferior" horiz-adv-x="337" unicode="&#8329;" /><glyph d="M204 326H127Q92 326 73 343.5Q54 361 54 395V425H83V396Q83 375 95.5 363.5Q108 352 131 352H200Q223 352 235 364Q247 376 247 399V496H118Q86 496 68.5 513.5Q51 531 51 563V626Q51 662 69.5 681Q88 700 124 700H204Q240 700 259 681Q278 662 278 626V400Q278 364 259 345Q240 326 204 326ZM124 522H247V626Q247 649 235 661.5Q223 674 200 674H128Q105 674 93 661.5Q81 649 81 626V565Q81 544 92 533Q103 522 124 522Z" glyph-name="nine.numerator" horiz-adv-x="337" unicode="&#63082;" /><glyph d="M204 477H127Q92 477 73 494.5Q54 512 54 546V576H83V547Q83 526 95.5 514.5Q108 503 131 503H200Q223 503 235 515Q247 527 247 550V647H118Q86 647 68.5 664.5Q51 682 51 714V777Q51 813 69.5 832Q88 851 124 851H204Q240 851 259 832Q278 813 278 777V551Q278 515 259 496Q240 477 204 477ZM124 673H247V777Q247 800 235 812.5Q223 825 200 825H128Q105 825 93 812.5Q81 800 81 777V716Q81 695 92 684Q103 673 124 673Z" glyph-name="nine.superior" horiz-adv-x="337" unicode="&#8313;" /><glyph d="M358 -4H218Q154 -4 120 27.5Q86 59 86 119V178H121V118Q121 75 146 52Q171 29 219 29H358Q405 29 430 54Q455 79 455 127V320H204Q144 320 111.5 352Q79 384 79 443V568Q79 633 113 667Q147 701 212 701H358Q424 701 457.5 667.5Q491 634 491 568V129Q491 64 457 30Q423 -4 358 -4ZM205 353H455V570Q455 618 430 643Q405 668 358 668H213Q165 668 140.5 643Q116 618 116 570V442Q116 398 138.5 375.5Q161 353 205 353Z" glyph-name="nine.tab" horiz-adv-x="586" unicode="&#65305;" /><glyph d="M62 419V448H275L341 597H367L301 448H429V419H289L229 282H429V253H216L149 100H122L189 253H62V282H202L262 419Z" glyph-name="notequal" horiz-adv-x="491" unicode="&#8800;" /><glyph d="M333 470H251Q231 470 218 466.5Q205 463 186 451L114 403V0H79V498H111L113 439L175 480Q197 494 213 498Q229 502 252 502H336Q392 502 421 473Q450 444 450 388V0H415V387Q415 428 394.5 449Q374 470 333 470ZM337 623H355Q372 623 381 631Q390 639 390 654V696H416V651Q416 624 401 610Q386 596 357 596H336Q323 596 308.5 601.5Q294 607 283 615L230 654Q222 660 210.5 664.5Q199 669 189 669H172Q154 669 145 661Q136 653 136 637V596H110V640Q110 668 125 682Q140 696 169 696H192Q203 696 217.5 690.5Q232 685 244 677L296 638Q304 632 315.5 627.5Q327 623 337 623Z" glyph-name="ntilde" horiz-adv-x="528" unicode="&#241;" /><glyph d="M185 439H82V468H191L240 697H271L222 468H432L481 697H513L464 468H563V439H458L420 257H523V228H414L366 0H334L382 228H172L124 0H92L140 228H42V257H146ZM426 439H216L178 257H388Z" glyph-name="numbersign" horiz-adv-x="605" unicode="#" /><glyph d="M319 -4H192Q132 -4 101 27Q70 58 70 118V380Q70 439 101.5 470.5Q133 502 192 502H319Q378 502 409.5 470.5Q441 439 441 380V118Q441 58 410 27Q379 -4 319 -4ZM193 27H319Q360 27 383 50.5Q406 74 406 115V384Q406 426 383.5 448.5Q361 471 319 471H193Q150 471 127.5 448.5Q105 426 105 384V115Q105 72 127.5 49.5Q150 27 193 27Z" glyph-name="o" horiz-adv-x="511" unicode="o" /><glyph d="M290 697H324V687L267 565H242ZM319 -4H192Q132 -4 101 27Q70 58 70 118V380Q70 439 101.5 470.5Q133 502 192 502H319Q378 502 409.5 470.5Q441 439 441 380V118Q441 58 410 27Q379 -4 319 -4ZM193 27H319Q360 27 383 50.5Q406 74 406 115V384Q406 426 383.5 448.5Q361 471 319 471H193Q150 471 127.5 448.5Q105 426 105 384V115Q105 72 127.5 49.5Q150 27 193 27Z" glyph-name="oacute" horiz-adv-x="511" unicode="&#243;" /><glyph d="M319 -4H192Q132 -4 101 27Q70 58 70 118V380Q70 439 101.5 470.5Q133 502 192 502H319Q378 502 409.5 470.5Q441 439 441 380V118Q441 58 410 27Q379 -4 319 -4ZM193 27H319Q360 27 383 50.5Q406 74 406 115V384Q406 426 383.5 448.5Q361 471 319 471H193Q150 471 127.5 448.5Q105 426 105 384V115Q105 72 127.5 49.5Q150 27 193 27ZM347 653V710H374V653Q374 612 349.5 590Q325 568 279 568H232Q186 568 161.5 590Q137 612 137 653V710H164V653Q164 624 181.5 608.5Q199 593 232 593H278Q311 593 329 608.5Q347 624 347 653Z" glyph-name="obreve" horiz-adv-x="511" unicode="&#335;" /><glyph d="M353 565H327L256 672L185 565H159L240 697H272ZM319 -4H192Q132 -4 101 27Q70 58 70 118V380Q70 439 101.5 470.5Q133 502 192 502H319Q378 502 409.5 470.5Q441 439 441 380V118Q441 58 410 27Q379 -4 319 -4ZM193 27H319Q360 27 383 50.5Q406 74 406 115V384Q406 426 383.5 448.5Q361 471 319 471H193Q150 471 127.5 448.5Q105 426 105 384V115Q105 72 127.5 49.5Q150 27 193 27Z" glyph-name="ocircumflex" horiz-adv-x="511" unicode="&#244;" /><glyph d="M228 606H194V668H228ZM319 606H285V668H319ZM319 -4H192Q132 -4 101 27Q70 58 70 118V380Q70 439 101.5 470.5Q133 502 192 502H319Q378 502 409.5 470.5Q441 439 441 380V118Q441 58 410 27Q379 -4 319 -4ZM193 27H319Q360 27 383 50.5Q406 74 406 115V384Q406 426 383.5 448.5Q361 471 319 471H193Q150 471 127.5 448.5Q105 426 105 384V115Q105 72 127.5 49.5Q150 27 193 27Z" glyph-name="odieresis" horiz-adv-x="511" unicode="&#246;" /><glyph d="M774 153V117Q774 58 743 27Q712 -4 653 -4H528Q489 -4 462.5 11Q436 26 423 55Q410 26 384 11Q358 -4 319 -4H192Q132 -4 101 27Q70 58 70 118V380Q70 439 101.5 470.5Q133 502 192 502H319Q357 502 383.5 486.5Q410 471 423 442Q436 471 462.5 486.5Q489 502 528 502H653Q712 502 743 470.5Q774 439 774 380V253H441V114Q441 72 463.5 49.5Q486 27 528 27H653Q696 27 718 49Q740 71 740 114V153ZM193 27H319Q360 27 383 50.5Q406 74 406 115V384Q406 426 383.5 448.5Q361 471 319 471H193Q150 471 127.5 448.5Q105 426 105 384V115Q105 72 127.5 49.5Q150 27 193 27ZM441 385V284H740V385Q740 427 717.5 449.5Q695 472 653 472H528Q486 472 463.5 449.5Q441 427 441 385Z" glyph-name="oe" horiz-adv-x="840" unicode="&#339;" /><glyph d="M113 -46 217 18H225L235 1L131 -64Q112 -75 105 -86.5Q98 -98 98 -114V-129Q98 -147 108.5 -155Q119 -163 142 -163H238V-190H138Q103 -190 85.5 -175.5Q68 -161 68 -133V-117Q68 -96 79 -78.5Q90 -61 113 -46Z" glyph-name="ogonek" horiz-adv-x="308" unicode="&#731;" /><glyph d="M319 -4H192Q132 -4 101 27Q70 58 70 118V380Q70 439 101.5 470.5Q133 502 192 502H319Q378 502 409.5 470.5Q441 439 441 380V118Q441 58 410 27Q379 -4 319 -4ZM193 27H319Q360 27 383 50.5Q406 74 406 115V384Q406 426 383.5 448.5Q361 471 319 471H193Q150 471 127.5 448.5Q105 426 105 384V115Q105 72 127.5 49.5Q150 27 193 27ZM244 565 188 687V697H222L270 565Z" glyph-name="ograve" horiz-adv-x="511" unicode="&#242;" /><glyph d="M247 697H279V687L224 565H201ZM347 697H378V687L294 565H271ZM319 -4H192Q132 -4 101 27Q70 58 70 118V380Q70 439 101.5 470.5Q133 502 192 502H319Q378 502 409.5 470.5Q441 439 441 380V118Q441 58 410 27Q379 -4 319 -4ZM193 27H319Q360 27 383 50.5Q406 74 406 115V384Q406 426 383.5 448.5Q361 471 319 471H193Q150 471 127.5 448.5Q105 426 105 384V115Q105 72 127.5 49.5Q150 27 193 27Z" glyph-name="ohungarumlaut" horiz-adv-x="511" unicode="&#337;" /><glyph d="M382 605H130V632H382ZM319 -4H192Q132 -4 101 27Q70 58 70 118V380Q70 439 101.5 470.5Q133 502 192 502H319Q378 502 409.5 470.5Q441 439 441 380V118Q441 58 410 27Q379 -4 319 -4ZM193 27H319Q360 27 383 50.5Q406 74 406 115V384Q406 426 383.5 448.5Q361 471 319 471H193Q150 471 127.5 448.5Q105 426 105 384V115Q105 72 127.5 49.5Q150 27 193 27Z" glyph-name="omacron" horiz-adv-x="511" unicode="&#333;" /><glyph d="M429 32V0H47V32H220V665H47V697H256V32Z" glyph-name="one" horiz-adv-x="453" unicode="1" /><glyph d="M40 0V26H132V343H40V369H163V26H254V0Z" glyph-name="one.denominator" horiz-adv-x="280" unicode="&#63062;" /><glyph d="M41 -150V-124H133V193H41V219H164V-124H255V-150Z" glyph-name="one.inferior" horiz-adv-x="280" unicode="&#8321;" /><glyph d="M40 328V354H132V671H40V697H163V354H254V328Z" glyph-name="one.numerator" horiz-adv-x="280" unicode="&#63074;" /><glyph d="M512 32V0H96V32H286V665H96V697H322V32Z" glyph-name="one.tab" horiz-adv-x="586" unicode="&#65297;" /><glyph d="M690 26V0H463V90Q463 122 473.5 137Q484 152 508 161L630 207Q644 212 650 222Q656 232 656 248V298Q656 321 644 333Q632 345 609 345H541Q518 345 506 333Q494 321 494 298V254H465V299Q465 334 484 353Q503 372 538 372H613Q649 372 668 353Q687 334 687 298V248Q687 224 676 208Q665 192 643 183L521 136Q504 130 498 121.5Q492 113 492 90V26ZM50 328V354H142V671H50V697H173V354H264V328ZM602 701 176 -4H143L569 701Z" glyph-name="onehalf" horiz-adv-x="742" unicode="&#189;" /><glyph d="M654 129V105H612V0H584V105H396V129L586 371H612V129ZM426 129H584V329ZM50 328V354H142V671H50V697H173V354H264V328ZM615 701 189 -4H156L582 701Z" glyph-name="onequarter" horiz-adv-x="698" unicode="&#188;" /><glyph d="M40 479V505H132V822H40V848H163V505H254V479Z" glyph-name="onesuperior" horiz-adv-x="280" unicode="&#185;" /><glyph d="M351 304 296 269Q275 255 260.5 251Q246 247 226 247H157Q111 247 86.5 268.5Q62 290 62 331V406Q62 445 85.5 466.5Q109 488 158 493L350 512V598Q350 634 329.5 653.5Q309 673 272 673H179Q141 673 120.5 653.5Q100 634 100 598V573H68V597Q68 647 96.5 674Q125 701 178 701H275Q327 701 355 674.5Q383 648 383 598V251H353ZM161 275H228Q246 275 257 278Q268 281 286 293L350 335V484L161 464Q125 461 109.5 447Q94 433 94 405V332Q94 303 110.5 289Q127 275 161 275Z" glyph-name="ordfeminine" horiz-adv-x="455" unicode="&#170;" /><glyph d="M288 247H173Q120 247 92.5 275Q65 303 65 356V592Q65 645 92.5 673Q120 701 173 701H288Q341 701 369 673Q397 645 397 592V356Q397 303 369 275Q341 247 288 247ZM175 276H286Q322 276 343 297.5Q364 319 364 354V594Q364 631 343.5 651.5Q323 672 286 672H175Q138 672 117.5 651.5Q97 631 97 594V354Q97 317 117.5 296.5Q138 276 175 276Z" glyph-name="ordmasculine" horiz-adv-x="467" unicode="&#186;" /><glyph d="M120 12 98 -24H68L100 27Q84 43 76.5 65.5Q69 88 69 118V380Q69 439 100.5 470.5Q132 502 191 502H318Q338 502 355.5 498Q373 494 387 486L410 522H441L408 470Q423 454 431 431.5Q439 409 439 380V118Q439 58 408 27Q377 -4 318 -4H191Q169 -4 151.5 0Q134 4 120 12ZM191 26H318Q359 26 382.5 50Q406 74 406 114V384Q406 400 402 414.5Q398 429 390 441L137 39Q147 32 160.5 29Q174 26 191 26ZM103 384V114Q103 97 107 82.5Q111 68 118 57L370 459Q360 466 347 469Q334 472 318 472H191Q148 472 125.5 449.5Q103 427 103 384Z" glyph-name="oslash" horiz-adv-x="509" unicode="&#248;" /><glyph d="M319 -4H192Q132 -4 101 27Q70 58 70 118V380Q70 439 101.5 470.5Q133 502 192 502H319Q378 502 409.5 470.5Q441 439 441 380V118Q441 58 410 27Q379 -4 319 -4ZM193 27H319Q360 27 383 50.5Q406 74 406 115V384Q406 426 383.5 448.5Q361 471 319 471H193Q150 471 127.5 448.5Q105 426 105 384V115Q105 72 127.5 49.5Q150 27 193 27ZM330 623H348Q365 623 374 631Q383 639 383 654V696H409V651Q409 624 394 610Q379 596 350 596H329Q316 596 301.5 601.5Q287 607 276 615L223 654Q215 660 203.5 664.5Q192 669 182 669H165Q147 669 138 661Q129 653 129 637V596H103V640Q103 668 118 682Q133 696 162 696H185Q196 696 210.5 690.5Q225 685 237 677L289 638Q297 632 308.5 627.5Q320 623 330 623Z" glyph-name="otilde" horiz-adv-x="511" unicode="&#245;" /><glyph d="M175 19 114 59V-190H79V498H111L113 439L175 480Q197 494 213 498Q229 502 252 502H336Q392 502 421 473Q450 444 450 388V111Q450 55 420.5 25.5Q391 -4 336 -4H252Q229 -4 212.5 0.5Q196 5 175 19ZM251 28H332Q373 28 394 49Q415 70 415 111V387Q415 428 394 449Q373 470 332 470H251Q231 470 219 467Q207 464 186 451L114 404V95L186 48Q208 34 220.5 31Q233 28 251 28Z" glyph-name="p" horiz-adv-x="522" unicode="p" /><glyph d="M292 -190H259V282H180Q115 282 81 316Q47 350 47 415V564Q47 629 81 663Q115 697 180 697H448V-190H415V664H181Q133 664 108 639Q83 614 83 566V412Q83 365 108.5 340Q134 315 181 315H292Z" glyph-name="paragraph" horiz-adv-x="551" unicode="&#182;" /><glyph d="M212 -157H258V-190H211Q151 -190 119 -156Q87 -122 87 -57V637Q87 702 119 736Q151 770 211 770H257V737H212Q168 737 145.5 712Q123 687 123 639V-59Q123 -107 145.5 -132Q168 -157 212 -157Z" glyph-name="parenleft" horiz-adv-x="294" unicode="(" /><glyph d="M62 34V336Q62 371 80 389.5Q98 408 132 408H160V382H135Q114 382 103 370Q92 358 92 336V34Q92 12 103 0Q114 -12 135 -12H160V-39H132Q98 -39 80 -20Q62 -1 62 34Z" glyph-name="parenleft.denominator" horiz-adv-x="198" unicode="&#63020;" /><glyph d="M62 -116V186Q62 221 80 239.5Q98 258 132 258H160V232H135Q114 232 103 220Q92 208 92 186V-116Q92 -138 103 -150Q114 -162 135 -162H160V-189H132Q98 -189 80 -170Q62 -151 62 -116Z" glyph-name="parenleft.inferior" horiz-adv-x="197" unicode="&#8333;" /><glyph d="M62 362V664Q62 699 80 717.5Q98 736 132 736H160V710H135Q114 710 103 698Q92 686 92 664V362Q92 340 103 328Q114 316 135 316H160V289H132Q98 289 80 308Q62 327 62 362Z" glyph-name="parenleft.numerator" horiz-adv-x="198" unicode="&#63025;" /><glyph d="M62 513V815Q62 850 80 868.5Q98 887 132 887H160V861H135Q114 861 103 849Q92 837 92 815V513Q92 491 103 479Q114 467 135 467H160V440H132Q98 440 80 459Q62 478 62 513Z" glyph-name="parenleft.superior" horiz-adv-x="197" unicode="&#8317;" /><glyph d="M83 -190H36V-157H82Q126 -157 148.5 -132Q171 -107 171 -59V639Q171 687 148.5 712Q126 737 82 737H36V770H83Q143 770 175 736Q207 702 207 637V-57Q207 -122 175 -156Q143 -190 83 -190Z" glyph-name="parenright" horiz-adv-x="294" unicode=")" /><glyph d="M135 336V34Q135 -1 117 -20Q99 -39 65 -39H37V-12H63Q84 -12 94.5 -0.5Q105 11 105 34V336Q105 358 94 370Q83 382 63 382H37V408H65Q99 408 117 389.5Q135 371 135 336Z" glyph-name="parenright.denominator" horiz-adv-x="197" unicode="&#63021;" /><glyph d="M135 186V-116Q135 -151 117 -170Q99 -189 65 -189H37V-162H63Q84 -162 94.5 -150.5Q105 -139 105 -116V186Q105 208 94 220Q83 232 63 232H37V258H65Q99 258 117 239.5Q135 221 135 186Z" glyph-name="parenright.inferior" horiz-adv-x="197" unicode="&#8334;" /><glyph d="M135 664V362Q135 327 117 308Q99 289 65 289H37V316H63Q84 316 94.5 327.5Q105 339 105 362V664Q105 686 94 698Q83 710 63 710H37V736H65Q99 736 117 717.5Q135 699 135 664Z" glyph-name="parenright.numerator" horiz-adv-x="197" unicode="&#63026;" /><glyph d="M135 815V513Q135 478 117 459Q99 440 65 440H37V467H63Q84 467 94.5 478.5Q105 490 105 513V815Q105 837 94 849Q83 861 63 861H37V887H65Q99 887 117 868.5Q135 850 135 815Z" glyph-name="parenright.superior" horiz-adv-x="197" unicode="&#8318;" /><glyph d="M321 -4H193Q134 -4 103 27Q72 58 72 118V348Q72 405 102.5 435.5Q133 466 190 466H270Q293 466 310 461.5Q327 457 347 443L408 403V578Q408 621 385.5 643.5Q363 666 320 666H110V697H321Q380 697 411.5 665.5Q443 634 443 575V118Q443 59 411.5 27.5Q380 -4 321 -4ZM194 27H320Q361 27 384.5 51Q408 75 408 115V367L336 414Q315 427 302.5 430.5Q290 434 271 434H193Q151 434 129 412Q107 390 107 347V115Q107 72 129 49.5Q151 27 194 27Z" glyph-name="partialdiff" horiz-adv-x="520" unicode="&#8706;" /><glyph d="M443 71V298Q443 334 462 353Q481 372 517 372H598Q634 372 653 353Q672 334 672 298V71Q672 36 653 17Q634 -2 598 -2H517Q482 -2 462.5 17Q443 36 443 71ZM474 298V71Q474 48 486 36Q498 24 521 24H594Q617 24 629.5 36Q642 48 642 71V298Q642 321 629.5 333Q617 345 594 345H521Q498 345 486 333Q474 321 474 298ZM59 399V626Q59 662 78 681Q97 700 133 700H214Q250 700 269 681Q288 662 288 626V399Q288 364 269 345Q250 326 214 326H133Q98 326 78.5 345Q59 364 59 399ZM90 626V399Q90 376 102 364Q114 352 137 352H210Q233 352 245.5 364Q258 376 258 399V626Q258 649 245.5 661Q233 673 210 673H137Q114 673 102 661Q90 649 90 626ZM595 701 169 -4H136L562 701Z" glyph-name="percent" horiz-adv-x="731" unicode="%" /><glyph d="M114 0H74V69H114Z" glyph-name="period" horiz-adv-x="188" unicode="." /><glyph d="M86 0H54V45H86Z" glyph-name="period.denominator" horiz-adv-x="139" unicode="&#63072;" /><glyph d="M86 328H54V373H86Z" glyph-name="period.numerator" horiz-adv-x="139" unicode="&#63084;" /><glyph d="M116 258H76V327H116Z" glyph-name="periodcentered" horiz-adv-x="193" unicode="&#183;" /><glyph d="M443 71V298Q443 334 462 353Q481 372 517 372H598Q634 372 653 353Q672 334 672 298V71Q672 36 653 17Q634 -2 598 -2H517Q482 -2 462.5 17Q443 36 443 71ZM474 298V71Q474 48 486 36Q498 24 521 24H594Q617 24 629.5 36Q642 48 642 71V298Q642 321 629.5 333Q617 345 594 345H521Q498 345 486 333Q474 321 474 298ZM59 399V626Q59 662 78 681Q97 700 133 700H214Q250 700 269 681Q288 662 288 626V399Q288 364 269 345Q250 326 214 326H133Q98 326 78.5 345Q59 364 59 399ZM90 626V399Q90 376 102 364Q114 352 137 352H210Q233 352 245.5 364Q258 376 258 399V626Q258 649 245.5 661Q233 673 210 673H137Q114 673 102 661Q90 649 90 626ZM764 71V298Q764 334 783 353Q802 372 838 372H919Q955 372 974 353Q993 334 993 298V71Q993 36 974 17Q955 -2 919 -2H838Q803 -2 783.5 17Q764 36 764 71ZM795 298V71Q795 48 807 36Q819 24 842 24H915Q938 24 950.5 36Q963 48 963 71V298Q963 321 950.5 333Q938 345 915 345H842Q819 345 807 333Q795 321 795 298ZM595 701 169 -4H136L562 701Z" glyph-name="perthousand" horiz-adv-x="1050" unicode="&#8240;" /><glyph d="M381 265H139V0H103V697H381Q446 697 480 663Q514 629 514 564V398Q514 333 480 299Q446 265 381 265ZM381 664H139V298H381Q428 298 453 323Q478 348 478 396V566Q478 614 453 639Q428 664 381 664ZM771 32H841V0H771Q712 0 681 31.5Q650 63 650 122V464H568V495H650V639H685V495H841V464H685V119Q685 76 707 54Q729 32 771 32ZM898 100V154H933V98Q933 63 955 44.5Q977 26 1020 26H1145Q1188 26 1210 44Q1232 62 1232 97V159Q1232 180 1221.5 193.5Q1211 207 1190 212L976 265Q938 274 921 293.5Q904 313 904 345V400Q904 450 935.5 476Q967 502 1026 502H1141Q1200 502 1231 475.5Q1262 449 1262 398V358H1228V401Q1228 435 1205.5 453.5Q1183 472 1141 472H1026Q984 472 961.5 454Q939 436 939 402V347Q939 325 949 313Q959 301 984 295L1200 243Q1232 235 1249 214.5Q1266 194 1266 163V99Q1266 48 1235 22Q1204 -4 1144 -4H1020Q960 -4 929 22.5Q898 49 898 100Z" glyph-name="peseta" horiz-adv-x="1329" unicode="&#8359;" /><glyph d="M471 0H436V466H135V0H100V466H30V498H544V466H471Z" glyph-name="pi" horiz-adv-x="572" unicode="&#960;" /><glyph d="M429 363V334H260V165H231V334H62V363H231V532H260V363Z" glyph-name="plus" horiz-adv-x="491" unicode="+" /><glyph d="M429 435V406H260V257H231V406H62V435H231V584H260V435ZM62 125V154H429V125Z" glyph-name="plusminus" horiz-adv-x="491" unicode="&#177;" /><glyph d="M529 0H493V664H139V0H103V697H529Z" glyph-name="product" horiz-adv-x="632" unicode="&#8719;" /><glyph d="M442 498V-190H407V59L347 19Q326 5 309.5 0.5Q293 -4 270 -4H186Q131 -4 101.5 25.5Q72 55 72 111V388Q72 444 101.5 473Q131 502 186 502H270Q295 502 312 497.5Q329 493 347 480L408 439L411 498ZM190 28H271Q290 28 302.5 31.5Q315 35 336 48L407 95V404L336 451Q317 463 304 466.5Q291 470 271 470H190Q149 470 128 449Q107 428 107 387V111Q107 70 128 49Q149 28 190 28Z" glyph-name="q" horiz-adv-x="522" unicode="q" /><glyph d="M286 335 411 421Q428 433 435 446.5Q442 460 442 478V570Q442 618 417 643Q392 668 344 668H175Q127 668 102.5 643.5Q78 619 78 570V497H43V570Q43 634 77 667.5Q111 701 175 701H345Q410 701 444 667.5Q478 634 478 571V480Q478 453 467.5 433Q457 413 428 393L309 311Q285 294 278 281Q271 268 271 247V139H237V248Q237 276 246.5 294.5Q256 313 286 335ZM275 0H234V69H275Z" glyph-name="question" horiz-adv-x="527" unicode="?" /><glyph d="M238 163 113 77Q96 65 89 51.5Q82 38 82 20V-72Q82 -120 107 -145Q132 -170 180 -170H349Q397 -170 421.5 -145.5Q446 -121 446 -72V1H481V-72Q481 -136 447 -169.5Q413 -203 349 -203H179Q114 -203 80 -169.5Q46 -136 46 -73V18Q46 45 56.5 65Q67 85 96 105L215 187Q239 204 246 217Q253 230 253 251V359H287V250Q287 222 277.5 203.5Q268 185 238 163ZM249 498H290V429H249Z" glyph-name="questiondown" horiz-adv-x="522" unicode="&#191;" /><glyph d="M108 599 102 421H81L75 599V697H108ZM213 599 207 421H185L180 599V697H213Z" glyph-name="quotedbl" horiz-adv-x="288" unicode="&quot;" /><glyph d="M78.5256 73.3479H117.7669V61.036L75.6543 -71.554H50.7695ZM180.5256 73.3479H219.7669V61.036L177.6543 -71.554H152.7695Z" glyph-name="quotedblbase" horiz-adv-x="290" unicode="&#8222;" /><glyph d="M100.1116 550.4377H61.1928V562.79L102.9594 695.815H127.6396ZM202.1116 551.4377H163.1928V563.79L204.9594 696.815H229.6396Z" glyph-name="quotedblleft" horiz-adv-x="288" unicode="&#8220;" /><glyph d="M90.5256 697.3479H129.7669V685.036L87.6543 552.446H62.7695ZM192.5256 697.3479H231.7669V685.036L189.6543 552.446H164.7695Z" glyph-name="quotedblright" horiz-adv-x="287" unicode="&#8221;" /><glyph d="M100.05 551.45H61.1V563.8L102.9 696.8H127.6Z" glyph-name="quoteleft" horiz-adv-x="186" unicode="&#8216;" /><glyph d="M89.95 696.55H128.9V684.2L87.1 551.2H62.4Z" glyph-name="quoteright" horiz-adv-x="184" unicode="&#8217;" /><glyph d="M78.95 73.55H117.9V61.2L76.1 -71.8H51.4Z" glyph-name="quotesinglbase" horiz-adv-x="188" unicode="&#8218;" /><glyph d="M109 599 103 421H81L75 599V697H109Z" glyph-name="quotesingle" horiz-adv-x="184" unicode="'" /><glyph d="M114 388V0H79V498H111L114 426L192 480Q212 493 228.5 497.5Q245 502 269 502H332V470H270Q249 470 236 466.5Q223 463 205 451Z" glyph-name="r" horiz-adv-x="343" unicode="r" /><glyph d="M230 697H264V687L207 565H182ZM114 388V0H79V498H111L114 426L192 480Q212 493 228.5 497.5Q245 502 269 502H332V470H270Q249 470 236 466.5Q223 463 205 451Z" glyph-name="racute" horiz-adv-x="343" unicode="&#341;" /><glyph d="M116 466H29V498H143L329 -25L551 697H585L346 -73H309Z" glyph-name="radical" horiz-adv-x="607" unicode="&#8730;" /><glyph d="M214 565H182L101 697H127L198 590L269 697H295ZM114 388V0H79V498H111L114 426L192 480Q212 493 228.5 497.5Q245 502 269 502H332V470H270Q249 470 236 466.5Q223 463 205 451Z" glyph-name="rcaron" horiz-adv-x="343" unicode="&#345;" /><glyph d="M75 358V587Q75 641 104.5 671Q134 701 188 701H395Q448 701 478 671Q508 641 508 587V358Q508 304 478.5 274.5Q449 245 395 245H188Q134 245 104.5 274.5Q75 304 75 358ZM393 676H190Q147 676 124 652.5Q101 629 101 586V358Q101 315 124 292.5Q147 270 190 270H393Q435 270 458 293Q481 316 481 358V586Q481 629 458 652.5Q435 676 393 676ZM329 579H227V470H329Q347 470 356.5 480Q366 490 366 509V541Q366 560 356.5 569.5Q347 579 329 579ZM227 447V342H199V603H330Q362 603 378.5 587Q395 571 395 541V508Q395 485 384 470Q373 455 353 450L394 342H364L325 447Z" glyph-name="registered" horiz-adv-x="583" unicode="&#174;" /><glyph d="M157 738H190Q227 738 247 718.5Q267 699 267 663V637Q267 600 247.5 581Q228 562 190 562H157Q119 562 99.5 581Q80 600 80 637V663Q80 699 100 718.5Q120 738 157 738ZM190 714H157Q132 714 119 701Q106 688 106 663V637Q106 612 119 599Q132 586 157 586H190Q215 586 228.5 599Q242 612 242 637V663Q242 688 228.5 701Q215 714 190 714Z" glyph-name="ring" horiz-adv-x="348" unicode="&#730;" /><glyph d="M121 923H153Q191 923 211 904Q231 885 231 848V822Q231 785 211 766Q191 747 153 747H121Q83 747 63.5 766Q44 785 44 822V848Q44 885 63.5 904Q83 923 121 923ZM154 899H120Q95 899 82 886Q69 873 69 848V822Q69 797 82 784Q95 771 120 771H154Q179 771 192 784Q205 797 205 822V848Q205 873 192 886Q179 899 154 899Z" glyph-name="ring.case" horiz-adv-x="274" /><glyph d="M61 100V154H95V98Q95 63 117.5 44.5Q140 26 182 26H307Q350 26 372 44Q394 62 394 97V161Q394 182 383.5 195.5Q373 209 352 214L138 266Q101 275 84 294.5Q67 314 67 347V400Q67 450 98 476Q129 502 188 502H303Q363 502 394 475.5Q425 449 425 398V358H391V401Q391 435 368.5 453.5Q346 472 303 472H188Q146 472 123.5 454Q101 436 101 402V348Q101 327 111.5 315Q122 303 147 297L362 244Q395 236 412 215.5Q429 195 429 164V99Q429 48 398 22Q367 -4 307 -4H182Q123 -4 92 22.5Q61 49 61 100Z" glyph-name="s" horiz-adv-x="491" unicode="s" /><glyph d="M278 697H312V687L255 565H230ZM61 100V154H95V98Q95 63 117.5 44.5Q140 26 182 26H307Q350 26 372 44Q394 62 394 97V161Q394 182 383.5 195.5Q373 209 352 214L138 266Q101 275 84 294.5Q67 314 67 347V400Q67 450 98 476Q129 502 188 502H303Q363 502 394 475.5Q425 449 425 398V358H391V401Q391 435 368.5 453.5Q346 472 303 472H188Q146 472 123.5 454Q101 436 101 402V348Q101 327 111.5 315Q122 303 147 297L362 244Q395 236 412 215.5Q429 195 429 164V99Q429 48 398 22Q367 -4 307 -4H182Q123 -4 92 22.5Q61 49 61 100Z" glyph-name="sacute" horiz-adv-x="491" unicode="&#347;" /><glyph d="M259 565H227L146 697H172L243 590L314 697H340ZM61 100V154H95V98Q95 63 117.5 44.5Q140 26 182 26H307Q350 26 372 44Q394 62 394 97V161Q394 182 383.5 195.5Q373 209 352 214L138 266Q101 275 84 294.5Q67 314 67 347V400Q67 450 98 476Q129 502 188 502H303Q363 502 394 475.5Q425 449 425 398V358H391V401Q391 435 368.5 453.5Q346 472 303 472H188Q146 472 123.5 454Q101 436 101 402V348Q101 327 111.5 315Q122 303 147 297L362 244Q395 236 412 215.5Q429 195 429 164V99Q429 48 398 22Q367 -4 307 -4H182Q123 -4 92 22.5Q61 49 61 100Z" glyph-name="scaron" horiz-adv-x="491" unicode="&#353;" /><glyph d="M61 100V154H95V98Q95 63 117.5 44.5Q140 26 182 26H307Q350 26 372 44Q394 62 394 97V161Q394 182 383.5 195.5Q373 209 352 214L138 266Q101 275 84 294.5Q67 314 67 347V400Q67 450 98 476Q129 502 188 502H303Q363 502 394 475.5Q425 449 425 398V358H391V401Q391 435 368.5 453.5Q346 472 303 472H188Q146 472 123.5 454Q101 436 101 402V348Q101 327 111.5 315Q122 303 147 297L362 244Q395 236 412 215.5Q429 195 429 164V99Q429 48 398 22Q367 -4 307 -4H248L218 -61H282Q313 -61 328 -74Q343 -87 343 -114V-132Q343 -158 328 -171Q313 -184 283 -184H171V-160H281Q299 -160 307.5 -152.5Q316 -145 316 -129V-116Q316 -101 307.5 -93.5Q299 -86 280 -86H202Q195 -86 191 -83Q187 -80 187 -75V-70Q187 -68 187.5 -65.5Q188 -63 192 -56L219 -4H182Q123 -4 92 22.5Q61 49 61 100Z" glyph-name="scedilla" horiz-adv-x="491" unicode="&#351;" /><glyph d="M341 565H315L244 672L173 565H147L228 697H260ZM61 100V154H95V98Q95 63 117.5 44.5Q140 26 182 26H307Q350 26 372 44Q394 62 394 97V161Q394 182 383.5 195.5Q373 209 352 214L138 266Q101 275 84 294.5Q67 314 67 347V400Q67 450 98 476Q129 502 188 502H303Q363 502 394 475.5Q425 449 425 398V358H391V401Q391 435 368.5 453.5Q346 472 303 472H188Q146 472 123.5 454Q101 436 101 402V348Q101 327 111.5 315Q122 303 147 297L362 244Q395 236 412 215.5Q429 195 429 164V99Q429 48 398 22Q367 -4 307 -4H182Q123 -4 92 22.5Q61 49 61 100Z" glyph-name="scircumflex" horiz-adv-x="491" unicode="&#349;" /><glyph d="M158 261 395 169V133L145 231Q105 246 88.5 271Q72 296 72 336V586Q72 642 107 671.5Q142 701 208 701H366Q432 701 466.5 671.5Q501 642 501 586V503H465V589Q465 628 439.5 648.5Q414 669 365 669H208Q159 669 133.5 648.5Q108 628 108 589V338Q108 308 119.5 290Q131 272 158 261ZM415 256 178 348V384L429 286Q470 269 485.5 244.5Q501 220 501 181V-79Q501 -135 466.5 -164.5Q432 -194 366 -194H207Q141 -194 106.5 -164.5Q72 -135 72 -79V4H108V-82Q108 -121 133.5 -141.5Q159 -162 208 -162H365Q414 -162 439.5 -141.5Q465 -121 465 -82V179Q465 210 453.5 228Q442 246 415 256Z" glyph-name="section" horiz-adv-x="574" unicode="&#167;" /><glyph d="M143 430H102V498H143ZM101 69H143V56L99 -84H73Z" glyph-name="semicolon" horiz-adv-x="230" unicode=";" /><glyph d="M459 669 159 0H122L421 664H27V697H459Z" glyph-name="seven" horiz-adv-x="483" unicode="7" /><glyph d="M265 346 109 0H78L233 343H29V369H265Z" glyph-name="seven.denominator" horiz-adv-x="290" unicode="&#63068;" /><glyph d="M265 196 109 -150H78L233 193H29V219H265Z" glyph-name="seven.inferior" horiz-adv-x="290" unicode="&#8327;" /><glyph d="M265 674 109 328H78L233 671H29V697H265Z" glyph-name="seven.numerator" horiz-adv-x="290" unicode="&#63080;" /><glyph d="M265 825 109 479H78L233 822H29V848H265Z" glyph-name="seven.superior" horiz-adv-x="290" unicode="&#8311;" /><glyph d="M510 669 210 0H173L472 664H78V697H510Z" glyph-name="seven.tab" horiz-adv-x="586" unicode="&#65303;" /><glyph d="M497 268V129Q497 64 463 30Q429 -4 364 -4H218Q153 -4 119 30Q85 64 85 129V568Q85 633 119 667Q153 701 218 701H358Q423 701 457 669.5Q491 638 491 578V519H455V579Q455 623 430 645.5Q405 668 357 668H219Q171 668 146 643Q121 618 121 570V391H373Q434 391 465.5 359.5Q497 328 497 268ZM219 29H363Q411 29 436 54Q461 79 461 127V269Q461 313 438.5 335.5Q416 358 372 358H121V127Q121 79 146 54Q171 29 219 29Z" glyph-name="six" horiz-adv-x="568" unicode="6" /><glyph d="M287 142V71Q287 36 268 17Q249 -2 213 -2H133Q97 -2 78.5 16.5Q60 35 60 71V298Q60 334 79 353Q98 372 133 372H211Q246 372 265 354.5Q284 337 284 303V272H254V302Q254 323 242 334Q230 345 207 345H137Q115 345 103 333Q91 321 91 298V208H219Q252 208 269.5 191Q287 174 287 142ZM137 24H209Q232 24 244.5 36Q257 48 257 71V139Q257 160 246 171.5Q235 183 214 183H91V71Q91 48 103 36Q115 24 137 24Z" glyph-name="six.denominator" horiz-adv-x="338" unicode="&#63067;" /><glyph d="M287 -8V-79Q287 -114 268 -133Q249 -152 213 -152H133Q97 -152 78.5 -133.5Q60 -115 60 -79V148Q60 184 79 203Q98 222 133 222H211Q246 222 265 204.5Q284 187 284 153V122H254V152Q254 173 242 184Q230 195 207 195H137Q115 195 103 183Q91 171 91 148V58H219Q252 58 269.5 41Q287 24 287 -8ZM137 -126H209Q232 -126 244.5 -114Q257 -102 257 -79V-11Q257 10 246 21.5Q235 33 214 33H91V-79Q91 -102 103 -114Q115 -126 137 -126Z" glyph-name="six.inferior" horiz-adv-x="338" unicode="&#8326;" /><glyph d="M287 470V399Q287 364 268 345Q249 326 213 326H133Q97 326 78.5 344.5Q60 363 60 399V626Q60 662 79 681Q98 700 133 700H211Q246 700 265 682.5Q284 665 284 631V600H254V630Q254 651 242 662Q230 673 207 673H137Q115 673 103 661Q91 649 91 626V536H219Q252 536 269.5 519Q287 502 287 470ZM137 352H209Q232 352 244.5 364Q257 376 257 399V467Q257 488 246 499.5Q235 511 214 511H91V399Q91 376 103 364Q115 352 137 352Z" glyph-name="six.numerator" horiz-adv-x="338" unicode="&#63079;" /><glyph d="M287 621V550Q287 515 268 496Q249 477 213 477H133Q97 477 78.5 495.5Q60 514 60 550V777Q60 813 79 832Q98 851 133 851H211Q246 851 265 833.5Q284 816 284 782V751H254V781Q254 802 242 813Q230 824 207 824H137Q115 824 103 812Q91 800 91 777V687H219Q252 687 269.5 670Q287 653 287 621ZM137 503H209Q232 503 244.5 515Q257 527 257 550V618Q257 639 246 650.5Q235 662 214 662H91V550Q91 527 103 515Q115 503 137 503Z" glyph-name="six.superior" horiz-adv-x="338" unicode="&#8310;" /><glyph d="M506 268V129Q506 64 472 30Q438 -4 373 -4H227Q162 -4 128 30Q94 64 94 129V568Q94 633 128 667Q162 701 227 701H367Q431 701 465 669.5Q499 638 499 578V519H464V579Q464 622 439 645Q414 668 366 668H228Q180 668 155 643Q130 618 130 570V391H381Q442 391 474 359.5Q506 328 506 268ZM228 29H372Q420 29 445 54Q470 79 470 127V269Q470 313 447.5 335.5Q425 358 381 358H130V127Q130 79 155 54Q180 29 228 29Z" glyph-name="six.tab" horiz-adv-x="586" unicode="&#65302;" /><glyph d="M414 770 58 -73H24L379 770Z" glyph-name="slash" horiz-adv-x="438" unicode="/" /><glyph glyph-name="space" horiz-adv-x="252" unicode=" " /><glyph d="M529 32V0H52V32H133V328H52V356H133V571Q133 635 167 668Q201 701 266 701H384Q449 701 483 668Q517 635 517 571V507H481V570Q481 618 456 643Q431 668 384 668H267Q219 668 194 643Q169 618 169 570V356H356V328H169V32Z" glyph-name="sterling" horiz-adv-x="580" unicode="&#163;" /><glyph d="M491 697V664H98L257 357L84 33H492V0H43V34L216 357L56 663V697Z" glyph-name="summation" horiz-adv-x="539" unicode="&#8721;" /><glyph d="M234 32H311V0H233Q175 0 143.5 31.5Q112 63 112 121V464H24V495H112V639H147V495H310V464H147V119Q147 77 169.5 54.5Q192 32 234 32Z" glyph-name="t" horiz-adv-x="326" unicode="t" /><glyph d="M115 304H35V331H115V464H27V495H115V639H150V495H313V464H150V331H305V304H150V119Q150 77 172.5 54.5Q195 32 237 32H314V0H236Q178 0 146.5 31.5Q115 63 115 121Z" glyph-name="tbar" horiz-adv-x="332" unicode="&#359;" /><glyph d="M280 697H318V685L278 561H255ZM234 32H311V0H233Q175 0 143.5 31.5Q112 63 112 121V464H24V495H112V639H147V495H310V464H147V119Q147 77 169.5 54.5Q192 32 234 32Z" glyph-name="tcaron" horiz-adv-x="326" unicode="&#357;" /><glyph d="M175 19 114 59V-199H79V697H114V440L175 480Q197 494 213 498Q229 502 252 502H336Q392 502 421 473Q450 444 450 388V111Q450 55 420.5 25.5Q391 -4 336 -4H252Q229 -4 212.5 0.5Q196 5 175 19ZM251 28H332Q373 28 394 49Q415 70 415 111V387Q415 428 394 449Q373 470 332 470H251Q231 470 219 467Q207 464 186 451L114 404V95L186 48Q209 34 221 31Q233 28 251 28Z" glyph-name="thorn" horiz-adv-x="522" unicode="&#254;" /><glyph d="M346 -4H199Q134 -4 100 26.5Q66 57 66 115V185H102V114Q102 73 127 51Q152 29 199 29H345Q393 29 417.5 53Q442 77 442 123V262Q442 303 419.5 324.5Q397 346 353 346H215V378H339Q382 378 405 400Q428 422 428 464V576Q428 621 403.5 644.5Q379 668 331 668H200Q152 668 127 646.5Q102 625 102 584V512H67V583Q67 640 101 670.5Q135 701 199 701H332Q396 701 430 669Q464 637 464 575V469Q464 429 448.5 403Q433 377 402 365Q440 356 459 329.5Q478 303 478 259V124Q478 62 444 29Q410 -4 346 -4Z" glyph-name="three" horiz-adv-x="557" unicode="3" /><glyph d="M204 -2H122Q87 -2 68 15Q49 32 49 64V100H79V66Q79 45 91 34.5Q103 24 126 24H200Q223 24 235.5 35.5Q248 47 248 69V139Q248 159 237 169Q226 179 205 179H131V204H197Q218 204 229.5 214.5Q241 225 241 245V300Q241 322 228.5 333.5Q216 345 193 345H126Q104 345 92 335Q80 325 80 305V270H50V304Q50 336 69 354Q88 372 122 372H197Q232 372 251 353.5Q270 335 270 301V249Q270 228 262 214.5Q254 201 237 194Q257 189 267.5 174.5Q278 160 278 137V68Q278 34 259 16Q240 -2 204 -2Z" glyph-name="three.denominator" horiz-adv-x="334" unicode="&#63064;" /><glyph d="M205 -152H123Q88 -152 69 -135Q50 -118 50 -86V-50H80V-84Q80 -105 92 -115.5Q104 -126 127 -126H201Q224 -126 236.5 -114.5Q249 -103 249 -81V-11Q249 9 238 19Q227 29 206 29H132V54H198Q219 54 230.5 64.5Q242 75 242 95V150Q242 172 229.5 183.5Q217 195 194 195H127Q105 195 93 185Q81 175 81 155V120H51V154Q51 186 70 204Q89 222 123 222H198Q233 222 252 203.5Q271 185 271 151V99Q271 78 263 64.5Q255 51 238 44Q258 39 268.5 24.5Q279 10 279 -13V-82Q279 -116 260 -134Q241 -152 205 -152Z" glyph-name="three.inferior" horiz-adv-x="336" unicode="&#8323;" /><glyph d="M204 326H122Q87 326 68 343Q49 360 49 392V428H79V394Q79 373 91 362.5Q103 352 126 352H200Q223 352 235.5 363.5Q248 375 248 397V467Q248 487 237 497Q226 507 205 507H131V532H197Q218 532 229.5 542.5Q241 553 241 573V628Q241 650 228.5 661.5Q216 673 193 673H126Q104 673 92 663Q80 653 80 633V598H50V632Q50 664 69 682Q88 700 122 700H197Q232 700 251 681.5Q270 663 270 629V577Q270 556 262 542.5Q254 529 237 522Q257 517 267.5 502.5Q278 488 278 465V396Q278 362 259 344Q240 326 204 326Z" glyph-name="three.numerator" horiz-adv-x="334" unicode="&#63076;" /><glyph d="M360 -4H213Q149 -4 115 26.5Q81 57 81 115V185H116V114Q116 73 141.5 51Q167 29 214 29H359Q407 29 432 53Q457 77 457 123V262Q457 303 434.5 324.5Q412 346 368 346H229V378H354Q397 378 420 400Q443 422 443 464V576Q443 621 418 644.5Q393 668 345 668H215Q167 668 142 646.5Q117 625 117 584V512H81V583Q81 640 115 670.5Q149 701 214 701H346Q411 701 445 669Q479 637 479 575V469Q479 429 463.5 403Q448 377 417 365Q454 356 473.5 329Q493 302 493 259V124Q493 61 459 28.5Q425 -4 360 -4Z" glyph-name="three.tab" horiz-adv-x="586" unicode="&#65299;" /><glyph d="M647 129V105H605V0H577V105H389V129L579 371H605V129ZM419 129H577V329ZM607 701 181 -4H148L574 701ZM210 326H128Q93 326 74 343Q55 360 55 392V428H85V394Q85 373 97 362.5Q109 352 132 352H206Q229 352 241.5 363.5Q254 375 254 397V467Q254 487 243 497Q232 507 211 507H137V532H203Q224 532 235.5 542.5Q247 553 247 573V628Q247 650 234.5 661.5Q222 673 199 673H132Q110 673 98 663Q86 653 86 633V598H56V632Q56 664 75 682Q94 700 128 700H203Q238 700 257 681.5Q276 663 276 629V577Q276 556 268 542.5Q260 529 243 522Q263 517 273.5 502.5Q284 488 284 465V396Q284 362 265 344Q246 326 210 326Z" glyph-name="threequarters" horiz-adv-x="691" unicode="&#190;" /><glyph d="M204 477H122Q87 477 68 494Q49 511 49 543V579H79V545Q79 524 91 513.5Q103 503 126 503H200Q223 503 235.5 514.5Q248 526 248 548V618Q248 638 237 648Q226 658 205 658H131V683H197Q218 683 229.5 693.5Q241 704 241 724V779Q241 801 228.5 812.5Q216 824 193 824H126Q104 824 92 814Q80 804 80 784V749H50V783Q50 815 69 833Q88 851 122 851H197Q232 851 251 832.5Q270 814 270 780V728Q270 707 262 693.5Q254 680 237 673Q257 668 267.5 653.5Q278 639 278 616V547Q278 513 259 495Q240 477 204 477Z" glyph-name="threesuperior" horiz-adv-x="334" unicode="&#179;" /><glyph d="M289 623H307Q324 623 333 631Q342 639 342 654V696H368V651Q368 624 353 610Q338 596 309 596H288Q275 596 260.5 601.5Q246 607 235 615L182 654Q174 660 162.5 664.5Q151 669 141 669H124Q106 669 97 661Q88 653 88 637V596H62V640Q62 668 77 682Q92 696 121 696H144Q155 696 169.5 690.5Q184 685 196 677L248 638Q256 632 267.5 627.5Q279 623 289 623Z" glyph-name="tilde" horiz-adv-x="430" unicode="&#732;" /><glyph d="M249 784H267Q284 784 293 792Q302 800 302 815V858H328V812Q328 785 313 771Q298 757 269 757H248Q235 757 220.5 762.5Q206 768 195 776L142 815Q134 821 122.5 825.5Q111 830 101 830H84Q66 830 57 822Q48 814 48 798V757H22V801Q22 829 37 843.5Q52 858 81 858H104Q114 858 127.5 853Q141 848 156 839L208 799Q216 793 227.5 788.5Q239 784 249 784Z" glyph-name="tilde.case" horiz-adv-x="351" /><glyph d="M318 697V670H190V247H161V670H33V697ZM587 408H563L428 643V247H399V697H428L575 440L721 697H750V247H721V644Z" glyph-name="trademark" horiz-adv-x="834" unicode="&#8482;" /><glyph d="M483 33V0H71V164Q71 221 88.5 247.5Q106 274 150 291L387 386Q415 397 427 417Q439 437 439 469V570Q439 618 414.5 643Q390 668 342 668H207Q159 668 134.5 643Q110 618 110 570V482H74V568Q74 633 108.5 667Q143 701 207 701H343Q407 701 441 667Q475 633 475 568V470Q475 425 457 397.5Q439 370 398 354L165 261Q131 248 119 230.5Q107 213 107 165V33Z" glyph-name="two" horiz-adv-x="542" unicode="2" /><glyph d="M279 26V0H52V90Q52 122 62.5 137Q73 152 97 161L219 207Q233 212 239 222Q245 232 245 248V298Q245 321 233 333Q221 345 198 345H130Q107 345 95 333Q83 321 83 298V254H54V299Q54 334 73 353Q92 372 127 372H202Q238 372 257 353Q276 334 276 298V248Q276 224 265 208Q254 192 232 183L110 136Q93 130 87 121.5Q81 113 81 90V26Z" glyph-name="two.denominator" horiz-adv-x="327" unicode="&#63063;" /><glyph d="M279 -124V-150H52V-60Q52 -28 62.5 -13Q73 2 97 11L219 57Q233 62 239 72Q245 82 245 98V148Q245 171 233 183Q221 195 198 195H130Q107 195 95 183Q83 171 83 148V104H54V149Q54 184 73 203Q92 222 127 222H202Q238 222 257 203Q276 184 276 148V98Q276 74 265 58Q254 42 232 33L110 -14Q93 -20 87 -28.5Q81 -37 81 -60V-124Z" glyph-name="two.inferior" horiz-adv-x="327" unicode="&#8322;" /><glyph d="M279 354V328H52V418Q52 450 62.5 465Q73 480 97 489L219 535Q233 540 239 550Q245 560 245 576V626Q245 649 233 661Q221 673 198 673H130Q107 673 95 661Q83 649 83 626V582H54V627Q54 662 73 681Q92 700 127 700H202Q238 700 257 681Q276 662 276 626V576Q276 552 265 536Q254 520 232 511L110 464Q93 458 87 449.5Q81 441 81 418V354Z" glyph-name="two.numerator" horiz-adv-x="327" unicode="&#63075;" /><glyph d="M505 33V0H93V164Q93 222 110.5 248Q128 274 172 291L409 386Q437 397 449 417Q461 437 461 469V570Q461 618 436 643Q411 668 363 668H229Q181 668 156.5 643Q132 618 132 570V482H96V568Q96 633 130 667Q164 701 229 701H364Q429 701 463 667Q497 633 497 568V470Q497 427 479 399Q461 371 420 354L186 261Q153 248 141 230.5Q129 213 129 165V33Z" glyph-name="two.tab" horiz-adv-x="586" unicode="&#65298;" /><glyph d="M279 505V479H52V569Q52 601 62.5 616Q73 631 97 640L219 686Q233 691 239 701Q245 711 245 727V777Q245 800 233 812Q221 824 198 824H130Q107 824 95 812Q83 800 83 777V733H54V778Q54 813 73 832Q92 851 127 851H202Q238 851 257 832Q276 813 276 777V727Q276 703 265 687Q254 671 232 662L110 615Q93 609 87 600.5Q81 592 81 569V505Z" glyph-name="twosuperior" horiz-adv-x="327" unicode="&#178;" /><glyph d="M409 59 348 19Q327 5 310.5 0.5Q294 -4 271 -4H192Q136 -4 106.5 25.5Q77 55 77 111V498H112V111Q112 70 133 49Q154 28 195 28H271Q291 28 304 31.5Q317 35 336 48L408 95V498H443V0H412Z" glyph-name="u" horiz-adv-x="523" unicode="u" /><glyph d="M295 697H329V687L272 565H247ZM409 59 348 19Q327 5 310.5 0.5Q294 -4 271 -4H192Q136 -4 106.5 25.5Q77 55 77 111V498H112V111Q112 70 133 49Q154 28 195 28H271Q291 28 304 31.5Q317 35 336 48L408 95V498H443V0H412Z" glyph-name="uacute" horiz-adv-x="523" unicode="&#250;" /><glyph d="M409 59 348 19Q327 5 310.5 0.5Q294 -4 271 -4H192Q136 -4 106.5 25.5Q77 55 77 111V498H112V111Q112 70 133 49Q154 28 195 28H271Q291 28 304 31.5Q317 35 336 48L408 95V498H443V0H412ZM355 653V710H382V653Q382 612 357.5 590Q333 568 287 568H240Q194 568 169.5 590Q145 612 145 653V710H172V653Q172 624 189.5 608.5Q207 593 240 593H286Q319 593 337 608.5Q355 624 355 653Z" glyph-name="ubreve" horiz-adv-x="523" unicode="&#365;" /><glyph d="M360 565H334L263 672L192 565H166L247 697H279ZM409 59 348 19Q327 5 310.5 0.5Q294 -4 271 -4H192Q136 -4 106.5 25.5Q77 55 77 111V498H112V111Q112 70 133 49Q154 28 195 28H271Q291 28 304 31.5Q317 35 336 48L408 95V498H443V0H412Z" glyph-name="ucircumflex" horiz-adv-x="523" unicode="&#251;" /><glyph d="M235 606H201V668H235ZM326 606H292V668H326ZM409 59 348 19Q327 5 310.5 0.5Q294 -4 271 -4H192Q136 -4 106.5 25.5Q77 55 77 111V498H112V111Q112 70 133 49Q154 28 195 28H271Q291 28 304 31.5Q317 35 336 48L408 95V498H443V0H412Z" glyph-name="udieresis" horiz-adv-x="523" unicode="&#252;" /><glyph d="M409 59 348 19Q327 5 310.5 0.5Q294 -4 271 -4H192Q136 -4 106.5 25.5Q77 55 77 111V498H112V111Q112 70 133 49Q154 28 195 28H271Q291 28 304 31.5Q317 35 336 48L408 95V498H443V0H412ZM253 565 197 687V697H231L279 565Z" glyph-name="ugrave" horiz-adv-x="523" unicode="&#249;" /><glyph d="M409 59 348 19Q327 5 310.5 0.5Q294 -4 271 -4H192Q136 -4 106.5 25.5Q77 55 77 111V498H112V111Q112 70 133 49Q154 28 195 28H271Q291 28 304 31.5Q317 35 336 48L408 95V498H443V0H412ZM260 697H292V687L237 565H214ZM360 697H391V687L307 565H284Z" glyph-name="uhungarumlaut" horiz-adv-x="523" unicode="&#369;" /><glyph d="M409 59 348 19Q327 5 310.5 0.5Q294 -4 271 -4H192Q136 -4 106.5 25.5Q77 55 77 111V498H112V111Q112 70 133 49Q154 28 195 28H271Q291 28 304 31.5Q317 35 336 48L408 95V498H443V0H412ZM389 605H137V632H389Z" glyph-name="umacron" horiz-adv-x="523" unicode="&#363;" /><glyph d="M48 -144V-114H417V-144Z" glyph-name="underscore" horiz-adv-x="465" unicode="_" /><glyph glyph-name="uni00A0" horiz-adv-x="252" unicode="&#160;" /><glyph d="M71 272V303H331V272Z" glyph-name="uni00AD" horiz-adv-x="401" unicode="&#173;" /><glyph d="M282 -37H322V-49L281 -181H255ZM517 329V129Q517 64 483.5 30Q450 -4 385 -4H218Q153 -4 119 30Q85 64 85 129V568Q85 633 119 667Q153 701 218 701H385Q450 701 483.5 667Q517 633 517 568V503H482V570Q482 618 457 643Q432 668 384 668H218Q171 668 146 643Q121 618 121 570V127Q121 79 146 54Q171 29 218 29H384Q432 29 457 54Q482 79 482 127V298H337V329Z" glyph-name="uni0122" horiz-adv-x="591" unicode="&#290;" /><glyph d="M264 574H224V586L265 718H291ZM321 -194H202Q143 -194 112 -164Q81 -134 81 -78V-56H115V-80Q115 -121 137 -142Q159 -163 202 -163H321Q363 -163 385.5 -141.5Q408 -120 408 -80V83L347 43Q326 29 309.5 24.5Q293 20 270 20H186Q131 20 101.5 49.5Q72 79 72 135V388Q72 444 101.5 473Q131 502 186 502H270Q293 502 309 498Q325 494 347 480L409 439L412 498H443V-76Q443 -134 411.5 -164Q380 -194 321 -194ZM190 52H271Q290 52 302.5 55.5Q315 59 336 72L408 119V403L336 451Q317 463 304 466.5Q291 470 271 470H190Q149 470 127.5 449Q106 428 106 387V135Q106 94 127.5 73Q149 52 190 52Z" glyph-name="uni0123" horiz-adv-x="522" unicode="&#291;" /><glyph d="M293 -37H333V-49L292 -181H266ZM489 180 346 347H131V0H95V697H131V379H346L483 508Q491 516 496 529Q501 542 501 558V697H536V552Q536 535 530 519Q524 503 513 491L378 362L521 196Q528 188 533 173.5Q538 159 538 145V0H502V139Q502 151 498.5 162Q495 173 489 180Z" glyph-name="uni0136" horiz-adv-x="605" unicode="&#310;" /><glyph d="M237 -37H277V-49L236 -181H210ZM397 118 252 249H114V0H79V697H114V280H253L394 402Q404 411 409 422Q414 433 414 448V498H447V444Q447 426 440 410.5Q433 395 419 383L283 265L427 135Q438 125 444.5 109Q451 93 451 75V0H417V72Q417 87 412 98Q407 109 397 118Z" glyph-name="uni0137" horiz-adv-x="504" unicode="&#311;" /><glyph d="M273 -37H313V-49L272 -181H246ZM488 0H95V697H131V32H488Z" glyph-name="uni013B" horiz-adv-x="500" unicode="&#315;" /><glyph d="M78 -37H118V-49L77 -181H51ZM81 0V697H116V0Z" glyph-name="uni013C" horiz-adv-x="197" unicode="&#316;" /><glyph d="M298 -37H338V-49L297 -181H271ZM538 0H505L129 630V0H95V697H129L504 67V697H538Z" glyph-name="uni0145" horiz-adv-x="633" unicode="&#325;" /><glyph d="M246 -37H286V-49L245 -181H219ZM333 470H251Q231 470 218 466.5Q205 463 186 451L114 403V0H79V498H111L113 439L175 480Q197 494 213 498Q229 502 252 502H336Q392 502 421 473Q450 444 450 388V0H415V387Q415 428 394.5 449Q374 470 333 470Z" glyph-name="uni0146" horiz-adv-x="528" unicode="&#326;" /><glyph d="M280 -37H320V-49L279 -181H253ZM506 0H467L357 294H131V0H95V697H373Q438 697 472 663Q506 629 506 564V427Q506 368 477.5 334Q449 300 394 295ZM373 664H131V327H373Q420 327 445 352Q470 377 470 425V567Q470 614 445 639Q420 664 373 664Z" glyph-name="uni0156" horiz-adv-x="574" unicode="&#342;" /><glyph d="M76 -37H116V-49L75 -181H49ZM114 388V0H79V498H111L114 426L192 480Q212 493 228.5 497.5Q245 502 269 502H332V470H270Q249 470 236 466.5Q223 463 205 451Z" glyph-name="uni0157" horiz-adv-x="342" unicode="&#343;" /><glyph d="M464 697V665H263V0H255L223 -61H287Q318 -61 333 -74Q348 -87 348 -114V-132Q348 -158 333 -171Q318 -184 288 -184H176V-160H286Q304 -160 312.5 -152.5Q321 -145 321 -129V-116Q321 -101 312.5 -93.5Q304 -86 285 -86H207Q200 -86 196 -83Q192 -80 192 -75V-70Q192 -68 192.5 -65.5Q193 -63 197 -56L227 0V665H26V697Z" glyph-name="uni0162" horiz-adv-x="490" unicode="&#354;" /><glyph d="M234 32H311V0H233Q228 0 222 0.5Q216 1 207 2L174 -61H238Q269 -61 284 -74Q299 -87 299 -114V-132Q299 -158 284 -171Q269 -184 239 -184H127V-160H237Q255 -160 263.5 -152.5Q272 -145 272 -129V-116Q272 -101 263.5 -93.5Q255 -86 236 -86H158Q151 -86 147 -83Q143 -80 143 -75V-70Q143 -68 143.5 -65.5Q144 -63 148 -56L182 7Q147 19 129.5 48Q112 77 112 121V464H24V495H112V639H147V495H310V464H147V119Q147 77 169.5 54.5Q192 32 234 32Z" glyph-name="uni0163" horiz-adv-x="326" unicode="&#355;" /><glyph d="M268 -37H308V-49L267 -181H241ZM72 497V587Q72 643 106.5 672Q141 701 207 701H366Q431 701 466 671.5Q501 642 501 587V502H465V589Q465 628 439.5 648.5Q414 669 365 669H208Q159 669 133.5 648.5Q108 628 108 589V499Q108 465 120 447.5Q132 430 159 422L430 347Q467 337 486.5 311Q506 285 506 248V110Q506 54 471.5 25Q437 -4 371 -4H201Q135 -4 100.5 25Q66 54 66 110V189H102V108Q102 69 127.5 48.5Q153 28 202 28H370Q419 28 444.5 48.5Q470 69 470 108V244Q470 271 457 289Q444 307 420 313L147 390Q109 400 90.5 426.5Q72 453 72 497Z" glyph-name="uni0218" horiz-adv-x="575" unicode="&#536;" /><glyph d="M225 -37H265V-49L224 -181H198ZM61 100V154H95V98Q95 63 117.5 44.5Q140 26 182 26H307Q350 26 372 44Q394 62 394 97V161Q394 182 383.5 195.5Q373 209 352 214L138 266Q101 275 84 294.5Q67 314 67 347V400Q67 450 98 476Q129 502 188 502H303Q363 502 394 475.5Q425 449 425 398V358H391V401Q391 435 368.5 453.5Q346 472 303 472H188Q146 472 123.5 454Q101 436 101 402V348Q101 327 111.5 315Q122 303 147 297L362 244Q395 236 412 215.5Q429 195 429 164V99Q429 48 398 22Q367 -4 307 -4H182Q123 -4 92 22.5Q61 49 61 100Z" glyph-name="uni0219" horiz-adv-x="491" unicode="&#537;" /><glyph d="M225 -37H265V-49L224 -181H198ZM464 697V665H263V0H227V665H26V697Z" glyph-name="uni021A" horiz-adv-x="490" unicode="&#538;" /><glyph d="M170 -37H210V-49L169 -181H143ZM234 32H311V0H233Q175 0 143.5 31.5Q112 63 112 121V464H24V495H112V639H147V495H310V464H147V119Q147 77 169.5 54.5Q192 32 234 32Z" glyph-name="uni021B" horiz-adv-x="326" unicode="&#539;" /><glyph d="M-7 -190H-56V-158H-8Q34 -158 56.5 -135.5Q79 -113 79 -71V498H114V-68Q114 -127 83 -158.5Q52 -190 -7 -190Z" glyph-name="uni0237" horiz-adv-x="194" unicode="&#567;" /><glyph d="M304 605H52V632H304Z" glyph-name="uni02C9" horiz-adv-x="356" unicode="&#713;" /><glyph d="M559 0H34L275 697H317ZM511 32 295 654 80 32Z" glyph-name="uni0394" horiz-adv-x="592" unicode="&#916;" /><glyph d="M251 31V0H59V30H160Q125 46 108.5 79Q92 112 92 165V568Q92 633 126 667Q160 701 225 701H402Q467 701 501 667Q535 633 535 568V161Q535 110 518 77.5Q501 45 466 30H559V0H367V31Q437 32 468 61Q499 90 499 156V570Q499 618 474 643Q449 668 401 668H226Q178 668 153 643Q128 618 128 570V159Q128 92 157 62Q186 32 251 31Z" glyph-name="uni03A9" horiz-adv-x="626" unicode="&#937;" /><glyph d="M114 -190H79V498H114V111Q114 70 135 49Q156 28 197 28H277Q296 28 308.5 31Q321 34 342 48L414 94V498H449V0H418L415 59L353 19Q332 5 316 0.5Q300 -4 277 -4H194Q166 -4 145.5 5Q125 14 112 31Q113 24 113.5 -20.5Q114 -65 114 -76Z" glyph-name="uni03BC" horiz-adv-x="528" unicode="&#956;" /><glyph d="M122 119V239L41 177L25 204L122 278V576Q122 635 153.5 666Q185 697 244 697H311Q373 697 403 669Q433 641 433 583V544Q433 512 411.5 478.5Q390 445 354 417L157 266V116Q157 73 179.5 51Q202 29 245 29H423V-3H244Q185 -3 153.5 28.5Q122 60 122 119ZM157 579V305L327 435Q359 459 379 488Q399 517 399 541V585Q399 626 377.5 646Q356 666 312 666H245Q204 666 180.5 643Q157 620 157 579Z" glyph-name="uni2113" horiz-adv-x="461" unicode="&#8467;" /><glyph d="M50 328V354H142V671H50V697H173V354H264V328ZM602 701 176 -4H143L569 701ZM616 -2H534Q499 -2 480 15Q461 32 461 64V100H491V66Q491 45 503 34.5Q515 24 538 24H612Q635 24 647.5 35.5Q660 47 660 69V139Q660 159 649 169Q638 179 617 179H543V204H609Q630 204 641.5 214.5Q653 225 653 245V300Q653 322 640.5 333.5Q628 345 605 345H538Q516 345 504 335Q492 325 492 305V270H462V304Q462 336 481 354Q500 372 534 372H609Q644 372 663 353.5Q682 335 682 301V249Q682 228 674 214.5Q666 201 649 194Q669 189 679.5 174.5Q690 160 690 137V68Q690 34 671 16Q652 -2 616 -2Z" glyph-name="uni2153" horiz-adv-x="745" unicode="&#8531;" /><glyph d="M285 354V328H58V418Q58 450 68.5 465Q79 480 103 489L225 535Q239 540 245 550Q251 560 251 576V626Q251 649 239 661Q227 673 204 673H136Q113 673 101 661Q89 649 89 626V582H60V627Q60 662 79 681Q98 700 133 700H208Q244 700 263 681Q282 662 282 626V576Q282 552 271 536Q260 520 238 511L116 464Q99 458 93 449.5Q87 441 87 418V354ZM610 701 184 -4H151L577 701ZM625 -2H543Q508 -2 489 15Q470 32 470 64V100H500V66Q500 45 512 34.5Q524 24 547 24H621Q644 24 656.5 35.5Q669 47 669 69V139Q669 159 658 169Q647 179 626 179H552V204H618Q639 204 650.5 214.5Q662 225 662 245V300Q662 322 649.5 333.5Q637 345 614 345H547Q525 345 513 335Q501 325 501 305V270H471V304Q471 336 490 354Q509 372 543 372H618Q653 372 672 353.5Q691 335 691 301V249Q691 228 683 214.5Q675 201 658 194Q678 189 688.5 174.5Q699 160 699 137V68Q699 34 680 16Q661 -2 625 -2Z" glyph-name="uni2154" horiz-adv-x="754" unicode="&#8532;" /><glyph d="M602 701 176 -4H143L569 701ZM618 -2H538Q502 -2 483.5 15.5Q465 33 465 66V99H494V66Q494 45 506 34.5Q518 24 541 24H613Q637 24 649 35.5Q661 47 661 69V144Q661 166 648.5 177Q636 188 613 188H471V369H681V343H499V214H618Q653 214 671.5 196Q690 178 690 144V70Q690 35 671.5 16.5Q653 -2 618 -2ZM50 328V354H142V671H50V697H173V354H264V328Z" glyph-name="uni2155" horiz-adv-x="745" unicode="&#8533;" /><glyph d="M285 354V328H58V418Q58 450 68.5 465Q79 480 103 489L225 535Q239 540 245 550Q251 560 251 576V626Q251 649 239 661Q227 673 204 673H136Q113 673 101 661Q89 649 89 626V582H60V627Q60 662 79 681Q98 700 133 700H208Q244 700 263 681Q282 662 282 626V576Q282 552 271 536Q260 520 238 511L116 464Q99 458 93 449.5Q87 441 87 418V354ZM610 701 184 -4H151L577 701ZM626 -2H546Q510 -2 491.5 15.5Q473 33 473 66V99H502V66Q502 45 514 34.5Q526 24 549 24H621Q645 24 657 35.5Q669 47 669 69V144Q669 166 656.5 177Q644 188 621 188H479V369H689V343H507V214H626Q661 214 679.5 196Q698 178 698 144V70Q698 35 679.5 16.5Q661 -2 626 -2Z" glyph-name="uni2156" horiz-adv-x="754" unicode="&#8534;" /><glyph d="M606 701 180 -4H147L573 701ZM622 -2H542Q506 -2 487.5 15.5Q469 33 469 66V99H498V66Q498 45 510 34.5Q522 24 545 24H617Q641 24 653 35.5Q665 47 665 69V144Q665 166 652.5 177Q640 188 617 188H475V369H685V343H503V214H622Q657 214 675.5 196Q694 178 694 144V70Q694 35 675.5 16.5Q657 -2 622 -2ZM210 326H128Q93 326 74 343Q55 360 55 392V428H85V394Q85 373 97 362.5Q109 352 132 352H206Q229 352 241.5 363.5Q254 375 254 397V467Q254 487 243 497Q232 507 211 507H137V532H203Q224 532 235.5 542.5Q247 553 247 573V628Q247 650 234.5 661.5Q222 673 199 673H132Q110 673 98 663Q86 653 86 633V598H56V632Q56 664 75 682Q94 700 128 700H203Q238 700 257 681.5Q276 663 276 629V577Q276 556 268 542.5Q260 529 243 522Q263 517 273.5 502.5Q284 488 284 465V396Q284 362 265 344Q246 326 210 326Z" glyph-name="uni2157" horiz-adv-x="750" unicode="&#8535;" /><glyph d="M290 457V433H248V328H220V433H32V457L222 699H248V457ZM62 457H220V657ZM585 701 159 -4H126L552 701ZM601 -2H521Q485 -2 466.5 15.5Q448 33 448 66V99H477V66Q477 45 489 34.5Q501 24 524 24H596Q620 24 632 35.5Q644 47 644 69V144Q644 166 631.5 177Q619 188 596 188H454V369H664V343H482V214H601Q636 214 654.5 196Q673 178 673 144V70Q673 35 654.5 16.5Q636 -2 601 -2Z" glyph-name="uni2158" horiz-adv-x="728" unicode="&#8536;" /><glyph d="M689 142V71Q689 36 670 17Q651 -2 615 -2H535Q499 -2 480.5 16.5Q462 35 462 71V298Q462 334 481 353Q500 372 535 372H613Q648 372 667 354.5Q686 337 686 303V272H656V302Q656 323 644 334Q632 345 609 345H539Q517 345 505 333Q493 321 493 298V208H621Q654 208 671.5 191Q689 174 689 142ZM539 24H611Q634 24 646.5 36Q659 48 659 71V139Q659 160 648 171.5Q637 183 616 183H493V71Q493 48 505 36Q517 24 539 24ZM50 328V354H142V671H50V697H173V354H264V328ZM602 701 176 -4H143L569 701Z" glyph-name="uni2159" horiz-adv-x="745" unicode="&#8537;" /><glyph d="M689 142V71Q689 36 670 17Q651 -2 615 -2H535Q499 -2 480.5 16.5Q462 35 462 71V298Q462 334 481 353Q500 372 535 372H613Q648 372 667 354.5Q686 337 686 303V272H656V302Q656 323 644 334Q632 345 609 345H539Q517 345 505 333Q493 321 493 298V208H621Q654 208 671.5 191Q689 174 689 142ZM539 24H611Q634 24 646.5 36Q659 48 659 71V139Q659 160 648 171.5Q637 183 616 183H493V71Q493 48 505 36Q517 24 539 24ZM602 701 176 -4H143L569 701ZM209 326H129Q93 326 74.5 343.5Q56 361 56 394V427H85V394Q85 373 97 362.5Q109 352 132 352H204Q228 352 240 363.5Q252 375 252 397V472Q252 494 239.5 505Q227 516 204 516H62V697H272V671H90V542H209Q244 542 262.5 524Q281 506 281 472V398Q281 363 262.5 344.5Q244 326 209 326Z" glyph-name="uni215A" horiz-adv-x="745" unicode="&#8538;" /><glyph d="M602 701 176 -4H143L569 701ZM618 -2H534Q499 -2 481 16.5Q463 35 463 70V131Q463 157 473.5 173Q484 189 505 194Q487 201 477.5 216.5Q468 232 468 255V300Q468 335 487 353.5Q506 372 541 372H612Q647 372 665.5 353.5Q684 335 684 300V255Q684 232 674.5 216.5Q665 201 647 194Q668 188 679 172Q690 156 690 131V70Q690 35 671.5 16.5Q653 -2 618 -2ZM498 299V253Q498 230 510 217.5Q522 205 545 205H608Q631 205 643 217.5Q655 230 655 253V299Q655 322 643 334Q631 346 608 346H545Q522 346 510 334Q498 322 498 299ZM613 180H539Q516 180 504 168Q492 156 492 132V70Q492 47 504 35Q516 23 539 23H613Q636 23 648.5 35Q661 47 661 70V132Q661 156 649 168Q637 180 613 180ZM50 328V354H142V671H50V697H173V354H264V328Z" glyph-name="uni215B" horiz-adv-x="744" unicode="&#8539;" /><glyph d="M622 -2H538Q503 -2 485 16.5Q467 35 467 70V131Q467 157 477.5 173Q488 189 509 194Q491 201 481.5 216.5Q472 232 472 255V300Q472 335 491 353.5Q510 372 545 372H616Q651 372 669.5 353.5Q688 335 688 300V255Q688 232 678.5 216.5Q669 201 651 194Q672 188 683 172Q694 156 694 131V70Q694 35 675.5 16.5Q657 -2 622 -2ZM502 299V253Q502 230 514 217.5Q526 205 549 205H612Q635 205 647 217.5Q659 230 659 253V299Q659 322 647 334Q635 346 612 346H549Q526 346 514 334Q502 322 502 299ZM617 180H543Q520 180 508 168Q496 156 496 132V70Q496 47 508 35Q520 23 543 23H617Q640 23 652.5 35Q665 47 665 70V132Q665 156 653 168Q641 180 617 180ZM606 701 180 -4H147L573 701ZM210 326H128Q93 326 74 343Q55 360 55 392V428H85V394Q85 373 97 362.5Q109 352 132 352H206Q229 352 241.5 363.5Q254 375 254 397V467Q254 487 243 497Q232 507 211 507H137V532H203Q224 532 235.5 542.5Q247 553 247 573V628Q247 650 234.5 661.5Q222 673 199 673H132Q110 673 98 663Q86 653 86 633V598H56V632Q56 664 75 682Q94 700 128 700H203Q238 700 257 681.5Q276 663 276 629V577Q276 556 268 542.5Q260 529 243 522Q263 517 273.5 502.5Q284 488 284 465V396Q284 362 265 344Q246 326 210 326Z" glyph-name="uni215C" horiz-adv-x="749" unicode="&#8540;" /><glyph d="M209 326H129Q93 326 74.5 343.5Q56 361 56 394V427H85V394Q85 373 97 362.5Q109 352 132 352H204Q228 352 240 363.5Q252 375 252 397V472Q252 494 239.5 505Q227 516 204 516H62V697H272V671H90V542H209Q244 542 262.5 524Q281 506 281 472V398Q281 363 262.5 344.5Q244 326 209 326ZM618 -2H534Q499 -2 481 16.5Q463 35 463 70V131Q463 157 473.5 173Q484 189 505 194Q487 201 477.5 216.5Q468 232 468 255V300Q468 335 487 353.5Q506 372 541 372H612Q647 372 665.5 353.5Q684 335 684 300V255Q684 232 674.5 216.5Q665 201 647 194Q668 188 679 172Q690 156 690 131V70Q690 35 671.5 16.5Q653 -2 618 -2ZM498 299V253Q498 230 510 217.5Q522 205 545 205H608Q631 205 643 217.5Q655 230 655 253V299Q655 322 643 334Q631 346 608 346H545Q522 346 510 334Q498 322 498 299ZM613 180H539Q516 180 504 168Q492 156 492 132V70Q492 47 504 35Q516 23 539 23H613Q636 23 648.5 35Q661 47 661 70V132Q661 156 649 168Q637 180 613 180ZM602 701 176 -4H143L569 701Z" glyph-name="uni215D" horiz-adv-x="744" unicode="&#8541;" /><glyph d="M271 674 115 328H84L239 671H35V697H271ZM568 -2H484Q449 -2 431 16.5Q413 35 413 70V131Q413 157 423.5 173Q434 189 455 194Q437 201 427.5 216.5Q418 232 418 255V300Q418 335 437 353.5Q456 372 491 372H562Q597 372 615.5 353.5Q634 335 634 300V255Q634 232 624.5 216.5Q615 201 597 194Q618 188 629 172Q640 156 640 131V70Q640 35 621.5 16.5Q603 -2 568 -2ZM448 299V253Q448 230 460 217.5Q472 205 495 205H558Q581 205 593 217.5Q605 230 605 253V299Q605 322 593 334Q581 346 558 346H495Q472 346 460 334Q448 322 448 299ZM563 180H489Q466 180 454 168Q442 156 442 132V70Q442 47 454 35Q466 23 489 23H563Q586 23 598.5 35Q611 47 611 70V132Q611 156 599 168Q587 180 563 180ZM552 701 126 -4H93L519 701Z" glyph-name="uni215E" horiz-adv-x="694" unicode="&#8542;" /><glyph d="M48 328V354H140V671H48V697H171V354H262V328ZM601 701 175 -4H142L568 701Z" glyph-name="uni215F" horiz-adv-x="613" unicode="&#8543;" /><glyph d="M472 701 46 -4H13L439 701Z" glyph-name="uni2215" horiz-adv-x="484" unicode="&#8725;" /><glyph d="M137.2601 174H77.5197V276.6685H137.2601Z" glyph-name="uni2219" horiz-adv-x="213" unicode="&#8729;" /><glyph d="M346 488H384Q390 488 392.5 485.5Q395 483 395 477V471Q411 483 424.5 487.5Q438 492 453 492Q469 492 482.5 485.5Q496 479 504 466Q520 480 535 486Q550 492 568 492Q594 492 609.5 477Q625 462 625 438V306Q625 300 622.5 297.5Q620 295 613 295H575Q568 295 565 297.5Q562 300 562 306V422Q562 432 559 435Q556 438 548 438Q539 438 529 434Q519 430 510 423V306Q510 300 507.5 297.5Q505 295 499 295H461Q454 295 451.5 297.5Q449 300 449 306V422Q449 432 446 435Q443 438 434 438Q425 438 415 433.5Q405 429 397 423V306Q397 300 395 297.5Q393 295 387 295H346Q340 295 337.5 297.5Q335 300 335 306V477Q335 483 337.5 485.5Q340 488 346 488ZM1013 488H1049Q1056 488 1058.5 485.5Q1061 483 1061 477L1062 470Q1077 482 1091 487Q1105 492 1122 492Q1150 492 1164.5 476.5Q1179 461 1179 432V352Q1179 322 1164.5 306Q1150 290 1122 290Q1106 290 1092 295Q1078 300 1064 311V228Q1064 222 1061.5 219.5Q1059 217 1053 217H1013Q1007 217 1004.5 219.5Q1002 222 1002 228V477Q1002 483 1004.5 485.5Q1007 488 1013 488ZM220 492Q261 492 281.5 477Q302 462 302 431V388Q302 382 299 379.5Q296 377 290 377H197V354Q197 345 202.5 340.5Q208 336 220 336Q232 336 238.5 340.5Q245 345 245 354V355Q245 361 247.5 363.5Q250 366 256 366H288Q294 366 297 363.5Q300 361 300 355V352Q300 321 280 305.5Q260 290 220 290Q179 290 157 306Q135 322 135 352V431Q135 461 156.5 476.5Q178 492 220 492ZM1294 492Q1335 492 1355.5 477Q1376 462 1376 431V388Q1376 382 1373.5 379.5Q1371 377 1365 377H1271V354Q1271 345 1276.5 340.5Q1282 336 1294 336Q1306 336 1312 340.5Q1318 345 1318 354V355Q1318 361 1321 363.5Q1324 366 1330 366H1362Q1368 366 1370.5 363.5Q1373 361 1373 355V352Q1373 321 1353.5 305.5Q1334 290 1294 290Q1253 290 1231.5 306Q1210 322 1210 352V431Q1210 461 1231 476.5Q1252 492 1294 492ZM856 477 878 407Q881 396 883 384.5Q885 373 885 370Q886 371 889 382.5Q892 394 895 405L919 477Q921 484 923.5 486Q926 488 931 488H968Q975 488 977.5 485Q980 482 979 477L895 228Q893 223 889.5 220Q886 217 881 217H853Q846 217 843.5 220Q841 223 842 228L858 287L793 477Q791 482 793.5 485Q796 488 804 488H844Q849 488 851.5 486Q854 484 856 477ZM737 523V487H768Q774 487 776.5 485Q779 483 779 477V450Q779 444 776.5 441.5Q774 439 768 439H737V362Q737 353 743 348.5Q749 344 761 344H771Q777 344 780 341.5Q783 339 783 333V306Q783 300 780 297.5Q777 295 771 295H752Q710 295 692 308.5Q674 322 674 355V439H657Q651 439 648.5 441.5Q646 444 646 450V475Q646 479 648 481.5Q650 484 657 486L673 487H674V523Q674 529 677 532Q680 535 686 535H725Q732 535 734.5 532.5Q737 530 737 523ZM410 195Q444 195 461 183Q478 171 478 147V98Q478 97 477 95.5Q476 94 474 94H360V46Q360 29 372.5 21Q385 13 410 13Q434 13 446 21Q458 29 458 46V54Q458 56 459 57Q460 58 464 58H473Q476 58 477 57Q478 56 478 54V45Q478 20 461 8.5Q444 -3 409 -3Q374 -3 357 9Q340 21 340 45V147Q340 171 357.5 183Q375 195 410 195ZM160 188V171Q177 183 193.5 189Q210 195 227 195Q253 195 267 182.5Q281 170 281 149V5Q281 3 280 1.5Q279 0 277 0H266Q264 0 263 0.5Q262 1 262 5V145Q262 160 252 168Q242 176 223 176Q205 176 188 169.5Q171 163 161 153V5Q161 3 160 1.5Q159 0 157 0H146Q143 0 142 1Q141 2 141 5V188Q141 190 142 191Q143 192 146 192H155Q158 192 159 191Q160 190 160 188ZM562 232V191H609Q612 191 612.5 190Q613 189 613 187V179Q613 176 612 175Q611 174 609 174H562V50Q562 34 574.5 25.5Q587 17 612 17H618Q620 17 621.5 15.5Q623 14 623 12V5Q623 3 621.5 1.5Q620 0 618 0H609Q574 0 558.5 11Q543 22 543 48V174H518Q516 174 515 175Q514 176 514 179V186Q514 188 515 189Q516 190 518 191H543V232Q543 235 543.5 236Q544 237 547 237H558Q559 236 560 234.5Q561 233 562 232ZM410 178Q385 178 372.5 170Q360 162 360 146V110H458V146Q458 162 446 170Q434 178 410 178ZM1101 344Q1110 344 1114 348Q1118 352 1118 361V423Q1118 431 1114 434.5Q1110 438 1101 438Q1094 438 1086.5 435Q1079 432 1064 423V360Q1082 349 1088.5 346.5Q1095 344 1101 344ZM220 446Q208 446 202.5 441.5Q197 437 197 428V417H245V428Q245 437 238.5 441.5Q232 446 220 446ZM1294 446Q1282 446 1276.5 441.5Q1271 437 1271 428V417H1318V428Q1318 437 1312 441.5Q1306 446 1294 446ZM76 35V5Q76 2 75 1Q74 0 71 0H60Q58 0 57 1Q56 2 56 5V35Q56 38 57 39Q58 40 60 40H71Q74 40 75 39Q76 38 76 35Z" glyph-name="uniF8FF" horiz-adv-x="1432" unicode="&#63743;" /><glyph d="M409 59 348 19Q327 5 310.5 0.5Q294 -4 271 -4H192Q136 -4 106.5 25.5Q77 55 77 111V498H112V111Q112 70 133 49Q154 28 195 28H271Q291 28 304 31.5Q317 35 336 48L408 95V498H443V0H439L337 -64Q318 -75 311 -86.5Q304 -98 304 -114V-129Q304 -147 314.5 -155Q325 -163 348 -163H444V-190H344Q309 -190 291.5 -175.5Q274 -161 274 -133V-117Q274 -96 285 -78.5Q296 -61 319 -46L411 11Z" glyph-name="uogonek" horiz-adv-x="523" unicode="&#371;" /><glyph d="M246 738H279Q316 738 336 718.5Q356 699 356 663V637Q356 600 336.5 581Q317 562 279 562H246Q208 562 188.5 581Q169 600 169 637V663Q169 699 189 718.5Q209 738 246 738ZM279 714H246Q221 714 208 701Q195 688 195 663V637Q195 612 208 599Q221 586 246 586H279Q304 586 317.5 599Q331 612 331 637V663Q331 688 317.5 701Q304 714 279 714ZM409 59 348 19Q327 5 310.5 0.5Q294 -4 271 -4H192Q136 -4 106.5 25.5Q77 55 77 111V498H112V111Q112 70 133 49Q154 28 195 28H271Q291 28 304 31.5Q317 35 336 48L408 95V498H443V0H412Z" glyph-name="uring" horiz-adv-x="523" unicode="&#367;" /><glyph d="M409 59 348 19Q327 5 310.5 0.5Q294 -4 271 -4H192Q136 -4 106.5 25.5Q77 55 77 111V498H112V111Q112 70 133 49Q154 28 195 28H271Q291 28 304 31.5Q317 35 336 48L408 95V498H443V0H412ZM338 623H356Q373 623 382 631Q391 639 391 654V696H417V651Q417 624 402 610Q387 596 358 596H337Q324 596 309.5 601.5Q295 607 284 615L231 654Q223 660 211.5 664.5Q200 669 190 669H173Q155 669 146 661Q137 653 137 637V596H111V640Q111 668 126 682Q141 696 170 696H193Q204 696 218.5 690.5Q233 685 245 677L297 638Q305 632 316.5 627.5Q328 623 338 623Z" glyph-name="utilde" horiz-adv-x="523" unicode="&#361;" /><glyph d="M257 0H221L62 337Q56 351 53 365Q50 379 50 393V498H85V396Q85 382 87.5 369.5Q90 357 95 346L239 36L384 346Q389 360 391.5 372Q394 384 394 396V498H428V393Q428 379 425 365Q422 351 416 337Z" glyph-name="v" horiz-adv-x="478" unicode="v" /><glyph d="M227 0H191L64 337Q53 370 52 377.5Q51 385 51 393V498H86V396Q86 384 88.5 372Q91 360 96 346L210 40L323 346Q328 360 330.5 372Q333 384 333 396V498H367V396Q367 385 369.5 374Q372 363 378 346L491 40L604 346Q610 363 612.5 374Q615 385 615 396V498H649V393Q649 385 648 377.5Q647 370 636 337L509 0H473L350 326Z" glyph-name="w" horiz-adv-x="700" unicode="w" /><glyph d="M386 697H420V687L363 565H338ZM227 0H191L64 337Q53 370 52 377.5Q51 385 51 393V498H86V396Q86 384 88.5 372Q91 360 96 346L210 40L323 346Q328 360 330.5 372Q333 384 333 396V498H367V396Q367 385 369.5 374Q372 363 378 346L491 40L604 346Q610 363 612.5 374Q615 385 615 396V498H649V393Q649 385 648 377.5Q647 370 636 337L509 0H473L350 326Z" glyph-name="wacute" horiz-adv-x="700" unicode="&#7811;" /><glyph d="M447 565H421L350 672L279 565H253L334 697H366ZM227 0H191L64 337Q53 370 52 377.5Q51 385 51 393V498H86V396Q86 384 88.5 372Q91 360 96 346L210 40L323 346Q328 360 330.5 372Q333 384 333 396V498H367V396Q367 385 369.5 374Q372 363 378 346L491 40L604 346Q610 363 612.5 374Q615 385 615 396V498H649V393Q649 385 648 377.5Q647 370 636 337L509 0H473L350 326Z" glyph-name="wcircumflex" horiz-adv-x="700" unicode="&#373;" /><glyph d="M321 606H287V668H321ZM412 606H378V668H412ZM227 0H191L64 337Q53 370 52 377.5Q51 385 51 393V498H86V396Q86 384 88.5 372Q91 360 96 346L210 40L323 346Q328 360 330.5 372Q333 384 333 396V498H367V396Q367 385 369.5 374Q372 363 378 346L491 40L604 346Q610 363 612.5 374Q615 385 615 396V498H649V393Q649 385 648 377.5Q647 370 636 337L509 0H473L350 326Z" glyph-name="wdieresis" horiz-adv-x="700" unicode="&#7813;" /><glyph d="M227 0H191L64 337Q53 370 52 377.5Q51 385 51 393V498H86V396Q86 384 88.5 372Q91 360 96 346L210 40L323 346Q328 360 330.5 372Q333 384 333 396V498H367V396Q367 385 369.5 374Q372 363 378 346L491 40L604 346Q610 363 612.5 374Q615 385 615 396V498H649V393Q649 385 648 377.5Q647 370 636 337L509 0H473L350 326ZM338 565 282 687V697H316L364 565Z" glyph-name="wgrave" horiz-adv-x="700" unicode="&#7809;" /><glyph d="M86 65V0H52V66Q52 85 60 102.5Q68 120 80 130L220 254L81 378Q69 389 62.5 404.5Q56 420 56 438V498H90V441Q90 426 95 415Q100 404 110 395L245 275L378 395Q388 404 393 415Q398 426 398 441V498H431V439Q431 421 424 405Q417 389 404 377L268 255L410 128Q422 117 428.5 101.5Q435 86 435 68V0H401V65Q401 80 396.5 91Q392 102 381 112L242 235L106 111Q96 101 91 90Q86 79 86 65Z" glyph-name="x" horiz-adv-x="488" unicode="x" /><glyph d="M126 -190H78V-159H122Q146 -159 160.5 -149Q175 -139 184 -117L231 -8L62 337Q56 350 52.5 364Q49 378 49 393V498H84V396Q84 383 86.5 370.5Q89 358 95 346L248 33L383 346Q389 358 391.5 370.5Q394 383 394 396V498H428V393Q428 379 425 365Q422 351 416 337L217 -123Q202 -157 180 -173.5Q158 -190 126 -190Z" glyph-name="y" horiz-adv-x="479" unicode="y" /><glyph d="M126 -190H78V-159H122Q146 -159 160.5 -149Q175 -139 184 -117L231 -8L62 337Q56 350 52.5 364Q49 378 49 393V498H84V396Q84 383 86.5 370.5Q89 358 95 346L248 33L383 346Q389 358 391.5 370.5Q394 383 394 396V498H428V393Q428 379 425 365Q422 351 416 337L217 -123Q202 -157 180 -173.5Q158 -190 126 -190ZM272 697H306V687L249 565H224Z" glyph-name="yacute" horiz-adv-x="479" unicode="&#253;" /><glyph d="M126 -190H78V-159H122Q146 -159 160.5 -149Q175 -139 184 -117L231 -8L62 337Q56 350 52.5 364Q49 378 49 393V498H84V396Q84 383 86.5 370.5Q89 358 95 346L248 33L383 346Q389 358 391.5 370.5Q394 383 394 396V498H428V393Q428 379 425 365Q422 351 416 337L217 -123Q202 -157 180 -173.5Q158 -190 126 -190ZM335 565H309L238 672L167 565H141L222 697H254Z" glyph-name="ycircumflex" horiz-adv-x="479" unicode="&#375;" /><glyph d="M126 -190H78V-159H122Q146 -159 160.5 -149Q175 -139 184 -117L231 -8L62 337Q56 350 52.5 364Q49 378 49 393V498H84V396Q84 383 86.5 370.5Q89 358 95 346L248 33L383 346Q389 358 391.5 370.5Q394 383 394 396V498H428V393Q428 379 425 365Q422 351 416 337L217 -123Q202 -157 180 -173.5Q158 -190 126 -190ZM210 606H176V668H210ZM301 606H267V668H301Z" glyph-name="ydieresis" horiz-adv-x="479" unicode="&#255;" /><glyph d="M301 142V0H266V142H70V168H266V251L264 254H70V280H246L87 516Q79 528 74.5 545.5Q70 563 70 583V697H105V585Q105 565 108.5 551Q112 537 121 525L285 283L448 524Q457 537 460.5 551Q464 565 464 584V697H498V583Q498 563 493.5 545.5Q489 528 481 516L321 280H498V254H303L301 250V168H498V142Z" glyph-name="yen" horiz-adv-x="568" unicode="&#165;" /><glyph d="M394 470 81 31H400V0H39V27L352 467H46V498H394Z" glyph-name="z" horiz-adv-x="438" unicode="z" /><glyph d="M255 697H289V687L232 565H207ZM394 470 81 31H400V0H39V27L352 467H46V498H394Z" glyph-name="zacute" horiz-adv-x="438" unicode="&#378;" /><glyph d="M235 565H203L122 697H148L219 590L290 697H316ZM394 470 81 31H400V0H39V27L352 467H46V498H394Z" glyph-name="zcaron" horiz-adv-x="438" unicode="&#382;" /><glyph d="M394 470 81 31H400V0H39V27L352 467H46V498H394ZM238 606H199V673H238Z" glyph-name="zdotaccent" horiz-adv-x="438" unicode="&#380;" /><glyph d="M84 129V568Q84 633 118.5 667Q153 701 217 701H363Q428 701 462 667Q496 633 496 568V129Q496 65 462 30.5Q428 -4 363 -4H217Q153 -4 118.5 30.5Q84 65 84 129ZM218 29H362Q410 29 435 54Q460 79 460 127V570Q460 618 435 643Q410 668 362 668H218Q170 668 145 643Q120 618 120 570V127Q120 79 145 54Q170 29 218 29Z" glyph-name="zero" horiz-adv-x="580" unicode="0" /><glyph d="M60 71V298Q60 334 79 353Q98 372 134 372H215Q251 372 270 353Q289 334 289 298V71Q289 36 270 17Q251 -2 215 -2H134Q99 -2 79.5 17Q60 36 60 71ZM91 298V71Q91 48 103 36Q115 24 138 24H211Q234 24 246.5 36Q259 48 259 71V298Q259 321 246.5 333Q234 345 211 345H138Q115 345 103 333Q91 321 91 298Z" glyph-name="zero.denominator" horiz-adv-x="349" unicode="&#63061;" /><glyph d="M60 -79V148Q60 184 79 203Q98 222 134 222H215Q251 222 270 203Q289 184 289 148V-79Q289 -114 270 -133Q251 -152 215 -152H134Q99 -152 79.5 -133Q60 -114 60 -79ZM91 148V-79Q91 -102 103 -114Q115 -126 138 -126H211Q234 -126 246.5 -114Q259 -102 259 -79V148Q259 171 246.5 183Q234 195 211 195H138Q115 195 103 183Q91 171 91 148Z" glyph-name="zero.inferior" horiz-adv-x="348" unicode="&#8320;" /><glyph d="M60 399V626Q60 662 79 681Q98 700 134 700H215Q251 700 270 681Q289 662 289 626V399Q289 364 270 345Q251 326 215 326H134Q99 326 79.5 345Q60 364 60 399ZM91 626V399Q91 376 103 364Q115 352 138 352H211Q234 352 246.5 364Q259 376 259 399V626Q259 649 246.5 661Q234 673 211 673H138Q115 673 103 661Q91 649 91 626Z" glyph-name="zero.numerator" horiz-adv-x="349" unicode="&#63073;" /><glyph d="M60 550V777Q60 813 79 832Q98 851 134 851H215Q251 851 270 832Q289 813 289 777V550Q289 515 270 496Q251 477 215 477H134Q99 477 79.5 496Q60 515 60 550ZM91 777V550Q91 527 103 515Q115 503 138 503H211Q234 503 246.5 515Q259 527 259 550V777Q259 800 246.5 812Q234 824 211 824H138Q115 824 103 812Q91 800 91 777Z" glyph-name="zero.superior" horiz-adv-x="349" unicode="&#8304;" /><glyph d="M87 129V568Q87 633 121.5 667Q156 701 220 701H366Q430 701 464.5 666.5Q499 632 499 568V129Q499 65 464.5 30.5Q430 -4 366 -4H220Q156 -4 121.5 30.5Q87 65 87 129ZM221 29H365Q413 29 438 54Q463 79 463 127V570Q463 618 438 643Q413 668 365 668H221Q173 668 148 643Q123 618 123 570V127Q123 79 148 54Q173 29 221 29Z" glyph-name="zero.tab" horiz-adv-x="586" unicode="&#65296;" /></font>
</defs>
</svg>
