<?xml version="1.0" standalone="no"?><!DOCTYPE svg PUBLIC "-//W3C//DTD SVG 1.1//EN" "http://www.w3.org/Graphics/SVG/1.1/DTD/svg11.dtd" ><svg version="1.1" xmlns="http://www.w3.org/2000/svg"><defs><font horiz-adv-x="0" id="font"><font-face ascent="750" bbox="-222 -201 1370 937" cap-height="700" descent="-250" font-family="Web use ONLY | Copyright (C) Emtype Foundry" font-stretch="normal" font-weight="300" units-per-em="1000" x-height="505" /><missing-glyph d="M80 183V514Q80 604 128.5 652.5Q177 701 267 701H553Q643 701 691.5 652.5Q740 604 740 514V183Q740 93 691.5 44.5Q643 -4 553 -4H267Q177 -4 128.5 44.5Q80 93 80 183ZM553 668H267Q194 668 155 629Q116 590 116 517V180Q116 107 155 68Q194 29 267 29H553Q626 29 664.5 68Q703 107 703 180V517Q703 590 664.5 629Q626 668 553 668ZM286 492 412 380 535 493Q546 504 550.5 514Q555 524 555 537V576H602V533Q602 514 594 497.5Q586 481 570 466L443 352L579 233Q593 219 599.5 203.5Q606 188 606 169V118H558V164Q558 177 553.5 187.5Q549 198 538 208L408 324L282 207Q271 197 266.5 187Q262 177 262 164V118H214V165Q214 185 222.5 202.5Q231 220 247 235L376 351L245 468Q231 482 224.5 497.5Q218 513 218 531V576H266V536Q266 523 270.5 512.5Q275 502 286 492Z" horiz-adv-x="819" /><glyph d="M69 155 36 0H-13L20 160Q24 177 30.5 193Q37 209 44 220L343 700H396L491 220Q493 211 493 194Q493 177 489 160L455 0H405L438 155Q440 166 441 173Q442 180 442 185H78Q75 179 73 171.5Q71 164 69 155ZM438 230 360 647 104 230Z" glyph-name="A" horiz-adv-x="566" unicode="A" /><glyph d="M60 155 28 0H-23L10 160Q15 184 25 203Q35 222 51 238L496 697H931L920 652H557L501 384H842L832 340H491L429 45H801L792 0H367L406 185H70Q67 179 64.5 171.5Q62 164 60 155ZM415 230 503 642 104 230Z" glyph-name="AE" horiz-adv-x="893" unicode="&#198;" /><glyph d="M69 155 36 0H-13L20 160Q24 177 30.5 193Q37 209 44 220L343 700H396L491 220Q493 211 493 194Q493 177 489 160L455 0H405L438 155Q440 166 441 173Q442 180 442 185H78Q75 179 73 171.5Q71 164 69 155ZM438 230 360 647 104 230ZM431 877H481L478 865L394 745H358Z" glyph-name="Aacute" horiz-adv-x="566" unicode="&#193;" /><glyph d="M69 155 36 0H-13L20 160Q24 177 30.5 193Q37 209 44 220L343 700H396L491 220Q493 211 493 194Q493 177 489 160L455 0H405L438 155Q440 166 441 173Q442 180 442 185H78Q75 179 73 171.5Q71 164 69 155ZM438 230 360 647 104 230ZM470 833 482 890H518L505 829Q496 787 468.5 766.5Q441 746 395 746H354Q300 746 277.5 771Q255 796 265 844L275 890H311L301 841Q294 809 308 793.5Q322 778 358 778H396Q427 778 446 792Q465 806 470 833Z" glyph-name="Abreve" horiz-adv-x="566" unicode="&#258;" /><glyph d="M69 155 36 0H-13L20 160Q24 177 30.5 193Q37 209 44 220L343 700H396L491 220Q493 211 493 194Q493 177 489 160L455 0H405L438 155Q440 166 441 173Q442 180 442 185H78Q75 179 73 171.5Q71 164 69 155ZM438 230 360 647 104 230ZM476 746H443L395 844L306 746H268L379 878H421Z" glyph-name="Acircumflex" horiz-adv-x="566" unicode="&#194;" /><glyph d="M69 155 36 0H-13L20 160Q24 177 30.5 193Q37 209 44 220L343 700H396L491 220Q493 211 493 194Q493 177 489 160L455 0H405L438 155Q440 166 441 173Q442 180 442 185H78Q75 179 73 171.5Q71 164 69 155ZM438 230 360 647 104 230ZM351 776H307L322 846H366ZM450 776H406L422 846H465Z" glyph-name="Adieresis" horiz-adv-x="566" unicode="&#196;" /><glyph d="M69 155 36 0H-13L20 160Q24 177 30.5 193Q37 209 44 220L343 700H396L491 220Q493 211 493 194Q493 177 489 160L455 0H405L438 155Q440 166 441 173Q442 180 442 185H78Q75 179 73 171.5Q71 164 69 155ZM438 230 360 647 104 230ZM354 745 287 865 290 877H338L388 745Z" glyph-name="Agrave" horiz-adv-x="566" unicode="&#192;" /><glyph d="M69 155 36 0H-13L20 160Q24 177 30.5 193Q37 209 44 220L343 700H396L491 220Q493 211 493 194Q493 177 489 160L455 0H405L438 155Q440 166 441 173Q442 180 442 185H78Q75 179 73 171.5Q71 164 69 155ZM438 230 360 647 104 230ZM502 777H250L258 814H510Z" glyph-name="Amacron" horiz-adv-x="566" unicode="&#256;" /><glyph d="M69 155 36 0H-13L20 160Q24 177 30.5 193Q37 209 44 220L343 700H396L491 220Q493 211 493 194Q493 177 489 160L455 0H449L336 -62Q315 -74 307 -84Q299 -94 295 -109L293 -121Q290 -139 297.5 -146.5Q305 -154 326 -154H422L414 -190H316Q281 -190 264.5 -174.5Q248 -159 252 -130L254 -113Q257 -91 270 -74.5Q283 -58 314 -40L407 10L438 155Q440 166 441 173Q442 180 442 185H78Q75 179 73 171.5Q71 164 69 155ZM438 230 360 647 104 230Z" glyph-name="Aogonek" horiz-adv-x="566" unicode="&#260;" /><glyph d="M69 155 36 0H-13L20 160Q24 177 30.5 193Q37 209 44 220L343 700H396L491 220Q493 211 493 194Q493 177 489 160L455 0H405L438 155Q440 166 441 173Q442 180 442 185H78Q75 179 73 171.5Q71 164 69 155ZM438 230 360 647 104 230ZM399 755H365Q325 755 307.5 777Q290 799 298 839L303 863Q311 901 334 919Q357 937 397 937H425Q467 937 486 915Q505 893 495 854L489 829Q481 792 458 773.5Q435 755 399 755ZM370 786H400Q421 786 435.5 798Q450 810 455 831L460 854Q466 881 457 893.5Q448 906 422 906H392Q369 906 355 894.5Q341 883 336 861L331 837Q326 811 335.5 798.5Q345 786 370 786Z" glyph-name="Aring" horiz-adv-x="566" unicode="&#197;" /><glyph d="M69 155 36 0H-13L20 160Q24 177 30.5 193Q37 209 44 220L343 700H396L491 220Q493 211 493 194Q493 177 489 160L455 0H405L438 155Q440 166 441 173Q442 180 442 185H78Q75 179 73 171.5Q71 164 69 155ZM438 230 360 647 104 230ZM436 792H453Q469 792 478.5 799Q488 806 491 820L500 860H535L524 811Q517 782 500 768.5Q483 755 454 755H429Q416 755 403.5 759.5Q391 764 380 773L336 810Q329 816 319 820Q309 824 300 824H284Q267 824 258 817Q249 810 245 795L236 755H202L212 801Q218 830 236 845Q254 860 284 860H309Q322 860 334 855.5Q346 851 357 842L400 806Q409 799 418.5 795.5Q428 792 436 792Z" glyph-name="Atilde" horiz-adv-x="566" unicode="&#195;" /><glyph d="M349 0H28L176 697H456Q531 697 563.5 659.5Q596 622 581 552L561 462Q552 420 530.5 395Q509 370 475 361Q512 349 526 319Q540 289 530 245L503 122Q490 61 451.5 30.5Q413 0 349 0ZM452 651H218L162 385H414Q452 385 477 403.5Q502 422 509 456L532 562Q541 607 521 629Q501 651 452 651ZM407 340H152L89 46H349Q392 46 418 66Q444 86 452 124L481 258Q490 300 471.5 320Q453 340 407 340Z" glyph-name="B" horiz-adv-x="610" unicode="B" /><glyph d="M434 128 454 225H505L484 126Q470 61 431 28.5Q392 -4 327 -4H175Q98 -4 66 37Q34 78 50 155L139 571Q153 636 192 668.5Q231 701 296 701H448Q526 701 558.5 660Q591 619 573 542L563 499H512L524 554Q535 604 514.5 629.5Q494 655 443 655H295Q253 655 226 633Q199 611 190 569L99 143Q88 93 108.5 67.5Q129 42 180 42H328Q371 42 398 64Q425 86 434 128Z" glyph-name="C" horiz-adv-x="574" unicode="C" /><glyph glyph-name="CR" horiz-adv-x="500" unicode="" /><glyph d="M434 128 454 225H505L484 126Q470 61 431 28.5Q392 -4 327 -4H175Q98 -4 66 37Q34 78 50 155L139 571Q153 636 192 668.5Q231 701 296 701H448Q526 701 558.5 660Q591 619 573 542L563 499H512L524 554Q535 604 514.5 629.5Q494 655 443 655H295Q253 655 226 633Q199 611 190 569L99 143Q88 93 108.5 67.5Q129 42 180 42H328Q371 42 398 64Q425 86 434 128ZM434 877H484L481 865L397 745H361Z" glyph-name="Cacute" horiz-adv-x="574" unicode="&#262;" /><glyph d="M401 762H359L304 894H339L385 796L474 894H512ZM434 128 454 225H505L484 126Q470 61 431 28.5Q392 -4 327 -4H175Q98 -4 66 37Q34 78 50 155L139 571Q153 636 192 668.5Q231 701 296 701H448Q526 701 558.5 660Q591 619 573 542L563 499H512L524 554Q535 604 514.5 629.5Q494 655 443 655H295Q253 655 226 633Q199 611 190 569L99 143Q88 93 108.5 67.5Q129 42 180 42H328Q371 42 398 64Q425 86 434 128Z" glyph-name="Ccaron" horiz-adv-x="574" unicode="&#268;" /><glyph d="M434 128 454 225H505L484 126Q470 61 431 28.5Q392 -4 327 -4H256L220 -57H266Q303 -57 319.5 -73Q336 -89 329 -120L325 -135Q319 -161 302 -173.5Q285 -186 254 -186H136L143 -155H254Q269 -155 278 -148.5Q287 -142 290 -129L293 -118Q297 -102 290 -95Q283 -88 262 -88H189Q180 -88 177 -85Q174 -82 175 -75L177 -69Q178 -66 179 -63Q180 -60 184 -54L219 -4H175Q98 -4 66 37Q34 78 50 155L139 571Q153 636 192 668.5Q231 701 296 701H448Q526 701 558.5 660Q591 619 573 542L563 499H512L524 554Q535 604 514.5 629.5Q494 655 443 655H295Q253 655 226 633Q199 611 190 569L99 143Q88 93 108.5 67.5Q129 42 180 42H328Q371 42 398 64Q425 86 434 128Z" glyph-name="Ccedilla" horiz-adv-x="574" unicode="&#199;" /><glyph d="M434 128 454 225H505L484 126Q470 61 431 28.5Q392 -4 327 -4H175Q98 -4 66 37Q34 78 50 155L139 571Q153 636 192 668.5Q231 701 296 701H448Q526 701 558.5 660Q591 619 573 542L563 499H512L524 554Q535 604 514.5 629.5Q494 655 443 655H295Q253 655 226 633Q199 611 190 569L99 143Q88 93 108.5 67.5Q129 42 180 42H328Q371 42 398 64Q425 86 434 128ZM482 746H449L401 844L312 746H274L385 878H427Z" glyph-name="Ccircumflex" horiz-adv-x="574" unicode="&#264;" /><glyph d="M410 800H365L379 869H425ZM434 128 454 225H505L484 126Q470 61 431 28.5Q392 -4 327 -4H175Q98 -4 66 37Q34 78 50 155L139 571Q153 636 192 668.5Q231 701 296 701H448Q526 701 558.5 660Q591 619 573 542L563 499H512L524 554Q535 604 514.5 629.5Q494 655 443 655H295Q253 655 226 633Q199 611 190 569L99 143Q88 93 108.5 67.5Q129 42 180 42H328Q371 42 398 64Q425 86 434 128Z" glyph-name="Cdotaccent" horiz-adv-x="574" unicode="&#266;" /><glyph d="M335 0H28L176 697H454Q536 697 571.5 652Q607 607 590 525L509 145Q494 74 449.5 37Q405 0 335 0ZM217 650 89 47H338Q385 47 416 72.5Q447 98 457 144L541 539Q553 594 530 622Q507 650 451 650Z" glyph-name="D" horiz-adv-x="619" unicode="D" /><glyph d="M405 762H363L308 894H343L389 796L478 894H516ZM335 0H28L176 697H454Q536 697 571.5 652Q607 607 590 525L509 145Q494 74 449.5 37Q405 0 335 0ZM217 650 89 47H338Q385 47 416 72.5Q447 98 457 144L541 539Q553 594 530 622Q507 650 451 650Z" glyph-name="Dcaron" horiz-adv-x="619" unicode="&#270;" /><glyph d="M337 0H30L102 340H28L39 384H111L178 697H456Q538 697 573.5 652Q609 607 592 525L511 145Q496 74 451.5 37Q407 0 337 0ZM91 47H340Q387 47 418 72.5Q449 98 459 144L543 539Q555 594 532.5 622Q510 650 454 650H219L162 384H306L296 340H153Z" glyph-name="Dcroat" horiz-adv-x="621" unicode="&#272;" /><glyph d="M491 0H-33L348 697H406ZM437 45 364 633 43 45Z" glyph-name="Delta" horiz-adv-x="579" unicode="&#8710;" /><glyph d="M452 0H28L176 697H591L581 652H218L161 384H502L493 340H152L89 45H462Z" glyph-name="E" horiz-adv-x="553" unicode="E" /><glyph d="M452 0H28L176 697H591L581 652H218L161 384H502L493 340H152L89 45H462ZM426 877H476L473 865L389 745H353Z" glyph-name="Eacute" horiz-adv-x="553" unicode="&#201;" /><glyph d="M452 0H28L176 697H591L581 652H218L161 384H502L493 340H152L89 45H462ZM480 833 492 890H528L515 829Q506 787 478.5 766.5Q451 746 405 746H364Q310 746 287.5 771Q265 796 275 844L285 890H321L311 841Q304 809 318 793.5Q332 778 368 778H406Q437 778 456 792Q475 806 480 833Z" glyph-name="Ebreve" horiz-adv-x="553" unicode="&#276;" /><glyph d="M402 762H360L305 894H340L386 796L475 894H513ZM452 0H28L176 697H591L581 652H218L161 384H502L493 340H152L89 45H462Z" glyph-name="Ecaron" horiz-adv-x="553" unicode="&#282;" /><glyph d="M484 746H451L403 844L314 746H276L387 878H429ZM452 0H28L176 697H591L581 652H218L161 384H502L493 340H152L89 45H462Z" glyph-name="Ecircumflex" horiz-adv-x="553" unicode="&#202;" /><glyph d="M452 0H28L176 697H591L581 652H218L161 384H502L493 340H152L89 45H462ZM362 776H318L333 846H377ZM461 776H417L433 846H476Z" glyph-name="Edieresis" horiz-adv-x="553" unicode="&#203;" /><glyph d="M413 800H368L382 869H428ZM452 0H28L176 697H591L581 652H218L161 384H502L493 340H152L89 45H462Z" glyph-name="Edotaccent" horiz-adv-x="553" unicode="&#278;" /><glyph d="M374 745 307 865 310 877H358L408 745ZM452 0H28L176 697H591L581 652H218L161 384H502L493 340H152L89 45H462Z" glyph-name="Egrave" horiz-adv-x="553" unicode="&#200;" /><glyph d="M452 0H28L176 697H591L581 652H218L161 384H502L493 340H152L89 45H462ZM517 777H265L273 814H525Z" glyph-name="Emacron" horiz-adv-x="553" unicode="&#274;" /><glyph d="M350 0H28L176 697H591L581 652H218L161 384H502L493 340H152L89 45H462L452 0H410L297 -62Q276 -74 268 -84Q260 -94 256 -109L254 -121Q251 -139 258.5 -146.5Q266 -154 287 -154H383L375 -190H277Q242 -190 225.5 -174.5Q209 -159 213 -130L215 -113Q218 -91 231 -74.5Q244 -58 275 -40Z" glyph-name="Eogonek" horiz-adv-x="553" unicode="&#280;" /><glyph d="M337 0H30L102 340H28L39 384H111L178 697H456Q538 697 573.5 652Q609 607 592 525L511 145Q496 74 451.5 37Q407 0 337 0ZM91 47H340Q387 47 418 72.5Q449 98 459 144L543 539Q555 594 532.5 622Q510 650 454 650H219L162 384H306L296 340H153Z" glyph-name="Eth" horiz-adv-x="621" unicode="&#208;" /><glyph d="M525 225 505 126Q491 61 452 28.5Q413 -4 348 -4H219Q141 -4 109 36.5Q77 77 93 155L119 275H40L47 310H126L144 391H64L72 425H151L182 571Q196 636 235.5 668.5Q275 701 340 701H468Q547 701 579.5 660Q612 619 594 542L584 499H532L544 554Q556 604 535.5 629.5Q515 655 464 655H338Q297 655 269.5 632.5Q242 610 233 569L203 425H400L393 391H195L179 310H376L369 275H171L143 143Q132 93 152.5 67.5Q173 42 223 42H349Q391 42 418 64Q445 86 454 128L474 225Z" glyph-name="Euro" horiz-adv-x="602" unicode="&#8364;" /><glyph d="M508 362 498 317H146L79 0H28L176 697H601L591 652H218L157 362Z" glyph-name="F" horiz-adv-x="541" unicode="F" /><glyph d="M526 333 483 126Q470 61 430.5 28.5Q391 -4 326 -4H175Q97 -4 65 36.5Q33 77 49 155L138 571Q152 636 191 668.5Q230 701 295 701H447Q525 701 557.5 660Q590 619 572 542L562 499H511L524 554Q536 604 515 629.5Q494 655 442 655H294Q252 655 225 633Q198 611 189 569L98 143Q87 93 107.5 67.5Q128 42 179 42H327Q369 42 396.5 64Q424 86 433 128L467 290H329L338 333Z" glyph-name="G" horiz-adv-x="586" unicode="G" /><glyph d="M526 333 483 126Q470 61 430.5 28.5Q391 -4 326 -4H175Q97 -4 65 36.5Q33 77 49 155L138 571Q152 636 191 668.5Q230 701 295 701H447Q525 701 557.5 660Q590 619 572 542L562 499H511L524 554Q536 604 515 629.5Q494 655 442 655H294Q252 655 225 633Q198 611 189 569L98 143Q87 93 107.5 67.5Q128 42 179 42H327Q369 42 396.5 64Q424 86 433 128L467 290H329L338 333ZM475 833 487 890H523L510 829Q501 787 473.5 766.5Q446 746 400 746H359Q305 746 282.5 771Q260 796 270 844L280 890H316L306 841Q299 809 313 793.5Q327 778 363 778H401Q432 778 451 792Q470 806 475 833Z" glyph-name="Gbreve" horiz-adv-x="586" unicode="&#286;" /><glyph d="M481 746H448L400 844L311 746H273L384 878H426ZM526 333 483 126Q470 61 430.5 28.5Q391 -4 326 -4H175Q97 -4 65 36.5Q33 77 49 155L138 571Q152 636 191 668.5Q230 701 295 701H447Q525 701 557.5 660Q590 619 572 542L562 499H511L524 554Q536 604 515 629.5Q494 655 442 655H294Q252 655 225 633Q198 611 189 569L98 143Q87 93 107.5 67.5Q128 42 179 42H327Q369 42 396.5 64Q424 86 433 128L467 290H329L338 333Z" glyph-name="Gcircumflex" horiz-adv-x="586" unicode="&#284;" /><glyph d="M409 800H364L378 869H424ZM526 333 483 126Q470 61 430.5 28.5Q391 -4 326 -4H175Q97 -4 65 36.5Q33 77 49 155L138 571Q152 636 191 668.5Q230 701 295 701H447Q525 701 557.5 660Q590 619 572 542L562 499H511L524 554Q536 604 515 629.5Q494 655 442 655H294Q252 655 225 633Q198 611 189 569L98 143Q87 93 107.5 67.5Q128 42 179 42H327Q369 42 396.5 64Q424 86 433 128L467 290H329L338 333Z" glyph-name="Gdotaccent" horiz-adv-x="586" unicode="&#288;" /><glyph d="M479 0H427L499 339H152L79 0H28L176 697H227L162 385H509L575 697H627Z" glyph-name="H" horiz-adv-x="631" unicode="H" /><glyph d="M153 564H92L99 598H160L181 697H232L211 598H559L580 697H632L611 598H665L658 564H604L484 0H432L504 339H157L84 0H33ZM204 564 167 385H514L552 564Z" glyph-name="Hbar" horiz-adv-x="641" unicode="&#294;" /><glyph d="M479 0H427L499 339H152L79 0H28L176 697H227L162 385H509L575 697H627ZM507 746H474L426 844L337 746H299L410 878H452Z" glyph-name="Hcircumflex" horiz-adv-x="631" unicode="&#292;" /><glyph d="M79 0H28L176 697H227Z" glyph-name="I" horiz-adv-x="232" unicode="I" /><glyph d="M79 0H28L176 697H227ZM582 129 703 697H755L633 126Q619 61 580 28.5Q541 -4 476 -4H359Q282 -4 250 36.5Q218 77 234 155L247 219H298L282 144Q271 92 291 67.5Q311 43 363 43H476Q519 43 546 65Q573 87 582 129Z" glyph-name="IJ" horiz-adv-x="755" unicode="&#306;" /><glyph d="M79 0H28L176 697H227ZM262 877H312L309 865L225 745H189Z" glyph-name="Iacute" horiz-adv-x="232" unicode="&#205;" /><glyph d="M79 0H28L176 697H227ZM309 746H276L228 844L139 746H101L212 878H254Z" glyph-name="Icircumflex" horiz-adv-x="232" unicode="&#206;" /><glyph d="M79 0H28L176 697H227ZM184 776H140L155 846H199ZM283 776H239L255 846H298Z" glyph-name="Idieresis" horiz-adv-x="232" unicode="&#207;" /><glyph d="M79 0H28L176 697H227ZM243 800H198L212 869H258Z" glyph-name="Idotaccent" horiz-adv-x="232" unicode="&#304;" /><glyph d="M79 0H28L176 697H227ZM188 745 121 865 124 877H172L222 745Z" glyph-name="Igrave" horiz-adv-x="232" unicode="&#204;" /><glyph d="M79 0H28L176 697H227ZM345 799H93L102 836H354Z" glyph-name="Imacron" horiz-adv-x="232" unicode="&#298;" /><glyph d="M227 697 79 0H73L-40 -62Q-61 -74 -69 -84Q-77 -94 -81 -109L-83 -121Q-86 -139 -78.5 -146.5Q-71 -154 -50 -154H46L38 -190H-60Q-95 -190 -111.5 -174.5Q-128 -159 -124 -130L-122 -113Q-119 -91 -106 -74.5Q-93 -58 -62 -40L30 9L176 697Z" glyph-name="Iogonek" horiz-adv-x="232" unicode="&#302;" /><glyph d="M79 0H28L176 697H227ZM288 792H305Q321 792 330.5 799Q340 806 343 820L352 860H387L376 811Q369 782 352 768.5Q335 755 306 755H281Q268 755 255.5 759.5Q243 764 232 773L188 810Q181 816 171 820Q161 824 152 824H136Q119 824 110 817Q101 810 97 795L88 755H54L64 801Q70 830 88 845Q106 860 136 860H161Q174 860 186 855.5Q198 851 209 842L252 806Q261 799 270.5 795.5Q280 792 288 792Z" glyph-name="Itilde" horiz-adv-x="232" unicode="&#296;" /><glyph d="M350 129 471 697H523L401 126Q387 61 348 28.5Q309 -4 244 -4H127Q50 -4 18 36.5Q-14 77 2 155L15 219H66L50 144Q39 92 59 67.5Q79 43 131 43H244Q287 43 314 65Q341 87 350 129Z" glyph-name="J" horiz-adv-x="524" unicode="J" /><glyph d="M350 129 471 697H523L401 126Q387 61 348 28.5Q309 -4 244 -4H127Q50 -4 18 36.5Q-14 77 2 155L15 219H66L50 144Q39 92 59 67.5Q79 43 131 43H244Q287 43 314 65Q341 87 350 129ZM601 746H568L520 844L431 746H393L504 878H546Z" glyph-name="Jcircumflex" horiz-adv-x="524" unicode="&#308;" /><glyph d="M450 181 347 340H152L79 0H28L176 697H227L161 384H354L517 513Q528 522 535 534Q542 546 545 562L574 697H625L594 552Q590 533 580.5 517Q571 501 558 491L395 361L499 201Q508 187 510 173.5Q512 160 509 145L479 0H428L456 136Q459 151 458 160.5Q457 170 450 181Z" glyph-name="K" horiz-adv-x="602" unicode="K" /><glyph d="M423 0H28L176 697H227L89 46H433Z" glyph-name="L" horiz-adv-x="491" unicode="L" /><glyph d="M265 877H315L312 865L228 745H192ZM423 0H28L176 697H227L89 46H433Z" glyph-name="Lacute" horiz-adv-x="491" unicode="&#313;" /><glyph d="M322 697H372L369 681L298 558H267ZM423 0H28L176 697H227L89 46H433Z" glyph-name="Lcaron" horiz-adv-x="491" unicode="&#317;" /><glyph d="M423 0H28L176 697H227L89 46H433ZM415 323H360L377 405H433Z" glyph-name="Ldot" horiz-adv-x="492" unicode="&#319;" /><glyph d="M433 0H38L110 341L-1 292L9 337L120 387L186 697H237L176 412L380 503L372 458L167 366L99 46H443Z" glyph-name="Lslash" horiz-adv-x="500" unicode="&#321;" /><glyph d="M371 245H335L204 607L75 0H28L176 697H222L363 303L666 697H716L568 0H520L647 601Z" glyph-name="M" horiz-adv-x="720" unicode="M" /><glyph d="M479 0H432L204 605L76 0H28L176 697H222L450 92L579 697H627Z" glyph-name="N" horiz-adv-x="631" unicode="N" /><glyph glyph-name="NULL" horiz-adv-x="500" /><glyph d="M455 877H505L502 865L418 745H382ZM479 0H432L204 605L76 0H28L176 697H222L450 92L579 697H627Z" glyph-name="Nacute" horiz-adv-x="631" unicode="&#323;" /><glyph d="M430 762H388L333 894H368L414 796L503 894H541ZM479 0H432L204 605L76 0H28L176 697H222L450 92L579 697H627Z" glyph-name="Ncaron" horiz-adv-x="631" unicode="&#327;" /><glyph d="M488 792H505Q521 792 530.5 799Q540 806 543 820L552 860H587L576 811Q569 782 552 768.5Q535 755 506 755H481Q468 755 455.5 759.5Q443 764 432 773L388 810Q381 816 371 820Q361 824 352 824H336Q319 824 310 817Q301 810 297 795L288 755H254L264 801Q270 830 288 845Q306 860 336 860H361Q374 860 386 855.5Q398 851 409 842L452 806Q461 799 470.5 795.5Q480 792 488 792ZM479 0H432L204 605L76 0H28L176 697H222L450 92L579 697H627Z" glyph-name="Ntilde" horiz-adv-x="631" unicode="&#209;" /><glyph d="M49 155 138 571Q152 636 191.5 668.5Q231 701 296 701H458Q536 701 568 660.5Q600 620 584 542L495 126Q481 61 442 28.5Q403 -4 338 -4H175Q97 -4 65 36.5Q33 77 49 155ZM189 569 99 143Q88 92 108 67Q128 42 180 42H337Q380 42 407.5 64Q435 86 444 128L534 554Q545 605 525 630Q505 655 453 655H294Q252 655 225 633Q198 611 189 569Z" glyph-name="O" horiz-adv-x="610" unicode="O" /><glyph d="M841 0H417L420 15Q404 6 383.5 1Q363 -4 338 -4H175Q97 -4 65 36.5Q33 77 49 155L138 571Q152 636 191.5 668.5Q231 701 296 701H458Q492 701 517 692.5Q542 684 559 667L565 697H980L970 652H607L550 384H891L882 340H541L478 45H850ZM180 42H337Q380 42 407.5 64Q435 86 444 128L534 554Q545 605 525 630Q505 655 453 655H294Q252 655 225 633Q198 611 189 569L99 143Q88 92 108 67Q128 42 180 42Z" glyph-name="OE" horiz-adv-x="942" unicode="&#338;" /><glyph d="M433 877H483L480 865L396 745H360ZM49 155 138 571Q152 636 191.5 668.5Q231 701 296 701H458Q536 701 568 660.5Q600 620 584 542L495 126Q481 61 442 28.5Q403 -4 338 -4H175Q97 -4 65 36.5Q33 77 49 155ZM189 569 99 143Q88 92 108 67Q128 42 180 42H337Q380 42 407.5 64Q435 86 444 128L534 554Q545 605 525 630Q505 655 453 655H294Q252 655 225 633Q198 611 189 569Z" glyph-name="Oacute" horiz-adv-x="610" unicode="&#211;" /><glyph d="M49 155 138 571Q152 636 191.5 668.5Q231 701 296 701H458Q536 701 568 660.5Q600 620 584 542L495 126Q481 61 442 28.5Q403 -4 338 -4H175Q97 -4 65 36.5Q33 77 49 155ZM189 569 99 143Q88 92 108 67Q128 42 180 42H337Q380 42 407.5 64Q435 86 444 128L534 554Q545 605 525 630Q505 655 453 655H294Q252 655 225 633Q198 611 189 569ZM495 833 507 890H543L530 829Q521 787 493.5 766.5Q466 746 420 746H379Q325 746 302.5 771Q280 796 290 844L300 890H336L326 841Q319 809 333 793.5Q347 778 383 778H421Q452 778 471 792Q490 806 495 833Z" glyph-name="Obreve" horiz-adv-x="610" unicode="&#334;" /><glyph d="M485 746H452L404 844L315 746H277L388 878H430ZM49 155 138 571Q152 636 191.5 668.5Q231 701 296 701H458Q536 701 568 660.5Q600 620 584 542L495 126Q481 61 442 28.5Q403 -4 338 -4H175Q97 -4 65 36.5Q33 77 49 155ZM189 569 99 143Q88 92 108 67Q128 42 180 42H337Q380 42 407.5 64Q435 86 444 128L534 554Q545 605 525 630Q505 655 453 655H294Q252 655 225 633Q198 611 189 569Z" glyph-name="Ocircumflex" horiz-adv-x="610" unicode="&#212;" /><glyph d="M49 155 138 571Q152 636 191.5 668.5Q231 701 296 701H458Q536 701 568 660.5Q600 620 584 542L495 126Q481 61 442 28.5Q403 -4 338 -4H175Q97 -4 65 36.5Q33 77 49 155ZM189 569 99 143Q88 92 108 67Q128 42 180 42H337Q380 42 407.5 64Q435 86 444 128L534 554Q545 605 525 630Q505 655 453 655H294Q252 655 225 633Q198 611 189 569ZM363 776H319L334 846H378ZM462 776H418L434 846H477Z" glyph-name="Odieresis" horiz-adv-x="610" unicode="&#214;" /><glyph d="M371 745 304 865 307 877H355L405 745ZM49 155 138 571Q152 636 191.5 668.5Q231 701 296 701H458Q536 701 568 660.5Q600 620 584 542L495 126Q481 61 442 28.5Q403 -4 338 -4H175Q97 -4 65 36.5Q33 77 49 155ZM189 569 99 143Q88 92 108 67Q128 42 180 42H337Q380 42 407.5 64Q435 86 444 128L534 554Q545 605 525 630Q505 655 453 655H294Q252 655 225 633Q198 611 189 569Z" glyph-name="Ograve" horiz-adv-x="610" unicode="&#210;" /><glyph d="M409 894H454L451 882L368 762H337ZM518 894H564L561 882L447 762H415ZM49 155 138 571Q152 636 191.5 668.5Q231 701 296 701H458Q536 701 568 660.5Q600 620 584 542L495 126Q481 61 442 28.5Q403 -4 338 -4H175Q97 -4 65 36.5Q33 77 49 155ZM189 569 99 143Q88 92 108 67Q128 42 180 42H337Q380 42 407.5 64Q435 86 444 128L534 554Q545 605 525 630Q505 655 453 655H294Q252 655 225 633Q198 611 189 569Z" glyph-name="Ohungarumlaut" horiz-adv-x="610" unicode="&#336;" /><glyph d="M49 155 138 571Q152 636 191.5 668.5Q231 701 296 701H458Q536 701 568 660.5Q600 620 584 542L495 126Q481 61 442 28.5Q403 -4 338 -4H175Q97 -4 65 36.5Q33 77 49 155ZM189 569 99 143Q88 92 108 67Q128 42 180 42H337Q380 42 407.5 64Q435 86 444 128L534 554Q545 605 525 630Q505 655 453 655H294Q252 655 225 633Q198 611 189 569ZM519 777H267L275 814H527Z" glyph-name="Omacron" horiz-adv-x="610" unicode="&#332;" /><glyph d="M200 43 191 0H-4L6 40H106Q75 61 66 99.5Q57 138 69 196L149 571Q163 636 202 668.5Q241 701 306 701H469Q546 701 578 660Q610 619 594 542L515 170Q504 121 482.5 89Q461 57 426 40H510L501 0H307L316 43Q380 45 414.5 73.5Q449 102 462 165L545 554Q556 605 535.5 630Q515 655 464 655H305Q263 655 236 633Q209 611 200 569L118 183Q103 111 122.5 78Q142 45 200 43Z" glyph-name="Omega" horiz-adv-x="630" unicode="&#8486;" /><glyph d="M48 155 138 571Q151 636 190.5 668.5Q230 701 295 701H456Q483 701 505.5 695.5Q528 690 544 679L576 721H624L571 652Q584 632 586.5 604.5Q589 577 582 542L493 126Q479 61 440 28.5Q401 -4 336 -4H174Q145 -4 123 1.5Q101 7 85 17L53 -24H6L58 44Q46 65 43.5 93Q41 121 48 155ZM444 127 535 555Q538 571 538.5 584Q539 597 537 607L113 55Q123 47 139.5 43Q156 39 178 39H336Q379 39 407 61.5Q435 84 444 127ZM186 570 95 142Q92 127 91.5 114Q91 101 93 89L516 642Q506 650 490 654Q474 658 452 658H293Q250 658 222.5 635.5Q195 613 186 570Z" glyph-name="Oslash" horiz-adv-x="607" unicode="&#216;" /><glyph d="M49 155 138 571Q152 636 191.5 668.5Q231 701 296 701H458Q536 701 568 660.5Q600 620 584 542L495 126Q481 61 442 28.5Q403 -4 338 -4H175Q97 -4 65 36.5Q33 77 49 155ZM189 569 99 143Q88 92 108 67Q128 42 180 42H337Q380 42 407.5 64Q435 86 444 128L534 554Q545 605 525 630Q505 655 453 655H294Q252 655 225 633Q198 611 189 569ZM461 792H478Q494 792 503.5 799Q513 806 516 820L525 860H560L549 811Q542 782 525 768.5Q508 755 479 755H454Q441 755 428.5 759.5Q416 764 405 773L361 810Q354 816 344 820Q334 824 325 824H309Q292 824 283 817Q274 810 270 795L261 755H227L237 801Q243 830 261 845Q279 860 309 860H334Q347 860 359 855.5Q371 851 382 842L425 806Q434 799 443.5 795.5Q453 792 461 792Z" glyph-name="Otilde" horiz-adv-x="610" unicode="&#213;" /><glyph d="M375 262H135L79 0H28L176 697H443Q518 697 549 657Q580 617 564 542L532 392Q519 327 479.5 294.5Q440 262 375 262ZM438 651H218L145 309H376Q418 309 445 331Q472 353 481 395L515 553Q526 602 506.5 626.5Q487 651 438 651Z" glyph-name="P" horiz-adv-x="560" unicode="P" /><glyph d="M294 -4 345 -155H290L240 -4H175Q97 -4 65 36.5Q33 77 49 155L138 571Q152 636 191.5 668.5Q231 701 296 701H458Q536 701 568 660.5Q600 620 584 542L495 126Q481 61 442 28.5Q403 -4 338 -4ZM444 128 534 554Q545 605 525 630Q505 655 453 655H294Q252 655 225 633Q198 611 189 569L99 143Q88 92 108 67Q128 42 180 42H337Q380 42 407.5 64Q435 86 444 128Z" glyph-name="Q" horiz-adv-x="610" unicode="Q" /><glyph d="M453 0H397L352 290H141L79 0H28L176 697H439Q516 697 548 657.5Q580 618 564 542L538 420Q526 361 493 329Q460 297 406 291ZM434 651H218L151 336H382Q424 336 451 358Q478 380 487 422L515 554Q526 603 506 627Q486 651 434 651Z" glyph-name="R" horiz-adv-x="574" unicode="R" /><glyph d="M453 0H397L352 290H141L79 0H28L176 697H439Q516 697 548 657.5Q580 618 564 542L538 420Q526 361 493 329Q460 297 406 291ZM434 651H218L151 336H382Q424 336 451 358Q478 380 487 422L515 554Q526 603 506 627Q486 651 434 651ZM422 877H472L469 865L385 745H349Z" glyph-name="Racute" horiz-adv-x="574" unicode="&#340;" /><glyph d="M382 762H340L285 894H320L366 796L455 894H493ZM453 0H397L352 290H141L79 0H28L176 697H439Q516 697 548 657.5Q580 618 564 542L538 420Q526 361 493 329Q460 297 406 291ZM434 651H218L151 336H382Q424 336 451 358Q478 380 487 422L515 554Q526 603 506 627Q486 651 434 651Z" glyph-name="Rcaron" horiz-adv-x="574" unicode="&#344;" /><glyph d="M110 506 127 587Q139 644 178.5 672.5Q218 701 283 701H432Q509 701 541.5 666Q574 631 559 564L545 500H494L510 574Q519 615 498 635.5Q477 656 426 656H282Q239 656 212 638Q185 620 178 585L160 499Q153 466 164 448Q175 430 205 421L424 360Q468 348 485.5 316Q503 284 493 236L467 110Q456 53 417 24.5Q378 -4 312 -4H152Q75 -4 42 31Q9 66 24 133L37 191H88L73 123Q64 81 84.5 61Q105 41 157 41H311Q355 41 382.5 60Q410 79 417 114L443 240Q449 268 439.5 286Q430 304 406 311L184 375Q137 388 118 421.5Q99 455 110 506Z" glyph-name="S" horiz-adv-x="569" unicode="S" /><glyph d="M110 506 127 587Q139 644 178.5 672.5Q218 701 283 701H432Q509 701 541.5 666Q574 631 559 564L545 500H494L510 574Q519 615 498 635.5Q477 656 426 656H282Q239 656 212 638Q185 620 178 585L160 499Q153 466 164 448Q175 430 205 421L424 360Q468 348 485.5 316Q503 284 493 236L467 110Q456 53 417 24.5Q378 -4 312 -4H152Q75 -4 42 31Q9 66 24 133L37 191H88L73 123Q64 81 84.5 61Q105 41 157 41H311Q355 41 382.5 60Q410 79 417 114L443 240Q449 268 439.5 286Q430 304 406 311L184 375Q137 388 118 421.5Q99 455 110 506ZM418 877H468L465 865L381 745H345Z" glyph-name="Sacute" horiz-adv-x="569" unicode="&#346;" /><glyph d="M392 762H350L295 894H330L376 796L465 894H503ZM110 506 127 587Q139 644 178.5 672.5Q218 701 283 701H432Q509 701 541.5 666Q574 631 559 564L545 500H494L510 574Q519 615 498 635.5Q477 656 426 656H282Q239 656 212 638Q185 620 178 585L160 499Q153 466 164 448Q175 430 205 421L424 360Q468 348 485.5 316Q503 284 493 236L467 110Q456 53 417 24.5Q378 -4 312 -4H152Q75 -4 42 31Q9 66 24 133L37 191H88L73 123Q64 81 84.5 61Q105 41 157 41H311Q355 41 382.5 60Q410 79 417 114L443 240Q449 268 439.5 286Q430 304 406 311L184 375Q137 388 118 421.5Q99 455 110 506Z" glyph-name="Scaron" horiz-adv-x="569" unicode="&#352;" /><glyph d="M110 506 127 587Q139 644 178.5 672.5Q218 701 283 701H432Q509 701 541.5 666Q574 631 559 564L545 500H494L510 574Q519 615 498 635.5Q477 656 426 656H282Q239 656 212 638Q185 620 178 585L160 499Q153 466 164 448Q175 430 205 421L424 360Q468 348 485.5 316Q503 284 493 236L467 110Q456 53 417 24.5Q378 -4 312 -4H233L197 -57H243Q280 -57 296.5 -73Q313 -89 306 -120L302 -135Q296 -161 279 -173.5Q262 -186 231 -186H113L120 -155H231Q246 -155 255 -148.5Q264 -142 267 -129L270 -118Q274 -102 267 -95Q260 -88 239 -88H166Q157 -88 154 -85Q151 -82 152 -75L154 -69Q155 -66 156 -63Q157 -60 161 -54L196 -4H152Q75 -4 42 31Q9 66 24 133L37 191H88L73 123Q64 81 84.5 61Q105 41 157 41H311Q355 41 382.5 60Q410 79 417 114L443 240Q449 268 439.5 286Q430 304 406 311L184 375Q137 388 118 421.5Q99 455 110 506Z" glyph-name="Scedilla" horiz-adv-x="569" unicode="&#350;" /><glyph d="M110 506 127 587Q139 644 178.5 672.5Q218 701 283 701H432Q509 701 541.5 666Q574 631 559 564L545 500H494L510 574Q519 615 498 635.5Q477 656 426 656H282Q239 656 212 638Q185 620 178 585L160 499Q153 466 164 448Q175 430 205 421L424 360Q468 348 485.5 316Q503 284 493 236L467 110Q456 53 417 24.5Q378 -4 312 -4H152Q75 -4 42 31Q9 66 24 133L37 191H88L73 123Q64 81 84.5 61Q105 41 157 41H311Q355 41 382.5 60Q410 79 417 114L443 240Q449 268 439.5 286Q430 304 406 311L184 375Q137 388 118 421.5Q99 455 110 506ZM467 746H434L386 844L297 746H259L370 878H412Z" glyph-name="Scircumflex" horiz-adv-x="569" unicode="&#348;" /><glyph d="M550 697 540 651H344L206 0H155L292 651H96L106 697Z" glyph-name="T" horiz-adv-x="486" unicode="T" /><glyph d="M561 697 551 651H355L299 387H465L456 349H291L217 0H166L239 349H73L81 387H247L303 651H107L117 697Z" glyph-name="Tbar" horiz-adv-x="509" unicode="&#358;" /><glyph d="M355 762H313L258 894H293L339 796L428 894H466ZM550 697 540 651H344L206 0H155L292 651H96L106 697Z" glyph-name="Tcaron" horiz-adv-x="486" unicode="&#356;" /><glyph d="M343 116H104L79 0H28L176 697H227L193 536H408Q483 536 514 496Q545 456 529 381L500 246Q487 182 447.5 149Q408 116 343 116ZM403 490H183L114 163H344Q386 163 413 185Q440 207 449 249L480 393Q491 441 471.5 465.5Q452 490 403 490Z" glyph-name="Thorn" horiz-adv-x="564" unicode="&#222;" /><glyph d="M451 129 572 697H623L502 126Q488 61 449 28.5Q410 -4 345 -4H182Q104 -4 72 36.5Q40 77 56 155L172 697H224L106 144Q95 93 115 68Q135 43 186 43H345Q387 43 414.5 65Q442 87 451 129Z" glyph-name="U" horiz-adv-x="625" unicode="U" /><glyph d="M451 129 572 697H623L502 126Q488 61 449 28.5Q410 -4 345 -4H182Q104 -4 72 36.5Q40 77 56 155L172 697H224L106 144Q95 93 115 68Q135 43 186 43H345Q387 43 414.5 65Q442 87 451 129ZM449 877H499L496 865L412 745H376Z" glyph-name="Uacute" horiz-adv-x="625" unicode="&#218;" /><glyph d="M451 129 572 697H623L502 126Q488 61 449 28.5Q410 -4 345 -4H182Q104 -4 72 36.5Q40 77 56 155L172 697H224L106 144Q95 93 115 68Q135 43 186 43H345Q387 43 414.5 65Q442 87 451 129ZM502 833 514 890H550L537 829Q528 787 500.5 766.5Q473 746 427 746H386Q332 746 309.5 771Q287 796 297 844L307 890H343L333 841Q326 809 340 793.5Q354 778 390 778H428Q459 778 478 792Q497 806 502 833Z" glyph-name="Ubreve" horiz-adv-x="625" unicode="&#364;" /><glyph d="M509 746H476L428 844L339 746H301L412 878H454ZM451 129 572 697H623L502 126Q488 61 449 28.5Q410 -4 345 -4H182Q104 -4 72 36.5Q40 77 56 155L172 697H224L106 144Q95 93 115 68Q135 43 186 43H345Q387 43 414.5 65Q442 87 451 129Z" glyph-name="Ucircumflex" horiz-adv-x="625" unicode="&#219;" /><glyph d="M451 129 572 697H623L502 126Q488 61 449 28.5Q410 -4 345 -4H182Q104 -4 72 36.5Q40 77 56 155L172 697H224L106 144Q95 93 115 68Q135 43 186 43H345Q387 43 414.5 65Q442 87 451 129ZM379 776H335L350 846H394ZM478 776H434L450 846H493Z" glyph-name="Udieresis" horiz-adv-x="625" unicode="&#220;" /><glyph d="M392 745 325 865 328 877H376L426 745ZM451 129 572 697H623L502 126Q488 61 449 28.5Q410 -4 345 -4H182Q104 -4 72 36.5Q40 77 56 155L172 697H224L106 144Q95 93 115 68Q135 43 186 43H345Q387 43 414.5 65Q442 87 451 129Z" glyph-name="Ugrave" horiz-adv-x="625" unicode="&#217;" /><glyph d="M451 129 572 697H623L502 126Q488 61 449 28.5Q410 -4 345 -4H182Q104 -4 72 36.5Q40 77 56 155L172 697H224L106 144Q95 93 115 68Q135 43 186 43H345Q387 43 414.5 65Q442 87 451 129ZM414 894H459L456 882L373 762H342ZM523 894H569L566 882L452 762H420Z" glyph-name="Uhungarumlaut" horiz-adv-x="625" unicode="&#368;" /><glyph d="M451 129 572 697H623L502 126Q488 61 449 28.5Q410 -4 345 -4H182Q104 -4 72 36.5Q40 77 56 155L172 697H224L106 144Q95 93 115 68Q135 43 186 43H345Q387 43 414.5 65Q442 87 451 129ZM535 777H283L291 814H543Z" glyph-name="Umacron" horiz-adv-x="625" unicode="&#362;" /><glyph d="M411 -154 404 -190H302Q268 -190 252 -175Q236 -160 241 -133L244 -113Q246 -101 251 -90.5Q256 -80 266 -70Q268 -68 277 -60.5Q286 -53 303 -40L355 -2Q352 -3 347.5 -3.5Q343 -4 334 -4H182Q104 -4 71.5 37Q39 78 56 155L172 697H224L106 144Q95 93 115 68Q135 43 186 43H345Q387 43 414.5 65Q442 87 451 129L572 697H623L502 126Q495 91 479 65Q463 39 436 19L325 -62Q297 -83 292 -91Q287 -99 285 -109L282 -123Q279 -139 286 -146.5Q293 -154 312 -154Z" glyph-name="Uogonek" horiz-adv-x="625" unicode="&#370;" /><glyph d="M427 755H393Q353 755 335.5 777Q318 799 326 839L331 863Q339 901 362 919Q385 937 425 937H453Q495 937 514 915Q533 893 523 854L517 829Q509 792 486 773.5Q463 755 427 755ZM398 786H428Q449 786 463.5 798Q478 810 483 831L488 854Q494 881 485 893.5Q476 906 450 906H420Q397 906 383 894.5Q369 883 364 861L359 837Q354 811 363.5 798.5Q373 786 398 786ZM451 129 572 697H623L502 126Q488 61 449 28.5Q410 -4 345 -4H182Q104 -4 72 36.5Q40 77 56 155L172 697H224L106 144Q95 93 115 68Q135 43 186 43H345Q387 43 414.5 65Q442 87 451 129Z" glyph-name="Uring" horiz-adv-x="625" unicode="&#366;" /><glyph d="M451 129 572 697H623L502 126Q488 61 449 28.5Q410 -4 345 -4H182Q104 -4 72 36.5Q40 77 56 155L172 697H224L106 144Q95 93 115 68Q135 43 186 43H345Q387 43 414.5 65Q442 87 451 129ZM484 792H501Q517 792 526.5 799Q536 806 539 820L548 860H583L572 811Q565 782 548 768.5Q531 755 502 755H477Q464 755 451.5 759.5Q439 764 428 773L384 810Q377 816 367 820Q357 824 348 824H332Q315 824 306 817Q297 810 293 795L284 755H250L260 801Q266 830 284 845Q302 860 332 860H357Q370 860 382 855.5Q394 851 405 842L448 806Q457 799 466.5 795.5Q476 792 484 792Z" glyph-name="Utilde" horiz-adv-x="625" unicode="&#360;" /><glyph d="M246 0H192L98 477Q96 486 96 503Q96 520 100 537L134 697H186L153 542Q150 526 149 512.5Q148 499 150 489L230 61L496 490Q503 502 508 515Q513 528 516 542L549 697H600L566 537Q563 522 557 506.5Q551 491 543 477Z" glyph-name="V" horiz-adv-x="564" unicode="V" /><glyph d="M448 697H496L463 542Q461 530 460 516Q459 502 460 489L493 72L704 489Q716 516 719 525Q722 534 724 542L757 697H808L774 537Q771 523 765.5 509Q760 495 750 477L506 0H454L415 430L194 0H143L100 477Q98 495 99 509Q100 523 103 537L137 697H186L154 542Q151 528 150 513.5Q149 499 150 489L183 72L395 489Q407 516 410 525Q413 534 415 542Z" glyph-name="W" horiz-adv-x="774" unicode="W" /><glyph d="M530 877H580L577 865L493 745H457ZM448 697H496L463 542Q461 530 460 516Q459 502 460 489L493 72L704 489Q716 516 719 525Q722 534 724 542L757 697H808L774 537Q771 523 765.5 509Q760 495 750 477L506 0H454L415 430L194 0H143L100 477Q98 495 99 509Q100 523 103 537L137 697H186L154 542Q151 528 150 513.5Q149 499 150 489L183 72L395 489Q407 516 410 525Q413 534 415 542Z" glyph-name="Wacute" horiz-adv-x="775" unicode="&#7810;" /><glyph d="M578 746H545L497 844L408 746H370L481 878H523ZM448 697H496L463 542Q461 530 460 516Q459 502 460 489L493 72L704 489Q716 516 719 525Q722 534 724 542L757 697H808L774 537Q771 523 765.5 509Q760 495 750 477L506 0H454L415 430L194 0H143L100 477Q98 495 99 509Q100 523 103 537L137 697H186L154 542Q151 528 150 513.5Q149 499 150 489L183 72L395 489Q407 516 410 525Q413 534 415 542Z" glyph-name="Wcircumflex" horiz-adv-x="775" unicode="&#372;" /><glyph d="M448 697H496L463 542Q461 530 460 516Q459 502 460 489L493 72L704 489Q716 516 719 525Q722 534 724 542L757 697H808L774 537Q771 523 765.5 509Q760 495 750 477L506 0H454L415 430L194 0H143L100 477Q98 495 99 509Q100 523 103 537L137 697H186L154 542Q151 528 150 513.5Q149 499 150 489L183 72L395 489Q407 516 410 525Q413 534 415 542ZM451 776H407L422 846H466ZM550 776H506L522 846H565Z" glyph-name="Wdieresis" horiz-adv-x="775" unicode="&#7812;" /><glyph d="M456 745 389 865 392 877H440L490 745ZM448 697H496L463 542Q461 530 460 516Q459 502 460 489L493 72L704 489Q716 516 719 525Q722 534 724 542L757 697H808L774 537Q771 523 765.5 509Q760 495 750 477L506 0H454L415 430L194 0H143L100 477Q98 495 99 509Q100 523 103 537L137 697H186L154 542Q151 528 150 513.5Q149 499 150 489L183 72L395 489Q407 516 410 525Q413 534 415 542Z" glyph-name="Wgrave" horiz-adv-x="775" unicode="&#7808;" /><glyph d="M66 116 42 0H-9L17 127Q21 147 31.5 164Q42 181 56 193L261 361L132 518Q122 531 118 549.5Q114 568 119 588L143 697H192L169 595Q165 578 167.5 565Q170 552 180 540L303 389L485 539Q498 550 506.5 563.5Q515 577 519 595L542 697H593L569 585Q564 564 553.5 546.5Q543 529 529 519L329 356L461 195Q472 182 475.5 164Q479 146 475 124L449 0H400L425 116Q429 134 426.5 147Q424 160 414 172L287 327L101 173Q86 161 78 147.5Q70 134 66 116Z" glyph-name="X" horiz-adv-x="563" unicode="X" /><glyph d="M287 249 234 0H182L235 248L106 513Q100 526 99.5 542.5Q99 559 103 579L129 697H180L155 584Q151 564 151.5 551Q152 538 157 526L269 295L479 523Q490 536 497 550Q504 564 508 581L533 697H584L559 579Q555 558 547 541.5Q539 525 528 513Z" glyph-name="Y" horiz-adv-x="540" unicode="Y" /><glyph d="M287 249 234 0H182L235 248L106 513Q100 526 99.5 542.5Q99 559 103 579L129 697H180L155 584Q151 564 151.5 551Q152 538 157 526L269 295L479 523Q490 536 497 550Q504 564 508 581L533 697H584L559 579Q555 558 547 541.5Q539 525 528 513ZM413 877H463L460 865L376 745H340Z" glyph-name="Yacute" horiz-adv-x="540" unicode="&#221;" /><glyph d="M287 249 234 0H182L235 248L106 513Q100 526 99.5 542.5Q99 559 103 579L129 697H180L155 584Q151 564 151.5 551Q152 538 157 526L269 295L479 523Q490 536 497 550Q504 564 508 581L533 697H584L559 579Q555 558 547 541.5Q539 525 528 513ZM461 746H428L380 844L291 746H253L364 878H406Z" glyph-name="Ycircumflex" horiz-adv-x="540" unicode="&#374;" /><glyph d="M287 249 234 0H182L235 248L106 513Q100 526 99.5 542.5Q99 559 103 579L129 697H180L155 584Q151 564 151.5 551Q152 538 157 526L269 295L479 523Q490 536 497 550Q504 564 508 581L533 697H584L559 579Q555 558 547 541.5Q539 525 528 513ZM338 776H294L309 846H353ZM437 776H393L409 846H452Z" glyph-name="Ydieresis" horiz-adv-x="540" unicode="&#376;" /><glyph d="M427 45 418 0H-35L-25 44L486 652H117L128 697H556L546 652L36 45Z" glyph-name="Z" horiz-adv-x="508" unicode="Z" /><glyph d="M427 45 418 0H-35L-25 44L486 652H117L128 697H556L546 652L36 45ZM395 877H445L442 865L358 745H322Z" glyph-name="Zacute" horiz-adv-x="508" unicode="&#377;" /><glyph d="M372 762H330L275 894H310L356 796L445 894H483ZM427 45 418 0H-35L-25 44L486 652H117L128 697H556L546 652L36 45Z" glyph-name="Zcaron" horiz-adv-x="508" unicode="&#381;" /><glyph d="M376 800H331L345 869H391ZM427 45 418 0H-35L-25 44L486 652H117L128 697H556L546 652L36 45Z" glyph-name="Zdotaccent" horiz-adv-x="508" unicode="&#379;" /><glyph d="M347 56 281 18Q259 5 241.5 0.5Q224 -4 200 -4H138Q74 -4 45.5 32Q17 68 31 133L84 387Q96 445 132 474.5Q168 504 226 504H307Q330 504 345.5 499.5Q361 495 379 481L429 443L445 500H489L382 0H338ZM150 41H209Q229 41 241.5 44Q254 47 274 59L355 106L418 397L361 440Q345 452 332.5 455.5Q320 459 301 459H228Q191 459 166 439Q141 419 133 384L79 129Q70 84 87 62.5Q104 41 150 41Z" glyph-name="a" horiz-adv-x="518" unicode="a" /><glyph d="M347 56 281 18Q259 5 241.5 0.5Q224 -4 200 -4H138Q74 -4 45.5 32Q17 68 31 133L84 387Q96 445 132 474.5Q168 504 226 504H307Q330 504 345.5 499.5Q361 495 379 481L429 443L445 500H489L382 0H338ZM150 41H209Q229 41 241.5 44Q254 47 274 59L355 106L418 397L361 440Q345 452 332.5 455.5Q320 459 301 459H228Q191 459 166 439Q141 419 133 384L79 129Q70 84 87 62.5Q104 41 150 41ZM343 697H394L391 685L307 565H270Z" glyph-name="aacute" horiz-adv-x="518" unicode="&#225;" /><glyph d="M347 56 281 18Q259 5 241.5 0.5Q224 -4 200 -4H138Q74 -4 45.5 32Q17 68 31 133L84 387Q96 445 132 474.5Q168 504 226 504H307Q330 504 345.5 499.5Q361 495 379 481L429 443L445 500H489L382 0H338ZM150 41H209Q229 41 241.5 44Q254 47 274 59L355 106L418 397L361 440Q345 452 332.5 455.5Q320 459 301 459H228Q191 459 166 439Q141 419 133 384L79 129Q70 84 87 62.5Q104 41 150 41ZM403 653 415 710H451L438 649Q429 607 401.5 586.5Q374 566 328 566H286Q233 566 210.5 591Q188 616 198 664L208 710H244L233 661Q227 629 241 613.5Q255 598 291 598H329Q360 598 379 612Q398 626 403 653Z" glyph-name="abreve" horiz-adv-x="518" unicode="&#259;" /><glyph d="M347 56 281 18Q259 5 241.5 0.5Q224 -4 200 -4H138Q74 -4 45.5 32Q17 68 31 133L84 387Q96 445 132 474.5Q168 504 226 504H307Q330 504 345.5 499.5Q361 495 379 481L429 443L445 500H489L382 0H338ZM150 41H209Q229 41 241.5 44Q254 47 274 59L355 106L418 397L361 440Q345 452 332.5 455.5Q320 459 301 459H228Q191 459 166 439Q141 419 133 384L79 129Q70 84 87 62.5Q104 41 150 41ZM399 565H365L318 663L229 565H191L302 697H344Z" glyph-name="acircumflex" horiz-adv-x="518" unicode="&#226;" /><glyph d="M191 697H242L239 685L155 565H118Z" glyph-name="acute" horiz-adv-x="230" unicode="&#180;" /><glyph d="M203 877H253L250 865L166 745H130Z" glyph-name="acute.case" horiz-adv-x="213" /><glyph d="M347 56 281 18Q259 5 241.5 0.5Q224 -4 200 -4H138Q74 -4 45.5 32Q17 68 31 133L84 387Q96 445 132 474.5Q168 504 226 504H307Q330 504 345.5 499.5Q361 495 379 481L429 443L445 500H489L382 0H338ZM150 41H209Q229 41 241.5 44Q254 47 274 59L355 106L418 397L361 440Q345 452 332.5 455.5Q320 459 301 459H228Q191 459 166 439Q141 419 133 384L79 129Q70 84 87 62.5Q104 41 150 41ZM277 600H233L248 670H292ZM376 600H332L348 670H391Z" glyph-name="adieresis" horiz-adv-x="518" unicode="&#228;" /><glyph d="M129 352H80L88 390Q100 447 136 475.5Q172 504 231 504H327Q368 504 393 489.5Q418 475 427 447Q445 476 473.5 490Q502 504 541 504H652Q721 504 750.5 466.5Q780 429 765 359L742 250H417L391 126Q382 81 399 59.5Q416 38 461 38H570Q608 38 632.5 58Q657 78 665 115L672 149H720L713 114Q701 55 665 25.5Q629 -4 569 -4H458Q409 -4 380.5 13Q352 30 343 65L264 21Q238 6 221 1Q204 -4 181 -4H121Q62 -4 35.5 25Q9 54 20 108L33 172Q43 217 72.5 240.5Q102 264 159 270L375 291L393 373Q402 417 384 439.5Q366 462 321 462H230Q192 462 168 443Q144 424 136 388ZM129 38H194Q211 38 223 41Q235 44 259 57L339 103Q339 111 340 119.5Q341 128 344 141L367 250L156 228Q122 225 104.5 210.5Q87 196 81 167L68 104Q61 69 75.5 53.5Q90 38 129 38ZM445 384 425 292H703L720 374Q728 418 710.5 440Q693 462 649 462H540Q502 462 477.5 442Q453 422 445 384Z" glyph-name="ae" horiz-adv-x="810" unicode="&#230;" /><glyph d="M347 56 281 18Q259 5 241.5 0.5Q224 -4 200 -4H138Q74 -4 45.5 32Q17 68 31 133L84 387Q96 445 132 474.5Q168 504 226 504H307Q330 504 345.5 499.5Q361 495 379 481L429 443L445 500H489L382 0H338ZM150 41H209Q229 41 241.5 44Q254 47 274 59L355 106L418 397L361 440Q345 452 332.5 455.5Q320 459 301 459H228Q191 459 166 439Q141 419 133 384L79 129Q70 84 87 62.5Q104 41 150 41ZM280 565 214 685 217 697H265L315 565Z" glyph-name="agrave" horiz-adv-x="518" unicode="&#224;" /><glyph d="M347 56 281 18Q259 5 241.5 0.5Q224 -4 200 -4H138Q74 -4 45.5 32Q17 68 31 133L84 387Q96 445 132 474.5Q168 504 226 504H307Q330 504 345.5 499.5Q361 495 379 481L429 443L445 500H489L382 0H338ZM150 41H209Q229 41 241.5 44Q254 47 274 59L355 106L418 397L361 440Q345 452 332.5 455.5Q320 459 301 459H228Q191 459 166 439Q141 419 133 384L79 129Q70 84 87 62.5Q104 41 150 41ZM432 602H180L189 639H441Z" glyph-name="amacron" horiz-adv-x="518" unicode="&#257;" /><glyph d="M534 46H569L560 0H528Q490 0 463.5 16Q437 32 407 76Q370 30 337.5 13Q305 -4 262 -4H149Q73 -4 41 34.5Q9 73 25 146L45 239Q55 286 83.5 316Q112 346 170 366L211 380L206 389Q189 415 182 451Q175 487 183 523L194 574Q208 638 247 669.5Q286 701 351 701H419Q495 701 525.5 663.5Q556 626 540 555L529 507H480L492 564Q502 613 484 635.5Q466 658 417 658H348Q306 658 279.5 636Q253 614 243 571L232 522Q226 493 229.5 466.5Q233 440 245 421L415 157L500 261Q520 285 528.5 302Q537 319 542 343L550 382H600L591 337Q586 315 576.5 294.5Q567 274 551 253L440 117L443 114Q468 74 487.5 60Q507 46 534 46ZM150 39H264Q292 39 315.5 52Q339 65 369 102L381 117L234 345L184 328Q142 313 121 291Q100 269 93 235L72 136Q62 87 81.5 63Q101 39 150 39Z" glyph-name="ampersand" horiz-adv-x="650" unicode="&amp;" /><glyph d="M347 56 281 18Q259 5 241.5 0.5Q224 -4 200 -4H138Q74 -4 45.5 32Q17 68 31 133L84 387Q96 445 132 474.5Q168 504 226 504H307Q330 504 345.5 499.5Q361 495 379 481L429 443L445 500H489L382 0H375L262 -62Q241 -74 233 -84Q225 -94 221 -109L219 -121Q216 -139 223.5 -146.5Q231 -154 252 -154H348L340 -190H242Q207 -190 190.5 -174.5Q174 -159 178 -130L180 -113Q183 -91 196 -74.5Q209 -58 240 -40L340 13ZM150 41H209Q229 41 241.5 44Q254 47 274 59L355 106L418 397L361 440Q345 452 332.5 455.5Q320 459 301 459H228Q191 459 166 439Q141 419 133 384L79 129Q70 84 87 62.5Q104 41 150 41Z" glyph-name="aogonek" horiz-adv-x="518" unicode="&#261;" /><glyph d="M367 411H412Q419 411 423 413Q427 415 432 421L472 468L496 442L454 390Q445 379 436.5 375Q428 371 416 371H367Q363 371 352.5 374.5Q342 378 326 385L260 416Q242 425 232 428Q222 431 213 431H179Q167 431 159 427.5Q151 424 139 410L101 362L76 388L116 439Q134 460 145.5 465.5Q157 471 175 471H213Q223 471 233.5 468.5Q244 466 270 454L335 423Q350 415 356 413Q362 411 367 411ZM361 266H405Q412 266 416.5 268Q421 270 425 276L465 322L490 297L448 245Q439 234 430.5 230Q422 226 410 226H361Q356 226 345.5 229.5Q335 233 319 240L254 271Q236 279 224 282.5Q212 286 206 286H172Q160 286 152.5 282.5Q145 279 132 264L94 217L69 243L110 294Q128 315 139.5 320.5Q151 326 168 326H206Q217 326 229 322.5Q241 319 263 309L329 278Q344 270 350 268Q356 266 361 266Z" glyph-name="approxequal" horiz-adv-x="545" unicode="&#8776;" /><glyph d="M347 56 281 18Q259 5 241.5 0.5Q224 -4 200 -4H138Q74 -4 45.5 32Q17 68 31 133L84 387Q96 445 132 474.5Q168 504 226 504H307Q330 504 345.5 499.5Q361 495 379 481L429 443L445 500H489L382 0H338ZM150 41H209Q229 41 241.5 44Q254 47 274 59L355 106L418 397L361 440Q345 452 332.5 455.5Q320 459 301 459H228Q191 459 166 439Q141 419 133 384L79 129Q70 84 87 62.5Q104 41 150 41ZM320 558H286Q246 558 228.5 580Q211 602 219 642L224 666Q232 704 255 722Q278 740 318 740H346Q388 740 407 718Q426 696 416 657L410 632Q402 595 379 576.5Q356 558 320 558ZM291 589H321Q342 589 356.5 601Q371 613 376 634L381 657Q387 684 378 696.5Q369 709 343 709H313Q290 709 276 697.5Q262 686 257 664L252 640Q247 614 256.5 601.5Q266 589 291 589Z" glyph-name="aring" horiz-adv-x="518" unicode="&#229;" /><glyph d="M450 323H404L254 647L103 323H57L235 700H272Z" glyph-name="asciicircum" horiz-adv-x="479" unicode="^" /><glyph d="M364 351H422Q431 351 436.5 353.5Q442 356 448 363L499 417L529 389L475 329Q463 316 452.5 311.5Q442 307 427 307H364Q358 307 344.5 311Q331 315 311 323L227 358Q201 369 188.5 372.5Q176 376 166 376H122Q105 376 94.5 371.5Q84 367 70 351L20 297L-10 325L42 383Q62 407 77.5 413.5Q93 420 117 420H165Q180 420 196 416Q212 412 239 400L323 364Q339 358 349 354.5Q359 351 364 351Z" glyph-name="asciitilde" horiz-adv-x="491" unicode="~" /><glyph d="M295 362V312H258V362Q258 371 258.5 381.5Q259 392 259 411Q260 421 260 424.5Q260 428 260 430L263 481L219 454Q196 439 181.5 430.5Q167 422 162 419L118 394L99 426L143 451Q149 454 164.5 462Q180 470 204 482L249 504L203 527Q201 528 198 529.5Q195 531 187 535Q169 544 160 549Q151 554 143 558L99 582L117 614L161 590Q170 585 180.5 578.5Q191 572 209 560Q213 557 215 556Q217 555 218 554L263 527L260 579Q260 581 260 584.5Q260 588 259 598Q259 617 258.5 627.5Q258 638 258 647V697H295V647Q295 631 294 610.5Q293 590 292 579L290 527L334 554Q336 555 339 557Q342 559 349 564Q366 574 375 580Q384 586 392 590L436 614L454 582L411 558Q404 554 395 549.5Q386 545 369 537Q359 532 355.5 530Q352 528 350 527L304 504L349 482Q351 481 354.5 479Q358 477 368 472Q385 464 394 459.5Q403 455 410 451L454 426L435 394L391 419L333 454L290 481L292 430Q293 419 294 398.5Q295 378 295 362Z" glyph-name="asterisk" horiz-adv-x="466" unicode="*" /><glyph d="M523 -91H191Q93 -91 52.5 -39.5Q12 12 32 109L122 531Q140 616 191 658.5Q242 701 327 701H656Q752 701 793 648.5Q834 596 814 501L752 209Q740 150 711.5 121Q683 92 638 92H605Q573 92 550 108.5Q527 125 521 154L453 113Q431 100 415.5 96Q400 92 378 92H332Q277 92 249.5 124Q222 156 234 208L279 399Q293 458 320 481Q347 504 397 504H453Q474 504 488.5 500Q503 496 522 482L574 444L589 500H628L561 194Q555 165 568 147.5Q581 130 607 130H638Q663 130 679 148Q695 166 703 204L769 513Q784 586 755 623Q726 660 653 660H325Q263 660 223.5 627.5Q184 595 171 535L77 96Q62 24 91 -13.5Q120 -51 192 -51H532ZM342 130H383Q399 130 410.5 133Q422 136 444 149L517 193Q517 196 517.5 199.5Q518 203 519 206L565 406L509 446Q490 459 479.5 462Q469 465 452 465H396Q366 465 348.5 449.5Q331 434 323 400L278 206Q269 168 285 149Q301 130 342 130Z" glyph-name="at" horiz-adv-x="835" unicode="@" /><glyph d="M347 56 281 18Q259 5 241.5 0.5Q224 -4 200 -4H138Q74 -4 45.5 32Q17 68 31 133L84 387Q96 445 132 474.5Q168 504 226 504H307Q330 504 345.5 499.5Q361 495 379 481L429 443L445 500H489L382 0H338ZM150 41H209Q229 41 241.5 44Q254 47 274 59L355 106L418 397L361 440Q345 452 332.5 455.5Q320 459 301 459H228Q191 459 166 439Q141 419 133 384L79 129Q70 84 87 62.5Q104 41 150 41ZM382 628H399Q415 628 424.5 635Q434 642 437 656L446 697H481L470 647Q463 619 446 605.5Q429 592 400 592H375Q361 592 348 597Q335 602 326 610L282 646Q275 652 265 656Q255 660 246 660H230Q213 660 204 653.5Q195 647 191 632L182 592H148L158 638Q164 667 182.5 682Q201 697 230 697H255Q267 697 278.5 693Q290 689 303 679L346 642Q355 635 364.5 631.5Q374 628 382 628Z" glyph-name="atilde" horiz-adv-x="518" unicode="&#227;" /><glyph d="M272 -4H192Q169 -4 153.5 0.5Q138 5 121 18L71 56L55 0H11L159 697H208L155 445L218 481Q242 495 259 499.5Q276 504 299 504H361Q426 504 454 468Q482 432 468 367L414 113Q402 55 366 25.5Q330 -4 272 -4ZM198 41H271Q308 41 333 61.5Q358 82 366 118L419 371Q428 415 410.5 437Q393 459 349 459H290Q271 459 259 456Q247 453 225 440L144 394L82 101L138 59Q153 48 165.5 44.5Q178 41 198 41Z" glyph-name="b" horiz-adv-x="518" unicode="b" /><glyph d="M171 770 354 -73H307L124 770Z" glyph-name="backslash" horiz-adv-x="454" unicode="\" /><glyph d="M40 -190H-6L198 770H244Z" glyph-name="bar" horiz-adv-x="240" unicode="|" /><glyph d="M105 293Q132 283 142 258Q152 233 144 196L93 -43Q83 -92 98 -118Q113 -144 151 -144H194L185 -190H144Q79 -190 52.5 -148.5Q26 -107 43 -31L94 203Q101 234 89 251Q77 268 48 268H29L39 313H58Q87 313 105.5 330Q124 347 131 379L187 640Q201 705 238 737.5Q275 770 336 770H389L379 724H336Q297 724 272 702Q247 680 238 638L182 377Q175 343 155 321.5Q135 300 105 293Z" glyph-name="braceleft" horiz-adv-x="321" unicode="{" /><glyph d="M214 288Q187 298 177 323Q167 348 175 385L226 623Q237 673 222 698.5Q207 724 168 724H125L134 770H175Q240 770 266.5 728.5Q293 687 276 611L225 378Q218 347 230 330Q242 313 271 313H290L280 268H261Q232 268 213.5 251Q195 234 188 201L132 -60Q118 -125 81 -157.5Q44 -190 -17 -190H-70L-60 -144H-17Q22 -144 47 -122Q72 -100 81 -58L137 204Q144 238 164 259.5Q184 281 214 288Z" glyph-name="braceright" horiz-adv-x="321" unicode="}" /><glyph d="M55 -145H123L113 -190H-6L197 770H315L306 725H240Z" glyph-name="bracketleft" horiz-adv-x="263" unicode="[" /><glyph d="M207 725H140L150 770H268L65 -190H-54L-45 -145H22Z" glyph-name="bracketright" horiz-adv-x="264" unicode="]" /><glyph d="M326 653 338 710H374L361 649Q352 607 324.5 586.5Q297 566 251 566H209Q156 566 133.5 591Q111 616 121 664L131 710H167L156 661Q150 629 164 613.5Q178 598 214 598H252Q283 598 302 612Q321 626 326 653Z" glyph-name="breve" horiz-adv-x="342" unicode="&#728;" /><glyph d="M335 833 347 890H383L370 829Q361 787 333.5 766.5Q306 746 260 746H219Q165 746 142.5 771Q120 796 130 844L140 890H176L166 841Q159 809 173 793.5Q187 778 223 778H261Q292 778 311 792Q330 806 335 833Z" glyph-name="breve.case" horiz-adv-x="318" /><glyph d="M172 770V387H130V770ZM130 -190V194H172V-190Z" glyph-name="brokenbar" horiz-adv-x="262" unicode="&#166;" /><glyph d="M150.5976 174H68.4546L93.8442 296.0119H177.4808Z" glyph-name="bullet" horiz-adv-x="271" unicode="&#8226;" /><glyph d="M250 -4H146Q75 -4 46 33Q17 70 32 141L84 384Q96 444 132.5 474Q169 504 229 504H332Q402 504 432 467Q462 430 446 363L441 340H392L399 371Q410 414 392 436.5Q374 459 328 459H227Q189 459 165 439.5Q141 420 133 382L79 129Q70 84 87 62.5Q104 41 150 41H252Q290 41 314 60.5Q338 80 346 118L358 176H406L394 116Q382 57 345.5 26.5Q309 -4 250 -4Z" glyph-name="c" horiz-adv-x="485" unicode="c" /><glyph d="M341 697H392L389 685L305 565H268ZM250 -4H146Q75 -4 46 33Q17 70 32 141L84 384Q96 444 132.5 474Q169 504 229 504H332Q402 504 432 467Q462 430 446 363L441 340H392L399 371Q410 414 392 436.5Q374 459 328 459H227Q189 459 165 439.5Q141 420 133 382L79 129Q70 84 87 62.5Q104 41 150 41H252Q290 41 314 60.5Q338 80 346 118L358 176H406L394 116Q382 57 345.5 26.5Q309 -4 250 -4Z" glyph-name="cacute" horiz-adv-x="485" unicode="&#263;" /><glyph d="M249 565H207L152 697H187L233 599L322 697H360Z" glyph-name="caron" horiz-adv-x="351" unicode="&#711;" /><glyph d="M213 745H171L116 877H151L197 779L286 877H324Z" glyph-name="caron.case" horiz-adv-x="240" /><glyph d="M200 697H250L247 681L176 558H145Z" glyph-name="caron.salt" horiz-adv-x="267" /><glyph d="M311 565H269L214 697H249L295 599L384 697H422ZM250 -4H146Q75 -4 46 33Q17 70 32 141L84 384Q96 444 132.5 474Q169 504 229 504H332Q402 504 432 467Q462 430 446 363L441 340H392L399 371Q410 414 392 436.5Q374 459 328 459H227Q189 459 165 439.5Q141 420 133 382L79 129Q70 84 87 62.5Q104 41 150 41H252Q290 41 314 60.5Q338 80 346 118L358 176H406L394 116Q382 57 345.5 26.5Q309 -4 250 -4Z" glyph-name="ccaron" horiz-adv-x="485" unicode="&#269;" /><glyph d="M158 -4H146Q75 -4 46 33Q17 70 32 141L84 384Q96 444 132.5 474Q169 504 229 504H332Q402 504 432 467Q462 430 446 363L441 340H392L399 371Q410 414 392 436.5Q374 459 328 459H227Q189 459 165 439.5Q141 420 133 382L79 129Q70 84 87 62.5Q104 41 150 41H252Q290 41 314 60.5Q338 80 346 118L358 176H406L394 116Q382 57 345.5 26.5Q309 -4 250 -4H195L159 -57H205Q242 -57 258.5 -73Q275 -89 268 -120L264 -135Q258 -161 241 -173.5Q224 -186 193 -186H75L82 -155H193Q208 -155 217 -148.5Q226 -142 229 -129L232 -118Q236 -102 229 -95Q222 -88 201 -88H128Q119 -88 116 -85Q113 -82 114 -75L116 -69Q117 -66 118 -63Q119 -60 123 -54Z" glyph-name="ccedilla" horiz-adv-x="485" unicode="&#231;" /><glyph d="M395 565H361L314 663L225 565H187L298 697H340ZM250 -4H146Q75 -4 46 33Q17 70 32 141L84 384Q96 444 132.5 474Q169 504 229 504H332Q402 504 432 467Q462 430 446 363L441 340H392L399 371Q410 414 392 436.5Q374 459 328 459H227Q189 459 165 439.5Q141 420 133 382L79 129Q70 84 87 62.5Q104 41 150 41H252Q290 41 314 60.5Q338 80 346 118L358 176H406L394 116Q382 57 345.5 26.5Q309 -4 250 -4Z" glyph-name="ccircumflex" horiz-adv-x="485" unicode="&#265;" /><glyph d="M250 -4H146Q75 -4 46 33Q17 70 32 141L84 384Q96 444 132.5 474Q169 504 229 504H332Q402 504 432 467Q462 430 446 363L441 340H392L399 371Q410 414 392 436.5Q374 459 328 459H227Q189 459 165 439.5Q141 420 133 382L79 129Q70 84 87 62.5Q104 41 150 41H252Q290 41 314 60.5Q338 80 346 118L358 176H406L394 116Q382 57 345.5 26.5Q309 -4 250 -4ZM322 601H270L286 679H338Z" glyph-name="cdotaccent" horiz-adv-x="485" unicode="&#267;" /><glyph d="M171 28 186 17 135 -57H181Q218 -57 234.5 -73Q251 -89 244 -120L240 -135Q234 -161 217 -173.5Q200 -186 169 -186H51L58 -155H169Q184 -155 193 -148.5Q202 -142 205 -129L208 -118Q212 -102 205 -95Q198 -88 177 -88H104Q95 -88 92 -85Q89 -82 90 -75L92 -69Q93 -66 94 -63Q95 -60 99 -54L157 28Z" glyph-name="cedilla" horiz-adv-x="344" unicode="&#184;" /><glyph d="M160 -4 180 94H164Q96 94 67 131.5Q38 169 53 239L105 482Q117 542 153.5 572Q190 602 250 602H289L310 701H356L335 602H351Q420 602 449.5 565Q479 528 462 461L457 439H408L415 469Q426 513 408 535.5Q390 558 344 558H248Q210 558 186 538Q162 518 154 480L100 227Q91 182 108.5 160.5Q126 139 171 139H268Q306 139 330 158.5Q354 178 362 216L374 275H422L410 214Q398 155 361.5 124.5Q325 94 266 94H227L206 -4Z" glyph-name="cent" horiz-adv-x="482" unicode="&#162;" /><glyph d="M132 50H114L103 -2H66L77 50H70Q34 50 18 71.5Q2 93 10 131L35 252Q42 286 63 303Q84 320 118 320H134L145 372H182L171 320H179Q215 320 230.5 299.5Q246 279 239 240L237 228H198L201 243Q205 266 197 276Q189 286 167 286H120Q102 286 90.5 276.5Q79 267 75 249L49 128Q44 105 52.5 94.5Q61 84 83 84H131Q149 84 160 93.5Q171 103 175 121L181 149H220L214 118Q207 84 186.5 67Q166 50 132 50Z" glyph-name="cent.denominator" horiz-adv-x="291" unicode="&#63017;" /><glyph d="M202 378H184L173 326H136L147 378H140Q104 378 88 399.5Q72 421 80 459L105 580Q112 614 133 631Q154 648 188 648H204L215 700H252L241 648H249Q285 648 300.5 627.5Q316 607 309 568L307 556H268L271 571Q275 594 267 604Q259 614 237 614H190Q172 614 160.5 604.5Q149 595 145 577L119 456Q114 433 122.5 422.5Q131 412 153 412H201Q219 412 230 421.5Q241 431 245 449L251 477H290L284 446Q277 412 256.5 395Q236 378 202 378Z" glyph-name="cent.numerator" horiz-adv-x="292" unicode="&#63022;" /><glyph d="M332 565H298L251 663L162 565H124L235 697H277Z" glyph-name="circumflex" horiz-adv-x="351" unicode="&#710;" /><glyph d="M295 746H262L214 844L125 746H87L198 878H240Z" glyph-name="circumflex.case" horiz-adv-x="240" /><glyph d="M64 0H9L26 82H82ZM154 418H98L115 500H171Z" glyph-name="colon" horiz-adv-x="199" unicode=":" /><glyph d="M32 82H89L85 64L0 -88H-34Z" glyph-name="comma" horiz-adv-x="198" unicode="," /><glyph d="M9 55H54L51 41L-4 -51H-31Z" glyph-name="comma.denominator" horiz-adv-x="152" unicode="&#63071;" /><glyph d="M78 383H123L120 369L65 277H38Z" glyph-name="comma.numerator" horiz-adv-x="152" unicode="&#63083;" /><glyph d="M95 82H149L145 65L68 -71H35Z" glyph-name="commaaccent" horiz-adv-x="189" unicode="&#63171;" /><glyph d="M140 82H195L191 65L118 -58H84Z" glyph-name="commaaccent.salt" horiz-adv-x="275" /><glyph d="M105 183V514Q105 604 153.5 652.5Q202 701 292 701H576Q666 701 714.5 652.5Q763 604 763 514V183Q763 93 714.5 44.5Q666 -4 576 -4H292Q202 -4 153.5 44.5Q105 93 105 183ZM575 665H292Q220 665 182.5 627.5Q145 590 145 518V179Q145 107 182.5 69.5Q220 32 292 32H575Q648 32 686 69.5Q724 107 724 179V518Q724 590 686 627.5Q648 665 575 665ZM483 128H385Q329 128 299.5 157.5Q270 187 270 243V454Q270 510 299.5 539.5Q329 569 385 569H483Q538 569 567 540Q596 511 596 457V422H545V458Q545 489 528.5 505.5Q512 522 480 522H387Q355 522 338.5 505.5Q322 489 322 458V239Q322 208 338.5 191.5Q355 175 387 175H480Q512 175 528.5 191.5Q545 208 545 239V290H596V241Q596 186 567 157Q538 128 483 128Z" glyph-name="copyright" horiz-adv-x="844" unicode="&#169;" /><glyph d="M597 121 567 91 458 200Q444 192 426.5 187.5Q409 183 389 183H297Q277 183 259.5 187Q242 191 227 199L119 91L89 121L195 227Q184 242 178.5 262Q173 282 173 308V385Q173 410 178.5 429.5Q184 449 195 464L89 570L119 600L227 492Q241 500 258.5 504Q276 508 297 508H389Q411 508 428 504Q445 500 458 492L567 600L597 570L491 463Q502 447 507.5 427.5Q513 408 513 385V308Q513 284 507.5 264Q502 244 491 228ZM294 222H391Q427 222 447.5 243Q468 264 468 300V392Q468 430 448.5 450Q429 470 391 470H294Q256 470 236.5 450Q217 430 217 392V300Q217 262 236.5 242Q256 222 294 222Z" glyph-name="currency" horiz-adv-x="664" unicode="&#164;" /><glyph d="M347 56 281 18Q259 5 241.5 0.5Q224 -4 200 -4H138Q73 -4 45 32Q17 68 31 133L85 387Q97 445 133 474.5Q169 504 227 504H308Q330 504 346 499.5Q362 495 379 481L427 444L481 697H531L383 0H338ZM150 41H209Q228 41 240.5 44Q253 47 274 59L355 106L418 398L361 440Q346 452 334 455.5Q322 459 302 459H228Q191 459 166 438.5Q141 418 133 382L80 129Q71 84 88 62.5Q105 41 150 41Z" glyph-name="d" horiz-adv-x="519" unicode="d" /><glyph d="M259 392 239 295 168 0H130L184 295L204 392L231 481H68L77 521H238L256 633L270 697H325L311 633L280 521H444L435 481H271Z" glyph-name="dagger" horiz-adv-x="426" unicode="&#8224;" /><glyph d="M231 176 213 64 201 0H146L159 64L189 176H26L35 216H198L217 337L226 378L254 481H92L100 521H262L280 633L294 697H349L335 633L304 521H467L459 481H295L280 378L272 337L238 216H402L393 176Z" glyph-name="daggerdbl" horiz-adv-x="471" unicode="&#8225;" /><glyph d="M613 697H663L660 681L589 558H558ZM347 56 281 18Q259 5 241.5 0.5Q224 -4 200 -4H138Q73 -4 45 32Q17 68 31 133L85 387Q97 445 133 474.5Q169 504 227 504H308Q330 504 346 499.5Q362 495 379 481L427 444L481 697H531L383 0H338ZM150 41H209Q228 41 240.5 44Q253 47 274 59L355 106L418 398L361 440Q346 452 334 455.5Q322 459 302 459H228Q191 459 166 438.5Q141 418 133 382L80 129Q71 84 88 62.5Q105 41 150 41Z" glyph-name="dcaron" horiz-adv-x="519" unicode="&#271;" /><glyph d="M456 581H348L355 615H463L481 697H531L513 615H589L582 581H506L383 0H338L347 56L281 18Q259 5 241.5 0.5Q224 -4 200 -4H138Q73 -4 45 32Q17 68 31 133L85 387Q97 445 133 474.5Q169 504 227 504H308Q330 504 346 499.5Q362 495 379 481L427 444ZM150 41H209Q228 41 240.5 44Q253 47 274 59L355 106L418 398L361 440Q346 452 334 455.5Q322 459 302 459H228Q191 459 166 438.5Q141 418 133 382L80 129Q71 84 88 62.5Q105 41 150 41Z" glyph-name="dcroat" horiz-adv-x="519" unicode="&#273;" /><glyph d="M334 379H221Q170 379 143 406Q116 433 116 484V596Q116 647 143 674Q170 701 221 701H334Q385 701 412.5 673.5Q440 646 440 596V484Q440 433 412.5 406Q385 379 334 379ZM225 417H329Q360 417 377.5 434.5Q395 452 395 483V597Q395 629 378 646Q361 663 329 663H225Q194 663 176.5 646Q159 629 159 597V483Q159 452 176.5 434.5Q194 417 225 417Z" glyph-name="degree" horiz-adv-x="455" unicode="&#176;" /><glyph d="M162 600H118L133 670H177ZM261 600H217L233 670H276Z" glyph-name="dieresis" horiz-adv-x="264" unicode="&#168;" /><glyph d="M166 776H122L137 846H181ZM265 776H221L237 846H280Z" glyph-name="dieresis.case" horiz-adv-x="232" /><glyph d="M74 327V370H441V327ZM281 140H234V213H281ZM281 484H234V557H281Z" glyph-name="divide" horiz-adv-x="491" unicode="&#247;" /><glyph d="M161 -110 184 -4H156Q78 -4 44.5 31.5Q11 67 26 135L39 191H90L76 125Q66 83 87 62Q108 41 161 41H285Q330 41 357 59.5Q384 78 391 114L418 242Q424 274 415.5 291Q407 308 380 316L178 375Q134 388 117.5 419.5Q101 451 111 502L129 587Q140 643 179.5 672Q219 701 285 701H334L356 807H403L381 701H404Q481 701 514.5 665Q548 629 533 562L519 500H468L484 572Q493 615 472 635.5Q451 656 398 656H284Q240 656 213.5 638Q187 620 180 585L162 497Q155 463 164 446Q173 429 201 421L400 363Q445 350 462 319Q479 288 469 240L442 110Q430 53 391 24.5Q352 -4 286 -4H231L208 -110Z" glyph-name="dollar" horiz-adv-x="545" unicode="$" /><glyph d="M134 -2H112L101 -58H63L74 -2H63Q20 -2 2 18Q-16 38 -8 76L-2 104H40L33 75Q28 53 37.5 43.5Q47 34 74 34H134Q155 34 167.5 42.5Q180 51 184 68L194 112Q197 127 193 136Q189 145 174 151L77 194Q52 205 41.5 224.5Q31 244 37 270L45 307Q52 340 74 356Q96 372 132 372H154L166 428H204L192 372H201Q241 372 259.5 351.5Q278 331 270 294L264 263H223L229 294Q233 315 223 325Q213 335 189 335H134Q114 335 102 326Q90 317 86 301L79 273Q75 256 79.5 245.5Q84 235 100 228L196 186Q222 175 231.5 157Q241 139 236 113L226 63Q219 32 195.5 15Q172 -2 134 -2Z" glyph-name="dollar.denominator" horiz-adv-x="313" unicode="&#63018;" /><glyph d="M204 326H182L171 270H133L144 326H133Q90 326 72 346Q54 366 62 404L68 432H110L103 403Q98 381 107.5 371.5Q117 362 144 362H204Q225 362 237.5 370.5Q250 379 254 396L264 440Q267 455 263 464Q259 473 244 479L147 522Q122 533 111.5 552.5Q101 572 107 598L115 635Q122 668 144 684Q166 700 202 700H224L236 756H274L262 700H271Q311 700 329.5 679.5Q348 659 340 622L334 591H293L299 622Q303 643 293 653Q283 663 259 663H204Q184 663 172 654Q160 645 156 629L149 601Q145 584 149.5 573.5Q154 563 170 556L266 514Q292 503 301.5 485Q311 467 306 441L296 391Q289 360 265.5 343Q242 326 204 326Z" glyph-name="dollar.numerator" horiz-adv-x="314" unicode="&#63023;" /><glyph d="M208 601H156L172 679H224Z" glyph-name="dotaccent" horiz-adv-x="244" unicode="&#729;" /><glyph d="M205 800H160L174 869H220Z" glyph-name="dotaccent.case" horiz-adv-x="204" /><glyph d="M60 0H10L117 500H166Z" glyph-name="dotlessi" horiz-adv-x="196" unicode="&#305;" /><glyph d="M409 154 401 114Q389 56 352.5 26Q316 -4 257 -4H146Q75 -4 46 33Q17 70 32 141L83 384Q96 444 132.5 474Q169 504 228 504H339Q409 504 438.5 466.5Q468 429 453 359L429 246H104L78 126Q69 82 86.5 60Q104 38 149 38H257Q295 38 319.5 57.5Q344 77 352 115L360 154ZM133 384 112 288H389L407 374Q416 418 398.5 440Q381 462 337 462H227Q189 462 165 442Q141 422 133 384Z" glyph-name="e" horiz-adv-x="497" unicode="e" /><glyph d="M341 697H392L389 685L305 565H268ZM409 154 401 114Q389 56 352.5 26Q316 -4 257 -4H146Q75 -4 46 33Q17 70 32 141L83 384Q96 444 132.5 474Q169 504 228 504H339Q409 504 438.5 466.5Q468 429 453 359L429 246H104L78 126Q69 82 86.5 60Q104 38 149 38H257Q295 38 319.5 57.5Q344 77 352 115L360 154ZM133 384 112 288H389L407 374Q416 418 398.5 440Q381 462 337 462H227Q189 462 165 442Q141 422 133 384Z" glyph-name="eacute" horiz-adv-x="497" unicode="&#233;" /><glyph d="M409 154 401 114Q389 56 352.5 26Q316 -4 257 -4H146Q75 -4 46 33Q17 70 32 141L83 384Q96 444 132.5 474Q169 504 228 504H339Q409 504 438.5 466.5Q468 429 453 359L429 246H104L78 126Q69 82 86.5 60Q104 38 149 38H257Q295 38 319.5 57.5Q344 77 352 115L360 154ZM133 384 112 288H389L407 374Q416 418 398.5 440Q381 462 337 462H227Q189 462 165 442Q141 422 133 384ZM395 653 407 710H443L430 649Q421 607 393.5 586.5Q366 566 320 566H278Q225 566 202.5 591Q180 616 190 664L200 710H236L225 661Q219 629 233 613.5Q247 598 283 598H321Q352 598 371 612Q390 626 395 653Z" glyph-name="ebreve" horiz-adv-x="497" unicode="&#277;" /><glyph d="M311 565H269L214 697H249L295 599L384 697H422ZM409 154 401 114Q389 56 352.5 26Q316 -4 257 -4H146Q75 -4 46 33Q17 70 32 141L83 384Q96 444 132.5 474Q169 504 228 504H339Q409 504 438.5 466.5Q468 429 453 359L429 246H104L78 126Q69 82 86.5 60Q104 38 149 38H257Q295 38 319.5 57.5Q344 77 352 115L360 154ZM133 384 112 288H389L407 374Q416 418 398.5 440Q381 462 337 462H227Q189 462 165 442Q141 422 133 384Z" glyph-name="ecaron" horiz-adv-x="497" unicode="&#283;" /><glyph d="M391 565H357L310 663L221 565H183L294 697H336ZM409 154 401 114Q389 56 352.5 26Q316 -4 257 -4H146Q75 -4 46 33Q17 70 32 141L83 384Q96 444 132.5 474Q169 504 228 504H339Q409 504 438.5 466.5Q468 429 453 359L429 246H104L78 126Q69 82 86.5 60Q104 38 149 38H257Q295 38 319.5 57.5Q344 77 352 115L360 154ZM133 384 112 288H389L407 374Q416 418 398.5 440Q381 462 337 462H227Q189 462 165 442Q141 422 133 384Z" glyph-name="ecircumflex" horiz-adv-x="497" unicode="&#234;" /><glyph d="M271 600H227L242 670H286ZM370 600H326L342 670H385ZM409 154 401 114Q389 56 352.5 26Q316 -4 257 -4H146Q75 -4 46 33Q17 70 32 141L83 384Q96 444 132.5 474Q169 504 228 504H339Q409 504 438.5 466.5Q468 429 453 359L429 246H104L78 126Q69 82 86.5 60Q104 38 149 38H257Q295 38 319.5 57.5Q344 77 352 115L360 154ZM133 384 112 288H389L407 374Q416 418 398.5 440Q381 462 337 462H227Q189 462 165 442Q141 422 133 384Z" glyph-name="edieresis" horiz-adv-x="497" unicode="&#235;" /><glyph d="M409 154 401 114Q389 56 352.5 26Q316 -4 257 -4H146Q75 -4 46 33Q17 70 32 141L83 384Q96 444 132.5 474Q169 504 228 504H339Q409 504 438.5 466.5Q468 429 453 359L429 246H104L78 126Q69 82 86.5 60Q104 38 149 38H257Q295 38 319.5 57.5Q344 77 352 115L360 154ZM133 384 112 288H389L407 374Q416 418 398.5 440Q381 462 337 462H227Q189 462 165 442Q141 422 133 384ZM329 601H277L293 679H345Z" glyph-name="edotaccent" horiz-adv-x="497" unicode="&#279;" /><glyph d="M409 154 401 114Q389 56 352.5 26Q316 -4 257 -4H146Q75 -4 46 33Q17 70 32 141L83 384Q96 444 132.5 474Q169 504 228 504H339Q409 504 438.5 466.5Q468 429 453 359L429 246H104L78 126Q69 82 86.5 60Q104 38 149 38H257Q295 38 319.5 57.5Q344 77 352 115L360 154ZM133 384 112 288H389L407 374Q416 418 398.5 440Q381 462 337 462H227Q189 462 165 442Q141 422 133 384ZM275 565 209 685 212 697H260L310 565Z" glyph-name="egrave" horiz-adv-x="497" unicode="&#232;" /><glyph d="M299 -4H167Q90 -4 57 36.5Q24 77 40 151L62 251Q74 304 102 333.5Q130 363 175 370Q140 385 127 417.5Q114 450 125 498L141 571Q155 635 194.5 668Q234 701 298 701H409Q486 701 519 660.5Q552 620 535 546L519 478Q508 429 483.5 400.5Q459 372 421 363Q460 350 474.5 316.5Q489 283 478 231L456 126Q442 62 402.5 29Q363 -4 299 -4ZM256 385H360Q403 385 430 407.5Q457 430 467 474L485 555Q496 605 475.5 630.5Q455 656 404 656H297Q255 656 228 634Q201 612 192 570L174 488Q162 437 183 411Q204 385 256 385ZM170 41H300Q342 41 369 63Q396 85 405 127L429 240Q440 290 419.5 315.5Q399 341 348 341H219Q177 341 150 319Q123 297 114 255L90 142Q79 92 99.5 66.5Q120 41 170 41Z" glyph-name="eight" horiz-adv-x="565" unicode="8" /><glyph d="M149 -2H70Q30 -2 13 19.5Q-4 41 4 82L15 134Q21 160 35.5 175.5Q50 191 74 195Q56 203 49.5 220Q43 237 49 263L57 301Q65 336 86.5 354Q108 372 143 372H211Q252 372 269 350Q286 328 277 287L269 251Q263 226 250.5 212Q238 198 217 192Q237 185 245 167Q253 149 248 123L237 67Q230 34 207.5 16Q185 -2 149 -2ZM96 295 89 260Q84 235 93.5 222Q103 209 128 209H178Q198 209 211 220Q224 231 229 251L237 288Q242 313 232.5 324.5Q223 336 198 336H147Q126 336 113 325.5Q100 315 96 295ZM56 131 44 81Q38 57 47.5 45Q57 33 82 33H147Q167 33 179.5 43.5Q192 54 197 74L208 124Q214 150 204.5 162Q195 174 168 174H107Q86 174 73.5 163.5Q61 153 56 131Z" glyph-name="eight.denominator" horiz-adv-x="336" unicode="&#63069;" /><glyph d="M118 -152H39Q-1 -152 -18 -130.5Q-35 -109 -27 -68L-16 -16Q-10 10 4.5 25.5Q19 41 43 45Q25 53 18.5 70Q12 87 18 113L26 151Q34 186 55.5 204Q77 222 112 222H180Q221 222 238 200Q255 178 246 137L238 101Q232 76 219.5 62Q207 48 186 42Q206 35 214 17Q222 -1 217 -27L206 -83Q199 -116 176.5 -134Q154 -152 118 -152ZM65 145 58 110Q53 85 62.5 72Q72 59 97 59H147Q167 59 180 70Q193 81 198 101L206 138Q211 163 201.5 174.5Q192 186 167 186H116Q95 186 82 175.5Q69 165 65 145ZM25 -19 13 -69Q7 -93 16.5 -105Q26 -117 51 -117H116Q136 -117 148.5 -106.5Q161 -96 166 -76L177 -26Q183 0 173.5 12Q164 24 137 24H76Q55 24 42.5 13.5Q30 3 25 -19Z" glyph-name="eight.inferior" horiz-adv-x="338" unicode="&#8328;" /><glyph d="M219 326H140Q100 326 83 347.5Q66 369 74 410L85 462Q91 488 105.5 503.5Q120 519 144 523Q126 531 119.5 548Q113 565 119 591L127 629Q135 664 156.5 682Q178 700 213 700H281Q322 700 339 678Q356 656 347 615L339 579Q333 554 320.5 540Q308 526 287 520Q307 513 315 495Q323 477 318 451L307 395Q300 362 277.5 344Q255 326 219 326ZM166 623 159 588Q154 563 163.5 550Q173 537 198 537H248Q268 537 281 548Q294 559 299 579L307 616Q312 641 302.5 652.5Q293 664 268 664H217Q196 664 183 653.5Q170 643 166 623ZM126 459 114 409Q108 385 117.5 373Q127 361 152 361H217Q237 361 249.5 371.5Q262 382 267 402L278 452Q284 478 274.5 490Q265 502 238 502H177Q156 502 143.5 491.5Q131 481 126 459Z" glyph-name="eight.numerator" horiz-adv-x="336" unicode="&#63081;" /><glyph d="M251 477H172Q132 477 115 498.5Q98 520 106 561L117 613Q123 639 137.5 654.5Q152 670 176 674Q158 682 151.5 699Q145 716 151 742L159 780Q167 815 188.5 833Q210 851 245 851H313Q354 851 371 829Q388 807 379 766L371 730Q365 705 352.5 691Q340 677 319 671Q339 664 347 646Q355 628 350 602L339 546Q332 513 309.5 495Q287 477 251 477ZM198 774 191 739Q186 714 195.5 701Q205 688 230 688H280Q300 688 313 699Q326 710 331 730L339 767Q344 792 334.5 803.5Q325 815 300 815H249Q228 815 215 804.5Q202 794 198 774ZM158 610 146 560Q140 536 149.5 524Q159 512 184 512H249Q269 512 281.5 522.5Q294 533 299 553L310 603Q316 629 306.5 641Q297 653 270 653H209Q188 653 175.5 642.5Q163 632 158 610Z" glyph-name="eight.superior" horiz-adv-x="337" unicode="&#8312;" /><glyph d="M309 -4H177Q101 -4 68 36.5Q35 77 51 151L72 251Q83 304 111 333.5Q139 363 185 370Q149 385 136.5 417.5Q124 450 135 498L152 571Q168 637 206.5 669Q245 701 309 701H419Q496 701 529 660.5Q562 620 545 546L530 478Q520 430 495 401Q470 372 431 363Q471 350 485.5 316Q500 282 489 231L466 126Q452 61 412.5 28.5Q373 -4 309 -4ZM267 385H370Q413 385 439.5 407Q466 429 477 474L496 555Q507 605 486.5 630.5Q466 656 414 656H307Q266 656 238.5 633.5Q211 611 202 570L184 488Q173 437 194 411Q215 385 267 385ZM181 41H310Q352 41 379.5 63Q407 85 416 127L440 240Q451 290 430.5 315.5Q410 341 358 341H229Q188 341 161 318.5Q134 296 125 255L100 142Q89 92 109.5 66.5Q130 41 181 41Z" glyph-name="eight.tab" horiz-adv-x="586" unicode="&#65304;" /><glyph d="M62 0H7L24 82H80ZM430 0H374L392 82H447ZM246 0H191L208 82H264Z" glyph-name="ellipsis" horiz-adv-x="560" unicode="&#8230;" /><glyph d="M409 154 401 114Q389 56 352.5 26Q316 -4 257 -4H146Q75 -4 46 33Q17 70 32 141L83 384Q96 444 132.5 474Q169 504 228 504H339Q409 504 438.5 466.5Q468 429 453 359L429 246H104L78 126Q69 82 86.5 60Q104 38 149 38H257Q295 38 319.5 57.5Q344 77 352 115L360 154ZM133 384 112 288H389L407 374Q416 418 398.5 440Q381 462 337 462H227Q189 462 165 442Q141 422 133 384ZM425 602H173L182 639H434Z" glyph-name="emacron" horiz-adv-x="497" unicode="&#275;" /><glyph d="M60 267 69 309H761L752 267Z" glyph-name="emdash" horiz-adv-x="826" unicode="&#8212;" /><glyph d="M60 267 69 309H406L398 267Z" glyph-name="endash" horiz-adv-x="471" unicode="&#8211;" /><glyph d="M319 -154 311 -190H209Q175 -190 159.5 -175.5Q144 -161 148 -133L151 -113Q153 -96 163 -81.5Q173 -67 211 -40L263 -3Q260 -4 256 -4Q252 -4 245 -4H146Q75 -4 46 33Q17 70 32 141L83 384Q96 444 132.5 474Q169 504 228 504H339Q409 504 438.5 466.5Q468 429 453 359L429 246H104L78 126Q69 82 86.5 60Q104 38 149 38H257Q295 38 319.5 57.5Q344 77 352 115L360 154H409L401 114Q394 84 380.5 60.5Q367 37 347 21L233 -62Q207 -80 201 -88.5Q195 -97 192 -109L189 -123Q186 -140 193 -147Q200 -154 220 -154ZM133 384 112 288H389L407 374Q416 418 398.5 440Q381 462 337 462H227Q189 462 165 442Q141 422 133 384Z" glyph-name="eogonek" horiz-adv-x="498" unicode="&#281;" /><glyph d="M70 246V286H437V246ZM70 417V457H437V417Z" glyph-name="equal" horiz-adv-x="491" unicode="=" /><glyph d="M407 17Q473 17 534 44.5Q595 72 637 120H676Q629 59 557.5 24Q486 -11 407 -11Q266 -11 167 87.5Q68 186 68 327Q68 468 167.5 567.5Q267 667 407 667Q547 667 646 569Q745 471 747 330H173V126Q216 74 277 45.5Q338 17 407 17ZM407 638Q340 638 278.5 608.5Q217 579 173 527V357H643V526Q599 579 536.5 608.5Q474 638 407 638Z" glyph-name="estimated" horiz-adv-x="773" unicode="&#8494;" /><glyph d="M262 -4H145Q76 -4 46.5 33Q17 70 32 139L85 386Q98 445 132.5 474Q167 503 225 503H303Q327 503 343 498.5Q359 494 377 480L426 442L431 464Q439 501 435.5 523Q432 545 412 576L395 605L295 574L302 608L379 632L340 697H397L428 647L525 677L518 643L444 620L459 596Q481 561 485 533Q489 505 480 459L406 116Q394 57 357 26.5Q320 -4 262 -4ZM150 39H263Q299 39 324 60Q349 81 357 117L417 395L358 439Q343 451 331.5 454.5Q320 458 301 458H228Q190 458 165.5 438Q141 418 133 381L79 128Q70 83 87.5 61Q105 39 150 39Z" glyph-name="eth" horiz-adv-x="516" unicode="&#240;" /><glyph d="M88 0H32L49 82H106ZM161 347 111 150H72L105 347L181 697H236Z" glyph-name="exclam" horiz-adv-x="245" unicode="!" /><glyph d="M131 500H187L170 418H113ZM58 153 108 350H147L114 153L38 -197H-17Z" glyph-name="exclamdown" horiz-adv-x="231" unicode="&#161;" /><glyph d="M356 497 346 453H188L52 -190H4L139 453H53L63 497H148L165 577Q178 637 214.5 667Q251 697 311 697H400L389 652H309Q270 652 246 632.5Q222 613 214 575L197 497Z" glyph-name="f" horiz-adv-x="327" unicode="f" /><glyph d="M356 497 346 453H188L52 -190H4L139 453H53L63 497H148L165 577Q178 637 214.5 667Q251 697 311 697H400L389 652H309Q270 652 246 632.5Q222 613 214 575L197 497ZM683 497 673 453H515L379 -190H331L466 453H380L390 497H475L492 577Q505 637 541.5 667Q578 697 638 697H727L716 652H636Q597 652 573 632.5Q549 613 541 575L524 497Z" glyph-name="f_f" horiz-adv-x="654" unicode="&#64256;" /><glyph d="M714 0H665L771 500H820ZM844 602H791L811 697H864ZM356 497 346 453H188L52 -190H4L139 453H53L63 497H148L165 577Q178 637 214.5 667Q251 697 311 697H400L389 652H309Q270 652 246 632.5Q222 613 214 575L197 497ZM683 497 673 453H515L379 -190H331L466 453H380L390 497H475L492 577Q505 637 541.5 667Q578 697 638 697H727L716 652H636Q597 652 573 632.5Q549 613 541 575L524 497Z" glyph-name="f_f_i" horiz-adv-x="849" unicode="&#64259;" /><glyph d="M666 0 814 697H863L715 0ZM356 497 346 453H188L52 -190H4L139 453H53L63 497H148L165 577Q178 637 214.5 667Q251 697 311 697H400L389 652H309Q270 652 246 632.5Q222 613 214 575L197 497ZM683 497 673 453H515L379 -190H331L466 453H380L390 497H475L492 577Q505 637 541.5 667Q578 697 638 697H727L716 652H636Q597 652 573 632.5Q549 613 541 575L524 497Z" glyph-name="f_f_l" horiz-adv-x="852" unicode="&#64260;" /><glyph d="M387 0H338L444 500H493ZM517 602H464L484 697H537ZM356 497 346 453H188L52 -190H4L139 453H53L63 497H148L165 577Q178 637 214.5 667Q251 697 311 697H400L389 652H309Q270 652 246 632.5Q222 613 214 575L197 497Z" glyph-name="fi" horiz-adv-x="522" unicode="&#64257;" /><glyph d="M288 -4H157Q81 -4 47.5 34.5Q14 73 30 142L40 187H90L79 132Q70 86 90.5 63.5Q111 41 162 41H288Q331 41 357.5 62Q384 83 393 124L423 262Q433 310 412.5 334Q392 358 341 358H87L159 697H542L531 650H200L147 403H345Q423 403 455.5 364.5Q488 326 472 252L445 123Q432 60 392.5 28Q353 -4 288 -4Z" glyph-name="five" horiz-adv-x="537" unicode="5" /><glyph d="M142 -2H69Q26 -2 8 19Q-10 40 -2 79L3 101H44L39 77Q34 55 43 44.5Q52 34 77 34H139Q160 34 172.5 43.5Q185 53 189 72L203 137Q208 160 198.5 171.5Q189 183 164 183H28L67 369H282L275 333H99L75 218H175Q216 218 234 195.5Q252 173 243 133L230 69Q222 33 200 15.5Q178 -2 142 -2Z" glyph-name="five.denominator" horiz-adv-x="321" unicode="&#63066;" /><glyph d="M110 -152H37Q-6 -152 -24 -131Q-42 -110 -34 -71L-29 -49H12L7 -73Q2 -95 11 -105.5Q20 -116 45 -116H107Q128 -116 140.5 -106.5Q153 -97 157 -78L171 -13Q176 10 166.5 21.5Q157 33 132 33H-4L35 219H250L243 183H67L43 68H143Q184 68 202 45.5Q220 23 211 -17L198 -81Q190 -117 168 -134.5Q146 -152 110 -152Z" glyph-name="five.inferior" horiz-adv-x="320" unicode="&#8325;" /><glyph d="M212 326H139Q96 326 78 347Q60 368 68 407L73 429H114L109 405Q104 383 113 372.5Q122 362 147 362H209Q230 362 242.5 371.5Q255 381 259 400L273 465Q278 488 268.5 499.5Q259 511 234 511H98L137 697H352L345 661H169L145 546H245Q286 546 304 523.5Q322 501 313 461L300 397Q292 361 270 343.5Q248 326 212 326Z" glyph-name="five.numerator" horiz-adv-x="321" unicode="&#63078;" /><glyph d="M244 477H171Q128 477 110 498Q92 519 100 558L105 580H146L141 556Q136 534 145 523.5Q154 513 179 513H241Q262 513 274.5 522.5Q287 532 291 551L305 616Q310 639 300.5 650.5Q291 662 266 662H130L169 848H384L377 812H201L177 697H277Q318 697 336 674.5Q354 652 345 612L332 548Q324 512 302 494.5Q280 477 244 477Z" glyph-name="five.superior" horiz-adv-x="321" unicode="&#8309;" /><glyph d="M313 -4H182Q106 -4 72.5 34.5Q39 73 55 142L65 187H115L104 132Q95 86 115.5 63.5Q136 41 187 41H313Q356 41 382.5 62Q409 83 418 124L448 262Q458 310 437.5 334Q417 358 366 358H112L184 697H567L556 650H225L172 403H370Q448 403 480.5 364.5Q513 326 497 252L470 123Q457 60 417.5 28Q378 -4 313 -4Z" glyph-name="five.tab" horiz-adv-x="586" unicode="&#65301;" /><glyph d="M339 0 487 697H536L388 0ZM356 497 346 453H188L52 -190H4L139 453H53L63 497H148L165 577Q178 637 214.5 667Q251 697 311 697H400L389 652H309Q270 652 246 632.5Q222 613 214 575L197 497Z" glyph-name="fl" horiz-adv-x="525" unicode="&#64258;" /><glyph d="M198 345 114 -63Q101 -128 64 -159Q27 -190 -39 -190H-95L-87 -145H-31Q7 -145 31 -125.5Q55 -106 63 -67L148 345H38L46 389H156L193 570Q207 635 244 666Q281 697 346 697H409L402 652H338Q300 652 276 632.5Q252 613 244 574L206 389H357L350 345Z" glyph-name="florin" horiz-adv-x="367" unicode="&#402;" /><glyph d="M502 244 493 200H416L373 0H322L364 200H5L14 244L475 700H522L425 244ZM74 244H373L453 619Z" glyph-name="four" horiz-adv-x="555" unicode="4" /><glyph d="M257 132 250 98H209L188 0H148L169 98H-16L-10 132L229 371H267L216 132ZM34 132H176L213 310Z" glyph-name="four.denominator" horiz-adv-x="326" unicode="&#63065;" /><glyph d="M224 -18 217 -52H176L155 -150H115L136 -52H-49L-43 -18L196 221H234L183 -18ZM1 -18H143L180 160Z" glyph-name="four.inferior" horiz-adv-x="323" unicode="&#8324;" /><glyph d="M327 460 320 426H279L258 328H218L239 426H54L60 460L299 699H337L286 460ZM104 460H246L283 638Z" glyph-name="four.numerator" horiz-adv-x="325" unicode="&#63077;" /><glyph d="M359 611 352 577H311L290 479H250L271 577H86L92 611L331 850H369L318 611ZM136 611H278L315 789Z" glyph-name="four.superior" horiz-adv-x="325" unicode="&#8308;" /><glyph d="M517 244 508 200H431L389 0H337L379 200H21L30 244L490 700H538L441 244ZM89 244H389L469 619Z" glyph-name="four.tab" horiz-adv-x="586" unicode="&#65300;" /><glyph d="M400 701 -174 -4H-222L352 701Z" glyph-name="fraction" horiz-adv-x="156" unicode="&#8260;" /><glyph d="M405 302 397 267H173L116 0H65L122 267H44L53 302H129L146 382H69L77 418H153L213 697H638L628 652H255L205 418H429L422 382H197L181 302Z" glyph-name="franc" horiz-adv-x="580" unicode="&#8355;" /><glyph d="M225 -194H109Q40 -194 9.5 -160Q-21 -126 -9 -63L-7 -53H42L39 -67Q30 -110 48 -131Q66 -152 111 -152H223Q260 -152 285 -132.5Q310 -113 317 -79L350 79L287 42Q265 29 247.5 24.5Q230 20 206 20H144Q80 20 51.5 56Q23 92 37 157L85 387Q97 444 133.5 474Q170 504 227 504H308Q330 504 345 499.5Q360 495 379 481L430 442L445 500H489L366 -81Q354 -136 317.5 -165Q281 -194 225 -194ZM156 65H215Q234 65 246.5 68Q259 71 280 83L361 130L418 397L362 440Q346 452 334 455.5Q322 459 302 459H228Q191 459 166.5 438.5Q142 418 134 382L86 153Q77 109 94.5 87Q112 65 156 65Z" glyph-name="g" horiz-adv-x="519" unicode="g" /><glyph d="M225 -194H109Q40 -194 9.5 -160Q-21 -126 -9 -63L-7 -53H42L39 -67Q30 -110 48 -131Q66 -152 111 -152H223Q260 -152 285 -132.5Q310 -113 317 -79L350 79L287 42Q265 29 247.5 24.5Q230 20 206 20H144Q80 20 51.5 56Q23 92 37 157L85 387Q97 444 133.5 474Q170 504 227 504H308Q330 504 345 499.5Q360 495 379 481L430 442L445 500H489L366 -81Q354 -136 317.5 -165Q281 -194 225 -194ZM156 65H215Q234 65 246.5 68Q259 71 280 83L361 130L418 397L362 440Q346 452 334 455.5Q322 459 302 459H228Q191 459 166.5 438.5Q142 418 134 382L86 153Q77 109 94.5 87Q112 65 156 65ZM399 653 411 710H447L434 649Q425 607 397.5 586.5Q370 566 324 566H282Q229 566 206.5 591Q184 616 194 664L204 710H240L229 661Q223 629 237 613.5Q251 598 287 598H325Q356 598 375 612Q394 626 399 653Z" glyph-name="gbreve" horiz-adv-x="519" unicode="&#287;" /><glyph d="M403 565H369L322 663L233 565H195L306 697H348ZM225 -194H109Q40 -194 9.5 -160Q-21 -126 -9 -63L-7 -53H42L39 -67Q30 -110 48 -131Q66 -152 111 -152H223Q260 -152 285 -132.5Q310 -113 317 -79L350 79L287 42Q265 29 247.5 24.5Q230 20 206 20H144Q80 20 51.5 56Q23 92 37 157L85 387Q97 444 133.5 474Q170 504 227 504H308Q330 504 345 499.5Q360 495 379 481L430 442L445 500H489L366 -81Q354 -136 317.5 -165Q281 -194 225 -194ZM156 65H215Q234 65 246.5 68Q259 71 280 83L361 130L418 397L362 440Q346 452 334 455.5Q322 459 302 459H228Q191 459 166.5 438.5Q142 418 134 382L86 153Q77 109 94.5 87Q112 65 156 65Z" glyph-name="gcircumflex" horiz-adv-x="519" unicode="&#285;" /><glyph d="M225 -194H109Q40 -194 9.5 -160Q-21 -126 -9 -63L-7 -53H42L39 -67Q30 -110 48 -131Q66 -152 111 -152H223Q260 -152 285 -132.5Q310 -113 317 -79L350 79L287 42Q265 29 247.5 24.5Q230 20 206 20H144Q80 20 51.5 56Q23 92 37 157L85 387Q97 444 133.5 474Q170 504 227 504H308Q330 504 345 499.5Q360 495 379 481L430 442L445 500H489L366 -81Q354 -136 317.5 -165Q281 -194 225 -194ZM156 65H215Q234 65 246.5 68Q259 71 280 83L361 130L418 397L362 440Q346 452 334 455.5Q322 459 302 459H228Q191 459 166.5 438.5Q142 418 134 382L86 153Q77 109 94.5 87Q112 65 156 65ZM333 601H281L297 679H349Z" glyph-name="gdotaccent" horiz-adv-x="519" unicode="&#289;" /><glyph d="M210 575 49 -190H-1L134 453H55L65 497H143L161 577Q173 637 209.5 667Q246 697 306 697H409Q486 697 518.5 659Q551 621 536 550L516 455Q507 414 485.5 390Q464 366 427 357Q465 346 479.5 315Q494 284 484 238L459 122Q446 62 407 31Q368 0 305 0H188L197 45H306Q346 45 373.5 66Q401 87 409 123L436 247Q446 291 426.5 313.5Q407 336 359 336H269L278 381H369Q408 381 433.5 400Q459 419 466 454L488 559Q498 606 478 629Q458 652 406 652H305Q266 652 241.5 632Q217 612 210 575Z" glyph-name="germandbls" horiz-adv-x="557" unicode="&#223;" /><glyph d="M186 565 120 685 123 697H171L221 565Z" glyph-name="grave" horiz-adv-x="230" unicode="`" /><glyph d="M193 745 126 865 129 877H177L227 745Z" glyph-name="grave.case" horiz-adv-x="213" /><glyph d="M458 369V332L91 157V203L406 351L91 498V544Z" glyph-name="greater" horiz-adv-x="491" unicode="&gt;" /><glyph d="M436 415V379L69 231V276L381 397L69 517V563ZM69 140V180H436V140Z" glyph-name="greaterequal" horiz-adv-x="491" unicode="&#8805;" /><glyph d="M88 239 196 107H142L53 214Q40 229 37.5 239.5Q35 250 38 263L44 290Q47 304 54 314Q61 324 79 338L214 446H274L107 311Q94 300 89.5 295Q85 290 84 284L80 266Q78 258 80 252.5Q82 247 88 239ZM270 239 378 107H325L235 214Q224 228 221 238Q218 248 221 263L226 290Q229 304 236 313.5Q243 323 262 338L397 446H456L289 311Q276 301 271.5 295.5Q267 290 266 284L262 266Q260 258 262 252.5Q264 247 270 239Z" glyph-name="guillemotleft" horiz-adv-x="481" unicode="&#171;" /><glyph d="M384 314 276 446H330L419 339Q431 325 434 314.5Q437 304 434 290L428 263Q425 249 418 239Q411 229 393 215L258 107H198L365 242Q377 251 381.5 256.5Q386 262 388 269L392 287Q394 295 392 300.5Q390 306 384 314ZM202 314 94 446H147L237 339Q248 325 251 315Q254 305 251 290L246 263Q243 249 236 239.5Q229 230 210 215L75 107H16L183 242Q196 252 200.5 257.5Q205 263 206 269L210 287Q212 295 210 300.5Q208 306 202 314Z" glyph-name="guillemotright" horiz-adv-x="480" unicode="&#187;" /><glyph d="M87 240 196 107H142L53 214Q41 228 38 238.5Q35 249 38 263L44 290Q47 305 54 315Q61 325 79 339L214 446H273L107 312Q94 301 89.5 296Q85 291 84 285L80 266Q78 257 79.5 251.5Q81 246 87 240Z" glyph-name="guilsinglleft" horiz-adv-x="298" unicode="&#8249;" /><glyph d="M201 313 93 446H146L236 339Q247 325 250 314.5Q253 304 250 290L245 263Q242 249 235.5 239Q229 229 210 214L74 107H15L182 241Q197 254 200.5 258.5Q204 263 205 268L209 287Q211 295 209 300.5Q207 306 201 313Z" glyph-name="guilsinglright" horiz-adv-x="296" unicode="&#8250;" /><glyph d="M225 440 144 394 60 0H10L158 697H208L154 444L219 481Q244 496 260.5 500Q277 504 299 504H363Q427 504 454.5 469Q482 434 469 370L390 0H340L420 374Q429 417 412 438Q395 459 352 459H290Q271 459 259 456Q247 453 225 440Z" glyph-name="h" horiz-adv-x="523" unicode="h" /><glyph d="M132 574H58L65 608H139L158 697H208L189 608H313L306 574H181L154 444L219 481Q244 496 260.5 500Q277 504 299 504H363Q427 504 454.5 469Q482 434 469 370L390 0H340L420 374Q429 417 412 438Q395 459 352 459H290Q271 459 259 456Q247 453 225 440L144 394L60 0H10Z" glyph-name="hbar" horiz-adv-x="523" unicode="&#295;" /><glyph d="M288 732H254L207 830L118 732H80L191 864H233ZM225 440 144 394 60 0H10L158 697H208L154 444L219 481Q244 496 260.5 500Q277 504 299 504H363Q427 504 454.5 469Q482 434 469 370L390 0H340L420 374Q429 417 412 438Q395 459 352 459H290Q271 459 259 456Q247 453 225 440Z" glyph-name="hcircumflex" horiz-adv-x="523" unicode="&#293;" /><glyph d="M192 697H237L234 685L151 565H120ZM301 697H347L344 685L230 565H198Z" glyph-name="hungarumlaut" horiz-adv-x="333" unicode="&#733;" /><glyph d="M171 877H214L211 865L128 745H99ZM281 877H326L323 865L209 745H178Z" glyph-name="hungarumlaut.case" horiz-adv-x="253" /><glyph d="M60 265 70 309H330L320 265Z" glyph-name="hyphen" horiz-adv-x="394" unicode="-" /><glyph d="M18 135 25 169H169L161 135Z" glyph-name="hyphen.denominator" horiz-adv-x="247" unicode="&#63019;" /><glyph d="M88 463 95 497H239L231 463Z" glyph-name="hyphen.numerator" horiz-adv-x="247" unicode="&#63024;" /><glyph d="M60 0H11L117 500H166ZM190 602H137L157 697H210Z" glyph-name="i" horiz-adv-x="196" unicode="i" /><glyph d="M204 697H255L252 685L168 565H131ZM60 0H10L117 500H166Z" glyph-name="iacute" horiz-adv-x="196" unicode="&#237;" /><glyph d="M253 565H219L172 663L83 565H45L156 697H198ZM60 0H10L117 500H166Z" glyph-name="icircumflex" horiz-adv-x="196" unicode="&#238;" /><glyph d="M132 600H88L103 670H147ZM231 600H187L203 670H246ZM60 0H10L117 500H166Z" glyph-name="idieresis" horiz-adv-x="196" unicode="&#239;" /><glyph d="M60 0H10L117 500H166ZM128 565 62 685 65 697H113L163 565Z" glyph-name="igrave" horiz-adv-x="196" unicode="&#236;" /><glyph d="M60 0H11L117 500H166ZM190 602H137L157 697H210ZM99 -190H38L47 -145H98Q136 -145 160 -125.5Q184 -106 192 -68L313 500H362L240 -72Q228 -131 192.5 -160.5Q157 -190 99 -190ZM386 602H333L353 697H406Z" glyph-name="ij" horiz-adv-x="391" unicode="&#307;" /><glyph d="M60 0H10L117 500H166ZM284 602H32L41 639H293Z" glyph-name="imacron" horiz-adv-x="196" unicode="&#299;" /><glyph d="M606 515H687Q753 515 787.5 483Q822 451 822 389V307Q822 246 787.5 213.5Q753 181 687 181H606Q570 181 540 199.5Q510 218 481 261L448 311L415 261Q386 219 355.5 200Q325 181 289 181H209Q144 181 109 214Q74 247 74 308V390Q74 451 109 483Q144 515 209 515H289Q326 515 357 496Q388 477 415 436L448 384L482 436Q509 478 539 496.5Q569 515 606 515ZM121 391V306Q121 266 143.5 244.5Q166 223 209 223H293Q318 223 338.5 236.5Q359 250 383 286L424 348L383 411Q359 447 338.5 460.5Q318 474 293 474H209Q166 474 143.5 452.5Q121 431 121 391ZM775 306V391Q775 431 752.5 452.5Q730 474 687 474H602Q578 474 557.5 460Q537 446 514 410L474 348L514 287Q537 251 557.5 237Q578 223 602 223H687Q730 223 752.5 244.5Q775 266 775 306Z" glyph-name="infinity" horiz-adv-x="877" unicode="&#8734;" /><glyph d="M13 -70H-59L-49 -25H13Q52 -25 76.5 -5.5Q101 14 109 52L236 647Q248 706 284.5 736.5Q321 767 381 767H453L444 722H380Q342 722 317.5 702.5Q293 683 285 645L159 50Q146 -10 109.5 -40Q73 -70 13 -70Z" glyph-name="integral" horiz-adv-x="371" unicode="&#8747;" /><glyph d="M167 500 61 0H50L-63 -62Q-84 -74 -92 -84Q-100 -94 -104 -109L-106 -121Q-109 -139 -101.5 -146.5Q-94 -154 -73 -154H23L15 -190H-83Q-118 -190 -134.5 -174.5Q-151 -159 -147 -130L-145 -113Q-142 -91 -129 -74.5Q-116 -58 -85 -40L15 13L118 500ZM191 602H138L158 697H211Z" glyph-name="iogonek" horiz-adv-x="197" unicode="&#303;" /><glyph d="M60 0H10L117 500H166ZM235 628H252Q268 628 277.5 635Q287 642 290 656L299 697H334L323 647Q316 619 299 605.5Q282 592 253 592H228Q214 592 201 597Q188 602 179 610L135 646Q128 652 118 656Q108 660 99 660H83Q66 660 57 653.5Q48 647 44 632L35 592H1L11 638Q17 667 35.5 682Q54 697 83 697H108Q120 697 131.5 693Q143 689 156 679L199 642Q208 635 217.5 631.5Q227 628 235 628Z" glyph-name="itilde" horiz-adv-x="196" unicode="&#297;" /><glyph d="M-97 -190H-158L-149 -145H-98Q-60 -145 -36 -125.5Q-12 -106 -4 -68L117 500H166L44 -72Q32 -131 -3.5 -160.5Q-39 -190 -97 -190ZM190 602H137L157 697H210Z" glyph-name="j" horiz-adv-x="196" unicode="j" /><glyph d="M250 565H216L169 663L80 565H42L153 697H195ZM-97 -190H-158L-149 -145H-98Q-60 -145 -36 -125.5Q-12 -106 -4 -68L117 500H166L44 -72Q32 -131 -3.5 -160.5Q-39 -190 -97 -190Z" glyph-name="jcircumflex" horiz-adv-x="196" unicode="&#309;" /><glyph d="M344 124 239 244H112L60 0H10L158 697H208L121 288H241L401 403Q416 414 423 423.5Q430 433 433 446L444 500H492L479 439Q475 419 464 403.5Q453 388 432 374L282 267L388 146Q404 127 407.5 112Q411 97 407 76L391 0H343L357 73Q361 93 358 102.5Q355 112 344 124Z" glyph-name="k" horiz-adv-x="500" unicode="k" /><glyph d="M345 122 238 244H112L60 0H10L117 500H166L122 287H242L403 403Q415 411 422.5 421.5Q430 432 433 446L445 500H492L479 439Q475 422 464.5 406.5Q454 391 432 374L282 267L389 146Q403 130 407 114Q411 98 407 79L391 0H344L358 73Q361 89 358 99.5Q355 110 345 122Z" glyph-name="kgreenlandic" horiz-adv-x="500" unicode="&#312;" /><glyph d="M12 0 160 697H209L61 0Z" glyph-name="l" horiz-adv-x="199" unicode="l" /><glyph d="M247 877H297L294 865L210 745H174ZM12 0 160 697H209L61 0Z" glyph-name="lacute" horiz-adv-x="199" unicode="&#314;" /><glyph d="M292 697H342L339 681L268 558H237ZM12 0 160 697H209L61 0Z" glyph-name="lcaron" horiz-adv-x="199" unicode="&#318;" /><glyph d="M12 0 160 697H209L61 0ZM300 323H245L262 405H318Z" glyph-name="ldot" horiz-adv-x="336" unicode="&#320;" /><glyph d="M417 203V157L50 332V369L417 544V498L102 351Z" glyph-name="less" horiz-adv-x="491" unicode="&lt;" /><glyph d="M423 276V231L56 379V415L423 563V517L111 397ZM56 140V180H423V140Z" glyph-name="lessequal" horiz-adv-x="491" unicode="&#8804;" /><glyph d="M487 45 477 0H-6L4 45H83L129 262H50L57 297H136L153 378H75L82 413H161L194 571Q208 636 247 668.5Q286 701 351 701H456Q534 701 566 661Q598 621 582 545L573 503H522L533 555Q544 605 524 630Q504 655 452 655H350Q308 655 281 633Q254 611 245 569L212 413H388L381 378H204L187 297H363L356 262H180L134 45Z" glyph-name="lira" horiz-adv-x="583" unicode="&#8356;" /><glyph d="M420 166H380V330H53V369H420Z" glyph-name="logicalnot" horiz-adv-x="491" unicode="&#172;" /><glyph d="M210 575 48 -190H-2L133 453H55L65 497H142L160 577Q172 637 209 667Q246 697 306 697H387L377 652H304Q265 652 241 632.5Q217 613 210 575Z" glyph-name="longs" horiz-adv-x="243" unicode="&#383;" /><glyph d="M210 575 48 -190H-2L133 453H55L65 497H142L160 577Q172 637 209 667Q246 697 306 697H387L377 652H304Q265 652 241 632.5Q217 613 210 575ZM432 45H502L493 0H420Q355 0 327 35.5Q299 71 313 136L381 453H294L304 497H390L420 640H470L440 497H597L587 453H430L362 133Q353 88 370 66.5Q387 45 432 45Z" glyph-name="longs_t" horiz-adv-x="568" unicode="&#64261;" /><glyph d="M378 707 520 348 224 -10H181L38 348L335 707ZM469 353 348 655 92 343 211 42Z" glyph-name="lozenge" horiz-adv-x="535" unicode="&#9674;" /><glyph d="M137 428 194 697H243L191 454L296 504L286 457L181 407L95 0H46L127 382L27 335L36 381Z" glyph-name="lslash" horiz-adv-x="263" unicode="&#322;" /><glyph d="M225 440 143 394 60 0H10L117 500H161L152 443L219 481Q243 495 260 499.5Q277 504 299 504H354Q398 504 425.5 486.5Q453 469 461 436L539 481Q563 495 580 499.5Q597 504 619 504H675Q739 504 766.5 469Q794 434 781 370L702 0H652L732 374Q741 417 724.5 438Q708 459 664 459H610Q591 459 579 456Q567 453 545 440L463 394Q463 388 462.5 382Q462 376 460 370L381 0H331L411 374Q420 417 403.5 438Q387 459 343 459H290Q271 459 259 456Q247 453 225 440Z" glyph-name="m" horiz-adv-x="835" unicode="m" /><glyph d="M362 602H110L119 639H371Z" glyph-name="macron" horiz-adv-x="350" unicode="&#175;" /><glyph d="M359 777H107L115 814H367Z" glyph-name="macron.case" horiz-adv-x="307" /><glyph d="M72 329V368H439V329Z" glyph-name="minus" horiz-adv-x="491" unicode="&#8722;" /><glyph d="M84 29Q81 8 74 -29Q67 -66 64 -78L40 -190H-10L137 500H186L107 126Q98 83 114.5 62Q131 41 174 41H232Q250 41 262.5 44Q275 47 297 59L378 105L462 500H511L405 0H360L370 56L303 18Q280 4 263 0Q246 -4 223 -4H164Q135 -4 114.5 4.5Q94 13 84 29Z" glyph-name="mu" horiz-adv-x="560" unicode="&#181;" /><glyph d="M403 227 376 199 254 321 130 198 102 226 225 350 102 472 130 501 253 377 376 500 404 471 281 349Z" glyph-name="multiply" horiz-adv-x="491" unicode="&#215;" /><glyph d="M352 459H290Q271 459 259 456Q247 453 225 440L143 394L60 0H10L117 500H161L152 443L219 481Q244 496 260.5 500Q277 504 299 504H363Q427 504 454.5 469Q482 434 469 370L390 0H340L420 374Q429 417 412 438Q395 459 352 459Z" glyph-name="n" horiz-adv-x="523" unicode="n" /><glyph d="M373 697H424L421 685L337 565H300ZM352 459H290Q271 459 259 456Q247 453 225 440L143 394L60 0H10L117 500H161L152 443L219 481Q244 496 260.5 500Q277 504 299 504H363Q427 504 454.5 469Q482 434 469 370L390 0H340L420 374Q429 417 412 438Q395 459 352 459Z" glyph-name="nacute" horiz-adv-x="523" unicode="&#324;" /><glyph d="M104 669H158L154 652L77 516H44ZM352 459H290Q271 459 259 456Q247 453 225 440L143 394L60 0H10L117 500H161L152 443L219 481Q244 496 260.5 500Q277 504 299 504H363Q427 504 454.5 469Q482 434 469 370L390 0H340L420 374Q429 417 412 438Q395 459 352 459Z" glyph-name="napostrophe" horiz-adv-x="523" unicode="&#329;" /><glyph d="M339 565H297L242 697H277L323 599L412 697H450ZM352 459H290Q271 459 259 456Q247 453 225 440L143 394L60 0H10L117 500H161L152 443L219 481Q244 496 260.5 500Q277 504 299 504H363Q427 504 454.5 469Q482 434 469 370L390 0H340L420 374Q429 417 412 438Q395 459 352 459Z" glyph-name="ncaron" horiz-adv-x="523" unicode="&#328;" /><glyph d="M288 -4H163Q86 -4 53.5 34.5Q21 73 37 145L45 182H96L85 136Q74 90 95 66Q116 42 168 42H289Q332 42 358.5 64Q385 86 394 128L434 317H219Q145 317 114 355Q83 393 99 466L121 571Q135 637 174 669Q213 701 278 701H409Q486 701 518 660Q550 619 534 542L445 126Q431 61 392 28.5Q353 -4 288 -4ZM224 363H444L485 555Q496 605 475.5 630Q455 655 404 655H279Q236 655 208.5 632Q181 609 172 566L149 456Q139 410 158 386.5Q177 363 224 363Z" glyph-name="nine" horiz-adv-x="559" unicode="9" /><glyph d="M144 -2H73Q31 -2 12.5 19.5Q-6 41 2 80L6 100H48L44 78Q40 55 49 44.5Q58 34 82 34H141Q160 34 173 45Q186 56 190 75L209 166H101Q60 166 42.5 186.5Q25 207 34 246L46 300Q54 335 76 353.5Q98 372 134 372H209Q252 372 269 350Q286 328 277 285L232 71Q224 35 202 16.5Q180 -2 144 -2ZM112 201H217L235 289Q240 314 231 325.5Q222 337 199 337H138Q117 337 104 326Q91 315 87 295L77 245Q72 222 80.5 211.5Q89 201 112 201Z" glyph-name="nine.denominator" horiz-adv-x="333" unicode="&#63070;" /><glyph d="M113 -152H42Q0 -152 -18.5 -130.5Q-37 -109 -29 -70L-25 -50H17L13 -72Q9 -95 18 -105.5Q27 -116 51 -116H110Q129 -116 142 -105Q155 -94 159 -75L178 16H70Q29 16 11.5 36.5Q-6 57 3 96L15 150Q23 185 45 203.5Q67 222 103 222H178Q221 222 238 200Q255 178 246 135L201 -79Q193 -115 171 -133.5Q149 -152 113 -152ZM81 51H186L204 139Q209 164 200 175.5Q191 187 168 187H107Q86 187 73 176Q60 165 56 145L46 95Q41 72 49.5 61.5Q58 51 81 51Z" glyph-name="nine.inferior" horiz-adv-x="333" unicode="&#8329;" /><glyph d="M214 326H143Q101 326 82.5 347.5Q64 369 72 408L76 428H118L114 406Q110 383 119 372.5Q128 362 152 362H211Q230 362 243 373Q256 384 260 403L279 494H171Q130 494 112.5 514.5Q95 535 104 574L116 628Q124 663 146 681.5Q168 700 204 700H279Q322 700 339 678Q356 656 347 613L302 399Q294 363 272 344.5Q250 326 214 326ZM182 529H287L305 617Q310 642 301 653.5Q292 665 269 665H208Q187 665 174 654Q161 643 157 623L147 573Q142 550 150.5 539.5Q159 529 182 529Z" glyph-name="nine.numerator" horiz-adv-x="333" unicode="&#63082;" /><glyph d="M246 477H175Q133 477 114.5 498.5Q96 520 104 559L108 579H150L146 557Q142 534 151 523.5Q160 513 184 513H243Q262 513 275 524Q288 535 292 554L311 645H203Q162 645 144.5 665.5Q127 686 136 725L148 779Q156 814 178 832.5Q200 851 236 851H311Q354 851 371 829Q388 807 379 764L334 550Q326 514 304 495.5Q282 477 246 477ZM214 680H319L337 768Q342 793 333 804.5Q324 816 301 816H240Q219 816 206 805Q193 794 189 774L179 724Q174 701 182.5 690.5Q191 680 214 680Z" glyph-name="nine.superior" horiz-adv-x="333" unicode="&#8313;" /><glyph d="M301 -4H176Q100 -4 67.5 34.5Q35 73 50 145L58 182H109L99 136Q89 89 109.5 65.5Q130 42 182 42H303Q345 42 372 64Q399 86 408 128L448 317H233Q159 317 128 355Q97 393 113 466L135 571Q148 637 187 669Q226 701 292 701H422Q500 701 532 660.5Q564 620 548 542L459 126Q445 61 405.5 28.5Q366 -4 301 -4ZM238 363H458L499 555Q509 605 489 630Q469 655 418 655H293Q249 655 221.5 632Q194 609 185 566L163 456Q154 409 172.5 386Q191 363 238 363Z" glyph-name="nine.tab" horiz-adv-x="586" unicode="&#65305;" /><glyph d="M70 416V456H281L341 597H376L316 456H437V416H299L243 285H437V245H226L165 100H130L191 245H70V285H208L264 416Z" glyph-name="notequal" horiz-adv-x="491" unicode="&#8800;" /><glyph d="M352 459H290Q271 459 259 456Q247 453 225 440L143 394L60 0H10L117 500H161L152 443L219 481Q244 496 260.5 500Q277 504 299 504H363Q427 504 454.5 469Q482 434 469 370L390 0H340L420 374Q429 417 412 438Q395 459 352 459ZM392 628H409Q425 628 434.5 635Q444 642 447 656L456 697H491L480 647Q473 619 456 605.5Q439 592 410 592H385Q371 592 358 597Q345 602 336 610L292 646Q285 652 275 656Q265 660 256 660H240Q223 660 214 653.5Q205 647 201 632L192 592H158L168 638Q174 667 192.5 682Q211 697 240 697H265Q277 697 288.5 693Q300 689 313 679L356 642Q365 635 374.5 631.5Q384 628 392 628Z" glyph-name="ntilde" horiz-adv-x="523" unicode="&#241;" /><glyph d="M179 434H79V473H187L235 697H278L230 473H428L476 697H520L472 473H569V434H464L428 262H528V223H420L373 0H330L376 223H178L131 0H88L135 223H39V262H143ZM420 434H222L186 262H384Z" glyph-name="numbersign" horiz-adv-x="584" unicode="#" /><glyph d="M261 -4H144Q75 -4 46 33Q17 70 31 139L83 384Q96 444 132 474Q168 504 228 504H345Q413 504 442.5 466.5Q472 429 458 360L406 116Q393 56 356.5 26Q320 -4 261 -4ZM149 39H262Q299 39 323.5 59.5Q348 80 356 117L410 372Q420 416 402 438Q384 460 339 460H227Q188 460 164 440.5Q140 421 132 382L78 128Q69 83 86.5 61Q104 39 149 39Z" glyph-name="o" horiz-adv-x="508" unicode="o" /><glyph d="M345 697H396L393 685L309 565H272ZM261 -4H144Q75 -4 46 33Q17 70 31 139L83 384Q96 444 132 474Q168 504 228 504H345Q413 504 442.5 466.5Q472 429 458 360L406 116Q393 56 356.5 26Q320 -4 261 -4ZM149 39H262Q299 39 323.5 59.5Q348 80 356 117L410 372Q420 416 402 438Q384 460 339 460H227Q188 460 164 440.5Q140 421 132 382L78 128Q69 83 86.5 61Q104 39 149 39Z" glyph-name="oacute" horiz-adv-x="508" unicode="&#243;" /><glyph d="M261 -4H144Q75 -4 46 33Q17 70 31 139L83 384Q96 444 132 474Q168 504 228 504H345Q413 504 442.5 466.5Q472 429 458 360L406 116Q393 56 356.5 26Q320 -4 261 -4ZM149 39H262Q299 39 323.5 59.5Q348 80 356 117L410 372Q420 416 402 438Q384 460 339 460H227Q188 460 164 440.5Q140 421 132 382L78 128Q69 83 86.5 61Q104 39 149 39ZM404 653 416 710H452L439 649Q430 607 402.5 586.5Q375 566 329 566H287Q234 566 211.5 591Q189 616 199 664L209 710H245L234 661Q228 629 242 613.5Q256 598 292 598H330Q361 598 380 612Q399 626 404 653Z" glyph-name="obreve" horiz-adv-x="508" unicode="&#335;" /><glyph d="M400 565H366L319 663L230 565H192L303 697H345ZM261 -4H144Q75 -4 46 33Q17 70 31 139L83 384Q96 444 132 474Q168 504 228 504H345Q413 504 442.5 466.5Q472 429 458 360L406 116Q393 56 356.5 26Q320 -4 261 -4ZM149 39H262Q299 39 323.5 59.5Q348 80 356 117L410 372Q420 416 402 438Q384 460 339 460H227Q188 460 164 440.5Q140 421 132 382L78 128Q69 83 86.5 61Q104 39 149 39Z" glyph-name="ocircumflex" horiz-adv-x="508" unicode="&#244;" /><glyph d="M274 600H230L245 670H289ZM373 600H329L345 670H388ZM261 -4H144Q75 -4 46 33Q17 70 31 139L83 384Q96 444 132 474Q168 504 228 504H345Q413 504 442.5 466.5Q472 429 458 360L406 116Q393 56 356.5 26Q320 -4 261 -4ZM149 39H262Q299 39 323.5 59.5Q348 80 356 117L410 372Q420 416 402 438Q384 460 339 460H227Q188 460 164 440.5Q140 421 132 382L78 128Q69 83 86.5 61Q104 39 149 39Z" glyph-name="odieresis" horiz-adv-x="508" unicode="&#246;" /><glyph d="M738 154 730 114Q718 56 681.5 26Q645 -4 586 -4H475Q435 -4 409 10Q383 24 372 51Q354 24 326 10Q298 -4 261 -4H144Q75 -4 46 33Q17 70 31 139L83 384Q96 444 132 474Q168 504 228 504H345Q383 504 409 490Q435 476 446 449Q464 476 492 490Q520 504 558 504H669Q738 504 767.5 466.5Q797 429 782 359L758 246H433L408 126Q399 82 416.5 60Q434 38 478 38H587Q625 38 649.5 58Q674 78 682 115L690 154ZM149 39H262Q299 39 323.5 59.5Q348 80 356 117L410 372Q420 416 402 438Q384 460 339 460H227Q188 460 164 440.5Q140 421 132 382L78 128Q69 83 86.5 61Q104 39 149 39ZM462 384 442 288H719L737 374Q746 418 728 440Q710 462 666 462H557Q519 462 494.5 442Q470 422 462 384Z" glyph-name="oe" horiz-adv-x="827" unicode="&#339;" /><glyph d="M99 -40 213 21H228L236 1L121 -62Q100 -74 92 -84Q84 -94 80 -109L78 -121Q75 -139 82.5 -146.5Q90 -154 111 -154H207L199 -190H101Q66 -190 49.5 -174.5Q33 -159 37 -130L39 -113Q42 -91 55 -74.5Q68 -58 99 -40Z" glyph-name="ogonek" horiz-adv-x="292" unicode="&#731;" /><glyph d="M261 -4H144Q75 -4 46 33Q17 70 31 139L83 384Q96 444 132 474Q168 504 228 504H345Q413 504 442.5 466.5Q472 429 458 360L406 116Q393 56 356.5 26Q320 -4 261 -4ZM149 39H262Q299 39 323.5 59.5Q348 80 356 117L410 372Q420 416 402 438Q384 460 339 460H227Q188 460 164 440.5Q140 421 132 382L78 128Q69 83 86.5 61Q104 39 149 39ZM272 565 206 685 209 697H257L307 565Z" glyph-name="ograve" horiz-adv-x="508" unicode="&#242;" /><glyph d="M316 697H361L358 685L275 565H244ZM425 697H471L468 685L354 565H322ZM261 -4H144Q75 -4 46 33Q17 70 31 139L83 384Q96 444 132 474Q168 504 228 504H345Q413 504 442.5 466.5Q472 429 458 360L406 116Q393 56 356.5 26Q320 -4 261 -4ZM149 39H262Q299 39 323.5 59.5Q348 80 356 117L410 372Q420 416 402 438Q384 460 339 460H227Q188 460 164 440.5Q140 421 132 382L78 128Q69 83 86.5 61Q104 39 149 39Z" glyph-name="ohungarumlaut" horiz-adv-x="508" unicode="&#337;" /><glyph d="M433 602H181L190 639H442ZM261 -4H144Q75 -4 46 33Q17 70 31 139L83 384Q96 444 132 474Q168 504 228 504H345Q413 504 442.5 466.5Q472 429 458 360L406 116Q393 56 356.5 26Q320 -4 261 -4ZM149 39H262Q299 39 323.5 59.5Q348 80 356 117L410 372Q420 416 402 438Q384 460 339 460H227Q188 460 164 440.5Q140 421 132 382L78 128Q69 83 86.5 61Q104 39 149 39Z" glyph-name="omacron" horiz-adv-x="508" unicode="&#333;" /><glyph d="M380 46 371 0H-20L-10 46H159L288 651H118L128 697H350L211 46Z" glyph-name="one" horiz-adv-x="449" unicode="1" /><glyph d="M-26 0 -18 37H74L137 332H44L52 369H186L116 37H207L199 0Z" glyph-name="one.denominator" horiz-adv-x="280" unicode="&#63062;" /><glyph d="M-58 -150 -50 -113H42L105 182H12L20 219H154L84 -113H175L167 -150Z" glyph-name="one.inferior" horiz-adv-x="279" unicode="&#8321;" /><glyph d="M44 328 52 365H144L207 660H114L122 697H256L186 365H277L269 328Z" glyph-name="one.numerator" horiz-adv-x="279" unicode="&#63074;" /><glyph d="M464 46 454 0H34L43 46H228L357 651H172L182 697H419L280 46Z" glyph-name="one.tab" horiz-adv-x="586" unicode="&#65297;" /><glyph d="M492 295 482 252H441L451 298Q458 334 481.5 353Q505 372 542 372H610Q652 372 670 349Q688 326 679 284L670 240Q665 217 650 201Q635 185 610 176L488 135Q470 129 460.5 118.5Q451 108 446 86L435 37H630L623 0H387L405 89Q412 124 428.5 140.5Q445 157 478 168L596 208Q610 212 617.5 220.5Q625 229 628 244L637 287Q642 312 633 323.5Q624 335 599 335H541Q522 335 509.5 325Q497 315 492 295ZM51 328 59 365H151L214 660H121L129 697H263L193 365H284L276 328ZM688 701 114 -4H66L640 701Z" glyph-name="onehalf" horiz-adv-x="728" unicode="&#189;" /><glyph d="M607 132 600 98H559L538 0H498L519 98H334L340 132L579 371H617L566 132ZM384 132H526L563 310ZM50 328 58 365H150L213 660H120L128 697H262L192 365H283L275 328ZM701 701 127 -4H79L653 701Z" glyph-name="onequarter" horiz-adv-x="682" unicode="&#188;" /><glyph d="M76 479 84 516H176L239 811H146L154 848H288L218 516H309L301 479Z" glyph-name="onesuperior" horiz-adv-x="280" unicode="&#185;" /><glyph d="M347 300 291 269Q266 255 251 251Q236 247 217 247H160Q106 247 83 274Q60 301 71 352L128 617Q137 659 164.5 680Q192 701 237 701H313Q332 701 345 697.5Q358 694 378 679L421 648L434 697H475L380 251H339ZM174 286H227Q240 286 248.5 288Q257 290 281 303L354 344L411 611L364 646Q349 657 338 660Q327 663 310 663H243Q214 663 196.5 650.5Q179 638 174 613L116 347Q109 316 123 301Q137 286 174 286Z" glyph-name="ordfeminine" horiz-adv-x="455" unicode="&#170;" /><glyph d="M281 247H176Q114 247 88 280Q62 313 75 375L122 594Q133 647 165.5 674Q198 701 251 701H355Q417 701 443.5 668Q470 635 457 573L410 354Q399 301 366.5 274Q334 247 281 247ZM183 287H280Q313 287 335 305.5Q357 324 364 358L411 581Q420 621 404 641Q388 661 348 661H251Q218 661 196.5 643Q175 625 167 592L120 367Q112 328 128 307.5Q144 287 183 287Z" glyph-name="ordmasculine" horiz-adv-x="461" unicode="&#186;" /><glyph d="M68 14 36 -24H-7L43 36Q30 54 27 80Q24 106 31 139L83 384Q96 444 132 474Q168 504 228 504H344Q367 504 386.5 499.5Q406 495 420 486L452 524H495L444 463Q457 444 460 418.5Q463 393 456 360L404 115Q392 56 355.5 26Q319 -4 260 -4H144Q120 -4 101 0.5Q82 5 68 14ZM130 383 76 128Q72 112 72 99Q72 86 76 75L390 450Q381 456 368.5 459Q356 462 339 462H226Q187 462 162.5 442Q138 422 130 383ZM148 37H262Q299 37 324 58Q349 79 357 116L411 372Q414 390 414 402.5Q414 415 411 424L97 48Q106 43 119 40Q132 37 148 37Z" glyph-name="oslash" horiz-adv-x="506" unicode="&#248;" /><glyph d="M261 -4H144Q75 -4 46 33Q17 70 31 139L83 384Q96 444 132 474Q168 504 228 504H345Q413 504 442.5 466.5Q472 429 458 360L406 116Q393 56 356.5 26Q320 -4 261 -4ZM149 39H262Q299 39 323.5 59.5Q348 80 356 117L410 372Q420 416 402 438Q384 460 339 460H227Q188 460 164 440.5Q140 421 132 382L78 128Q69 83 86.5 61Q104 39 149 39ZM373 628H390Q406 628 415.5 635Q425 642 428 656L437 697H472L461 647Q454 619 437 605.5Q420 592 391 592H366Q352 592 339 597Q326 602 317 610L273 646Q266 652 256 656Q246 660 237 660H221Q204 660 195 653.5Q186 647 182 632L173 592H139L149 638Q155 667 173.5 682Q192 697 221 697H246Q258 697 269.5 693Q281 689 294 679L337 642Q346 635 355.5 631.5Q365 628 373 628Z" glyph-name="otilde" horiz-adv-x="508" unicode="&#245;" /><glyph d="M120 18 72 55 20 -190H-30L117 500H161L153 444L218 481Q242 495 259 499.5Q276 504 299 504H360Q425 504 453 468Q481 432 468 367L414 113Q402 55 366 25.5Q330 -4 272 -4H191Q168 -4 152.5 0.5Q137 5 120 18ZM197 41H271Q308 41 332.5 61.5Q357 82 365 118L419 371Q428 415 410.5 437Q393 459 348 459H290Q272 459 259.5 456Q247 453 225 440L144 394L82 101L137 59Q152 48 164 44.5Q176 41 197 41Z" glyph-name="p" horiz-adv-x="517" unicode="p" /><glyph d="M192 -190H145L244 277H194Q117 277 84.5 318Q52 359 69 436L97 567Q111 634 149.5 665.5Q188 697 254 697H541L352 -190H305L485 651H253Q211 651 184 629Q157 607 148 565L118 424Q108 373 127.5 348.5Q147 324 199 324H301Z" glyph-name="paragraph" horiz-adv-x="554" unicode="&#182;" /><glyph d="M131 -144H164L154 -190H124Q53 -190 24 -149.5Q-5 -109 12 -31L155 640Q169 705 205 737.5Q241 770 300 770H357L347 724H301Q264 724 239.5 702Q215 680 206 638L61 -43Q50 -94 67.5 -119Q85 -144 131 -144Z" glyph-name="parenleft" horiz-adv-x="290" unicode="(" /><glyph d="M4 49 66 336Q74 372 95 390Q116 408 151 408H185L177 372H151Q134 372 122.5 361.5Q111 351 107 332L45 44Q40 20 48.5 9Q57 -2 80 -2H98L90 -39H71Q30 -39 12.5 -16Q-5 7 4 49Z" glyph-name="parenleft.denominator" horiz-adv-x="197" unicode="&#63020;" /><glyph d="M-28 -101 34 186Q42 222 63 240Q84 258 119 258H153L145 222H119Q102 222 90.5 211.5Q79 201 75 182L13 -106Q8 -130 16.5 -141Q25 -152 48 -152H66L58 -189H39Q-2 -189 -19.5 -166Q-37 -143 -28 -101Z" glyph-name="parenleft.inferior" horiz-adv-x="195" unicode="&#8333;" /><glyph d="M74 377 136 664Q144 700 165 718Q186 736 221 736H255L247 700H221Q204 700 192.5 689.5Q181 679 177 660L115 372Q110 348 118.5 337Q127 326 150 326H168L160 289H141Q100 289 82.5 312Q65 335 74 377Z" glyph-name="parenleft.numerator" horiz-adv-x="197" unicode="&#63025;" /><glyph d="M105 528 167 815Q175 851 196 869Q217 887 252 887H286L278 851H252Q235 851 223.5 840.5Q212 830 208 811L146 523Q141 499 149.5 488Q158 477 181 477H199L191 440H172Q131 440 113.5 463Q96 486 105 528Z" glyph-name="parenleft.superior" horiz-adv-x="195" unicode="&#8317;" /><glyph d="M157 724H124L134 770H164Q235 770 263.5 729.5Q292 689 276 611L133 -60Q119 -125 82.5 -157.5Q46 -190 -13 -190H-70L-60 -144H-13Q25 -144 49 -122Q73 -100 82 -58L227 623Q238 674 220.5 699Q203 724 157 724Z" glyph-name="parenright" horiz-adv-x="289" unicode=")" /><glyph d="M145 320 85 33Q77 -3 55.5 -21Q34 -39 -1 -39H-35L-27 -3H-1Q16 -3 27.5 7.5Q39 18 43 37L105 325Q111 349 102.5 360Q94 371 70 371H52L60 408H79Q120 408 137.5 385Q155 362 145 320Z" glyph-name="parenright.denominator" horiz-adv-x="197" unicode="&#63021;" /><glyph d="M112 170 52 -117Q44 -153 22.5 -171Q1 -189 -34 -189H-68L-60 -153H-34Q-17 -153 -5.5 -142.5Q6 -132 10 -113L72 175Q78 199 69.5 210Q61 221 37 221H19L27 258H46Q87 258 104.5 235Q122 212 112 170Z" glyph-name="parenright.inferior" horiz-adv-x="195" unicode="&#8334;" /><glyph d="M215 648 155 361Q147 325 125.5 307Q104 289 69 289H35L43 325H69Q86 325 97.5 335.5Q109 346 113 365L175 653Q181 677 172.5 688Q164 699 140 699H122L130 736H149Q190 736 207.5 713Q225 690 215 648Z" glyph-name="parenright.numerator" horiz-adv-x="197" unicode="&#63026;" /><glyph d="M246 799 186 512Q178 476 156.5 458Q135 440 100 440H66L74 476H100Q117 476 128.5 486.5Q140 497 144 516L206 804Q212 828 203.5 839Q195 850 171 850H153L161 887H180Q221 887 238.5 864Q256 841 246 799Z" glyph-name="parenright.superior" horiz-adv-x="194" unicode="&#8318;" /><glyph d="M262 -4H145Q76 -4 47 33Q18 70 32 139L77 349Q89 407 124.5 436.5Q160 466 218 466H296Q321 466 336.5 462Q352 458 370 444L419 407L451 559Q461 606 442 630Q423 654 376 654H181L191 697H387Q456 697 485.5 660.5Q515 624 501 557L407 116Q394 56 357.5 26Q321 -4 262 -4ZM150 39H263Q301 39 325.5 59.5Q350 80 357 117L409 359L351 403Q337 414 325.5 417.5Q314 421 293 421H220Q182 421 158 401.5Q134 382 126 344L79 128Q70 83 87.5 61Q105 39 150 39Z" glyph-name="partialdiff" horiz-adv-x="516" unicode="&#8706;" /><glyph d="M400 85 445 298Q452 333 475.5 352.5Q499 372 534 372H611Q653 372 671 349Q689 326 680 284L635 72Q627 35 604.5 16.5Q582 -2 545 -2H469Q427 -2 409 20.5Q391 43 400 85ZM487 295 442 82Q437 58 446.5 46Q456 34 480 34H544Q563 34 576 44.5Q589 55 593 74L638 287Q643 311 633.5 323Q624 335 601 335H537Q518 335 504.5 324Q491 313 487 295ZM77 413 122 626Q129 661 152.5 680.5Q176 700 211 700H288Q330 700 348 677Q366 654 357 612L312 400Q304 363 281.5 344.5Q259 326 222 326H146Q104 326 86 348.5Q68 371 77 413ZM164 623 119 410Q114 386 123.5 374Q133 362 157 362H221Q240 362 253 372.5Q266 383 270 402L315 615Q320 639 310.5 651Q301 663 278 663H214Q195 663 181.5 652Q168 641 164 623ZM691 701 117 -4H69L643 701Z" glyph-name="percent" horiz-adv-x="733" unicode="%" /><glyph d="M62 0H7L24 82H80Z" glyph-name="period" horiz-adv-x="192" unicode="." /><glyph d="M31 0H-13L0 55H43Z" glyph-name="period.denominator" horiz-adv-x="143" unicode="&#63072;" /><glyph d="M101 328H57L70 383H113Z" glyph-name="period.numerator" horiz-adv-x="143" unicode="&#63084;" /><glyph d="M118 253H63L80 335H136Z" glyph-name="periodcentered" horiz-adv-x="199" unicode="&#183;" /><glyph d="M723 85 768 298Q775 333 798.5 352.5Q822 372 857 372H934Q976 372 994 349Q1012 326 1003 284L958 72Q950 35 927.5 16.5Q905 -2 868 -2H792Q750 -2 732 20.5Q714 43 723 85ZM810 295 765 82Q760 58 769.5 46Q779 34 803 34H867Q886 34 899 44.5Q912 55 916 74L961 287Q966 311 956.5 323Q947 335 924 335H860Q841 335 827.5 324Q814 313 810 295ZM400 85 445 298Q452 333 475.5 352.5Q499 372 534 372H611Q653 372 671 349Q689 326 680 284L635 72Q627 35 604.5 16.5Q582 -2 545 -2H469Q427 -2 409 20.5Q391 43 400 85ZM487 295 442 82Q437 58 446.5 46Q456 34 480 34H544Q563 34 576 44.5Q589 55 593 74L638 287Q643 311 633.5 323Q624 335 601 335H537Q518 335 504.5 324Q491 313 487 295ZM77 413 122 626Q129 661 152.5 680.5Q176 700 211 700H288Q330 700 348 677Q366 654 357 612L312 400Q304 363 281.5 344.5Q259 326 222 326H146Q104 326 86 348.5Q68 371 77 413ZM164 623 119 410Q114 386 123.5 374Q133 362 157 362H221Q240 362 253 372.5Q266 383 270 402L315 615Q320 639 310.5 651Q301 663 278 663H214Q195 663 181.5 652Q168 641 164 623ZM691 701 117 -4H69L643 701Z" glyph-name="perthousand" horiz-adv-x="1054" unicode="&#8240;" /><glyph d="M384 262H145L89 0H37L185 697H452Q528 697 559 657Q590 617 574 542L542 392Q528 327 488.5 294.5Q449 262 384 262ZM447 651H227L154 309H385Q427 309 454 331Q481 353 490 395L525 553Q536 602 516 626.5Q496 651 447 651ZM743 45H805L796 0H731Q666 0 638 35.5Q610 71 624 136L691 453H610L620 497H701L731 640H781L750 497H900L890 453H741L673 133Q664 88 681 66.5Q698 45 743 45ZM874 111 883 155H932L920 100Q913 69 930 52.5Q947 36 985 36H1107Q1145 36 1168 52Q1191 68 1198 99L1211 161Q1215 179 1207.5 191.5Q1200 204 1182 208L994 256Q955 266 939.5 288.5Q924 311 931 348L942 403Q952 452 988 478Q1024 504 1083 504H1195Q1260 504 1288 475Q1316 446 1304 392L1296 356H1248L1257 400Q1263 431 1246.5 447Q1230 463 1192 463H1081Q1043 463 1019.5 447Q996 431 990 401L978 344Q974 325 981 314.5Q988 304 1009 299L1202 249Q1237 240 1251.5 217Q1266 194 1259 160L1246 96Q1236 48 1199.5 22Q1163 -4 1105 -4H983Q918 -4 890 25.5Q862 55 874 111Z" glyph-name="peseta" horiz-adv-x="1343" unicode="&#8359;" /><glyph d="M411 0H361L458 455H178L82 0H32L128 455H59L68 500H590L580 455H508Z" glyph-name="pi" horiz-adv-x="573" unicode="&#960;" /><glyph d="M440 368V329H276V165H236V329H73V368H236V532H276V368Z" glyph-name="plus" horiz-adv-x="491" unicode="+" /><glyph d="M426 441V401H262V258H222V401H59V441H222V585H262V441ZM59 123V163H426V123Z" glyph-name="plusminus" horiz-adv-x="491" unicode="&#177;" /><glyph d="M474 0H422L560 650H227L89 0H37L185 697H622Z" glyph-name="product" horiz-adv-x="635" unicode="&#8719;" /><glyph d="M488 500 341 -190H292L344 55L281 18Q259 5 241.5 0.5Q224 -4 200 -4H138Q73 -4 45 32Q17 68 30 133L84 387Q96 445 132 474.5Q168 504 226 504H307Q329 504 345 499.5Q361 495 378 481L428 443L443 500ZM150 41H208Q227 41 239.5 44Q252 47 274 59L354 105L417 398L361 440Q345 452 333 455.5Q321 459 301 459H227Q190 459 165.5 438.5Q141 418 133 382L79 129Q70 85 87.5 63Q105 41 150 41Z" glyph-name="q" horiz-adv-x="517" unicode="q" /><glyph d="M283 340 417 414Q437 426 450 441.5Q463 457 467 476L483 554Q494 605 474 630Q454 655 402 655H250Q209 655 181.5 632.5Q154 610 145 569L130 495H80L95 571Q108 634 148 667.5Q188 701 252 701H406Q483 701 515 661.5Q547 622 532 545L517 468Q511 440 492.5 417.5Q474 395 440 376L313 307Q290 294 279 278Q268 262 262 234L243 150H196L215 242Q223 280 238 301.5Q253 323 283 340ZM216 0H160L177 82H233Z" glyph-name="question" horiz-adv-x="521" unicode="?" /><glyph d="M217 160 83 86Q63 74 50 58.5Q37 43 33 24L17 -54Q6 -105 26 -130Q46 -155 98 -155H250Q291 -155 318.5 -132.5Q346 -110 355 -69L370 5H420L405 -71Q392 -134 352 -167.5Q312 -201 248 -201H94Q17 -201 -15 -161.5Q-47 -122 -32 -45L-17 32Q-11 60 7.5 82.5Q26 105 60 124L187 193Q210 206 221 222Q232 238 238 266L257 350H304L285 258Q277 220 262 198.5Q247 177 217 160ZM284 500H340L323 418H267Z" glyph-name="questiondown" horiz-adv-x="517" unicode="&#191;" /><glyph d="M180 603 134 421H103L133 603L153 697H200ZM294 603 248 421H217L247 603L267 697H313Z" glyph-name="quotedbl" horiz-adv-x="298" unicode="&quot;" /><glyph d="M32.597 85.6919H87.0979L83.2733 68.6376L2 -75.3767H-30.5093ZM148.597 85.6919H203.0979L199.2733 68.6376L118 -75.3767H85.4907Z" glyph-name="quotedblbase" horiz-adv-x="309" unicode="&#8222;" /><glyph d="M159.6244 535.0854H105.5177L109.3147 552.1886L190 696.6157H222.2741ZM275.6244 535.0854H221.5177L225.3147 552.1886L306 696.6157H338.2741Z" glyph-name="quotedblleft" horiz-adv-x="308" unicode="&#8220;" /><glyph d="M171.597 696.6919H226.0979L222.2733 679.6376L141 535.6233H108.4907ZM287.597 696.6919H342.0979L338.2733 679.6376L257 535.6233H224.4907Z" glyph-name="quotedblright" horiz-adv-x="305" unicode="&#8221;" /><glyph d="M159.6 535.1H105.45L109.25 552.2L190 696.6H222.3Z" glyph-name="quoteleft" horiz-adv-x="192" unicode="&#8216;" /><glyph d="M172.4 696.9H226.55L222.75 679.8L142 535.4H109.7Z" glyph-name="quoteright" horiz-adv-x="190" unicode="&#8217;" /><glyph d="M33.4 85.9H87.55L83.75 68.8L3 -75.6H-29.3Z" glyph-name="quotesinglbase" horiz-adv-x="194" unicode="&#8218;" /><glyph d="M181 603 135 421H103L133 603L153 697H201Z" glyph-name="quotesingle" horiz-adv-x="185" unicode="'" /><glyph d="M140 376 60 0H10L117 500H161L150 429L233 481Q255 495 272 499.5Q289 504 313 504H379L369 459H306Q285 459 272.5 455.5Q260 452 242 440Z" glyph-name="r" horiz-adv-x="342" unicode="r" /><glyph d="M296 697H347L344 685L260 565H223ZM140 376 60 0H10L117 500H161L150 429L233 481Q255 495 272 499.5Q289 504 313 504H379L369 459H306Q285 459 272.5 455.5Q260 452 242 440Z" glyph-name="racute" horiz-adv-x="342" unicode="&#341;" /><glyph d="M149 457H62V500H188L363 -4L576 697H622L386 -73H336Z" glyph-name="radical" horiz-adv-x="601" unicode="&#8730;" /><glyph d="M263 565H221L166 697H201L247 599L336 697H374ZM140 376 60 0H10L117 500H161L150 429L233 481Q255 495 272 499.5Q289 504 313 504H379L369 459H306Q285 459 272.5 455.5Q260 452 242 440Z" glyph-name="rcaron" horiz-adv-x="342" unicode="&#345;" /><glyph d="M112 357V586Q112 641 142 671Q172 701 226 701H436Q490 701 520 671Q550 641 550 586V357Q550 302 520.5 272.5Q491 243 436 243H226Q171 243 141.5 272.5Q112 302 112 357ZM432 668H230Q190 668 168.5 647Q147 626 147 585V358Q147 318 168.5 296.5Q190 275 230 275H432Q473 275 494 296.5Q515 318 515 358V585Q515 626 494 647Q473 668 432 668ZM366 571H273V472H366Q383 472 391 480.5Q399 489 399 505V537Q399 553 390.5 562Q382 571 366 571ZM273 440V341H235V602H367Q401 602 419.5 585.5Q438 569 438 538V505Q438 482 427.5 466.5Q417 451 397 446L437 341H395L359 440Z" glyph-name="registered" horiz-adv-x="591" unicode="&#174;" /><glyph d="M236 558H202Q162 558 144.5 580Q127 602 135 642L140 666Q148 704 171 722Q194 740 234 740H262Q304 740 323 718Q342 696 332 657L326 632Q318 595 295 576.5Q272 558 236 558ZM207 589H237Q258 589 272.5 601Q287 613 292 634L297 657Q303 684 294 696.5Q285 709 259 709H229Q206 709 192 697.5Q178 686 173 664L168 640Q163 614 172.5 601.5Q182 589 207 589Z" glyph-name="ring" horiz-adv-x="331" unicode="&#730;" /><glyph d="M224 743H190Q150 743 132.5 765Q115 787 123 827L128 851Q136 889 159 907Q182 925 222 925H251Q293 925 311.5 903Q330 881 320 842L314 817Q306 780 283.5 761.5Q261 743 224 743ZM195 774H225Q246 774 261 786Q276 798 281 819L286 842Q292 869 282.5 881.5Q273 894 247 894H217Q194 894 179.5 882.5Q165 871 161 849L157 825Q152 798 161 786Q170 774 195 774Z" glyph-name="ring.case" horiz-adv-x="266" /><glyph d="M16 111 25 155H74L62 100Q55 69 72 52.5Q89 36 127 36H248Q286 36 309.5 52Q333 68 340 99L353 161Q357 179 349.5 191.5Q342 204 324 208L136 256Q97 266 81.5 288.5Q66 311 73 348L84 403Q94 452 130 478Q166 504 225 504H337Q402 504 430 475Q458 446 446 392L438 356H389L399 400Q406 431 389.5 447Q373 463 334 463H223Q185 463 161.5 447Q138 431 132 401L120 344Q116 325 123 314.5Q130 304 151 299L344 249Q379 240 393.5 217Q408 194 401 160L388 96Q378 48 341.5 22Q305 -4 247 -4H125Q59 -4 31.5 25Q4 54 16 111Z" glyph-name="s" horiz-adv-x="485" unicode="s" /><glyph d="M338 697H389L386 685L302 565H265ZM16 111 25 155H74L62 100Q55 69 72 52.5Q89 36 127 36H248Q286 36 309.5 52Q333 68 340 99L353 161Q357 179 349.5 191.5Q342 204 324 208L136 256Q97 266 81.5 288.5Q66 311 73 348L84 403Q94 452 130 478Q166 504 225 504H337Q402 504 430 475Q458 446 446 392L438 356H389L399 400Q406 431 389.5 447Q373 463 334 463H223Q185 463 161.5 447Q138 431 132 401L120 344Q116 325 123 314.5Q130 304 151 299L344 249Q379 240 393.5 217Q408 194 401 160L388 96Q378 48 341.5 22Q305 -4 247 -4H125Q59 -4 31.5 25Q4 54 16 111Z" glyph-name="sacute" horiz-adv-x="485" unicode="&#347;" /><glyph d="M305 565H263L208 697H243L289 599L378 697H416ZM16 111 25 155H74L62 100Q55 69 72 52.5Q89 36 127 36H248Q286 36 309.5 52Q333 68 340 99L353 161Q357 179 349.5 191.5Q342 204 324 208L136 256Q97 266 81.5 288.5Q66 311 73 348L84 403Q94 452 130 478Q166 504 225 504H337Q402 504 430 475Q458 446 446 392L438 356H389L399 400Q406 431 389.5 447Q373 463 334 463H223Q185 463 161.5 447Q138 431 132 401L120 344Q116 325 123 314.5Q130 304 151 299L344 249Q379 240 393.5 217Q408 194 401 160L388 96Q378 48 341.5 22Q305 -4 247 -4H125Q59 -4 31.5 25Q4 54 16 111Z" glyph-name="scaron" horiz-adv-x="485" unicode="&#353;" /><glyph d="M16 111 25 155H74L62 100Q55 69 72 52.5Q89 36 127 36H248Q286 36 309.5 52Q333 68 340 99L353 161Q357 179 349.5 191.5Q342 204 324 208L136 256Q97 266 81.5 288.5Q66 311 73 348L84 403Q94 452 130 478Q166 504 225 504H337Q402 504 430 475Q458 446 446 392L438 356H389L399 400Q406 431 389.5 447Q373 463 334 463H223Q185 463 161.5 447Q138 431 132 401L120 344Q116 325 123 314.5Q130 304 151 299L344 249Q379 240 393.5 217Q408 194 401 160L388 96Q378 48 341.5 22Q305 -4 247 -4H193L157 -57H203Q240 -57 256.5 -73Q273 -89 266 -120L262 -135Q256 -161 239 -173.5Q222 -186 191 -186H73L80 -155H191Q206 -155 215 -148.5Q224 -142 227 -129L230 -118Q234 -102 227 -95Q220 -88 199 -88H126Q117 -88 114 -85Q111 -82 112 -75L114 -69Q115 -66 116 -63Q117 -60 121 -54L156 -4H125Q59 -4 31.5 25Q4 54 16 111Z" glyph-name="scedilla" horiz-adv-x="485" unicode="&#351;" /><glyph d="M390 565H356L309 663L220 565H182L293 697H335ZM16 111 25 155H74L62 100Q55 69 72 52.5Q89 36 127 36H248Q286 36 309.5 52Q333 68 340 99L353 161Q357 179 349.5 191.5Q342 204 324 208L136 256Q97 266 81.5 288.5Q66 311 73 348L84 403Q94 452 130 478Q166 504 225 504H337Q402 504 430 475Q458 446 446 392L438 356H389L399 400Q406 431 389.5 447Q373 463 334 463H223Q185 463 161.5 447Q138 431 132 401L120 344Q116 325 123 314.5Q130 304 151 299L344 249Q379 240 393.5 217Q408 194 401 160L388 96Q378 48 341.5 22Q305 -4 247 -4H125Q59 -4 31.5 25Q4 54 16 111Z" glyph-name="scircumflex" horiz-adv-x="485" unicode="&#349;" /><glyph d="M173 253 358 175 347 125 148 208Q99 229 83 260Q67 291 76 338L128 587Q139 644 178.5 672.5Q218 701 284 701H433Q509 701 541.5 666Q574 631 560 564L546 500H495L511 574Q519 616 498.5 636Q478 656 427 656H283Q239 656 212.5 637.5Q186 619 179 585L127 334Q121 302 131.5 284Q142 266 173 253ZM378 254 192 332 203 382 402 299Q451 279 467.5 247.5Q484 216 475 169L423 -80Q411 -137 371.5 -165.5Q332 -194 266 -194H118Q41 -194 8.5 -159Q-24 -124 -9 -57L5 7H56L40 -67Q31 -108 52 -128.5Q73 -149 124 -149H268Q311 -149 338 -131Q365 -113 372 -78L424 173Q430 204 419.5 222.5Q409 241 378 254Z" glyph-name="section" horiz-adv-x="568" unicode="&#167;" /><glyph d="M179 418H123L141 500H196ZM51 82H108L104 64L19 -88H-16Z" glyph-name="semicolon" horiz-adv-x="234" unicode=";" /><glyph d="M536 657 107 0H51L475 650H96L106 697H545Z" glyph-name="seven" horiz-adv-x="481" unicode="7" /><glyph d="M275 337 54 0H7L228 332H30L37 369H282Z" glyph-name="seven.denominator" horiz-adv-x="290" unicode="&#63068;" /><glyph d="M242 187 21 -150H-26L195 182H-3L4 219H249Z" glyph-name="seven.inferior" horiz-adv-x="288" unicode="&#8327;" /><glyph d="M345 665 124 328H77L298 660H100L107 697H352Z" glyph-name="seven.numerator" horiz-adv-x="290" unicode="&#63080;" /><glyph d="M377 816 156 479H109L330 811H132L139 848H384Z" glyph-name="seven.superior" horiz-adv-x="290" unicode="&#8311;" /><glyph d="M588 657 160 0H103L527 650H148L158 697H597Z" glyph-name="seven.tab" horiz-adv-x="586" unicode="&#65303;" /><glyph d="M487 245 461 126Q447 60 408.5 28Q370 -4 304 -4H174Q96 -4 64 36.5Q32 77 48 155L137 571Q151 636 190.5 668.5Q230 701 295 701H420Q497 701 529.5 662.5Q562 624 546 552L538 515H487L497 561Q507 607 486 631Q465 655 414 655H293Q251 655 224 633Q197 611 188 569L151 394H367Q441 394 472 356Q503 318 487 245ZM178 42H303Q346 42 374 65Q402 88 411 131L436 255Q446 302 427.5 325Q409 348 362 348H141L97 142Q86 93 106.5 67.5Q127 42 178 42Z" glyph-name="six" horiz-adv-x="559" unicode="6" /><glyph d="M252 130 240 70Q233 35 210 16.5Q187 -2 151 -2H76Q34 -2 16.5 20Q-1 42 8 85L53 299Q61 335 83 353.5Q105 372 141 372H214Q256 372 275 350.5Q294 329 284 290L279 270H237L242 292Q247 315 237.5 325.5Q228 336 204 336H145Q126 336 113.5 325.5Q101 315 96 295L77 210H188Q227 210 243.5 189.5Q260 169 252 130ZM86 34H148Q168 34 180.5 44.5Q193 55 198 75L210 131Q215 153 206.5 164Q198 175 175 175H70L50 81Q45 57 54 45.5Q63 34 86 34Z" glyph-name="six.denominator" horiz-adv-x="333" unicode="&#63067;" /><glyph d="M222 -20 210 -80Q203 -115 180 -133.5Q157 -152 121 -152H46Q4 -152 -13.5 -130Q-31 -108 -22 -65L23 149Q31 185 53 203.5Q75 222 111 222H184Q226 222 245 200.5Q264 179 254 140L249 120H207L212 142Q217 165 207.5 175.5Q198 186 174 186H115Q96 186 83.5 175.5Q71 165 66 145L47 60H158Q197 60 213.5 39.5Q230 19 222 -20ZM56 -116H118Q138 -116 150.5 -105.5Q163 -95 168 -75L180 -19Q185 3 176.5 14Q168 25 145 25H40L20 -69Q15 -93 24 -104.5Q33 -116 56 -116Z" glyph-name="six.inferior" horiz-adv-x="334" unicode="&#8326;" /><glyph d="M322 458 310 398Q303 363 280 344.5Q257 326 221 326H146Q104 326 86.5 348Q69 370 78 413L123 627Q131 663 153 681.5Q175 700 211 700H284Q326 700 345 678.5Q364 657 354 618L349 598H307L312 620Q317 643 307.5 653.5Q298 664 274 664H215Q196 664 183.5 653.5Q171 643 166 623L147 538H258Q297 538 313.5 517.5Q330 497 322 458ZM156 362H218Q238 362 250.5 372.5Q263 383 268 403L280 459Q285 481 276.5 492Q268 503 245 503H140L120 409Q115 385 124 373.5Q133 362 156 362Z" glyph-name="six.numerator" horiz-adv-x="333" unicode="&#63079;" /><glyph d="M355 609 343 549Q336 514 313 495.5Q290 477 254 477H179Q137 477 119.5 499Q102 521 111 564L156 778Q164 814 186 832.5Q208 851 244 851H317Q359 851 378 829.5Q397 808 387 769L382 749H340L345 771Q350 794 340.5 804.5Q331 815 307 815H248Q229 815 216.5 804.5Q204 794 199 774L180 689H291Q330 689 346.5 668.5Q363 648 355 609ZM189 513H251Q271 513 283.5 523.5Q296 534 301 554L313 610Q318 632 309.5 643Q301 654 278 654H173L153 560Q148 536 157 524.5Q166 513 189 513Z" glyph-name="six.superior" horiz-adv-x="334" unicode="&#8310;" /><glyph d="M500 245 474 126Q460 60 421.5 28Q383 -4 317 -4H187Q109 -4 77 36.5Q45 77 61 155L150 571Q164 636 203.5 668.5Q243 701 308 701H433Q510 701 542.5 662.5Q575 624 559 552L551 515H500L510 561Q520 607 499 631Q478 655 427 655H306Q264 655 237 633Q210 611 201 569L164 394H380Q454 394 485 356Q516 318 500 245ZM191 42H316Q359 42 387 65Q415 88 424 131L449 255Q459 302 440.5 325Q422 348 375 348H154L110 142Q99 93 119.5 67.5Q140 42 191 42Z" glyph-name="six.tab" horiz-adv-x="586" unicode="&#65302;" /><glyph d="M516 770 -1 -73H-54L462 770Z" glyph-name="slash" horiz-adv-x="439" unicode="/" /><glyph glyph-name="space" horiz-adv-x="245" unicode=" " /><glyph d="M480 45 470 0H-13L-3 45H76L135 322H56L65 361H143L187 571Q201 636 240 668.5Q279 701 344 701H449Q527 701 559 661Q591 621 575 545L566 503H515L525 555Q536 606 516 630.5Q496 655 445 655H343Q301 655 274 632.5Q247 610 238 569L194 361H372L364 322H186L127 45Z" glyph-name="sterling" horiz-adv-x="576" unicode="&#163;" /><glyph d="M576 697 566 650H187L282 352L48 47H441L432 0H-23L-13 47L225 357L128 650L138 697Z" glyph-name="summation" horiz-adv-x="535" unicode="&#8721;" /><glyph d="M189 45H259L250 0H177Q112 0 84 35.5Q56 71 70 136L138 453H51L61 497H147L177 640H227L197 497H354L344 453H187L119 133Q110 88 127 66.5Q144 45 189 45Z" glyph-name="t" horiz-adv-x="325" unicode="t" /><glyph d="M106 294H30L38 330H113L140 453H53L63 497H149L179 640H229L199 497H356L346 453H189L162 330H317L309 294H155L121 133Q112 88 129 66.5Q146 45 191 45H261L252 0H179Q114 0 86 35.5Q58 71 72 136Z" glyph-name="tbar" horiz-adv-x="331" unicode="&#359;" /><glyph d="M357 697H407L404 681L333 558H302ZM189 45H259L250 0H177Q112 0 84 35.5Q56 71 70 136L138 453H51L61 497H147L177 640H227L197 497H354L344 453H187L119 133Q110 88 127 66.5Q144 45 189 45Z" glyph-name="tcaron" horiz-adv-x="325" unicode="&#357;" /><glyph d="M120 18 72 55 18 -197H-31L158 697H208L154 445L218 481Q242 495 259 499.5Q276 504 299 504H360Q425 504 453 468Q481 432 468 367L414 113Q402 55 366 25.5Q330 -4 272 -4H191Q168 -4 152.5 0.5Q137 5 120 18ZM197 41H271Q308 41 332.5 61.5Q357 82 365 118L419 371Q428 415 410.5 437Q393 459 348 459H290Q272 459 260 456Q248 453 225 440L144 394L82 101L137 59Q152 48 164 44.5Q176 41 197 41Z" glyph-name="thorn" horiz-adv-x="517" unicode="&#254;" /><glyph d="M285 -4H154Q79 -4 46 33.5Q13 71 27 142L36 188H87L75 132Q65 87 85.5 64.5Q106 42 158 42H286Q328 42 355 63.5Q382 85 391 127L417 248Q427 294 408 316.5Q389 339 340 339H217L226 384H350Q390 384 415 404Q440 424 448 462L469 559Q480 607 459.5 631Q439 655 387 655H274Q231 655 205.5 636.5Q180 618 172 581L156 509H106L121 583Q132 641 171.5 671Q211 701 275 701H392Q470 701 502.5 662Q535 623 519 549L501 466Q492 424 469.5 398Q447 372 411 361Q449 349 463 318.5Q477 288 467 241L442 123Q429 61 389 28.5Q349 -4 285 -4Z" glyph-name="three" horiz-adv-x="550" unicode="3" /><glyph d="M144 -2H65Q24 -2 5.5 19Q-13 40 -3 78L3 102H45L40 78Q35 54 44 44Q53 34 78 34H142Q163 34 175.5 44Q188 54 193 75L205 132Q210 154 201 164.5Q192 175 169 175H102L108 207H176Q195 207 206.5 216.5Q218 226 222 244L231 288Q236 312 226.5 323.5Q217 335 193 335H136Q117 335 104.5 326Q92 317 88 300L81 268H40L47 304Q53 336 76 354Q99 372 134 372H204Q245 372 263 350Q281 328 273 287L265 247Q260 224 248.5 210.5Q237 197 218 192Q237 185 244 168.5Q251 152 246 126L233 66Q226 32 203.5 15Q181 -2 144 -2Z" glyph-name="three.denominator" horiz-adv-x="331" unicode="&#63064;" /><glyph d="M111 -152H32Q-9 -152 -27.5 -131Q-46 -110 -36 -72L-30 -48H12L7 -72Q2 -96 11 -106Q20 -116 45 -116H109Q130 -116 142.5 -106Q155 -96 160 -75L172 -18Q177 4 168 14.5Q159 25 136 25H69L75 57H143Q162 57 173.5 66.5Q185 76 189 94L198 138Q203 162 193.5 173.5Q184 185 160 185H103Q84 185 71.5 176Q59 167 55 150L48 118H7L14 154Q20 186 43 204Q66 222 101 222H171Q212 222 230 200Q248 178 240 137L232 97Q227 74 215.5 60.5Q204 47 185 42Q204 35 211 18.5Q218 2 213 -24L200 -84Q193 -118 170.5 -135Q148 -152 111 -152Z" glyph-name="three.inferior" horiz-adv-x="332" unicode="&#8323;" /><glyph d="M213 326H134Q93 326 74.5 347Q56 368 66 406L72 430H114L109 406Q104 382 113 372Q122 362 147 362H211Q232 362 244.5 372Q257 382 262 403L274 460Q279 482 270 492.5Q261 503 238 503H171L177 535H245Q264 535 275.5 544.5Q287 554 291 572L300 616Q305 640 295.5 651.5Q286 663 262 663H205Q186 663 173.5 654Q161 645 157 628L150 596H109L116 632Q122 664 145 682Q168 700 203 700H273Q314 700 332 678Q350 656 342 615L334 575Q329 552 317.5 538.5Q306 525 287 520Q306 513 313 496.5Q320 480 315 454L302 394Q295 360 272.5 343Q250 326 213 326Z" glyph-name="three.numerator" horiz-adv-x="332" unicode="&#63076;" /><glyph d="M303 -4H172Q97 -4 64 33.5Q31 71 45 142L54 188H105L93 132Q83 87 103.5 64.5Q124 42 176 42H304Q346 42 373 63.5Q400 85 409 127L435 248Q445 294 426 316.5Q407 339 358 339H235L244 384H368Q408 384 433 404Q458 424 466 462L487 559Q498 607 477.5 631Q457 655 405 655H292Q249 655 223.5 636.5Q198 618 190 581L174 509H124L139 583Q150 641 189.5 671Q229 701 293 701H410Q488 701 520.5 662Q553 623 537 549L519 466Q510 424 487.5 398Q465 372 429 361Q467 349 481 318.5Q495 288 485 241L460 123Q447 61 407 28.5Q367 -4 303 -4Z" glyph-name="three.tab" horiz-adv-x="586" unicode="&#65299;" /><glyph d="M619 132 612 98H571L550 0H510L531 98H346L352 132L591 371H629L578 132ZM396 132H538L575 310ZM703 701 129 -4H81L655 701ZM216 326H137Q96 326 77.5 347Q59 368 69 406L75 430H117L112 406Q107 382 116 372Q125 362 150 362H214Q235 362 247.5 372Q260 382 265 403L277 460Q282 482 273 492.5Q264 503 241 503H174L180 535H248Q267 535 278.5 544.5Q290 554 294 572L303 616Q308 640 298.5 651.5Q289 663 265 663H208Q189 663 176.5 654Q164 645 160 628L153 596H112L119 632Q125 664 148 682Q171 700 206 700H276Q317 700 335 678Q353 656 345 615L337 575Q332 552 320.5 538.5Q309 525 290 520Q309 513 316 496.5Q323 480 318 454L305 394Q298 360 275.5 343Q253 326 216 326Z" glyph-name="threequarters" horiz-adv-x="692" unicode="&#190;" /><glyph d="M245 477H166Q125 477 106.5 498Q88 519 98 557L104 581H146L141 557Q136 533 145 523Q154 513 179 513H243Q264 513 276.5 523Q289 533 294 554L306 611Q311 633 302 643.5Q293 654 270 654H203L209 686H277Q296 686 307.5 695.5Q319 705 323 723L332 767Q337 791 327.5 802.5Q318 814 294 814H237Q218 814 205.5 805Q193 796 189 779L182 747H141L148 783Q154 815 177 833Q200 851 235 851H305Q346 851 364 829Q382 807 374 766L366 726Q361 703 349.5 689.5Q338 676 319 671Q338 664 345 647.5Q352 631 347 605L334 545Q327 511 304.5 494Q282 477 245 477Z" glyph-name="threesuperior" horiz-adv-x="332" unicode="&#179;" /><glyph d="M344 628H361Q377 628 386.5 635Q396 642 399 656L408 697H443L432 647Q425 619 408 605.5Q391 592 362 592H337Q323 592 310 597Q297 602 288 610L244 646Q237 652 227 656Q217 660 208 660H192Q175 660 166 653.5Q157 647 153 632L144 592H110L120 638Q126 667 144.5 682Q163 697 192 697H217Q229 697 240.5 693Q252 689 265 679L308 642Q317 635 326.5 631.5Q336 628 344 628Z" glyph-name="tilde" horiz-adv-x="416" unicode="&#732;" /><glyph d="M327 792H344Q360 792 369.5 799Q379 806 382 820L391 860H426L415 811Q408 782 391 768.5Q374 755 345 755H320Q307 755 294.5 759.5Q282 764 271 773L227 810Q220 816 210 820Q200 824 191 824H175Q158 824 149 817Q140 810 136 795L127 755H93L103 801Q109 830 127 845Q145 860 175 860H200Q213 860 225 855.5Q237 851 248 842L291 806Q300 799 309.5 795.5Q319 792 327 792Z" glyph-name="tilde.case" horiz-adv-x="348" /><glyph d="M401 697V661H276V247H236V661H111V697ZM674 404H640L517 623V247H479V697H517L657 447L796 697H835V247H796V624Z" glyph-name="trademark" horiz-adv-x="898" unicode="&#8482;" /><glyph d="M179 569 160 479H109L129 571Q143 636 182 668.5Q221 701 286 701H405Q482 701 515 660.5Q548 620 531 545L511 454Q502 411 478.5 384.5Q455 358 410 342L165 258Q133 247 117.5 230Q102 213 93 171L67 47H434L423 0H4L41 172Q54 231 78.5 258Q103 285 153 302L396 385Q422 394 437.5 412.5Q453 431 460 461L481 554Q492 605 472.5 630Q453 655 401 655H284Q241 655 214.5 633Q188 611 179 569Z" glyph-name="two" horiz-adv-x="538" unicode="2" /><glyph d="M90 295 80 252H39L49 298Q56 334 79.5 353Q103 372 140 372H208Q250 372 268 349Q286 326 277 284L268 240Q263 217 248 201Q233 185 208 176L86 135Q68 129 58.5 118.5Q49 108 44 86L33 37H228L221 0H-15L3 89Q10 124 26.5 140.5Q43 157 76 168L194 208Q208 212 215.5 220.5Q223 229 226 244L235 287Q240 312 231 323.5Q222 335 197 335H139Q120 335 107.5 325Q95 315 90 295Z" glyph-name="two.denominator" horiz-adv-x="324" unicode="&#63063;" /><glyph d="M58 145 48 102H7L17 148Q24 184 47.5 203Q71 222 108 222H176Q218 222 236 199Q254 176 245 134L236 90Q231 67 216 51Q201 35 176 26L54 -15Q36 -21 26.5 -31.5Q17 -42 12 -64L1 -113H196L189 -150H-47L-29 -61Q-22 -26 -5.5 -9.5Q11 7 44 18L162 58Q176 62 183.5 70.5Q191 79 194 94L203 137Q208 162 199 173.5Q190 185 165 185H107Q88 185 75.5 175Q63 165 58 145Z" glyph-name="two.inferior" horiz-adv-x="323" unicode="&#8322;" /><glyph d="M160 623 150 580H109L119 626Q126 662 149.5 681Q173 700 210 700H278Q320 700 338 677Q356 654 347 612L338 568Q333 545 318 529Q303 513 278 504L156 463Q138 457 128.5 446.5Q119 436 114 414L103 365H298L291 328H55L73 417Q80 452 96.5 468.5Q113 485 146 496L264 536Q278 540 285.5 548.5Q293 557 296 572L305 615Q310 640 301 651.5Q292 663 267 663H209Q190 663 177.5 653Q165 643 160 623Z" glyph-name="two.numerator" horiz-adv-x="324" unicode="&#63075;" /><glyph d="M203 569 184 479H133L153 571Q167 636 206 668.5Q245 701 310 701H429Q506 701 539 660.5Q572 620 555 545L535 454Q526 411 502.5 384.5Q479 358 434 342L189 258Q157 247 141.5 230.5Q126 214 117 171L91 47H457L447 0H28L65 172Q78 231 102.5 258Q127 285 177 302L420 385Q446 394 461.5 412.5Q477 431 484 461L505 554Q516 605 496 630Q476 655 425 655H308Q265 655 238.5 633Q212 611 203 569Z" glyph-name="two.tab" horiz-adv-x="586" unicode="&#65298;" /><glyph d="M192 774 182 731H141L151 777Q158 813 181.5 832Q205 851 242 851H310Q352 851 370 828Q388 805 379 763L370 719Q365 696 350 680Q335 664 310 655L188 614Q170 608 160.5 597.5Q151 587 146 565L135 516H330L323 479H87L105 568Q112 603 128.5 619.5Q145 636 178 647L296 687Q310 691 317.5 699.5Q325 708 328 723L337 766Q342 791 333 802.5Q324 814 299 814H241Q222 814 209.5 804Q197 794 192 774Z" glyph-name="twosuperior" horiz-adv-x="324" unicode="&#178;" /><glyph d="M35 129 114 500H164L84 125Q75 83 92 62Q109 41 152 41H209Q228 41 240.5 44Q253 47 275 59L355 105L439 500H489L382 0H338L347 56L281 18Q258 5 241 0.5Q224 -4 200 -4H141Q77 -4 49.5 30.5Q22 65 35 129Z" glyph-name="u" horiz-adv-x="518" unicode="u" /><glyph d="M353 697H404L401 685L317 565H280ZM35 129 114 500H164L84 125Q75 83 92 62Q109 41 152 41H209Q228 41 240.5 44Q253 47 275 59L355 105L439 500H489L382 0H338L347 56L281 18Q258 5 241 0.5Q224 -4 200 -4H141Q77 -4 49.5 30.5Q22 65 35 129Z" glyph-name="uacute" horiz-adv-x="518" unicode="&#250;" /><glyph d="M35 129 114 500H164L84 125Q75 83 92 62Q109 41 152 41H209Q228 41 240.5 44Q253 47 275 59L355 105L439 500H489L382 0H338L347 56L281 18Q258 5 241 0.5Q224 -4 200 -4H141Q77 -4 49.5 30.5Q22 65 35 129ZM416 653 428 710H464L451 649Q442 607 414.5 586.5Q387 566 341 566H299Q246 566 223.5 591Q201 616 211 664L221 710H257L246 661Q240 629 254 613.5Q268 598 304 598H342Q373 598 392 612Q411 626 416 653Z" glyph-name="ubreve" horiz-adv-x="518" unicode="&#365;" /><glyph d="M410 565H376L329 663L240 565H202L313 697H355ZM35 129 114 500H164L84 125Q75 83 92 62Q109 41 152 41H209Q228 41 240.5 44Q253 47 275 59L355 105L439 500H489L382 0H338L347 56L281 18Q258 5 241 0.5Q224 -4 200 -4H141Q77 -4 49.5 30.5Q22 65 35 129Z" glyph-name="ucircumflex" horiz-adv-x="518" unicode="&#251;" /><glyph d="M282 600H238L253 670H297ZM381 600H337L353 670H396ZM35 129 114 500H164L84 125Q75 83 92 62Q109 41 152 41H209Q228 41 240.5 44Q253 47 275 59L355 105L439 500H489L382 0H338L347 56L281 18Q258 5 241 0.5Q224 -4 200 -4H141Q77 -4 49.5 30.5Q22 65 35 129Z" glyph-name="udieresis" horiz-adv-x="518" unicode="&#252;" /><glyph d="M35 129 114 500H164L84 125Q75 83 92 62Q109 41 152 41H209Q228 41 240.5 44Q253 47 275 59L355 105L439 500H489L382 0H338L347 56L281 18Q258 5 241 0.5Q224 -4 200 -4H141Q77 -4 49.5 30.5Q22 65 35 129ZM286 565 220 685 223 697H271L321 565Z" glyph-name="ugrave" horiz-adv-x="518" unicode="&#249;" /><glyph d="M35 129 114 500H164L84 125Q75 83 92 62Q109 41 152 41H209Q228 41 240.5 44Q253 47 275 59L355 105L439 500H489L382 0H338L347 56L281 18Q258 5 241 0.5Q224 -4 200 -4H141Q77 -4 49.5 30.5Q22 65 35 129ZM319 697H364L361 685L278 565H247ZM428 697H474L471 685L357 565H325Z" glyph-name="uhungarumlaut" horiz-adv-x="518" unicode="&#369;" /><glyph d="M35 129 114 500H164L84 125Q75 83 92 62Q109 41 152 41H209Q228 41 240.5 44Q253 47 275 59L355 105L439 500H489L382 0H338L347 56L281 18Q258 5 241 0.5Q224 -4 200 -4H141Q77 -4 49.5 30.5Q22 65 35 129ZM448 602H196L205 639H457Z" glyph-name="umacron" horiz-adv-x="518" unicode="&#363;" /><glyph d="M-47 -150 -38 -109H330L321 -150Z" glyph-name="underscore" horiz-adv-x="463" unicode="_" /><glyph glyph-name="uni00A0" horiz-adv-x="245" unicode="&#160;" /><glyph d="M60 265 70 309H330L320 265Z" glyph-name="uni00AD" horiz-adv-x="394" unicode="&#173;" /><glyph d="M220 -37H274L270 -54L193 -190H160ZM526 333 483 126Q470 61 430.5 28.5Q391 -4 326 -4H175Q97 -4 65 36.5Q33 77 49 155L138 571Q152 636 191 668.5Q230 701 295 701H447Q525 701 557.5 660Q590 619 572 542L562 499H511L524 554Q536 604 515 629.5Q494 655 442 655H294Q252 655 225 633Q198 611 189 569L98 143Q87 93 107.5 67.5Q128 42 179 42H327Q369 42 396.5 64Q424 86 433 128L467 290H329L338 333Z" glyph-name="uni0122" horiz-adv-x="586" unicode="&#290;" /><glyph d="M330 572H276L280 589L357 725H390ZM225 -194H109Q40 -194 9.5 -160Q-21 -126 -9 -63L-7 -53H42L39 -67Q30 -110 48 -131Q66 -152 111 -152H223Q260 -152 285 -132.5Q310 -113 317 -79L350 79L287 42Q265 29 247.5 24.5Q230 20 206 20H144Q80 20 51.5 56Q23 92 37 157L85 387Q97 444 133.5 474Q170 504 227 504H308Q330 504 345 499.5Q360 495 379 481L430 442L445 500H489L366 -81Q354 -136 317.5 -165Q281 -194 225 -194ZM156 65H215Q234 65 246.5 68Q259 71 280 83L361 130L418 397L362 440Q346 452 334 455.5Q322 459 302 459H228Q191 459 166.5 438.5Q142 418 134 382L86 153Q77 109 94.5 87Q112 65 156 65Z" glyph-name="uni0123" horiz-adv-x="519" unicode="&#291;" /><glyph d="M219 -37H273L269 -54L192 -190H159ZM450 181 347 340H152L79 0H28L176 697H227L161 384H354L517 513Q528 522 535 534Q542 546 545 562L574 697H625L594 552Q590 533 580.5 517Q571 501 558 491L395 361L499 201Q508 187 510 173.5Q512 160 509 145L479 0H428L456 136Q459 151 458 160.5Q457 170 450 181Z" glyph-name="uni0136" horiz-adv-x="602" unicode="&#310;" /><glyph d="M172 -37H226L222 -54L145 -190H112ZM344 124 239 244H112L60 0H10L158 697H208L121 288H241L401 403Q416 414 423 423.5Q430 433 433 446L444 500H492L479 439Q475 419 464 403.5Q453 388 432 374L282 267L388 146Q404 127 407.5 112Q411 97 407 76L391 0H343L357 73Q361 93 358 102.5Q355 112 344 124Z" glyph-name="uni0137" horiz-adv-x="500" unicode="&#311;" /><glyph d="M198 -37H252L248 -54L171 -190H138ZM423 0H28L176 697H227L89 46H433Z" glyph-name="uni013B" horiz-adv-x="491" unicode="&#315;" /><glyph d="M4 -37H58L54 -54L-23 -190H-56ZM12 0 160 697H209L61 0Z" glyph-name="uni013C" horiz-adv-x="199" unicode="&#316;" /><glyph d="M230 -37H284L280 -54L203 -190H170ZM479 0H432L204 605L76 0H28L176 697H222L450 92L579 697H627Z" glyph-name="uni0145" horiz-adv-x="631" unicode="&#325;" /><glyph d="M179 -37H233L229 -54L152 -190H119ZM352 459H290Q271 459 259 456Q247 453 225 440L143 394L60 0H10L117 500H161L152 443L219 481Q244 496 260.5 500Q277 504 299 504H363Q427 504 454.5 469Q482 434 469 370L390 0H340L420 374Q429 417 412 438Q395 459 352 459Z" glyph-name="uni0146" horiz-adv-x="523" unicode="&#326;" /><glyph d="M202 -37H256L252 -54L175 -190H142ZM453 0H397L352 290H141L79 0H28L176 697H439Q516 697 548 657.5Q580 618 564 542L538 420Q526 361 493 329Q460 297 406 291ZM434 651H218L151 336H382Q424 336 451 358Q478 380 487 422L515 554Q526 603 506 627Q486 651 434 651Z" glyph-name="uni0156" horiz-adv-x="574" unicode="&#342;" /><glyph d="M3 -37H57L53 -54L-24 -190H-57ZM140 376 60 0H10L117 500H161L150 429L233 481Q255 495 272 499.5Q289 504 313 504H379L369 459H306Q285 459 272.5 455.5Q260 452 242 440Z" glyph-name="uni0157" horiz-adv-x="342" unicode="&#343;" /><glyph d="M550 697 540 651H344L206 0H193L154 -57H200Q237 -57 253.5 -73Q270 -89 263 -120L259 -135Q253 -161 236 -173.5Q219 -186 188 -186H70L77 -155H188Q203 -155 212 -148.5Q221 -142 224 -129L227 -118Q231 -102 224 -95Q217 -88 196 -88H123Q114 -88 111 -85Q108 -82 109 -75L111 -69Q112 -66 113 -63Q114 -60 118 -54L156 0H155L292 651H96L106 697Z" glyph-name="uni0162" horiz-adv-x="486" unicode="&#354;" /><glyph d="M189 45H259L250 0H177Q168 0 163.5 0Q159 0 155 1L115 -57H161Q198 -57 214.5 -73Q231 -89 224 -120L220 -135Q214 -161 197 -173.5Q180 -186 149 -186H31L38 -155H149Q164 -155 173 -148.5Q182 -142 185 -129L188 -118Q192 -102 185 -95Q178 -88 157 -88H84Q75 -88 72 -85Q69 -82 70 -75L72 -69Q73 -66 74 -63Q75 -60 79 -54L123 8Q87 22 73.5 54.5Q60 87 70 136L138 453H51L61 497H147L177 640H227L197 497H354L344 453H187L119 133Q110 88 127 66.5Q144 45 189 45Z" glyph-name="uni0163" horiz-adv-x="325" unicode="&#355;" /><glyph d="M190 -37H244L240 -54L163 -190H130ZM110 506 127 587Q139 644 178.5 672.5Q218 701 283 701H432Q509 701 541.5 666Q574 631 559 564L545 500H494L510 574Q519 615 498 635.5Q477 656 426 656H282Q239 656 212 638Q185 620 178 585L160 499Q153 466 164 448Q175 430 205 421L424 360Q468 348 485.5 316Q503 284 493 236L467 110Q456 53 417 24.5Q378 -4 312 -4H152Q75 -4 42 31Q9 66 24 133L37 191H88L73 123Q64 81 84.5 61Q105 41 157 41H311Q355 41 382.5 60Q410 79 417 114L443 240Q449 268 439.5 286Q430 304 406 311L184 375Q137 388 118 421.5Q99 455 110 506Z" glyph-name="uni0218" horiz-adv-x="569" unicode="&#536;" /><glyph d="M145 -37H199L195 -54L118 -190H85ZM16 111 25 155H74L62 100Q55 69 72 52.5Q89 36 127 36H248Q286 36 309.5 52Q333 68 340 99L353 161Q357 179 349.5 191.5Q342 204 324 208L136 256Q97 266 81.5 288.5Q66 311 73 348L84 403Q94 452 130 478Q166 504 225 504H337Q402 504 430 475Q458 446 446 392L438 356H389L399 400Q406 431 389.5 447Q373 463 334 463H223Q185 463 161.5 447Q138 431 132 401L120 344Q116 325 123 314.5Q130 304 151 299L344 249Q379 240 393.5 217Q408 194 401 160L388 96Q378 48 341.5 22Q305 -4 247 -4H125Q59 -4 31.5 25Q4 54 16 111Z" glyph-name="uni0219" horiz-adv-x="485" unicode="&#537;" /><glyph d="M147 -37H201L197 -54L120 -190H87ZM550 697 540 651H344L206 0H155L292 651H96L106 697Z" glyph-name="uni021A" horiz-adv-x="486" unicode="&#538;" /><glyph d="M101 -37H155L151 -54L74 -190H41ZM189 45H259L250 0H177Q112 0 84 35.5Q56 71 70 136L138 453H51L61 497H147L177 640H227L197 497H354L344 453H187L119 133Q110 88 127 66.5Q144 45 189 45Z" glyph-name="uni021B" horiz-adv-x="325" unicode="&#539;" /><glyph d="M-97 -190H-158L-149 -145H-98Q-60 -145 -36 -125.5Q-12 -106 -4 -68L117 500H166L44 -72Q32 -131 -3.5 -160.5Q-39 -190 -97 -190Z" glyph-name="uni0237" horiz-adv-x="196" unicode="&#567;" /><glyph d="M357 602H105L113 639H365Z" glyph-name="uni02C9" horiz-adv-x="340" unicode="&#713;" /><glyph d="M497 0H-27L354 697H411ZM442 45 370 633 49 45Z" glyph-name="uni0394" horiz-adv-x="595" unicode="&#916;" /><glyph d="M195 43 186 0H-9L1 40H101Q70 61 61 99.5Q52 138 64 196L144 571Q158 636 197 668.5Q236 701 301 701H464Q541 701 573 660Q605 619 589 542L510 170Q499 121 477.5 89Q456 57 421 40H505L496 0H302L311 43Q375 45 409.5 73.5Q444 102 457 165L540 554Q551 605 530.5 630Q510 655 459 655H300Q258 655 231 633Q204 611 195 569L113 183Q98 111 117.5 78Q137 45 195 43Z" glyph-name="uni03A9" horiz-adv-x="623" unicode="&#937;" /><glyph d="M64 29Q61 8 54 -29Q47 -66 44 -78L20 -190H-30L117 500H166L87 126Q78 83 94.5 62Q111 41 154 41H212Q230 41 242.5 44Q255 47 277 59L358 105L442 500H491L385 0H340L350 56L283 18Q260 4 243 0Q226 -4 203 -4H144Q115 -4 94.5 4.5Q74 13 64 29Z" glyph-name="uni03BC" horiz-adv-x="521" unicode="&#956;" /><glyph d="M87 146 105 230 20 175 5 212 116 285 180 580Q192 638 228.5 667.5Q265 697 323 697H378Q450 697 479.5 664.5Q509 632 494 569L486 536Q478 504 451 471.5Q424 439 387 415L163 269L135 134Q125 88 143.5 65Q162 42 208 42H371L362 -3H205Q134 -3 103 36Q72 75 87 146ZM229 578 175 323 353 440Q387 463 410.5 489Q434 515 439 538L447 572Q457 614 439.5 634.5Q422 655 374 655H324Q286 655 261.5 635Q237 615 229 578Z" glyph-name="uni2113" horiz-adv-x="462" unicode="&#8467;" /><glyph d="M51 328 59 365H151L214 660H121L129 697H263L193 365H284L276 328ZM688 701 114 -4H66L640 701ZM546 -2H467Q426 -2 407.5 19Q389 40 399 78L405 102H447L442 78Q437 54 446 44Q455 34 480 34H544Q565 34 577.5 44Q590 54 595 75L607 132Q612 154 603 164.5Q594 175 571 175H504L510 207H578Q597 207 608.5 216.5Q620 226 624 244L633 288Q638 312 628.5 323.5Q619 335 595 335H538Q519 335 506.5 326Q494 317 490 300L483 268H442L449 304Q455 336 478 354Q501 372 536 372H606Q647 372 665 350Q683 328 675 287L667 247Q662 224 650.5 210.5Q639 197 620 192Q639 185 646 168.5Q653 152 648 126L635 66Q628 32 605.5 15Q583 -2 546 -2Z" glyph-name="uni2153" horiz-adv-x="730" unicode="&#8531;" /><glyph d="M165 623 155 580H114L124 626Q131 662 154.5 681Q178 700 215 700H283Q325 700 343 677Q361 654 352 612L343 568Q338 545 323 529Q308 513 283 504L161 463Q143 457 133.5 446.5Q124 436 119 414L108 365H303L296 328H60L78 417Q85 452 101.5 468.5Q118 485 151 496L269 536Q283 540 290.5 548.5Q298 557 301 572L310 615Q315 640 306 651.5Q297 663 272 663H214Q195 663 182.5 653Q170 643 165 623ZM697 701 123 -4H75L649 701ZM557 -2H478Q437 -2 418.5 19Q400 40 410 78L416 102H458L453 78Q448 54 457 44Q466 34 491 34H555Q576 34 588.5 44Q601 54 606 75L618 132Q623 154 614 164.5Q605 175 582 175H515L521 207H589Q608 207 619.5 216.5Q631 226 635 244L644 288Q649 312 639.5 323.5Q630 335 606 335H549Q530 335 517.5 326Q505 317 501 300L494 268H453L460 304Q466 336 489 354Q512 372 547 372H617Q658 372 676 350Q694 328 686 287L678 247Q673 224 661.5 210.5Q650 197 631 192Q650 185 657 168.5Q664 152 659 126L646 66Q639 32 616.5 15Q594 -2 557 -2Z" glyph-name="uni2154" horiz-adv-x="741" unicode="&#8532;" /><glyph d="M564 -2H491Q448 -2 430 19Q412 40 420 79L425 101H466L461 77Q456 55 465 44.5Q474 34 499 34H561Q582 34 594.5 43.5Q607 53 611 72L625 137Q630 160 620.5 171.5Q611 183 586 183H450L489 369H704L697 333H521L497 218H597Q638 218 656 195.5Q674 173 665 133L652 69Q644 33 622 15.5Q600 -2 564 -2ZM50 328 58 365H150L213 660H120L128 697H262L192 365H283L275 328ZM697 701 123 -4H75L649 701Z" glyph-name="uni2155" horiz-adv-x="747" unicode="&#8533;" /><glyph d="M165 623 155 580H114L124 626Q131 662 154.5 681Q178 700 215 700H283Q325 700 343 677Q361 654 352 612L343 568Q338 545 323 529Q308 513 283 504L161 463Q143 457 133.5 446.5Q124 436 119 414L108 365H303L296 328H60L78 417Q85 452 101.5 468.5Q118 485 151 496L269 536Q283 540 290.5 548.5Q298 557 301 572L310 615Q315 640 306 651.5Q297 663 272 663H214Q195 663 182.5 653Q170 643 165 623ZM574 -2H501Q458 -2 440 19Q422 40 430 79L435 101H476L471 77Q466 55 475 44.5Q484 34 509 34H571Q592 34 604.5 43.5Q617 53 621 72L635 137Q640 160 630.5 171.5Q621 183 596 183H460L499 369H714L707 333H531L507 218H607Q648 218 666 195.5Q684 173 675 133L662 69Q654 33 632 15.5Q610 -2 574 -2ZM708 701 134 -4H86L660 701Z" glyph-name="uni2156" horiz-adv-x="757" unicode="&#8534;" /><glyph d="M565 -2H492Q449 -2 431 19Q413 40 421 79L426 101H467L462 77Q457 55 466 44.5Q475 34 500 34H562Q583 34 595.5 43.5Q608 53 612 72L626 137Q631 160 621.5 171.5Q612 183 587 183H451L490 369H705L698 333H522L498 218H598Q639 218 657 195.5Q675 173 666 133L653 69Q645 33 623 15.5Q601 -2 565 -2ZM699 701 125 -4H77L651 701ZM217 326H138Q97 326 78.5 347Q60 368 70 406L76 430H118L113 406Q108 382 117 372Q126 362 151 362H215Q236 362 248.5 372Q261 382 266 403L278 460Q283 482 274 492.5Q265 503 242 503H175L181 535H249Q268 535 279.5 544.5Q291 554 295 572L304 616Q309 640 299.5 651.5Q290 663 266 663H209Q190 663 177.5 654Q165 645 161 628L154 596H113L120 632Q126 664 149 682Q172 700 207 700H277Q318 700 336 678Q354 656 346 615L338 575Q333 552 321.5 538.5Q310 525 291 520Q310 513 317 496.5Q324 480 319 454L306 394Q299 360 276.5 343Q254 326 217 326Z" glyph-name="uni2157" horiz-adv-x="748" unicode="&#8535;" /><glyph d="M330 460 323 426H282L261 328H221L242 426H57L63 460L302 699H340L289 460ZM107 460H249L286 638ZM697 701 123 -4H75L649 701ZM564 -2H491Q448 -2 430 19Q412 40 420 79L425 101H466L461 77Q456 55 465 44.5Q474 34 499 34H561Q582 34 594.5 43.5Q607 53 611 72L625 137Q630 160 620.5 171.5Q611 183 586 183H450L489 369H704L697 333H521L497 218H597Q638 218 656 195.5Q674 173 665 133L652 69Q644 33 622 15.5Q600 -2 564 -2Z" glyph-name="uni2158" horiz-adv-x="748" unicode="&#8536;" /><glyph d="M661 130 649 70Q642 35 619 16.5Q596 -2 560 -2H485Q443 -2 425.5 20Q408 42 417 85L462 299Q470 335 492 353.5Q514 372 550 372H623Q665 372 684 350.5Q703 329 693 290L688 270H646L651 292Q656 315 646.5 325.5Q637 336 613 336H554Q535 336 522.5 325.5Q510 315 505 295L486 210H597Q636 210 652.5 189.5Q669 169 661 130ZM495 34H557Q577 34 589.5 44.5Q602 55 607 75L619 131Q624 153 615.5 164Q607 175 584 175H479L459 81Q454 57 463 45.5Q472 34 495 34ZM50 328 58 365H150L213 660H120L128 697H262L192 365H283L275 328ZM699 701 125 -4H77L651 701Z" glyph-name="uni2159" horiz-adv-x="744" unicode="&#8537;" /><glyph d="M655 130 643 70Q636 35 613 16.5Q590 -2 554 -2H479Q437 -2 419.5 20Q402 42 411 85L456 299Q464 335 486 353.5Q508 372 544 372H617Q659 372 678 350.5Q697 329 687 290L682 270H640L645 292Q650 315 640.5 325.5Q631 336 607 336H548Q529 336 516.5 325.5Q504 315 499 295L480 210H591Q630 210 646.5 189.5Q663 169 655 130ZM489 34H551Q571 34 583.5 44.5Q596 55 601 75L613 131Q618 153 609.5 164Q601 175 578 175H473L453 81Q448 57 457 45.5Q466 34 489 34ZM214 326H141Q98 326 80 347Q62 368 70 407L75 429H116L111 405Q106 383 115 372.5Q124 362 149 362H211Q232 362 244.5 371.5Q257 381 261 400L275 465Q280 488 270.5 499.5Q261 511 236 511H100L139 697H354L347 661H171L147 546H247Q288 546 306 523.5Q324 501 315 461L302 397Q294 361 272 343.5Q250 326 214 326ZM694 701 120 -4H72L646 701Z" glyph-name="uni215A" horiz-adv-x="738" unicode="&#8538;" /><glyph d="M561 -2H482Q442 -2 425 19.5Q408 41 416 82L427 134Q433 160 447.5 175.5Q462 191 486 195Q468 203 461.5 220Q455 237 461 263L469 301Q477 336 498.5 354Q520 372 555 372H623Q664 372 681 350Q698 328 689 287L681 251Q675 226 662.5 212Q650 198 629 192Q649 185 657 167Q665 149 660 123L649 67Q642 34 619.5 16Q597 -2 561 -2ZM508 295 501 260Q496 235 505.5 222Q515 209 540 209H590Q610 209 623 220Q636 231 641 251L649 288Q654 313 644.5 324.5Q635 336 610 336H559Q538 336 525 325.5Q512 315 508 295ZM468 131 456 81Q450 57 459.5 45Q469 33 494 33H559Q579 33 591.5 43.5Q604 54 609 74L620 124Q626 150 616.5 162Q607 174 580 174H519Q498 174 485.5 163.5Q473 153 468 131ZM50 328 58 365H150L213 660H120L128 697H262L192 365H283L275 328ZM699 701 125 -4H77L651 701Z" glyph-name="uni215B" horiz-adv-x="744" unicode="&#8539;" /><glyph d="M564 -2H485Q445 -2 428 19.5Q411 41 419 82L430 134Q436 160 450.5 175.5Q465 191 489 195Q471 203 464.5 220Q458 237 464 263L472 301Q480 336 501.5 354Q523 372 558 372H626Q667 372 684 350Q701 328 692 287L684 251Q678 226 665.5 212Q653 198 632 192Q652 185 660 167Q668 149 663 123L652 67Q645 34 622.5 16Q600 -2 564 -2ZM511 295 504 260Q499 235 508.5 222Q518 209 543 209H593Q613 209 626 220Q639 231 644 251L652 288Q657 313 647.5 324.5Q638 336 613 336H562Q541 336 528 325.5Q515 315 511 295ZM471 131 459 81Q453 57 462.5 45Q472 33 497 33H562Q582 33 594.5 43.5Q607 54 612 74L623 124Q629 150 619.5 162Q610 174 583 174H522Q501 174 488.5 163.5Q476 153 471 131ZM702 701 128 -4H80L654 701ZM216 326H137Q96 326 77.5 347Q59 368 69 406L75 430H117L112 406Q107 382 116 372Q125 362 150 362H214Q235 362 247.5 372Q260 382 265 403L277 460Q282 482 273 492.5Q264 503 241 503H174L180 535H248Q267 535 278.5 544.5Q290 554 294 572L303 616Q308 640 298.5 651.5Q289 663 265 663H208Q189 663 176.5 654Q164 645 160 628L153 596H112L119 632Q125 664 148 682Q171 700 206 700H276Q317 700 335 678Q353 656 345 615L337 575Q332 552 320.5 538.5Q309 525 290 520Q309 513 316 496.5Q323 480 318 454L305 394Q298 360 275.5 343Q253 326 216 326Z" glyph-name="uni215C" horiz-adv-x="747" unicode="&#8540;" /><glyph d="M214 326H141Q98 326 80 347Q62 368 70 407L75 429H116L111 405Q106 383 115 372.5Q124 362 149 362H211Q232 362 244.5 371.5Q257 381 261 400L275 465Q280 488 270.5 499.5Q261 511 236 511H100L139 697H354L347 661H171L147 546H247Q288 546 306 523.5Q324 501 315 461L302 397Q294 361 272 343.5Q250 326 214 326ZM559 -2H480Q440 -2 423 19.5Q406 41 414 82L425 134Q431 160 445.5 175.5Q460 191 484 195Q466 203 459.5 220Q453 237 459 263L467 301Q475 336 496.5 354Q518 372 553 372H621Q662 372 679 350Q696 328 687 287L679 251Q673 226 660.5 212Q648 198 627 192Q647 185 655 167Q663 149 658 123L647 67Q640 34 617.5 16Q595 -2 559 -2ZM506 295 499 260Q494 235 503.5 222Q513 209 538 209H588Q608 209 621 220Q634 231 639 251L647 288Q652 313 642.5 324.5Q633 336 608 336H557Q536 336 523 325.5Q510 315 506 295ZM466 131 454 81Q448 57 457.5 45Q467 33 492 33H557Q577 33 589.5 43.5Q602 54 607 74L618 124Q624 150 614.5 162Q605 174 578 174H517Q496 174 483.5 163.5Q471 153 466 131ZM696 701 122 -4H74L648 701Z" glyph-name="uni215D" horiz-adv-x="742" unicode="&#8541;" /><glyph d="M354 665 133 328H86L307 660H109L116 697H361ZM627 701 53 -4H5L579 701ZM489 -2H410Q370 -2 353 19.5Q336 41 344 82L355 134Q361 160 375.5 175.5Q390 191 414 195Q396 203 389.5 220Q383 237 389 263L397 301Q405 336 426.5 354Q448 372 483 372H551Q592 372 609 350Q626 328 617 287L609 251Q603 226 590.5 212Q578 198 557 192Q577 185 585 167Q593 149 588 123L577 67Q570 34 547.5 16Q525 -2 489 -2ZM436 295 429 260Q424 235 433.5 222Q443 209 468 209H518Q538 209 551 220Q564 231 569 251L577 288Q582 313 572.5 324.5Q563 336 538 336H487Q466 336 453 325.5Q440 315 436 295ZM396 131 384 81Q378 57 387.5 45Q397 33 422 33H487Q507 33 519.5 43.5Q532 54 537 74L548 124Q554 150 544.5 162Q535 174 508 174H447Q426 174 413.5 163.5Q401 153 396 131Z" glyph-name="uni215E" horiz-adv-x="673" unicode="&#8542;" /><glyph d="M49 328 57 365H149L212 660H119L127 697H261L191 365H282L274 328ZM682 701 108 -4H60L634 701Z" glyph-name="uni215F" horiz-adv-x="604" unicode="&#8543;" /><glyph d="M567 701 -7 -4H-55L519 701Z" glyph-name="uni2215" horiz-adv-x="489" unicode="&#8725;" /><glyph d="M128.5976 174H46.4546L71.8442 296.0119H155.4808Z" glyph-name="uni2219" horiz-adv-x="227" unicode="&#8729;" /><glyph d="M340 488H378Q384 488 386.5 485.5Q389 483 389 477V471Q405 483 418.5 487.5Q432 492 447 492Q463 492 476.5 485.5Q490 479 498 466Q514 480 529 486Q544 492 562 492Q588 492 603.5 477Q619 462 619 438V306Q619 300 616.5 297.5Q614 295 607 295H569Q562 295 559 297.5Q556 300 556 306V422Q556 432 553 435Q550 438 542 438Q533 438 523 434Q513 430 504 423V306Q504 300 501.5 297.5Q499 295 493 295H455Q448 295 445.5 297.5Q443 300 443 306V422Q443 432 440 435Q437 438 428 438Q419 438 409 433.5Q399 429 391 423V306Q391 300 389 297.5Q387 295 381 295H340Q334 295 331.5 297.5Q329 300 329 306V477Q329 483 331.5 485.5Q334 488 340 488ZM1007 488H1043Q1050 488 1052.5 485.5Q1055 483 1055 477L1056 470Q1071 482 1085 487Q1099 492 1116 492Q1144 492 1158.5 476.5Q1173 461 1173 432V352Q1173 322 1158.5 306Q1144 290 1116 290Q1100 290 1086 295Q1072 300 1058 311V228Q1058 222 1055.5 219.5Q1053 217 1047 217H1007Q1001 217 998.5 219.5Q996 222 996 228V477Q996 483 998.5 485.5Q1001 488 1007 488ZM214 492Q255 492 275.5 477Q296 462 296 431V388Q296 382 293 379.5Q290 377 284 377H191V354Q191 345 196.5 340.5Q202 336 214 336Q226 336 232.5 340.5Q239 345 239 354V355Q239 361 241.5 363.5Q244 366 250 366H282Q288 366 291 363.5Q294 361 294 355V352Q294 321 274 305.5Q254 290 214 290Q173 290 151 306Q129 322 129 352V431Q129 461 150.5 476.5Q172 492 214 492ZM1288 492Q1329 492 1349.5 477Q1370 462 1370 431V388Q1370 382 1367.5 379.5Q1365 377 1359 377H1265V354Q1265 345 1270.5 340.5Q1276 336 1288 336Q1300 336 1306 340.5Q1312 345 1312 354V355Q1312 361 1315 363.5Q1318 366 1324 366H1356Q1362 366 1364.5 363.5Q1367 361 1367 355V352Q1367 321 1347.5 305.5Q1328 290 1288 290Q1247 290 1225.5 306Q1204 322 1204 352V431Q1204 461 1225 476.5Q1246 492 1288 492ZM850 477 872 407Q875 396 877 384.5Q879 373 879 370Q880 371 883 382.5Q886 394 889 405L913 477Q915 484 917.5 486Q920 488 925 488H962Q969 488 971.5 485Q974 482 973 477L889 228Q887 223 883.5 220Q880 217 875 217H847Q840 217 837.5 220Q835 223 836 228L852 287L787 477Q785 482 787.5 485Q790 488 798 488H838Q843 488 845.5 486Q848 484 850 477ZM731 523V487H762Q768 487 770.5 485Q773 483 773 477V450Q773 444 770.5 441.5Q768 439 762 439H731V362Q731 353 737 348.5Q743 344 755 344H765Q771 344 774 341.5Q777 339 777 333V306Q777 300 774 297.5Q771 295 765 295H746Q704 295 686 308.5Q668 322 668 355V439H651Q645 439 642.5 441.5Q640 444 640 450V475Q640 479 642 481.5Q644 484 651 486L667 487H668V523Q668 529 671 532Q674 535 680 535H719Q726 535 728.5 532.5Q731 530 731 523ZM404 195Q438 195 455 183Q472 171 472 147V98Q472 97 471 95.5Q470 94 468 94H354V46Q354 29 366.5 21Q379 13 404 13Q428 13 440 21Q452 29 452 46V54Q452 56 453 57Q454 58 458 58H467Q470 58 471 57Q472 56 472 54V45Q472 20 455 8.5Q438 -3 403 -3Q368 -3 351 9Q334 21 334 45V147Q334 171 351.5 183Q369 195 404 195ZM154 188V171Q171 183 187.5 189Q204 195 221 195Q247 195 261 182.5Q275 170 275 149V5Q275 3 274 1.5Q273 0 271 0H260Q258 0 257 0.5Q256 1 256 5V145Q256 160 246 168Q236 176 217 176Q199 176 182 169.5Q165 163 155 153V5Q155 3 154 1.5Q153 0 151 0H140Q137 0 136 1Q135 2 135 5V188Q135 190 136 191Q137 192 140 192H149Q152 192 153 191Q154 190 154 188ZM556 232V191H603Q606 191 606.5 190Q607 189 607 187V179Q607 176 606 175Q605 174 603 174H556V50Q556 34 568.5 25.5Q581 17 606 17H612Q614 17 615.5 15.5Q617 14 617 12V5Q617 3 615.5 1.5Q614 0 612 0H603Q568 0 552.5 11Q537 22 537 48V174H512Q510 174 509 175Q508 176 508 179V186Q508 188 509 189Q510 190 512 191H537V232Q537 235 537.5 236Q538 237 541 237H552Q553 236 554 234.5Q555 233 556 232ZM404 178Q379 178 366.5 170Q354 162 354 146V110H452V146Q452 162 440 170Q428 178 404 178ZM1095 344Q1104 344 1108 348Q1112 352 1112 361V423Q1112 431 1108 434.5Q1104 438 1095 438Q1088 438 1080.5 435Q1073 432 1058 423V360Q1076 349 1082.5 346.5Q1089 344 1095 344ZM214 446Q202 446 196.5 441.5Q191 437 191 428V417H239V428Q239 437 232.5 441.5Q226 446 214 446ZM1288 446Q1276 446 1270.5 441.5Q1265 437 1265 428V417H1312V428Q1312 437 1306 441.5Q1300 446 1288 446ZM70 35V5Q70 2 69 1Q68 0 65 0H54Q52 0 51 1Q50 2 50 5V35Q50 38 51 39Q52 40 54 40H65Q68 40 69 39Q70 38 70 35Z" glyph-name="uniF8FF" horiz-adv-x="1420" unicode="&#63743;" /><glyph d="M36 129 115 500H165L85 125Q76 83 93 62Q110 41 153 41H210Q229 41 241.5 44Q254 47 276 59L356 105L440 500H490L383 0H375L262 -62Q241 -74 233 -84Q225 -94 221 -109L219 -121Q216 -139 223.5 -146.5Q231 -154 252 -154H348L340 -190H242Q207 -190 190.5 -174.5Q174 -159 178 -130L180 -113Q183 -91 196 -74.5Q209 -58 240 -40L341 14L348 56L282 18Q259 5 242 0.5Q225 -4 201 -4H142Q78 -4 50.5 30.5Q23 65 36 129Z" glyph-name="uogonek" horiz-adv-x="519" unicode="&#371;" /><glyph d="M333 558H299Q259 558 241.5 580Q224 602 232 642L237 666Q245 704 268 722Q291 740 331 740H359Q401 740 420 718Q439 696 429 657L423 632Q415 595 392 576.5Q369 558 333 558ZM304 589H334Q355 589 369.5 601Q384 613 389 634L394 657Q400 684 391 696.5Q382 709 356 709H326Q303 709 289 697.5Q275 686 270 664L265 640Q260 614 269.5 601.5Q279 589 304 589ZM35 129 114 500H164L84 125Q75 83 92 62Q109 41 152 41H209Q228 41 240.5 44Q253 47 275 59L355 105L439 500H489L382 0H338L347 56L281 18Q258 5 241 0.5Q224 -4 200 -4H141Q77 -4 49.5 30.5Q22 65 35 129Z" glyph-name="uring" horiz-adv-x="518" unicode="&#367;" /><glyph d="M35 129 114 500H164L84 125Q75 83 92 62Q109 41 152 41H209Q228 41 240.5 44Q253 47 275 59L355 105L439 500H489L382 0H338L347 56L281 18Q258 5 241 0.5Q224 -4 200 -4H141Q77 -4 49.5 30.5Q22 65 35 129ZM393 628H410Q426 628 435.5 635Q445 642 448 656L457 697H492L481 647Q474 619 457 605.5Q440 592 411 592H386Q372 592 359 597Q346 602 337 610L293 646Q286 652 276 656Q266 660 257 660H241Q224 660 215 653.5Q206 647 202 632L193 592H159L169 638Q175 667 193.5 682Q212 697 241 697H266Q278 697 289.5 693Q301 689 314 679L357 642Q366 635 375.5 631.5Q385 628 393 628Z" glyph-name="utilde" horiz-adv-x="518" unicode="&#361;" /><glyph d="M201 0H150L65 331Q62 343 62 358Q62 373 65 387L89 500H139L115 392Q112 378 111.5 367Q111 356 114 343L185 50L381 342Q389 354 394.5 367Q400 380 403 393L426 500H474L450 387Q446 371 439.5 355.5Q433 340 426 331Z" glyph-name="v" horiz-adv-x="476" unicode="v" /><glyph d="M173 0H123L67 331Q63 352 63.5 365Q64 378 67 392L91 500H141L117 392Q114 379 113.5 369Q113 359 116 343L160 58L326 343Q340 369 343 376.5Q346 384 347 392L370 500H420L396 392Q394 381 394 370Q394 359 396 343L439 58L605 343Q619 369 621.5 376.5Q624 384 626 392L650 500H698L674 387Q671 373 665 359.5Q659 346 650 331L454 0H404L352 303Z" glyph-name="w" horiz-adv-x="702" unicode="w" /><glyph d="M457 697H508L505 685L421 565H384ZM173 0H123L67 331Q63 352 63.5 365Q64 378 67 392L91 500H141L117 392Q114 379 113.5 369Q113 359 116 343L160 58L326 343Q340 369 343 376.5Q346 384 347 392L370 500H420L396 392Q394 381 394 370Q394 359 396 343L439 58L605 343Q619 369 621.5 376.5Q624 384 626 392L650 500H698L674 387Q671 373 665 359.5Q659 346 650 331L454 0H404L352 303Z" glyph-name="wacute" horiz-adv-x="702" unicode="&#7811;" /><glyph d="M504 565H470L423 663L334 565H296L407 697H449ZM173 0H123L67 331Q63 352 63.5 365Q64 378 67 392L91 500H141L117 392Q114 379 113.5 369Q113 359 116 343L160 58L326 343Q340 369 343 376.5Q346 384 347 392L370 500H420L396 392Q394 381 394 370Q394 359 396 343L439 58L605 343Q619 369 621.5 376.5Q624 384 626 392L650 500H698L674 387Q671 373 665 359.5Q659 346 650 331L454 0H404L352 303Z" glyph-name="wcircumflex" horiz-adv-x="702" unicode="&#373;" /><glyph d="M381 600H337L352 670H396ZM480 600H436L452 670H495ZM173 0H123L67 331Q63 352 63.5 365Q64 378 67 392L91 500H141L117 392Q114 379 113.5 369Q113 359 116 343L160 58L326 343Q340 369 343 376.5Q346 384 347 392L370 500H420L396 392Q394 381 394 370Q394 359 396 343L439 58L605 343Q619 369 621.5 376.5Q624 384 626 392L650 500H698L674 387Q671 373 665 359.5Q659 346 650 331L454 0H404L352 303Z" glyph-name="wdieresis" horiz-adv-x="702" unicode="&#7813;" /><glyph d="M173 0H123L67 331Q63 352 63.5 365Q64 378 67 392L91 500H141L117 392Q114 379 113.5 369Q113 359 116 343L160 58L326 343Q340 369 343 376.5Q346 384 347 392L370 500H420L396 392Q394 381 394 370Q394 359 396 343L439 58L605 343Q619 369 621.5 376.5Q624 384 626 392L650 500H698L674 387Q671 373 665 359.5Q659 346 650 331L454 0H404L352 303ZM380 565 314 685 317 697H365L415 565Z" glyph-name="wgrave" horiz-adv-x="702" unicode="&#7809;" /><glyph d="M46 67 32 0H-16L-1 68Q3 89 15.5 107.5Q28 126 47 140L201 255L102 363Q87 379 82 400.5Q77 422 83 448L94 500H141L130 450Q125 428 128.5 414Q132 400 144 387L240 282L389 397Q402 407 408.5 417Q415 427 418 441L431 500H479L465 436Q461 416 449.5 399.5Q438 383 417 367L266 254L370 141Q385 125 389.5 103.5Q394 82 389 58L376 0H329L342 56Q347 77 343.5 91Q340 105 329 117L227 227L76 111Q63 100 56 90Q49 80 46 67Z" glyph-name="x" horiz-adv-x="486" unicode="x" /><glyph d="M24 -190H-29L-19 -146H30Q52 -146 67 -137Q82 -128 94 -109L158 -8L66 329Q62 342 61.5 357Q61 372 65 388L89 500H138L115 392Q112 378 112 365.5Q112 353 114 343L193 48L382 343Q392 359 396.5 370Q401 381 403 392L426 500H474L450 387Q447 372 441 357.5Q435 343 427 331L138 -119Q114 -157 88 -173.5Q62 -190 24 -190Z" glyph-name="y" horiz-adv-x="476" unicode="y" /><glyph d="M24 -190H-29L-19 -146H30Q52 -146 67 -137Q82 -128 94 -109L158 -8L66 329Q62 342 61.5 357Q61 372 65 388L89 500H138L115 392Q112 378 112 365.5Q112 353 114 343L193 48L382 343Q392 359 396.5 370Q401 381 403 392L426 500H474L450 387Q447 372 441 357.5Q435 343 427 331L138 -119Q114 -157 88 -173.5Q62 -190 24 -190ZM336 697H387L384 685L300 565H263Z" glyph-name="yacute" horiz-adv-x="476" unicode="&#253;" /><glyph d="M24 -190H-29L-19 -146H30Q52 -146 67 -137Q82 -128 94 -109L158 -8L66 329Q62 342 61.5 357Q61 372 65 388L89 500H138L115 392Q112 378 112 365.5Q112 353 114 343L193 48L382 343Q392 359 396.5 370Q401 381 403 392L426 500H474L450 387Q447 372 441 357.5Q435 343 427 331L138 -119Q114 -157 88 -173.5Q62 -190 24 -190ZM394 565H360L313 663L224 565H186L297 697H339Z" glyph-name="ycircumflex" horiz-adv-x="476" unicode="&#375;" /><glyph d="M24 -190H-29L-19 -146H30Q52 -146 67 -137Q82 -128 94 -109L158 -8L66 329Q62 342 61.5 357Q61 372 65 388L89 500H138L115 392Q112 378 112 365.5Q112 353 114 343L193 48L382 343Q392 359 396.5 370Q401 381 403 392L426 500H474L450 387Q447 372 441 357.5Q435 343 427 331L138 -119Q114 -157 88 -173.5Q62 -190 24 -190ZM263 600H219L234 670H278ZM362 600H318L334 670H377Z" glyph-name="ydieresis" horiz-adv-x="476" unicode="&#255;" /><glyph d="M275 142 245 0H196L225 142H34L41 177H233L248 249L243 259H58L65 293H227L125 514Q119 527 118.5 543.5Q118 560 122 580L148 697H196L171 584Q167 563 167.5 550Q168 537 173 526L282 294L486 523Q499 538 506 552Q513 566 516 582L541 697H589L564 580Q560 559 552 542.5Q544 526 533 514L336 293H500L492 259H306L298 250L282 177H475L468 142Z" glyph-name="yen" horiz-adv-x="567" unicode="&#165;" /><glyph d="M433 461 45 43H351L342 0H-28L-19 38L369 456H76L86 500H442Z" glyph-name="z" horiz-adv-x="439" unicode="z" /><glyph d="M326 697H377L374 685L290 565H253ZM433 461 45 43H351L342 0H-28L-19 38L369 456H76L86 500H442Z" glyph-name="zacute" horiz-adv-x="439" unicode="&#378;" /><glyph d="M294 565H252L197 697H232L278 599L367 697H405ZM433 461 45 43H351L342 0H-28L-19 38L369 456H76L86 500H442Z" glyph-name="zcaron" horiz-adv-x="439" unicode="&#382;" /><glyph d="M433 461 45 43H351L342 0H-28L-19 38L369 456H76L86 500H442ZM300 601H248L264 679H316Z" glyph-name="zdotaccent" horiz-adv-x="439" unicode="&#380;" /><glyph d="M47 155 136 571Q150 635 189.5 668Q229 701 293 701H424Q501 701 533 659.5Q565 618 549 542L460 126Q446 62 406.5 29Q367 -4 303 -4H173Q96 -4 63.5 37.5Q31 79 47 155ZM177 42H303Q345 42 372 64Q399 86 408 128L499 554Q510 605 490 630Q470 655 418 655H292Q250 655 223 633Q196 611 187 569L96 143Q85 93 105.5 67.5Q126 42 177 42Z" glyph-name="zero" horiz-adv-x="574" unicode="0" /><glyph d="M8 85 53 298Q60 333 83.5 352.5Q107 372 142 372H219Q261 372 279 349Q297 326 288 284L243 72Q235 35 212.5 16.5Q190 -2 153 -2H77Q35 -2 17 20.5Q-1 43 8 85ZM95 295 50 82Q45 58 54.5 46Q64 34 88 34H152Q171 34 184 44.5Q197 55 201 74L246 287Q251 311 241.5 323Q232 335 209 335H145Q126 335 112.5 324Q99 313 95 295Z" glyph-name="zero.denominator" horiz-adv-x="343" unicode="&#63061;" /><glyph d="M-23 -65 22 148Q29 183 52.5 202.5Q76 222 111 222H188Q230 222 248 199Q266 176 257 134L212 -78Q204 -115 181.5 -133.5Q159 -152 122 -152H46Q4 -152 -14 -129.5Q-32 -107 -23 -65ZM64 145 19 -68Q14 -92 23.5 -104Q33 -116 57 -116H121Q140 -116 153 -105.5Q166 -95 170 -76L215 137Q220 161 210.5 173Q201 185 178 185H114Q95 185 81.5 174Q68 163 64 145Z" glyph-name="zero.inferior" horiz-adv-x="344" unicode="&#8320;" /><glyph d="M78 413 123 626Q130 661 153.5 680.5Q177 700 212 700H289Q331 700 349 677Q367 654 358 612L313 400Q305 363 282.5 344.5Q260 326 223 326H147Q105 326 87 348.5Q69 371 78 413ZM165 623 120 410Q115 386 124.5 374Q134 362 158 362H222Q241 362 254 372.5Q267 383 271 402L316 615Q321 639 311.5 651Q302 663 279 663H215Q196 663 182.5 652Q169 641 165 623Z" glyph-name="zero.numerator" horiz-adv-x="343" unicode="&#63073;" /><glyph d="M110 564 155 777Q162 812 185.5 831.5Q209 851 244 851H321Q363 851 381 828Q399 805 390 763L345 551Q337 514 314.5 495.5Q292 477 255 477H179Q137 477 119 499.5Q101 522 110 564ZM197 774 152 561Q147 537 156.5 525Q166 513 190 513H254Q273 513 286 523.5Q299 534 303 553L348 766Q353 790 343.5 802Q334 814 311 814H247Q228 814 214.5 803Q201 792 197 774Z" glyph-name="zero.superior" horiz-adv-x="344" unicode="&#8304;" /><glyph d="M53 155 142 571Q156 635 195.5 668Q235 701 299 701H430Q507 701 539 659.5Q571 618 555 542L466 126Q452 62 412.5 29Q373 -4 309 -4H179Q102 -4 69.5 37.5Q37 79 53 155ZM183 42H309Q351 42 378.5 64Q406 86 415 128L506 554Q517 605 496.5 630Q476 655 424 655H298Q256 655 229 633Q202 611 193 569L103 143Q92 93 112 67.5Q132 42 183 42Z" glyph-name="zero.tab" horiz-adv-x="586" unicode="&#65296;" /></font>
</defs>
</svg>
