<?xml version="1.0" encoding="UTF-8"?><svg id="website_DARK_MODE" xmlns="http://www.w3.org/2000/svg" xmlns:xlink="http://www.w3.org/1999/xlink" viewBox="0 0 180 180"><defs><style>.cls-1{fill:#d3d3d3;}.cls-1,.cls-2{stroke-width:0px;}.cls-2{fill:url(#linear-gradient);}.cls-3{fill:url(#linear-gradient-2);stroke:#d3d3d3;stroke-miterlimit:10;stroke-width:.5px;}</style><linearGradient id="linear-gradient" x1="38.59" y1="72.01" x2="163.42" y2="72.01" gradientUnits="userSpaceOnUse"><stop offset="0" stop-color="#bfbfbf"/><stop offset="1" stop-color="#575757"/></linearGradient><linearGradient id="linear-gradient-2" x1="15.86" y1="116.06" x2="152.44" y2="116.06" xlink:href="#linear-gradient"/></defs><path class="cls-2" d="M38.59,108.05V35.98L101.01-.06l62.41,36.03v72.07l-62.41,36.04-62.42-36.04ZM101.01,137.02l56.3-32.5V39.51L101.01,7.01l-56.3,32.5v65l56.3,32.5Z"/><path class="cls-1" d="M101.01.23l62.16,35.89v71.78l-62.16,35.89-62.17-35.89V36.12L101.01.23M101.01,137.31l56.55-32.65V39.37L101.01,6.72l-56.55,32.65v65.29l56.55,32.65M101.01-.34l-.25.14-62.17,35.89-.25.14v72.36l.25.14,62.17,35.89.25.14.25-.14,62.16-35.89.25-.14V35.84l-.25-.14L101.26-.2l-.25-.14h0ZM44.96,39.66L101.01,7.3l56.05,32.36v64.72l-56.05,32.36-56.05-32.36V39.66h0Z"/><polygon class="cls-3" points="15.86 61.78 15.86 140.64 84.15 180.07 152.44 140.64 152.44 121.18 101.01 150.87 32.71 111.44 32.71 52.05 15.86 61.78"/></svg>