<?xml version="1.0" encoding="UTF-8"?><svg xmlns="http://www.w3.org/2000/svg" xmlns:xlink="http://www.w3.org/1999/xlink" viewBox="0 0 180 180"><defs><style>.cls-1{opacity:.75;}.cls-2{fill:url(#linear-gradient);}.cls-2,.cls-3,.cls-4,.cls-5{stroke-width:0px;}.cls-2,.cls-4{fill-rule:evenodd;}.cls-3{fill:#11110e;}.cls-4{fill:url(#linear-gradient-2);}.cls-5{fill:url(#linear-gradient-3);}</style><linearGradient id="linear-gradient" x1="66.25" y1="4.74" x2="113.18" y2="51.67" gradientUnits="userSpaceOnUse"><stop offset=".18" stop-color="#f5e13f"/><stop offset=".44" stop-color="#dbc01f"/><stop offset=".48" stop-color="#e5cd2b"/><stop offset=".55" stop-color="#eed836"/><stop offset=".62" stop-color="#f1dc3a"/><stop offset=".73" stop-color="#dbc01f"/><stop offset="1" stop-color="#fff"/></linearGradient><linearGradient id="linear-gradient-2" x1="66.25" y1="126.03" x2="113.18" y2="172.95" xlink:href="#linear-gradient"/><linearGradient id="linear-gradient-3" x1="28.53" y1="28.53" x2="151.47" y2="151.47" gradientUnits="userSpaceOnUse"><stop offset="0" stop-color="#d8c688"/><stop offset="1" stop-color="#cfa83e"/></linearGradient></defs><g id="bars"><polygon class="cls-2" points="44.9 30.32 134.54 30.31 128.78 20.34 50.66 20.34 44.9 30.32"/><polygon class="cls-4" points="128.78 157.36 134.54 147.38 44.9 147.38 50.65 157.36 128.78 157.36"/></g><g id="Stroke"><path class="cls-5" d="M133.85,14.06l43.84,75.95-43.85,75.94H46.15L2.31,90.01,46.15,14.06h87.7M41.43,32.32h3.46s89.64,0,89.64,0h3.46s-1.73-3-1.73-3l-5.76-9.97-.58-1H49.5l-.58,1-5.76,9.98-1.73,3M49.5,159.36h80.43l.58-1,5.76-9.98,1.73-3h-3.46s-89.64,0-89.64,0h-3.46s1.73,3,1.73,3l5.76,9.97.58,1M135,12.06H45L0,90.01l45,77.94h90l45-77.94L135,12.06h0ZM44.9,30.32l5.76-9.98h78.13l5.76,9.97H44.9ZM134.54,147.38l-5.76,9.98H50.65l-5.76-9.97h89.64Z"/></g><g id="Layer_4"><g class="cls-1"><polygon class="cls-3" points="13.5 129.5 41.5 179.5 144 179.5 180 115 174 105 136.83 169.81 43.39 170.22 17 124 13.5 129.5"/></g></g></svg>