<?xml version="1.0" encoding="UTF-8"?><svg id="Layer_2" xmlns="http://www.w3.org/2000/svg" viewBox="0 0 1500 841"><defs><style>.cls-1{fill:#212121;}.cls-1,.cls-2,.cls-3,.cls-4,.cls-5,.cls-6{stroke-width:0px;}.cls-2{fill:#000;opacity:.65;}.cls-3{fill:#e9e9f4;}.cls-7{opacity:.75;}.cls-4,.cls-6{fill:#afff00;}.cls-5{fill:#c0c0c9;}.cls-6{opacity:.7;}</style></defs><polygon class="cls-2" points="76.76 24.44 228.93 24.44 241.81 24.44 385.82 24.44 409 24.44 459.21 24.49 459.21 94.01 408.18 145.13 352.1 145.13 343.33 136.54 106.07 136.54 97.45 145.13 15.5 145.13 15.5 24.53 76.76 24.44"/><g class="cls-7"><path class="cls-1" d="M5.51,72.01l-.08-57.55h410.29s55.48.02,55.48.02v85.09s-57.47,57.56-57.47,57.56h-65.13s-8.76-8.6-8.76-8.6H111.62s-8.62,8.6-8.62,8.6H5.51v-85.12ZM110.98,146.99h229.49s8.76,8.6,8.76,8.6h63.87s56.57-56.66,56.57-56.66V15.91s-54.93.08-54.93.08H7s.05,56.66.05,56.66v82.95s95.32,0,95.32,0l8.62-8.6Z"/><polygon class="cls-1" points="5.43 15.22 5.43 5.95 159.63 5.73 163.74 9.69 351.96 9.69 357.2 14.92 5.43 15.22"/><path class="cls-1" d="M576.89,219.69c-7.85,0-14.54,6.01-15.43,13.77h-61.48v-55.94l-.15-.15-.15-.15-45.36-45.36,21.37-21.37.35-.35.35-.35-.35-.35-.35-.35-1.08-1.08-.35-.35-.35-.35-.35.35-.35.35-49.24,49.24-.35.35-.35.35.35.35.35.35,1.08,1.08.35.35.35.35.35-.35.35-.35,25.37-25.37,44.61,44.61v58.01h65.01c.89,7.76,7.58,13.77,15.43,13.77,8.57,0,15.54-6.97,15.54-15.54s-6.97-15.54-15.54-15.54ZM576.89,246.99c-6.49,0-11.76-5.28-11.76-11.76s5.28-11.76,11.76-11.76,11.76,5.28,11.76,11.76-5.28,11.76-11.76,11.76Z"/></g><path class="cls-3" d="M4.51,71.01l-.08-57.55h410.29s55.48.02,55.48.02v85.09s-57.47,57.56-57.47,57.56h-65.13s-8.76-8.6-8.76-8.6H110.62s-8.62,8.6-8.62,8.6H4.51v-85.12ZM109.98,145.99h229.49s8.76,8.6,8.76,8.6h63.87s56.57-56.66,56.57-56.66V14.91s-54.93.08-54.93.08H6s.05,56.66.05,56.66v82.95s95.32,0,95.32,0l8.62-8.6Z"/><polygon class="cls-5" points="4.43 14.22 4.43 4.95 158.63 4.73 162.74 8.69 350.96 8.69 356.2 13.92 4.43 14.22"/><path class="cls-3" d="M575.89,218.69c-7.85,0-14.54,6.01-15.43,13.77h-61.48v-55.94l-.15-.15-.15-.15-45.36-45.36,21.37-21.37.35-.35.35-.35-.35-.35-.35-.35-1.08-1.08-.35-.35-.35-.35-.35.35-.35.35-49.24,49.24-.35.35-.35.35.35.35.35.35,1.08,1.08.35.35.35.35.35-.35.35-.35,25.37-25.37,44.61,44.61v58.01h65.01c.89,7.76,7.58,13.77,15.43,13.77,8.57,0,15.54-6.97,15.54-15.54s-6.97-15.54-15.54-15.54ZM575.89,245.99c-6.49,0-11.76-5.28-11.76-11.76s5.28-11.76,11.76-11.76,11.76,5.28,11.76,11.76-5.28,11.76-11.76,11.76Z"/><polygon class="cls-4" points="502.29 187.08 504.32 187.08 504.32 174.13 495.89 165.7 494.45 167.14 502.29 174.97 502.29 187.08"/><polygon class="cls-4" points="492.93 239.2 492.93 226.44 490.89 226.44 490.89 241.24 505.68 241.24 505.68 239.2 492.93 239.2"/><circle class="cls-6" cx="576.02" cy="234.17" r="9.62"/></svg>