<?xml version="1.0" encoding="UTF-8"?><svg id="Layer_1" xmlns="http://www.w3.org/2000/svg" viewBox="0 0 1400.73 459.75"><defs><style>.cls-1{letter-spacing:-.04em;}.cls-2,.cls-3,.cls-4{fill:#000;}.cls-2,.cls-5{stroke-width:0px;}.cls-6{letter-spacing:.2em;}.cls-3{font-family:Orbitron-Black, Orbitron;font-size:160px;font-weight:800;}.cls-7{letter-spacing:.16em;}.cls-5{fill:#afff00;}.cls-8{letter-spacing:.2em;}.cls-9{letter-spacing:.01em;}.cls-4{font-family:MyriadPro-Regular, 'Myriad Pro';font-size:72px;}.cls-10{letter-spacing:0em;}</style></defs><g id="VeNNeM_Icon"><path id="Body_for_insertion_in_hexagons" class="cls-2" d="M425.06,388.85c.97,12.9,2.3,20.8.56,29.91-24.53-68.6-205.35-55.14-257.27-88.75-17.8-13.7-25.83-35.74-22.79-57.44,6.57-24.16,19.84-50.11,38.42-66.82.89,3.06-.93,5.25-1.98,7.92-2.51,5.47-3.52,11.47-5,17.27-3.09,9.62,1.18,21.64,5.87,29.63,3.32,4.2,13.02,11.65,13.72,12.04,71,36.15,213.92,18.55,228.47,116.22Z"/><path id="New_body" class="cls-2" d="M406.42,412.76c-.36,12.93.15,20.92-2.52,29.81-17.35-70.76-198.59-75.96-246.78-114.73-16.3-15.46-22.02-38.21-16.76-59.47,9.02-23.36,24.89-47.81,45.09-62.52.57,3.13-1.47,5.12-2.78,7.68-3.06,5.19-4.68,11.04-6.75,16.67-4.06,9.25-1.05,21.64,2.79,30.08,2.87,4.52,11.76,12.93,12.41,13.39,66.9,43.26,210.88,40.44,215.31,139.09Z"/><path id="Left_fang" class="cls-2" d="M410.94,132.08c-13.85,13.84-29.16,18.79-45.52,20.23-4.07.36-13.91,1.03-14.6-.76-.1-.25,4.65-1.98,9.04-3.58,5.41-1.97,7.03-2.91,13.39-6.85,3.2-1.96,7.84-5,7-11.58-.36-2.81-7.4-3.61-6.99-6.63.66-.45,13.58-.69,19.28-.75s10.5,2.52,14.87,4.6c5.19,2.48,6.35,2.5,3.52,5.33Z"/><path id="Right_Fang" class="cls-2" d="M396.97,160.07c15.53-4.92,43.61-15.95,21.25-33.21,11.1-3.45,24.58-2.33,33.98,4.76-.02,8.88-10.26,17.74-16.72,23.21-10.72,8.78-25.55,11.13-38.4,5.75-.04-.17-.08-.33-.11-.5Z"/><path id="Mouth" class="cls-2" d="M319.43,228.4c-4.75-11.07-7.85-23.24-9.08-35.55-3.25-20.42,6.02-34.57,27.62-35.92,11.69-.73,20.84-.25,32.55-.56,6.81-.18,16-.42,23.85-1.46-.87,2.12-10.91,4.78-24.51,5.28-14.63.54-28.14,1.8-32.96,4.48-23.4,13.01-20.1,34.44-16.74,63.69-.24.02-.49.03-.73.05Z"/><path id="Left_lower_tooth" class="cls-2" d="M278.1,218.43c1.08,9,2.7,22.53,8.98,28.31,4.38,4.04,6.66,6.03,13.74,7.43.82.16,3.25.51,4.28.62,3.9.38-15.85,4.47-19.67,2.81-12.01-5.21-10.29-28.76-7.32-39.18Z"/><path id="Right_lower_tooth" class="cls-2" d="M315.55,227.8c1.84,21.1,18.28,27.08,33.15,25.85,4.66-.39-13.34,9.35-19.28,7.64-10.98-3.16-19.53-22.68-14.66-33.59.26.03.53.07.79.1Z"/><path id="Head" class="cls-2" d="M364,78.28c-1.46-7.39-6.74-14.62-11.91-20.09-.99-.89-3.21-3.27-1.25-4.25,24.13,8.36,49.91,15.57,75.62,10.27,54.69-17.46,47.38,29.52,38.25,65.91-4.76-8.41-1.17-11.63-11.6-17.26-1.11-.77-.32-1.41,0-2.21,7.87-18.86-1.4-8.83-11.03-3.89-37.3,18.34-190.6,9.64-188.49,60.53,4.42-4.42,8.61-7.6,13.22-11.53.25.13.5.26.75.4.77,33.47.19,67.13,4.83,100.43,6.66,17.91,33.46,18.97,50.03,17.81,17.89-3.18,10.31,1.24.12,7.18-26.89,16.85-55.37,9.15-70.4-18.74-7.79-12.31-9.33-27.06-14.77-40.43-5.88-17.17-13.27-33.83-21.4-50.15-3.96-8.71-8.2-17.32-13.71-25.11-1.88-2.66-2.09-3.59-3.94-5.04-1.05,1.72-.26,3.37.06,4.95.87,4.24,1.69,8.24,1.94,12.43.07,2.87-3.58,1.68-5.25,1.15-12.16-4.44-25.12-1.36-37.38.92-57.01,17.71-105.74,63.94-116.51,123.91-.24-.03-.49-.05-.73-.08-22.49-87.03,18.01-165.64,94.44-209.25,17.26-11.27,35.68-20.98,55.13-27.7,4.94-1.71,9.61-3.25,12.63-4.02,1.54-.39,2.17-.17,2.14.44-.05.79-2.27,3.35-4.28,4.66-3.69,2.41-4.62,2.68-6.16,6.07.46.42,5.47-2.05,12.05-3.48,8.17-1.78,15.24-3.37,22.71-4.64,23.16-3.94,48.58-2.08,69.91-12.83,4.55-2.54,9.96,1.42,14.22,2.74,7.59,1.76,14.1,7.03,19.97,12.03,10.17,6.62,19.86,15.17,26.64,25.15,1.44,2.12,2.02,2.8,4.18,3.73ZM260.65,56.51c4.68,4.99,16.66,2.03,15.96,6.24-.03,3.33.61,6.54,1.94,9.6,2.41,5.87,5.17,12.49,13.2,14.82,3.91,1.13,4.51,1.1,8.55,1.35s-7.27,3.34-5.04,3.71c13.35,2.25,29.28-2.54,36.28-15.18,1.25-1.45,3.83-6.78-.16-5.87-23.7,2.28-29.91-20.62-70.73-14.69Z"/><path id="eye_-_copy" class="cls-5" d="M258.82,56.81c1.67-.35,4.64-.69,7.02-.92,8.49-.83,13.9-.22,18.17.44s9.44,2.01,13.53,3.56c4.24,1.49,5.49,2.45,9.25,4.49,1,.54,2,1.08,2.99,1.64,7.44,3.56,9.76,4.85,17.94,5.34,1.43,0,2.78-.06,3.66-.16,2.14-.39,2.37.21,2.17,2.06-.16,2.36-4.94,8.92-7.3,10.88-2.69,2.23-6.16,4.47-9.31,5.81-6.23,2.63-12.94,3.42-22.56,2.52,3.25-2.91,8.78-3.6,5.96-3.78,0,0-3.25.07-6.31-.8-4.03-1.14-8.51-2.95-11.23-6.32-1.89-2.34-3.1-4.79-4.3-7.55-1.32-3.06-1.91-7.92-1.88-11.25-.21-1.62-1.55-2.25-3.3-2.45-4.39-.51-5.08-.64-9.57-1.51-2.6-.51-4.09-1.38-4.93-1.97Z"/></g><text class="cls-4" transform="translate(598.22 349.49)"><tspan class="cls-6" x="0" y="0">P R O</tspan><tspan class="cls-7" x="229.17" y="0"> </tspan><tspan class="cls-8" x="255.89" y="0">T O C O L</tspan></text><text class="cls-3" transform="translate(522.14 259.71)"><tspan class="cls-1" x="0" y="0">V</tspan><tspan class="cls-9" x="154.08" y="0">eN</tspan><tspan class="cls-10" x="401.12" y="0">N</tspan><tspan class="cls-9" x="534.23" y="0">eM</tspan></text></svg>