<?xml version="1.0" encoding="UTF-8"?><svg id="Layer_1" xmlns="http://www.w3.org/2000/svg" viewBox="0 0 1400.73 459.75"><defs><style>.cls-1{fill:#000;}.cls-1,.cls-2,.cls-3{stroke-width:0px;}.cls-2{fill:#afff00;}.cls-3{fill:#fff;}</style></defs><g id="VeNNeM_Icon"><path id="Body_for_insertion_in_hexagons" class="cls-3" d="M425.06,388.85c.97,12.9,2.3,20.8.56,29.91-24.53-68.6-205.35-55.14-257.27-88.75-17.8-13.7-25.83-35.74-22.79-57.44,6.57-24.16,19.84-50.11,38.42-66.82.89,3.06-.93,5.25-1.98,7.92-2.51,5.47-3.52,11.47-5,17.27-3.09,9.62,1.18,21.64,5.87,29.63,3.32,4.2,13.02,11.65,13.72,12.04,71,36.15,213.92,18.55,228.47,116.22Z"/><path id="New_body" class="cls-3" d="M406.42,412.76c-.36,12.93.15,20.92-2.52,29.81-17.35-70.76-198.59-75.96-246.78-114.73-16.3-15.46-22.02-38.21-16.76-59.47,9.02-23.36,24.89-47.81,45.09-62.52.57,3.13-1.47,5.12-2.78,7.68-3.06,5.19-4.68,11.04-6.75,16.67-4.06,9.25-1.05,21.64,2.79,30.08,2.87,4.52,11.76,12.93,12.41,13.39,66.9,43.26,210.88,40.44,215.31,139.09Z"/><path id="Left_fang" class="cls-3" d="M410.94,132.08c-13.85,13.84-29.16,18.79-45.52,20.23-4.07.36-13.91,1.03-14.6-.76-.1-.25,4.65-1.98,9.04-3.58,5.41-1.97,7.03-2.91,13.39-6.85,3.2-1.96,7.84-5,7-11.58-.36-2.81-7.4-3.61-6.99-6.63.66-.45,13.58-.69,19.28-.75s10.5,2.52,14.87,4.6c5.19,2.48,6.35,2.5,3.52,5.33Z"/><path id="Right_Fang" class="cls-3" d="M396.97,160.07c15.53-4.92,43.61-15.95,21.25-33.21,11.1-3.45,24.58-2.33,33.98,4.76-.02,8.88-10.26,17.74-16.72,23.21-10.72,8.78-25.55,11.13-38.4,5.75-.04-.17-.08-.33-.11-.5Z"/><path id="Mouth" class="cls-3" d="M319.43,228.4c-4.75-11.07-7.85-23.24-9.08-35.55-3.25-20.42,6.02-34.57,27.62-35.92,11.69-.73,20.84-.25,32.55-.56,6.81-.18,16-.42,23.85-1.46-.87,2.12-10.91,4.78-24.51,5.28-14.63.54-28.14,1.8-32.96,4.48-23.4,13.01-20.1,34.44-16.74,63.69-.24.02-.49.03-.73.05Z"/><path id="Left_lower_tooth" class="cls-3" d="M278.1,218.43c1.08,9,2.7,22.53,8.98,28.31,4.38,4.04,6.66,6.03,13.74,7.43.82.16,3.25.51,4.28.62,3.9.38-15.85,4.47-19.67,2.81-12.01-5.21-10.29-28.76-7.32-39.18Z"/><path id="Right_lower_tooth" class="cls-3" d="M315.55,227.8c1.84,21.1,18.28,27.08,33.15,25.85,4.66-.39-13.34,9.35-19.28,7.64-10.98-3.16-19.53-22.68-14.66-33.59.26.03.53.07.79.1Z"/><path id="Head" class="cls-3" d="M364,78.28c-1.46-7.39-6.74-14.62-11.91-20.09-.99-.89-3.21-3.27-1.25-4.25,24.13,8.36,49.91,15.57,75.62,10.27,54.69-17.46,47.38,29.52,38.25,65.91-4.76-8.41-1.17-11.63-11.6-17.26-1.11-.77-.32-1.41,0-2.21,7.87-18.86-1.4-8.83-11.03-3.89-37.3,18.34-190.6,9.64-188.49,60.53,4.42-4.42,8.61-7.6,13.22-11.53.25.13.5.26.75.4.77,33.47.19,67.13,4.83,100.43,6.66,17.91,33.46,18.97,50.03,17.81,17.89-3.18,10.31,1.24.12,7.18-26.89,16.85-55.37,9.15-70.4-18.74-7.79-12.31-9.33-27.06-14.77-40.43-5.88-17.17-13.27-33.83-21.4-50.15-3.96-8.71-8.2-17.32-13.71-25.11-1.88-2.66-2.09-3.59-3.94-5.04-1.05,1.72-.26,3.37.06,4.95.87,4.24,1.69,8.24,1.94,12.43.07,2.87-3.58,1.68-5.25,1.15-12.16-4.44-25.12-1.36-37.38.92-57.01,17.71-105.74,63.94-116.51,123.91-.24-.03-.49-.05-.73-.08-22.49-87.03,18.01-165.64,94.44-209.25,17.26-11.27,35.68-20.98,55.13-27.7,4.94-1.71,9.61-3.25,12.63-4.02,1.54-.39,2.17-.17,2.14.44-.05.79-2.27,3.35-4.28,4.66-3.69,2.41-4.62,2.68-6.16,6.07.46.42,5.47-2.05,12.05-3.48,8.17-1.78,15.24-3.37,22.71-4.64,23.16-3.94,48.58-2.08,69.91-12.83,4.55-2.54,9.96,1.42,14.22,2.74,7.59,1.76,14.1,7.03,19.97,12.03,10.17,6.62,19.86,15.17,26.64,25.15,1.44,2.12,2.02,2.8,4.18,3.73ZM260.65,56.51c4.68,4.99,16.66,2.03,15.96,6.24-.03,3.33.61,6.54,1.94,9.6,2.41,5.87,5.17,12.49,13.2,14.82,3.91,1.13,4.51,1.1,8.55,1.35s-7.27,3.34-5.04,3.71c13.35,2.25,29.28-2.54,36.28-15.18,1.25-1.45,3.83-6.78-.16-5.87-23.7,2.28-29.91-20.62-70.73-14.69Z"/></g><path class="cls-3" d="M603.69,301.54c3.02-.5,6.98-.94,12.02-.94,6.19,0,10.73,1.44,13.61,4.03,2.66,2.3,4.25,5.83,4.25,10.15s-1.3,7.85-3.75,10.37c-3.31,3.53-8.71,5.33-14.83,5.33-1.87,0-3.6-.07-5.04-.43v19.44h-6.26v-47.96ZM609.95,324.94c1.37.36,3.1.5,5.18.5,7.56,0,12.17-3.67,12.17-10.37s-4.54-9.5-11.45-9.5c-2.74,0-4.82.22-5.9.5v18.87ZM686.06,301.61c3.17-.65,7.7-1.01,12.02-1.01,6.7,0,11.02,1.22,14.04,3.96,2.45,2.16,3.82,5.47,3.82,9.22,0,6.41-4.03,10.66-9.15,12.38v.22c3.75,1.3,5.98,4.75,7.13,9.79,1.58,6.77,2.74,11.45,3.74,13.32h-6.48c-.79-1.44-1.87-5.54-3.24-11.59-1.44-6.7-4.03-9.22-9.72-9.43h-5.9v21.03h-6.26v-47.88ZM692.32,323.71h6.41c6.7,0,10.95-3.67,10.95-9.22,0-6.26-4.54-9-11.16-9.07-3.02,0-5.18.29-6.19.58v17.71ZM810.33,324.72c0,16.71-10.15,25.56-22.54,25.56s-21.82-9.94-21.82-24.63c0-15.41,9.58-25.49,22.54-25.49s21.82,10.15,21.82,24.55ZM772.67,325.51c0,10.37,5.62,19.66,15.48,19.66s15.55-9.14,15.55-20.16c0-9.65-5.04-19.73-15.48-19.73s-15.55,9.58-15.55,20.23ZM868.79,306.29h-14.76v-5.33h35.93v5.33h-14.83v43.2h-6.34v-43.2ZM980.9,324.72c0,16.71-10.15,25.56-22.54,25.56s-21.82-9.94-21.82-24.63c0-15.41,9.58-25.49,22.54-25.49s21.82,10.15,21.82,24.55ZM943.24,325.51c0,10.37,5.62,19.66,15.48,19.66s15.55-9.14,15.55-20.16c0-9.65-5.04-19.73-15.48-19.73s-15.55,9.58-15.55,20.23ZM1067.01,347.91c-2.3,1.15-6.91,2.38-12.82,2.38-13.68,0-23.98-8.71-23.98-24.63s10.3-25.49,25.35-25.49c6.05,0,9.87,1.3,11.52,2.16l-1.51,5.11c-2.38-1.15-5.76-2.02-9.79-2.02-11.38,0-18.94,7.27-18.94,20.02,0,11.88,6.84,19.51,18.65,19.51,3.82,0,7.71-.79,10.22-2.02l1.3,4.97ZM1160.39,324.72c0,16.71-10.15,25.56-22.54,25.56s-21.82-9.94-21.82-24.63c0-15.41,9.58-25.49,22.54-25.49s21.82,10.15,21.82,24.55ZM1122.73,325.51c0,10.37,5.62,19.66,15.48,19.66s15.55-9.14,15.55-20.16c0-9.65-5.04-19.73-15.48-19.73s-15.55,9.58-15.55,20.23ZM1212.59,300.96h6.26v43.28h20.74v5.26h-27v-48.53Z"/><path class="cls-3" d="M653.18,144.5h28.64l-66.72,115.2h-20.64l-66.72-115.2h28.8l48.32,83.68,48.32-83.68ZM778.46,190.11v35.52h-69.6v9.6h69.6v24.48h-70.88c-12.64,0-23.2-10.56-23.2-23.2v-46.4c0-12.64,10.56-23.2,23.2-23.2h47.68c12.8,0,23.2,10.56,23.2,23.2ZM753.98,204.19v-12.8h-45.12v12.8h45.12ZM887.58,144.5h25.12v115.2h-25.6l-64.8-77.12v77.12h-24.8v-115.2h25.6l64.48,76.8v-76.8ZM1022.3,144.5h25.12v115.2h-25.6l-64.8-77.12v77.12h-24.8v-115.2h25.6l64.48,76.8v-76.8ZM1158.62,190.11v35.52h-69.6v9.6h69.6v24.48h-70.88c-12.64,0-23.2-10.56-23.2-23.2v-46.4c0-12.64,10.56-23.2,23.2-23.2h47.68c12.8,0,23.2,10.56,23.2,23.2ZM1134.14,204.19v-12.8h-45.12v12.8h45.12ZM1281.18,144.5h25.76v115.2h-24.96v-77.28c-12.96,15.36-26.88,32.32-39.68,47.36l-39.84-47.2v77.12h-24.8v-115.2h25.6l39.04,46.56,38.88-46.56Z"/><g id="eye_-_copy"><path class="cls-2" d="M301.4,94.32c-2.21,0-4.55-.12-7.15-.36l-3.42-.32,2.56-2.29c.68-.61,1.44-1.13,2.21-1.57-.64-.11-1.31-.26-1.97-.45-5.65-1.6-9.57-3.83-11.99-6.82-1.95-2.42-3.21-4.9-4.51-7.9-1.41-3.26-2.02-8.22-2-11.75-.06-.34-.27-.87-1.97-1.06-4.5-.52-5.29-.68-9.68-1.53-2.19-.43-3.99-1.15-5.5-2.22l-2.82-1.99,3.37-.71c1.94-.41,5.33-.77,7.18-.95,2.79-.27,5.46-.41,7.95-.41,4.47,0,7.86.43,10.59.85,4.42.68,9.72,2.08,13.83,3.64,3.39,1.19,4.93,2.06,7.27,3.37.64.36,1.34.75,2.17,1.2l.41.22c.87.47,1.74.94,2.6,1.43l.95.45c6.62,3.18,8.85,4.25,16.34,4.69h.1c1.26,0,2.5-.06,3.31-.15.41-.08.84-.12,1.2-.12.88,0,1.57.27,2.04.8.75.83.7,1.95.59,3.03-.2,2.97-5.44,9.89-7.83,11.88-2.98,2.48-6.61,4.73-9.69,6.03-4.84,2.04-9.97,2.99-16.13,2.99Z"/><path class="cls-1" d="M273.65,55.49c4.3,0,7.58.41,10.36.84,4.26.66,9.44,2.01,13.53,3.56,4.24,1.49,5.49,2.45,9.25,4.49,1,.54,2,1.08,2.99,1.64,7.44,3.56,9.76,4.85,17.94,5.34.06,0,.13,0,.19,0,1.36,0,2.62-.06,3.47-.16.41-.07.75-.11,1.03-.11,1.18,0,1.3.68,1.14,2.17-.16,2.36-4.94,8.92-7.3,10.88-2.69,2.23-6.16,4.47-9.31,5.81-4.59,1.94-9.45,2.88-15.54,2.88-2.17,0-4.49-.12-7.02-.35,3.25-2.91,8.78-3.6,5.96-3.78,0,0-.06,0-.16,0-.69,0-3.49-.05-6.15-.8-4.03-1.14-8.51-2.95-11.23-6.32-1.89-2.34-3.1-4.79-4.3-7.55-1.32-3.06-1.91-7.92-1.88-11.25-.21-1.62-1.55-2.25-3.3-2.45-4.39-.51-5.08-.64-9.57-1.51-2.6-.51-4.09-1.38-4.93-1.97,1.67-.35,4.64-.69,7.02-.92,2.95-.29,5.52-.4,7.81-.4M273.65,52.49h0c-2.54,0-5.26.14-8.1.42-1.88.18-5.33.55-7.34.97l-6.75,1.42,5.64,3.97c1.68,1.19,3.67,1.99,6.08,2.46,4.44.87,5.24,1.02,9.8,1.55.29.03.5.08.65.12.05,3.64.7,8.52,2.12,11.8,1.34,3.11,2.66,5.7,4.72,8.25,2.46,3.04,6.28,5.34,11.67,7l-4.87,4.36,6.84.64c2.65.25,5.04.37,7.29.37,6.37,0,11.67-.99,16.71-3.11,3.21-1.35,6.97-3.69,10.06-6.26,2.35-1.96,8.05-9.2,8.37-12.91.1-.98.27-2.77-.97-4.15-.53-.59-1.51-1.3-3.16-1.3-.43,0-.91.05-1.46.14-.76.08-1.89.13-3.04.13h-.1c-7.13-.43-9.13-1.39-15.7-4.55l-.95-.45c-.84-.47-1.69-.93-2.53-1.39l-.41-.22c-.82-.44-1.51-.84-2.15-1.19-2.31-1.3-3.98-2.24-7.5-3.48-4.21-1.59-9.61-3.01-14.1-3.71-2.79-.43-6.25-.87-10.82-.87h0Z"/></g></svg>