<?xml version="1.0" encoding="UTF-8"?><svg id="Layer_1" xmlns="http://www.w3.org/2000/svg" viewBox="0 0 200 100"><defs><style>.cls-1{fill:#d4d6d7;}.cls-1,.cls-2,.cls-3,.cls-4,.cls-5{stroke-width:0px;}.cls-2,.cls-3{fill:#003a80;}.cls-3,.cls-5{fill-rule:evenodd;}.cls-4,.cls-5{fill:#fff;}.cls-6{fill:none;stroke:#003a80;stroke-miterlimit:3.86;stroke-width:.29px;}</style></defs><polygon class="cls-2" points="44.48 25.61 49.81 25.71 60.76 25.71 62.63 20.67 54.3 7.34 74.55 25.67 166.53 25.76 105.53 99.29 44.48 25.61 44.48 25.61"/><polygon class="cls-4" points="44.27 24.85 49.61 24.94 60.55 24.94 62.42 19.9 54.09 6.58 74.35 24.9 166.33 24.99 105.32 98.52 44.27 24.85 44.27 24.85"/><path class="cls-1" d="M61.48,18.34l-9.9-14.91,11.97,13.35-2.07,1.56h0ZM65.64,24.59l-2.35-3.54c.68-1.01,1.24-1.82,1.54-2.21l5.73,8.18-4.92-2.44h0ZM117.14,80.93l-11.63,14.06,11.63-14.06h0ZM59.24,27.17h2.95l-1.54-2.15,1.16-1.75,1.19.59,9.18,13.1-4.61-2.28-3.56-1.76.36.43-6.97-3.33s.77-1.2,1.84-2.84h0ZM49.7,27.17h0ZM107.24,52.8l-.71-.3c.5.22.69.3.71.3h0ZM100.08,36.22l-8.1-2.85-8.66,8.6-1.71-.78-4.28-5.93-3.35-4.79,2.36,1.17,5.81,2.88-6.3-7.34h85.75l-34.76,42.02-13.92-13.96-5.69-2.45s-.21-.08-.71-.3c-.88-.39-2.69-1.2-6.08-2.74l.98-11.8s-1.34-1.75-1.34-1.75v.02h0Z"/><path class="cls-2" d="M64.68,17.86l-.8-.36.8.36h0ZM100.09,36.21s1.31,1.77,1.34,1.75l-.98,11.8c5.32,2.41,6.75,3.04,6.79,3.04-.1.11,17.65,18.79,17.65,18.79l-19.54,23.55L49.23,27.57l16.63-12.54,4.68,5.71-5.49-2.15c-.25,0-7.72,11.47-7.66,11.43l6.97,3.33,32.47,38.09-21.24-31.03,8.17,4.05-2.34-3.34,5.02,2.28,2.49-3.52,2.33,5.41,4.78,2.39.43-1.5-1-2.63,1.77.97,2.83-8.31h0ZM97.61,40.58l-2.32,2.03-2.32-4.14,4.64,2.11h0Z"/><path class="cls-6" d="M64.68,17.86l-.8-.36.8.36h0ZM100.09,36.21s1.31,1.77,1.34,1.75l-.98,11.8c5.32,2.41,6.75,3.04,6.79,3.04-.1.11,17.65,18.79,17.65,18.79l-19.54,23.55L49.23,27.57l16.63-12.54,4.68,5.71-5.49-2.15c-.25,0-7.72,11.47-7.66,11.43l6.97,3.33,32.47,38.09-21.24-31.03,8.17,4.05-2.34-3.34,5.02,2.28,2.49-3.52,2.33,5.41,4.78,2.39.43-1.5-1-2.63,1.77.97,2.83-8.31h0ZM97.61,40.58l-2.32,2.03-2.32-4.14,4.64,2.11h0Z"/><polygon class="cls-2" points="16.43 17.17 3.59 2.04 8.16 2.04 16.48 11.69 24.81 2.04 29.37 2.04 16.43 17.17 16.43 17.17"/><path class="cls-3" d="M31.79,2.04h20.2v2.52h-20.2v-2.52h0ZM47.13,9.44h-15.33v-2.13h15.33v2.13h0ZM52.73,14.66h-20.94v-2.58h20.94v2.58h0Z"/><path class="cls-2" d="M130.51,4.28c-1.93,0-3.37.14-4.34.41-1.06.29-1.25.62-1.25.79s.19.5,1.33.75c.75.17,2,.28,3.78.35,2.63.11,4.36.2,5.2.26,2.39.2,4.2.57,5.4,1.13,1.23.58,1.93,1.45,1.93,2.63,0,1.5-1.09,2.57-2.93,3.28-1.85.71-4.46,1.06-7.82,1.06-4.86,0-8.7-.67-11.46-2.03l-.56-.28,2.39-1.96.22.08c2.92,1.11,6.06,1.67,9.44,1.67,2.2,0,3.87-.19,5.04-.55,1.17-.37,1.47-.79,1.47-1.13,0-.39-.39-.85-1.97-1.1-.8-.13-2.95-.26-6.45-.4-3.12-.13-5.36-.39-6.68-.8-1.55-.48-2.48-1.36-2.48-2.69s1.04-2.34,2.75-3c1.74-.67,4.16-.99,7.21-.99,4.12,0,7.6.59,10.42,1.78l.68.28-2.68,1.85-.19-.06c-2.77-.88-5.59-1.32-8.47-1.32h0Z"/><polygon class="cls-2" points="110.23 14.66 110.23 2.04 114.18 2.04 114.18 14.66 110.23 14.66 110.23 14.66"/><polygon class="cls-2" points="99.53 14.66 99.53 4.63 82.59 4.63 82.59 2.04 103.51 2.04 103.51 14.66 99.53 14.66 99.53 14.66"/><path class="cls-2" d="M55.48,2.04h16.58c2.03,0,3.67.34,4.89,1.07,1.24.72,1.9,1.75,1.9,3.06,0,1.15-.54,2.08-1.57,2.75-.75.49-1.7.83-2.84,1.03l4.37,4.72h-4.83l-4.29-4.5h-7.66l-2.32-2.58h11.88c2.48,0,3.24-.63,3.24-1.41,0-.87-.85-1.54-3.52-1.54h-13.26s-2.55-2.58-2.55-2.58h0Z"/><polygon class="cls-2" points="165.78 14.66 157.34 4.71 148.86 14.66 144.48 14.66 155.19 2.04 159.52 2.04 170.23 14.66 165.78 14.66 165.78 14.66"/><polygon class="cls-2" points="191.2 14.66 177.21 5.32 177.21 14.66 173.27 14.66 173.27 2.04 177.69 2.04 191.65 11.39 191.65 2.04 195.59 2.04 195.59 14.66 191.2 14.66 191.2 14.66"/><polygon class="cls-4" points="15.43 16.17 2.59 1.04 7.16 1.04 15.48 10.69 23.81 1.04 28.37 1.04 15.43 16.17 15.43 16.17"/><path class="cls-5" d="M30.79,1.04h20.2v2.52h-20.2V1.04h0ZM46.13,8.44h-15.33v-2.13h15.33v2.13h0ZM51.73,13.66h-20.94v-2.58h20.94v2.58h0Z"/><path class="cls-4" d="M129.51,3.28c-1.93,0-3.37.14-4.34.41-1.06.29-1.25.62-1.25.79s.19.5,1.33.75c.75.17,2,.28,3.78.35,2.63.11,4.36.2,5.2.26,2.39.2,4.2.57,5.4,1.13,1.23.58,1.93,1.45,1.93,2.63,0,1.5-1.09,2.57-2.93,3.28-1.85.71-4.46,1.06-7.82,1.06-4.86,0-8.7-.67-11.46-2.03l-.56-.28,2.39-1.96.22.08c2.92,1.11,6.06,1.67,9.44,1.67,2.2,0,3.87-.19,5.04-.55,1.17-.37,1.47-.79,1.47-1.13,0-.39-.39-.85-1.97-1.1-.8-.13-2.95-.26-6.45-.4-3.12-.13-5.36-.39-6.68-.8-1.55-.48-2.48-1.36-2.48-2.69s1.04-2.34,2.75-3c1.74-.67,4.16-.99,7.21-.99,4.12,0,7.6.59,10.42,1.78l.68.28-2.68,1.85-.19-.06c-2.77-.88-5.59-1.32-8.47-1.32h0Z"/><polygon class="cls-4" points="109.23 13.66 109.23 1.04 113.18 1.04 113.18 13.66 109.23 13.66 109.23 13.66"/><polygon class="cls-4" points="98.53 13.66 98.53 3.63 81.59 3.63 81.59 1.04 102.51 1.04 102.51 13.66 98.53 13.66 98.53 13.66"/><path class="cls-4" d="M54.48,1.04h16.58c2.03,0,3.67.34,4.89,1.07,1.24.72,1.9,1.75,1.9,3.06,0,1.15-.54,2.08-1.57,2.75-.75.49-1.7.83-2.84,1.03l4.37,4.72h-4.83l-4.29-4.5h-7.66l-2.32-2.58h11.88c2.48,0,3.24-.63,3.24-1.41,0-.87-.85-1.54-3.52-1.54h-13.26s-2.55-2.58-2.55-2.58h0Z"/><polygon class="cls-4" points="164.78 13.66 156.34 3.71 147.86 13.66 143.48 13.66 154.19 1.04 158.52 1.04 169.23 13.66 164.78 13.66 164.78 13.66"/><polygon class="cls-4" points="190.2 13.66 176.21 4.32 176.21 13.66 172.27 13.66 172.27 1.04 176.69 1.04 190.65 10.39 190.65 1.04 194.59 1.04 194.59 13.66 190.2 13.66 190.2 13.66"/></svg>