<?xml version="1.0" encoding="UTF-8"?><svg xmlns="http://www.w3.org/2000/svg" viewBox="0 0 2000 410"><defs><style>.cls-1{fill:#a87676;}.cls-1,.cls-2,.cls-3,.cls-4{stroke-width:0px;}.cls-2{fill:#d19292;}.cls-3{fill:#fff;}.cls-4{fill:#674848;}</style></defs><g id="Vertisan_DeFi_Symbol"><g id="_2024_Vertisan_DeFi_Logo"><polygon class="cls-3" points="32.2 3.82 221.48 156.02 470.31 8.99 473.59 10.89 246.8 404.74 160.14 251.31 249.18 221.6 266.3 237.86 318.64 175.05 27.31 271.95 27.29 271.37 135.07 207.51 29.39 5.44 32.2 3.82"/></g></g><g id="FAT_LOGO"><g id="_2024_Vertisan_DeFi_Logo-2"><polygon class="cls-4" points="32.2 3.82 226.91 152.81 470.31 8.99 473.59 10.89 246.8 404.74 160.14 251.31 249.18 221.6 266.3 237.86 318.64 175.05 27.31 271.95 27.29 271.37 135.07 207.51 29.39 5.44 32.2 3.82"/></g><g id="_2024_Vertisan_DeFi_Logo-3"><polygon class="cls-1" points="32.2 3.82 226.91 152.81 470.31 8.99 473.59 10.89 246.8 404.74 160.14 251.31 249.18 221.6 266.3 237.86 318.64 175.05 27.31 271.95 27.29 271.37 135.07 207.51 29.39 5.44 32.2 3.82"/></g></g><g id="Layer_8"><path class="cls-2" d="M679.62,105.18h-.98c-11.16,0-23.63,8.86-49.22,62.35l-80.07,166.04c-.66,1.31-1.31,1.97-3.28,1.97h-21.99c-1.64,0-2.3-.66-2.63-1.97l-34.78-212.64c-2.3-14.44-3.28-15.75-8.53-15.75h-6.89c-2.3,0-2.63-.66-2.63-1.97s.66-1.97,3.28-1.97h83.68c2.3,0,2.62.66,2.62,1.97s-.33,1.97-3.28,1.97h-12.8c-6.56,0-7.55,1.64-5.58,15.75l26.25,172.93h.66l60.71-126.99c18.7-39.05,16.41-61.69-2.95-61.69h-6.56c-2.3,0-2.62-.66-2.62-1.97s.33-1.97,3.28-1.97h64.97c2.3,0,2.63.66,2.63,1.97s-.66,1.97-3.28,1.97ZM651.07,332.92c-2.3,0-2.63-.66-2.63-1.97s.66-1.97,3.28-1.97h12.14c3.94,0,4.27-1.64,6.56-13.45l34.78-196.89c1.97-12.14,1.97-13.45-1.97-13.45h-14.11c-2.62,0-2.95-.66-2.95-1.97s.66-1.97,3.28-1.97h157.84c2.3,0,2.62.98,2.3,2.62l-13.13,73.83c-.33,2.3-.98,2.95-2.63,2.95s-1.97-.98-1.64-2.95l.66-3.94c5.91-34.78-9.84-68.58-45.61-68.58h-27.89c-2.3,0-2.62.66-2.95,2.3l-17.72,99.76c-.33,1.97,0,2.63,1.97,2.63h16.08c21,0,40.36-15.1,43.97-34.78l.66-3.28c.33-1.97.98-2.63,2.3-2.63,1.97,0,2.3.98,1.97,2.63l-14.11,79.74c-.33,2.3-.98,2.95-2.63,2.95s-1.97-.98-1.64-2.95l.66-2.63c3.61-19.69-11.49-35.44-31.5-35.44h-16.08c-2.3,0-2.63.66-2.95,2.3l-20.02,110.91c-.33,1.64.33,2.3,2.63,2.3h29.21c46.6,0,78.43-40.03,84.66-71.21l.66-3.61c.33-2.3.98-2.95,2.63-2.95s1.97.98,1.64,2.95l-13.13,75.8c-.33,2.3-.98,2.95-3.61,2.95h-170.96ZM972.66,298.79c.98-16.41,9.52-41.02,9.52-60.05,0-15.75-8.53-25.27-25.27-25.27h-25.27c-2.63,0-2.95.66-3.28,2.3l-17.72,99.76c-2.3,12.14-1.97,13.45,1.64,13.45h14.44c2.3,0,2.62.66,2.62,1.97s-.33,1.97-3.28,1.97h-84.01c-2.3,0-2.63-.66-2.63-1.97s.66-1.97,3.28-1.97h12.14c3.94,0,4.27-1.64,6.56-13.45l34.78-196.89c1.97-12.14,1.97-13.45-1.64-13.45h-14.44c-2.3,0-2.3-.98-2.3-1.97s.66-1.97,3.28-1.97h99.76c34.13,0,64.65,12.47,64.65,46.27,0,40.69-37.08,61.36-72.19,64.32v.33c34.46,3.61,54.47,20.67,54.47,48.89,0,17.39-8.2,41.35-8.2,55.13,0,5.58,2.3,9.52,7.88,9.52,13.45,0,20.02-24.28,22.64-38.07.33-1.64.66-2.3,2.3-2.3s2.3.98,1.64,3.61c-5.58,25.6-18.38,47.91-43.64,47.91s-40.03-14.44-37.74-38.07ZM998.91,131.76c0-20.34-9.84-26.58-22.64-26.58h-25.6c-2.63,0-2.95.98-3.28,2.3l-17.72,99.76c-.33,1.64,0,2.63,2.3,2.63h26.25c17.39,0,27.24-10.83,32.16-26.91,4.92-14.77,8.53-35.77,8.53-51.19ZM1180.7,332.92h-86.3c-2.3,0-2.63-.66-2.63-1.97s.66-1.97,3.28-1.97h13.13c4.27,0,4.59-1.64,6.89-13.45l36.42-207.72c.33-1.97-.66-2.62-2.3-2.62h-15.09c-34.46,0-61.04,34.78-67.93,71.86l-1.31,5.58c-.33,2.3-.98,2.95-2.63,2.95s-1.97-.98-1.64-2.95l14.11-78.75c.33-1.97.66-2.62,2.95-2.62h199.19c2.3,0,2.95.98,2.63,2.62l-14.11,78.75c-.33,2.3-.98,2.95-2.95,2.95-1.64,0-1.97-.98-1.64-2.95l.98-5.91c6.56-36.75-7.88-71.54-42.66-71.54h-15.1c-2.3,0-2.95.66-3.28,2.3l-36.75,208.05c-1.97,12.14-1.97,13.45,1.97,13.45h15.42c2.3,0,2.63.66,2.63,1.97s-.33,1.97-3.28,1.97ZM1338.87,332.92h-84.01c-2.3,0-2.63-.66-2.63-1.97s.66-1.97,3.28-1.97h12.14c3.94,0,4.27-1.64,6.56-13.45l34.78-196.89c1.97-12.14,1.97-13.45-1.97-13.45h-14.11c-2.62,0-2.95-.66-2.95-1.97s.66-1.97,3.28-1.97h84.33c1.97,0,2.3.98,2.3,1.97s-.33,1.97-3.28,1.97h-12.14c-3.94,0-4.27,1.31-6.56,13.45l-34.46,196.89c-2.3,12.14-1.97,13.45,1.64,13.45h14.44c2.3,0,2.62.66,2.62,1.97s-.33,1.97-3.28,1.97ZM1436.98,336.85c-16.74,0-34.78-3.28-53.49-8.53-13.45-3.61-17.72-4.59-18.7-.33l-.33,2.63c-.33,2.3-.98,2.95-2.95,2.95-1.64,0-1.97-.98-1.64-2.95l14.77-85.97c.33-1.97.98-2.63,2.95-2.63,1.64,0,1.97.98,1.64,2.63l-.66,5.91c-7.88,48.57,17.06,82.69,58.41,82.69,29.53,0,46.93-17.39,46.93-41.35,0-53.49-94.83-54.14-94.83-120.1,0-40.03,30.52-74.49,76.79-74.49,13.45,0,26.25,3.61,40.69,8.2,14.11,4.27,16.41,4.59,17.06.33l.66-2.62c.33-2.3.98-2.95,2.62-2.95s1.97.98,1.64,2.95l-12.8,74.49c-.33,1.97-.98,2.63-2.62,2.63-1.97,0-2.3-.98-1.97-2.63l.98-5.91c6.23-38.39-10.17-70.88-46.93-70.88-23.3,0-39.05,15.42-39.05,38.39,0,52.83,98.44,54.47,98.44,120.43,0,46.92-36.75,77.11-87.61,77.11ZM1639.11,332.92c-2.3,0-2.63-.66-2.63-1.97s.33-1.97,2.95-1.97h13.13c6.23,0,7.55-1.64,5.58-15.75l-10.5-64.32c-.33-1.97-.66-2.63-2.95-2.63h-64.65c-1.97,0-2.63.33-3.61,2.3l-8.86,18.7c-18.7,39.05-16.74,61.69,3.28,61.69h6.24c2.3,0,2.62.66,2.62,1.97s-.33,1.97-2.95,1.97h-64.97c-2.3,0-2.62-.66-2.62-1.97s.33-1.97,2.95-1.97h1.31c10.83,0,23.3-9.52,48.89-62.35l81.05-166.04c.66-1.31,1.31-1.97,3.61-1.97h22.31c1.97,0,2.3.66,2.63,1.97l36.1,212.64c2.3,14.44,3.61,15.75,8.86,15.75h6.23c2.3,0,2.63.66,2.63,1.97s-.33,1.97-2.95,1.97h-83.68ZM1630.25,139.31h-.66l-48.89,100.74c-.66,1.64-.33,2.63,1.64,2.63h62.02c1.64,0,2.3-.66,1.97-2.3l-16.08-101.07ZM1973.16,105.18h-1.31c-15.42,0-22.64,14.77-33.14,73.83l-27.24,154.23c-.33,1.97-.98,2.3-2.95,2.3h-26.91c-1.97,0-2.63-.66-3.28-2.3l-86.63-217.56h-.33l-23.95,137.17c-9.52,55.13-3.28,76.13,22.31,76.13h4.59c2.3,0,2.63.66,2.63,1.97s-.66,1.97-3.28,1.97h-66.29c-2.3,0-2.63-.66-2.63-1.97s.66-1.97,3.28-1.97h1.31c15.42,0,22.64-14.77,33.14-73.83l23.95-136.51c2.3-12.14,1.97-13.45-1.97-13.45h-14.11c-2.3,0-2.62-.66-2.62-1.97s.33-1.97,3.28-1.97h63.99c2.3,0,2.95.33,3.61,1.97l75.15,188.36h.66l19.36-110.26c9.84-55.13,3.28-76.13-22.31-76.13h-4.59c-2.3,0-2.62-.66-2.62-1.97s.66-1.97,3.28-1.97h66.29c2.3,0,2.62.66,2.62,1.97s-.66,1.97-3.28,1.97Z"/></g></svg>