<?xml version="1.0" encoding="UTF-8"?><svg id="Layer_1" xmlns="http://www.w3.org/2000/svg" xmlns:xlink="http://www.w3.org/1999/xlink" viewBox="0 0 40 40"><defs><style>.cls-1{opacity:.18;}.cls-2,.cls-3{stroke-width:0px;}.cls-4{filter:url(#drop-shadow-1);}.cls-3{fill:#fff;}</style><filter id="drop-shadow-1" filterUnits="userSpaceOnUse"><feOffset dx="2" dy="2"/><feGaussianBlur result="blur" stdDeviation="2"/><feFlood flood-color="#000" flood-opacity=".75"/><feComposite in2="blur" operator="in"/><feComposite in="SourceGraphic"/></filter></defs><g class="cls-4"><polygon class="cls-3" points="33.1 4 6.9 4 4.3 7 6.9 10 33.1 10 35.7 7 33.1 4"/><polygon class="cls-3" points="33.1 30 6.9 30 4.3 33 6.9 36 33.1 36 35.7 33 33.1 30"/><polygon class="cls-3" points="33.1 17 6.9 17 4.3 20 6.9 23 33.1 23 35.7 20 33.1 17"/></g><g class="cls-1"><polygon class="cls-3" points="6.79 10.25 3.97 7 6.79 3.75 33.21 3.75 36.03 7 33.21 10.25 6.79 10.25"/><path class="cls-2" d="M33.1,4l2.6,3-2.6,3H6.9l-2.6-3,2.6-3h26.2M33.33,3.5H6.67l-.15.17-2.6,3-.28.33.28.33,2.6,3,.15.17h26.65l.15-.17,2.6-3,.28-.33-.28-.33-2.6-3-.15-.17h0Z"/><polygon class="cls-3" points="6.79 36.25 3.97 33 6.79 29.75 33.21 29.75 36.03 33 33.21 36.25 6.79 36.25"/><path class="cls-2" d="M33.1,30l2.6,3-2.6,3H6.9l-2.6-3,2.6-3h26.2M33.33,29.5H6.67l-.15.17-2.6,3-.28.33.28.33,2.6,3,.15.17h26.65l.15-.17,2.6-3,.28-.33-.28-.33-2.6-3-.15-.17h0Z"/><polygon class="cls-3" points="6.79 23.25 3.97 20 6.79 16.75 33.21 16.75 36.03 20 33.21 23.25 6.79 23.25"/><path class="cls-2" d="M33.1,17l2.6,3-2.6,3H6.9l-2.6-3,2.6-3h26.2M33.33,16.5H6.67l-.15.17-2.6,3-.28.33.28.33,2.6,3,.15.17h26.65l.15-.17,2.6-3,.28-.33-.28-.33-2.6-3-.15-.17h0Z"/></g><polygon class="cls-3" points="33.1 4 6.9 4 4.3 7 6.9 10 33.1 10 35.7 7 33.1 4"/><polygon class="cls-3" points="33.1 30 6.9 30 4.3 33 6.9 36 33.1 36 35.7 33 33.1 30"/><polygon class="cls-3" points="33.1 17 6.9 17 4.3 20 6.9 23 33.1 23 35.7 20 33.1 17"/></svg>